M48
;Layer_Color=9474304
;FILE_FORMAT=2:5
INCH,LZ
;TYPE=PLATED
T1F00S00C0.01181
T3F00S00C0.03937
T4F00S00C0.04134
T5F00S00C0.04331
T6F00S00C0.09843
T7F00S00C0.12598
%
T01
X0271063Y0084153
X0271063Y0096752
X0280807Y0165453
X0271063Y0176476
X026085Y0255906
X0260236Y0268799
T03
X0020232Y0054583
X0035433Y0174847
X0337992Y0176476
T04
X0114469Y0090551
X0245177
Y0261811
X0114469
T05
X0010232Y0098248
Y0108248
Y0118248
Y0128248
Y0138248
X0020232
Y0128248
Y0118248
Y0108248
Y0098248
T06
X0185039Y0176378
T07
X0013165Y0019622
X0037402Y0089961
X0332677
X0350468Y0029465
X0332677Y0265158
X0350433Y0319539
X0013165Y0334681
X0037402Y0265158
M30
