M48
;Layer_Color=9474304
;FILE_FORMAT=2:5
INCH,LZ
;TYPE=PLATED
T1F00S00C0.01181
T2F00S00C0.03937
T3F00S00C0.07205
T4F00S00C0.12598
%
T01
X0236157Y0083563
X0240531Y009887
X0051032Y0097272
X0050909Y0087114
X0033701Y0252535
X0030587Y0264193
X0243531Y0264169
T02
X001937Y0054169
X031959Y0049039
X0329591
X0339591
X034959
Y0059039
X0339591
X0329591
X031959
Y0069039
X0329591
Y0079039
X031959
Y0089039
X0329591
Y0099039
X031959
Y0109039
X0329591
Y0119039
X031959
Y0129039
X0329591
Y0139039
X031959
Y0149039
X0329591
Y0159039
X031959
Y0169039
X0329591
Y0179039
X031959
Y0189039
X0329591
Y0199039
X031959
Y0209039
X0329591
X0339591
Y0199039
Y0189039
Y0179039
Y0169039
Y0159039
Y0149039
Y0139039
Y0129039
Y0119039
Y0109039
Y0099039
Y0089039
Y0079039
Y0069039
X034959
Y0079039
Y0089039
Y0099039
Y0109039
Y0119039
Y0129039
Y0139039
Y0149039
Y0159039
Y0169039
Y0179039
Y0189039
Y0199039
Y0209039
X0234722Y0091181
X0104014
X001937Y0097835
Y0107835
Y0117835
Y0127835
Y0137835
X000937
Y0127835
Y0117835
Y0107835
Y0097835
X0023417Y0203791
X0104014Y0258799
X0234722
X031959Y0259039
Y0249039
Y0239039
Y0229039
Y0219039
X0329591
Y0229039
Y0239039
Y0249039
Y0259039
Y0269039
X031959
Y0279039
X0329591
Y0289039
X031959
Y0299039
X0329591
X0339591
Y0289039
Y0279039
Y0269039
Y0259039
Y0249039
Y0239039
Y0229039
Y0219039
X034959
Y0229039
Y0239039
Y0249039
Y0259039
Y0269039
Y0279039
Y0289039
Y0299039
X0318787Y0324071
T03
X0050783Y0048713
X0080783Y0038713
X0257842
X0287842Y0048713
X0257842Y0058713
Y0123673
Y0143673
X0287842Y0133673
X0257842Y0206248
X0080783
Y0143673
Y0123673
Y0058713
X0050783Y0133673
Y0216248
Y0301209
X0080783Y0291209
Y0311209
Y0226248
X0257842
X0287842Y0216248
Y0301209
X0257842Y0311209
Y0291209
T04
X0012303Y0019209
X0349606Y0029051
X0258841Y0091193
Y017798
X0174492
X0080063
Y0091181
X0012303Y0334268
X0080063Y0258799
X0258841Y0258374
X0349571Y0319126
M30
