G04*
G04 #@! TF.GenerationSoftware,Altium Limited,Altium Designer,18.1.7 (191)*
G04*
G04 Layer_Color=8388736*
%FSLAX25Y25*%
%MOIN*%
G70*
G01*
G75*
%ADD10C,0.00787*%
%ADD12C,0.01000*%
G36*
X678975Y-140120D02*
X678201D01*
Y-139236D01*
X678975D01*
Y-140120D01*
D02*
G37*
G36*
X655462D02*
X654688D01*
Y-139236D01*
X655462D01*
Y-140120D01*
D02*
G37*
G36*
X687347Y-140876D02*
X687447Y-140885D01*
X687566Y-140903D01*
X687693Y-140930D01*
X687830Y-140967D01*
X687958Y-141021D01*
X687976Y-141031D01*
X688012Y-141049D01*
X688076Y-141076D01*
X688149Y-141122D01*
X688240Y-141176D01*
X688322Y-141249D01*
X688404Y-141322D01*
X688477Y-141413D01*
X688486Y-141422D01*
X688504Y-141459D01*
X688531Y-141504D01*
X688577Y-141568D01*
X688614Y-141659D01*
X688650Y-141750D01*
X688695Y-141859D01*
X688723Y-141978D01*
Y-141987D01*
X688732Y-142024D01*
X688741Y-142078D01*
X688750Y-142151D01*
Y-142260D01*
X688759Y-142388D01*
X688768Y-142543D01*
Y-142734D01*
Y-145540D01*
X687994D01*
Y-142771D01*
Y-142761D01*
Y-142752D01*
Y-142689D01*
Y-142606D01*
X687985Y-142506D01*
X687976Y-142388D01*
X687958Y-142269D01*
X687930Y-142160D01*
X687903Y-142060D01*
Y-142051D01*
X687885Y-142024D01*
X687857Y-141978D01*
X687830Y-141923D01*
X687784Y-141869D01*
X687730Y-141805D01*
X687657Y-141741D01*
X687575Y-141686D01*
X687566Y-141677D01*
X687538Y-141659D01*
X687484Y-141641D01*
X687420Y-141613D01*
X687347Y-141586D01*
X687256Y-141559D01*
X687147Y-141550D01*
X687038Y-141541D01*
X686992D01*
X686955Y-141550D01*
X686864Y-141559D01*
X686746Y-141577D01*
X686618Y-141623D01*
X686473Y-141677D01*
X686327Y-141750D01*
X686190Y-141859D01*
X686172Y-141878D01*
X686136Y-141923D01*
X686108Y-141960D01*
X686081Y-142005D01*
X686045Y-142060D01*
X686017Y-142124D01*
X685981Y-142197D01*
X685944Y-142288D01*
X685917Y-142388D01*
X685890Y-142497D01*
X685871Y-142616D01*
X685853Y-142743D01*
X685835Y-142898D01*
Y-143053D01*
Y-145540D01*
X685061D01*
Y-140967D01*
X685753D01*
Y-141623D01*
X685762Y-141613D01*
X685780Y-141586D01*
X685808Y-141550D01*
X685844Y-141504D01*
X685899Y-141449D01*
X685962Y-141386D01*
X686035Y-141313D01*
X686127Y-141240D01*
X686218Y-141176D01*
X686327Y-141103D01*
X686445Y-141040D01*
X686573Y-140985D01*
X686719Y-140939D01*
X686864Y-140903D01*
X687028Y-140876D01*
X687201Y-140866D01*
X687274D01*
X687347Y-140876D01*
D02*
G37*
G36*
X671177D02*
X671277Y-140885D01*
X671396Y-140903D01*
X671523Y-140930D01*
X671660Y-140967D01*
X671787Y-141021D01*
X671805Y-141031D01*
X671842Y-141049D01*
X671906Y-141076D01*
X671979Y-141122D01*
X672070Y-141176D01*
X672152Y-141249D01*
X672234Y-141322D01*
X672307Y-141413D01*
X672316Y-141422D01*
X672334Y-141459D01*
X672361Y-141504D01*
X672407Y-141568D01*
X672443Y-141659D01*
X672480Y-141750D01*
X672525Y-141859D01*
X672553Y-141978D01*
Y-141987D01*
X672562Y-142024D01*
X672571Y-142078D01*
X672580Y-142151D01*
Y-142260D01*
X672589Y-142388D01*
X672598Y-142543D01*
Y-142734D01*
Y-145540D01*
X671824D01*
Y-142771D01*
Y-142761D01*
Y-142752D01*
Y-142689D01*
Y-142606D01*
X671815Y-142506D01*
X671805Y-142388D01*
X671787Y-142269D01*
X671760Y-142160D01*
X671733Y-142060D01*
Y-142051D01*
X671714Y-142024D01*
X671687Y-141978D01*
X671660Y-141923D01*
X671614Y-141869D01*
X671560Y-141805D01*
X671487Y-141741D01*
X671405Y-141686D01*
X671396Y-141677D01*
X671368Y-141659D01*
X671314Y-141641D01*
X671250Y-141613D01*
X671177Y-141586D01*
X671086Y-141559D01*
X670976Y-141550D01*
X670867Y-141541D01*
X670822D01*
X670785Y-141550D01*
X670694Y-141559D01*
X670576Y-141577D01*
X670448Y-141623D01*
X670302Y-141677D01*
X670157Y-141750D01*
X670020Y-141859D01*
X670002Y-141878D01*
X669965Y-141923D01*
X669938Y-141960D01*
X669911Y-142005D01*
X669874Y-142060D01*
X669847Y-142124D01*
X669810Y-142197D01*
X669774Y-142288D01*
X669747Y-142388D01*
X669719Y-142497D01*
X669701Y-142616D01*
X669683Y-142743D01*
X669665Y-142898D01*
Y-143053D01*
Y-145540D01*
X668890D01*
Y-140967D01*
X669583D01*
Y-141623D01*
X669592Y-141613D01*
X669610Y-141586D01*
X669637Y-141550D01*
X669674Y-141504D01*
X669729Y-141449D01*
X669792Y-141386D01*
X669865Y-141313D01*
X669956Y-141240D01*
X670047Y-141176D01*
X670157Y-141103D01*
X670275Y-141040D01*
X670403Y-140985D01*
X670548Y-140939D01*
X670694Y-140903D01*
X670858Y-140876D01*
X671031Y-140866D01*
X671104D01*
X671177Y-140876D01*
D02*
G37*
G36*
X661539D02*
X661602D01*
X661666Y-140885D01*
X661821Y-140912D01*
X661985Y-140958D01*
X662158Y-141031D01*
X662331Y-141122D01*
X662477Y-141249D01*
X662495Y-141267D01*
X662532Y-141322D01*
X662595Y-141404D01*
X662623Y-141468D01*
X662659Y-141532D01*
X662696Y-141613D01*
X662723Y-141695D01*
X662759Y-141787D01*
X662787Y-141896D01*
X662805Y-142005D01*
X662823Y-142133D01*
X662841Y-142260D01*
Y-142406D01*
Y-145540D01*
X662067D01*
Y-142670D01*
Y-142661D01*
Y-142652D01*
Y-142597D01*
Y-142515D01*
X662058Y-142415D01*
X662049Y-142306D01*
X662040Y-142197D01*
X662021Y-142087D01*
X661994Y-142005D01*
Y-141996D01*
X661976Y-141969D01*
X661958Y-141932D01*
X661930Y-141887D01*
X661894Y-141832D01*
X661848Y-141778D01*
X661794Y-141723D01*
X661721Y-141668D01*
X661712Y-141659D01*
X661684Y-141650D01*
X661648Y-141632D01*
X661584Y-141604D01*
X661520Y-141577D01*
X661438Y-141559D01*
X661356Y-141550D01*
X661256Y-141541D01*
X661211D01*
X661174Y-141550D01*
X661083Y-141559D01*
X660974Y-141577D01*
X660846Y-141623D01*
X660710Y-141677D01*
X660573Y-141759D01*
X660445Y-141869D01*
X660436Y-141887D01*
X660400Y-141932D01*
X660345Y-142005D01*
X660290Y-142115D01*
X660227Y-142260D01*
X660181Y-142433D01*
X660145Y-142643D01*
X660126Y-142889D01*
Y-145540D01*
X659352D01*
Y-142579D01*
Y-142570D01*
Y-142552D01*
Y-142534D01*
Y-142497D01*
X659343Y-142397D01*
X659325Y-142288D01*
X659307Y-142160D01*
X659270Y-142033D01*
X659225Y-141914D01*
X659161Y-141805D01*
X659152Y-141796D01*
X659124Y-141759D01*
X659079Y-141723D01*
X659015Y-141668D01*
X658933Y-141623D01*
X658824Y-141577D01*
X658696Y-141550D01*
X658541Y-141541D01*
X658487D01*
X658423Y-141550D01*
X658350Y-141559D01*
X658259Y-141586D01*
X658150Y-141613D01*
X658049Y-141659D01*
X657940Y-141714D01*
X657931Y-141723D01*
X657895Y-141750D01*
X657849Y-141787D01*
X657785Y-141841D01*
X657722Y-141914D01*
X657658Y-142005D01*
X657594Y-142105D01*
X657539Y-142224D01*
X657530Y-142242D01*
X657521Y-142288D01*
X657503Y-142360D01*
X657476Y-142461D01*
X657448Y-142597D01*
X657430Y-142761D01*
X657421Y-142953D01*
X657412Y-143171D01*
Y-145540D01*
X656637D01*
Y-140967D01*
X657330D01*
Y-141623D01*
X657339Y-141604D01*
X657366Y-141568D01*
X657421Y-141504D01*
X657485Y-141431D01*
X657567Y-141340D01*
X657667Y-141249D01*
X657776Y-141158D01*
X657904Y-141076D01*
X657922Y-141067D01*
X657968Y-141040D01*
X658040Y-141012D01*
X658141Y-140967D01*
X658259Y-140930D01*
X658396Y-140903D01*
X658551Y-140876D01*
X658714Y-140866D01*
X658797D01*
X658897Y-140876D01*
X659006Y-140894D01*
X659143Y-140921D01*
X659279Y-140958D01*
X659416Y-141012D01*
X659544Y-141085D01*
X659562Y-141094D01*
X659598Y-141122D01*
X659653Y-141167D01*
X659726Y-141240D01*
X659799Y-141322D01*
X659881Y-141422D01*
X659953Y-141541D01*
X660008Y-141677D01*
X660017Y-141668D01*
X660035Y-141641D01*
X660063Y-141604D01*
X660108Y-141550D01*
X660163Y-141486D01*
X660227Y-141422D01*
X660300Y-141349D01*
X660391Y-141267D01*
X660491Y-141194D01*
X660591Y-141122D01*
X660710Y-141058D01*
X660837Y-140994D01*
X660974Y-140939D01*
X661120Y-140903D01*
X661265Y-140876D01*
X661429Y-140866D01*
X661493D01*
X661539Y-140876D01*
D02*
G37*
G36*
X675477D02*
X675613Y-140885D01*
X675759Y-140903D01*
X675914Y-140939D01*
X676078Y-140976D01*
X676233Y-141031D01*
X676242D01*
X676251Y-141040D01*
X676297Y-141058D01*
X676370Y-141094D01*
X676461Y-141140D01*
X676561Y-141204D01*
X676661Y-141276D01*
X676752Y-141358D01*
X676834Y-141449D01*
X676843Y-141459D01*
X676862Y-141495D01*
X676898Y-141559D01*
X676944Y-141632D01*
X676989Y-141741D01*
X677035Y-141859D01*
X677071Y-141996D01*
X677108Y-142151D01*
X676351Y-142251D01*
Y-142233D01*
X676342Y-142197D01*
X676324Y-142133D01*
X676297Y-142051D01*
X676251Y-141969D01*
X676197Y-141878D01*
X676133Y-141787D01*
X676042Y-141705D01*
X676033Y-141695D01*
X675996Y-141677D01*
X675942Y-141641D01*
X675859Y-141604D01*
X675768Y-141568D01*
X675650Y-141532D01*
X675504Y-141513D01*
X675349Y-141504D01*
X675258D01*
X675167Y-141513D01*
X675049Y-141522D01*
X674930Y-141550D01*
X674803Y-141577D01*
X674684Y-141623D01*
X674584Y-141686D01*
X674575Y-141695D01*
X674548Y-141714D01*
X674511Y-141750D01*
X674475Y-141805D01*
X674429Y-141859D01*
X674393Y-141932D01*
X674365Y-142014D01*
X674356Y-142096D01*
Y-142105D01*
Y-142124D01*
X674365Y-142151D01*
Y-142187D01*
X674393Y-142279D01*
X674447Y-142370D01*
X674457Y-142379D01*
X674466Y-142388D01*
X674484Y-142415D01*
X674520Y-142443D01*
X674557Y-142470D01*
X674611Y-142506D01*
X674675Y-142534D01*
X674748Y-142570D01*
X674757D01*
X674775Y-142579D01*
X674812Y-142588D01*
X674876Y-142616D01*
X674967Y-142643D01*
X675085Y-142670D01*
X675158Y-142698D01*
X675240Y-142716D01*
X675331Y-142743D01*
X675431Y-142771D01*
X675440D01*
X675468Y-142780D01*
X675513Y-142789D01*
X675568Y-142807D01*
X675632Y-142825D01*
X675714Y-142843D01*
X675887Y-142898D01*
X676078Y-142953D01*
X676269Y-143017D01*
X676442Y-143080D01*
X676515Y-143107D01*
X676579Y-143135D01*
X676597Y-143144D01*
X676634Y-143162D01*
X676688Y-143190D01*
X676770Y-143235D01*
X676853Y-143290D01*
X676934Y-143363D01*
X677016Y-143445D01*
X677089Y-143536D01*
X677098Y-143545D01*
X677117Y-143581D01*
X677153Y-143636D01*
X677189Y-143718D01*
X677217Y-143818D01*
X677253Y-143927D01*
X677272Y-144055D01*
X677281Y-144201D01*
Y-144219D01*
Y-144264D01*
X677272Y-144337D01*
X677253Y-144438D01*
X677226Y-144547D01*
X677180Y-144665D01*
X677126Y-144802D01*
X677053Y-144930D01*
X677044Y-144948D01*
X677007Y-144984D01*
X676962Y-145048D01*
X676889Y-145121D01*
X676789Y-145203D01*
X676679Y-145294D01*
X676552Y-145376D01*
X676397Y-145458D01*
X676388D01*
X676379Y-145467D01*
X676324Y-145485D01*
X676233Y-145513D01*
X676115Y-145549D01*
X675969Y-145586D01*
X675805Y-145613D01*
X675632Y-145631D01*
X675431Y-145640D01*
X675349D01*
X675286Y-145631D01*
X675213D01*
X675122Y-145622D01*
X675031Y-145613D01*
X674930Y-145595D01*
X674712Y-145549D01*
X674484Y-145485D01*
X674265Y-145394D01*
X674165Y-145340D01*
X674074Y-145276D01*
X674065Y-145267D01*
X674056Y-145257D01*
X674001Y-145203D01*
X673919Y-145121D01*
X673828Y-144993D01*
X673728Y-144838D01*
X673628Y-144656D01*
X673546Y-144429D01*
X673482Y-144173D01*
X674247Y-144055D01*
Y-144064D01*
Y-144073D01*
X674265Y-144128D01*
X674284Y-144219D01*
X674320Y-144319D01*
X674365Y-144429D01*
X674420Y-144547D01*
X674502Y-144665D01*
X674602Y-144766D01*
X674620Y-144775D01*
X674657Y-144802D01*
X674730Y-144838D01*
X674821Y-144884D01*
X674939Y-144930D01*
X675076Y-144966D01*
X675240Y-144993D01*
X675431Y-145002D01*
X675522D01*
X675613Y-144993D01*
X675732Y-144975D01*
X675859Y-144948D01*
X675996Y-144911D01*
X676115Y-144866D01*
X676224Y-144793D01*
X676233Y-144784D01*
X676269Y-144756D01*
X676306Y-144711D01*
X676361Y-144647D01*
X676406Y-144574D01*
X676452Y-144483D01*
X676479Y-144392D01*
X676488Y-144283D01*
Y-144274D01*
Y-144237D01*
X676479Y-144192D01*
X676461Y-144128D01*
X676433Y-144064D01*
X676388Y-144000D01*
X676333Y-143927D01*
X676251Y-143873D01*
X676242Y-143864D01*
X676215Y-143855D01*
X676169Y-143827D01*
X676096Y-143800D01*
X675987Y-143763D01*
X675923Y-143736D01*
X675850Y-143718D01*
X675768Y-143691D01*
X675677Y-143663D01*
X675577Y-143636D01*
X675459Y-143609D01*
X675450D01*
X675422Y-143599D01*
X675377Y-143590D01*
X675322Y-143572D01*
X675249Y-143554D01*
X675167Y-143527D01*
X674994Y-143481D01*
X674794Y-143417D01*
X674602Y-143363D01*
X674420Y-143299D01*
X674338Y-143262D01*
X674274Y-143235D01*
X674256Y-143226D01*
X674220Y-143208D01*
X674165Y-143171D01*
X674092Y-143126D01*
X674010Y-143062D01*
X673928Y-142989D01*
X673846Y-142907D01*
X673773Y-142807D01*
X673764Y-142798D01*
X673746Y-142761D01*
X673719Y-142698D01*
X673691Y-142625D01*
X673664Y-142534D01*
X673637Y-142424D01*
X673618Y-142315D01*
X673609Y-142187D01*
Y-142169D01*
Y-142133D01*
X673618Y-142078D01*
X673628Y-141996D01*
X673646Y-141914D01*
X673664Y-141814D01*
X673700Y-141723D01*
X673746Y-141623D01*
X673755Y-141613D01*
X673773Y-141577D01*
X673801Y-141532D01*
X673846Y-141468D01*
X673901Y-141404D01*
X673965Y-141322D01*
X674038Y-141249D01*
X674129Y-141185D01*
X674138Y-141176D01*
X674165Y-141167D01*
X674201Y-141140D01*
X674256Y-141112D01*
X674329Y-141076D01*
X674411Y-141040D01*
X674511Y-141003D01*
X674620Y-140967D01*
X674639Y-140958D01*
X674675Y-140948D01*
X674739Y-140930D01*
X674821Y-140912D01*
X674921Y-140894D01*
X675031Y-140885D01*
X675158Y-140866D01*
X675377D01*
X675477Y-140876D01*
D02*
G37*
G36*
X678975Y-145540D02*
X678201D01*
Y-140967D01*
X678975D01*
Y-145540D01*
D02*
G37*
G36*
X655462D02*
X654688D01*
Y-140967D01*
X655462D01*
Y-145540D01*
D02*
G37*
G36*
X651017Y-139245D02*
X651199Y-139254D01*
X651381Y-139272D01*
X651563Y-139300D01*
X651718Y-139327D01*
X651727D01*
X651745Y-139336D01*
X651773D01*
X651809Y-139354D01*
X651909Y-139382D01*
X652037Y-139427D01*
X652183Y-139491D01*
X652338Y-139573D01*
X652492Y-139664D01*
X652638Y-139782D01*
X652647Y-139792D01*
X652656Y-139801D01*
X652684Y-139828D01*
X652720Y-139855D01*
X652811Y-139946D01*
X652920Y-140074D01*
X653039Y-140229D01*
X653166Y-140411D01*
X653285Y-140621D01*
X653385Y-140857D01*
Y-140866D01*
X653394Y-140885D01*
X653412Y-140921D01*
X653422Y-140976D01*
X653449Y-141040D01*
X653467Y-141112D01*
X653485Y-141194D01*
X653513Y-141295D01*
X653540Y-141395D01*
X653558Y-141513D01*
X653604Y-141768D01*
X653631Y-142051D01*
X653640Y-142360D01*
Y-142370D01*
Y-142388D01*
Y-142433D01*
Y-142479D01*
X653631Y-142543D01*
Y-142616D01*
X653622Y-142789D01*
X653595Y-142989D01*
X653567Y-143199D01*
X653522Y-143417D01*
X653467Y-143636D01*
Y-143645D01*
X653458Y-143663D01*
X653449Y-143691D01*
X653440Y-143727D01*
X653403Y-143827D01*
X653349Y-143955D01*
X653294Y-144100D01*
X653221Y-144246D01*
X653130Y-144401D01*
X653039Y-144547D01*
X653030Y-144565D01*
X652993Y-144611D01*
X652939Y-144675D01*
X652866Y-144756D01*
X652784Y-144848D01*
X652684Y-144939D01*
X652583Y-145039D01*
X652465Y-145121D01*
X652447Y-145130D01*
X652410Y-145157D01*
X652347Y-145194D01*
X652255Y-145239D01*
X652146Y-145294D01*
X652019Y-145340D01*
X651873Y-145394D01*
X651709Y-145440D01*
X651691D01*
X651663Y-145449D01*
X651636Y-145458D01*
X651545Y-145467D01*
X651417Y-145485D01*
X651272Y-145503D01*
X651098Y-145522D01*
X650907Y-145531D01*
X650698Y-145540D01*
X648429D01*
Y-139236D01*
X650852D01*
X651017Y-139245D01*
D02*
G37*
G36*
X682164Y-140876D02*
X682246Y-140885D01*
X682337Y-140903D01*
X682437Y-140921D01*
X682555Y-140939D01*
X682801Y-141021D01*
X682929Y-141067D01*
X683056Y-141131D01*
X683184Y-141194D01*
X683312Y-141286D01*
X683430Y-141377D01*
X683548Y-141486D01*
X683557Y-141495D01*
X683576Y-141513D01*
X683603Y-141550D01*
X683639Y-141595D01*
X683685Y-141659D01*
X683740Y-141741D01*
X683794Y-141832D01*
X683849Y-141932D01*
X683904Y-142042D01*
X683958Y-142178D01*
X684013Y-142315D01*
X684059Y-142470D01*
X684095Y-142634D01*
X684122Y-142807D01*
X684140Y-142989D01*
X684150Y-143190D01*
Y-143199D01*
Y-143226D01*
Y-143272D01*
Y-143335D01*
X684140Y-143408D01*
X684131Y-143499D01*
Y-143590D01*
X684113Y-143691D01*
X684086Y-143918D01*
X684031Y-144146D01*
X683967Y-144374D01*
X683876Y-144583D01*
Y-144592D01*
X683867Y-144602D01*
X683849Y-144629D01*
X683831Y-144665D01*
X683767Y-144756D01*
X683685Y-144866D01*
X683576Y-144993D01*
X683439Y-145121D01*
X683284Y-145248D01*
X683102Y-145367D01*
X683093D01*
X683084Y-145376D01*
X683056Y-145394D01*
X683011Y-145412D01*
X682965Y-145431D01*
X682911Y-145449D01*
X682774Y-145503D01*
X682619Y-145549D01*
X682428Y-145595D01*
X682227Y-145631D01*
X682009Y-145640D01*
X681918D01*
X681845Y-145631D01*
X681763Y-145622D01*
X681672Y-145604D01*
X681562Y-145586D01*
X681453Y-145567D01*
X681207Y-145494D01*
X681070Y-145440D01*
X680943Y-145385D01*
X680815Y-145312D01*
X680688Y-145230D01*
X680569Y-145139D01*
X680451Y-145030D01*
X680442Y-145021D01*
X680424Y-145002D01*
X680396Y-144966D01*
X680360Y-144911D01*
X680314Y-144848D01*
X680269Y-144775D01*
X680214Y-144684D01*
X680159Y-144574D01*
X680105Y-144456D01*
X680050Y-144319D01*
X680005Y-144173D01*
X679959Y-144019D01*
X679922Y-143845D01*
X679895Y-143663D01*
X679877Y-143463D01*
X679868Y-143253D01*
Y-143235D01*
Y-143199D01*
X679877Y-143135D01*
Y-143044D01*
X679886Y-142944D01*
X679904Y-142816D01*
X679922Y-142689D01*
X679959Y-142543D01*
X679995Y-142397D01*
X680041Y-142242D01*
X680096Y-142078D01*
X680168Y-141923D01*
X680241Y-141778D01*
X680342Y-141632D01*
X680442Y-141495D01*
X680569Y-141377D01*
X680579Y-141367D01*
X680597Y-141358D01*
X680633Y-141331D01*
X680679Y-141295D01*
X680733Y-141258D01*
X680806Y-141213D01*
X680879Y-141167D01*
X680970Y-141122D01*
X681070Y-141076D01*
X681180Y-141031D01*
X681426Y-140948D01*
X681708Y-140885D01*
X681854Y-140876D01*
X682009Y-140866D01*
X682100D01*
X682164Y-140876D01*
D02*
G37*
G36*
X666012D02*
X666084Y-140885D01*
X666176Y-140903D01*
X666276Y-140921D01*
X666394Y-140948D01*
X666503Y-140976D01*
X666631Y-141021D01*
X666749Y-141067D01*
X666877Y-141131D01*
X667005Y-141204D01*
X667132Y-141286D01*
X667250Y-141386D01*
X667360Y-141495D01*
X667369Y-141504D01*
X667387Y-141522D01*
X667415Y-141559D01*
X667451Y-141613D01*
X667496Y-141677D01*
X667542Y-141750D01*
X667597Y-141841D01*
X667651Y-141951D01*
X667706Y-142069D01*
X667761Y-142197D01*
X667806Y-142342D01*
X667852Y-142497D01*
X667888Y-142670D01*
X667916Y-142852D01*
X667934Y-143044D01*
X667943Y-143253D01*
Y-143262D01*
Y-143299D01*
Y-143363D01*
X667934Y-143454D01*
X664517D01*
Y-143463D01*
Y-143490D01*
X664527Y-143527D01*
Y-143581D01*
X664536Y-143645D01*
X664554Y-143718D01*
X664581Y-143882D01*
X664636Y-144064D01*
X664709Y-144264D01*
X664809Y-144447D01*
X664937Y-144611D01*
X664946D01*
X664955Y-144629D01*
X665009Y-144675D01*
X665092Y-144738D01*
X665201Y-144802D01*
X665347Y-144875D01*
X665511Y-144939D01*
X665693Y-144984D01*
X665793Y-144993D01*
X665902Y-145002D01*
X665975D01*
X666057Y-144993D01*
X666157Y-144975D01*
X666267Y-144948D01*
X666394Y-144911D01*
X666513Y-144857D01*
X666631Y-144784D01*
X666640Y-144775D01*
X666686Y-144738D01*
X666740Y-144684D01*
X666804Y-144611D01*
X666877Y-144510D01*
X666959Y-144383D01*
X667041Y-144237D01*
X667114Y-144064D01*
X667916Y-144164D01*
Y-144173D01*
X667907Y-144192D01*
X667897Y-144228D01*
X667879Y-144283D01*
X667852Y-144337D01*
X667825Y-144410D01*
X667752Y-144565D01*
X667661Y-144738D01*
X667533Y-144920D01*
X667387Y-145094D01*
X667205Y-145257D01*
X667196D01*
X667178Y-145276D01*
X667150Y-145294D01*
X667114Y-145321D01*
X667059Y-145349D01*
X667005Y-145376D01*
X666932Y-145412D01*
X666850Y-145449D01*
X666759Y-145485D01*
X666668Y-145522D01*
X666440Y-145576D01*
X666185Y-145622D01*
X665902Y-145640D01*
X665802D01*
X665738Y-145631D01*
X665656Y-145622D01*
X665556Y-145604D01*
X665447Y-145586D01*
X665328Y-145567D01*
X665073Y-145494D01*
X664937Y-145440D01*
X664809Y-145385D01*
X664672Y-145312D01*
X664545Y-145230D01*
X664426Y-145139D01*
X664308Y-145030D01*
X664299Y-145021D01*
X664281Y-145002D01*
X664253Y-144966D01*
X664217Y-144911D01*
X664171Y-144848D01*
X664126Y-144775D01*
X664071Y-144684D01*
X664016Y-144583D01*
X663962Y-144465D01*
X663907Y-144337D01*
X663862Y-144192D01*
X663816Y-144037D01*
X663780Y-143873D01*
X663752Y-143691D01*
X663734Y-143499D01*
X663725Y-143299D01*
Y-143290D01*
Y-143244D01*
Y-143190D01*
X663734Y-143107D01*
X663743Y-143007D01*
X663752Y-142898D01*
X663770Y-142771D01*
X663798Y-142643D01*
X663871Y-142351D01*
X663916Y-142206D01*
X663971Y-142051D01*
X664044Y-141905D01*
X664126Y-141768D01*
X664217Y-141632D01*
X664317Y-141504D01*
X664326Y-141495D01*
X664344Y-141477D01*
X664381Y-141449D01*
X664426Y-141404D01*
X664481Y-141358D01*
X664554Y-141304D01*
X664636Y-141240D01*
X664736Y-141185D01*
X664836Y-141122D01*
X664955Y-141067D01*
X665082Y-141012D01*
X665219Y-140967D01*
X665365Y-140921D01*
X665520Y-140894D01*
X665684Y-140876D01*
X665857Y-140866D01*
X665948D01*
X666012Y-140876D01*
D02*
G37*
%LPC*%
G36*
X650725Y-139983D02*
X649267D01*
Y-144793D01*
X650761D01*
X650825Y-144784D01*
X650962Y-144775D01*
X651117Y-144766D01*
X651281Y-144747D01*
X651445Y-144720D01*
X651581Y-144684D01*
X651600Y-144675D01*
X651645Y-144665D01*
X651709Y-144638D01*
X651791Y-144602D01*
X651882Y-144547D01*
X651973Y-144492D01*
X652064Y-144429D01*
X652155Y-144356D01*
X652164Y-144337D01*
X652201Y-144301D01*
X652255Y-144237D01*
X652319Y-144146D01*
X652392Y-144028D01*
X652474Y-143891D01*
X652547Y-143736D01*
X652611Y-143563D01*
Y-143554D01*
X652620Y-143536D01*
X652629Y-143508D01*
X652638Y-143472D01*
X652647Y-143426D01*
X652665Y-143363D01*
X652684Y-143299D01*
X652702Y-143226D01*
X652729Y-143044D01*
X652757Y-142834D01*
X652775Y-142597D01*
X652784Y-142342D01*
Y-142333D01*
Y-142297D01*
Y-142251D01*
X652775Y-142178D01*
Y-142096D01*
X652766Y-142005D01*
X652757Y-141896D01*
X652747Y-141787D01*
X652702Y-141541D01*
X652647Y-141286D01*
X652565Y-141049D01*
X652511Y-140930D01*
X652456Y-140830D01*
Y-140821D01*
X652438Y-140803D01*
X652420Y-140775D01*
X652401Y-140739D01*
X652328Y-140648D01*
X652237Y-140539D01*
X652119Y-140420D01*
X651982Y-140302D01*
X651827Y-140201D01*
X651663Y-140120D01*
X651645Y-140110D01*
X651600Y-140101D01*
X651518Y-140074D01*
X651399Y-140047D01*
X651253Y-140028D01*
X651071Y-140001D01*
X650962Y-139992D01*
X650843D01*
X650725Y-139983D01*
D02*
G37*
G36*
X682009Y-141504D02*
X681954D01*
X681909Y-141513D01*
X681808Y-141522D01*
X681672Y-141559D01*
X681517Y-141613D01*
X681353Y-141686D01*
X681198Y-141796D01*
X681116Y-141869D01*
X681043Y-141941D01*
Y-141951D01*
X681025Y-141960D01*
X681007Y-141987D01*
X680979Y-142024D01*
X680952Y-142069D01*
X680925Y-142124D01*
X680888Y-142197D01*
X680852Y-142269D01*
X680815Y-142360D01*
X680779Y-142452D01*
X680752Y-142561D01*
X680724Y-142679D01*
X680697Y-142807D01*
X680679Y-142944D01*
X680670Y-143098D01*
X680660Y-143253D01*
Y-143262D01*
Y-143290D01*
Y-143335D01*
X680670Y-143399D01*
Y-143472D01*
X680679Y-143554D01*
X680706Y-143745D01*
X680752Y-143964D01*
X680824Y-144183D01*
X680915Y-144392D01*
X680979Y-144483D01*
X681043Y-144574D01*
X681052D01*
X681061Y-144592D01*
X681116Y-144638D01*
X681198Y-144711D01*
X681307Y-144784D01*
X681444Y-144866D01*
X681608Y-144939D01*
X681799Y-144984D01*
X681899Y-144993D01*
X682009Y-145002D01*
X682063D01*
X682109Y-144993D01*
X682209Y-144975D01*
X682346Y-144948D01*
X682492Y-144893D01*
X682656Y-144820D01*
X682810Y-144711D01*
X682892Y-144638D01*
X682965Y-144565D01*
X682974Y-144556D01*
X682983Y-144547D01*
X683002Y-144520D01*
X683029Y-144483D01*
X683056Y-144438D01*
X683093Y-144383D01*
X683129Y-144310D01*
X683166Y-144237D01*
X683202Y-144146D01*
X683229Y-144046D01*
X683266Y-143937D01*
X683293Y-143818D01*
X683321Y-143682D01*
X683339Y-143545D01*
X683357Y-143390D01*
Y-143226D01*
Y-143217D01*
Y-143190D01*
Y-143144D01*
X683348Y-143089D01*
Y-143017D01*
X683339Y-142935D01*
X683312Y-142743D01*
X683266Y-142543D01*
X683193Y-142324D01*
X683093Y-142124D01*
X683038Y-142024D01*
X682965Y-141941D01*
Y-141932D01*
X682947Y-141923D01*
X682892Y-141869D01*
X682810Y-141805D01*
X682701Y-141723D01*
X682564Y-141641D01*
X682401Y-141568D01*
X682218Y-141522D01*
X682118Y-141513D01*
X682009Y-141504D01*
D02*
G37*
G36*
X665866D02*
X665811D01*
X665775Y-141513D01*
X665674Y-141522D01*
X665556Y-141550D01*
X665410Y-141595D01*
X665255Y-141659D01*
X665110Y-141750D01*
X664964Y-141869D01*
X664946Y-141887D01*
X664909Y-141932D01*
X664846Y-142014D01*
X664782Y-142124D01*
X664709Y-142251D01*
X664645Y-142415D01*
X664590Y-142606D01*
X664563Y-142816D01*
X667123D01*
Y-142807D01*
Y-142789D01*
X667114Y-142761D01*
Y-142725D01*
X667096Y-142616D01*
X667068Y-142497D01*
X667023Y-142351D01*
X666977Y-142215D01*
X666904Y-142078D01*
X666822Y-141960D01*
Y-141951D01*
X666804Y-141941D01*
X666759Y-141887D01*
X666677Y-141814D01*
X666567Y-141732D01*
X666431Y-141650D01*
X666267Y-141577D01*
X666075Y-141522D01*
X665975Y-141513D01*
X665866Y-141504D01*
D02*
G37*
%LPD*%
D10*
X360700Y338643D02*
X362668Y332738D01*
X364637Y338643D01*
X362668Y350787D02*
X364637Y344882D01*
X360700D02*
X362668Y350787D01*
Y332738D02*
Y341763D01*
Y350787D01*
X338841Y332738D02*
X363456D01*
X361881Y350787D02*
X363154D01*
X-22968Y5709D02*
X-21000Y-197D01*
X-19031Y5709D01*
X-21000Y350787D02*
X-19031Y344882D01*
X-22968D02*
X-21000Y350787D01*
Y-197D02*
Y152534D01*
Y194482D02*
Y350787D01*
X-21787Y-197D02*
X300161D01*
X-21787Y350787D02*
X289236D01*
X379000Y356693D02*
X380968Y350787D01*
X382937Y356693D01*
X380968Y319456D02*
X382937Y313550D01*
X379000D02*
X380968Y319456D01*
Y350787D02*
Y360630D01*
Y309613D02*
Y319456D01*
X363341D02*
X381756D01*
X289236Y350787D02*
X381756D01*
X-35Y-17815D02*
X5870Y-15846D01*
X-35Y-17815D02*
X5870Y-19783D01*
X28409D02*
X34315Y-17815D01*
X28409Y-15846D02*
X34315Y-17815D01*
X-35D02*
X17140D01*
X34315D01*
X-35Y-18602D02*
Y18602D01*
X34315Y-18602D02*
Y-295D01*
Y-17815D02*
X40220Y-15846D01*
X34315Y-17815D02*
X40220Y-19783D01*
X286565D02*
X292471Y-17815D01*
X286565Y-15846D02*
X292471Y-17815D01*
X34315D02*
X140139D01*
X183071D02*
X292471D01*
X34315Y-18602D02*
Y-295D01*
X292471Y-18602D02*
Y-806D01*
X-35Y370472D02*
X5870Y372441D01*
X-35Y370472D02*
X5870Y368504D01*
X356763D02*
X362668Y370472D01*
X356763Y372441D02*
X362668Y370472D01*
X-35D02*
X158555D01*
X200503D02*
X362668D01*
X-35Y18602D02*
Y371260D01*
X362668Y21949D02*
Y371260D01*
X292471Y-17815D02*
X298376Y-15846D01*
X292471Y-17815D02*
X298376Y-19783D01*
X356763D02*
X362668Y-17815D01*
X356763Y-15846D02*
X362668Y-17815D01*
X292471D02*
X304808D01*
X346756D02*
X362668D01*
X292471Y-18602D02*
Y-19D01*
X362668Y-18602D02*
Y29739D01*
X379098Y20602D02*
X381067Y14696D01*
X383035Y20602D01*
X381067Y-172D02*
X383035Y-6077D01*
X379098D02*
X381067Y-172D01*
Y14696D02*
Y24539D01*
Y-10014D02*
Y-172D01*
X292110D02*
X381854D01*
X349693Y14696D02*
X381854D01*
X380968Y-295D02*
X382937Y-6201D01*
X379000D02*
X380968Y-295D01*
X379000Y20514D02*
X380968Y14609D01*
X382937Y20514D01*
X380968Y-10138D02*
Y-295D01*
Y14609D02*
Y24451D01*
X349410Y14609D02*
X381756D01*
X34315Y-295D02*
X381756D01*
X379000Y20566D02*
X380968Y14661D01*
X382937Y20566D01*
X380968Y319456D02*
X382937Y313550D01*
X379000D02*
X380968Y319456D01*
Y14661D02*
Y143805D01*
Y186737D02*
Y319456D01*
X358977Y14661D02*
X381756D01*
X363341Y319456D02*
X381756D01*
X324182Y339008D02*
Y344912D01*
X321230Y341960D01*
X325166D01*
X328117Y338024D02*
X329101Y339008D01*
Y339992D01*
X328117D01*
Y339008D01*
X329101D01*
X328117Y338024D01*
X327133Y337040D01*
X336973Y344912D02*
X333037D01*
Y341960D01*
X335005Y342944D01*
X335989D01*
X336973Y341960D01*
Y339992D01*
X335989Y339008D01*
X334021D01*
X333037Y339992D01*
X338941D02*
X339925Y339008D01*
X341892D01*
X342876Y339992D01*
Y343928D01*
X341892Y344912D01*
X339925D01*
X338941Y343928D01*
Y342944D01*
X339925Y341960D01*
X342876D01*
X344844Y339008D02*
Y342944D01*
X345828D01*
X346812Y341960D01*
Y339008D01*
Y341960D01*
X347796Y342944D01*
X348780Y341960D01*
Y339008D01*
X350748D02*
Y342944D01*
X351732D01*
X352716Y341960D01*
Y339008D01*
Y341960D01*
X353700Y342944D01*
X354684Y341960D01*
Y339008D01*
X-21196Y154321D02*
X-22181Y155305D01*
Y157273D01*
X-21196Y158257D01*
X-20213D01*
X-19229Y157273D01*
X-18245Y158257D01*
X-17261D01*
X-16277Y157273D01*
Y155305D01*
X-17261Y154321D01*
X-18245D01*
X-19229Y155305D01*
X-20213Y154321D01*
X-21196D01*
X-19229Y155305D02*
Y157273D01*
X-17261Y160225D02*
X-16277Y161209D01*
Y163177D01*
X-17261Y164161D01*
X-21196D01*
X-22181Y163177D01*
Y161209D01*
X-21196Y160225D01*
X-20213D01*
X-19229Y161209D01*
Y164161D01*
X-15293Y167112D02*
X-16277Y168096D01*
X-17261D01*
Y167112D01*
X-16277D01*
Y168096D01*
X-15293Y167112D01*
X-14309Y166128D01*
X-16277Y172032D02*
Y174000D01*
Y173016D01*
X-22181D01*
X-21196Y172032D01*
X-22181Y180887D02*
Y176952D01*
X-19229D01*
X-20213Y178919D01*
Y179903D01*
X-19229Y180887D01*
X-17261D01*
X-16277Y179903D01*
Y177936D01*
X-17261Y176952D01*
X-16277Y182855D02*
X-20213D01*
Y183839D01*
X-19229Y184823D01*
X-16277D01*
X-19229D01*
X-20213Y185807D01*
X-19229Y186791D01*
X-16277D01*
Y188759D02*
X-20213D01*
Y189743D01*
X-19229Y190727D01*
X-16277D01*
X-19229D01*
X-20213Y191711D01*
X-19229Y192695D01*
X-16277D01*
X393957Y316607D02*
Y320543D01*
X394941D01*
X398877Y316607D01*
X399861D01*
X400845Y323495D02*
X399861Y324479D01*
X398877D01*
Y323495D01*
X399861D01*
Y324479D01*
X400845Y323495D01*
X401829Y322511D01*
X398877Y328415D02*
X399861Y329398D01*
Y331366D01*
X398877Y332350D01*
X394941D01*
X393957Y331366D01*
Y329398D01*
X394941Y328415D01*
X395925D01*
X396909Y329398D01*
Y332350D01*
X393957Y338254D02*
X394941Y336286D01*
X396909Y334318D01*
X398877D01*
X399861Y335302D01*
Y337270D01*
X398877Y338254D01*
X397893D01*
X396909Y337270D01*
Y334318D01*
X399861Y340222D02*
X395925D01*
Y341206D01*
X396909Y342190D01*
X399861D01*
X396909D01*
X395925Y343174D01*
X396909Y344158D01*
X399861D01*
Y346125D02*
X395925D01*
Y347109D01*
X396909Y348093D01*
X399861D01*
X396909D01*
X395925Y349077D01*
X396909Y350061D01*
X399861D01*
X5181Y-23722D02*
X6165Y-22738D01*
X8133D01*
X9117Y-23722D01*
Y-24706D01*
X8133Y-25690D01*
X9117Y-26674D01*
Y-27658D01*
X8133Y-28642D01*
X6165D01*
X5181Y-27658D01*
Y-26674D01*
X6165Y-25690D01*
X5181Y-24706D01*
Y-23722D01*
X6165Y-25690D02*
X8133D01*
X12069Y-29626D02*
X13052Y-28642D01*
Y-27658D01*
X12069D01*
Y-28642D01*
X13052D01*
X12069Y-29626D01*
X11085Y-30610D01*
X16988Y-22738D02*
X20924D01*
Y-23722D01*
X16988Y-27658D01*
Y-28642D01*
X22892Y-23722D02*
X23876Y-22738D01*
X25844D01*
X26828Y-23722D01*
Y-24706D01*
X25844Y-25690D01*
X24860D01*
X25844D01*
X26828Y-26674D01*
Y-27658D01*
X25844Y-28642D01*
X23876D01*
X22892Y-27658D01*
X28795Y-28642D02*
Y-24706D01*
X29779D01*
X30763Y-25690D01*
Y-28642D01*
Y-25690D01*
X31747Y-24706D01*
X32731Y-25690D01*
Y-28642D01*
X34699D02*
Y-24706D01*
X35683D01*
X36667Y-25690D01*
Y-28642D01*
Y-25690D01*
X37651Y-24706D01*
X38635Y-25690D01*
Y-28642D01*
X145862Y-16635D02*
X143895Y-17618D01*
X141927Y-19586D01*
Y-21554D01*
X142911Y-22538D01*
X144878D01*
X145862Y-21554D01*
Y-20570D01*
X144878Y-19586D01*
X141927D01*
X151766Y-16635D02*
X147830D01*
Y-19586D01*
X149798Y-18602D01*
X150782D01*
X151766Y-19586D01*
Y-21554D01*
X150782Y-22538D01*
X148814D01*
X147830Y-21554D01*
X154718Y-23522D02*
X155702Y-22538D01*
Y-21554D01*
X154718D01*
Y-22538D01*
X155702D01*
X154718Y-23522D01*
X153734Y-24506D01*
X163573Y-16635D02*
X159637D01*
Y-19586D01*
X161605Y-18602D01*
X162589D01*
X163573Y-19586D01*
Y-21554D01*
X162589Y-22538D01*
X160621D01*
X159637Y-21554D01*
X165541Y-16635D02*
X169477D01*
Y-17618D01*
X165541Y-21554D01*
Y-22538D01*
X171445D02*
Y-18602D01*
X172429D01*
X173413Y-19586D01*
Y-22538D01*
Y-19586D01*
X174397Y-18602D01*
X175380Y-19586D01*
Y-22538D01*
X177348D02*
Y-18602D01*
X178332D01*
X179316Y-19586D01*
Y-22538D01*
Y-19586D01*
X180300Y-18602D01*
X181284Y-19586D01*
Y-22538D01*
X160342Y366733D02*
X161326Y365749D01*
X163294D01*
X164278Y366733D01*
Y370669D01*
X163294Y371653D01*
X161326D01*
X160342Y370669D01*
Y369685D01*
X161326Y368701D01*
X164278D01*
X170182Y365749D02*
X166246D01*
X170182Y369685D01*
Y370669D01*
X169198Y371653D01*
X167230D01*
X166246Y370669D01*
X173133Y364765D02*
X174117Y365749D01*
Y366733D01*
X173133D01*
Y365749D01*
X174117D01*
X173133Y364765D01*
X172149Y363781D01*
X178053Y365749D02*
X180021D01*
X179037D01*
Y371653D01*
X178053Y370669D01*
X182973D02*
X183957Y371653D01*
X185924D01*
X186908Y370669D01*
Y369685D01*
X185924Y368701D01*
X184941D01*
X185924D01*
X186908Y367717D01*
Y366733D01*
X185924Y365749D01*
X183957D01*
X182973Y366733D01*
X188876Y365749D02*
Y369685D01*
X189860D01*
X190844Y368701D01*
Y365749D01*
Y368701D01*
X191828Y369685D01*
X192812Y368701D01*
Y365749D01*
X194780D02*
Y369685D01*
X195764D01*
X196748Y368701D01*
Y365749D01*
Y368701D01*
X197732Y369685D01*
X198716Y368701D01*
Y365749D01*
X306595Y-22538D02*
X308563D01*
X307579D01*
Y-16635D01*
X306595Y-17618D01*
X311515Y-16635D02*
X315451D01*
Y-17618D01*
X311515Y-21554D01*
Y-22538D01*
X318402Y-23522D02*
X319386Y-22538D01*
Y-21554D01*
X318402D01*
Y-22538D01*
X319386D01*
X318402Y-23522D01*
X317419Y-24506D01*
X323322Y-17618D02*
X324306Y-16635D01*
X326274D01*
X327258Y-17618D01*
Y-18602D01*
X326274Y-19586D01*
X327258Y-20570D01*
Y-21554D01*
X326274Y-22538D01*
X324306D01*
X323322Y-21554D01*
Y-20570D01*
X324306Y-19586D01*
X323322Y-18602D01*
Y-17618D01*
X324306Y-19586D02*
X326274D01*
X329226Y-17618D02*
X330210Y-16635D01*
X332177D01*
X333161Y-17618D01*
Y-18602D01*
X332177Y-19586D01*
X331193D01*
X332177D01*
X333161Y-20570D01*
Y-21554D01*
X332177Y-22538D01*
X330210D01*
X329226Y-21554D01*
X335129Y-22538D02*
Y-18602D01*
X336113D01*
X337097Y-19586D01*
Y-22538D01*
Y-19586D01*
X338081Y-18602D01*
X339065Y-19586D01*
Y-22538D01*
X341033D02*
Y-18602D01*
X342017D01*
X343001Y-19586D01*
Y-22538D01*
Y-19586D01*
X343985Y-18602D01*
X344969Y-19586D01*
Y-22538D01*
X395040Y-11252D02*
X394056Y-10268D01*
Y-8300D01*
X395040Y-7316D01*
X396024D01*
X397008Y-8300D01*
Y-9284D01*
Y-8300D01*
X397992Y-7316D01*
X398975D01*
X399959Y-8300D01*
Y-10268D01*
X398975Y-11252D01*
X400943Y-4364D02*
X399959Y-3380D01*
X398975D01*
Y-4364D01*
X399959D01*
Y-3380D01*
X400943Y-4364D01*
X401927Y-5348D01*
X394056Y555D02*
Y4491D01*
X395040D01*
X398975Y555D01*
X399959D01*
X395040Y6459D02*
X394056Y7443D01*
Y9411D01*
X395040Y10395D01*
X396024D01*
X397008Y9411D01*
X397992Y10395D01*
X398975D01*
X399959Y9411D01*
Y7443D01*
X398975Y6459D01*
X397992D01*
X397008Y7443D01*
X396024Y6459D01*
X395040D01*
X397008Y7443D02*
Y9411D01*
X399959Y12363D02*
X396024D01*
Y13347D01*
X397008Y14330D01*
X399959D01*
X397008D01*
X396024Y15314D01*
X397008Y16298D01*
X399959D01*
Y18266D02*
X396024D01*
Y19250D01*
X397008Y20234D01*
X399959D01*
X397008D01*
X396024Y21218D01*
X397008Y22202D01*
X399959D01*
X394941Y-11357D02*
X393957Y-10374D01*
Y-8406D01*
X394941Y-7422D01*
X395925D01*
X396909Y-8406D01*
Y-9390D01*
Y-8406D01*
X397893Y-7422D01*
X398877D01*
X399861Y-8406D01*
Y-10374D01*
X398877Y-11357D01*
X400845Y-4470D02*
X399861Y-3486D01*
X398877D01*
Y-4470D01*
X399861D01*
Y-3486D01*
X400845Y-4470D01*
X401829Y-5454D01*
X393957Y450D02*
Y4385D01*
X394941D01*
X398877Y450D01*
X399861D01*
X398877Y6353D02*
X399861Y7337D01*
Y9305D01*
X398877Y10289D01*
X394941D01*
X393957Y9305D01*
Y7337D01*
X394941Y6353D01*
X395925D01*
X396909Y7337D01*
Y10289D01*
X399861Y12257D02*
X395925D01*
Y13241D01*
X396909Y14225D01*
X399861D01*
X396909D01*
X395925Y15209D01*
X396909Y16193D01*
X399861D01*
Y18160D02*
X395925D01*
Y19144D01*
X396909Y20128D01*
X399861D01*
X396909D01*
X395925Y21112D01*
X396909Y22096D01*
X399861D01*
X379788Y145592D02*
Y149528D01*
X380772D01*
X384708Y145592D01*
X385692D01*
X379788Y151496D02*
Y155432D01*
X380772D01*
X384708Y151496D01*
X385692D01*
X386676Y158383D02*
X385692Y159367D01*
X384708D01*
Y158383D01*
X385692D01*
Y159367D01*
X386676Y158383D01*
X387660Y157399D01*
X385692Y166255D02*
X379788D01*
X382740Y163303D01*
Y167239D01*
X385692Y173143D02*
Y169207D01*
X381756Y173143D01*
X380772D01*
X379788Y172159D01*
Y170191D01*
X380772Y169207D01*
X385692Y175110D02*
X381756D01*
Y176094D01*
X382740Y177078D01*
X385692D01*
X382740D01*
X381756Y178062D01*
X382740Y179046D01*
X385692D01*
Y181014D02*
X381756D01*
Y181998D01*
X382740Y182982D01*
X385692D01*
X382740D01*
X381756Y183966D01*
X382740Y184950D01*
X385692D01*
D12*
X969Y18503D02*
G03*
X12247Y7419I11796J722D01*
G01*
X30208Y2724D02*
G03*
X22454Y7419I-10086J-7908D01*
G01*
X30208Y2724D02*
G03*
X35418Y400I4950J4095D01*
G01*
X312896Y400D02*
G03*
X328213Y8621I575J17307D01*
G01*
X349172Y14828D02*
G03*
X362560Y28425I-102J13490D01*
G01*
X340364Y14828D02*
G03*
X328213Y8621I-253J-14503D01*
G01*
X362560Y320083D02*
G03*
X350339Y332378I-12330J-35D01*
G01*
X327504Y341810D02*
G03*
X339828Y332400I13326J4677D01*
G01*
X327504Y341692D02*
G03*
X315654Y350354I-12571J-4763D01*
G01*
X15378D02*
G03*
X974Y335477I609J-15002D01*
G01*
X12247Y7419D02*
X22454D01*
X35418Y400D02*
X312896Y400D01*
X340111Y14828D02*
X349172D01*
X362560Y28425D02*
X362560Y320083D01*
X339828Y332400D02*
X350230D01*
X17504Y350354D02*
X315654D01*
X15378D02*
X17504D01*
X969Y18503D02*
Y335352D01*
M02*
