M48
;Layer_Color=9474304
;FILE_FORMAT=2:5
INCH,LZ
;TYPE=PLATED
T1F00S00C0.01181
T2F00S00C0.03937
T3F00S00C0.07205
T4F00S00C0.12598
%
T01
X0051772Y0087528
X0051894Y0097685
X0241394Y0099283
X023702Y0083976
X0244394Y0264583
X0031449Y0264606
X0034563Y0252949
T02
X0020232Y0054583
Y0098248
X0010232
Y0108248
X0020232
Y0118248
X0010232
Y0128248
X0020232
Y0138248
X0010232
X0104876Y0091594
X0235585
X0320453Y0089453
Y0099453
Y0109453
Y0119453
Y0129453
Y0139453
Y0149453
Y0159453
Y0169453
Y0179453
X0330453
Y0169453
Y0159453
Y0149453
Y0139453
Y0129453
Y0119453
Y0109453
Y0099453
Y0089453
Y0079453
X0320453
Y0069453
X0330453
Y0059453
X0320453
Y0049453
X0330453
X0340453
Y0059453
Y0069453
Y0079453
Y0089453
Y0099453
Y0109453
Y0119453
Y0129453
Y0139453
Y0149453
Y0159453
Y0169453
Y0179453
X0350453
Y0169453
Y0159453
Y0149453
Y0139453
Y0129453
Y0119453
Y0109453
Y0099453
Y0089453
Y0079453
Y0069453
Y0059453
Y0049453
Y0189453
Y0199453
Y0209453
Y0219453
Y0229453
Y0239453
Y0249453
Y0259453
Y0269453
Y0279453
Y0289453
Y0299453
X0340453
X0330453
X0320453
Y0289453
X0330453
Y0279453
X0320453
Y0269453
X0330453
Y0259453
X0320453
Y0249453
X0330453
Y0239453
X0320453
Y0229453
X0330453
Y0219453
X0320453
Y0209453
X0330453
Y0199453
X0320453
Y0189453
X0330453
X0340453
Y0199453
Y0209453
Y0219453
Y0229453
Y0239453
Y0249453
Y0259453
Y0269453
Y0279453
Y0289453
X031965Y0324484
X0235585Y0259213
X0104876
X002428Y0204205
T03
X0051646Y0049126
X0081646Y0039126
Y0059126
Y0124087
Y0144087
X0051646Y0134087
X0258705Y0144087
Y0124087
X0288705Y0134087
Y0049126
X0258705Y0039126
Y0059126
Y0206661
Y0226661
X0288705Y0216661
Y0301622
X0258705Y0291622
Y0311622
X0081646
Y0291622
X0051646Y0301622
Y0216661
X0081646Y0226661
Y0206661
T04
X0013165Y0019622
X0080925Y0091594
Y0178394
X0175354
X0259703
Y0091606
X0350468Y0029465
X0350433Y0319539
X0259703Y0258787
X0080925Y0259213
X0013165Y0334681
M30
