G04*
G04 #@! TF.GenerationSoftware,Altium Limited,Altium Designer,18.1.7 (191)*
G04*
G04 Layer_Color=16711935*
%FSLAX25Y25*%
%MOIN*%
G70*
G01*
G75*
%ADD12C,0.01000*%
D12*
X969Y18503D02*
G03*
X12247Y7419I11796J722D01*
G01*
X30208Y2724D02*
G03*
X22454Y7419I-10086J-7908D01*
G01*
X30208Y2724D02*
G03*
X35418Y400I4950J4095D01*
G01*
X312896Y400D02*
G03*
X328213Y8621I575J17307D01*
G01*
X349172Y14828D02*
G03*
X362560Y28425I-102J13490D01*
G01*
X340364Y14828D02*
G03*
X328213Y8621I-253J-14503D01*
G01*
X362560Y320083D02*
G03*
X350339Y332378I-12330J-35D01*
G01*
X327504Y341810D02*
G03*
X339828Y332400I13326J4677D01*
G01*
X327504Y341692D02*
G03*
X315654Y350354I-12571J-4763D01*
G01*
X15378D02*
G03*
X974Y335477I609J-15002D01*
G01*
X12247Y7419D02*
X22454D01*
X35418Y400D02*
X312896Y400D01*
X340111Y14828D02*
X349172D01*
X362560Y28425D02*
X362560Y320083D01*
X339828Y332400D02*
X350230D01*
X17504Y350354D02*
X315654D01*
X15378D02*
X17504D01*
X969Y18503D02*
Y335352D01*
Y18503D02*
G03*
X12247Y7419I11796J722D01*
G01*
X30208Y2724D02*
G03*
X22454Y7419I-10086J-7908D01*
G01*
X30208Y2724D02*
G03*
X35418Y400I4950J4095D01*
G01*
X312896Y400D02*
G03*
X328213Y8621I575J17307D01*
G01*
X349172Y14828D02*
G03*
X362560Y28425I-102J13490D01*
G01*
X340364Y14828D02*
G03*
X328213Y8621I-253J-14503D01*
G01*
X362560Y320083D02*
G03*
X350339Y332378I-12330J-35D01*
G01*
X327504Y341810D02*
G03*
X339828Y332400I13326J4677D01*
G01*
X327504Y341692D02*
G03*
X315654Y350354I-12571J-4763D01*
G01*
X15378D02*
G03*
X974Y335477I609J-15002D01*
G01*
X12247Y7419D02*
X22454D01*
X35418Y400D02*
X312896Y400D01*
X340111Y14828D02*
X349172D01*
X362560Y28425D02*
X362560Y320083D01*
X339828Y332400D02*
X350230D01*
X17504Y350354D02*
X315654D01*
X15378D02*
X17504D01*
X969Y18503D02*
Y335352D01*
M02*
