G04*
G04 #@! TF.GenerationSoftware,Altium Limited,Altium Designer,18.1.7 (191)*
G04*
G04 Layer_Color=16711935*
%FSLAX25Y25*%
%MOIN*%
G70*
G01*
G75*
%ADD11C,0.01000*%
%ADD13C,0.00787*%
D11*
X15780Y350101D02*
G03*
X-7Y335357I-216J-15592D01*
G01*
X326286Y341311D02*
G03*
X340745Y331825I14367J6137D01*
G01*
X326286Y341311D02*
G03*
X313520Y350066I-12459J-4482D01*
G01*
X361661Y318815D02*
G03*
X348350Y331848I-12397J653D01*
G01*
X347337Y14308D02*
G03*
X361707Y29307I45J14341D01*
G01*
X338846Y14343D02*
G03*
X328274Y8774I110J-13029D01*
G01*
X314792Y-101D02*
G03*
X323165Y3151I-107J12677D01*
G01*
X26951Y4550D02*
G03*
X20717Y6885I-5955J-6408D01*
G01*
X29226Y2262D02*
G03*
X34997Y-109I5528J5245D01*
G01*
X37Y18485D02*
G03*
X10786Y7001I11878J346D01*
G01*
X15564Y350066D02*
X313520D01*
X340653Y331848D02*
X348350D01*
X361707Y318815D02*
X361707Y29307D01*
X338846Y14343D02*
X347335D01*
X323180Y3138D02*
X328255Y8763D01*
Y8787D01*
X34997Y-109D02*
X314686D01*
X26945Y4543D02*
X29226Y2262D01*
X10895Y6893D02*
X20997D01*
X-8Y18830D02*
X-8Y335358D01*
X40Y18031D02*
G03*
X11317Y6947I11796J722D01*
G01*
X29279Y2252D02*
G03*
X21524Y6947I-10086J-7908D01*
G01*
X29279Y2252D02*
G03*
X34488Y-72I4950J4095D01*
G01*
X311967Y-72D02*
G03*
X327284Y8149I575J17307D01*
G01*
X348242Y14356D02*
G03*
X361631Y27952I-102J13490D01*
G01*
X339435Y14356D02*
G03*
X327284Y8149I-253J-14503D01*
G01*
X361631Y319610D02*
G03*
X349410Y331905I-12330J-35D01*
G01*
X326575Y341338D02*
G03*
X338899Y331927I13326J4677D01*
G01*
X326575Y341220D02*
G03*
X314725Y349881I-12571J-4763D01*
G01*
X14449D02*
G03*
X45Y335005I609J-15002D01*
G01*
X11317Y6947D02*
X21524D01*
X34488Y-72D02*
X311967Y-72D01*
X339182Y14356D02*
X348242D01*
X361631Y27952D02*
X361631Y319610D01*
X338899Y331927D02*
X349301D01*
X16575Y349881D02*
X314725D01*
X14449D02*
X16575D01*
X40Y18031D02*
Y334880D01*
D13*
X8378Y317441D02*
X14677D01*
X8378Y304449D02*
X14677D01*
X8378D02*
Y317441D01*
X14677Y304449D02*
Y317441D01*
M02*
