G04*
G04 #@! TF.GenerationSoftware,Altium Limited,Altium Designer,18.1.7 (191)*
G04*
G04 Layer_Color=16711935*
%FSLAX25Y25*%
%MOIN*%
G70*
G01*
G75*
%ADD11C,0.01000*%
%ADD13C,0.00787*%
%ADD19R,0.07874X0.14567*%
%ADD22C,0.11627*%
%ADD23C,0.06902*%
%ADD24R,0.06902X0.06902*%
%ADD25C,0.24422*%
%ADD26C,0.10827*%
%ADD34R,0.07887X0.05328*%
%ADD35R,0.16548X0.20485*%
G36*
X681736Y-138584D02*
X681800D01*
X681973Y-138603D01*
X682164Y-138630D01*
X682365Y-138675D01*
X682583Y-138730D01*
X682784Y-138803D01*
X682793D01*
X682811Y-138812D01*
X682838Y-138830D01*
X682875Y-138849D01*
X682966Y-138894D01*
X683084Y-138976D01*
X683221Y-139067D01*
X683358Y-139186D01*
X683485Y-139322D01*
X683604Y-139477D01*
Y-139486D01*
X683613Y-139495D01*
X683631Y-139523D01*
X683649Y-139550D01*
X683695Y-139641D01*
X683749Y-139760D01*
X683813Y-139905D01*
X683859Y-140078D01*
X683904Y-140261D01*
X683922Y-140461D01*
X683121Y-140525D01*
Y-140516D01*
Y-140498D01*
X683112Y-140470D01*
X683103Y-140425D01*
X683075Y-140324D01*
X683039Y-140188D01*
X682984Y-140042D01*
X682902Y-139896D01*
X682802Y-139760D01*
X682674Y-139632D01*
X682656Y-139623D01*
X682611Y-139586D01*
X682519Y-139532D01*
X682401Y-139477D01*
X682246Y-139423D01*
X682064Y-139368D01*
X681836Y-139331D01*
X681581Y-139322D01*
X681454D01*
X681399Y-139331D01*
X681326Y-139340D01*
X681162Y-139359D01*
X680980Y-139395D01*
X680798Y-139441D01*
X680625Y-139514D01*
X680552Y-139559D01*
X680479Y-139605D01*
X680461Y-139614D01*
X680424Y-139650D01*
X680370Y-139714D01*
X680315Y-139787D01*
X680251Y-139887D01*
X680197Y-139997D01*
X680160Y-140124D01*
X680142Y-140270D01*
Y-140288D01*
Y-140324D01*
X680151Y-140388D01*
X680169Y-140461D01*
X680197Y-140552D01*
X680242Y-140643D01*
X680297Y-140734D01*
X680379Y-140825D01*
X680388Y-140835D01*
X680433Y-140862D01*
X680470Y-140889D01*
X680506Y-140908D01*
X680561Y-140935D01*
X680625Y-140971D01*
X680707Y-140999D01*
X680798Y-141035D01*
X680898Y-141071D01*
X681016Y-141117D01*
X681144Y-141153D01*
X681290Y-141199D01*
X681454Y-141235D01*
X681636Y-141281D01*
X681645D01*
X681681Y-141290D01*
X681736Y-141299D01*
X681800Y-141317D01*
X681882Y-141336D01*
X681982Y-141363D01*
X682082Y-141390D01*
X682192Y-141418D01*
X682428Y-141481D01*
X682656Y-141545D01*
X682765Y-141582D01*
X682866Y-141618D01*
X682957Y-141645D01*
X683030Y-141682D01*
X683039D01*
X683057Y-141691D01*
X683084Y-141709D01*
X683121Y-141727D01*
X683221Y-141782D01*
X683340Y-141855D01*
X683476Y-141955D01*
X683613Y-142064D01*
X683740Y-142192D01*
X683850Y-142329D01*
X683859Y-142347D01*
X683895Y-142392D01*
X683932Y-142474D01*
X683986Y-142584D01*
X684032Y-142711D01*
X684077Y-142866D01*
X684105Y-143039D01*
X684114Y-143221D01*
Y-143230D01*
Y-143240D01*
Y-143267D01*
Y-143303D01*
X684096Y-143404D01*
X684077Y-143531D01*
X684041Y-143677D01*
X683995Y-143832D01*
X683922Y-143996D01*
X683822Y-144169D01*
Y-144178D01*
X683813Y-144187D01*
X683768Y-144242D01*
X683704Y-144324D01*
X683613Y-144415D01*
X683494Y-144524D01*
X683349Y-144643D01*
X683185Y-144752D01*
X682993Y-144852D01*
X682984D01*
X682966Y-144861D01*
X682939Y-144870D01*
X682902Y-144888D01*
X682847Y-144907D01*
X682784Y-144934D01*
X682638Y-144971D01*
X682465Y-145016D01*
X682255Y-145062D01*
X682028Y-145089D01*
X681782Y-145098D01*
X681636D01*
X681563Y-145089D01*
X681481D01*
X681390Y-145080D01*
X681281Y-145071D01*
X681053Y-145034D01*
X680816Y-144998D01*
X680579Y-144934D01*
X680351Y-144852D01*
X680342D01*
X680324Y-144843D01*
X680297Y-144825D01*
X680260Y-144807D01*
X680151Y-144752D01*
X680023Y-144670D01*
X679878Y-144561D01*
X679723Y-144433D01*
X679577Y-144278D01*
X679440Y-144105D01*
Y-144096D01*
X679422Y-144078D01*
X679413Y-144050D01*
X679386Y-144014D01*
X679367Y-143968D01*
X679340Y-143914D01*
X679276Y-143777D01*
X679213Y-143604D01*
X679158Y-143413D01*
X679121Y-143194D01*
X679103Y-142966D01*
X679887Y-142893D01*
Y-142903D01*
Y-142912D01*
X679896Y-142939D01*
Y-142975D01*
X679914Y-143057D01*
X679941Y-143176D01*
X679978Y-143294D01*
X680014Y-143431D01*
X680078Y-143559D01*
X680142Y-143677D01*
X680151Y-143686D01*
X680178Y-143722D01*
X680224Y-143786D01*
X680297Y-143850D01*
X680388Y-143932D01*
X680488Y-144014D01*
X680625Y-144096D01*
X680770Y-144169D01*
X680780D01*
X680789Y-144178D01*
X680816Y-144187D01*
X680843Y-144196D01*
X680934Y-144223D01*
X681053Y-144260D01*
X681199Y-144296D01*
X681363Y-144324D01*
X681545Y-144342D01*
X681745Y-144351D01*
X681827D01*
X681918Y-144342D01*
X682028Y-144333D01*
X682155Y-144315D01*
X682301Y-144296D01*
X682447Y-144260D01*
X682583Y-144214D01*
X682601Y-144205D01*
X682647Y-144187D01*
X682711Y-144151D01*
X682793Y-144114D01*
X682875Y-144050D01*
X682966Y-143987D01*
X683057Y-143914D01*
X683130Y-143823D01*
X683139Y-143814D01*
X683157Y-143777D01*
X683185Y-143732D01*
X683221Y-143659D01*
X683257Y-143586D01*
X683285Y-143495D01*
X683303Y-143394D01*
X683312Y-143285D01*
Y-143276D01*
Y-143230D01*
X683303Y-143176D01*
X683294Y-143103D01*
X683267Y-143030D01*
X683239Y-142939D01*
X683194Y-142848D01*
X683130Y-142766D01*
X683121Y-142757D01*
X683094Y-142729D01*
X683057Y-142693D01*
X682993Y-142638D01*
X682920Y-142584D01*
X682820Y-142520D01*
X682702Y-142456D01*
X682565Y-142402D01*
X682556Y-142392D01*
X682510Y-142383D01*
X682438Y-142356D01*
X682392Y-142347D01*
X682328Y-142329D01*
X682265Y-142301D01*
X682183Y-142283D01*
X682091Y-142256D01*
X681982Y-142228D01*
X681873Y-142201D01*
X681745Y-142165D01*
X681599Y-142128D01*
X681445Y-142092D01*
X681435D01*
X681408Y-142083D01*
X681363Y-142074D01*
X681308Y-142055D01*
X681235Y-142037D01*
X681153Y-142019D01*
X680971Y-141964D01*
X680770Y-141901D01*
X680561Y-141837D01*
X680379Y-141773D01*
X680297Y-141736D01*
X680224Y-141700D01*
X680215D01*
X680206Y-141691D01*
X680151Y-141655D01*
X680069Y-141609D01*
X679978Y-141536D01*
X679869Y-141454D01*
X679759Y-141354D01*
X679650Y-141235D01*
X679559Y-141108D01*
X679550Y-141090D01*
X679522Y-141044D01*
X679486Y-140971D01*
X679450Y-140880D01*
X679413Y-140762D01*
X679377Y-140625D01*
X679349Y-140479D01*
X679340Y-140324D01*
Y-140315D01*
Y-140306D01*
Y-140279D01*
Y-140242D01*
X679358Y-140151D01*
X679377Y-140033D01*
X679404Y-139896D01*
X679450Y-139741D01*
X679513Y-139586D01*
X679604Y-139432D01*
Y-139423D01*
X679613Y-139413D01*
X679659Y-139359D01*
X679723Y-139286D01*
X679805Y-139195D01*
X679914Y-139095D01*
X680051Y-138985D01*
X680215Y-138885D01*
X680397Y-138794D01*
X680406D01*
X680424Y-138785D01*
X680452Y-138776D01*
X680488Y-138758D01*
X680534Y-138739D01*
X680597Y-138721D01*
X680734Y-138685D01*
X680907Y-138648D01*
X681108Y-138612D01*
X681317Y-138584D01*
X681554Y-138575D01*
X681672D01*
X681736Y-138584D01*
D02*
G37*
G36*
X695693Y-144989D02*
X694973D01*
Y-144415D01*
X694964Y-144424D01*
X694955Y-144442D01*
X694927Y-144479D01*
X694891Y-144524D01*
X694845Y-144570D01*
X694791Y-144624D01*
X694727Y-144688D01*
X694645Y-144752D01*
X694563Y-144816D01*
X694472Y-144879D01*
X694363Y-144934D01*
X694244Y-144980D01*
X694126Y-145025D01*
X693989Y-145062D01*
X693843Y-145080D01*
X693688Y-145089D01*
X693634D01*
X693597Y-145080D01*
X693488Y-145071D01*
X693361Y-145053D01*
X693206Y-145016D01*
X693033Y-144961D01*
X692859Y-144888D01*
X692686Y-144788D01*
X692677D01*
X692668Y-144770D01*
X692613Y-144734D01*
X692531Y-144661D01*
X692431Y-144570D01*
X692313Y-144451D01*
X692194Y-144306D01*
X692076Y-144141D01*
X691976Y-143950D01*
Y-143941D01*
X691967Y-143923D01*
X691958Y-143895D01*
X691939Y-143859D01*
X691921Y-143804D01*
X691894Y-143741D01*
X691876Y-143677D01*
X691857Y-143595D01*
X691812Y-143413D01*
X691766Y-143203D01*
X691739Y-142966D01*
X691730Y-142711D01*
Y-142702D01*
Y-142684D01*
Y-142648D01*
Y-142593D01*
X691739Y-142538D01*
Y-142465D01*
X691757Y-142301D01*
X691784Y-142110D01*
X691830Y-141901D01*
X691885Y-141682D01*
X691958Y-141472D01*
Y-141463D01*
X691967Y-141445D01*
X691985Y-141418D01*
X692003Y-141381D01*
X692058Y-141281D01*
X692131Y-141153D01*
X692222Y-141017D01*
X692340Y-140880D01*
X692477Y-140734D01*
X692641Y-140616D01*
X692650D01*
X692659Y-140607D01*
X692686Y-140589D01*
X692723Y-140570D01*
X692814Y-140525D01*
X692941Y-140461D01*
X693087Y-140406D01*
X693260Y-140361D01*
X693452Y-140324D01*
X693652Y-140315D01*
X693725D01*
X693798Y-140324D01*
X693898Y-140333D01*
X694016Y-140361D01*
X694144Y-140388D01*
X694272Y-140434D01*
X694390Y-140498D01*
X694408Y-140507D01*
X694445Y-140525D01*
X694499Y-140570D01*
X694572Y-140616D01*
X694663Y-140680D01*
X694745Y-140762D01*
X694836Y-140844D01*
X694918Y-140944D01*
Y-138685D01*
X695693D01*
Y-144989D01*
D02*
G37*
G36*
X703646Y-140324D02*
X703746Y-140343D01*
X703864Y-140379D01*
X703992Y-140425D01*
X704138Y-140488D01*
X704292Y-140570D01*
X704010Y-141281D01*
X704001Y-141272D01*
X703965Y-141254D01*
X703910Y-141226D01*
X703837Y-141199D01*
X703755Y-141172D01*
X703655Y-141144D01*
X703554Y-141126D01*
X703454Y-141117D01*
X703409D01*
X703363Y-141126D01*
X703300Y-141135D01*
X703236Y-141153D01*
X703154Y-141181D01*
X703072Y-141217D01*
X702999Y-141272D01*
X702990Y-141281D01*
X702962Y-141299D01*
X702935Y-141336D01*
X702889Y-141381D01*
X702844Y-141445D01*
X702798Y-141518D01*
X702753Y-141600D01*
X702716Y-141700D01*
X702707Y-141718D01*
X702698Y-141773D01*
X702680Y-141855D01*
X702653Y-141964D01*
X702625Y-142101D01*
X702607Y-142256D01*
X702598Y-142420D01*
X702589Y-142602D01*
Y-144989D01*
X701815D01*
Y-140416D01*
X702516D01*
Y-141108D01*
X702525Y-141099D01*
X702562Y-141035D01*
X702607Y-140953D01*
X702680Y-140853D01*
X702753Y-140753D01*
X702835Y-140643D01*
X702917Y-140552D01*
X702999Y-140479D01*
X703008Y-140470D01*
X703035Y-140452D01*
X703090Y-140425D01*
X703145Y-140397D01*
X703218Y-140370D01*
X703309Y-140343D01*
X703400Y-140324D01*
X703500Y-140315D01*
X703564D01*
X703646Y-140324D01*
D02*
G37*
G36*
X674384D02*
X674448D01*
X674512Y-140333D01*
X674667Y-140361D01*
X674831Y-140406D01*
X675004Y-140479D01*
X675177Y-140570D01*
X675323Y-140698D01*
X675341Y-140716D01*
X675377Y-140771D01*
X675441Y-140853D01*
X675468Y-140917D01*
X675505Y-140980D01*
X675541Y-141062D01*
X675569Y-141144D01*
X675605Y-141235D01*
X675632Y-141345D01*
X675651Y-141454D01*
X675669Y-141582D01*
X675687Y-141709D01*
Y-141855D01*
Y-144989D01*
X674913D01*
Y-142119D01*
Y-142110D01*
Y-142101D01*
Y-142046D01*
Y-141964D01*
X674904Y-141864D01*
X674895Y-141755D01*
X674885Y-141645D01*
X674867Y-141536D01*
X674840Y-141454D01*
Y-141445D01*
X674822Y-141418D01*
X674803Y-141381D01*
X674776Y-141336D01*
X674740Y-141281D01*
X674694Y-141226D01*
X674639Y-141172D01*
X674567Y-141117D01*
X674557Y-141108D01*
X674530Y-141099D01*
X674494Y-141080D01*
X674430Y-141053D01*
X674366Y-141026D01*
X674284Y-141008D01*
X674202Y-140999D01*
X674102Y-140989D01*
X674056D01*
X674020Y-140999D01*
X673929Y-141008D01*
X673819Y-141026D01*
X673692Y-141071D01*
X673555Y-141126D01*
X673419Y-141208D01*
X673291Y-141317D01*
X673282Y-141336D01*
X673246Y-141381D01*
X673191Y-141454D01*
X673136Y-141563D01*
X673072Y-141709D01*
X673027Y-141882D01*
X672991Y-142092D01*
X672972Y-142338D01*
Y-144989D01*
X672198D01*
Y-142028D01*
Y-142019D01*
Y-142001D01*
Y-141982D01*
Y-141946D01*
X672189Y-141846D01*
X672171Y-141736D01*
X672152Y-141609D01*
X672116Y-141481D01*
X672070Y-141363D01*
X672007Y-141254D01*
X671997Y-141244D01*
X671970Y-141208D01*
X671925Y-141172D01*
X671861Y-141117D01*
X671779Y-141071D01*
X671669Y-141026D01*
X671542Y-140999D01*
X671387Y-140989D01*
X671333D01*
X671269Y-140999D01*
X671196Y-141008D01*
X671105Y-141035D01*
X670995Y-141062D01*
X670895Y-141108D01*
X670786Y-141163D01*
X670777Y-141172D01*
X670740Y-141199D01*
X670695Y-141235D01*
X670631Y-141290D01*
X670567Y-141363D01*
X670504Y-141454D01*
X670440Y-141554D01*
X670385Y-141673D01*
X670376Y-141691D01*
X670367Y-141736D01*
X670349Y-141809D01*
X670321Y-141910D01*
X670294Y-142046D01*
X670276Y-142210D01*
X670267Y-142402D01*
X670258Y-142620D01*
Y-144989D01*
X669483D01*
Y-140416D01*
X670176D01*
Y-141071D01*
X670185Y-141053D01*
X670212Y-141017D01*
X670267Y-140953D01*
X670330Y-140880D01*
X670412Y-140789D01*
X670513Y-140698D01*
X670622Y-140607D01*
X670749Y-140525D01*
X670768Y-140516D01*
X670813Y-140488D01*
X670886Y-140461D01*
X670986Y-140416D01*
X671105Y-140379D01*
X671241Y-140352D01*
X671396Y-140324D01*
X671560Y-140315D01*
X671642D01*
X671742Y-140324D01*
X671852Y-140343D01*
X671988Y-140370D01*
X672125Y-140406D01*
X672262Y-140461D01*
X672389Y-140534D01*
X672407Y-140543D01*
X672444Y-140570D01*
X672499Y-140616D01*
X672571Y-140689D01*
X672644Y-140771D01*
X672726Y-140871D01*
X672799Y-140989D01*
X672854Y-141126D01*
X672863Y-141117D01*
X672881Y-141090D01*
X672908Y-141053D01*
X672954Y-140999D01*
X673009Y-140935D01*
X673072Y-140871D01*
X673145Y-140798D01*
X673237Y-140716D01*
X673337Y-140643D01*
X673437Y-140570D01*
X673555Y-140507D01*
X673683Y-140443D01*
X673819Y-140388D01*
X673965Y-140352D01*
X674111Y-140324D01*
X674275Y-140315D01*
X674339D01*
X674384Y-140324D01*
D02*
G37*
G36*
X690819Y-144989D02*
X690044D01*
Y-138685D01*
X690819D01*
Y-144989D01*
D02*
G37*
G36*
X651518Y-138694D02*
X651591D01*
X651755Y-138712D01*
X651937Y-138730D01*
X652129Y-138767D01*
X652320Y-138812D01*
X652493Y-138876D01*
X652502D01*
X652511Y-138885D01*
X652566Y-138912D01*
X652648Y-138958D01*
X652739Y-139022D01*
X652848Y-139104D01*
X652967Y-139204D01*
X653076Y-139331D01*
X653176Y-139468D01*
X653185Y-139486D01*
X653213Y-139541D01*
X653258Y-139614D01*
X653304Y-139723D01*
X653349Y-139851D01*
X653395Y-139987D01*
X653422Y-140142D01*
X653431Y-140297D01*
Y-140315D01*
Y-140361D01*
X653422Y-140443D01*
X653404Y-140543D01*
X653377Y-140662D01*
X653331Y-140789D01*
X653276Y-140917D01*
X653204Y-141053D01*
X653195Y-141071D01*
X653167Y-141108D01*
X653113Y-141181D01*
X653040Y-141254D01*
X652949Y-141345D01*
X652839Y-141445D01*
X652703Y-141536D01*
X652548Y-141627D01*
X652557D01*
X652575Y-141636D01*
X652602Y-141645D01*
X652639Y-141664D01*
X652748Y-141700D01*
X652876Y-141764D01*
X653012Y-141846D01*
X653167Y-141946D01*
X653304Y-142064D01*
X653431Y-142210D01*
X653440Y-142228D01*
X653477Y-142283D01*
X653532Y-142365D01*
X653586Y-142474D01*
X653641Y-142620D01*
X653695Y-142775D01*
X653732Y-142957D01*
X653741Y-143158D01*
Y-143167D01*
Y-143176D01*
Y-143230D01*
X653732Y-143322D01*
X653714Y-143431D01*
X653695Y-143559D01*
X653659Y-143695D01*
X653614Y-143841D01*
X653550Y-143987D01*
X653541Y-144005D01*
X653513Y-144050D01*
X653477Y-144114D01*
X653422Y-144205D01*
X653349Y-144296D01*
X653276Y-144397D01*
X653185Y-144497D01*
X653085Y-144579D01*
X653076Y-144588D01*
X653040Y-144615D01*
X652976Y-144652D01*
X652894Y-144688D01*
X652794Y-144743D01*
X652675Y-144797D01*
X652548Y-144843D01*
X652393Y-144888D01*
X652375D01*
X652320Y-144907D01*
X652229Y-144916D01*
X652110Y-144934D01*
X651965Y-144952D01*
X651791Y-144971D01*
X651600Y-144980D01*
X651382Y-144989D01*
X648977D01*
Y-138685D01*
X651454D01*
X651518Y-138694D01*
D02*
G37*
G36*
X663042Y-140416D02*
X663826D01*
Y-141017D01*
X663042D01*
Y-143704D01*
Y-143722D01*
Y-143759D01*
Y-143814D01*
X663052Y-143877D01*
X663061Y-144023D01*
X663070Y-144087D01*
X663079Y-144132D01*
X663088Y-144151D01*
X663115Y-144187D01*
X663152Y-144233D01*
X663215Y-144278D01*
X663234Y-144287D01*
X663279Y-144306D01*
X663361Y-144324D01*
X663480Y-144333D01*
X663571D01*
X663616Y-144324D01*
X663680D01*
X663753Y-144315D01*
X663826Y-144306D01*
X663926Y-144989D01*
X663908D01*
X663871Y-144998D01*
X663808Y-145007D01*
X663726Y-145016D01*
X663634Y-145034D01*
X663534Y-145043D01*
X663334Y-145053D01*
X663261D01*
X663188Y-145043D01*
X663097Y-145034D01*
X662988Y-145025D01*
X662878Y-144998D01*
X662778Y-144971D01*
X662678Y-144925D01*
X662669Y-144916D01*
X662641Y-144898D01*
X662605Y-144870D01*
X662550Y-144825D01*
X662505Y-144779D01*
X662450Y-144715D01*
X662396Y-144652D01*
X662359Y-144570D01*
Y-144561D01*
X662341Y-144524D01*
X662332Y-144460D01*
X662314Y-144369D01*
X662295Y-144251D01*
X662286Y-144178D01*
Y-144096D01*
X662277Y-143996D01*
X662268Y-143895D01*
Y-143786D01*
Y-143659D01*
Y-141017D01*
X661694D01*
Y-140416D01*
X662268D01*
Y-139286D01*
X663042Y-138821D01*
Y-140416D01*
D02*
G37*
G36*
X660592D02*
X661375D01*
Y-141017D01*
X660592D01*
Y-143704D01*
Y-143722D01*
Y-143759D01*
Y-143814D01*
X660601Y-143877D01*
X660610Y-144023D01*
X660619Y-144087D01*
X660628Y-144132D01*
X660637Y-144151D01*
X660665Y-144187D01*
X660701Y-144233D01*
X660765Y-144278D01*
X660783Y-144287D01*
X660829Y-144306D01*
X660911Y-144324D01*
X661029Y-144333D01*
X661120D01*
X661166Y-144324D01*
X661230D01*
X661302Y-144315D01*
X661375Y-144306D01*
X661476Y-144989D01*
X661457D01*
X661421Y-144998D01*
X661357Y-145007D01*
X661275Y-145016D01*
X661184Y-145034D01*
X661084Y-145043D01*
X660883Y-145053D01*
X660810D01*
X660738Y-145043D01*
X660646Y-145034D01*
X660537Y-145025D01*
X660428Y-144998D01*
X660328Y-144971D01*
X660227Y-144925D01*
X660218Y-144916D01*
X660191Y-144898D01*
X660154Y-144870D01*
X660100Y-144825D01*
X660054Y-144779D01*
X660000Y-144715D01*
X659945Y-144652D01*
X659908Y-144570D01*
Y-144561D01*
X659890Y-144524D01*
X659881Y-144460D01*
X659863Y-144369D01*
X659845Y-144251D01*
X659836Y-144178D01*
Y-144096D01*
X659827Y-143996D01*
X659817Y-143895D01*
Y-143786D01*
Y-143659D01*
Y-141017D01*
X659243D01*
Y-140416D01*
X659817D01*
Y-139286D01*
X660592Y-138821D01*
Y-140416D01*
D02*
G37*
G36*
X698945Y-140324D02*
X699018Y-140333D01*
X699109Y-140352D01*
X699209Y-140370D01*
X699328Y-140397D01*
X699437Y-140425D01*
X699564Y-140470D01*
X699683Y-140516D01*
X699810Y-140579D01*
X699938Y-140652D01*
X700065Y-140734D01*
X700184Y-140835D01*
X700293Y-140944D01*
X700302Y-140953D01*
X700320Y-140971D01*
X700348Y-141008D01*
X700384Y-141062D01*
X700430Y-141126D01*
X700475Y-141199D01*
X700530Y-141290D01*
X700585Y-141399D01*
X700639Y-141518D01*
X700694Y-141645D01*
X700739Y-141791D01*
X700785Y-141946D01*
X700821Y-142119D01*
X700849Y-142301D01*
X700867Y-142493D01*
X700876Y-142702D01*
Y-142711D01*
Y-142748D01*
Y-142811D01*
X700867Y-142903D01*
X697451D01*
Y-142912D01*
Y-142939D01*
X697460Y-142975D01*
Y-143030D01*
X697469Y-143094D01*
X697487Y-143167D01*
X697515Y-143331D01*
X697569Y-143513D01*
X697642Y-143713D01*
X697742Y-143895D01*
X697870Y-144060D01*
X697879D01*
X697888Y-144078D01*
X697943Y-144123D01*
X698025Y-144187D01*
X698134Y-144251D01*
X698280Y-144324D01*
X698444Y-144387D01*
X698626Y-144433D01*
X698726Y-144442D01*
X698836Y-144451D01*
X698908D01*
X698990Y-144442D01*
X699091Y-144424D01*
X699200Y-144397D01*
X699328Y-144360D01*
X699446Y-144306D01*
X699564Y-144233D01*
X699574Y-144223D01*
X699619Y-144187D01*
X699674Y-144132D01*
X699737Y-144060D01*
X699810Y-143959D01*
X699892Y-143832D01*
X699974Y-143686D01*
X700047Y-143513D01*
X700849Y-143613D01*
Y-143622D01*
X700840Y-143640D01*
X700831Y-143677D01*
X700812Y-143732D01*
X700785Y-143786D01*
X700758Y-143859D01*
X700685Y-144014D01*
X700594Y-144187D01*
X700466Y-144369D01*
X700320Y-144542D01*
X700138Y-144706D01*
X700129D01*
X700111Y-144725D01*
X700084Y-144743D01*
X700047Y-144770D01*
X699993Y-144797D01*
X699938Y-144825D01*
X699865Y-144861D01*
X699783Y-144898D01*
X699692Y-144934D01*
X699601Y-144971D01*
X699373Y-145025D01*
X699118Y-145071D01*
X698836Y-145089D01*
X698735D01*
X698672Y-145080D01*
X698590Y-145071D01*
X698489Y-145053D01*
X698380Y-145034D01*
X698262Y-145016D01*
X698006Y-144943D01*
X697870Y-144888D01*
X697742Y-144834D01*
X697606Y-144761D01*
X697478Y-144679D01*
X697360Y-144588D01*
X697241Y-144479D01*
X697232Y-144469D01*
X697214Y-144451D01*
X697187Y-144415D01*
X697150Y-144360D01*
X697105Y-144296D01*
X697059Y-144223D01*
X697004Y-144132D01*
X696950Y-144032D01*
X696895Y-143914D01*
X696840Y-143786D01*
X696795Y-143640D01*
X696749Y-143486D01*
X696713Y-143322D01*
X696686Y-143139D01*
X696667Y-142948D01*
X696658Y-142748D01*
Y-142739D01*
Y-142693D01*
Y-142638D01*
X696667Y-142556D01*
X696676Y-142456D01*
X696686Y-142347D01*
X696704Y-142219D01*
X696731Y-142092D01*
X696804Y-141800D01*
X696850Y-141655D01*
X696904Y-141500D01*
X696977Y-141354D01*
X697059Y-141217D01*
X697150Y-141080D01*
X697250Y-140953D01*
X697260Y-140944D01*
X697278Y-140926D01*
X697314Y-140898D01*
X697360Y-140853D01*
X697414Y-140807D01*
X697487Y-140753D01*
X697569Y-140689D01*
X697670Y-140634D01*
X697770Y-140570D01*
X697888Y-140516D01*
X698016Y-140461D01*
X698152Y-140416D01*
X698298Y-140370D01*
X698453Y-140343D01*
X698617Y-140324D01*
X698790Y-140315D01*
X698881D01*
X698945Y-140324D01*
D02*
G37*
G36*
X687166D02*
X687248Y-140333D01*
X687339Y-140352D01*
X687439Y-140370D01*
X687557Y-140388D01*
X687803Y-140470D01*
X687931Y-140516D01*
X688058Y-140579D01*
X688186Y-140643D01*
X688313Y-140734D01*
X688432Y-140825D01*
X688550Y-140935D01*
X688559Y-140944D01*
X688578Y-140962D01*
X688605Y-140999D01*
X688642Y-141044D01*
X688687Y-141108D01*
X688742Y-141190D01*
X688796Y-141281D01*
X688851Y-141381D01*
X688906Y-141490D01*
X688960Y-141627D01*
X689015Y-141764D01*
X689060Y-141919D01*
X689097Y-142083D01*
X689124Y-142256D01*
X689143Y-142438D01*
X689152Y-142638D01*
Y-142648D01*
Y-142675D01*
Y-142720D01*
Y-142784D01*
X689143Y-142857D01*
X689133Y-142948D01*
Y-143039D01*
X689115Y-143139D01*
X689088Y-143367D01*
X689033Y-143595D01*
X688969Y-143823D01*
X688878Y-144032D01*
Y-144041D01*
X688869Y-144050D01*
X688851Y-144078D01*
X688833Y-144114D01*
X688769Y-144205D01*
X688687Y-144315D01*
X688578Y-144442D01*
X688441Y-144570D01*
X688286Y-144697D01*
X688104Y-144816D01*
X688095D01*
X688086Y-144825D01*
X688058Y-144843D01*
X688013Y-144861D01*
X687967Y-144879D01*
X687913Y-144898D01*
X687776Y-144952D01*
X687621Y-144998D01*
X687430Y-145043D01*
X687229Y-145080D01*
X687011Y-145089D01*
X686920D01*
X686847Y-145080D01*
X686765Y-145071D01*
X686674Y-145053D01*
X686564Y-145034D01*
X686455Y-145016D01*
X686209Y-144943D01*
X686072Y-144888D01*
X685945Y-144834D01*
X685817Y-144761D01*
X685690Y-144679D01*
X685571Y-144588D01*
X685453Y-144479D01*
X685444Y-144469D01*
X685426Y-144451D01*
X685398Y-144415D01*
X685362Y-144360D01*
X685316Y-144296D01*
X685271Y-144223D01*
X685216Y-144132D01*
X685161Y-144023D01*
X685107Y-143905D01*
X685052Y-143768D01*
X685007Y-143622D01*
X684961Y-143467D01*
X684925Y-143294D01*
X684897Y-143112D01*
X684879Y-142912D01*
X684870Y-142702D01*
Y-142684D01*
Y-142648D01*
X684879Y-142584D01*
Y-142493D01*
X684888Y-142392D01*
X684906Y-142265D01*
X684925Y-142137D01*
X684961Y-141992D01*
X684998Y-141846D01*
X685043Y-141691D01*
X685098Y-141527D01*
X685171Y-141372D01*
X685243Y-141226D01*
X685344Y-141080D01*
X685444Y-140944D01*
X685571Y-140825D01*
X685580Y-140816D01*
X685599Y-140807D01*
X685635Y-140780D01*
X685681Y-140744D01*
X685735Y-140707D01*
X685808Y-140662D01*
X685881Y-140616D01*
X685972Y-140570D01*
X686072Y-140525D01*
X686182Y-140479D01*
X686428Y-140397D01*
X686710Y-140333D01*
X686856Y-140324D01*
X687011Y-140315D01*
X687102D01*
X687166Y-140324D01*
D02*
G37*
G36*
X666595D02*
X666677Y-140333D01*
X666768Y-140352D01*
X666869Y-140370D01*
X666987Y-140388D01*
X667233Y-140470D01*
X667360Y-140516D01*
X667488Y-140579D01*
X667616Y-140643D01*
X667743Y-140734D01*
X667862Y-140825D01*
X667980Y-140935D01*
X667989Y-140944D01*
X668007Y-140962D01*
X668035Y-140999D01*
X668071Y-141044D01*
X668117Y-141108D01*
X668171Y-141190D01*
X668226Y-141281D01*
X668281Y-141381D01*
X668335Y-141490D01*
X668390Y-141627D01*
X668445Y-141764D01*
X668490Y-141919D01*
X668527Y-142083D01*
X668554Y-142256D01*
X668572Y-142438D01*
X668581Y-142638D01*
Y-142648D01*
Y-142675D01*
Y-142720D01*
Y-142784D01*
X668572Y-142857D01*
X668563Y-142948D01*
Y-143039D01*
X668545Y-143139D01*
X668517Y-143367D01*
X668463Y-143595D01*
X668399Y-143823D01*
X668308Y-144032D01*
Y-144041D01*
X668299Y-144050D01*
X668281Y-144078D01*
X668262Y-144114D01*
X668199Y-144205D01*
X668117Y-144315D01*
X668007Y-144442D01*
X667871Y-144570D01*
X667716Y-144697D01*
X667534Y-144816D01*
X667524D01*
X667515Y-144825D01*
X667488Y-144843D01*
X667443Y-144861D01*
X667397Y-144879D01*
X667342Y-144898D01*
X667206Y-144952D01*
X667051Y-144998D01*
X666859Y-145043D01*
X666659Y-145080D01*
X666440Y-145089D01*
X666349D01*
X666276Y-145080D01*
X666194Y-145071D01*
X666103Y-145053D01*
X665994Y-145034D01*
X665885Y-145016D01*
X665639Y-144943D01*
X665502Y-144888D01*
X665375Y-144834D01*
X665247Y-144761D01*
X665119Y-144679D01*
X665001Y-144588D01*
X664883Y-144479D01*
X664874Y-144469D01*
X664855Y-144451D01*
X664828Y-144415D01*
X664791Y-144360D01*
X664746Y-144296D01*
X664700Y-144223D01*
X664646Y-144132D01*
X664591Y-144023D01*
X664536Y-143905D01*
X664482Y-143768D01*
X664436Y-143622D01*
X664391Y-143467D01*
X664354Y-143294D01*
X664327Y-143112D01*
X664309Y-142912D01*
X664299Y-142702D01*
Y-142684D01*
Y-142648D01*
X664309Y-142584D01*
Y-142493D01*
X664318Y-142392D01*
X664336Y-142265D01*
X664354Y-142137D01*
X664391Y-141992D01*
X664427Y-141846D01*
X664473Y-141691D01*
X664527Y-141527D01*
X664600Y-141372D01*
X664673Y-141226D01*
X664773Y-141080D01*
X664874Y-140944D01*
X665001Y-140825D01*
X665010Y-140816D01*
X665028Y-140807D01*
X665065Y-140780D01*
X665110Y-140744D01*
X665165Y-140707D01*
X665238Y-140662D01*
X665311Y-140616D01*
X665402Y-140570D01*
X665502Y-140525D01*
X665611Y-140479D01*
X665857Y-140397D01*
X666140Y-140333D01*
X666286Y-140324D01*
X666440Y-140315D01*
X666532D01*
X666595Y-140324D01*
D02*
G37*
G36*
X656793D02*
X656875Y-140333D01*
X656966Y-140352D01*
X657066Y-140370D01*
X657185Y-140388D01*
X657431Y-140470D01*
X657558Y-140516D01*
X657686Y-140579D01*
X657813Y-140643D01*
X657941Y-140734D01*
X658059Y-140825D01*
X658178Y-140935D01*
X658187Y-140944D01*
X658205Y-140962D01*
X658232Y-140999D01*
X658269Y-141044D01*
X658314Y-141108D01*
X658369Y-141190D01*
X658424Y-141281D01*
X658478Y-141381D01*
X658533Y-141490D01*
X658588Y-141627D01*
X658642Y-141764D01*
X658688Y-141919D01*
X658724Y-142083D01*
X658752Y-142256D01*
X658770Y-142438D01*
X658779Y-142638D01*
Y-142648D01*
Y-142675D01*
Y-142720D01*
Y-142784D01*
X658770Y-142857D01*
X658761Y-142948D01*
Y-143039D01*
X658743Y-143139D01*
X658715Y-143367D01*
X658661Y-143595D01*
X658597Y-143823D01*
X658506Y-144032D01*
Y-144041D01*
X658497Y-144050D01*
X658478Y-144078D01*
X658460Y-144114D01*
X658396Y-144205D01*
X658314Y-144315D01*
X658205Y-144442D01*
X658068Y-144570D01*
X657913Y-144697D01*
X657731Y-144816D01*
X657722D01*
X657713Y-144825D01*
X657686Y-144843D01*
X657640Y-144861D01*
X657595Y-144879D01*
X657540Y-144898D01*
X657403Y-144952D01*
X657248Y-144998D01*
X657057Y-145043D01*
X656857Y-145080D01*
X656638Y-145089D01*
X656547D01*
X656474Y-145080D01*
X656392Y-145071D01*
X656301Y-145053D01*
X656192Y-145034D01*
X656082Y-145016D01*
X655836Y-144943D01*
X655700Y-144888D01*
X655572Y-144834D01*
X655445Y-144761D01*
X655317Y-144679D01*
X655199Y-144588D01*
X655080Y-144479D01*
X655071Y-144469D01*
X655053Y-144451D01*
X655026Y-144415D01*
X654989Y-144360D01*
X654944Y-144296D01*
X654898Y-144223D01*
X654843Y-144132D01*
X654789Y-144023D01*
X654734Y-143905D01*
X654679Y-143768D01*
X654634Y-143622D01*
X654588Y-143467D01*
X654552Y-143294D01*
X654525Y-143112D01*
X654506Y-142912D01*
X654497Y-142702D01*
Y-142684D01*
Y-142648D01*
X654506Y-142584D01*
Y-142493D01*
X654515Y-142392D01*
X654534Y-142265D01*
X654552Y-142137D01*
X654588Y-141992D01*
X654625Y-141846D01*
X654670Y-141691D01*
X654725Y-141527D01*
X654798Y-141372D01*
X654871Y-141226D01*
X654971Y-141080D01*
X655071Y-140944D01*
X655199Y-140825D01*
X655208Y-140816D01*
X655226Y-140807D01*
X655262Y-140780D01*
X655308Y-140744D01*
X655363Y-140707D01*
X655436Y-140662D01*
X655508Y-140616D01*
X655599Y-140570D01*
X655700Y-140525D01*
X655809Y-140479D01*
X656055Y-140397D01*
X656337Y-140333D01*
X656483Y-140324D01*
X656638Y-140315D01*
X656729D01*
X656793Y-140324D01*
D02*
G37*
%LPC*%
G36*
X693734Y-140953D02*
X693688D01*
X693652Y-140962D01*
X693552Y-140971D01*
X693433Y-141008D01*
X693297Y-141053D01*
X693151Y-141135D01*
X693005Y-141235D01*
X692932Y-141308D01*
X692869Y-141381D01*
Y-141390D01*
X692850Y-141399D01*
X692841Y-141427D01*
X692814Y-141463D01*
X692787Y-141509D01*
X692759Y-141563D01*
X692732Y-141627D01*
X692695Y-141700D01*
X692659Y-141791D01*
X692632Y-141891D01*
X692604Y-142001D01*
X692577Y-142119D01*
X692559Y-142247D01*
X692541Y-142392D01*
X692522Y-142547D01*
Y-142711D01*
Y-142720D01*
Y-142748D01*
Y-142793D01*
X692531Y-142857D01*
Y-142930D01*
X692541Y-143012D01*
X692568Y-143203D01*
X692613Y-143413D01*
X692677Y-143631D01*
X692768Y-143841D01*
X692823Y-143932D01*
X692887Y-144023D01*
X692896D01*
X692905Y-144041D01*
X692950Y-144087D01*
X693033Y-144160D01*
X693133Y-144233D01*
X693260Y-144315D01*
X693415Y-144387D01*
X693579Y-144433D01*
X693670Y-144442D01*
X693761Y-144451D01*
X693807D01*
X693843Y-144442D01*
X693944Y-144433D01*
X694062Y-144397D01*
X694199Y-144351D01*
X694344Y-144278D01*
X694490Y-144178D01*
X694563Y-144114D01*
X694627Y-144041D01*
Y-144032D01*
X694645Y-144023D01*
X694663Y-143996D01*
X694681Y-143959D01*
X694709Y-143914D01*
X694745Y-143868D01*
X694772Y-143795D01*
X694809Y-143722D01*
X694845Y-143640D01*
X694873Y-143549D01*
X694909Y-143440D01*
X694937Y-143331D01*
X694955Y-143203D01*
X694973Y-143076D01*
X694991Y-142930D01*
Y-142775D01*
Y-142766D01*
Y-142729D01*
Y-142684D01*
X694982Y-142620D01*
Y-142547D01*
X694973Y-142456D01*
X694964Y-142356D01*
X694946Y-142247D01*
X694900Y-142028D01*
X694836Y-141800D01*
X694745Y-141582D01*
X694691Y-141490D01*
X694627Y-141399D01*
Y-141390D01*
X694608Y-141381D01*
X694563Y-141326D01*
X694481Y-141254D01*
X694381Y-141172D01*
X694253Y-141090D01*
X694098Y-141026D01*
X693925Y-140971D01*
X693834Y-140962D01*
X693734Y-140953D01*
D02*
G37*
G36*
X651309Y-139432D02*
X649815D01*
Y-141326D01*
X651363D01*
X651482Y-141317D01*
X651609Y-141308D01*
X651737Y-141299D01*
X651864Y-141281D01*
X651965Y-141263D01*
X651983Y-141254D01*
X652019Y-141244D01*
X652074Y-141217D01*
X652147Y-141181D01*
X652220Y-141144D01*
X652302Y-141090D01*
X652384Y-141017D01*
X652447Y-140944D01*
X652457Y-140935D01*
X652475Y-140908D01*
X652502Y-140853D01*
X652529Y-140789D01*
X652557Y-140716D01*
X652584Y-140625D01*
X652602Y-140516D01*
X652611Y-140397D01*
Y-140379D01*
Y-140343D01*
X652602Y-140288D01*
X652593Y-140215D01*
X652575Y-140124D01*
X652548Y-140033D01*
X652511Y-139942D01*
X652457Y-139851D01*
X652447Y-139842D01*
X652429Y-139814D01*
X652393Y-139769D01*
X652347Y-139723D01*
X652283Y-139669D01*
X652211Y-139614D01*
X652119Y-139559D01*
X652019Y-139523D01*
X652010D01*
X651965Y-139505D01*
X651901Y-139495D01*
X651801Y-139477D01*
X651664Y-139459D01*
X651509Y-139450D01*
X651309Y-139432D01*
D02*
G37*
G36*
X651473Y-142074D02*
X649815D01*
Y-144242D01*
X651609D01*
X651801Y-144233D01*
X651883Y-144223D01*
X651956Y-144214D01*
X651965D01*
X652001Y-144205D01*
X652056Y-144196D01*
X652119Y-144178D01*
X652274Y-144123D01*
X652429Y-144050D01*
X652438Y-144041D01*
X652466Y-144023D01*
X652502Y-143996D01*
X652548Y-143959D01*
X652593Y-143905D01*
X652657Y-143850D01*
X652703Y-143777D01*
X652757Y-143695D01*
X652766Y-143686D01*
X652775Y-143659D01*
X652794Y-143604D01*
X652821Y-143540D01*
X652848Y-143467D01*
X652867Y-143376D01*
X652876Y-143267D01*
X652885Y-143158D01*
Y-143139D01*
Y-143103D01*
X652876Y-143030D01*
X652857Y-142948D01*
X652839Y-142857D01*
X652803Y-142757D01*
X652757Y-142657D01*
X652693Y-142556D01*
X652684Y-142547D01*
X652657Y-142511D01*
X652621Y-142465D01*
X652566Y-142411D01*
X652493Y-142347D01*
X652402Y-142283D01*
X652302Y-142228D01*
X652183Y-142183D01*
X652165Y-142174D01*
X652129Y-142165D01*
X652047Y-142146D01*
X651946Y-142128D01*
X651819Y-142110D01*
X651664Y-142092D01*
X651473Y-142074D01*
D02*
G37*
G36*
X698799Y-140953D02*
X698744D01*
X698708Y-140962D01*
X698608Y-140971D01*
X698489Y-140999D01*
X698344Y-141044D01*
X698189Y-141108D01*
X698043Y-141199D01*
X697897Y-141317D01*
X697879Y-141336D01*
X697843Y-141381D01*
X697779Y-141463D01*
X697715Y-141572D01*
X697642Y-141700D01*
X697578Y-141864D01*
X697524Y-142055D01*
X697496Y-142265D01*
X700056D01*
Y-142256D01*
Y-142237D01*
X700047Y-142210D01*
Y-142174D01*
X700029Y-142064D01*
X700002Y-141946D01*
X699956Y-141800D01*
X699910Y-141664D01*
X699838Y-141527D01*
X699756Y-141409D01*
Y-141399D01*
X699737Y-141390D01*
X699692Y-141336D01*
X699610Y-141263D01*
X699501Y-141181D01*
X699364Y-141099D01*
X699200Y-141026D01*
X699009Y-140971D01*
X698908Y-140962D01*
X698799Y-140953D01*
D02*
G37*
G36*
X687011D02*
X686956D01*
X686911Y-140962D01*
X686810Y-140971D01*
X686674Y-141008D01*
X686519Y-141062D01*
X686355Y-141135D01*
X686200Y-141244D01*
X686118Y-141317D01*
X686045Y-141390D01*
Y-141399D01*
X686027Y-141409D01*
X686009Y-141436D01*
X685981Y-141472D01*
X685954Y-141518D01*
X685927Y-141572D01*
X685890Y-141645D01*
X685854Y-141718D01*
X685817Y-141809D01*
X685781Y-141901D01*
X685754Y-142010D01*
X685726Y-142128D01*
X685699Y-142256D01*
X685681Y-142392D01*
X685672Y-142547D01*
X685663Y-142702D01*
Y-142711D01*
Y-142739D01*
Y-142784D01*
X685672Y-142848D01*
Y-142921D01*
X685681Y-143003D01*
X685708Y-143194D01*
X685754Y-143413D01*
X685826Y-143631D01*
X685918Y-143841D01*
X685981Y-143932D01*
X686045Y-144023D01*
X686054D01*
X686063Y-144041D01*
X686118Y-144087D01*
X686200Y-144160D01*
X686309Y-144233D01*
X686446Y-144315D01*
X686610Y-144387D01*
X686801Y-144433D01*
X686902Y-144442D01*
X687011Y-144451D01*
X687065D01*
X687111Y-144442D01*
X687211Y-144424D01*
X687348Y-144397D01*
X687494Y-144342D01*
X687658Y-144269D01*
X687813Y-144160D01*
X687894Y-144087D01*
X687967Y-144014D01*
X687976Y-144005D01*
X687986Y-143996D01*
X688004Y-143968D01*
X688031Y-143932D01*
X688058Y-143886D01*
X688095Y-143832D01*
X688131Y-143759D01*
X688168Y-143686D01*
X688204Y-143595D01*
X688232Y-143495D01*
X688268Y-143385D01*
X688295Y-143267D01*
X688323Y-143130D01*
X688341Y-142994D01*
X688359Y-142839D01*
Y-142675D01*
Y-142666D01*
Y-142638D01*
Y-142593D01*
X688350Y-142538D01*
Y-142465D01*
X688341Y-142383D01*
X688313Y-142192D01*
X688268Y-141992D01*
X688195Y-141773D01*
X688095Y-141572D01*
X688040Y-141472D01*
X687967Y-141390D01*
Y-141381D01*
X687949Y-141372D01*
X687894Y-141317D01*
X687813Y-141254D01*
X687703Y-141172D01*
X687567Y-141090D01*
X687402Y-141017D01*
X687220Y-140971D01*
X687120Y-140962D01*
X687011Y-140953D01*
D02*
G37*
G36*
X666440D02*
X666386D01*
X666340Y-140962D01*
X666240Y-140971D01*
X666103Y-141008D01*
X665948Y-141062D01*
X665785Y-141135D01*
X665630Y-141244D01*
X665548Y-141317D01*
X665475Y-141390D01*
Y-141399D01*
X665456Y-141409D01*
X665438Y-141436D01*
X665411Y-141472D01*
X665384Y-141518D01*
X665356Y-141572D01*
X665320Y-141645D01*
X665283Y-141718D01*
X665247Y-141809D01*
X665210Y-141901D01*
X665183Y-142010D01*
X665156Y-142128D01*
X665129Y-142256D01*
X665110Y-142392D01*
X665101Y-142547D01*
X665092Y-142702D01*
Y-142711D01*
Y-142739D01*
Y-142784D01*
X665101Y-142848D01*
Y-142921D01*
X665110Y-143003D01*
X665138Y-143194D01*
X665183Y-143413D01*
X665256Y-143631D01*
X665347Y-143841D01*
X665411Y-143932D01*
X665475Y-144023D01*
X665484D01*
X665493Y-144041D01*
X665548Y-144087D01*
X665630Y-144160D01*
X665739Y-144233D01*
X665876Y-144315D01*
X666040Y-144387D01*
X666231Y-144433D01*
X666331Y-144442D01*
X666440Y-144451D01*
X666495D01*
X666541Y-144442D01*
X666641Y-144424D01*
X666778Y-144397D01*
X666923Y-144342D01*
X667087Y-144269D01*
X667242Y-144160D01*
X667324Y-144087D01*
X667397Y-144014D01*
X667406Y-144005D01*
X667415Y-143996D01*
X667433Y-143968D01*
X667461Y-143932D01*
X667488Y-143886D01*
X667524Y-143832D01*
X667561Y-143759D01*
X667597Y-143686D01*
X667634Y-143595D01*
X667661Y-143495D01*
X667698Y-143385D01*
X667725Y-143267D01*
X667752Y-143130D01*
X667770Y-142994D01*
X667789Y-142839D01*
Y-142675D01*
Y-142666D01*
Y-142638D01*
Y-142593D01*
X667780Y-142538D01*
Y-142465D01*
X667770Y-142383D01*
X667743Y-142192D01*
X667698Y-141992D01*
X667625Y-141773D01*
X667524Y-141572D01*
X667470Y-141472D01*
X667397Y-141390D01*
Y-141381D01*
X667379Y-141372D01*
X667324Y-141317D01*
X667242Y-141254D01*
X667133Y-141172D01*
X666996Y-141090D01*
X666832Y-141017D01*
X666650Y-140971D01*
X666550Y-140962D01*
X666440Y-140953D01*
D02*
G37*
G36*
X656638D02*
X656583D01*
X656538Y-140962D01*
X656438Y-140971D01*
X656301Y-141008D01*
X656146Y-141062D01*
X655982Y-141135D01*
X655827Y-141244D01*
X655745Y-141317D01*
X655672Y-141390D01*
Y-141399D01*
X655654Y-141409D01*
X655636Y-141436D01*
X655609Y-141472D01*
X655581Y-141518D01*
X655554Y-141572D01*
X655517Y-141645D01*
X655481Y-141718D01*
X655445Y-141809D01*
X655408Y-141901D01*
X655381Y-142010D01*
X655353Y-142128D01*
X655326Y-142256D01*
X655308Y-142392D01*
X655299Y-142547D01*
X655290Y-142702D01*
Y-142711D01*
Y-142739D01*
Y-142784D01*
X655299Y-142848D01*
Y-142921D01*
X655308Y-143003D01*
X655335Y-143194D01*
X655381Y-143413D01*
X655454Y-143631D01*
X655545Y-143841D01*
X655609Y-143932D01*
X655672Y-144023D01*
X655682D01*
X655691Y-144041D01*
X655745Y-144087D01*
X655827Y-144160D01*
X655937Y-144233D01*
X656073Y-144315D01*
X656237Y-144387D01*
X656428Y-144433D01*
X656529Y-144442D01*
X656638Y-144451D01*
X656693D01*
X656738Y-144442D01*
X656839Y-144424D01*
X656975Y-144397D01*
X657121Y-144342D01*
X657285Y-144269D01*
X657440Y-144160D01*
X657522Y-144087D01*
X657595Y-144014D01*
X657604Y-144005D01*
X657613Y-143996D01*
X657631Y-143968D01*
X657658Y-143932D01*
X657686Y-143886D01*
X657722Y-143832D01*
X657759Y-143759D01*
X657795Y-143686D01*
X657831Y-143595D01*
X657859Y-143495D01*
X657895Y-143385D01*
X657923Y-143267D01*
X657950Y-143130D01*
X657968Y-142994D01*
X657986Y-142839D01*
Y-142675D01*
Y-142666D01*
Y-142638D01*
Y-142593D01*
X657977Y-142538D01*
Y-142465D01*
X657968Y-142383D01*
X657941Y-142192D01*
X657895Y-141992D01*
X657822Y-141773D01*
X657722Y-141572D01*
X657667Y-141472D01*
X657595Y-141390D01*
Y-141381D01*
X657576Y-141372D01*
X657522Y-141317D01*
X657440Y-141254D01*
X657330Y-141172D01*
X657194Y-141090D01*
X657030Y-141017D01*
X656848Y-140971D01*
X656747Y-140962D01*
X656638Y-140953D01*
D02*
G37*
%LPD*%
D11*
X40Y18031D02*
G03*
X11317Y6947I11796J722D01*
G01*
X29279Y2252D02*
G03*
X21524Y6947I-10086J-7908D01*
G01*
X29279Y2252D02*
G03*
X34488Y-72I4950J4095D01*
G01*
X311967Y-72D02*
G03*
X327284Y8149I575J17307D01*
G01*
X348242Y14356D02*
G03*
X361631Y27952I-102J13490D01*
G01*
X339435Y14356D02*
G03*
X327284Y8149I-253J-14503D01*
G01*
X361631Y319610D02*
G03*
X349410Y331905I-12330J-35D01*
G01*
X326575Y341338D02*
G03*
X338899Y331927I13326J4677D01*
G01*
X326575Y341220D02*
G03*
X314725Y349881I-12571J-4763D01*
G01*
X14449D02*
G03*
X45Y335005I609J-15002D01*
G01*
X11317Y6947D02*
X21524D01*
X34488Y-72D02*
X311967Y-72D01*
X339182Y14356D02*
X348242D01*
X361631Y27952D02*
X361631Y319610D01*
X338899Y331927D02*
X349301D01*
X16575Y349881D02*
X314725D01*
X14449D02*
X16575D01*
X40Y18031D02*
Y334880D01*
D13*
X14677Y303661D02*
G03*
X15465Y304449I-0J787D01*
G01*
Y317441D02*
G03*
X14677Y318228I-787J0D01*
G01*
X8378D02*
G03*
X7591Y317441I0J-787D01*
G01*
Y304449D02*
G03*
X8378Y303661I787J0D01*
G01*
Y303661D02*
X14677D01*
X15465Y304449D02*
Y317441D01*
X7591Y304449D02*
Y317441D01*
X8378Y318228D02*
X14677D01*
D19*
X11528Y310945D02*
D03*
D22*
X50783Y133673D02*
D03*
X80783Y143673D02*
D03*
Y123673D02*
D03*
Y206248D02*
D03*
Y226248D02*
D03*
X50783Y216248D02*
D03*
X80783Y291209D02*
D03*
Y311209D02*
D03*
X50783Y301209D02*
D03*
Y48713D02*
D03*
X80783Y58713D02*
D03*
Y38713D02*
D03*
X257842Y58713D02*
D03*
Y38713D02*
D03*
X287842Y48713D02*
D03*
Y133673D02*
D03*
X257842Y123673D02*
D03*
Y143673D02*
D03*
Y206248D02*
D03*
X287842Y216248D02*
D03*
X257842Y311209D02*
D03*
Y291209D02*
D03*
X287842Y301209D02*
D03*
D23*
X9370Y137835D02*
D03*
X19370D02*
D03*
X9370Y127835D02*
D03*
X19370D02*
D03*
X9370Y117835D02*
D03*
X19370D02*
D03*
X9370Y107835D02*
D03*
X19370D02*
D03*
X9370Y97835D02*
D03*
X319590Y49039D02*
D03*
X329591D02*
D03*
X319590Y59039D02*
D03*
X329591D02*
D03*
X319590Y69039D02*
D03*
X329591D02*
D03*
X319590Y79039D02*
D03*
X329591D02*
D03*
X319590Y89039D02*
D03*
X329591D02*
D03*
X319590Y99039D02*
D03*
X329591D02*
D03*
X319590Y109039D02*
D03*
X329591D02*
D03*
X319590Y119039D02*
D03*
X329591D02*
D03*
X319590Y129039D02*
D03*
X329591D02*
D03*
X319590Y139039D02*
D03*
X329591D02*
D03*
X319590Y149039D02*
D03*
X329591D02*
D03*
X319590Y159039D02*
D03*
X329591D02*
D03*
X319590Y169039D02*
D03*
X329591D02*
D03*
X319590Y179039D02*
D03*
X329591D02*
D03*
X319590Y189039D02*
D03*
X329591D02*
D03*
X319590Y199039D02*
D03*
X329591D02*
D03*
X319590Y209039D02*
D03*
X329591D02*
D03*
X319590Y219039D02*
D03*
X329591D02*
D03*
X319590Y229039D02*
D03*
X329591D02*
D03*
X319590Y239039D02*
D03*
X329591D02*
D03*
X319590Y249039D02*
D03*
X329591D02*
D03*
X319590Y259039D02*
D03*
X329591D02*
D03*
X319590Y269039D02*
D03*
X329591D02*
D03*
X319590Y279039D02*
D03*
X329591D02*
D03*
X319590Y289039D02*
D03*
X329591D02*
D03*
X319590Y299039D02*
D03*
X329591D02*
D03*
X339591Y49039D02*
D03*
X349590D02*
D03*
X339591Y59039D02*
D03*
X349590D02*
D03*
X339591Y69039D02*
D03*
X349590D02*
D03*
X339591Y79039D02*
D03*
X349590D02*
D03*
X339591Y89039D02*
D03*
X349590D02*
D03*
X339591Y99039D02*
D03*
X349590D02*
D03*
X339591Y109039D02*
D03*
X349590D02*
D03*
X339591Y119039D02*
D03*
X349590D02*
D03*
X339591Y129039D02*
D03*
X349590D02*
D03*
X339591Y139039D02*
D03*
X349590D02*
D03*
X339591Y149039D02*
D03*
X349590D02*
D03*
X339591Y159039D02*
D03*
X349590D02*
D03*
X339591Y169039D02*
D03*
X349590D02*
D03*
X339591Y179039D02*
D03*
X349590D02*
D03*
X339591Y189039D02*
D03*
X349590D02*
D03*
X339591Y199039D02*
D03*
X349590D02*
D03*
X339591Y209039D02*
D03*
X349590D02*
D03*
X339591Y219039D02*
D03*
X349590D02*
D03*
X339591Y229039D02*
D03*
X349590D02*
D03*
X339591Y239039D02*
D03*
X349590D02*
D03*
X339591Y249039D02*
D03*
X349590D02*
D03*
X339591Y259039D02*
D03*
X349590D02*
D03*
X339591Y269039D02*
D03*
X349590D02*
D03*
X339591Y279039D02*
D03*
X349590D02*
D03*
X339591Y289039D02*
D03*
X349590D02*
D03*
X339591Y299039D02*
D03*
X349590D02*
D03*
X104014Y258799D02*
D03*
X234722D02*
D03*
X104014Y91181D02*
D03*
X234722D02*
D03*
X318787Y324071D02*
D03*
X23417Y203791D02*
D03*
X19370Y54169D02*
D03*
D24*
Y97835D02*
D03*
D25*
X174492Y177980D02*
D03*
X80063Y91181D02*
D03*
Y177980D02*
D03*
Y258799D02*
D03*
X258841Y91193D02*
D03*
Y177980D02*
D03*
Y258374D02*
D03*
X12303Y19209D02*
D03*
Y334268D02*
D03*
X349571Y319126D02*
D03*
X349606Y29051D02*
D03*
D26*
X257842Y226248D02*
D03*
D34*
X208980Y252913D02*
D03*
Y264724D02*
D03*
Y97087D02*
D03*
Y85276D02*
D03*
X59449Y252909D02*
D03*
Y264721D02*
D03*
Y97102D02*
D03*
Y85291D02*
D03*
D35*
X272992Y133673D02*
D03*
X65748D02*
D03*
X272992Y216248D02*
D03*
X65748D02*
D03*
X65748Y301224D02*
D03*
X272992D02*
D03*
X65748Y49264D02*
D03*
X272992D02*
D03*
M02*
