G04*
G04 #@! TF.GenerationSoftware,Altium Limited,Altium Designer,18.1.7 (191)*
G04*
G04 Layer_Color=16711935*
%FSLAX25Y25*%
%MOIN*%
G70*
G01*
G75*
%ADD11C,0.01000*%
G36*
X677463Y-145166D02*
X676744D01*
Y-144592D01*
X676734Y-144601D01*
X676725Y-144619D01*
X676698Y-144656D01*
X676661Y-144701D01*
X676616Y-144747D01*
X676561Y-144801D01*
X676498Y-144865D01*
X676415Y-144929D01*
X676334Y-144993D01*
X676242Y-145057D01*
X676133Y-145111D01*
X676015Y-145157D01*
X675896Y-145202D01*
X675760Y-145239D01*
X675614Y-145257D01*
X675459Y-145266D01*
X675404D01*
X675368Y-145257D01*
X675259Y-145248D01*
X675131Y-145230D01*
X674976Y-145193D01*
X674803Y-145139D01*
X674630Y-145066D01*
X674457Y-144966D01*
X674448D01*
X674439Y-144947D01*
X674384Y-144911D01*
X674302Y-144838D01*
X674202Y-144747D01*
X674083Y-144628D01*
X673965Y-144483D01*
X673846Y-144319D01*
X673746Y-144127D01*
Y-144118D01*
X673737Y-144100D01*
X673728Y-144073D01*
X673710Y-144036D01*
X673692Y-143982D01*
X673664Y-143918D01*
X673646Y-143854D01*
X673628Y-143772D01*
X673582Y-143590D01*
X673537Y-143380D01*
X673509Y-143143D01*
X673500Y-142888D01*
Y-142879D01*
Y-142861D01*
Y-142825D01*
Y-142770D01*
X673509Y-142715D01*
Y-142642D01*
X673528Y-142478D01*
X673555Y-142287D01*
X673600Y-142078D01*
X673655Y-141859D01*
X673728Y-141649D01*
Y-141640D01*
X673737Y-141622D01*
X673755Y-141595D01*
X673774Y-141558D01*
X673828Y-141458D01*
X673901Y-141331D01*
X673992Y-141194D01*
X674111Y-141057D01*
X674247Y-140911D01*
X674411Y-140793D01*
X674420D01*
X674430Y-140784D01*
X674457Y-140766D01*
X674493Y-140748D01*
X674584Y-140702D01*
X674712Y-140638D01*
X674858Y-140584D01*
X675031Y-140538D01*
X675222Y-140502D01*
X675422Y-140492D01*
X675495D01*
X675568Y-140502D01*
X675668Y-140511D01*
X675787Y-140538D01*
X675914Y-140565D01*
X676042Y-140611D01*
X676160Y-140675D01*
X676179Y-140684D01*
X676215Y-140702D01*
X676270Y-140748D01*
X676343Y-140793D01*
X676434Y-140857D01*
X676516Y-140939D01*
X676607Y-141021D01*
X676689Y-141121D01*
Y-138862D01*
X677463D01*
Y-145166D01*
D02*
G37*
G36*
X651254Y-138844D02*
X651372Y-138862D01*
X651518Y-138889D01*
X651682Y-138935D01*
X651846Y-138989D01*
X652010Y-139062D01*
X652019D01*
X652028Y-139071D01*
X652083Y-139099D01*
X652165Y-139153D01*
X652256Y-139217D01*
X652365Y-139308D01*
X652474Y-139408D01*
X652584Y-139527D01*
X652675Y-139664D01*
X652684Y-139682D01*
X652711Y-139727D01*
X652748Y-139809D01*
X652793Y-139909D01*
X652839Y-140028D01*
X652875Y-140164D01*
X652903Y-140319D01*
X652912Y-140474D01*
Y-140492D01*
Y-140547D01*
X652903Y-140620D01*
X652884Y-140720D01*
X652857Y-140839D01*
X652811Y-140966D01*
X652757Y-141094D01*
X652684Y-141221D01*
X652675Y-141240D01*
X652647Y-141276D01*
X652593Y-141340D01*
X652520Y-141413D01*
X652429Y-141495D01*
X652320Y-141586D01*
X652192Y-141668D01*
X652037Y-141750D01*
X652046D01*
X652065Y-141759D01*
X652092Y-141768D01*
X652128Y-141777D01*
X652228Y-141813D01*
X652356Y-141868D01*
X652502Y-141941D01*
X652647Y-142032D01*
X652784Y-142150D01*
X652912Y-142287D01*
X652921Y-142305D01*
X652957Y-142360D01*
X653012Y-142451D01*
X653067Y-142570D01*
X653121Y-142715D01*
X653176Y-142888D01*
X653212Y-143089D01*
X653222Y-143307D01*
Y-143317D01*
Y-143344D01*
Y-143389D01*
X653212Y-143444D01*
X653203Y-143517D01*
X653185Y-143599D01*
X653167Y-143690D01*
X653149Y-143790D01*
X653076Y-144009D01*
X653021Y-144127D01*
X652966Y-144237D01*
X652893Y-144355D01*
X652811Y-144474D01*
X652720Y-144592D01*
X652611Y-144701D01*
X652602Y-144710D01*
X652584Y-144729D01*
X652547Y-144756D01*
X652502Y-144792D01*
X652447Y-144838D01*
X652374Y-144884D01*
X652292Y-144938D01*
X652192Y-144984D01*
X652092Y-145038D01*
X651973Y-145093D01*
X651855Y-145139D01*
X651718Y-145184D01*
X651573Y-145221D01*
X651418Y-145248D01*
X651263Y-145266D01*
X651090Y-145275D01*
X651008D01*
X650953Y-145266D01*
X650880Y-145257D01*
X650798Y-145248D01*
X650707Y-145230D01*
X650607Y-145211D01*
X650388Y-145157D01*
X650161Y-145066D01*
X650042Y-145011D01*
X649933Y-144947D01*
X649823Y-144865D01*
X649714Y-144783D01*
X649705Y-144774D01*
X649687Y-144756D01*
X649659Y-144729D01*
X649632Y-144692D01*
X649587Y-144647D01*
X649541Y-144583D01*
X649486Y-144519D01*
X649432Y-144437D01*
X649377Y-144346D01*
X649322Y-144255D01*
X649222Y-144036D01*
X649140Y-143781D01*
X649113Y-143644D01*
X649095Y-143499D01*
X649869Y-143399D01*
Y-143408D01*
X649878Y-143426D01*
X649887Y-143462D01*
X649896Y-143508D01*
X649905Y-143562D01*
X649924Y-143626D01*
X649969Y-143763D01*
X650033Y-143927D01*
X650115Y-144082D01*
X650206Y-144228D01*
X650315Y-144355D01*
X650334Y-144364D01*
X650370Y-144401D01*
X650443Y-144446D01*
X650534Y-144492D01*
X650643Y-144546D01*
X650780Y-144592D01*
X650935Y-144628D01*
X651099Y-144638D01*
X651154D01*
X651190Y-144628D01*
X651290Y-144619D01*
X651418Y-144592D01*
X651564Y-144546D01*
X651718Y-144483D01*
X651873Y-144392D01*
X652019Y-144264D01*
X652037Y-144246D01*
X652083Y-144191D01*
X652137Y-144109D01*
X652210Y-144000D01*
X652283Y-143863D01*
X652338Y-143708D01*
X652383Y-143526D01*
X652402Y-143326D01*
Y-143317D01*
Y-143298D01*
Y-143271D01*
X652392Y-143235D01*
X652383Y-143134D01*
X652356Y-143016D01*
X652320Y-142870D01*
X652256Y-142724D01*
X652165Y-142579D01*
X652046Y-142442D01*
X652028Y-142424D01*
X651982Y-142387D01*
X651910Y-142333D01*
X651809Y-142269D01*
X651682Y-142205D01*
X651527Y-142150D01*
X651354Y-142114D01*
X651163Y-142096D01*
X651081D01*
X651017Y-142105D01*
X650935Y-142114D01*
X650844Y-142132D01*
X650734Y-142150D01*
X650616Y-142178D01*
X650707Y-141495D01*
X650753D01*
X650789Y-141504D01*
X650908D01*
X651008Y-141486D01*
X651126Y-141467D01*
X651263Y-141440D01*
X651418Y-141394D01*
X651564Y-141331D01*
X651718Y-141249D01*
X651727D01*
X651736Y-141240D01*
X651782Y-141203D01*
X651846Y-141139D01*
X651919Y-141057D01*
X651992Y-140939D01*
X652055Y-140802D01*
X652101Y-140647D01*
X652119Y-140556D01*
Y-140456D01*
Y-140447D01*
Y-140438D01*
Y-140383D01*
X652101Y-140310D01*
X652083Y-140210D01*
X652046Y-140101D01*
X652001Y-139982D01*
X651928Y-139864D01*
X651828Y-139755D01*
X651819Y-139745D01*
X651773Y-139709D01*
X651709Y-139664D01*
X651627Y-139609D01*
X651518Y-139563D01*
X651390Y-139518D01*
X651245Y-139481D01*
X651081Y-139472D01*
X651008D01*
X650926Y-139490D01*
X650816Y-139509D01*
X650698Y-139545D01*
X650580Y-139591D01*
X650452Y-139664D01*
X650334Y-139755D01*
X650324Y-139764D01*
X650288Y-139809D01*
X650233Y-139873D01*
X650170Y-139964D01*
X650106Y-140083D01*
X650042Y-140228D01*
X649987Y-140401D01*
X649951Y-140602D01*
X649177Y-140465D01*
Y-140456D01*
X649186Y-140429D01*
X649195Y-140392D01*
X649204Y-140338D01*
X649222Y-140274D01*
X649250Y-140201D01*
X649304Y-140028D01*
X649395Y-139827D01*
X649505Y-139627D01*
X649641Y-139436D01*
X649814Y-139263D01*
X649823Y-139253D01*
X649842Y-139244D01*
X649869Y-139226D01*
X649905Y-139199D01*
X649951Y-139162D01*
X650015Y-139126D01*
X650078Y-139090D01*
X650161Y-139044D01*
X650343Y-138971D01*
X650552Y-138898D01*
X650798Y-138853D01*
X650926Y-138834D01*
X651154D01*
X651254Y-138844D01*
D02*
G37*
G36*
X680697Y-145239D02*
Y-145248D01*
X680688Y-145275D01*
X680670Y-145312D01*
X680652Y-145357D01*
X680624Y-145421D01*
X680597Y-145494D01*
X680533Y-145649D01*
X680470Y-145822D01*
X680397Y-145995D01*
X680324Y-146150D01*
X680287Y-146214D01*
X680260Y-146277D01*
X680251Y-146295D01*
X680224Y-146341D01*
X680178Y-146405D01*
X680123Y-146487D01*
X680050Y-146578D01*
X679968Y-146669D01*
X679886Y-146760D01*
X679786Y-146833D01*
X679777Y-146842D01*
X679741Y-146860D01*
X679686Y-146888D01*
X679604Y-146924D01*
X679513Y-146961D01*
X679404Y-146988D01*
X679285Y-147006D01*
X679148Y-147015D01*
X679112D01*
X679067Y-147006D01*
X679003D01*
X678930Y-146988D01*
X678848Y-146970D01*
X678757Y-146951D01*
X678657Y-146915D01*
X678575Y-146195D01*
X678584D01*
X678620Y-146204D01*
X678666Y-146214D01*
X678720Y-146232D01*
X678866Y-146259D01*
X679012Y-146268D01*
X679057D01*
X679103Y-146259D01*
X679158D01*
X679294Y-146232D01*
X679358Y-146204D01*
X679422Y-146177D01*
X679431D01*
X679449Y-146159D01*
X679476Y-146141D01*
X679513Y-146113D01*
X679595Y-146040D01*
X679668Y-145940D01*
Y-145931D01*
X679686Y-145913D01*
X679704Y-145877D01*
X679722Y-145822D01*
X679759Y-145749D01*
X679795Y-145640D01*
X679850Y-145512D01*
X679905Y-145357D01*
Y-145348D01*
X679923Y-145312D01*
X679941Y-145248D01*
X679978Y-145166D01*
X678247Y-140593D01*
X679067D01*
X680023Y-143244D01*
Y-143253D01*
X680032Y-143262D01*
X680041Y-143289D01*
X680050Y-143335D01*
X680069Y-143380D01*
X680087Y-143435D01*
X680132Y-143562D01*
X680187Y-143717D01*
X680242Y-143900D01*
X680296Y-144091D01*
X680351Y-144300D01*
Y-144291D01*
X680360Y-144273D01*
X680369Y-144246D01*
X680378Y-144209D01*
X680387Y-144164D01*
X680406Y-144109D01*
X680442Y-143973D01*
X680488Y-143818D01*
X680551Y-143635D01*
X680606Y-143453D01*
X680679Y-143262D01*
X681663Y-140593D01*
X682437D01*
X680697Y-145239D01*
D02*
G37*
G36*
X665620Y-138871D02*
X665693D01*
X665857Y-138889D01*
X666039Y-138907D01*
X666231Y-138944D01*
X666422Y-138989D01*
X666595Y-139053D01*
X666604D01*
X666613Y-139062D01*
X666668Y-139090D01*
X666750Y-139135D01*
X666841Y-139199D01*
X666950Y-139281D01*
X667069Y-139381D01*
X667178Y-139509D01*
X667278Y-139645D01*
X667287Y-139664D01*
X667315Y-139718D01*
X667360Y-139791D01*
X667406Y-139900D01*
X667451Y-140028D01*
X667497Y-140164D01*
X667524Y-140319D01*
X667533Y-140474D01*
Y-140492D01*
Y-140538D01*
X667524Y-140620D01*
X667506Y-140720D01*
X667479Y-140839D01*
X667433Y-140966D01*
X667378Y-141094D01*
X667306Y-141230D01*
X667296Y-141249D01*
X667269Y-141285D01*
X667214Y-141358D01*
X667142Y-141431D01*
X667051Y-141522D01*
X666941Y-141622D01*
X666805Y-141713D01*
X666650Y-141804D01*
X666659D01*
X666677Y-141813D01*
X666704Y-141823D01*
X666741Y-141841D01*
X666850Y-141877D01*
X666978Y-141941D01*
X667114Y-142023D01*
X667269Y-142123D01*
X667406Y-142242D01*
X667533Y-142387D01*
X667542Y-142406D01*
X667579Y-142460D01*
X667633Y-142542D01*
X667688Y-142651D01*
X667743Y-142797D01*
X667798Y-142952D01*
X667834Y-143134D01*
X667843Y-143335D01*
Y-143344D01*
Y-143353D01*
Y-143408D01*
X667834Y-143499D01*
X667816Y-143608D01*
X667798Y-143736D01*
X667761Y-143872D01*
X667716Y-144018D01*
X667652Y-144164D01*
X667643Y-144182D01*
X667615Y-144228D01*
X667579Y-144291D01*
X667524Y-144382D01*
X667451Y-144474D01*
X667378Y-144574D01*
X667287Y-144674D01*
X667187Y-144756D01*
X667178Y-144765D01*
X667142Y-144792D01*
X667078Y-144829D01*
X666996Y-144865D01*
X666896Y-144920D01*
X666777Y-144975D01*
X666650Y-145020D01*
X666495Y-145066D01*
X666476D01*
X666422Y-145084D01*
X666331Y-145093D01*
X666212Y-145111D01*
X666067Y-145130D01*
X665894Y-145148D01*
X665702Y-145157D01*
X665484Y-145166D01*
X663078D01*
Y-138862D01*
X665556D01*
X665620Y-138871D01*
D02*
G37*
G36*
X656893D02*
X657075Y-138880D01*
X657257Y-138898D01*
X657439Y-138926D01*
X657594Y-138953D01*
X657603D01*
X657622Y-138962D01*
X657649D01*
X657685Y-138980D01*
X657786Y-139007D01*
X657913Y-139053D01*
X658059Y-139117D01*
X658214Y-139199D01*
X658369Y-139290D01*
X658514Y-139408D01*
X658524Y-139418D01*
X658533Y-139427D01*
X658560Y-139454D01*
X658596Y-139481D01*
X658687Y-139572D01*
X658797Y-139700D01*
X658915Y-139855D01*
X659043Y-140037D01*
X659161Y-140246D01*
X659261Y-140483D01*
Y-140492D01*
X659270Y-140511D01*
X659289Y-140547D01*
X659298Y-140602D01*
X659325Y-140666D01*
X659343Y-140738D01*
X659362Y-140820D01*
X659389Y-140921D01*
X659416Y-141021D01*
X659435Y-141139D01*
X659480Y-141394D01*
X659507Y-141677D01*
X659516Y-141987D01*
Y-141996D01*
Y-142014D01*
Y-142059D01*
Y-142105D01*
X659507Y-142169D01*
Y-142242D01*
X659498Y-142415D01*
X659471Y-142615D01*
X659444Y-142825D01*
X659398Y-143043D01*
X659343Y-143262D01*
Y-143271D01*
X659334Y-143289D01*
X659325Y-143317D01*
X659316Y-143353D01*
X659280Y-143453D01*
X659225Y-143581D01*
X659170Y-143727D01*
X659097Y-143872D01*
X659006Y-144027D01*
X658915Y-144173D01*
X658906Y-144191D01*
X658870Y-144237D01*
X658815Y-144300D01*
X658742Y-144382D01*
X658660Y-144474D01*
X658560Y-144565D01*
X658460Y-144665D01*
X658341Y-144747D01*
X658323Y-144756D01*
X658287Y-144783D01*
X658223Y-144820D01*
X658132Y-144865D01*
X658022Y-144920D01*
X657895Y-144966D01*
X657749Y-145020D01*
X657585Y-145066D01*
X657567D01*
X657540Y-145075D01*
X657512Y-145084D01*
X657421Y-145093D01*
X657294Y-145111D01*
X657148Y-145130D01*
X656975Y-145148D01*
X656783Y-145157D01*
X656574Y-145166D01*
X654306D01*
Y-138862D01*
X656729D01*
X656893Y-138871D01*
D02*
G37*
G36*
X670895Y-140502D02*
X670977Y-140511D01*
X671068Y-140529D01*
X671168Y-140547D01*
X671287Y-140565D01*
X671533Y-140647D01*
X671660Y-140693D01*
X671788Y-140757D01*
X671915Y-140820D01*
X672043Y-140911D01*
X672161Y-141003D01*
X672280Y-141112D01*
X672289Y-141121D01*
X672307Y-141139D01*
X672334Y-141176D01*
X672371Y-141221D01*
X672416Y-141285D01*
X672471Y-141367D01*
X672526Y-141458D01*
X672580Y-141558D01*
X672635Y-141668D01*
X672689Y-141804D01*
X672744Y-141941D01*
X672790Y-142096D01*
X672826Y-142260D01*
X672854Y-142433D01*
X672872Y-142615D01*
X672881Y-142815D01*
Y-142825D01*
Y-142852D01*
Y-142897D01*
Y-142961D01*
X672872Y-143034D01*
X672863Y-143125D01*
Y-143216D01*
X672844Y-143317D01*
X672817Y-143544D01*
X672762Y-143772D01*
X672699Y-144000D01*
X672608Y-144209D01*
Y-144219D01*
X672598Y-144228D01*
X672580Y-144255D01*
X672562Y-144291D01*
X672498Y-144382D01*
X672416Y-144492D01*
X672307Y-144619D01*
X672170Y-144747D01*
X672015Y-144874D01*
X671833Y-144993D01*
X671824D01*
X671815Y-145002D01*
X671788Y-145020D01*
X671742Y-145038D01*
X671697Y-145057D01*
X671642Y-145075D01*
X671505Y-145130D01*
X671350Y-145175D01*
X671159Y-145221D01*
X670959Y-145257D01*
X670740Y-145266D01*
X670649D01*
X670576Y-145257D01*
X670494Y-145248D01*
X670403Y-145230D01*
X670294Y-145211D01*
X670184Y-145193D01*
X669938Y-145120D01*
X669802Y-145066D01*
X669674Y-145011D01*
X669547Y-144938D01*
X669419Y-144856D01*
X669301Y-144765D01*
X669182Y-144656D01*
X669173Y-144647D01*
X669155Y-144628D01*
X669128Y-144592D01*
X669091Y-144537D01*
X669045Y-144474D01*
X669000Y-144401D01*
X668945Y-144310D01*
X668891Y-144200D01*
X668836Y-144082D01*
X668781Y-143945D01*
X668736Y-143799D01*
X668690Y-143644D01*
X668654Y-143471D01*
X668626Y-143289D01*
X668608Y-143089D01*
X668599Y-142879D01*
Y-142861D01*
Y-142825D01*
X668608Y-142761D01*
Y-142670D01*
X668617Y-142570D01*
X668636Y-142442D01*
X668654Y-142315D01*
X668690Y-142169D01*
X668727Y-142023D01*
X668772Y-141868D01*
X668827Y-141704D01*
X668900Y-141549D01*
X668973Y-141403D01*
X669073Y-141258D01*
X669173Y-141121D01*
X669301Y-141003D01*
X669310Y-140993D01*
X669328Y-140984D01*
X669364Y-140957D01*
X669410Y-140921D01*
X669465Y-140884D01*
X669537Y-140839D01*
X669610Y-140793D01*
X669701Y-140748D01*
X669802Y-140702D01*
X669911Y-140656D01*
X670157Y-140575D01*
X670439Y-140511D01*
X670585Y-140502D01*
X670740Y-140492D01*
X670831D01*
X670895Y-140502D01*
D02*
G37*
%LPC*%
G36*
X675504Y-141130D02*
X675459D01*
X675422Y-141139D01*
X675322Y-141148D01*
X675204Y-141185D01*
X675067Y-141230D01*
X674922Y-141312D01*
X674776Y-141413D01*
X674703Y-141486D01*
X674639Y-141558D01*
Y-141568D01*
X674621Y-141577D01*
X674612Y-141604D01*
X674584Y-141640D01*
X674557Y-141686D01*
X674530Y-141741D01*
X674502Y-141804D01*
X674466Y-141877D01*
X674430Y-141968D01*
X674402Y-142069D01*
X674375Y-142178D01*
X674348Y-142296D01*
X674329Y-142424D01*
X674311Y-142570D01*
X674293Y-142724D01*
Y-142888D01*
Y-142897D01*
Y-142925D01*
Y-142970D01*
X674302Y-143034D01*
Y-143107D01*
X674311Y-143189D01*
X674338Y-143380D01*
X674384Y-143590D01*
X674448Y-143808D01*
X674539Y-144018D01*
X674593Y-144109D01*
X674657Y-144200D01*
X674666D01*
X674676Y-144219D01*
X674721Y-144264D01*
X674803Y-144337D01*
X674903Y-144410D01*
X675031Y-144492D01*
X675186Y-144565D01*
X675350Y-144610D01*
X675441Y-144619D01*
X675532Y-144628D01*
X675577D01*
X675614Y-144619D01*
X675714Y-144610D01*
X675833Y-144574D01*
X675969Y-144528D01*
X676115Y-144455D01*
X676261Y-144355D01*
X676334Y-144291D01*
X676397Y-144219D01*
Y-144209D01*
X676415Y-144200D01*
X676434Y-144173D01*
X676452Y-144137D01*
X676479Y-144091D01*
X676516Y-144045D01*
X676543Y-143973D01*
X676580Y-143900D01*
X676616Y-143818D01*
X676643Y-143727D01*
X676680Y-143617D01*
X676707Y-143508D01*
X676725Y-143380D01*
X676744Y-143253D01*
X676762Y-143107D01*
Y-142952D01*
Y-142943D01*
Y-142907D01*
Y-142861D01*
X676753Y-142797D01*
Y-142724D01*
X676744Y-142633D01*
X676734Y-142533D01*
X676716Y-142424D01*
X676671Y-142205D01*
X676607Y-141977D01*
X676516Y-141759D01*
X676461Y-141668D01*
X676397Y-141577D01*
Y-141568D01*
X676379Y-141558D01*
X676334Y-141504D01*
X676252Y-141431D01*
X676151Y-141349D01*
X676024Y-141267D01*
X675869Y-141203D01*
X675696Y-141148D01*
X675605Y-141139D01*
X675504Y-141130D01*
D02*
G37*
G36*
X665411Y-139609D02*
X663917D01*
Y-141504D01*
X665465D01*
X665584Y-141495D01*
X665711Y-141486D01*
X665839Y-141476D01*
X665966Y-141458D01*
X666067Y-141440D01*
X666085Y-141431D01*
X666121Y-141422D01*
X666176Y-141394D01*
X666249Y-141358D01*
X666322Y-141322D01*
X666404Y-141267D01*
X666486Y-141194D01*
X666549Y-141121D01*
X666559Y-141112D01*
X666577Y-141085D01*
X666604Y-141030D01*
X666631Y-140966D01*
X666659Y-140893D01*
X666686Y-140802D01*
X666704Y-140693D01*
X666713Y-140575D01*
Y-140556D01*
Y-140520D01*
X666704Y-140465D01*
X666695Y-140392D01*
X666677Y-140301D01*
X666650Y-140210D01*
X666613Y-140119D01*
X666559Y-140028D01*
X666549Y-140019D01*
X666531Y-139991D01*
X666495Y-139946D01*
X666449Y-139900D01*
X666385Y-139846D01*
X666313Y-139791D01*
X666221Y-139736D01*
X666121Y-139700D01*
X666112D01*
X666067Y-139682D01*
X666003Y-139673D01*
X665903Y-139654D01*
X665766Y-139636D01*
X665611Y-139627D01*
X665411Y-139609D01*
D02*
G37*
G36*
X665575Y-142251D02*
X663917D01*
Y-144419D01*
X665711D01*
X665903Y-144410D01*
X665985Y-144401D01*
X666057Y-144392D01*
X666067D01*
X666103Y-144382D01*
X666158Y-144373D01*
X666221Y-144355D01*
X666376Y-144300D01*
X666531Y-144228D01*
X666540Y-144219D01*
X666568Y-144200D01*
X666604Y-144173D01*
X666650Y-144137D01*
X666695Y-144082D01*
X666759Y-144027D01*
X666805Y-143954D01*
X666859Y-143872D01*
X666868Y-143863D01*
X666877Y-143836D01*
X666896Y-143781D01*
X666923Y-143717D01*
X666950Y-143644D01*
X666968Y-143553D01*
X666978Y-143444D01*
X666987Y-143335D01*
Y-143317D01*
Y-143280D01*
X666978Y-143207D01*
X666959Y-143125D01*
X666941Y-143034D01*
X666905Y-142934D01*
X666859Y-142834D01*
X666795Y-142734D01*
X666786Y-142724D01*
X666759Y-142688D01*
X666722Y-142642D01*
X666668Y-142588D01*
X666595Y-142524D01*
X666504Y-142460D01*
X666404Y-142406D01*
X666285Y-142360D01*
X666267Y-142351D01*
X666231Y-142342D01*
X666149Y-142324D01*
X666048Y-142305D01*
X665921Y-142287D01*
X665766Y-142269D01*
X665575Y-142251D01*
D02*
G37*
G36*
X656601Y-139609D02*
X655144D01*
Y-144419D01*
X656638D01*
X656702Y-144410D01*
X656838Y-144401D01*
X656993Y-144392D01*
X657157Y-144373D01*
X657321Y-144346D01*
X657458Y-144310D01*
X657476Y-144300D01*
X657521Y-144291D01*
X657585Y-144264D01*
X657667Y-144228D01*
X657758Y-144173D01*
X657849Y-144118D01*
X657940Y-144054D01*
X658032Y-143982D01*
X658041Y-143963D01*
X658077Y-143927D01*
X658132Y-143863D01*
X658195Y-143772D01*
X658268Y-143654D01*
X658350Y-143517D01*
X658423Y-143362D01*
X658487Y-143189D01*
Y-143180D01*
X658496Y-143162D01*
X658505Y-143134D01*
X658514Y-143098D01*
X658524Y-143052D01*
X658542Y-142989D01*
X658560Y-142925D01*
X658578Y-142852D01*
X658605Y-142670D01*
X658633Y-142460D01*
X658651Y-142223D01*
X658660Y-141968D01*
Y-141959D01*
Y-141923D01*
Y-141877D01*
X658651Y-141804D01*
Y-141722D01*
X658642Y-141631D01*
X658633Y-141522D01*
X658624Y-141413D01*
X658578Y-141167D01*
X658524Y-140911D01*
X658441Y-140675D01*
X658387Y-140556D01*
X658332Y-140456D01*
Y-140447D01*
X658314Y-140429D01*
X658296Y-140401D01*
X658278Y-140365D01*
X658205Y-140274D01*
X658113Y-140164D01*
X657995Y-140046D01*
X657859Y-139928D01*
X657704Y-139827D01*
X657540Y-139745D01*
X657521Y-139736D01*
X657476Y-139727D01*
X657394Y-139700D01*
X657275Y-139673D01*
X657130Y-139654D01*
X656948Y-139627D01*
X656838Y-139618D01*
X656720D01*
X656601Y-139609D01*
D02*
G37*
G36*
X670740Y-141130D02*
X670685D01*
X670640Y-141139D01*
X670540Y-141148D01*
X670403Y-141185D01*
X670248Y-141240D01*
X670084Y-141312D01*
X669929Y-141422D01*
X669847Y-141495D01*
X669774Y-141568D01*
Y-141577D01*
X669756Y-141586D01*
X669738Y-141613D01*
X669711Y-141649D01*
X669683Y-141695D01*
X669656Y-141750D01*
X669620Y-141823D01*
X669583Y-141895D01*
X669547Y-141987D01*
X669510Y-142078D01*
X669483Y-142187D01*
X669455Y-142305D01*
X669428Y-142433D01*
X669410Y-142570D01*
X669401Y-142724D01*
X669392Y-142879D01*
Y-142888D01*
Y-142916D01*
Y-142961D01*
X669401Y-143025D01*
Y-143098D01*
X669410Y-143180D01*
X669437Y-143371D01*
X669483Y-143590D01*
X669556Y-143808D01*
X669647Y-144018D01*
X669711Y-144109D01*
X669774Y-144200D01*
X669783D01*
X669793Y-144219D01*
X669847Y-144264D01*
X669929Y-144337D01*
X670039Y-144410D01*
X670175Y-144492D01*
X670339Y-144565D01*
X670531Y-144610D01*
X670631Y-144619D01*
X670740Y-144628D01*
X670795D01*
X670840Y-144619D01*
X670940Y-144601D01*
X671077Y-144574D01*
X671223Y-144519D01*
X671387Y-144446D01*
X671542Y-144337D01*
X671624Y-144264D01*
X671697Y-144191D01*
X671706Y-144182D01*
X671715Y-144173D01*
X671733Y-144146D01*
X671760Y-144109D01*
X671788Y-144064D01*
X671824Y-144009D01*
X671861Y-143936D01*
X671897Y-143863D01*
X671933Y-143772D01*
X671961Y-143672D01*
X671997Y-143562D01*
X672024Y-143444D01*
X672052Y-143307D01*
X672070Y-143171D01*
X672088Y-143016D01*
Y-142852D01*
Y-142843D01*
Y-142815D01*
Y-142770D01*
X672079Y-142715D01*
Y-142642D01*
X672070Y-142560D01*
X672043Y-142369D01*
X671997Y-142169D01*
X671924Y-141950D01*
X671824Y-141750D01*
X671769Y-141649D01*
X671697Y-141568D01*
Y-141558D01*
X671678Y-141549D01*
X671624Y-141495D01*
X671542Y-141431D01*
X671432Y-141349D01*
X671296Y-141267D01*
X671132Y-141194D01*
X670950Y-141148D01*
X670849Y-141139D01*
X670740Y-141130D01*
D02*
G37*
%LPD*%
D11*
X40Y18031D02*
G03*
X11317Y6947I11796J722D01*
G01*
X29279Y2252D02*
G03*
X21524Y6947I-10086J-7908D01*
G01*
X29279Y2252D02*
G03*
X34488Y-72I4950J4095D01*
G01*
X311967Y-72D02*
G03*
X327284Y8149I575J17307D01*
G01*
X348242Y14356D02*
G03*
X361631Y27952I-102J13490D01*
G01*
X339435Y14356D02*
G03*
X327284Y8149I-253J-14503D01*
G01*
X361631Y319610D02*
G03*
X349410Y331905I-12330J-35D01*
G01*
X326575Y341338D02*
G03*
X338899Y331927I13326J4677D01*
G01*
X326575Y341220D02*
G03*
X314725Y349881I-12571J-4763D01*
G01*
X14449D02*
G03*
X45Y335005I609J-15002D01*
G01*
X11317Y6947D02*
X21524D01*
X34488Y-72D02*
X311967Y-72D01*
X339182Y14356D02*
X348242D01*
X361631Y27952D02*
X361631Y319610D01*
X338899Y331927D02*
X349301D01*
X16575Y349881D02*
X314725D01*
X14449D02*
X16575D01*
X40Y18031D02*
Y334880D01*
M02*
