G04*
G04 #@! TF.GenerationSoftware,Altium Limited,Altium Designer,18.1.7 (191)*
G04*
G04 Layer_Color=16711935*
%FSLAX25Y25*%
%MOIN*%
G70*
G01*
G75*
%ADD11C,0.01000*%
G36*
X676916Y-145717D02*
X676196D01*
Y-145143D01*
X676187Y-145152D01*
X676178Y-145170D01*
X676151Y-145207D01*
X676114Y-145253D01*
X676069Y-145298D01*
X676014Y-145353D01*
X675950Y-145416D01*
X675868Y-145480D01*
X675786Y-145544D01*
X675695Y-145608D01*
X675586Y-145662D01*
X675467Y-145708D01*
X675349Y-145754D01*
X675212Y-145790D01*
X675067Y-145808D01*
X674912Y-145817D01*
X674857D01*
X674821Y-145808D01*
X674711Y-145799D01*
X674584Y-145781D01*
X674429Y-145744D01*
X674256Y-145690D01*
X674083Y-145617D01*
X673910Y-145517D01*
X673901D01*
X673891Y-145498D01*
X673837Y-145462D01*
X673755Y-145389D01*
X673655Y-145298D01*
X673536Y-145180D01*
X673418Y-145034D01*
X673299Y-144870D01*
X673199Y-144678D01*
Y-144669D01*
X673190Y-144651D01*
X673181Y-144624D01*
X673163Y-144587D01*
X673144Y-144533D01*
X673117Y-144469D01*
X673099Y-144405D01*
X673081Y-144323D01*
X673035Y-144141D01*
X672990Y-143931D01*
X672962Y-143695D01*
X672953Y-143440D01*
Y-143430D01*
Y-143412D01*
Y-143376D01*
Y-143321D01*
X672962Y-143266D01*
Y-143194D01*
X672980Y-143030D01*
X673008Y-142838D01*
X673053Y-142629D01*
X673108Y-142410D01*
X673181Y-142201D01*
Y-142192D01*
X673190Y-142173D01*
X673208Y-142146D01*
X673226Y-142110D01*
X673281Y-142009D01*
X673354Y-141882D01*
X673445Y-141745D01*
X673563Y-141609D01*
X673700Y-141463D01*
X673864Y-141344D01*
X673873D01*
X673882Y-141335D01*
X673910Y-141317D01*
X673946Y-141299D01*
X674037Y-141253D01*
X674165Y-141189D01*
X674310Y-141135D01*
X674484Y-141089D01*
X674675Y-141053D01*
X674875Y-141044D01*
X674948D01*
X675021Y-141053D01*
X675121Y-141062D01*
X675240Y-141089D01*
X675367Y-141116D01*
X675495Y-141162D01*
X675613Y-141226D01*
X675631Y-141235D01*
X675668Y-141253D01*
X675723Y-141299D01*
X675795Y-141344D01*
X675886Y-141408D01*
X675969Y-141490D01*
X676060Y-141572D01*
X676142Y-141672D01*
Y-139413D01*
X676916D01*
Y-145717D01*
D02*
G37*
G36*
X650706Y-139395D02*
X650825Y-139413D01*
X650971Y-139440D01*
X651135Y-139486D01*
X651299Y-139541D01*
X651463Y-139613D01*
X651472D01*
X651481Y-139622D01*
X651536Y-139650D01*
X651617Y-139705D01*
X651709Y-139768D01*
X651818Y-139859D01*
X651927Y-139960D01*
X652037Y-140078D01*
X652128Y-140215D01*
X652137Y-140233D01*
X652164Y-140278D01*
X652201Y-140360D01*
X652246Y-140461D01*
X652292Y-140579D01*
X652328Y-140716D01*
X652355Y-140871D01*
X652364Y-141025D01*
Y-141044D01*
Y-141098D01*
X652355Y-141171D01*
X652337Y-141271D01*
X652310Y-141390D01*
X652264Y-141517D01*
X652210Y-141645D01*
X652137Y-141772D01*
X652128Y-141791D01*
X652100Y-141827D01*
X652046Y-141891D01*
X651973Y-141964D01*
X651882Y-142046D01*
X651772Y-142137D01*
X651645Y-142219D01*
X651490Y-142301D01*
X651499D01*
X651517Y-142310D01*
X651545Y-142319D01*
X651581Y-142328D01*
X651681Y-142365D01*
X651809Y-142419D01*
X651955Y-142492D01*
X652100Y-142583D01*
X652237Y-142702D01*
X652364Y-142838D01*
X652374Y-142857D01*
X652410Y-142911D01*
X652465Y-143002D01*
X652519Y-143121D01*
X652574Y-143266D01*
X652629Y-143440D01*
X652665Y-143640D01*
X652674Y-143859D01*
Y-143868D01*
Y-143895D01*
Y-143941D01*
X652665Y-143995D01*
X652656Y-144068D01*
X652638Y-144150D01*
X652620Y-144241D01*
X652601Y-144342D01*
X652528Y-144560D01*
X652474Y-144678D01*
X652419Y-144788D01*
X652346Y-144906D01*
X652264Y-145025D01*
X652173Y-145143D01*
X652064Y-145253D01*
X652055Y-145262D01*
X652037Y-145280D01*
X652000Y-145307D01*
X651955Y-145344D01*
X651900Y-145389D01*
X651827Y-145435D01*
X651745Y-145489D01*
X651645Y-145535D01*
X651545Y-145589D01*
X651426Y-145644D01*
X651308Y-145690D01*
X651171Y-145735D01*
X651025Y-145772D01*
X650870Y-145799D01*
X650716Y-145817D01*
X650542Y-145826D01*
X650460D01*
X650406Y-145817D01*
X650333Y-145808D01*
X650251Y-145799D01*
X650160Y-145781D01*
X650060Y-145763D01*
X649841Y-145708D01*
X649613Y-145617D01*
X649495Y-145562D01*
X649385Y-145498D01*
X649276Y-145416D01*
X649167Y-145334D01*
X649158Y-145325D01*
X649139Y-145307D01*
X649112Y-145280D01*
X649085Y-145243D01*
X649039Y-145198D01*
X648994Y-145134D01*
X648939Y-145070D01*
X648884Y-144988D01*
X648830Y-144897D01*
X648775Y-144806D01*
X648675Y-144587D01*
X648593Y-144332D01*
X648566Y-144196D01*
X648547Y-144050D01*
X649322Y-143950D01*
Y-143959D01*
X649331Y-143977D01*
X649340Y-144014D01*
X649349Y-144059D01*
X649358Y-144114D01*
X649376Y-144177D01*
X649422Y-144314D01*
X649486Y-144478D01*
X649568Y-144633D01*
X649659Y-144779D01*
X649768Y-144906D01*
X649786Y-144915D01*
X649823Y-144952D01*
X649896Y-144997D01*
X649987Y-145043D01*
X650096Y-145098D01*
X650233Y-145143D01*
X650388Y-145180D01*
X650552Y-145189D01*
X650606D01*
X650643Y-145180D01*
X650743Y-145170D01*
X650870Y-145143D01*
X651016Y-145098D01*
X651171Y-145034D01*
X651326Y-144943D01*
X651472Y-144815D01*
X651490Y-144797D01*
X651536Y-144742D01*
X651590Y-144660D01*
X651663Y-144551D01*
X651736Y-144414D01*
X651791Y-144260D01*
X651836Y-144077D01*
X651854Y-143877D01*
Y-143868D01*
Y-143850D01*
Y-143822D01*
X651845Y-143786D01*
X651836Y-143685D01*
X651809Y-143567D01*
X651772Y-143421D01*
X651709Y-143276D01*
X651617Y-143130D01*
X651499Y-142993D01*
X651481Y-142975D01*
X651435Y-142938D01*
X651362Y-142884D01*
X651262Y-142820D01*
X651135Y-142756D01*
X650980Y-142702D01*
X650807Y-142665D01*
X650615Y-142647D01*
X650533D01*
X650470Y-142656D01*
X650388Y-142665D01*
X650296Y-142683D01*
X650187Y-142702D01*
X650069Y-142729D01*
X650160Y-142046D01*
X650205D01*
X650242Y-142055D01*
X650360D01*
X650460Y-142037D01*
X650579Y-142018D01*
X650716Y-141991D01*
X650870Y-141946D01*
X651016Y-141882D01*
X651171Y-141800D01*
X651180D01*
X651189Y-141791D01*
X651235Y-141754D01*
X651299Y-141691D01*
X651371Y-141609D01*
X651444Y-141490D01*
X651508Y-141353D01*
X651554Y-141199D01*
X651572Y-141107D01*
Y-141007D01*
Y-140998D01*
Y-140989D01*
Y-140934D01*
X651554Y-140861D01*
X651536Y-140761D01*
X651499Y-140652D01*
X651453Y-140533D01*
X651381Y-140415D01*
X651280Y-140306D01*
X651271Y-140297D01*
X651226Y-140260D01*
X651162Y-140215D01*
X651080Y-140160D01*
X650971Y-140114D01*
X650843Y-140069D01*
X650697Y-140032D01*
X650533Y-140023D01*
X650460D01*
X650379Y-140042D01*
X650269Y-140060D01*
X650151Y-140096D01*
X650032Y-140142D01*
X649905Y-140215D01*
X649786Y-140306D01*
X649777Y-140315D01*
X649741Y-140360D01*
X649686Y-140424D01*
X649622Y-140515D01*
X649559Y-140634D01*
X649495Y-140779D01*
X649440Y-140953D01*
X649404Y-141153D01*
X648629Y-141016D01*
Y-141007D01*
X648638Y-140980D01*
X648648Y-140943D01*
X648657Y-140889D01*
X648675Y-140825D01*
X648702Y-140752D01*
X648757Y-140579D01*
X648848Y-140379D01*
X648957Y-140178D01*
X649094Y-139987D01*
X649267Y-139814D01*
X649276Y-139805D01*
X649294Y-139796D01*
X649322Y-139777D01*
X649358Y-139750D01*
X649404Y-139714D01*
X649468Y-139677D01*
X649531Y-139641D01*
X649613Y-139595D01*
X649795Y-139522D01*
X650005Y-139449D01*
X650251Y-139404D01*
X650379Y-139386D01*
X650606D01*
X650706Y-139395D01*
D02*
G37*
G36*
X680150Y-145790D02*
Y-145799D01*
X680141Y-145826D01*
X680123Y-145863D01*
X680104Y-145908D01*
X680077Y-145972D01*
X680050Y-146045D01*
X679986Y-146200D01*
X679922Y-146373D01*
X679849Y-146546D01*
X679776Y-146701D01*
X679740Y-146765D01*
X679713Y-146828D01*
X679704Y-146847D01*
X679676Y-146892D01*
X679631Y-146956D01*
X679576Y-147038D01*
X679503Y-147129D01*
X679421Y-147220D01*
X679339Y-147311D01*
X679239Y-147384D01*
X679230Y-147393D01*
X679193Y-147412D01*
X679139Y-147439D01*
X679057Y-147475D01*
X678966Y-147512D01*
X678856Y-147539D01*
X678738Y-147557D01*
X678601Y-147566D01*
X678565D01*
X678519Y-147557D01*
X678455D01*
X678383Y-147539D01*
X678301Y-147521D01*
X678210Y-147503D01*
X678109Y-147466D01*
X678027Y-146747D01*
X678036D01*
X678073Y-146756D01*
X678119Y-146765D01*
X678173Y-146783D01*
X678319Y-146810D01*
X678465Y-146819D01*
X678510D01*
X678556Y-146810D01*
X678610D01*
X678747Y-146783D01*
X678811Y-146756D01*
X678875Y-146728D01*
X678884D01*
X678902Y-146710D01*
X678929Y-146692D01*
X678966Y-146665D01*
X679048Y-146592D01*
X679121Y-146491D01*
Y-146482D01*
X679139Y-146464D01*
X679157Y-146428D01*
X679175Y-146373D01*
X679212Y-146300D01*
X679248Y-146191D01*
X679303Y-146063D01*
X679357Y-145908D01*
Y-145899D01*
X679376Y-145863D01*
X679394Y-145799D01*
X679430Y-145717D01*
X677699Y-141144D01*
X678519D01*
X679476Y-143795D01*
Y-143804D01*
X679485Y-143813D01*
X679494Y-143840D01*
X679503Y-143886D01*
X679521Y-143931D01*
X679540Y-143986D01*
X679585Y-144114D01*
X679640Y-144269D01*
X679695Y-144451D01*
X679749Y-144642D01*
X679804Y-144852D01*
Y-144843D01*
X679813Y-144824D01*
X679822Y-144797D01*
X679831Y-144761D01*
X679840Y-144715D01*
X679858Y-144660D01*
X679895Y-144524D01*
X679940Y-144369D01*
X680004Y-144187D01*
X680059Y-144004D01*
X680132Y-143813D01*
X681116Y-141144D01*
X681890D01*
X680150Y-145790D01*
D02*
G37*
G36*
X665073Y-139422D02*
X665146D01*
X665310Y-139440D01*
X665492Y-139459D01*
X665683Y-139495D01*
X665875Y-139541D01*
X666048Y-139604D01*
X666057D01*
X666066Y-139613D01*
X666121Y-139641D01*
X666203Y-139686D01*
X666294Y-139750D01*
X666403Y-139832D01*
X666521Y-139932D01*
X666631Y-140060D01*
X666731Y-140196D01*
X666740Y-140215D01*
X666767Y-140269D01*
X666813Y-140342D01*
X666858Y-140452D01*
X666904Y-140579D01*
X666950Y-140716D01*
X666977Y-140871D01*
X666986Y-141025D01*
Y-141044D01*
Y-141089D01*
X666977Y-141171D01*
X666959Y-141271D01*
X666931Y-141390D01*
X666886Y-141517D01*
X666831Y-141645D01*
X666758Y-141782D01*
X666749Y-141800D01*
X666722Y-141836D01*
X666667Y-141909D01*
X666594Y-141982D01*
X666503Y-142073D01*
X666394Y-142173D01*
X666257Y-142264D01*
X666102Y-142356D01*
X666112D01*
X666130Y-142365D01*
X666157Y-142374D01*
X666193Y-142392D01*
X666303Y-142428D01*
X666430Y-142492D01*
X666567Y-142574D01*
X666722Y-142674D01*
X666858Y-142793D01*
X666986Y-142938D01*
X666995Y-142957D01*
X667032Y-143011D01*
X667086Y-143093D01*
X667141Y-143203D01*
X667196Y-143349D01*
X667250Y-143503D01*
X667287Y-143685D01*
X667296Y-143886D01*
Y-143895D01*
Y-143904D01*
Y-143959D01*
X667287Y-144050D01*
X667268Y-144159D01*
X667250Y-144287D01*
X667214Y-144423D01*
X667168Y-144569D01*
X667104Y-144715D01*
X667095Y-144733D01*
X667068Y-144779D01*
X667032Y-144843D01*
X666977Y-144934D01*
X666904Y-145025D01*
X666831Y-145125D01*
X666740Y-145225D01*
X666640Y-145307D01*
X666631Y-145316D01*
X666594Y-145344D01*
X666531Y-145380D01*
X666448Y-145416D01*
X666348Y-145471D01*
X666230Y-145526D01*
X666102Y-145571D01*
X665947Y-145617D01*
X665929D01*
X665875Y-145635D01*
X665784Y-145644D01*
X665665Y-145662D01*
X665519Y-145681D01*
X665346Y-145699D01*
X665155Y-145708D01*
X664936Y-145717D01*
X662531D01*
Y-139413D01*
X665009D01*
X665073Y-139422D01*
D02*
G37*
G36*
X656346D02*
X656528Y-139431D01*
X656710Y-139449D01*
X656892Y-139477D01*
X657047Y-139504D01*
X657056D01*
X657074Y-139513D01*
X657102D01*
X657138Y-139531D01*
X657238Y-139559D01*
X657366Y-139604D01*
X657512Y-139668D01*
X657666Y-139750D01*
X657821Y-139841D01*
X657967Y-139960D01*
X657976Y-139969D01*
X657985Y-139978D01*
X658013Y-140005D01*
X658049Y-140032D01*
X658140Y-140123D01*
X658250Y-140251D01*
X658368Y-140406D01*
X658496Y-140588D01*
X658614Y-140798D01*
X658714Y-141034D01*
Y-141044D01*
X658723Y-141062D01*
X658742Y-141098D01*
X658751Y-141153D01*
X658778Y-141217D01*
X658796Y-141290D01*
X658814Y-141372D01*
X658842Y-141472D01*
X658869Y-141572D01*
X658887Y-141691D01*
X658933Y-141946D01*
X658960Y-142228D01*
X658969Y-142538D01*
Y-142547D01*
Y-142565D01*
Y-142611D01*
Y-142656D01*
X658960Y-142720D01*
Y-142793D01*
X658951Y-142966D01*
X658924Y-143166D01*
X658896Y-143376D01*
X658851Y-143595D01*
X658796Y-143813D01*
Y-143822D01*
X658787Y-143840D01*
X658778Y-143868D01*
X658769Y-143904D01*
X658732Y-144004D01*
X658678Y-144132D01*
X658623Y-144278D01*
X658550Y-144423D01*
X658459Y-144578D01*
X658368Y-144724D01*
X658359Y-144742D01*
X658322Y-144788D01*
X658268Y-144852D01*
X658195Y-144934D01*
X658113Y-145025D01*
X658013Y-145116D01*
X657912Y-145216D01*
X657794Y-145298D01*
X657776Y-145307D01*
X657739Y-145334D01*
X657676Y-145371D01*
X657584Y-145416D01*
X657475Y-145471D01*
X657348Y-145517D01*
X657202Y-145571D01*
X657038Y-145617D01*
X657020D01*
X656992Y-145626D01*
X656965Y-145635D01*
X656874Y-145644D01*
X656746Y-145662D01*
X656601Y-145681D01*
X656427Y-145699D01*
X656236Y-145708D01*
X656027Y-145717D01*
X653758D01*
Y-139413D01*
X656182D01*
X656346Y-139422D01*
D02*
G37*
G36*
X670348Y-141053D02*
X670430Y-141062D01*
X670521Y-141080D01*
X670621Y-141098D01*
X670739Y-141116D01*
X670985Y-141199D01*
X671113Y-141244D01*
X671240Y-141308D01*
X671368Y-141372D01*
X671495Y-141463D01*
X671614Y-141554D01*
X671732Y-141663D01*
X671741Y-141672D01*
X671760Y-141691D01*
X671787Y-141727D01*
X671823Y-141772D01*
X671869Y-141836D01*
X671924Y-141918D01*
X671978Y-142009D01*
X672033Y-142110D01*
X672088Y-142219D01*
X672142Y-142356D01*
X672197Y-142492D01*
X672242Y-142647D01*
X672279Y-142811D01*
X672306Y-142984D01*
X672325Y-143166D01*
X672334Y-143367D01*
Y-143376D01*
Y-143403D01*
Y-143449D01*
Y-143512D01*
X672325Y-143585D01*
X672315Y-143676D01*
Y-143767D01*
X672297Y-143868D01*
X672270Y-144096D01*
X672215Y-144323D01*
X672151Y-144551D01*
X672060Y-144761D01*
Y-144770D01*
X672051Y-144779D01*
X672033Y-144806D01*
X672015Y-144843D01*
X671951Y-144934D01*
X671869Y-145043D01*
X671760Y-145170D01*
X671623Y-145298D01*
X671468Y-145426D01*
X671286Y-145544D01*
X671277D01*
X671268Y-145553D01*
X671240Y-145571D01*
X671195Y-145589D01*
X671149Y-145608D01*
X671095Y-145626D01*
X670958Y-145681D01*
X670803Y-145726D01*
X670612Y-145772D01*
X670411Y-145808D01*
X670193Y-145817D01*
X670102D01*
X670029Y-145808D01*
X669947Y-145799D01*
X669856Y-145781D01*
X669746Y-145763D01*
X669637Y-145744D01*
X669391Y-145671D01*
X669254Y-145617D01*
X669127Y-145562D01*
X668999Y-145489D01*
X668872Y-145407D01*
X668753Y-145316D01*
X668635Y-145207D01*
X668626Y-145198D01*
X668608Y-145180D01*
X668580Y-145143D01*
X668544Y-145089D01*
X668498Y-145025D01*
X668453Y-144952D01*
X668398Y-144861D01*
X668343Y-144751D01*
X668289Y-144633D01*
X668234Y-144496D01*
X668189Y-144351D01*
X668143Y-144196D01*
X668107Y-144023D01*
X668079Y-143840D01*
X668061Y-143640D01*
X668052Y-143430D01*
Y-143412D01*
Y-143376D01*
X668061Y-143312D01*
Y-143221D01*
X668070Y-143121D01*
X668088Y-142993D01*
X668107Y-142866D01*
X668143Y-142720D01*
X668179Y-142574D01*
X668225Y-142419D01*
X668280Y-142255D01*
X668353Y-142100D01*
X668425Y-141955D01*
X668526Y-141809D01*
X668626Y-141672D01*
X668753Y-141554D01*
X668762Y-141545D01*
X668781Y-141536D01*
X668817Y-141508D01*
X668863Y-141472D01*
X668917Y-141435D01*
X668990Y-141390D01*
X669063Y-141344D01*
X669154Y-141299D01*
X669254Y-141253D01*
X669364Y-141208D01*
X669610Y-141126D01*
X669892Y-141062D01*
X670038Y-141053D01*
X670193Y-141044D01*
X670284D01*
X670348Y-141053D01*
D02*
G37*
%LPC*%
G36*
X674957Y-141681D02*
X674912D01*
X674875Y-141691D01*
X674775Y-141700D01*
X674657Y-141736D01*
X674520Y-141782D01*
X674374Y-141864D01*
X674228Y-141964D01*
X674156Y-142037D01*
X674092Y-142110D01*
Y-142119D01*
X674074Y-142128D01*
X674064Y-142155D01*
X674037Y-142192D01*
X674010Y-142237D01*
X673982Y-142292D01*
X673955Y-142356D01*
X673919Y-142428D01*
X673882Y-142519D01*
X673855Y-142620D01*
X673828Y-142729D01*
X673800Y-142847D01*
X673782Y-142975D01*
X673764Y-143121D01*
X673746Y-143276D01*
Y-143440D01*
Y-143449D01*
Y-143476D01*
Y-143522D01*
X673755Y-143585D01*
Y-143658D01*
X673764Y-143740D01*
X673791Y-143931D01*
X673837Y-144141D01*
X673901Y-144360D01*
X673992Y-144569D01*
X674046Y-144660D01*
X674110Y-144751D01*
X674119D01*
X674128Y-144770D01*
X674174Y-144815D01*
X674256Y-144888D01*
X674356Y-144961D01*
X674484Y-145043D01*
X674638Y-145116D01*
X674802Y-145161D01*
X674894Y-145170D01*
X674985Y-145180D01*
X675030D01*
X675067Y-145170D01*
X675167Y-145161D01*
X675285Y-145125D01*
X675422Y-145079D01*
X675568Y-145007D01*
X675713Y-144906D01*
X675786Y-144843D01*
X675850Y-144770D01*
Y-144761D01*
X675868Y-144751D01*
X675886Y-144724D01*
X675905Y-144688D01*
X675932Y-144642D01*
X675969Y-144597D01*
X675996Y-144524D01*
X676032Y-144451D01*
X676069Y-144369D01*
X676096Y-144278D01*
X676132Y-144168D01*
X676160Y-144059D01*
X676178Y-143931D01*
X676196Y-143804D01*
X676215Y-143658D01*
Y-143503D01*
Y-143494D01*
Y-143458D01*
Y-143412D01*
X676205Y-143349D01*
Y-143276D01*
X676196Y-143184D01*
X676187Y-143084D01*
X676169Y-142975D01*
X676123Y-142756D01*
X676060Y-142529D01*
X675969Y-142310D01*
X675914Y-142219D01*
X675850Y-142128D01*
Y-142119D01*
X675832Y-142110D01*
X675786Y-142055D01*
X675704Y-141982D01*
X675604Y-141900D01*
X675477Y-141818D01*
X675322Y-141754D01*
X675149Y-141700D01*
X675058Y-141691D01*
X674957Y-141681D01*
D02*
G37*
G36*
X664863Y-140160D02*
X663369D01*
Y-142055D01*
X664918D01*
X665036Y-142046D01*
X665164Y-142037D01*
X665292Y-142027D01*
X665419Y-142009D01*
X665519Y-141991D01*
X665538Y-141982D01*
X665574Y-141973D01*
X665629Y-141946D01*
X665701Y-141909D01*
X665774Y-141873D01*
X665856Y-141818D01*
X665938Y-141745D01*
X666002Y-141672D01*
X666011Y-141663D01*
X666030Y-141636D01*
X666057Y-141581D01*
X666084Y-141517D01*
X666112Y-141445D01*
X666139Y-141353D01*
X666157Y-141244D01*
X666166Y-141126D01*
Y-141107D01*
Y-141071D01*
X666157Y-141016D01*
X666148Y-140943D01*
X666130Y-140852D01*
X666102Y-140761D01*
X666066Y-140670D01*
X666011Y-140579D01*
X666002Y-140570D01*
X665984Y-140543D01*
X665947Y-140497D01*
X665902Y-140452D01*
X665838Y-140397D01*
X665765Y-140342D01*
X665674Y-140287D01*
X665574Y-140251D01*
X665565D01*
X665519Y-140233D01*
X665456Y-140224D01*
X665355Y-140206D01*
X665219Y-140187D01*
X665064Y-140178D01*
X664863Y-140160D01*
D02*
G37*
G36*
X665027Y-142802D02*
X663369D01*
Y-144970D01*
X665164D01*
X665355Y-144961D01*
X665437Y-144952D01*
X665510Y-144943D01*
X665519D01*
X665556Y-144934D01*
X665610Y-144924D01*
X665674Y-144906D01*
X665829Y-144852D01*
X665984Y-144779D01*
X665993Y-144770D01*
X666020Y-144751D01*
X666057Y-144724D01*
X666102Y-144688D01*
X666148Y-144633D01*
X666212Y-144578D01*
X666257Y-144505D01*
X666312Y-144423D01*
X666321Y-144414D01*
X666330Y-144387D01*
X666348Y-144332D01*
X666376Y-144269D01*
X666403Y-144196D01*
X666421Y-144105D01*
X666430Y-143995D01*
X666439Y-143886D01*
Y-143868D01*
Y-143831D01*
X666430Y-143758D01*
X666412Y-143676D01*
X666394Y-143585D01*
X666357Y-143485D01*
X666312Y-143385D01*
X666248Y-143285D01*
X666239Y-143276D01*
X666212Y-143239D01*
X666175Y-143194D01*
X666121Y-143139D01*
X666048Y-143075D01*
X665957Y-143011D01*
X665856Y-142957D01*
X665738Y-142911D01*
X665720Y-142902D01*
X665683Y-142893D01*
X665601Y-142875D01*
X665501Y-142857D01*
X665374Y-142838D01*
X665219Y-142820D01*
X665027Y-142802D01*
D02*
G37*
G36*
X656054Y-140160D02*
X654596D01*
Y-144970D01*
X656090D01*
X656154Y-144961D01*
X656291Y-144952D01*
X656446Y-144943D01*
X656610Y-144924D01*
X656774Y-144897D01*
X656910Y-144861D01*
X656929Y-144852D01*
X656974Y-144843D01*
X657038Y-144815D01*
X657120Y-144779D01*
X657211Y-144724D01*
X657302Y-144669D01*
X657393Y-144606D01*
X657484Y-144533D01*
X657493Y-144515D01*
X657530Y-144478D01*
X657584Y-144414D01*
X657648Y-144323D01*
X657721Y-144205D01*
X657803Y-144068D01*
X657876Y-143913D01*
X657940Y-143740D01*
Y-143731D01*
X657949Y-143713D01*
X657958Y-143685D01*
X657967Y-143649D01*
X657976Y-143604D01*
X657995Y-143540D01*
X658013Y-143476D01*
X658031Y-143403D01*
X658058Y-143221D01*
X658086Y-143011D01*
X658104Y-142774D01*
X658113Y-142519D01*
Y-142510D01*
Y-142474D01*
Y-142428D01*
X658104Y-142356D01*
Y-142273D01*
X658095Y-142182D01*
X658086Y-142073D01*
X658076Y-141964D01*
X658031Y-141718D01*
X657976Y-141463D01*
X657894Y-141226D01*
X657840Y-141107D01*
X657785Y-141007D01*
Y-140998D01*
X657767Y-140980D01*
X657749Y-140953D01*
X657730Y-140916D01*
X657657Y-140825D01*
X657566Y-140716D01*
X657448Y-140597D01*
X657311Y-140479D01*
X657156Y-140379D01*
X656992Y-140297D01*
X656974Y-140287D01*
X656929Y-140278D01*
X656847Y-140251D01*
X656728Y-140224D01*
X656582Y-140206D01*
X656400Y-140178D01*
X656291Y-140169D01*
X656173D01*
X656054Y-140160D01*
D02*
G37*
G36*
X670193Y-141681D02*
X670138D01*
X670092Y-141691D01*
X669992Y-141700D01*
X669856Y-141736D01*
X669701Y-141791D01*
X669537Y-141864D01*
X669382Y-141973D01*
X669300Y-142046D01*
X669227Y-142119D01*
Y-142128D01*
X669209Y-142137D01*
X669191Y-142164D01*
X669163Y-142201D01*
X669136Y-142246D01*
X669109Y-142301D01*
X669072Y-142374D01*
X669036Y-142447D01*
X668999Y-142538D01*
X668963Y-142629D01*
X668936Y-142738D01*
X668908Y-142857D01*
X668881Y-142984D01*
X668863Y-143121D01*
X668854Y-143276D01*
X668845Y-143430D01*
Y-143440D01*
Y-143467D01*
Y-143512D01*
X668854Y-143576D01*
Y-143649D01*
X668863Y-143731D01*
X668890Y-143922D01*
X668936Y-144141D01*
X669008Y-144360D01*
X669100Y-144569D01*
X669163Y-144660D01*
X669227Y-144751D01*
X669236D01*
X669245Y-144770D01*
X669300Y-144815D01*
X669382Y-144888D01*
X669491Y-144961D01*
X669628Y-145043D01*
X669792Y-145116D01*
X669983Y-145161D01*
X670083Y-145170D01*
X670193Y-145180D01*
X670247D01*
X670293Y-145170D01*
X670393Y-145152D01*
X670530Y-145125D01*
X670676Y-145070D01*
X670840Y-144997D01*
X670994Y-144888D01*
X671076Y-144815D01*
X671149Y-144742D01*
X671158Y-144733D01*
X671168Y-144724D01*
X671186Y-144697D01*
X671213Y-144660D01*
X671240Y-144615D01*
X671277Y-144560D01*
X671313Y-144487D01*
X671350Y-144414D01*
X671386Y-144323D01*
X671414Y-144223D01*
X671450Y-144114D01*
X671477Y-143995D01*
X671505Y-143859D01*
X671523Y-143722D01*
X671541Y-143567D01*
Y-143403D01*
Y-143394D01*
Y-143367D01*
Y-143321D01*
X671532Y-143266D01*
Y-143194D01*
X671523Y-143112D01*
X671495Y-142920D01*
X671450Y-142720D01*
X671377Y-142501D01*
X671277Y-142301D01*
X671222Y-142201D01*
X671149Y-142119D01*
Y-142110D01*
X671131Y-142100D01*
X671076Y-142046D01*
X670994Y-141982D01*
X670885Y-141900D01*
X670749Y-141818D01*
X670584Y-141745D01*
X670402Y-141700D01*
X670302Y-141691D01*
X670193Y-141681D01*
D02*
G37*
%LPD*%
D11*
X969Y18503D02*
G03*
X12247Y7419I11796J722D01*
G01*
X30208Y2724D02*
G03*
X22454Y7419I-10086J-7908D01*
G01*
X30208Y2724D02*
G03*
X35418Y400I4950J4095D01*
G01*
X312896Y400D02*
G03*
X328213Y8621I575J17307D01*
G01*
X349172Y14828D02*
G03*
X362560Y28425I-102J13490D01*
G01*
X340364Y14828D02*
G03*
X328213Y8621I-253J-14503D01*
G01*
X362560Y320083D02*
G03*
X350339Y332378I-12330J-35D01*
G01*
X327504Y341810D02*
G03*
X339828Y332400I13326J4677D01*
G01*
X327504Y341692D02*
G03*
X315654Y350354I-12571J-4763D01*
G01*
X15378D02*
G03*
X974Y335477I609J-15002D01*
G01*
X12247Y7419D02*
X22454D01*
X35418Y400D02*
X312896Y400D01*
X340111Y14828D02*
X349172D01*
X362560Y28425D02*
X362560Y320083D01*
X339828Y332400D02*
X350230D01*
X17504Y350354D02*
X315654D01*
X15378D02*
X17504D01*
X969Y18503D02*
Y335352D01*
M02*
