G04*
G04 #@! TF.GenerationSoftware,Altium Limited,Altium Designer,18.1.7 (191)*
G04*
G04 Layer_Color=8421504*
%FSLAX25Y25*%
%MOIN*%
G70*
G01*
G75*
%ADD11C,0.01000*%
%ADD17R,0.08268X0.11811*%
%ADD18R,0.03150X0.05118*%
G36*
X661803Y-140324D02*
X661867Y-140333D01*
X662004Y-140352D01*
X662168Y-140388D01*
X662341Y-140443D01*
X662514Y-140525D01*
X662687Y-140625D01*
X662696D01*
X662705Y-140643D01*
X662760Y-140680D01*
X662842Y-140753D01*
X662942Y-140844D01*
X663052Y-140962D01*
X663161Y-141108D01*
X663270Y-141281D01*
X663361Y-141472D01*
Y-141481D01*
X663370Y-141500D01*
X663379Y-141527D01*
X663398Y-141563D01*
X663416Y-141618D01*
X663434Y-141682D01*
X663480Y-141828D01*
X663525Y-142010D01*
X663562Y-142210D01*
X663589Y-142438D01*
X663598Y-142675D01*
Y-142684D01*
Y-142702D01*
Y-142739D01*
Y-142793D01*
X663589Y-142857D01*
Y-142930D01*
X663571Y-143094D01*
X663534Y-143294D01*
X663489Y-143504D01*
X663425Y-143722D01*
X663343Y-143941D01*
Y-143950D01*
X663334Y-143968D01*
X663316Y-143996D01*
X663298Y-144032D01*
X663234Y-144132D01*
X663152Y-144260D01*
X663052Y-144397D01*
X662924Y-144533D01*
X662778Y-144670D01*
X662605Y-144797D01*
X662596D01*
X662587Y-144807D01*
X662560Y-144825D01*
X662523Y-144843D01*
X662432Y-144888D01*
X662304Y-144943D01*
X662150Y-144998D01*
X661986Y-145043D01*
X661794Y-145080D01*
X661603Y-145089D01*
X661539D01*
X661466Y-145080D01*
X661375Y-145071D01*
X661266Y-145053D01*
X661147Y-145025D01*
X661029Y-144989D01*
X660911Y-144934D01*
X660901Y-144925D01*
X660856Y-144907D01*
X660801Y-144870D01*
X660728Y-144816D01*
X660656Y-144761D01*
X660565Y-144688D01*
X660483Y-144606D01*
X660410Y-144515D01*
Y-146738D01*
X659635D01*
Y-140416D01*
X660337D01*
Y-141017D01*
X660346Y-140999D01*
X660382Y-140962D01*
X660428Y-140898D01*
X660501Y-140825D01*
X660583Y-140734D01*
X660674Y-140652D01*
X660783Y-140570D01*
X660892Y-140498D01*
X660911Y-140488D01*
X660947Y-140470D01*
X661020Y-140443D01*
X661111Y-140406D01*
X661220Y-140370D01*
X661348Y-140343D01*
X661494Y-140324D01*
X661658Y-140315D01*
X661758D01*
X661803Y-140324D01*
D02*
G37*
G36*
X679450D02*
X679586Y-140333D01*
X679732Y-140352D01*
X679887Y-140388D01*
X680051Y-140425D01*
X680206Y-140479D01*
X680215D01*
X680224Y-140488D01*
X680269Y-140507D01*
X680342Y-140543D01*
X680433Y-140589D01*
X680534Y-140652D01*
X680634Y-140725D01*
X680725Y-140807D01*
X680807Y-140898D01*
X680816Y-140908D01*
X680834Y-140944D01*
X680871Y-141008D01*
X680916Y-141080D01*
X680962Y-141190D01*
X681007Y-141308D01*
X681044Y-141445D01*
X681080Y-141600D01*
X680324Y-141700D01*
Y-141682D01*
X680315Y-141645D01*
X680297Y-141582D01*
X680269Y-141500D01*
X680224Y-141418D01*
X680169Y-141326D01*
X680105Y-141235D01*
X680014Y-141153D01*
X680005Y-141144D01*
X679969Y-141126D01*
X679914Y-141090D01*
X679832Y-141053D01*
X679741Y-141017D01*
X679623Y-140980D01*
X679477Y-140962D01*
X679322Y-140953D01*
X679231D01*
X679140Y-140962D01*
X679021Y-140971D01*
X678903Y-140999D01*
X678775Y-141026D01*
X678657Y-141071D01*
X678557Y-141135D01*
X678548Y-141144D01*
X678520Y-141163D01*
X678484Y-141199D01*
X678447Y-141254D01*
X678402Y-141308D01*
X678365Y-141381D01*
X678338Y-141463D01*
X678329Y-141545D01*
Y-141554D01*
Y-141572D01*
X678338Y-141600D01*
Y-141636D01*
X678365Y-141727D01*
X678420Y-141818D01*
X678429Y-141828D01*
X678438Y-141837D01*
X678456Y-141864D01*
X678493Y-141891D01*
X678529Y-141919D01*
X678584Y-141955D01*
X678648Y-141982D01*
X678721Y-142019D01*
X678730D01*
X678748Y-142028D01*
X678785Y-142037D01*
X678848Y-142064D01*
X678939Y-142092D01*
X679058Y-142119D01*
X679131Y-142146D01*
X679213Y-142165D01*
X679304Y-142192D01*
X679404Y-142219D01*
X679413D01*
X679440Y-142228D01*
X679486Y-142237D01*
X679541Y-142256D01*
X679604Y-142274D01*
X679686Y-142292D01*
X679859Y-142347D01*
X680051Y-142402D01*
X680242Y-142465D01*
X680415Y-142529D01*
X680488Y-142556D01*
X680552Y-142584D01*
X680570Y-142593D01*
X680607Y-142611D01*
X680661Y-142638D01*
X680743Y-142684D01*
X680825Y-142739D01*
X680907Y-142811D01*
X680989Y-142893D01*
X681062Y-142984D01*
X681071Y-142994D01*
X681089Y-143030D01*
X681126Y-143085D01*
X681162Y-143167D01*
X681189Y-143267D01*
X681226Y-143376D01*
X681244Y-143504D01*
X681253Y-143650D01*
Y-143668D01*
Y-143713D01*
X681244Y-143786D01*
X681226Y-143886D01*
X681199Y-143996D01*
X681153Y-144114D01*
X681098Y-144251D01*
X681026Y-144378D01*
X681016Y-144397D01*
X680980Y-144433D01*
X680934Y-144497D01*
X680862Y-144570D01*
X680761Y-144652D01*
X680652Y-144743D01*
X680524Y-144825D01*
X680370Y-144907D01*
X680361D01*
X680351Y-144916D01*
X680297Y-144934D01*
X680206Y-144961D01*
X680087Y-144998D01*
X679941Y-145034D01*
X679777Y-145062D01*
X679604Y-145080D01*
X679404Y-145089D01*
X679322D01*
X679258Y-145080D01*
X679185D01*
X679094Y-145071D01*
X679003Y-145062D01*
X678903Y-145043D01*
X678684Y-144998D01*
X678456Y-144934D01*
X678238Y-144843D01*
X678138Y-144788D01*
X678047Y-144725D01*
X678037Y-144715D01*
X678028Y-144706D01*
X677974Y-144652D01*
X677892Y-144570D01*
X677801Y-144442D01*
X677700Y-144287D01*
X677600Y-144105D01*
X677518Y-143877D01*
X677454Y-143622D01*
X678220Y-143504D01*
Y-143513D01*
Y-143522D01*
X678238Y-143577D01*
X678256Y-143668D01*
X678293Y-143768D01*
X678338Y-143877D01*
X678393Y-143996D01*
X678475Y-144114D01*
X678575Y-144214D01*
X678593Y-144223D01*
X678630Y-144251D01*
X678702Y-144287D01*
X678794Y-144333D01*
X678912Y-144378D01*
X679049Y-144415D01*
X679213Y-144442D01*
X679404Y-144451D01*
X679495D01*
X679586Y-144442D01*
X679705Y-144424D01*
X679832Y-144397D01*
X679969Y-144360D01*
X680087Y-144315D01*
X680197Y-144242D01*
X680206Y-144233D01*
X680242Y-144205D01*
X680278Y-144160D01*
X680333Y-144096D01*
X680379Y-144023D01*
X680424Y-143932D01*
X680452Y-143841D01*
X680461Y-143732D01*
Y-143722D01*
Y-143686D01*
X680452Y-143640D01*
X680433Y-143577D01*
X680406Y-143513D01*
X680361Y-143449D01*
X680306Y-143376D01*
X680224Y-143322D01*
X680215Y-143313D01*
X680187Y-143303D01*
X680142Y-143276D01*
X680069Y-143249D01*
X679960Y-143212D01*
X679896Y-143185D01*
X679823Y-143167D01*
X679741Y-143139D01*
X679650Y-143112D01*
X679550Y-143085D01*
X679431Y-143057D01*
X679422D01*
X679395Y-143048D01*
X679349Y-143039D01*
X679295Y-143021D01*
X679222Y-143003D01*
X679140Y-142975D01*
X678967Y-142930D01*
X678766Y-142866D01*
X678575Y-142811D01*
X678393Y-142748D01*
X678311Y-142711D01*
X678247Y-142684D01*
X678229Y-142675D01*
X678192Y-142657D01*
X678138Y-142620D01*
X678065Y-142575D01*
X677983Y-142511D01*
X677901Y-142438D01*
X677819Y-142356D01*
X677746Y-142256D01*
X677737Y-142247D01*
X677719Y-142210D01*
X677691Y-142146D01*
X677664Y-142074D01*
X677637Y-141982D01*
X677609Y-141873D01*
X677591Y-141764D01*
X677582Y-141636D01*
Y-141618D01*
Y-141582D01*
X677591Y-141527D01*
X677600Y-141445D01*
X677618Y-141363D01*
X677637Y-141263D01*
X677673Y-141172D01*
X677719Y-141071D01*
X677728Y-141062D01*
X677746Y-141026D01*
X677773Y-140980D01*
X677819Y-140917D01*
X677873Y-140853D01*
X677937Y-140771D01*
X678010Y-140698D01*
X678101Y-140634D01*
X678110Y-140625D01*
X678138Y-140616D01*
X678174Y-140589D01*
X678229Y-140561D01*
X678302Y-140525D01*
X678384Y-140488D01*
X678484Y-140452D01*
X678593Y-140416D01*
X678611Y-140406D01*
X678648Y-140397D01*
X678712Y-140379D01*
X678794Y-140361D01*
X678894Y-140343D01*
X679003Y-140333D01*
X679131Y-140315D01*
X679349D01*
X679450Y-140324D01*
D02*
G37*
G36*
X674995D02*
X675131Y-140333D01*
X675286Y-140352D01*
X675441Y-140379D01*
X675596Y-140416D01*
X675742Y-140461D01*
X675760Y-140470D01*
X675806Y-140488D01*
X675869Y-140516D01*
X675951Y-140552D01*
X676042Y-140607D01*
X676133Y-140662D01*
X676215Y-140734D01*
X676288Y-140807D01*
X676297Y-140816D01*
X676316Y-140844D01*
X676343Y-140889D01*
X676379Y-140944D01*
X676425Y-141026D01*
X676461Y-141108D01*
X676498Y-141208D01*
X676525Y-141326D01*
Y-141336D01*
X676534Y-141363D01*
X676543Y-141418D01*
X676552Y-141490D01*
Y-141591D01*
X676562Y-141709D01*
X676571Y-141864D01*
Y-142037D01*
Y-143076D01*
Y-143085D01*
Y-143121D01*
Y-143176D01*
Y-143249D01*
Y-143331D01*
Y-143431D01*
X676580Y-143650D01*
Y-143877D01*
X676589Y-144105D01*
X676598Y-144205D01*
Y-144296D01*
X676607Y-144378D01*
X676616Y-144442D01*
Y-144451D01*
X676625Y-144488D01*
X676635Y-144542D01*
X676662Y-144615D01*
X676680Y-144697D01*
X676717Y-144788D01*
X676762Y-144888D01*
X676808Y-144989D01*
X675997D01*
X675988Y-144980D01*
X675979Y-144943D01*
X675960Y-144898D01*
X675933Y-144825D01*
X675906Y-144743D01*
X675887Y-144643D01*
X675869Y-144533D01*
X675851Y-144415D01*
X675842D01*
X675833Y-144433D01*
X675778Y-144479D01*
X675696Y-144542D01*
X675587Y-144624D01*
X675450Y-144706D01*
X675314Y-144797D01*
X675168Y-144879D01*
X675013Y-144943D01*
X674995Y-144952D01*
X674940Y-144961D01*
X674858Y-144989D01*
X674758Y-145016D01*
X674630Y-145043D01*
X674484Y-145062D01*
X674321Y-145080D01*
X674157Y-145089D01*
X674084D01*
X674029Y-145080D01*
X673965D01*
X673892Y-145071D01*
X673728Y-145043D01*
X673546Y-144998D01*
X673346Y-144934D01*
X673164Y-144843D01*
X673000Y-144725D01*
X672981Y-144706D01*
X672936Y-144661D01*
X672872Y-144579D01*
X672799Y-144469D01*
X672726Y-144333D01*
X672662Y-144178D01*
X672617Y-143987D01*
X672608Y-143895D01*
X672599Y-143786D01*
Y-143768D01*
Y-143732D01*
X672608Y-143668D01*
X672617Y-143586D01*
X672635Y-143486D01*
X672662Y-143385D01*
X672699Y-143276D01*
X672745Y-143176D01*
X672754Y-143167D01*
X672772Y-143130D01*
X672808Y-143076D01*
X672854Y-143012D01*
X672908Y-142939D01*
X672981Y-142866D01*
X673054Y-142793D01*
X673145Y-142729D01*
X673154Y-142720D01*
X673191Y-142702D01*
X673237Y-142666D01*
X673309Y-142629D01*
X673391Y-142593D01*
X673491Y-142547D01*
X673592Y-142511D01*
X673710Y-142474D01*
X673719D01*
X673756Y-142465D01*
X673810Y-142447D01*
X673883Y-142438D01*
X673974Y-142420D01*
X674093Y-142402D01*
X674229Y-142374D01*
X674393Y-142356D01*
X674403D01*
X674439Y-142347D01*
X674484D01*
X674548Y-142338D01*
X674621Y-142329D01*
X674712Y-142310D01*
X674813Y-142301D01*
X674922Y-142283D01*
X675140Y-142237D01*
X675377Y-142192D01*
X675587Y-142137D01*
X675687Y-142110D01*
X675778Y-142083D01*
Y-142074D01*
Y-142055D01*
X675787Y-142001D01*
Y-141937D01*
Y-141901D01*
Y-141882D01*
Y-141873D01*
Y-141864D01*
Y-141809D01*
X675778Y-141718D01*
X675760Y-141618D01*
X675733Y-141509D01*
X675687Y-141399D01*
X675632Y-141299D01*
X675560Y-141217D01*
X675550Y-141208D01*
X675505Y-141172D01*
X675432Y-141135D01*
X675341Y-141080D01*
X675213Y-141035D01*
X675068Y-140989D01*
X674885Y-140962D01*
X674676Y-140953D01*
X674585D01*
X674494Y-140962D01*
X674366Y-140980D01*
X674239Y-140999D01*
X674102Y-141035D01*
X673974Y-141080D01*
X673865Y-141144D01*
X673856Y-141153D01*
X673819Y-141181D01*
X673774Y-141226D01*
X673719Y-141299D01*
X673665Y-141390D01*
X673601Y-141509D01*
X673546Y-141655D01*
X673491Y-141818D01*
X672735Y-141718D01*
Y-141709D01*
X672745Y-141700D01*
Y-141673D01*
X672754Y-141636D01*
X672781Y-141554D01*
X672817Y-141436D01*
X672863Y-141317D01*
X672918Y-141190D01*
X672991Y-141062D01*
X673072Y-140944D01*
X673082Y-140935D01*
X673118Y-140898D01*
X673173Y-140844D01*
X673246Y-140771D01*
X673346Y-140698D01*
X673464Y-140625D01*
X673601Y-140543D01*
X673756Y-140479D01*
X673765D01*
X673774Y-140470D01*
X673801Y-140461D01*
X673838Y-140452D01*
X673929Y-140425D01*
X674056Y-140397D01*
X674202Y-140370D01*
X674384Y-140343D01*
X674576Y-140324D01*
X674794Y-140315D01*
X674895D01*
X674995Y-140324D01*
D02*
G37*
G36*
X669811Y-138694D02*
X669966Y-138703D01*
X670130Y-138712D01*
X670285Y-138730D01*
X670422Y-138748D01*
X670440D01*
X670504Y-138767D01*
X670585Y-138785D01*
X670695Y-138812D01*
X670813Y-138858D01*
X670941Y-138912D01*
X671077Y-138976D01*
X671196Y-139049D01*
X671214Y-139058D01*
X671250Y-139085D01*
X671305Y-139140D01*
X671378Y-139204D01*
X671460Y-139286D01*
X671542Y-139395D01*
X671633Y-139514D01*
X671706Y-139650D01*
X671715Y-139669D01*
X671733Y-139714D01*
X671770Y-139796D01*
X671806Y-139905D01*
X671834Y-140033D01*
X671870Y-140179D01*
X671888Y-140343D01*
X671897Y-140516D01*
Y-140525D01*
Y-140552D01*
Y-140589D01*
X671888Y-140652D01*
X671879Y-140716D01*
X671870Y-140798D01*
X671852Y-140889D01*
X671834Y-140989D01*
X671770Y-141199D01*
X671733Y-141308D01*
X671679Y-141427D01*
X671615Y-141545D01*
X671551Y-141655D01*
X671469Y-141764D01*
X671378Y-141873D01*
X671369Y-141882D01*
X671351Y-141901D01*
X671323Y-141928D01*
X671278Y-141955D01*
X671223Y-142001D01*
X671150Y-142046D01*
X671059Y-142101D01*
X670959Y-142146D01*
X670841Y-142201D01*
X670704Y-142256D01*
X670558Y-142301D01*
X670385Y-142338D01*
X670203Y-142374D01*
X670002Y-142402D01*
X669775Y-142420D01*
X669538Y-142429D01*
X667925D01*
Y-144989D01*
X667087D01*
Y-138685D01*
X669674D01*
X669811Y-138694D01*
D02*
G37*
G36*
X653969Y-139432D02*
X651892D01*
Y-144989D01*
X651054D01*
Y-139432D01*
X648977D01*
Y-138685D01*
X653969D01*
Y-139432D01*
D02*
G37*
G36*
X683075Y-140416D02*
X683859D01*
Y-141017D01*
X683075D01*
Y-143704D01*
Y-143722D01*
Y-143759D01*
Y-143814D01*
X683084Y-143877D01*
X683094Y-144023D01*
X683103Y-144087D01*
X683112Y-144132D01*
X683121Y-144151D01*
X683148Y-144187D01*
X683185Y-144233D01*
X683248Y-144278D01*
X683267Y-144287D01*
X683312Y-144306D01*
X683394Y-144324D01*
X683512Y-144333D01*
X683604D01*
X683649Y-144324D01*
X683713D01*
X683786Y-144315D01*
X683859Y-144306D01*
X683959Y-144989D01*
X683941D01*
X683904Y-144998D01*
X683841Y-145007D01*
X683758Y-145016D01*
X683667Y-145034D01*
X683567Y-145043D01*
X683367Y-145053D01*
X683294D01*
X683221Y-145043D01*
X683130Y-145034D01*
X683021Y-145025D01*
X682911Y-144998D01*
X682811Y-144971D01*
X682711Y-144925D01*
X682702Y-144916D01*
X682674Y-144898D01*
X682638Y-144870D01*
X682583Y-144825D01*
X682538Y-144779D01*
X682483Y-144715D01*
X682428Y-144652D01*
X682392Y-144570D01*
Y-144561D01*
X682374Y-144524D01*
X682365Y-144460D01*
X682346Y-144369D01*
X682328Y-144251D01*
X682319Y-144178D01*
Y-144096D01*
X682310Y-143996D01*
X682301Y-143895D01*
Y-143786D01*
Y-143659D01*
Y-141017D01*
X681727D01*
Y-140416D01*
X682301D01*
Y-139286D01*
X683075Y-138821D01*
Y-140416D01*
D02*
G37*
G36*
X686646Y-140324D02*
X686719Y-140333D01*
X686810Y-140352D01*
X686911Y-140370D01*
X687029Y-140397D01*
X687138Y-140425D01*
X687266Y-140470D01*
X687384Y-140516D01*
X687512Y-140579D01*
X687639Y-140652D01*
X687767Y-140734D01*
X687885Y-140835D01*
X687995Y-140944D01*
X688004Y-140953D01*
X688022Y-140971D01*
X688049Y-141008D01*
X688086Y-141062D01*
X688131Y-141126D01*
X688177Y-141199D01*
X688232Y-141290D01*
X688286Y-141399D01*
X688341Y-141518D01*
X688396Y-141645D01*
X688441Y-141791D01*
X688487Y-141946D01*
X688523Y-142119D01*
X688550Y-142301D01*
X688569Y-142493D01*
X688578Y-142702D01*
Y-142711D01*
Y-142748D01*
Y-142811D01*
X688569Y-142903D01*
X685152D01*
Y-142912D01*
Y-142939D01*
X685161Y-142975D01*
Y-143030D01*
X685171Y-143094D01*
X685189Y-143167D01*
X685216Y-143331D01*
X685271Y-143513D01*
X685344Y-143713D01*
X685444Y-143895D01*
X685571Y-144060D01*
X685580D01*
X685590Y-144078D01*
X685644Y-144123D01*
X685726Y-144187D01*
X685836Y-144251D01*
X685981Y-144324D01*
X686145Y-144387D01*
X686328Y-144433D01*
X686428Y-144442D01*
X686537Y-144451D01*
X686610D01*
X686692Y-144442D01*
X686792Y-144424D01*
X686902Y-144397D01*
X687029Y-144360D01*
X687147Y-144306D01*
X687266Y-144233D01*
X687275Y-144223D01*
X687321Y-144187D01*
X687375Y-144132D01*
X687439Y-144060D01*
X687512Y-143959D01*
X687594Y-143832D01*
X687676Y-143686D01*
X687749Y-143513D01*
X688550Y-143613D01*
Y-143622D01*
X688541Y-143640D01*
X688532Y-143677D01*
X688514Y-143732D01*
X688487Y-143786D01*
X688459Y-143859D01*
X688386Y-144014D01*
X688295Y-144187D01*
X688168Y-144369D01*
X688022Y-144542D01*
X687840Y-144706D01*
X687831D01*
X687813Y-144725D01*
X687785Y-144743D01*
X687749Y-144770D01*
X687694Y-144797D01*
X687639Y-144825D01*
X687567Y-144861D01*
X687485Y-144898D01*
X687393Y-144934D01*
X687302Y-144971D01*
X687075Y-145025D01*
X686820Y-145071D01*
X686537Y-145089D01*
X686437D01*
X686373Y-145080D01*
X686291Y-145071D01*
X686191Y-145053D01*
X686082Y-145034D01*
X685963Y-145016D01*
X685708Y-144943D01*
X685571Y-144888D01*
X685444Y-144834D01*
X685307Y-144761D01*
X685180Y-144679D01*
X685061Y-144588D01*
X684943Y-144479D01*
X684934Y-144469D01*
X684915Y-144451D01*
X684888Y-144415D01*
X684852Y-144360D01*
X684806Y-144296D01*
X684761Y-144223D01*
X684706Y-144132D01*
X684651Y-144032D01*
X684597Y-143914D01*
X684542Y-143786D01*
X684496Y-143640D01*
X684451Y-143486D01*
X684414Y-143322D01*
X684387Y-143139D01*
X684369Y-142948D01*
X684360Y-142748D01*
Y-142739D01*
Y-142693D01*
Y-142638D01*
X684369Y-142556D01*
X684378Y-142456D01*
X684387Y-142347D01*
X684405Y-142219D01*
X684433Y-142092D01*
X684506Y-141800D01*
X684551Y-141655D01*
X684606Y-141500D01*
X684679Y-141354D01*
X684761Y-141217D01*
X684852Y-141080D01*
X684952Y-140953D01*
X684961Y-140944D01*
X684979Y-140926D01*
X685016Y-140898D01*
X685061Y-140853D01*
X685116Y-140807D01*
X685189Y-140753D01*
X685271Y-140689D01*
X685371Y-140634D01*
X685471Y-140570D01*
X685590Y-140516D01*
X685717Y-140461D01*
X685854Y-140416D01*
X686000Y-140370D01*
X686154Y-140343D01*
X686318Y-140324D01*
X686491Y-140315D01*
X686583D01*
X686646Y-140324D01*
D02*
G37*
G36*
X656738D02*
X656820Y-140333D01*
X656911Y-140352D01*
X657012Y-140370D01*
X657130Y-140388D01*
X657376Y-140470D01*
X657504Y-140516D01*
X657631Y-140579D01*
X657759Y-140643D01*
X657886Y-140734D01*
X658005Y-140825D01*
X658123Y-140935D01*
X658132Y-140944D01*
X658150Y-140962D01*
X658178Y-140999D01*
X658214Y-141044D01*
X658260Y-141108D01*
X658314Y-141190D01*
X658369Y-141281D01*
X658424Y-141381D01*
X658478Y-141490D01*
X658533Y-141627D01*
X658588Y-141764D01*
X658633Y-141919D01*
X658670Y-142083D01*
X658697Y-142256D01*
X658715Y-142438D01*
X658724Y-142638D01*
Y-142648D01*
Y-142675D01*
Y-142720D01*
Y-142784D01*
X658715Y-142857D01*
X658706Y-142948D01*
Y-143039D01*
X658688Y-143139D01*
X658661Y-143367D01*
X658606Y-143595D01*
X658542Y-143823D01*
X658451Y-144032D01*
Y-144041D01*
X658442Y-144050D01*
X658424Y-144078D01*
X658405Y-144114D01*
X658342Y-144205D01*
X658260Y-144315D01*
X658150Y-144442D01*
X658014Y-144570D01*
X657859Y-144697D01*
X657677Y-144816D01*
X657667D01*
X657658Y-144825D01*
X657631Y-144843D01*
X657585Y-144861D01*
X657540Y-144879D01*
X657485Y-144898D01*
X657349Y-144952D01*
X657194Y-144998D01*
X657002Y-145043D01*
X656802Y-145080D01*
X656583Y-145089D01*
X656492D01*
X656419Y-145080D01*
X656337Y-145071D01*
X656246Y-145053D01*
X656137Y-145034D01*
X656028Y-145016D01*
X655782Y-144943D01*
X655645Y-144888D01*
X655517Y-144834D01*
X655390Y-144761D01*
X655262Y-144679D01*
X655144Y-144588D01*
X655026Y-144479D01*
X655017Y-144469D01*
X654998Y-144451D01*
X654971Y-144415D01*
X654935Y-144360D01*
X654889Y-144296D01*
X654843Y-144223D01*
X654789Y-144132D01*
X654734Y-144023D01*
X654679Y-143905D01*
X654625Y-143768D01*
X654579Y-143622D01*
X654534Y-143467D01*
X654497Y-143294D01*
X654470Y-143112D01*
X654452Y-142912D01*
X654443Y-142702D01*
Y-142684D01*
Y-142648D01*
X654452Y-142584D01*
Y-142493D01*
X654461Y-142392D01*
X654479Y-142265D01*
X654497Y-142137D01*
X654534Y-141992D01*
X654570Y-141846D01*
X654616Y-141691D01*
X654670Y-141527D01*
X654743Y-141372D01*
X654816Y-141226D01*
X654916Y-141080D01*
X655017Y-140944D01*
X655144Y-140825D01*
X655153Y-140816D01*
X655171Y-140807D01*
X655208Y-140780D01*
X655253Y-140744D01*
X655308Y-140707D01*
X655381Y-140662D01*
X655454Y-140616D01*
X655545Y-140570D01*
X655645Y-140525D01*
X655754Y-140479D01*
X656000Y-140397D01*
X656283Y-140333D01*
X656428Y-140324D01*
X656583Y-140315D01*
X656674D01*
X656738Y-140324D01*
D02*
G37*
%LPC*%
G36*
X661585Y-140926D02*
X661539D01*
X661503Y-140935D01*
X661412Y-140953D01*
X661293Y-140980D01*
X661157Y-141035D01*
X661011Y-141117D01*
X660929Y-141172D01*
X660856Y-141235D01*
X660783Y-141308D01*
X660710Y-141390D01*
Y-141399D01*
X660692Y-141409D01*
X660674Y-141436D01*
X660656Y-141472D01*
X660628Y-141527D01*
X660592Y-141582D01*
X660555Y-141655D01*
X660528Y-141727D01*
X660492Y-141818D01*
X660455Y-141919D01*
X660428Y-142028D01*
X660391Y-142146D01*
X660373Y-142283D01*
X660355Y-142420D01*
X660337Y-142566D01*
Y-142729D01*
Y-142739D01*
Y-142766D01*
Y-142811D01*
X660346Y-142875D01*
Y-142948D01*
X660355Y-143030D01*
X660382Y-143221D01*
X660428Y-143440D01*
X660483Y-143650D01*
X660574Y-143859D01*
X660628Y-143950D01*
X660692Y-144032D01*
X660710Y-144050D01*
X660756Y-144096D01*
X660829Y-144169D01*
X660929Y-144242D01*
X661056Y-144315D01*
X661202Y-144387D01*
X661366Y-144433D01*
X661457Y-144442D01*
X661548Y-144451D01*
X661603D01*
X661639Y-144442D01*
X661730Y-144424D01*
X661858Y-144397D01*
X661995Y-144342D01*
X662141Y-144269D01*
X662286Y-144160D01*
X662359Y-144096D01*
X662432Y-144023D01*
Y-144014D01*
X662450Y-144005D01*
X662468Y-143977D01*
X662487Y-143941D01*
X662523Y-143895D01*
X662550Y-143832D01*
X662587Y-143768D01*
X662623Y-143686D01*
X662651Y-143604D01*
X662687Y-143495D01*
X662723Y-143385D01*
X662751Y-143267D01*
X662769Y-143130D01*
X662787Y-142984D01*
X662806Y-142830D01*
Y-142666D01*
Y-142657D01*
Y-142629D01*
Y-142584D01*
X662796Y-142520D01*
Y-142447D01*
X662787Y-142365D01*
X662760Y-142174D01*
X662714Y-141964D01*
X662651Y-141755D01*
X662560Y-141545D01*
X662505Y-141445D01*
X662441Y-141363D01*
Y-141354D01*
X662423Y-141345D01*
X662377Y-141290D01*
X662304Y-141226D01*
X662204Y-141144D01*
X662077Y-141062D01*
X661931Y-140989D01*
X661767Y-140944D01*
X661676Y-140935D01*
X661585Y-140926D01*
D02*
G37*
G36*
X675787Y-142693D02*
X675778D01*
X675769Y-142702D01*
X675742Y-142711D01*
X675705Y-142720D01*
X675660Y-142739D01*
X675605Y-142757D01*
X675541Y-142775D01*
X675468Y-142793D01*
X675386Y-142821D01*
X675286Y-142839D01*
X675186Y-142866D01*
X675068Y-142893D01*
X674940Y-142921D01*
X674813Y-142948D01*
X674667Y-142966D01*
X674512Y-142994D01*
X674494D01*
X674439Y-143003D01*
X674348Y-143021D01*
X674248Y-143039D01*
X674138Y-143057D01*
X674029Y-143085D01*
X673929Y-143112D01*
X673838Y-143149D01*
X673829D01*
X673801Y-143167D01*
X673765Y-143185D01*
X673728Y-143212D01*
X673619Y-143285D01*
X673528Y-143394D01*
Y-143404D01*
X673510Y-143422D01*
X673501Y-143458D01*
X673482Y-143504D01*
X673464Y-143559D01*
X673446Y-143613D01*
X673437Y-143686D01*
X673428Y-143759D01*
Y-143768D01*
Y-143814D01*
X673437Y-143868D01*
X673455Y-143941D01*
X673482Y-144023D01*
X673528Y-144105D01*
X673583Y-144196D01*
X673656Y-144278D01*
X673665Y-144287D01*
X673701Y-144306D01*
X673756Y-144342D01*
X673829Y-144378D01*
X673929Y-144415D01*
X674047Y-144451D01*
X674184Y-144469D01*
X674348Y-144479D01*
X674421D01*
X674512Y-144469D01*
X674612Y-144451D01*
X674740Y-144433D01*
X674867Y-144397D01*
X675004Y-144351D01*
X675140Y-144287D01*
X675159Y-144278D01*
X675195Y-144251D01*
X675259Y-144205D01*
X675332Y-144141D01*
X675414Y-144069D01*
X675505Y-143977D01*
X675578Y-143868D01*
X675651Y-143750D01*
X675660Y-143741D01*
X675669Y-143704D01*
X675687Y-143640D01*
X675714Y-143559D01*
X675742Y-143449D01*
X675760Y-143322D01*
X675769Y-143167D01*
X675778Y-142984D01*
X675787Y-142693D01*
D02*
G37*
G36*
X669729Y-139432D02*
X667925D01*
Y-141682D01*
X669620D01*
X669684Y-141673D01*
X669747D01*
X669820Y-141664D01*
X669993Y-141645D01*
X670185Y-141609D01*
X670376Y-141554D01*
X670549Y-141481D01*
X670631Y-141436D01*
X670695Y-141381D01*
X670713Y-141363D01*
X670749Y-141326D01*
X670804Y-141254D01*
X670868Y-141163D01*
X670932Y-141044D01*
X670986Y-140898D01*
X671023Y-140734D01*
X671041Y-140543D01*
Y-140534D01*
Y-140525D01*
Y-140479D01*
X671032Y-140397D01*
X671014Y-140306D01*
X670995Y-140206D01*
X670959Y-140088D01*
X670904Y-139978D01*
X670841Y-139869D01*
X670831Y-139860D01*
X670804Y-139823D01*
X670758Y-139778D01*
X670704Y-139714D01*
X670622Y-139650D01*
X670531Y-139596D01*
X670431Y-139541D01*
X670312Y-139495D01*
X670303D01*
X670267Y-139486D01*
X670212Y-139477D01*
X670139Y-139459D01*
X670030Y-139450D01*
X669893Y-139441D01*
X669729Y-139432D01*
D02*
G37*
G36*
X686501Y-140953D02*
X686446D01*
X686410Y-140962D01*
X686309Y-140971D01*
X686191Y-140999D01*
X686045Y-141044D01*
X685890Y-141108D01*
X685744Y-141199D01*
X685599Y-141317D01*
X685580Y-141336D01*
X685544Y-141381D01*
X685480Y-141463D01*
X685417Y-141572D01*
X685344Y-141700D01*
X685280Y-141864D01*
X685225Y-142055D01*
X685198Y-142265D01*
X687758D01*
Y-142256D01*
Y-142237D01*
X687749Y-142210D01*
Y-142174D01*
X687731Y-142064D01*
X687703Y-141946D01*
X687658Y-141800D01*
X687612Y-141664D01*
X687539Y-141527D01*
X687457Y-141409D01*
Y-141399D01*
X687439Y-141390D01*
X687393Y-141336D01*
X687311Y-141263D01*
X687202Y-141181D01*
X687065Y-141099D01*
X686902Y-141026D01*
X686710Y-140971D01*
X686610Y-140962D01*
X686501Y-140953D01*
D02*
G37*
G36*
X656583D02*
X656529D01*
X656483Y-140962D01*
X656383Y-140971D01*
X656246Y-141008D01*
X656091Y-141062D01*
X655928Y-141135D01*
X655773Y-141244D01*
X655691Y-141317D01*
X655618Y-141390D01*
Y-141399D01*
X655599Y-141409D01*
X655581Y-141436D01*
X655554Y-141472D01*
X655527Y-141518D01*
X655499Y-141572D01*
X655463Y-141645D01*
X655426Y-141718D01*
X655390Y-141809D01*
X655353Y-141901D01*
X655326Y-142010D01*
X655299Y-142128D01*
X655271Y-142256D01*
X655253Y-142392D01*
X655244Y-142547D01*
X655235Y-142702D01*
Y-142711D01*
Y-142739D01*
Y-142784D01*
X655244Y-142848D01*
Y-142921D01*
X655253Y-143003D01*
X655281Y-143194D01*
X655326Y-143413D01*
X655399Y-143631D01*
X655490Y-143841D01*
X655554Y-143932D01*
X655618Y-144023D01*
X655627D01*
X655636Y-144041D01*
X655691Y-144087D01*
X655773Y-144160D01*
X655882Y-144233D01*
X656019Y-144315D01*
X656182Y-144387D01*
X656374Y-144433D01*
X656474Y-144442D01*
X656583Y-144451D01*
X656638D01*
X656684Y-144442D01*
X656784Y-144424D01*
X656920Y-144397D01*
X657066Y-144342D01*
X657230Y-144269D01*
X657385Y-144160D01*
X657467Y-144087D01*
X657540Y-144014D01*
X657549Y-144005D01*
X657558Y-143996D01*
X657576Y-143968D01*
X657604Y-143932D01*
X657631Y-143886D01*
X657667Y-143832D01*
X657704Y-143759D01*
X657740Y-143686D01*
X657777Y-143595D01*
X657804Y-143495D01*
X657841Y-143385D01*
X657868Y-143267D01*
X657895Y-143130D01*
X657913Y-142994D01*
X657932Y-142839D01*
Y-142675D01*
Y-142666D01*
Y-142638D01*
Y-142593D01*
X657923Y-142538D01*
Y-142465D01*
X657913Y-142383D01*
X657886Y-142192D01*
X657841Y-141992D01*
X657768Y-141773D01*
X657667Y-141572D01*
X657613Y-141472D01*
X657540Y-141390D01*
Y-141381D01*
X657522Y-141372D01*
X657467Y-141317D01*
X657385Y-141254D01*
X657276Y-141172D01*
X657139Y-141090D01*
X656975Y-141017D01*
X656793Y-140971D01*
X656693Y-140962D01*
X656583Y-140953D01*
D02*
G37*
%LPD*%
D11*
X40Y18031D02*
G03*
X11317Y6947I11796J722D01*
G01*
X29279Y2252D02*
G03*
X21524Y6947I-10086J-7908D01*
G01*
X29279Y2252D02*
G03*
X34488Y-72I4950J4095D01*
G01*
X311967Y-72D02*
G03*
X327284Y8149I575J17307D01*
G01*
X348242Y14356D02*
G03*
X361631Y27952I-102J13490D01*
G01*
X339435Y14356D02*
G03*
X327284Y8149I-253J-14503D01*
G01*
X361631Y319610D02*
G03*
X349410Y331905I-12330J-35D01*
G01*
X326575Y341338D02*
G03*
X338899Y331927I13326J4677D01*
G01*
X326575Y341220D02*
G03*
X314725Y349881I-12571J-4763D01*
G01*
X14449D02*
G03*
X45Y335005I609J-15002D01*
G01*
X11317Y6947D02*
X21524D01*
X34488Y-72D02*
X311967Y-72D01*
X339182Y14356D02*
X348242D01*
X361631Y27952D02*
X361631Y319610D01*
X338899Y331927D02*
X349301D01*
X16575Y349881D02*
X314725D01*
X14449D02*
X16575D01*
X40Y18031D02*
Y334880D01*
D17*
X314276Y9350D02*
D03*
X259748D02*
D03*
X39079Y342307D02*
D03*
X93606D02*
D03*
D18*
X304236Y20177D02*
D03*
X299315D02*
D03*
X294394D02*
D03*
X289472D02*
D03*
X284551D02*
D03*
X279630D02*
D03*
X274709D02*
D03*
X269787D02*
D03*
X49118Y331480D02*
D03*
X54039D02*
D03*
X58961D02*
D03*
X63882D02*
D03*
X68803D02*
D03*
X73724D02*
D03*
X78646D02*
D03*
X83567D02*
D03*
M02*
