G04*
G04 #@! TF.GenerationSoftware,Altium Limited,Altium Designer,18.1.7 (191)*
G04*
G04 Layer_Physical_Order=2*
G04 Layer_Color=16711680*
%FSLAX25Y25*%
%MOIN*%
G70*
G01*
G75*
%ADD11C,0.01000*%
%ADD13C,0.00787*%
%ADD26C,0.10827*%
%ADD27C,0.03000*%
%ADD28C,0.06102*%
%ADD29R,0.06102X0.06102*%
%ADD30C,0.23622*%
%ADD31C,0.02362*%
%ADD32R,0.07087X0.04528*%
%ADD33R,0.15748X0.19685*%
G36*
X28776Y267169D02*
X29022Y266669D01*
X28670Y266211D01*
X28350Y265437D01*
X28240Y264606D01*
X28350Y263776D01*
X28670Y263002D01*
X29180Y262337D01*
X29844Y261828D01*
X30618Y261507D01*
X31449Y261398D01*
X32279Y261507D01*
X33053Y261828D01*
X33352Y262057D01*
X55768D01*
Y261870D01*
X64854D01*
Y267169D01*
X70298Y267169D01*
X70469Y266669D01*
X69475Y265047D01*
X68703Y263184D01*
X68232Y261223D01*
X68074Y259213D01*
X68232Y257202D01*
X68703Y255241D01*
X69475Y253379D01*
X70528Y251659D01*
X71838Y250126D01*
X73371Y248816D01*
X75091Y247763D01*
X76954Y246991D01*
X78914Y246520D01*
X80925Y246362D01*
X82935Y246520D01*
X84896Y246991D01*
X86759Y247763D01*
X88201Y248646D01*
X88701Y248366D01*
Y228942D01*
X88201Y228868D01*
X88064Y229320D01*
X87422Y230521D01*
X86558Y231574D01*
X85505Y232437D01*
X84304Y233079D01*
X83001Y233475D01*
X82896Y233485D01*
Y226661D01*
Y219838D01*
X83001Y219848D01*
X84304Y220243D01*
X85505Y220885D01*
X86558Y221749D01*
X87422Y222802D01*
X88064Y224003D01*
X88201Y224455D01*
X88701Y224381D01*
Y208942D01*
X88201Y208868D01*
X88064Y209320D01*
X87422Y210521D01*
X86558Y211574D01*
X85505Y212438D01*
X84304Y213079D01*
X83001Y213475D01*
X82896Y213485D01*
Y206661D01*
Y199838D01*
X83001Y199848D01*
X84304Y200243D01*
X85505Y200885D01*
X86558Y201749D01*
X87422Y202802D01*
X88064Y204003D01*
X88201Y204455D01*
X88701Y204381D01*
Y189240D01*
X88201Y188960D01*
X86759Y189844D01*
X84896Y190615D01*
X82935Y191086D01*
X80925Y191244D01*
X78914Y191086D01*
X76954Y190615D01*
X75091Y189844D01*
X73371Y188790D01*
X71838Y187480D01*
X70528Y185947D01*
X69475Y184228D01*
X68703Y182365D01*
X68232Y180404D01*
X68074Y178394D01*
X68232Y176383D01*
X68703Y174423D01*
X69475Y172560D01*
X70528Y170840D01*
X71838Y169307D01*
X73371Y167997D01*
X75091Y166944D01*
X76954Y166172D01*
X78914Y165701D01*
X80925Y165543D01*
X82935Y165701D01*
X84896Y166172D01*
X86759Y166944D01*
X88201Y167827D01*
X88701Y167547D01*
Y146367D01*
X88201Y146293D01*
X88064Y146745D01*
X87422Y147946D01*
X86558Y148999D01*
X85505Y149863D01*
X84304Y150505D01*
X83001Y150900D01*
X82896Y150910D01*
Y144087D01*
Y137263D01*
X83001Y137273D01*
X84304Y137669D01*
X85505Y138311D01*
X86558Y139174D01*
X87422Y140227D01*
X88064Y141428D01*
X88201Y141880D01*
X88701Y141806D01*
Y126367D01*
X88201Y126293D01*
X88064Y126745D01*
X87422Y127946D01*
X86558Y128999D01*
X85505Y129863D01*
X84304Y130505D01*
X83001Y130900D01*
X82896Y130910D01*
Y124087D01*
Y117263D01*
X83001Y117273D01*
X84304Y117669D01*
X85505Y118310D01*
X86558Y119175D01*
X87422Y120227D01*
X88064Y121428D01*
X88201Y121880D01*
X88701Y121806D01*
Y102441D01*
X88201Y102161D01*
X86759Y103044D01*
X84896Y103816D01*
X82935Y104287D01*
X80925Y104445D01*
X78914Y104287D01*
X76954Y103816D01*
X75091Y103044D01*
X73371Y101991D01*
X71838Y100681D01*
X70528Y99148D01*
X69475Y97429D01*
X68703Y95565D01*
X68232Y93605D01*
X68074Y91594D01*
X68166Y90426D01*
X67827Y90059D01*
X58328D01*
X58240Y90077D01*
X53675D01*
X53376Y90306D01*
X52602Y90627D01*
X51772Y90736D01*
X50941Y90627D01*
X50506Y90447D01*
X26461Y114492D01*
X23591D01*
X23431Y114966D01*
X23478Y115002D01*
X24208Y115953D01*
X24641Y116998D01*
X20232D01*
X15824D01*
X16257Y115953D01*
X16986Y115002D01*
X17034Y114966D01*
X16873Y114492D01*
X13591D01*
X13431Y114966D01*
X13478Y115002D01*
X14208Y115953D01*
X14641Y116998D01*
X10232D01*
X5824D01*
X6257Y115953D01*
X6986Y115002D01*
X7034Y114966D01*
X6873Y114492D01*
X3403D01*
Y132268D01*
X7173Y132268D01*
X7343Y131768D01*
X6986Y131494D01*
X6257Y130543D01*
X5824Y129498D01*
X10232D01*
X14641D01*
X14208Y130543D01*
X13478Y131494D01*
X13122Y131768D01*
X13291Y132268D01*
X17173Y132268D01*
X17343Y131768D01*
X16986Y131494D01*
X16257Y130543D01*
X15824Y129498D01*
X20232D01*
X24641D01*
X24208Y130543D01*
X23478Y131494D01*
X23122Y131768D01*
X23291Y132268D01*
X28661Y132268D01*
X28661Y166768D01*
X16622Y178807D01*
X16622Y267169D01*
X28776D01*
D02*
G37*
G36*
X144205Y2853D02*
X36272D01*
X35859Y2853D01*
X35778Y2837D01*
X35284Y2851D01*
X34292Y2981D01*
X33059Y3492D01*
X32013Y4294D01*
X31891Y4478D01*
X29897Y6471D01*
X29641Y6728D01*
X29616Y6766D01*
X29537Y6818D01*
X29531Y6812D01*
X29437Y6875D01*
X28490Y7683D01*
X26981Y8608D01*
X25345Y9286D01*
X23624Y9699D01*
X22176Y9813D01*
X22013Y10231D01*
X22016Y10334D01*
X22252Y10535D01*
X23562Y12069D01*
X24615Y13788D01*
X25387Y15651D01*
X25858Y17612D01*
X26016Y19622D01*
X25858Y21632D01*
X25387Y23593D01*
X24615Y25456D01*
X23562Y27176D01*
X22252Y28709D01*
X20719Y30018D01*
X18999Y31072D01*
X17136Y31844D01*
X15176Y32315D01*
X13165Y32473D01*
X11155Y32315D01*
X9194Y31844D01*
X7331Y31072D01*
X5612Y30018D01*
X4079Y28709D01*
X3872Y28467D01*
X3403Y28640D01*
X3403Y112023D01*
X6899Y112023D01*
X7059Y111550D01*
X6986Y111494D01*
X6257Y110543D01*
X5824Y109498D01*
X10232D01*
X14641D01*
X14208Y110543D01*
X13478Y111494D01*
X13405Y111550D01*
X13566Y112024D01*
X16899Y112024D01*
X17060Y111550D01*
X16986Y111494D01*
X16257Y110543D01*
X15824Y109498D01*
X20232D01*
Y108248D01*
X21482D01*
Y103840D01*
X22527Y104273D01*
X23478Y105002D01*
X24208Y105953D01*
X24666Y107060D01*
X24823Y108248D01*
X24709Y109116D01*
X25182Y109350D01*
X53031Y81500D01*
X73018Y81500D01*
X73371Y81198D01*
X75091Y80145D01*
X76954Y79373D01*
X78914Y78902D01*
X80925Y78744D01*
X82935Y78902D01*
X84896Y79373D01*
X86759Y80145D01*
X88478Y81198D01*
X90012Y82508D01*
X91321Y84041D01*
X92375Y85760D01*
X93147Y87623D01*
X93617Y89584D01*
X93775Y91594D01*
X93735Y92113D01*
X93759Y92137D01*
X93825Y258930D01*
X93758Y258996D01*
X93775Y259213D01*
X93617Y261223D01*
X93147Y263184D01*
X92375Y265047D01*
X91321Y266766D01*
X90012Y268299D01*
X88478Y269609D01*
X86759Y270663D01*
X84896Y271434D01*
X82935Y271905D01*
X80925Y272063D01*
X80668Y272043D01*
X80628Y272083D01*
X16622Y272083D01*
X16621Y288269D01*
X64508Y338421D01*
X144205Y338421D01*
X144205Y2853D01*
D02*
G37*
G36*
X16426Y347930D02*
X314382D01*
X314477Y347949D01*
X314689Y347966D01*
X316366Y347834D01*
X318003Y347441D01*
X319557Y346797D01*
X320992Y345918D01*
X322272Y344825D01*
X323365Y343545D01*
X324244Y342110D01*
X324640Y341155D01*
X324786Y340782D01*
X324793Y340749D01*
X324809Y340725D01*
X324809Y340725D01*
X324880Y340619D01*
X325787Y338780D01*
X327106Y336805D01*
X328673Y335018D01*
X330459Y333452D01*
X332434Y332132D01*
X334565Y331082D01*
X336814Y330318D01*
X339144Y329854D01*
X341136Y329724D01*
X341515Y329699D01*
X341622Y329692D01*
X341731Y329612D01*
X341775Y328992D01*
X341346Y328626D01*
X340037Y327093D01*
X338983Y325373D01*
X338211Y323510D01*
X337741Y321550D01*
X337582Y319539D01*
X337741Y317529D01*
X338211Y315568D01*
X338983Y313705D01*
X340037Y311986D01*
X341346Y310453D01*
X342880Y309143D01*
X344599Y308089D01*
X346462Y307318D01*
X348423Y306847D01*
X350433Y306689D01*
X352443Y306847D01*
X354404Y307318D01*
X356267Y308089D01*
X357986Y309143D01*
X359520Y310453D01*
X359551Y310489D01*
X360020Y310316D01*
X360020Y38723D01*
X359717Y38611D01*
X359520Y38581D01*
X358022Y39861D01*
X356303Y40915D01*
X354440Y41686D01*
X352479Y42157D01*
X350468Y42315D01*
X348458Y42157D01*
X346497Y41686D01*
X344634Y40915D01*
X342915Y39861D01*
X341382Y38551D01*
X340072Y37018D01*
X339019Y35299D01*
X338247Y33436D01*
X337776Y31475D01*
X337618Y29465D01*
X337776Y27454D01*
X338247Y25493D01*
X339019Y23630D01*
X340072Y21911D01*
X341382Y20378D01*
X342915Y19068D01*
X344634Y18015D01*
X345164Y17795D01*
X345066Y17305D01*
X339709D01*
X339633Y17290D01*
X337381Y17113D01*
X335004Y16542D01*
X332746Y15607D01*
X330662Y14329D01*
X328803Y12742D01*
X327323Y11009D01*
X327315Y11003D01*
X327302Y10984D01*
X327216Y10883D01*
X327198Y10855D01*
X322312Y5440D01*
X321201Y4528D01*
X319442Y3588D01*
X317533Y3008D01*
X316129Y2870D01*
X315633Y2857D01*
D01*
X315133Y2853D01*
X149068D01*
X148715Y3207D01*
X148779Y342961D01*
X61252Y342961D01*
X11323Y293032D01*
X11323Y177520D01*
X24417Y164425D01*
X24417Y144220D01*
X24417Y141092D01*
X23917Y140922D01*
X23478Y141494D01*
X22527Y142224D01*
X21482Y142656D01*
Y138248D01*
X20232D01*
Y136998D01*
X15824D01*
X16257Y135953D01*
X16903Y135110D01*
X16741Y134610D01*
X13723D01*
X13561Y135110D01*
X14208Y135953D01*
X14641Y136998D01*
X10232D01*
X5824D01*
X6257Y135953D01*
X6903Y135110D01*
X6741Y134610D01*
X3403Y134610D01*
X3403Y325663D01*
X3872Y325836D01*
X4079Y325594D01*
X5612Y324285D01*
X7331Y323231D01*
X9194Y322459D01*
X11155Y321989D01*
X13165Y321831D01*
X15176Y321989D01*
X17136Y322459D01*
X18999Y323231D01*
X20719Y324285D01*
X22252Y325594D01*
X23562Y327128D01*
X24615Y328847D01*
X25387Y330710D01*
X25858Y332671D01*
X26016Y334681D01*
X25858Y336691D01*
X25387Y338652D01*
X24615Y340515D01*
X23562Y342234D01*
X22252Y343768D01*
X20719Y345077D01*
X18999Y346131D01*
X17136Y346903D01*
X15176Y347374D01*
X14965Y347390D01*
Y347892D01*
X16150Y347985D01*
X16426Y347930D01*
D02*
G37*
G36*
X699673Y-140876D02*
X699773Y-140894D01*
X699892Y-140930D01*
X700019Y-140976D01*
X700165Y-141040D01*
X700320Y-141122D01*
X700037Y-141832D01*
X700028Y-141823D01*
X699992Y-141805D01*
X699937Y-141778D01*
X699864Y-141750D01*
X699782Y-141723D01*
X699682Y-141695D01*
X699582Y-141677D01*
X699482Y-141668D01*
X699436D01*
X699391Y-141677D01*
X699327Y-141686D01*
X699263Y-141705D01*
X699181Y-141732D01*
X699099Y-141768D01*
X699026Y-141823D01*
X699017Y-141832D01*
X698990Y-141850D01*
X698962Y-141887D01*
X698917Y-141932D01*
X698871Y-141996D01*
X698826Y-142069D01*
X698780Y-142151D01*
X698744Y-142251D01*
X698735Y-142269D01*
X698726Y-142324D01*
X698707Y-142406D01*
X698680Y-142515D01*
X698653Y-142652D01*
X698634Y-142807D01*
X698625Y-142971D01*
X698616Y-143153D01*
Y-145540D01*
X697842D01*
Y-140967D01*
X698543D01*
Y-141659D01*
X698553Y-141650D01*
X698589Y-141586D01*
X698634Y-141504D01*
X698707Y-141404D01*
X698780Y-141304D01*
X698862Y-141194D01*
X698944Y-141103D01*
X699026Y-141031D01*
X699035Y-141021D01*
X699063Y-141003D01*
X699117Y-140976D01*
X699172Y-140948D01*
X699245Y-140921D01*
X699336Y-140894D01*
X699427Y-140876D01*
X699527Y-140866D01*
X699591D01*
X699673Y-140876D01*
D02*
G37*
G36*
X673837D02*
X673901D01*
X673965Y-140885D01*
X674120Y-140912D01*
X674284Y-140958D01*
X674457Y-141031D01*
X674630Y-141122D01*
X674775Y-141249D01*
X674794Y-141267D01*
X674830Y-141322D01*
X674894Y-141404D01*
X674921Y-141468D01*
X674958Y-141532D01*
X674994Y-141613D01*
X675021Y-141695D01*
X675058Y-141787D01*
X675085Y-141896D01*
X675103Y-142005D01*
X675122Y-142133D01*
X675140Y-142260D01*
Y-142406D01*
Y-145540D01*
X674365D01*
Y-142670D01*
Y-142661D01*
Y-142652D01*
Y-142597D01*
Y-142515D01*
X674356Y-142415D01*
X674347Y-142306D01*
X674338Y-142197D01*
X674320Y-142087D01*
X674293Y-142005D01*
Y-141996D01*
X674274Y-141969D01*
X674256Y-141932D01*
X674229Y-141887D01*
X674192Y-141832D01*
X674147Y-141778D01*
X674092Y-141723D01*
X674019Y-141668D01*
X674010Y-141659D01*
X673983Y-141650D01*
X673946Y-141632D01*
X673883Y-141604D01*
X673819Y-141577D01*
X673737Y-141559D01*
X673655Y-141550D01*
X673555Y-141541D01*
X673509D01*
X673473Y-141550D01*
X673382Y-141559D01*
X673272Y-141577D01*
X673145Y-141623D01*
X673008Y-141677D01*
X672871Y-141759D01*
X672744Y-141869D01*
X672735Y-141887D01*
X672698Y-141932D01*
X672644Y-142005D01*
X672589Y-142115D01*
X672525Y-142260D01*
X672480Y-142433D01*
X672443Y-142643D01*
X672425Y-142889D01*
Y-145540D01*
X671651D01*
Y-142579D01*
Y-142570D01*
Y-142552D01*
Y-142534D01*
Y-142497D01*
X671642Y-142397D01*
X671623Y-142288D01*
X671605Y-142160D01*
X671569Y-142033D01*
X671523Y-141914D01*
X671459Y-141805D01*
X671450Y-141796D01*
X671423Y-141759D01*
X671377Y-141723D01*
X671314Y-141668D01*
X671232Y-141623D01*
X671122Y-141577D01*
X670995Y-141550D01*
X670840Y-141541D01*
X670785D01*
X670721Y-141550D01*
X670649Y-141559D01*
X670557Y-141586D01*
X670448Y-141613D01*
X670348Y-141659D01*
X670239Y-141714D01*
X670229Y-141723D01*
X670193Y-141750D01*
X670148Y-141787D01*
X670084Y-141841D01*
X670020Y-141914D01*
X669956Y-142005D01*
X669892Y-142105D01*
X669838Y-142224D01*
X669829Y-142242D01*
X669820Y-142288D01*
X669801Y-142360D01*
X669774Y-142461D01*
X669747Y-142597D01*
X669729Y-142761D01*
X669719Y-142953D01*
X669710Y-143171D01*
Y-145540D01*
X668936D01*
Y-140967D01*
X669628D01*
Y-141623D01*
X669637Y-141604D01*
X669665Y-141568D01*
X669719Y-141504D01*
X669783Y-141431D01*
X669865Y-141340D01*
X669965Y-141249D01*
X670075Y-141158D01*
X670202Y-141076D01*
X670220Y-141067D01*
X670266Y-141040D01*
X670339Y-141012D01*
X670439Y-140967D01*
X670557Y-140930D01*
X670694Y-140903D01*
X670849Y-140876D01*
X671013Y-140866D01*
X671095D01*
X671195Y-140876D01*
X671305Y-140894D01*
X671441Y-140921D01*
X671578Y-140958D01*
X671714Y-141012D01*
X671842Y-141085D01*
X671860Y-141094D01*
X671897Y-141122D01*
X671951Y-141167D01*
X672024Y-141240D01*
X672097Y-141322D01*
X672179Y-141422D01*
X672252Y-141541D01*
X672307Y-141677D01*
X672316Y-141668D01*
X672334Y-141641D01*
X672361Y-141604D01*
X672407Y-141550D01*
X672462Y-141486D01*
X672525Y-141422D01*
X672598Y-141349D01*
X672689Y-141267D01*
X672789Y-141194D01*
X672890Y-141122D01*
X673008Y-141058D01*
X673136Y-140994D01*
X673272Y-140939D01*
X673418Y-140903D01*
X673564Y-140876D01*
X673728Y-140866D01*
X673792D01*
X673837Y-140876D01*
D02*
G37*
G36*
X690545Y-145613D02*
Y-145622D01*
X690536Y-145649D01*
X690518Y-145686D01*
X690499Y-145731D01*
X690472Y-145795D01*
X690445Y-145868D01*
X690381Y-146023D01*
X690317Y-146196D01*
X690244Y-146369D01*
X690171Y-146524D01*
X690135Y-146588D01*
X690107Y-146651D01*
X690098Y-146670D01*
X690071Y-146715D01*
X690026Y-146779D01*
X689971Y-146861D01*
X689898Y-146952D01*
X689816Y-147043D01*
X689734Y-147134D01*
X689634Y-147207D01*
X689625Y-147216D01*
X689588Y-147234D01*
X689534Y-147262D01*
X689452Y-147298D01*
X689361Y-147335D01*
X689251Y-147362D01*
X689133Y-147380D01*
X688996Y-147389D01*
X688960D01*
X688914Y-147380D01*
X688850D01*
X688777Y-147362D01*
X688695Y-147344D01*
X688604Y-147326D01*
X688504Y-147289D01*
X688422Y-146569D01*
X688431D01*
X688468Y-146579D01*
X688513Y-146588D01*
X688568Y-146606D01*
X688714Y-146633D01*
X688860Y-146642D01*
X688905D01*
X688951Y-146633D01*
X689005D01*
X689142Y-146606D01*
X689206Y-146579D01*
X689269Y-146551D01*
X689279D01*
X689297Y-146533D01*
X689324Y-146515D01*
X689361Y-146487D01*
X689442Y-146414D01*
X689515Y-146314D01*
Y-146305D01*
X689534Y-146287D01*
X689552Y-146250D01*
X689570Y-146196D01*
X689607Y-146123D01*
X689643Y-146014D01*
X689698Y-145886D01*
X689752Y-145731D01*
Y-145722D01*
X689771Y-145686D01*
X689789Y-145622D01*
X689825Y-145540D01*
X688094Y-140967D01*
X688914D01*
X689871Y-143618D01*
Y-143627D01*
X689880Y-143636D01*
X689889Y-143663D01*
X689898Y-143709D01*
X689916Y-143754D01*
X689934Y-143809D01*
X689980Y-143937D01*
X690035Y-144091D01*
X690089Y-144274D01*
X690144Y-144465D01*
X690199Y-144675D01*
Y-144665D01*
X690208Y-144647D01*
X690217Y-144620D01*
X690226Y-144583D01*
X690235Y-144538D01*
X690253Y-144483D01*
X690290Y-144346D01*
X690335Y-144192D01*
X690399Y-144009D01*
X690454Y-143827D01*
X690527Y-143636D01*
X691510Y-140967D01*
X692285D01*
X690545Y-145613D01*
D02*
G37*
G36*
X685771Y-140876D02*
X685908Y-140885D01*
X686063Y-140903D01*
X686218Y-140930D01*
X686372Y-140967D01*
X686518Y-141012D01*
X686536Y-141021D01*
X686582Y-141040D01*
X686646Y-141067D01*
X686728Y-141103D01*
X686819Y-141158D01*
X686910Y-141213D01*
X686992Y-141286D01*
X687065Y-141358D01*
X687074Y-141367D01*
X687092Y-141395D01*
X687119Y-141440D01*
X687156Y-141495D01*
X687201Y-141577D01*
X687238Y-141659D01*
X687274Y-141759D01*
X687302Y-141878D01*
Y-141887D01*
X687311Y-141914D01*
X687320Y-141969D01*
X687329Y-142042D01*
Y-142142D01*
X687338Y-142260D01*
X687347Y-142415D01*
Y-142588D01*
Y-143627D01*
Y-143636D01*
Y-143672D01*
Y-143727D01*
Y-143800D01*
Y-143882D01*
Y-143982D01*
X687356Y-144201D01*
Y-144429D01*
X687365Y-144656D01*
X687374Y-144756D01*
Y-144848D01*
X687384Y-144930D01*
X687393Y-144993D01*
Y-145002D01*
X687402Y-145039D01*
X687411Y-145094D01*
X687438Y-145166D01*
X687457Y-145248D01*
X687493Y-145340D01*
X687538Y-145440D01*
X687584Y-145540D01*
X686773D01*
X686764Y-145531D01*
X686755Y-145494D01*
X686737Y-145449D01*
X686709Y-145376D01*
X686682Y-145294D01*
X686664Y-145194D01*
X686646Y-145084D01*
X686627Y-144966D01*
X686618D01*
X686609Y-144984D01*
X686555Y-145030D01*
X686473Y-145094D01*
X686363Y-145176D01*
X686227Y-145257D01*
X686090Y-145349D01*
X685944Y-145431D01*
X685789Y-145494D01*
X685771Y-145503D01*
X685716Y-145513D01*
X685635Y-145540D01*
X685534Y-145567D01*
X685407Y-145595D01*
X685261Y-145613D01*
X685097Y-145631D01*
X684933Y-145640D01*
X684860D01*
X684805Y-145631D01*
X684742D01*
X684669Y-145622D01*
X684505Y-145595D01*
X684323Y-145549D01*
X684122Y-145485D01*
X683940Y-145394D01*
X683776Y-145276D01*
X683758Y-145257D01*
X683712Y-145212D01*
X683648Y-145130D01*
X683576Y-145021D01*
X683503Y-144884D01*
X683439Y-144729D01*
X683393Y-144538D01*
X683384Y-144447D01*
X683375Y-144337D01*
Y-144319D01*
Y-144283D01*
X683384Y-144219D01*
X683393Y-144137D01*
X683412Y-144037D01*
X683439Y-143937D01*
X683475Y-143827D01*
X683521Y-143727D01*
X683530Y-143718D01*
X683548Y-143682D01*
X683585Y-143627D01*
X683630Y-143563D01*
X683685Y-143490D01*
X683758Y-143417D01*
X683831Y-143344D01*
X683922Y-143281D01*
X683931Y-143272D01*
X683967Y-143253D01*
X684013Y-143217D01*
X684086Y-143180D01*
X684168Y-143144D01*
X684268Y-143098D01*
X684368Y-143062D01*
X684487Y-143026D01*
X684496D01*
X684532Y-143017D01*
X684587Y-142998D01*
X684660Y-142989D01*
X684751Y-142971D01*
X684869Y-142953D01*
X685006Y-142925D01*
X685170Y-142907D01*
X685179D01*
X685216Y-142898D01*
X685261D01*
X685325Y-142889D01*
X685398Y-142880D01*
X685489Y-142862D01*
X685589Y-142852D01*
X685698Y-142834D01*
X685917Y-142789D01*
X686154Y-142743D01*
X686363Y-142689D01*
X686463Y-142661D01*
X686555Y-142634D01*
Y-142625D01*
Y-142606D01*
X686564Y-142552D01*
Y-142488D01*
Y-142452D01*
Y-142433D01*
Y-142424D01*
Y-142415D01*
Y-142360D01*
X686555Y-142269D01*
X686536Y-142169D01*
X686509Y-142060D01*
X686463Y-141951D01*
X686409Y-141850D01*
X686336Y-141768D01*
X686327Y-141759D01*
X686281Y-141723D01*
X686208Y-141686D01*
X686117Y-141632D01*
X685990Y-141586D01*
X685844Y-141541D01*
X685662Y-141513D01*
X685452Y-141504D01*
X685361D01*
X685270Y-141513D01*
X685143Y-141532D01*
X685015Y-141550D01*
X684878Y-141586D01*
X684751Y-141632D01*
X684642Y-141695D01*
X684632Y-141705D01*
X684596Y-141732D01*
X684550Y-141778D01*
X684496Y-141850D01*
X684441Y-141941D01*
X684377Y-142060D01*
X684323Y-142206D01*
X684268Y-142370D01*
X683512Y-142269D01*
Y-142260D01*
X683521Y-142251D01*
Y-142224D01*
X683530Y-142187D01*
X683557Y-142105D01*
X683594Y-141987D01*
X683639Y-141869D01*
X683694Y-141741D01*
X683767Y-141613D01*
X683849Y-141495D01*
X683858Y-141486D01*
X683894Y-141449D01*
X683949Y-141395D01*
X684022Y-141322D01*
X684122Y-141249D01*
X684241Y-141176D01*
X684377Y-141094D01*
X684532Y-141031D01*
X684541D01*
X684550Y-141021D01*
X684578Y-141012D01*
X684614Y-141003D01*
X684705Y-140976D01*
X684833Y-140948D01*
X684979Y-140921D01*
X685161Y-140894D01*
X685352Y-140876D01*
X685571Y-140866D01*
X685671D01*
X685771Y-140876D01*
D02*
G37*
G36*
X679640Y-144793D02*
X682747D01*
Y-145540D01*
X678802D01*
Y-139236D01*
X679640D01*
Y-144793D01*
D02*
G37*
G36*
X650971Y-139245D02*
X651044D01*
X651208Y-139263D01*
X651390Y-139281D01*
X651581Y-139318D01*
X651773Y-139363D01*
X651946Y-139427D01*
X651955D01*
X651964Y-139436D01*
X652019Y-139464D01*
X652101Y-139509D01*
X652192Y-139573D01*
X652301Y-139655D01*
X652420Y-139755D01*
X652529Y-139883D01*
X652629Y-140019D01*
X652638Y-140038D01*
X652665Y-140092D01*
X652711Y-140165D01*
X652757Y-140274D01*
X652802Y-140402D01*
X652848Y-140539D01*
X652875Y-140693D01*
X652884Y-140848D01*
Y-140866D01*
Y-140912D01*
X652875Y-140994D01*
X652857Y-141094D01*
X652829Y-141213D01*
X652784Y-141340D01*
X652729Y-141468D01*
X652656Y-141604D01*
X652647Y-141623D01*
X652620Y-141659D01*
X652565Y-141732D01*
X652492Y-141805D01*
X652401Y-141896D01*
X652292Y-141996D01*
X652155Y-142087D01*
X652000Y-142178D01*
X652009D01*
X652028Y-142187D01*
X652055Y-142197D01*
X652092Y-142215D01*
X652201Y-142251D01*
X652328Y-142315D01*
X652465Y-142397D01*
X652620Y-142497D01*
X652757Y-142616D01*
X652884Y-142761D01*
X652893Y-142780D01*
X652930Y-142834D01*
X652984Y-142916D01*
X653039Y-143026D01*
X653094Y-143171D01*
X653148Y-143326D01*
X653185Y-143508D01*
X653194Y-143709D01*
Y-143718D01*
Y-143727D01*
Y-143782D01*
X653185Y-143873D01*
X653166Y-143982D01*
X653148Y-144110D01*
X653112Y-144246D01*
X653066Y-144392D01*
X653003Y-144538D01*
X652993Y-144556D01*
X652966Y-144602D01*
X652930Y-144665D01*
X652875Y-144756D01*
X652802Y-144848D01*
X652729Y-144948D01*
X652638Y-145048D01*
X652538Y-145130D01*
X652529Y-145139D01*
X652492Y-145166D01*
X652429Y-145203D01*
X652347Y-145239D01*
X652246Y-145294D01*
X652128Y-145349D01*
X652000Y-145394D01*
X651846Y-145440D01*
X651827D01*
X651773Y-145458D01*
X651682Y-145467D01*
X651563Y-145485D01*
X651417Y-145503D01*
X651244Y-145522D01*
X651053Y-145531D01*
X650834Y-145540D01*
X648429D01*
Y-139236D01*
X650907D01*
X650971Y-139245D01*
D02*
G37*
G36*
X662495Y-140967D02*
X663279D01*
Y-141568D01*
X662495D01*
Y-144255D01*
Y-144274D01*
Y-144310D01*
Y-144365D01*
X662504Y-144429D01*
X662513Y-144574D01*
X662523Y-144638D01*
X662532Y-144684D01*
X662541Y-144702D01*
X662568Y-144738D01*
X662604Y-144784D01*
X662668Y-144829D01*
X662686Y-144838D01*
X662732Y-144857D01*
X662814Y-144875D01*
X662932Y-144884D01*
X663024D01*
X663069Y-144875D01*
X663133D01*
X663206Y-144866D01*
X663279Y-144857D01*
X663379Y-145540D01*
X663361D01*
X663324Y-145549D01*
X663260Y-145558D01*
X663178Y-145567D01*
X663087Y-145586D01*
X662987Y-145595D01*
X662787Y-145604D01*
X662714D01*
X662641Y-145595D01*
X662550Y-145586D01*
X662440Y-145576D01*
X662331Y-145549D01*
X662231Y-145522D01*
X662131Y-145476D01*
X662122Y-145467D01*
X662094Y-145449D01*
X662058Y-145422D01*
X662003Y-145376D01*
X661958Y-145330D01*
X661903Y-145267D01*
X661848Y-145203D01*
X661812Y-145121D01*
Y-145112D01*
X661794Y-145075D01*
X661785Y-145011D01*
X661766Y-144920D01*
X661748Y-144802D01*
X661739Y-144729D01*
Y-144647D01*
X661730Y-144547D01*
X661721Y-144447D01*
Y-144337D01*
Y-144210D01*
Y-141568D01*
X661147D01*
Y-140967D01*
X661721D01*
Y-139837D01*
X662495Y-139373D01*
Y-140967D01*
D02*
G37*
G36*
X660044D02*
X660828D01*
Y-141568D01*
X660044D01*
Y-144255D01*
Y-144274D01*
Y-144310D01*
Y-144365D01*
X660054Y-144429D01*
X660063Y-144574D01*
X660072Y-144638D01*
X660081Y-144684D01*
X660090Y-144702D01*
X660117Y-144738D01*
X660154Y-144784D01*
X660218Y-144829D01*
X660236Y-144838D01*
X660281Y-144857D01*
X660363Y-144875D01*
X660482Y-144884D01*
X660573D01*
X660618Y-144875D01*
X660682D01*
X660755Y-144866D01*
X660828Y-144857D01*
X660928Y-145540D01*
X660910D01*
X660874Y-145549D01*
X660810Y-145558D01*
X660728Y-145567D01*
X660637Y-145586D01*
X660536Y-145595D01*
X660336Y-145604D01*
X660263D01*
X660190Y-145595D01*
X660099Y-145586D01*
X659990Y-145576D01*
X659881Y-145549D01*
X659780Y-145522D01*
X659680Y-145476D01*
X659671Y-145467D01*
X659644Y-145449D01*
X659607Y-145422D01*
X659553Y-145376D01*
X659507Y-145330D01*
X659452Y-145267D01*
X659398Y-145203D01*
X659361Y-145121D01*
Y-145112D01*
X659343Y-145075D01*
X659334Y-145011D01*
X659316Y-144920D01*
X659298Y-144802D01*
X659288Y-144729D01*
Y-144647D01*
X659279Y-144547D01*
X659270Y-144447D01*
Y-144337D01*
Y-144210D01*
Y-141568D01*
X658696D01*
Y-140967D01*
X659270D01*
Y-139837D01*
X660044Y-139373D01*
Y-140967D01*
D02*
G37*
G36*
X694972Y-140876D02*
X695045Y-140885D01*
X695136Y-140903D01*
X695236Y-140921D01*
X695355Y-140948D01*
X695464Y-140976D01*
X695592Y-141021D01*
X695710Y-141067D01*
X695838Y-141131D01*
X695965Y-141204D01*
X696093Y-141286D01*
X696211Y-141386D01*
X696321Y-141495D01*
X696330Y-141504D01*
X696348Y-141522D01*
X696375Y-141559D01*
X696412Y-141613D01*
X696457Y-141677D01*
X696503Y-141750D01*
X696557Y-141841D01*
X696612Y-141951D01*
X696667Y-142069D01*
X696721Y-142197D01*
X696767Y-142342D01*
X696812Y-142497D01*
X696849Y-142670D01*
X696876Y-142852D01*
X696895Y-143044D01*
X696904Y-143253D01*
Y-143262D01*
Y-143299D01*
Y-143363D01*
X696895Y-143454D01*
X693478D01*
Y-143463D01*
Y-143490D01*
X693487Y-143527D01*
Y-143581D01*
X693497Y-143645D01*
X693515Y-143718D01*
X693542Y-143882D01*
X693597Y-144064D01*
X693670Y-144264D01*
X693770Y-144447D01*
X693897Y-144611D01*
X693906D01*
X693916Y-144629D01*
X693970Y-144675D01*
X694052Y-144738D01*
X694162Y-144802D01*
X694307Y-144875D01*
X694471Y-144939D01*
X694653Y-144984D01*
X694754Y-144993D01*
X694863Y-145002D01*
X694936D01*
X695018Y-144993D01*
X695118Y-144975D01*
X695227Y-144948D01*
X695355Y-144911D01*
X695473Y-144857D01*
X695592Y-144784D01*
X695601Y-144775D01*
X695646Y-144738D01*
X695701Y-144684D01*
X695765Y-144611D01*
X695838Y-144510D01*
X695920Y-144383D01*
X696002Y-144237D01*
X696075Y-144064D01*
X696876Y-144164D01*
Y-144173D01*
X696867Y-144192D01*
X696858Y-144228D01*
X696840Y-144283D01*
X696812Y-144337D01*
X696785Y-144410D01*
X696712Y-144565D01*
X696621Y-144738D01*
X696494Y-144920D01*
X696348Y-145094D01*
X696166Y-145257D01*
X696157D01*
X696138Y-145276D01*
X696111Y-145294D01*
X696075Y-145321D01*
X696020Y-145349D01*
X695965Y-145376D01*
X695892Y-145412D01*
X695810Y-145449D01*
X695719Y-145485D01*
X695628Y-145522D01*
X695400Y-145576D01*
X695145Y-145622D01*
X694863Y-145640D01*
X694763D01*
X694699Y-145631D01*
X694617Y-145622D01*
X694517Y-145604D01*
X694407Y-145586D01*
X694289Y-145567D01*
X694034Y-145494D01*
X693897Y-145440D01*
X693770Y-145385D01*
X693633Y-145312D01*
X693506Y-145230D01*
X693387Y-145139D01*
X693269Y-145030D01*
X693260Y-145021D01*
X693241Y-145002D01*
X693214Y-144966D01*
X693178Y-144911D01*
X693132Y-144848D01*
X693086Y-144775D01*
X693032Y-144684D01*
X692977Y-144583D01*
X692922Y-144465D01*
X692868Y-144337D01*
X692822Y-144192D01*
X692777Y-144037D01*
X692740Y-143873D01*
X692713Y-143691D01*
X692695Y-143499D01*
X692686Y-143299D01*
Y-143290D01*
Y-143244D01*
Y-143190D01*
X692695Y-143107D01*
X692704Y-143007D01*
X692713Y-142898D01*
X692731Y-142771D01*
X692759Y-142643D01*
X692831Y-142351D01*
X692877Y-142206D01*
X692932Y-142051D01*
X693005Y-141905D01*
X693086Y-141768D01*
X693178Y-141632D01*
X693278Y-141504D01*
X693287Y-141495D01*
X693305Y-141477D01*
X693342Y-141449D01*
X693387Y-141404D01*
X693442Y-141358D01*
X693515Y-141304D01*
X693597Y-141240D01*
X693697Y-141185D01*
X693797Y-141122D01*
X693916Y-141067D01*
X694043Y-141012D01*
X694180Y-140967D01*
X694325Y-140921D01*
X694480Y-140894D01*
X694644Y-140876D01*
X694817Y-140866D01*
X694909D01*
X694972Y-140876D01*
D02*
G37*
G36*
X666048D02*
X666130Y-140885D01*
X666221Y-140903D01*
X666321Y-140921D01*
X666440Y-140939D01*
X666686Y-141021D01*
X666813Y-141067D01*
X666941Y-141131D01*
X667068Y-141194D01*
X667196Y-141286D01*
X667314Y-141377D01*
X667433Y-141486D01*
X667442Y-141495D01*
X667460Y-141513D01*
X667487Y-141550D01*
X667524Y-141595D01*
X667569Y-141659D01*
X667624Y-141741D01*
X667679Y-141832D01*
X667733Y-141932D01*
X667788Y-142042D01*
X667843Y-142178D01*
X667897Y-142315D01*
X667943Y-142470D01*
X667979Y-142634D01*
X668007Y-142807D01*
X668025Y-142989D01*
X668034Y-143190D01*
Y-143199D01*
Y-143226D01*
Y-143272D01*
Y-143335D01*
X668025Y-143408D01*
X668016Y-143499D01*
Y-143590D01*
X667998Y-143691D01*
X667970Y-143918D01*
X667916Y-144146D01*
X667852Y-144374D01*
X667761Y-144583D01*
Y-144592D01*
X667752Y-144602D01*
X667733Y-144629D01*
X667715Y-144665D01*
X667651Y-144756D01*
X667569Y-144866D01*
X667460Y-144993D01*
X667323Y-145121D01*
X667169Y-145248D01*
X666986Y-145367D01*
X666977D01*
X666968Y-145376D01*
X666941Y-145394D01*
X666895Y-145412D01*
X666850Y-145431D01*
X666795Y-145449D01*
X666658Y-145503D01*
X666503Y-145549D01*
X666312Y-145595D01*
X666112Y-145631D01*
X665893Y-145640D01*
X665802D01*
X665729Y-145631D01*
X665647Y-145622D01*
X665556Y-145604D01*
X665447Y-145586D01*
X665337Y-145567D01*
X665092Y-145494D01*
X664955Y-145440D01*
X664827Y-145385D01*
X664700Y-145312D01*
X664572Y-145230D01*
X664454Y-145139D01*
X664335Y-145030D01*
X664326Y-145021D01*
X664308Y-145002D01*
X664281Y-144966D01*
X664244Y-144911D01*
X664199Y-144848D01*
X664153Y-144775D01*
X664099Y-144684D01*
X664044Y-144574D01*
X663989Y-144456D01*
X663935Y-144319D01*
X663889Y-144173D01*
X663843Y-144019D01*
X663807Y-143845D01*
X663780Y-143663D01*
X663761Y-143463D01*
X663752Y-143253D01*
Y-143235D01*
Y-143199D01*
X663761Y-143135D01*
Y-143044D01*
X663770Y-142944D01*
X663789Y-142816D01*
X663807Y-142689D01*
X663843Y-142543D01*
X663880Y-142397D01*
X663925Y-142242D01*
X663980Y-142078D01*
X664053Y-141923D01*
X664126Y-141778D01*
X664226Y-141632D01*
X664326Y-141495D01*
X664454Y-141377D01*
X664463Y-141367D01*
X664481Y-141358D01*
X664517Y-141331D01*
X664563Y-141295D01*
X664618Y-141258D01*
X664691Y-141213D01*
X664763Y-141167D01*
X664855Y-141122D01*
X664955Y-141076D01*
X665064Y-141031D01*
X665310Y-140948D01*
X665592Y-140885D01*
X665738Y-140876D01*
X665893Y-140866D01*
X665984D01*
X666048Y-140876D01*
D02*
G37*
G36*
X656246D02*
X656328Y-140885D01*
X656419Y-140903D01*
X656519Y-140921D01*
X656637Y-140939D01*
X656883Y-141021D01*
X657011Y-141067D01*
X657138Y-141131D01*
X657266Y-141194D01*
X657394Y-141286D01*
X657512Y-141377D01*
X657630Y-141486D01*
X657640Y-141495D01*
X657658Y-141513D01*
X657685Y-141550D01*
X657722Y-141595D01*
X657767Y-141659D01*
X657822Y-141741D01*
X657876Y-141832D01*
X657931Y-141932D01*
X657986Y-142042D01*
X658040Y-142178D01*
X658095Y-142315D01*
X658141Y-142470D01*
X658177Y-142634D01*
X658204Y-142807D01*
X658222Y-142989D01*
X658232Y-143190D01*
Y-143199D01*
Y-143226D01*
Y-143272D01*
Y-143335D01*
X658222Y-143408D01*
X658213Y-143499D01*
Y-143590D01*
X658195Y-143691D01*
X658168Y-143918D01*
X658113Y-144146D01*
X658049Y-144374D01*
X657958Y-144583D01*
Y-144592D01*
X657949Y-144602D01*
X657931Y-144629D01*
X657913Y-144665D01*
X657849Y-144756D01*
X657767Y-144866D01*
X657658Y-144993D01*
X657521Y-145121D01*
X657366Y-145248D01*
X657184Y-145367D01*
X657175D01*
X657166Y-145376D01*
X657138Y-145394D01*
X657093Y-145412D01*
X657047Y-145431D01*
X656993Y-145449D01*
X656856Y-145503D01*
X656701Y-145549D01*
X656510Y-145595D01*
X656309Y-145631D01*
X656091Y-145640D01*
X656000D01*
X655927Y-145631D01*
X655845Y-145622D01*
X655754Y-145604D01*
X655644Y-145586D01*
X655535Y-145567D01*
X655289Y-145494D01*
X655153Y-145440D01*
X655025Y-145385D01*
X654897Y-145312D01*
X654770Y-145230D01*
X654651Y-145139D01*
X654533Y-145030D01*
X654524Y-145021D01*
X654506Y-145002D01*
X654478Y-144966D01*
X654442Y-144911D01*
X654396Y-144848D01*
X654351Y-144775D01*
X654296Y-144684D01*
X654242Y-144574D01*
X654187Y-144456D01*
X654132Y-144319D01*
X654087Y-144173D01*
X654041Y-144019D01*
X654005Y-143845D01*
X653977Y-143663D01*
X653959Y-143463D01*
X653950Y-143253D01*
Y-143235D01*
Y-143199D01*
X653959Y-143135D01*
Y-143044D01*
X653968Y-142944D01*
X653986Y-142816D01*
X654005Y-142689D01*
X654041Y-142543D01*
X654077Y-142397D01*
X654123Y-142242D01*
X654178Y-142078D01*
X654251Y-141923D01*
X654323Y-141778D01*
X654424Y-141632D01*
X654524Y-141495D01*
X654651Y-141377D01*
X654661Y-141367D01*
X654679Y-141358D01*
X654715Y-141331D01*
X654761Y-141295D01*
X654815Y-141258D01*
X654888Y-141213D01*
X654961Y-141167D01*
X655052Y-141122D01*
X655153Y-141076D01*
X655262Y-141031D01*
X655508Y-140948D01*
X655790Y-140885D01*
X655936Y-140876D01*
X656091Y-140866D01*
X656182D01*
X656246Y-140876D01*
D02*
G37*
%LPC*%
G36*
X64854Y256587D02*
X55768D01*
Y255498D01*
X36467D01*
X36167Y255728D01*
X35393Y256048D01*
X34563Y256157D01*
X33733Y256048D01*
X32959Y255728D01*
X32294Y255218D01*
X31784Y254553D01*
X31464Y253779D01*
X31354Y252949D01*
X31464Y252118D01*
X31784Y251344D01*
X32294Y250680D01*
X32959Y250170D01*
X33733Y249850D01*
X34563Y249740D01*
X35393Y249850D01*
X36167Y250170D01*
X36467Y250400D01*
X55768D01*
Y250059D01*
X64854D01*
Y256587D01*
D02*
G37*
G36*
X63360Y228004D02*
X57236D01*
Y221489D01*
X56765Y221321D01*
X56558Y221574D01*
X55505Y222438D01*
X54304Y223079D01*
X53001Y223475D01*
X52896Y223485D01*
Y216661D01*
Y209838D01*
X53001Y209848D01*
X54304Y210243D01*
X55505Y210885D01*
X56558Y211749D01*
X56765Y212002D01*
X57236Y211834D01*
Y205319D01*
X63360D01*
Y216662D01*
Y228004D01*
D02*
G37*
G36*
X80396Y233485D02*
X80290Y233475D01*
X78987Y233079D01*
X77786Y232437D01*
X76733Y231574D01*
X75870Y230521D01*
X75228Y229320D01*
X74832Y228017D01*
X74831Y228004D01*
X69860D01*
Y219912D01*
X75984D01*
Y221920D01*
X76455Y222089D01*
X76733Y221749D01*
X77786Y220885D01*
X78987Y220243D01*
X80290Y219848D01*
X80396Y219838D01*
Y226661D01*
Y233485D01*
D02*
G37*
G36*
X50396Y223485D02*
X50290Y223475D01*
X48987Y223079D01*
X47786Y222438D01*
X46733Y221574D01*
X45870Y220521D01*
X45228Y219320D01*
X44832Y218017D01*
X44822Y217911D01*
X50396D01*
Y223485D01*
D02*
G37*
G36*
X80396Y213485D02*
X80290Y213475D01*
X78987Y213079D01*
X77786Y212438D01*
X76733Y211574D01*
X76455Y211234D01*
X75984Y211403D01*
Y213411D01*
X69860D01*
Y205319D01*
X74831D01*
X74832Y205306D01*
X75228Y204003D01*
X75870Y202802D01*
X76733Y201749D01*
X77786Y200885D01*
X78987Y200243D01*
X80290Y199848D01*
X80396Y199838D01*
Y206661D01*
Y213485D01*
D02*
G37*
G36*
X50396Y215411D02*
X44822D01*
X44832Y215306D01*
X45228Y214003D01*
X45870Y212802D01*
X46733Y211749D01*
X47786Y210885D01*
X48987Y210243D01*
X50290Y209848D01*
X50396Y209838D01*
Y215411D01*
D02*
G37*
G36*
X25530Y208613D02*
Y205455D01*
X28688D01*
X28255Y206500D01*
X27525Y207451D01*
X26575Y208180D01*
X25530Y208613D01*
D02*
G37*
G36*
X23030Y208613D02*
X21984Y208180D01*
X21034Y207451D01*
X20304Y206500D01*
X19871Y205455D01*
X23030D01*
Y208613D01*
D02*
G37*
G36*
Y202955D02*
X19871D01*
X20304Y201909D01*
X21034Y200959D01*
X21984Y200229D01*
X23030Y199796D01*
Y202955D01*
D02*
G37*
G36*
X28688D02*
X25530D01*
Y199796D01*
X26575Y200229D01*
X27525Y200959D01*
X28255Y201909D01*
X28688Y202955D01*
D02*
G37*
G36*
X63360Y145429D02*
X57236D01*
Y138914D01*
X56765Y138746D01*
X56558Y138999D01*
X55505Y139863D01*
X54304Y140505D01*
X53001Y140900D01*
X52896Y140910D01*
Y134087D01*
Y127263D01*
X53001Y127273D01*
X54304Y127669D01*
X55505Y128311D01*
X56558Y129174D01*
X56765Y129428D01*
X57236Y129259D01*
Y122744D01*
X63360D01*
Y134087D01*
Y145429D01*
D02*
G37*
G36*
X80396Y150910D02*
X80290Y150900D01*
X78987Y150505D01*
X77786Y149863D01*
X76733Y148999D01*
X75870Y147946D01*
X75228Y146745D01*
X74832Y145442D01*
X74831Y145429D01*
X69860D01*
Y137337D01*
X75984D01*
Y139345D01*
X76455Y139514D01*
X76733Y139174D01*
X77786Y138311D01*
X78987Y137669D01*
X80290Y137273D01*
X80396Y137263D01*
Y144087D01*
Y150910D01*
D02*
G37*
G36*
X50396Y140910D02*
X50290Y140900D01*
X48987Y140505D01*
X47786Y139863D01*
X46733Y138999D01*
X45870Y137946D01*
X45228Y136745D01*
X44832Y135442D01*
X44822Y135337D01*
X50396D01*
Y140910D01*
D02*
G37*
G36*
X80396Y130910D02*
X80290Y130900D01*
X78987Y130505D01*
X77786Y129863D01*
X76733Y128999D01*
X76455Y128659D01*
X75984Y128828D01*
Y130837D01*
X69860D01*
Y122744D01*
X74831D01*
X74832Y122731D01*
X75228Y121428D01*
X75870Y120227D01*
X76733Y119175D01*
X77786Y118310D01*
X78987Y117669D01*
X80290Y117273D01*
X80396Y117263D01*
Y124087D01*
Y130910D01*
D02*
G37*
G36*
X50396Y132837D02*
X44822D01*
X44832Y132731D01*
X45228Y131428D01*
X45870Y130227D01*
X46733Y129174D01*
X47786Y128311D01*
X48987Y127669D01*
X50290Y127273D01*
X50396Y127263D01*
Y132837D01*
D02*
G37*
G36*
X18982Y126998D02*
X15824D01*
X16257Y125953D01*
X16986Y125002D01*
X17937Y124273D01*
X18982Y123840D01*
Y126998D01*
D02*
G37*
G36*
X8982D02*
X5824D01*
X6257Y125953D01*
X6986Y125002D01*
X7937Y124273D01*
X8982Y123840D01*
Y126998D01*
D02*
G37*
G36*
X24641D02*
X21482D01*
Y123840D01*
X22527Y124273D01*
X23478Y125002D01*
X24208Y125953D01*
X24641Y126998D01*
D02*
G37*
G36*
X14641D02*
X11482D01*
Y123840D01*
X12528Y124273D01*
X13478Y125002D01*
X14208Y125953D01*
X14641Y126998D01*
D02*
G37*
G36*
X21482Y122656D02*
Y119498D01*
X24641D01*
X24208Y120543D01*
X23478Y121494D01*
X22527Y122223D01*
X21482Y122656D01*
D02*
G37*
G36*
X11482D02*
Y119498D01*
X14641D01*
X14208Y120543D01*
X13478Y121494D01*
X12528Y122223D01*
X11482Y122656D01*
D02*
G37*
G36*
X18982D02*
X17937Y122223D01*
X16986Y121494D01*
X16257Y120543D01*
X15824Y119498D01*
X18982D01*
Y122656D01*
D02*
G37*
G36*
X8982D02*
X7937Y122223D01*
X6986Y121494D01*
X6257Y120543D01*
X5824Y119498D01*
X8982D01*
Y122656D01*
D02*
G37*
G36*
X51894Y100894D02*
X51063Y100784D01*
X50289Y100464D01*
X49625Y99954D01*
X49115Y99289D01*
X48794Y98515D01*
X48685Y97685D01*
X48794Y96855D01*
X49115Y96081D01*
X49625Y95416D01*
X50289Y94906D01*
X51063Y94586D01*
X51894Y94476D01*
X52724Y94586D01*
X53498Y94906D01*
X53797Y95136D01*
X55768D01*
Y94252D01*
X64854D01*
Y100779D01*
X55768D01*
Y100234D01*
X53797D01*
X53498Y100464D01*
X52724Y100784D01*
X51894Y100894D01*
D02*
G37*
G36*
X82896Y318446D02*
Y312872D01*
X88469D01*
X88459Y312977D01*
X88064Y314281D01*
X87422Y315481D01*
X86558Y316534D01*
X85505Y317398D01*
X84304Y318040D01*
X83001Y318435D01*
X82896Y318446D01*
D02*
G37*
G36*
X63360Y312980D02*
X57236D01*
Y306450D01*
X56765Y306281D01*
X56558Y306534D01*
X55505Y307398D01*
X54304Y308040D01*
X53001Y308435D01*
X52896Y308446D01*
Y301622D01*
Y294798D01*
X53001Y294809D01*
X54304Y295204D01*
X55505Y295846D01*
X56558Y296710D01*
X56765Y296963D01*
X57236Y296795D01*
Y290295D01*
X63360D01*
Y301638D01*
Y312980D01*
D02*
G37*
G36*
X88469Y310372D02*
X82896D01*
Y304798D01*
X83001Y304809D01*
X84304Y305204D01*
X85505Y305846D01*
X86558Y306710D01*
X87422Y307763D01*
X88064Y308964D01*
X88459Y310267D01*
X88469Y310372D01*
D02*
G37*
G36*
X80396Y318446D02*
X80290Y318435D01*
X78987Y318040D01*
X77786Y317398D01*
X76733Y316534D01*
X75870Y315481D01*
X75228Y314281D01*
X74833Y312980D01*
X69860D01*
Y304888D01*
X75984D01*
Y306881D01*
X76455Y307049D01*
X76733Y306710D01*
X77786Y305846D01*
X78987Y305204D01*
X80290Y304809D01*
X80396Y304798D01*
Y311622D01*
Y318446D01*
D02*
G37*
G36*
X50396Y308446D02*
X50290Y308435D01*
X48987Y308040D01*
X47786Y307398D01*
X46733Y306534D01*
X45870Y305482D01*
X45228Y304280D01*
X44832Y302977D01*
X44822Y302872D01*
X50396D01*
Y308446D01*
D02*
G37*
G36*
X80396Y298446D02*
X80290Y298435D01*
X78987Y298040D01*
X77786Y297398D01*
X76733Y296534D01*
X76455Y296195D01*
X75984Y296363D01*
Y298388D01*
X69860D01*
Y290295D01*
X74830D01*
X74832Y290267D01*
X75228Y288964D01*
X75870Y287763D01*
X76733Y286710D01*
X77786Y285846D01*
X78987Y285204D01*
X80290Y284809D01*
X80396Y284798D01*
Y291622D01*
Y298446D01*
D02*
G37*
G36*
X50396Y300372D02*
X44822D01*
X44832Y300267D01*
X45228Y298964D01*
X45870Y297763D01*
X46733Y296710D01*
X47786Y295846D01*
X48987Y295204D01*
X50290Y294809D01*
X50396Y294798D01*
Y300372D01*
D02*
G37*
G36*
X82896Y298446D02*
Y292872D01*
X88469D01*
X88459Y292977D01*
X88064Y294281D01*
X87422Y295481D01*
X86558Y296534D01*
X85505Y297398D01*
X84304Y298040D01*
X83001Y298435D01*
X82896Y298446D01*
D02*
G37*
G36*
X88469Y290372D02*
X82896D01*
Y284798D01*
X83001Y284809D01*
X84304Y285204D01*
X85505Y285846D01*
X86558Y286710D01*
X87422Y287763D01*
X88064Y288964D01*
X88459Y290267D01*
X88469Y290372D01*
D02*
G37*
G36*
X104876Y263299D02*
X103818Y263159D01*
X102833Y262751D01*
X101987Y262102D01*
X101337Y261256D01*
X100929Y260270D01*
X100790Y259213D01*
X100929Y258155D01*
X101337Y257170D01*
X101987Y256323D01*
X102833Y255674D01*
X103818Y255266D01*
X104876Y255127D01*
X105933Y255266D01*
X106919Y255674D01*
X107765Y256323D01*
X108415Y257170D01*
X108823Y258155D01*
X108962Y259213D01*
X108823Y260270D01*
X108415Y261256D01*
X107765Y262102D01*
X106919Y262751D01*
X105933Y263159D01*
X104876Y263299D01*
D02*
G37*
G36*
X18982Y106998D02*
X15824D01*
X16257Y105953D01*
X16986Y105002D01*
X17937Y104273D01*
X18982Y103840D01*
Y106998D01*
D02*
G37*
G36*
X8982D02*
X5824D01*
X6257Y105953D01*
X6986Y105002D01*
X7937Y104273D01*
X8982Y103840D01*
Y106998D01*
D02*
G37*
G36*
X14641D02*
X11482D01*
Y103840D01*
X12528Y104273D01*
X13478Y105002D01*
X14208Y105953D01*
X14641Y106998D01*
D02*
G37*
G36*
X24783Y102799D02*
X21482D01*
Y99498D01*
X24783D01*
Y102799D01*
D02*
G37*
G36*
X11482Y102656D02*
Y99498D01*
X14641D01*
X14208Y100543D01*
X13478Y101494D01*
X12528Y102224D01*
X11482Y102656D01*
D02*
G37*
G36*
X8982D02*
X7937Y102224D01*
X6986Y101494D01*
X6257Y100543D01*
X5824Y99498D01*
X8982D01*
Y102656D01*
D02*
G37*
G36*
X18982Y102799D02*
X15681D01*
Y99498D01*
X18982D01*
Y102799D01*
D02*
G37*
G36*
X8982Y96998D02*
X5824D01*
X6257Y95953D01*
X6986Y95002D01*
X7937Y94273D01*
X8982Y93840D01*
Y96998D01*
D02*
G37*
G36*
X14641D02*
X11482D01*
Y93840D01*
X12528Y94273D01*
X13478Y95002D01*
X14208Y95953D01*
X14641Y96998D01*
D02*
G37*
G36*
X24783D02*
X21482D01*
Y93697D01*
X24783D01*
Y96998D01*
D02*
G37*
G36*
X18982D02*
X15681D01*
Y93697D01*
X18982D01*
Y96998D01*
D02*
G37*
G36*
X104876Y95681D02*
X103818Y95541D01*
X102833Y95133D01*
X101987Y94484D01*
X101337Y93638D01*
X100929Y92652D01*
X100790Y91594D01*
X100929Y90537D01*
X101337Y89551D01*
X101987Y88705D01*
X102833Y88056D01*
X103818Y87648D01*
X104876Y87508D01*
X105933Y87648D01*
X106919Y88056D01*
X107765Y88705D01*
X108415Y89551D01*
X108823Y90537D01*
X108962Y91594D01*
X108823Y92652D01*
X108415Y93638D01*
X107765Y94484D01*
X106919Y95133D01*
X105933Y95541D01*
X104876Y95681D01*
D02*
G37*
G36*
X82896Y65950D02*
Y60376D01*
X88469D01*
X88459Y60481D01*
X88064Y61784D01*
X87422Y62985D01*
X86558Y64038D01*
X85505Y64902D01*
X84304Y65544D01*
X83001Y65939D01*
X82896Y65950D01*
D02*
G37*
G36*
X21482Y58991D02*
Y55833D01*
X24641D01*
X24208Y56878D01*
X23478Y57829D01*
X22527Y58558D01*
X21482Y58991D01*
D02*
G37*
G36*
X18982D02*
X17937Y58558D01*
X16986Y57829D01*
X16257Y56878D01*
X15824Y55833D01*
X18982D01*
Y58991D01*
D02*
G37*
G36*
X63360Y61020D02*
X57236D01*
Y53954D01*
X56765Y53785D01*
X56558Y54038D01*
X55505Y54902D01*
X54304Y55544D01*
X53001Y55939D01*
X52896Y55950D01*
Y49126D01*
Y42302D01*
X53001Y42313D01*
X54304Y42708D01*
X55505Y43350D01*
X56558Y44214D01*
X56765Y44467D01*
X57236Y44298D01*
Y38335D01*
X63360D01*
Y49677D01*
Y61020D01*
D02*
G37*
G36*
X88469Y57876D02*
X82896D01*
Y52302D01*
X83001Y52313D01*
X84304Y52708D01*
X85505Y53350D01*
X86558Y54214D01*
X87422Y55266D01*
X88064Y56467D01*
X88459Y57771D01*
X88469Y57876D01*
D02*
G37*
G36*
X80396Y65950D02*
X80290Y65939D01*
X78987Y65544D01*
X77786Y64902D01*
X76733Y64038D01*
X75870Y62985D01*
X75228Y61784D01*
X74996Y61020D01*
X69860D01*
Y52927D01*
X75984D01*
Y54385D01*
X76455Y54553D01*
X76733Y54214D01*
X77786Y53350D01*
X78987Y52708D01*
X80290Y52313D01*
X80396Y52302D01*
Y59126D01*
Y65950D01*
D02*
G37*
G36*
X50396Y55950D02*
X50290Y55939D01*
X48987Y55544D01*
X47786Y54902D01*
X46733Y54038D01*
X45870Y52985D01*
X45228Y51784D01*
X44832Y50481D01*
X44822Y50376D01*
X50396D01*
Y55950D01*
D02*
G37*
G36*
X18982Y53333D02*
X15824D01*
X16257Y52287D01*
X16986Y51337D01*
X17937Y50607D01*
X18982Y50174D01*
Y53333D01*
D02*
G37*
G36*
X24641D02*
X21482D01*
Y50174D01*
X22527Y50607D01*
X23478Y51337D01*
X24208Y52287D01*
X24641Y53333D01*
D02*
G37*
G36*
X50396Y47876D02*
X44822D01*
X44832Y47771D01*
X45228Y46468D01*
X45870Y45267D01*
X46733Y44214D01*
X47786Y43350D01*
X48987Y42708D01*
X50290Y42313D01*
X50396Y42302D01*
Y47876D01*
D02*
G37*
G36*
X82896Y45950D02*
Y40376D01*
X88469D01*
X88459Y40481D01*
X88064Y41784D01*
X87422Y42985D01*
X86558Y44038D01*
X85505Y44902D01*
X84304Y45544D01*
X83001Y45939D01*
X82896Y45950D01*
D02*
G37*
G36*
X88469Y37876D02*
X82896D01*
Y32302D01*
X83001Y32313D01*
X84304Y32708D01*
X85505Y33350D01*
X86558Y34214D01*
X87422Y35267D01*
X88064Y36467D01*
X88459Y37771D01*
X88469Y37876D01*
D02*
G37*
G36*
X75984Y46427D02*
X69860D01*
Y38335D01*
X74777D01*
X74832Y37771D01*
X75228Y36467D01*
X75870Y35267D01*
X76733Y34214D01*
X77786Y33350D01*
X78987Y32708D01*
X80290Y32313D01*
X80396Y32302D01*
Y39126D01*
Y45950D01*
X80290Y45939D01*
X78987Y45544D01*
X77786Y44902D01*
X76733Y44038D01*
X76455Y43699D01*
X75984Y43867D01*
Y46427D01*
D02*
G37*
G36*
X320900Y328893D02*
Y325734D01*
X324058D01*
X323625Y326780D01*
X322896Y327730D01*
X321945Y328460D01*
X320900Y328893D01*
D02*
G37*
G36*
X318400Y328893D02*
X317354Y328460D01*
X316404Y327730D01*
X315674Y326780D01*
X315241Y325734D01*
X318400D01*
Y328893D01*
D02*
G37*
G36*
Y323234D02*
X315241D01*
X315674Y322189D01*
X316404Y321238D01*
X317354Y320509D01*
X318400Y320076D01*
Y323234D01*
D02*
G37*
G36*
X324058D02*
X320900D01*
Y320076D01*
X321945Y320509D01*
X322896Y321238D01*
X323625Y322189D01*
X324058Y323234D01*
D02*
G37*
G36*
X257455Y318446D02*
X257349Y318435D01*
X256046Y318040D01*
X254845Y317398D01*
X253793Y316534D01*
X252929Y315481D01*
X252287Y314281D01*
X251891Y312977D01*
X251881Y312872D01*
X257455D01*
Y318446D01*
D02*
G37*
G36*
X259955D02*
Y311622D01*
Y304798D01*
X260060Y304809D01*
X261363Y305204D01*
X262564Y305846D01*
X263617Y306710D01*
X264009Y307188D01*
X264480Y307020D01*
Y304888D01*
X270604D01*
Y312980D01*
X265517D01*
X265123Y314281D01*
X264481Y315481D01*
X263617Y316534D01*
X262564Y317398D01*
X261363Y318040D01*
X260060Y318435D01*
X259955Y318446D01*
D02*
G37*
G36*
X257455Y310372D02*
X251881D01*
X251891Y310267D01*
X252287Y308964D01*
X252929Y307763D01*
X253793Y306710D01*
X254845Y305846D01*
X256046Y305204D01*
X257349Y304809D01*
X257455Y304798D01*
Y310372D01*
D02*
G37*
G36*
X289955Y308446D02*
Y302872D01*
X295528D01*
X295518Y302977D01*
X295123Y304280D01*
X294481Y305482D01*
X293617Y306534D01*
X292564Y307398D01*
X291363Y308040D01*
X290060Y308435D01*
X289955Y308446D01*
D02*
G37*
G36*
X15539Y320689D02*
X9240D01*
X8306Y320503D01*
X7514Y319974D01*
X6985Y319182D01*
X6800Y318248D01*
Y312343D01*
Y304862D01*
X6985Y303928D01*
X7514Y303136D01*
X8306Y302607D01*
X9240Y302422D01*
X15539D01*
X16473Y302607D01*
X17265Y303136D01*
X17794Y303928D01*
X17980Y304862D01*
Y318248D01*
X17794Y319182D01*
X17265Y319974D01*
X16473Y320503D01*
X15539Y320689D01*
D02*
G37*
G36*
X350453Y303539D02*
X349395Y303400D01*
X348410Y302991D01*
X347563Y302342D01*
X346914Y301496D01*
X346506Y300510D01*
X346367Y299453D01*
X346506Y298395D01*
X346914Y297410D01*
X347563Y296563D01*
X348410Y295914D01*
X349395Y295506D01*
X350453Y295367D01*
X351510Y295506D01*
X352496Y295914D01*
X353342Y296563D01*
X353991Y297410D01*
X354400Y298395D01*
X354539Y299453D01*
X354400Y300510D01*
X353991Y301496D01*
X353342Y302342D01*
X352496Y302991D01*
X351510Y303400D01*
X350453Y303539D01*
D02*
G37*
G36*
X340453D02*
X339395Y303400D01*
X338410Y302991D01*
X337563Y302342D01*
X336914Y301496D01*
X336506Y300510D01*
X336367Y299453D01*
X336506Y298395D01*
X336914Y297410D01*
X337563Y296563D01*
X338410Y295914D01*
X339395Y295506D01*
X340453Y295367D01*
X341510Y295506D01*
X342496Y295914D01*
X343342Y296563D01*
X343991Y297410D01*
X344400Y298395D01*
X344539Y299453D01*
X344400Y300510D01*
X343991Y301496D01*
X343342Y302342D01*
X342496Y302991D01*
X341510Y303400D01*
X340453Y303539D01*
D02*
G37*
G36*
X330453D02*
X329395Y303400D01*
X328410Y302991D01*
X327563Y302342D01*
X326914Y301496D01*
X326506Y300510D01*
X326367Y299453D01*
X326506Y298395D01*
X326914Y297410D01*
X327563Y296563D01*
X328410Y295914D01*
X329395Y295506D01*
X330453Y295367D01*
X331510Y295506D01*
X332496Y295914D01*
X333342Y296563D01*
X333991Y297410D01*
X334400Y298395D01*
X334539Y299453D01*
X334400Y300510D01*
X333991Y301496D01*
X333342Y302342D01*
X332496Y302991D01*
X331510Y303400D01*
X330453Y303539D01*
D02*
G37*
G36*
X320453D02*
X319395Y303400D01*
X318410Y302991D01*
X317563Y302342D01*
X316914Y301496D01*
X316506Y300510D01*
X316367Y299453D01*
X316506Y298395D01*
X316914Y297410D01*
X317563Y296563D01*
X318410Y295914D01*
X319395Y295506D01*
X320453Y295367D01*
X321510Y295506D01*
X322496Y295914D01*
X323342Y296563D01*
X323991Y297410D01*
X324400Y298395D01*
X324539Y299453D01*
X324400Y300510D01*
X323991Y301496D01*
X323342Y302342D01*
X322496Y302991D01*
X321510Y303400D01*
X320453Y303539D01*
D02*
G37*
G36*
X283228Y312980D02*
X277104D01*
Y301638D01*
Y290295D01*
X283228D01*
Y296655D01*
X283699Y296824D01*
X283793Y296710D01*
X284845Y295846D01*
X286046Y295204D01*
X287350Y294809D01*
X287455Y294798D01*
Y301622D01*
X288705D01*
D01*
X287455D01*
Y308446D01*
X287350Y308435D01*
X286046Y308040D01*
X284845Y307398D01*
X283793Y306534D01*
X283699Y306420D01*
X283228Y306589D01*
Y312980D01*
D02*
G37*
G36*
X295528Y300372D02*
X289955D01*
Y294798D01*
X290060Y294809D01*
X291363Y295204D01*
X292564Y295846D01*
X293617Y296710D01*
X294481Y297763D01*
X295123Y298964D01*
X295518Y300267D01*
X295528Y300372D01*
D02*
G37*
G36*
X257455Y298446D02*
X257349Y298435D01*
X256046Y298040D01*
X254845Y297398D01*
X253793Y296534D01*
X252929Y295481D01*
X252287Y294281D01*
X251891Y292977D01*
X251881Y292872D01*
X257455D01*
Y298446D01*
D02*
G37*
G36*
X350453Y293539D02*
X349395Y293400D01*
X348410Y292991D01*
X347563Y292342D01*
X346914Y291496D01*
X346506Y290510D01*
X346367Y289453D01*
X346506Y288395D01*
X346914Y287410D01*
X347563Y286563D01*
X348410Y285914D01*
X349395Y285506D01*
X350453Y285367D01*
X351510Y285506D01*
X352496Y285914D01*
X353342Y286563D01*
X353991Y287410D01*
X354400Y288395D01*
X354539Y289453D01*
X354400Y290510D01*
X353991Y291496D01*
X353342Y292342D01*
X352496Y292991D01*
X351510Y293400D01*
X350453Y293539D01*
D02*
G37*
G36*
X340453D02*
X339395Y293400D01*
X338410Y292991D01*
X337563Y292342D01*
X336914Y291496D01*
X336506Y290510D01*
X336367Y289453D01*
X336506Y288395D01*
X336914Y287410D01*
X337563Y286563D01*
X338410Y285914D01*
X339395Y285506D01*
X340453Y285367D01*
X341510Y285506D01*
X342496Y285914D01*
X343342Y286563D01*
X343991Y287410D01*
X344400Y288395D01*
X344539Y289453D01*
X344400Y290510D01*
X343991Y291496D01*
X343342Y292342D01*
X342496Y292991D01*
X341510Y293400D01*
X340453Y293539D01*
D02*
G37*
G36*
X330453D02*
X329395Y293400D01*
X328410Y292991D01*
X327563Y292342D01*
X326914Y291496D01*
X326506Y290510D01*
X326367Y289453D01*
X326506Y288395D01*
X326914Y287410D01*
X327563Y286563D01*
X328410Y285914D01*
X329395Y285506D01*
X330453Y285367D01*
X331510Y285506D01*
X332496Y285914D01*
X333342Y286563D01*
X333991Y287410D01*
X334400Y288395D01*
X334539Y289453D01*
X334400Y290510D01*
X333991Y291496D01*
X333342Y292342D01*
X332496Y292991D01*
X331510Y293400D01*
X330453Y293539D01*
D02*
G37*
G36*
X320453D02*
X319395Y293400D01*
X318410Y292991D01*
X317563Y292342D01*
X316914Y291496D01*
X316506Y290510D01*
X316367Y289453D01*
X316506Y288395D01*
X316914Y287410D01*
X317563Y286563D01*
X318410Y285914D01*
X319395Y285506D01*
X320453Y285367D01*
X321510Y285506D01*
X322496Y285914D01*
X323342Y286563D01*
X323991Y287410D01*
X324400Y288395D01*
X324539Y289453D01*
X324400Y290510D01*
X323991Y291496D01*
X323342Y292342D01*
X322496Y292991D01*
X321510Y293400D01*
X320453Y293539D01*
D02*
G37*
G36*
X257455Y290372D02*
X251881D01*
X251891Y290267D01*
X252287Y288964D01*
X252929Y287763D01*
X253793Y286710D01*
X254845Y285846D01*
X256046Y285204D01*
X257349Y284809D01*
X257455Y284798D01*
Y290372D01*
D02*
G37*
G36*
X259955Y298446D02*
Y291622D01*
Y284798D01*
X260060Y284809D01*
X261363Y285204D01*
X262564Y285846D01*
X263617Y286710D01*
X264481Y287763D01*
X265123Y288964D01*
X265518Y290267D01*
X265521Y290295D01*
X270604D01*
Y298388D01*
X264480D01*
Y296224D01*
X264009Y296056D01*
X263617Y296534D01*
X262564Y297398D01*
X261363Y298040D01*
X260060Y298435D01*
X259955Y298446D01*
D02*
G37*
G36*
X350453Y283539D02*
X349395Y283400D01*
X348410Y282991D01*
X347563Y282342D01*
X346914Y281496D01*
X346506Y280510D01*
X346367Y279453D01*
X346506Y278395D01*
X346914Y277410D01*
X347563Y276563D01*
X348410Y275914D01*
X349395Y275506D01*
X350453Y275367D01*
X351510Y275506D01*
X352496Y275914D01*
X353342Y276563D01*
X353991Y277410D01*
X354400Y278395D01*
X354539Y279453D01*
X354400Y280510D01*
X353991Y281496D01*
X353342Y282342D01*
X352496Y282991D01*
X351510Y283400D01*
X350453Y283539D01*
D02*
G37*
G36*
X340453D02*
X339395Y283400D01*
X338410Y282991D01*
X337563Y282342D01*
X336914Y281496D01*
X336506Y280510D01*
X336367Y279453D01*
X336506Y278395D01*
X336914Y277410D01*
X337563Y276563D01*
X338410Y275914D01*
X339395Y275506D01*
X340453Y275367D01*
X341510Y275506D01*
X342496Y275914D01*
X343342Y276563D01*
X343991Y277410D01*
X344400Y278395D01*
X344539Y279453D01*
X344400Y280510D01*
X343991Y281496D01*
X343342Y282342D01*
X342496Y282991D01*
X341510Y283400D01*
X340453Y283539D01*
D02*
G37*
G36*
X330453D02*
X329395Y283400D01*
X328410Y282991D01*
X327563Y282342D01*
X326914Y281496D01*
X326506Y280510D01*
X326367Y279453D01*
X326506Y278395D01*
X326914Y277410D01*
X327563Y276563D01*
X328410Y275914D01*
X329395Y275506D01*
X330453Y275367D01*
X331510Y275506D01*
X332496Y275914D01*
X333342Y276563D01*
X333991Y277410D01*
X334400Y278395D01*
X334539Y279453D01*
X334400Y280510D01*
X333991Y281496D01*
X333342Y282342D01*
X332496Y282991D01*
X331510Y283400D01*
X330453Y283539D01*
D02*
G37*
G36*
X320453D02*
X319395Y283400D01*
X318410Y282991D01*
X317563Y282342D01*
X316914Y281496D01*
X316506Y280510D01*
X316367Y279453D01*
X316506Y278395D01*
X316914Y277410D01*
X317563Y276563D01*
X318410Y275914D01*
X319395Y275506D01*
X320453Y275367D01*
X321510Y275506D01*
X322496Y275914D01*
X323342Y276563D01*
X323991Y277410D01*
X324400Y278395D01*
X324539Y279453D01*
X324400Y280510D01*
X323991Y281496D01*
X323342Y282342D01*
X322496Y282991D01*
X321510Y283400D01*
X320453Y283539D01*
D02*
G37*
G36*
X350453Y273539D02*
X349395Y273400D01*
X348410Y272991D01*
X347563Y272342D01*
X346914Y271496D01*
X346506Y270510D01*
X346367Y269453D01*
X346506Y268395D01*
X346914Y267410D01*
X347563Y266563D01*
X348410Y265914D01*
X349395Y265506D01*
X350453Y265367D01*
X351510Y265506D01*
X352496Y265914D01*
X353342Y266563D01*
X353991Y267410D01*
X354400Y268395D01*
X354539Y269453D01*
X354400Y270510D01*
X353991Y271496D01*
X353342Y272342D01*
X352496Y272991D01*
X351510Y273400D01*
X350453Y273539D01*
D02*
G37*
G36*
X340453D02*
X339395Y273400D01*
X338410Y272991D01*
X337563Y272342D01*
X336914Y271496D01*
X336506Y270510D01*
X336367Y269453D01*
X336506Y268395D01*
X336914Y267410D01*
X337563Y266563D01*
X338410Y265914D01*
X339395Y265506D01*
X340453Y265367D01*
X341510Y265506D01*
X342496Y265914D01*
X343342Y266563D01*
X343991Y267410D01*
X344400Y268395D01*
X344539Y269453D01*
X344400Y270510D01*
X343991Y271496D01*
X343342Y272342D01*
X342496Y272991D01*
X341510Y273400D01*
X340453Y273539D01*
D02*
G37*
G36*
X330453D02*
X329395Y273400D01*
X328410Y272991D01*
X327563Y272342D01*
X326914Y271496D01*
X326506Y270510D01*
X326367Y269453D01*
X326506Y268395D01*
X326914Y267410D01*
X327563Y266563D01*
X328410Y265914D01*
X329395Y265506D01*
X330453Y265367D01*
X331510Y265506D01*
X332496Y265914D01*
X333342Y266563D01*
X333991Y267410D01*
X334400Y268395D01*
X334539Y269453D01*
X334400Y270510D01*
X333991Y271496D01*
X333342Y272342D01*
X332496Y272991D01*
X331510Y273400D01*
X330453Y273539D01*
D02*
G37*
G36*
X320453D02*
X319395Y273400D01*
X318410Y272991D01*
X317563Y272342D01*
X316914Y271496D01*
X316506Y270510D01*
X316367Y269453D01*
X316506Y268395D01*
X316914Y267410D01*
X317563Y266563D01*
X318410Y265914D01*
X319395Y265506D01*
X320453Y265367D01*
X321510Y265506D01*
X322496Y265914D01*
X323342Y266563D01*
X323991Y267410D01*
X324400Y268395D01*
X324539Y269453D01*
X324400Y270510D01*
X323991Y271496D01*
X323342Y272342D01*
X322496Y272991D01*
X321510Y273400D01*
X320453Y273539D01*
D02*
G37*
G36*
X259703Y271638D02*
X257693Y271480D01*
X255732Y271009D01*
X253869Y270237D01*
X252150Y269184D01*
X250616Y267874D01*
X249307Y266341D01*
X248253Y264621D01*
X248046Y264121D01*
X247559Y264251D01*
X247602Y264583D01*
X247493Y265413D01*
X247172Y266187D01*
X246662Y266851D01*
X245998Y267361D01*
X245224Y267682D01*
X244394Y267791D01*
X243563Y267682D01*
X242789Y267361D01*
X242634Y267242D01*
X214386D01*
Y268402D01*
X205299D01*
Y261874D01*
X214386D01*
Y262144D01*
X232097D01*
X232344Y261644D01*
X232046Y261256D01*
X231638Y260270D01*
X231499Y259213D01*
X231638Y258155D01*
X232046Y257170D01*
X232695Y256323D01*
X233542Y255674D01*
X234527Y255266D01*
X235585Y255127D01*
X236642Y255266D01*
X237628Y255674D01*
X238474Y256323D01*
X239123Y257170D01*
X239532Y258155D01*
X239671Y259213D01*
X239532Y260270D01*
X239123Y261256D01*
X238825Y261644D01*
X239072Y262144D01*
X242346D01*
X242789Y261804D01*
X243563Y261483D01*
X244394Y261374D01*
X245224Y261483D01*
X245998Y261804D01*
X246662Y262314D01*
X246951Y262689D01*
X247412Y262469D01*
X247011Y260798D01*
X246852Y258787D01*
X247011Y256777D01*
X247481Y254816D01*
X248253Y252953D01*
X249307Y251234D01*
X250616Y249701D01*
X252150Y248391D01*
X253869Y247337D01*
X255732Y246566D01*
X257693Y246095D01*
X259703Y245937D01*
X261713Y246095D01*
X263674Y246566D01*
X265537Y247337D01*
X267256Y248391D01*
X268790Y249701D01*
X270099Y251234D01*
X271153Y252953D01*
X271925Y254816D01*
X272396Y256777D01*
X272554Y258787D01*
X272396Y260798D01*
X271925Y262758D01*
X271153Y264621D01*
X270099Y266341D01*
X268790Y267874D01*
X267256Y269184D01*
X265537Y270237D01*
X263674Y271009D01*
X261713Y271480D01*
X259703Y271638D01*
D02*
G37*
G36*
X350453Y263539D02*
X349395Y263400D01*
X348410Y262991D01*
X347563Y262342D01*
X346914Y261496D01*
X346506Y260510D01*
X346367Y259453D01*
X346506Y258395D01*
X346914Y257410D01*
X347563Y256563D01*
X348410Y255914D01*
X349395Y255506D01*
X350453Y255367D01*
X351510Y255506D01*
X352496Y255914D01*
X353342Y256563D01*
X353991Y257410D01*
X354400Y258395D01*
X354539Y259453D01*
X354400Y260510D01*
X353991Y261496D01*
X353342Y262342D01*
X352496Y262991D01*
X351510Y263400D01*
X350453Y263539D01*
D02*
G37*
G36*
X340453D02*
X339395Y263400D01*
X338410Y262991D01*
X337563Y262342D01*
X336914Y261496D01*
X336506Y260510D01*
X336367Y259453D01*
X336506Y258395D01*
X336914Y257410D01*
X337563Y256563D01*
X338410Y255914D01*
X339395Y255506D01*
X340453Y255367D01*
X341510Y255506D01*
X342496Y255914D01*
X343342Y256563D01*
X343991Y257410D01*
X344400Y258395D01*
X344539Y259453D01*
X344400Y260510D01*
X343991Y261496D01*
X343342Y262342D01*
X342496Y262991D01*
X341510Y263400D01*
X340453Y263539D01*
D02*
G37*
G36*
X330453D02*
X329395Y263400D01*
X328410Y262991D01*
X327563Y262342D01*
X326914Y261496D01*
X326506Y260510D01*
X326367Y259453D01*
X326506Y258395D01*
X326914Y257410D01*
X327563Y256563D01*
X328410Y255914D01*
X329395Y255506D01*
X330453Y255367D01*
X331510Y255506D01*
X332496Y255914D01*
X333342Y256563D01*
X333991Y257410D01*
X334400Y258395D01*
X334539Y259453D01*
X334400Y260510D01*
X333991Y261496D01*
X333342Y262342D01*
X332496Y262991D01*
X331510Y263400D01*
X330453Y263539D01*
D02*
G37*
G36*
X320453D02*
X319395Y263400D01*
X318410Y262991D01*
X317563Y262342D01*
X316914Y261496D01*
X316506Y260510D01*
X316367Y259453D01*
X316506Y258395D01*
X316914Y257410D01*
X317563Y256563D01*
X318410Y255914D01*
X319395Y255506D01*
X320453Y255367D01*
X321510Y255506D01*
X322496Y255914D01*
X323342Y256563D01*
X323991Y257410D01*
X324400Y258395D01*
X324539Y259453D01*
X324400Y260510D01*
X323991Y261496D01*
X323342Y262342D01*
X322496Y262991D01*
X321510Y263400D01*
X320453Y263539D01*
D02*
G37*
G36*
X350453Y253539D02*
X349395Y253400D01*
X348410Y252991D01*
X347563Y252342D01*
X346914Y251496D01*
X346506Y250510D01*
X346367Y249453D01*
X346506Y248395D01*
X346914Y247410D01*
X347563Y246563D01*
X348410Y245914D01*
X349395Y245506D01*
X350453Y245367D01*
X351510Y245506D01*
X352496Y245914D01*
X353342Y246563D01*
X353991Y247410D01*
X354400Y248395D01*
X354539Y249453D01*
X354400Y250510D01*
X353991Y251496D01*
X353342Y252342D01*
X352496Y252991D01*
X351510Y253400D01*
X350453Y253539D01*
D02*
G37*
G36*
X340453D02*
X339395Y253400D01*
X338410Y252991D01*
X337563Y252342D01*
X336914Y251496D01*
X336506Y250510D01*
X336367Y249453D01*
X336506Y248395D01*
X336914Y247410D01*
X337563Y246563D01*
X338410Y245914D01*
X339395Y245506D01*
X340453Y245367D01*
X341510Y245506D01*
X342496Y245914D01*
X343342Y246563D01*
X343991Y247410D01*
X344400Y248395D01*
X344539Y249453D01*
X344400Y250510D01*
X343991Y251496D01*
X343342Y252342D01*
X342496Y252991D01*
X341510Y253400D01*
X340453Y253539D01*
D02*
G37*
G36*
X330453D02*
X329395Y253400D01*
X328410Y252991D01*
X327563Y252342D01*
X326914Y251496D01*
X326506Y250510D01*
X326367Y249453D01*
X326506Y248395D01*
X326914Y247410D01*
X327563Y246563D01*
X328410Y245914D01*
X329395Y245506D01*
X330453Y245367D01*
X331510Y245506D01*
X332496Y245914D01*
X333342Y246563D01*
X333991Y247410D01*
X334400Y248395D01*
X334539Y249453D01*
X334400Y250510D01*
X333991Y251496D01*
X333342Y252342D01*
X332496Y252991D01*
X331510Y253400D01*
X330453Y253539D01*
D02*
G37*
G36*
X320453D02*
X319395Y253400D01*
X318410Y252991D01*
X317563Y252342D01*
X316914Y251496D01*
X316506Y250510D01*
X316367Y249453D01*
X316506Y248395D01*
X316914Y247410D01*
X317563Y246563D01*
X318410Y245914D01*
X319395Y245506D01*
X320453Y245367D01*
X321510Y245506D01*
X322496Y245914D01*
X323342Y246563D01*
X323991Y247410D01*
X324400Y248395D01*
X324539Y249453D01*
X324400Y250510D01*
X323991Y251496D01*
X323342Y252342D01*
X322496Y252991D01*
X321510Y253400D01*
X320453Y253539D01*
D02*
G37*
G36*
X350453Y243539D02*
X349395Y243400D01*
X348410Y242991D01*
X347563Y242342D01*
X346914Y241496D01*
X346506Y240510D01*
X346367Y239453D01*
X346506Y238395D01*
X346914Y237410D01*
X347563Y236563D01*
X348410Y235914D01*
X349395Y235506D01*
X350453Y235367D01*
X351510Y235506D01*
X352496Y235914D01*
X353342Y236563D01*
X353991Y237410D01*
X354400Y238395D01*
X354539Y239453D01*
X354400Y240510D01*
X353991Y241496D01*
X353342Y242342D01*
X352496Y242991D01*
X351510Y243400D01*
X350453Y243539D01*
D02*
G37*
G36*
X340453D02*
X339395Y243400D01*
X338410Y242991D01*
X337563Y242342D01*
X336914Y241496D01*
X336506Y240510D01*
X336367Y239453D01*
X336506Y238395D01*
X336914Y237410D01*
X337563Y236563D01*
X338410Y235914D01*
X339395Y235506D01*
X340453Y235367D01*
X341510Y235506D01*
X342496Y235914D01*
X343342Y236563D01*
X343991Y237410D01*
X344400Y238395D01*
X344539Y239453D01*
X344400Y240510D01*
X343991Y241496D01*
X343342Y242342D01*
X342496Y242991D01*
X341510Y243400D01*
X340453Y243539D01*
D02*
G37*
G36*
X330453D02*
X329395Y243400D01*
X328410Y242991D01*
X327563Y242342D01*
X326914Y241496D01*
X326506Y240510D01*
X326367Y239453D01*
X326506Y238395D01*
X326914Y237410D01*
X327563Y236563D01*
X328410Y235914D01*
X329395Y235506D01*
X330453Y235367D01*
X331510Y235506D01*
X332496Y235914D01*
X333342Y236563D01*
X333991Y237410D01*
X334400Y238395D01*
X334539Y239453D01*
X334400Y240510D01*
X333991Y241496D01*
X333342Y242342D01*
X332496Y242991D01*
X331510Y243400D01*
X330453Y243539D01*
D02*
G37*
G36*
X320453D02*
X319395Y243400D01*
X318410Y242991D01*
X317563Y242342D01*
X316914Y241496D01*
X316506Y240510D01*
X316367Y239453D01*
X316506Y238395D01*
X316914Y237410D01*
X317563Y236563D01*
X318410Y235914D01*
X319395Y235506D01*
X320453Y235367D01*
X321510Y235506D01*
X322496Y235914D01*
X323342Y236563D01*
X323991Y237410D01*
X324400Y238395D01*
X324539Y239453D01*
X324400Y240510D01*
X323991Y241496D01*
X323342Y242342D01*
X322496Y242991D01*
X321510Y243400D01*
X320453Y243539D01*
D02*
G37*
G36*
X257455Y233485D02*
X257349Y233475D01*
X256046Y233079D01*
X254845Y232437D01*
X253793Y231574D01*
X252929Y230521D01*
X252287Y229320D01*
X251891Y228017D01*
X251881Y227911D01*
X257455D01*
Y233485D01*
D02*
G37*
G36*
X350453Y233539D02*
X349395Y233400D01*
X348410Y232991D01*
X347563Y232342D01*
X346914Y231496D01*
X346506Y230510D01*
X346367Y229453D01*
X346506Y228395D01*
X346914Y227410D01*
X347563Y226563D01*
X348410Y225914D01*
X349395Y225506D01*
X350453Y225367D01*
X351510Y225506D01*
X352496Y225914D01*
X353342Y226563D01*
X353991Y227410D01*
X354400Y228395D01*
X354539Y229453D01*
X354400Y230510D01*
X353991Y231496D01*
X353342Y232342D01*
X352496Y232991D01*
X351510Y233400D01*
X350453Y233539D01*
D02*
G37*
G36*
X340453D02*
X339395Y233400D01*
X338410Y232991D01*
X337563Y232342D01*
X336914Y231496D01*
X336506Y230510D01*
X336367Y229453D01*
X336506Y228395D01*
X336914Y227410D01*
X337563Y226563D01*
X338410Y225914D01*
X339395Y225506D01*
X340453Y225367D01*
X341510Y225506D01*
X342496Y225914D01*
X343342Y226563D01*
X343991Y227410D01*
X344400Y228395D01*
X344539Y229453D01*
X344400Y230510D01*
X343991Y231496D01*
X343342Y232342D01*
X342496Y232991D01*
X341510Y233400D01*
X340453Y233539D01*
D02*
G37*
G36*
X330453D02*
X329395Y233400D01*
X328410Y232991D01*
X327563Y232342D01*
X326914Y231496D01*
X326506Y230510D01*
X326367Y229453D01*
X326506Y228395D01*
X326914Y227410D01*
X327563Y226563D01*
X328410Y225914D01*
X329395Y225506D01*
X330453Y225367D01*
X331510Y225506D01*
X332496Y225914D01*
X333342Y226563D01*
X333991Y227410D01*
X334400Y228395D01*
X334539Y229453D01*
X334400Y230510D01*
X333991Y231496D01*
X333342Y232342D01*
X332496Y232991D01*
X331510Y233400D01*
X330453Y233539D01*
D02*
G37*
G36*
X320453D02*
X319395Y233400D01*
X318410Y232991D01*
X317563Y232342D01*
X316914Y231496D01*
X316506Y230510D01*
X316367Y229453D01*
X316506Y228395D01*
X316914Y227410D01*
X317563Y226563D01*
X318410Y225914D01*
X319395Y225506D01*
X320453Y225367D01*
X321510Y225506D01*
X322496Y225914D01*
X323342Y226563D01*
X323991Y227410D01*
X324400Y228395D01*
X324539Y229453D01*
X324400Y230510D01*
X323991Y231496D01*
X323342Y232342D01*
X322496Y232991D01*
X321510Y233400D01*
X320453Y233539D01*
D02*
G37*
G36*
X259955Y233485D02*
Y226661D01*
Y219838D01*
X260060Y219848D01*
X261363Y220243D01*
X262564Y220885D01*
X263617Y221749D01*
X264009Y222228D01*
X264480Y222059D01*
Y219912D01*
X270604D01*
Y228004D01*
X265519D01*
X265518Y228017D01*
X265123Y229320D01*
X264481Y230521D01*
X263617Y231574D01*
X262564Y232437D01*
X261363Y233079D01*
X260060Y233475D01*
X259955Y233485D01*
D02*
G37*
G36*
X257455Y225412D02*
X251881D01*
X251891Y225306D01*
X252287Y224003D01*
X252929Y222802D01*
X253793Y221749D01*
X254845Y220885D01*
X256046Y220243D01*
X257349Y219848D01*
X257455Y219838D01*
Y225412D01*
D02*
G37*
G36*
X289955Y223485D02*
Y217912D01*
X295528D01*
X295518Y218017D01*
X295123Y219320D01*
X294481Y220521D01*
X293617Y221574D01*
X292564Y222438D01*
X291363Y223079D01*
X290060Y223475D01*
X289955Y223485D01*
D02*
G37*
G36*
X350453Y223539D02*
X349395Y223400D01*
X348410Y222991D01*
X347563Y222342D01*
X346914Y221496D01*
X346506Y220510D01*
X346367Y219453D01*
X346506Y218395D01*
X346914Y217410D01*
X347563Y216563D01*
X348410Y215914D01*
X349395Y215506D01*
X350453Y215367D01*
X351510Y215506D01*
X352496Y215914D01*
X353342Y216563D01*
X353991Y217410D01*
X354400Y218395D01*
X354539Y219453D01*
X354400Y220510D01*
X353991Y221496D01*
X353342Y222342D01*
X352496Y222991D01*
X351510Y223400D01*
X350453Y223539D01*
D02*
G37*
G36*
X340453D02*
X339395Y223400D01*
X338410Y222991D01*
X337563Y222342D01*
X336914Y221496D01*
X336506Y220510D01*
X336367Y219453D01*
X336506Y218395D01*
X336914Y217410D01*
X337563Y216563D01*
X338410Y215914D01*
X339395Y215506D01*
X340453Y215367D01*
X341510Y215506D01*
X342496Y215914D01*
X343342Y216563D01*
X343991Y217410D01*
X344400Y218395D01*
X344539Y219453D01*
X344400Y220510D01*
X343991Y221496D01*
X343342Y222342D01*
X342496Y222991D01*
X341510Y223400D01*
X340453Y223539D01*
D02*
G37*
G36*
X330453D02*
X329395Y223400D01*
X328410Y222991D01*
X327563Y222342D01*
X326914Y221496D01*
X326506Y220510D01*
X326367Y219453D01*
X326506Y218395D01*
X326914Y217410D01*
X327563Y216563D01*
X328410Y215914D01*
X329395Y215506D01*
X330453Y215367D01*
X331510Y215506D01*
X332496Y215914D01*
X333342Y216563D01*
X333991Y217410D01*
X334400Y218395D01*
X334539Y219453D01*
X334400Y220510D01*
X333991Y221496D01*
X333342Y222342D01*
X332496Y222991D01*
X331510Y223400D01*
X330453Y223539D01*
D02*
G37*
G36*
X320453D02*
X319395Y223400D01*
X318410Y222991D01*
X317563Y222342D01*
X316914Y221496D01*
X316506Y220510D01*
X316367Y219453D01*
X316506Y218395D01*
X316914Y217410D01*
X317563Y216563D01*
X318410Y215914D01*
X319395Y215506D01*
X320453Y215367D01*
X321510Y215506D01*
X322496Y215914D01*
X323342Y216563D01*
X323991Y217410D01*
X324400Y218395D01*
X324539Y219453D01*
X324400Y220510D01*
X323991Y221496D01*
X323342Y222342D01*
X322496Y222991D01*
X321510Y223400D01*
X320453Y223539D01*
D02*
G37*
G36*
X283228Y228004D02*
X277104D01*
Y216662D01*
Y205319D01*
X283228D01*
Y211695D01*
X283699Y211863D01*
X283793Y211749D01*
X284845Y210885D01*
X286046Y210243D01*
X287350Y209848D01*
X287455Y209838D01*
Y216662D01*
Y223485D01*
X287350Y223475D01*
X286046Y223079D01*
X284845Y222438D01*
X283793Y221574D01*
X283699Y221460D01*
X283228Y221628D01*
Y228004D01*
D02*
G37*
G36*
X295528Y215411D02*
X289955D01*
Y209838D01*
X290060Y209848D01*
X291363Y210243D01*
X292564Y210885D01*
X293617Y211749D01*
X294481Y212802D01*
X295123Y214003D01*
X295518Y215306D01*
X295528Y215411D01*
D02*
G37*
G36*
X257455Y213485D02*
X257349Y213475D01*
X256046Y213079D01*
X254845Y212438D01*
X253793Y211574D01*
X252929Y210521D01*
X252287Y209320D01*
X251891Y208017D01*
X251881Y207911D01*
X257455D01*
Y213485D01*
D02*
G37*
G36*
X350453Y213539D02*
X349395Y213400D01*
X348410Y212991D01*
X347563Y212342D01*
X346914Y211496D01*
X346506Y210510D01*
X346367Y209453D01*
X346506Y208395D01*
X346914Y207410D01*
X347563Y206563D01*
X348410Y205914D01*
X349395Y205506D01*
X350453Y205367D01*
X351510Y205506D01*
X352496Y205914D01*
X353342Y206563D01*
X353991Y207410D01*
X354400Y208395D01*
X354539Y209453D01*
X354400Y210510D01*
X353991Y211496D01*
X353342Y212342D01*
X352496Y212991D01*
X351510Y213400D01*
X350453Y213539D01*
D02*
G37*
G36*
X340453D02*
X339395Y213400D01*
X338410Y212991D01*
X337563Y212342D01*
X336914Y211496D01*
X336506Y210510D01*
X336367Y209453D01*
X336506Y208395D01*
X336914Y207410D01*
X337563Y206563D01*
X338410Y205914D01*
X339395Y205506D01*
X340453Y205367D01*
X341510Y205506D01*
X342496Y205914D01*
X343342Y206563D01*
X343991Y207410D01*
X344400Y208395D01*
X344539Y209453D01*
X344400Y210510D01*
X343991Y211496D01*
X343342Y212342D01*
X342496Y212991D01*
X341510Y213400D01*
X340453Y213539D01*
D02*
G37*
G36*
X330453D02*
X329395Y213400D01*
X328410Y212991D01*
X327563Y212342D01*
X326914Y211496D01*
X326506Y210510D01*
X326367Y209453D01*
X326506Y208395D01*
X326914Y207410D01*
X327563Y206563D01*
X328410Y205914D01*
X329395Y205506D01*
X330453Y205367D01*
X331510Y205506D01*
X332496Y205914D01*
X333342Y206563D01*
X333991Y207410D01*
X334400Y208395D01*
X334539Y209453D01*
X334400Y210510D01*
X333991Y211496D01*
X333342Y212342D01*
X332496Y212991D01*
X331510Y213400D01*
X330453Y213539D01*
D02*
G37*
G36*
X320453D02*
X319395Y213400D01*
X318410Y212991D01*
X317563Y212342D01*
X316914Y211496D01*
X316506Y210510D01*
X316367Y209453D01*
X316506Y208395D01*
X316914Y207410D01*
X317563Y206563D01*
X318410Y205914D01*
X319395Y205506D01*
X320453Y205367D01*
X321510Y205506D01*
X322496Y205914D01*
X323342Y206563D01*
X323991Y207410D01*
X324400Y208395D01*
X324539Y209453D01*
X324400Y210510D01*
X323991Y211496D01*
X323342Y212342D01*
X322496Y212991D01*
X321510Y213400D01*
X320453Y213539D01*
D02*
G37*
G36*
X257455Y205412D02*
X251881D01*
X251891Y205306D01*
X252287Y204003D01*
X252929Y202802D01*
X253793Y201749D01*
X254845Y200885D01*
X256046Y200243D01*
X257349Y199848D01*
X257455Y199838D01*
Y205412D01*
D02*
G37*
G36*
X259955Y213485D02*
Y206662D01*
Y199838D01*
X260060Y199848D01*
X261363Y200243D01*
X262564Y200885D01*
X263617Y201749D01*
X264481Y202802D01*
X265123Y204003D01*
X265518Y205306D01*
X265519Y205319D01*
X270604D01*
Y213411D01*
X264480D01*
Y211264D01*
X264009Y211095D01*
X263617Y211574D01*
X262564Y212438D01*
X261363Y213079D01*
X260060Y213475D01*
X259955Y213485D01*
D02*
G37*
G36*
X350453Y203539D02*
X349395Y203400D01*
X348410Y202992D01*
X347563Y202342D01*
X346914Y201496D01*
X346506Y200510D01*
X346367Y199453D01*
X346506Y198395D01*
X346914Y197410D01*
X347563Y196563D01*
X348410Y195914D01*
X349395Y195506D01*
X350453Y195367D01*
X351510Y195506D01*
X352496Y195914D01*
X353342Y196563D01*
X353991Y197410D01*
X354400Y198395D01*
X354539Y199453D01*
X354400Y200510D01*
X353991Y201496D01*
X353342Y202342D01*
X352496Y202992D01*
X351510Y203400D01*
X350453Y203539D01*
D02*
G37*
G36*
X340453D02*
X339395Y203400D01*
X338410Y202992D01*
X337563Y202342D01*
X336914Y201496D01*
X336506Y200510D01*
X336367Y199453D01*
X336506Y198395D01*
X336914Y197410D01*
X337563Y196563D01*
X338410Y195914D01*
X339395Y195506D01*
X340453Y195367D01*
X341510Y195506D01*
X342496Y195914D01*
X343342Y196563D01*
X343991Y197410D01*
X344400Y198395D01*
X344539Y199453D01*
X344400Y200510D01*
X343991Y201496D01*
X343342Y202342D01*
X342496Y202992D01*
X341510Y203400D01*
X340453Y203539D01*
D02*
G37*
G36*
X330453D02*
X329395Y203400D01*
X328410Y202992D01*
X327563Y202342D01*
X326914Y201496D01*
X326506Y200510D01*
X326367Y199453D01*
X326506Y198395D01*
X326914Y197410D01*
X327563Y196563D01*
X328410Y195914D01*
X329395Y195506D01*
X330453Y195367D01*
X331510Y195506D01*
X332496Y195914D01*
X333342Y196563D01*
X333991Y197410D01*
X334400Y198395D01*
X334539Y199453D01*
X334400Y200510D01*
X333991Y201496D01*
X333342Y202342D01*
X332496Y202992D01*
X331510Y203400D01*
X330453Y203539D01*
D02*
G37*
G36*
X320453D02*
X319395Y203400D01*
X318410Y202992D01*
X317563Y202342D01*
X316914Y201496D01*
X316506Y200510D01*
X316367Y199453D01*
X316506Y198395D01*
X316914Y197410D01*
X317563Y196563D01*
X318410Y195914D01*
X319395Y195506D01*
X320453Y195367D01*
X321510Y195506D01*
X322496Y195914D01*
X323342Y196563D01*
X323991Y197410D01*
X324400Y198395D01*
X324539Y199453D01*
X324400Y200510D01*
X323991Y201496D01*
X323342Y202342D01*
X322496Y202992D01*
X321510Y203400D01*
X320453Y203539D01*
D02*
G37*
G36*
X350453Y193539D02*
X349395Y193400D01*
X348410Y192991D01*
X347563Y192342D01*
X346914Y191496D01*
X346506Y190510D01*
X346367Y189453D01*
X346506Y188395D01*
X346914Y187410D01*
X347563Y186563D01*
X348410Y185914D01*
X349395Y185506D01*
X350453Y185367D01*
X351510Y185506D01*
X352496Y185914D01*
X353342Y186563D01*
X353991Y187410D01*
X354400Y188395D01*
X354539Y189453D01*
X354400Y190510D01*
X353991Y191496D01*
X353342Y192342D01*
X352496Y192991D01*
X351510Y193400D01*
X350453Y193539D01*
D02*
G37*
G36*
X340453D02*
X339395Y193400D01*
X338410Y192991D01*
X337563Y192342D01*
X336914Y191496D01*
X336506Y190510D01*
X336367Y189453D01*
X336506Y188395D01*
X336914Y187410D01*
X337563Y186563D01*
X338410Y185914D01*
X339395Y185506D01*
X340453Y185367D01*
X341510Y185506D01*
X342496Y185914D01*
X343342Y186563D01*
X343991Y187410D01*
X344400Y188395D01*
X344539Y189453D01*
X344400Y190510D01*
X343991Y191496D01*
X343342Y192342D01*
X342496Y192991D01*
X341510Y193400D01*
X340453Y193539D01*
D02*
G37*
G36*
X330453D02*
X329395Y193400D01*
X328410Y192991D01*
X327563Y192342D01*
X326914Y191496D01*
X326506Y190510D01*
X326367Y189453D01*
X326506Y188395D01*
X326914Y187410D01*
X327563Y186563D01*
X328410Y185914D01*
X329395Y185506D01*
X330453Y185367D01*
X331510Y185506D01*
X332496Y185914D01*
X333342Y186563D01*
X333991Y187410D01*
X334400Y188395D01*
X334539Y189453D01*
X334400Y190510D01*
X333991Y191496D01*
X333342Y192342D01*
X332496Y192991D01*
X331510Y193400D01*
X330453Y193539D01*
D02*
G37*
G36*
X320453D02*
X319395Y193400D01*
X318410Y192991D01*
X317563Y192342D01*
X316914Y191496D01*
X316506Y190510D01*
X316367Y189453D01*
X316506Y188395D01*
X316914Y187410D01*
X317563Y186563D01*
X318410Y185914D01*
X319395Y185506D01*
X320453Y185367D01*
X321510Y185506D01*
X322496Y185914D01*
X323342Y186563D01*
X323991Y187410D01*
X324400Y188395D01*
X324539Y189453D01*
X324400Y190510D01*
X323991Y191496D01*
X323342Y192342D01*
X322496Y192991D01*
X321510Y193400D01*
X320453Y193539D01*
D02*
G37*
G36*
X350453Y183539D02*
X349395Y183400D01*
X348410Y182992D01*
X347563Y182342D01*
X346914Y181496D01*
X346506Y180510D01*
X346367Y179453D01*
X346506Y178395D01*
X346914Y177410D01*
X347563Y176563D01*
X348410Y175914D01*
X349395Y175506D01*
X350453Y175367D01*
X351510Y175506D01*
X352496Y175914D01*
X353342Y176563D01*
X353991Y177410D01*
X354400Y178395D01*
X354539Y179453D01*
X354400Y180510D01*
X353991Y181496D01*
X353342Y182342D01*
X352496Y182992D01*
X351510Y183400D01*
X350453Y183539D01*
D02*
G37*
G36*
X340453D02*
X339395Y183400D01*
X338410Y182992D01*
X337563Y182342D01*
X336914Y181496D01*
X336506Y180510D01*
X336367Y179453D01*
X336506Y178395D01*
X336914Y177410D01*
X337563Y176563D01*
X338410Y175914D01*
X339395Y175506D01*
X340453Y175367D01*
X341510Y175506D01*
X342496Y175914D01*
X343342Y176563D01*
X343991Y177410D01*
X344400Y178395D01*
X344539Y179453D01*
X344400Y180510D01*
X343991Y181496D01*
X343342Y182342D01*
X342496Y182992D01*
X341510Y183400D01*
X340453Y183539D01*
D02*
G37*
G36*
X330453D02*
X329395Y183400D01*
X328410Y182992D01*
X327563Y182342D01*
X326914Y181496D01*
X326506Y180510D01*
X326367Y179453D01*
X326506Y178395D01*
X326914Y177410D01*
X327563Y176563D01*
X328410Y175914D01*
X329395Y175506D01*
X330453Y175367D01*
X331510Y175506D01*
X332496Y175914D01*
X333342Y176563D01*
X333991Y177410D01*
X334400Y178395D01*
X334539Y179453D01*
X334400Y180510D01*
X333991Y181496D01*
X333342Y182342D01*
X332496Y182992D01*
X331510Y183400D01*
X330453Y183539D01*
D02*
G37*
G36*
X320453D02*
X319395Y183400D01*
X318410Y182992D01*
X317563Y182342D01*
X316914Y181496D01*
X316506Y180510D01*
X316367Y179453D01*
X316506Y178395D01*
X316914Y177410D01*
X317563Y176563D01*
X318410Y175914D01*
X319395Y175506D01*
X320453Y175367D01*
X321510Y175506D01*
X322496Y175914D01*
X323342Y176563D01*
X323991Y177410D01*
X324400Y178395D01*
X324539Y179453D01*
X324400Y180510D01*
X323991Y181496D01*
X323342Y182342D01*
X322496Y182992D01*
X321510Y183400D01*
X320453Y183539D01*
D02*
G37*
G36*
X259703Y191244D02*
X257693Y191086D01*
X255732Y190615D01*
X253869Y189844D01*
X252150Y188790D01*
X250616Y187480D01*
X249307Y185947D01*
X248253Y184228D01*
X247481Y182365D01*
X247011Y180404D01*
X246852Y178394D01*
X247011Y176383D01*
X247481Y174423D01*
X248253Y172560D01*
X249307Y170840D01*
X250616Y169307D01*
X252150Y167997D01*
X253869Y166944D01*
X255732Y166172D01*
X257693Y165701D01*
X259703Y165543D01*
X261713Y165701D01*
X263674Y166172D01*
X265537Y166944D01*
X267256Y167997D01*
X268790Y169307D01*
X270099Y170840D01*
X271153Y172560D01*
X271925Y174423D01*
X272396Y176383D01*
X272554Y178394D01*
X272396Y180404D01*
X271925Y182365D01*
X271153Y184228D01*
X270099Y185947D01*
X268790Y187480D01*
X267256Y188790D01*
X265537Y189844D01*
X263674Y190615D01*
X261713Y191086D01*
X259703Y191244D01*
D02*
G37*
G36*
X175354D02*
X173344Y191086D01*
X171383Y190615D01*
X169520Y189844D01*
X167801Y188790D01*
X166268Y187480D01*
X164958Y185947D01*
X163904Y184228D01*
X163133Y182365D01*
X162662Y180404D01*
X162504Y178394D01*
X162662Y176383D01*
X163133Y174423D01*
X163904Y172560D01*
X164958Y170840D01*
X166268Y169307D01*
X167801Y167997D01*
X169520Y166944D01*
X171383Y166172D01*
X173344Y165701D01*
X175354Y165543D01*
X177365Y165701D01*
X179325Y166172D01*
X181188Y166944D01*
X182908Y167997D01*
X184441Y169307D01*
X185751Y170840D01*
X186804Y172560D01*
X187576Y174423D01*
X188047Y176383D01*
X188205Y178394D01*
X188047Y180404D01*
X187576Y182365D01*
X186804Y184228D01*
X185751Y185947D01*
X184441Y187480D01*
X182908Y188790D01*
X181188Y189844D01*
X179325Y190615D01*
X177365Y191086D01*
X175354Y191244D01*
D02*
G37*
G36*
X350453Y173539D02*
X349395Y173400D01*
X348410Y172992D01*
X347563Y172342D01*
X346914Y171496D01*
X346506Y170510D01*
X346367Y169453D01*
X346506Y168395D01*
X346914Y167410D01*
X347563Y166563D01*
X348410Y165914D01*
X349395Y165506D01*
X350453Y165367D01*
X351510Y165506D01*
X352496Y165914D01*
X353342Y166563D01*
X353991Y167410D01*
X354400Y168395D01*
X354539Y169453D01*
X354400Y170510D01*
X353991Y171496D01*
X353342Y172342D01*
X352496Y172992D01*
X351510Y173400D01*
X350453Y173539D01*
D02*
G37*
G36*
X340453D02*
X339395Y173400D01*
X338410Y172992D01*
X337563Y172342D01*
X336914Y171496D01*
X336506Y170510D01*
X336367Y169453D01*
X336506Y168395D01*
X336914Y167410D01*
X337563Y166563D01*
X338410Y165914D01*
X339395Y165506D01*
X340453Y165367D01*
X341510Y165506D01*
X342496Y165914D01*
X343342Y166563D01*
X343991Y167410D01*
X344400Y168395D01*
X344539Y169453D01*
X344400Y170510D01*
X343991Y171496D01*
X343342Y172342D01*
X342496Y172992D01*
X341510Y173400D01*
X340453Y173539D01*
D02*
G37*
G36*
X330453D02*
X329395Y173400D01*
X328410Y172992D01*
X327563Y172342D01*
X326914Y171496D01*
X326506Y170510D01*
X326367Y169453D01*
X326506Y168395D01*
X326914Y167410D01*
X327563Y166563D01*
X328410Y165914D01*
X329395Y165506D01*
X330453Y165367D01*
X331510Y165506D01*
X332496Y165914D01*
X333342Y166563D01*
X333991Y167410D01*
X334400Y168395D01*
X334539Y169453D01*
X334400Y170510D01*
X333991Y171496D01*
X333342Y172342D01*
X332496Y172992D01*
X331510Y173400D01*
X330453Y173539D01*
D02*
G37*
G36*
X320453D02*
X319395Y173400D01*
X318410Y172992D01*
X317563Y172342D01*
X316914Y171496D01*
X316506Y170510D01*
X316367Y169453D01*
X316506Y168395D01*
X316914Y167410D01*
X317563Y166563D01*
X318410Y165914D01*
X319395Y165506D01*
X320453Y165367D01*
X321510Y165506D01*
X322496Y165914D01*
X323342Y166563D01*
X323991Y167410D01*
X324400Y168395D01*
X324539Y169453D01*
X324400Y170510D01*
X323991Y171496D01*
X323342Y172342D01*
X322496Y172992D01*
X321510Y173400D01*
X320453Y173539D01*
D02*
G37*
G36*
X350453Y163539D02*
X349395Y163400D01*
X348410Y162991D01*
X347563Y162342D01*
X346914Y161496D01*
X346506Y160510D01*
X346367Y159453D01*
X346506Y158395D01*
X346914Y157410D01*
X347563Y156563D01*
X348410Y155914D01*
X349395Y155506D01*
X350453Y155367D01*
X351510Y155506D01*
X352496Y155914D01*
X353342Y156563D01*
X353991Y157410D01*
X354400Y158395D01*
X354539Y159453D01*
X354400Y160510D01*
X353991Y161496D01*
X353342Y162342D01*
X352496Y162991D01*
X351510Y163400D01*
X350453Y163539D01*
D02*
G37*
G36*
X340453D02*
X339395Y163400D01*
X338410Y162991D01*
X337563Y162342D01*
X336914Y161496D01*
X336506Y160510D01*
X336367Y159453D01*
X336506Y158395D01*
X336914Y157410D01*
X337563Y156563D01*
X338410Y155914D01*
X339395Y155506D01*
X340453Y155367D01*
X341510Y155506D01*
X342496Y155914D01*
X343342Y156563D01*
X343991Y157410D01*
X344400Y158395D01*
X344539Y159453D01*
X344400Y160510D01*
X343991Y161496D01*
X343342Y162342D01*
X342496Y162991D01*
X341510Y163400D01*
X340453Y163539D01*
D02*
G37*
G36*
X330453D02*
X329395Y163400D01*
X328410Y162991D01*
X327563Y162342D01*
X326914Y161496D01*
X326506Y160510D01*
X326367Y159453D01*
X326506Y158395D01*
X326914Y157410D01*
X327563Y156563D01*
X328410Y155914D01*
X329395Y155506D01*
X330453Y155367D01*
X331510Y155506D01*
X332496Y155914D01*
X333342Y156563D01*
X333991Y157410D01*
X334400Y158395D01*
X334539Y159453D01*
X334400Y160510D01*
X333991Y161496D01*
X333342Y162342D01*
X332496Y162991D01*
X331510Y163400D01*
X330453Y163539D01*
D02*
G37*
G36*
X320453D02*
X319395Y163400D01*
X318410Y162991D01*
X317563Y162342D01*
X316914Y161496D01*
X316506Y160510D01*
X316367Y159453D01*
X316506Y158395D01*
X316914Y157410D01*
X317563Y156563D01*
X318410Y155914D01*
X319395Y155506D01*
X320453Y155367D01*
X321510Y155506D01*
X322496Y155914D01*
X323342Y156563D01*
X323991Y157410D01*
X324400Y158395D01*
X324539Y159453D01*
X324400Y160510D01*
X323991Y161496D01*
X323342Y162342D01*
X322496Y162991D01*
X321510Y163400D01*
X320453Y163539D01*
D02*
G37*
G36*
X350453Y153539D02*
X349395Y153400D01*
X348410Y152991D01*
X347563Y152342D01*
X346914Y151496D01*
X346506Y150510D01*
X346367Y149453D01*
X346506Y148395D01*
X346914Y147410D01*
X347563Y146563D01*
X348410Y145914D01*
X349395Y145506D01*
X350453Y145367D01*
X351510Y145506D01*
X352496Y145914D01*
X353342Y146563D01*
X353991Y147410D01*
X354400Y148395D01*
X354539Y149453D01*
X354400Y150510D01*
X353991Y151496D01*
X353342Y152342D01*
X352496Y152991D01*
X351510Y153400D01*
X350453Y153539D01*
D02*
G37*
G36*
X340453D02*
X339395Y153400D01*
X338410Y152991D01*
X337563Y152342D01*
X336914Y151496D01*
X336506Y150510D01*
X336367Y149453D01*
X336506Y148395D01*
X336914Y147410D01*
X337563Y146563D01*
X338410Y145914D01*
X339395Y145506D01*
X340453Y145367D01*
X341510Y145506D01*
X342496Y145914D01*
X343342Y146563D01*
X343991Y147410D01*
X344400Y148395D01*
X344539Y149453D01*
X344400Y150510D01*
X343991Y151496D01*
X343342Y152342D01*
X342496Y152991D01*
X341510Y153400D01*
X340453Y153539D01*
D02*
G37*
G36*
X330453D02*
X329395Y153400D01*
X328410Y152991D01*
X327563Y152342D01*
X326914Y151496D01*
X326506Y150510D01*
X326367Y149453D01*
X326506Y148395D01*
X326914Y147410D01*
X327563Y146563D01*
X328410Y145914D01*
X329395Y145506D01*
X330453Y145367D01*
X331510Y145506D01*
X332496Y145914D01*
X333342Y146563D01*
X333991Y147410D01*
X334400Y148395D01*
X334539Y149453D01*
X334400Y150510D01*
X333991Y151496D01*
X333342Y152342D01*
X332496Y152991D01*
X331510Y153400D01*
X330453Y153539D01*
D02*
G37*
G36*
X320453D02*
X319395Y153400D01*
X318410Y152991D01*
X317563Y152342D01*
X316914Y151496D01*
X316506Y150510D01*
X316367Y149453D01*
X316506Y148395D01*
X316914Y147410D01*
X317563Y146563D01*
X318410Y145914D01*
X319395Y145506D01*
X320453Y145367D01*
X321510Y145506D01*
X322496Y145914D01*
X323342Y146563D01*
X323991Y147410D01*
X324400Y148395D01*
X324539Y149453D01*
X324400Y150510D01*
X323991Y151496D01*
X323342Y152342D01*
X322496Y152991D01*
X321510Y153400D01*
X320453Y153539D01*
D02*
G37*
G36*
X257455Y150910D02*
X257349Y150900D01*
X256046Y150505D01*
X254845Y149863D01*
X253793Y148999D01*
X252929Y147946D01*
X252287Y146745D01*
X251891Y145442D01*
X251881Y145337D01*
X257455D01*
Y150910D01*
D02*
G37*
G36*
X11482Y142656D02*
Y139498D01*
X14641D01*
X14208Y140543D01*
X13478Y141494D01*
X12528Y142224D01*
X11482Y142656D01*
D02*
G37*
G36*
X8982D02*
X7937Y142224D01*
X6986Y141494D01*
X6257Y140543D01*
X5824Y139498D01*
X8982D01*
Y142656D01*
D02*
G37*
G36*
X18982D02*
X17937Y142224D01*
X16986Y141494D01*
X16257Y140543D01*
X15824Y139498D01*
X18982D01*
Y142656D01*
D02*
G37*
G36*
X259955Y150910D02*
Y144087D01*
Y137263D01*
X260060Y137273D01*
X261363Y137669D01*
X262564Y138311D01*
X263617Y139174D01*
X264009Y139653D01*
X264480Y139485D01*
Y137337D01*
X270604D01*
Y145429D01*
X265519D01*
X265518Y145442D01*
X265123Y146745D01*
X264481Y147946D01*
X263617Y148999D01*
X262564Y149863D01*
X261363Y150505D01*
X260060Y150900D01*
X259955Y150910D01*
D02*
G37*
G36*
X257455Y142837D02*
X251881D01*
X251891Y142731D01*
X252287Y141428D01*
X252929Y140227D01*
X253793Y139174D01*
X254845Y138311D01*
X256046Y137669D01*
X257349Y137273D01*
X257455Y137263D01*
Y142837D01*
D02*
G37*
G36*
X350453Y143539D02*
X349395Y143400D01*
X348410Y142991D01*
X347563Y142342D01*
X346914Y141496D01*
X346506Y140510D01*
X346367Y139453D01*
X346506Y138395D01*
X346914Y137410D01*
X347563Y136563D01*
X348410Y135914D01*
X349395Y135506D01*
X350453Y135367D01*
X351510Y135506D01*
X352496Y135914D01*
X353342Y136563D01*
X353991Y137410D01*
X354400Y138395D01*
X354539Y139453D01*
X354400Y140510D01*
X353991Y141496D01*
X353342Y142342D01*
X352496Y142991D01*
X351510Y143400D01*
X350453Y143539D01*
D02*
G37*
G36*
X340453D02*
X339395Y143400D01*
X338410Y142991D01*
X337563Y142342D01*
X336914Y141496D01*
X336506Y140510D01*
X336367Y139453D01*
X336506Y138395D01*
X336914Y137410D01*
X337563Y136563D01*
X338410Y135914D01*
X339395Y135506D01*
X340453Y135367D01*
X341510Y135506D01*
X342496Y135914D01*
X343342Y136563D01*
X343991Y137410D01*
X344400Y138395D01*
X344539Y139453D01*
X344400Y140510D01*
X343991Y141496D01*
X343342Y142342D01*
X342496Y142991D01*
X341510Y143400D01*
X340453Y143539D01*
D02*
G37*
G36*
X330453D02*
X329395Y143400D01*
X328410Y142991D01*
X327563Y142342D01*
X326914Y141496D01*
X326506Y140510D01*
X326367Y139453D01*
X326506Y138395D01*
X326914Y137410D01*
X327563Y136563D01*
X328410Y135914D01*
X329395Y135506D01*
X330453Y135367D01*
X331510Y135506D01*
X332496Y135914D01*
X333342Y136563D01*
X333991Y137410D01*
X334400Y138395D01*
X334539Y139453D01*
X334400Y140510D01*
X333991Y141496D01*
X333342Y142342D01*
X332496Y142991D01*
X331510Y143400D01*
X330453Y143539D01*
D02*
G37*
G36*
X320453D02*
X319395Y143400D01*
X318410Y142991D01*
X317563Y142342D01*
X316914Y141496D01*
X316506Y140510D01*
X316367Y139453D01*
X316506Y138395D01*
X316914Y137410D01*
X317563Y136563D01*
X318410Y135914D01*
X319395Y135506D01*
X320453Y135367D01*
X321510Y135506D01*
X322496Y135914D01*
X323342Y136563D01*
X323991Y137410D01*
X324400Y138395D01*
X324539Y139453D01*
X324400Y140510D01*
X323991Y141496D01*
X323342Y142342D01*
X322496Y142991D01*
X321510Y143400D01*
X320453Y143539D01*
D02*
G37*
G36*
X289955Y140910D02*
Y135337D01*
X295528D01*
X295518Y135442D01*
X295123Y136745D01*
X294481Y137946D01*
X293617Y138999D01*
X292564Y139863D01*
X291363Y140505D01*
X290060Y140900D01*
X289955Y140910D01*
D02*
G37*
G36*
X283228Y145429D02*
X277104D01*
Y134087D01*
Y122744D01*
X283228D01*
Y129120D01*
X283699Y129288D01*
X283793Y129174D01*
X284845Y128311D01*
X286046Y127669D01*
X287350Y127273D01*
X287455Y127263D01*
Y134087D01*
X288705D01*
D01*
X287455D01*
Y140910D01*
X287350Y140900D01*
X286046Y140505D01*
X284845Y139863D01*
X283793Y138999D01*
X283699Y138885D01*
X283228Y139053D01*
Y145429D01*
D02*
G37*
G36*
X295528Y132837D02*
X289955D01*
Y127263D01*
X290060Y127273D01*
X291363Y127669D01*
X292564Y128311D01*
X293617Y129174D01*
X294481Y130227D01*
X295123Y131428D01*
X295518Y132731D01*
X295528Y132837D01*
D02*
G37*
G36*
X350453Y133539D02*
X349395Y133400D01*
X348410Y132992D01*
X347563Y132342D01*
X346914Y131496D01*
X346506Y130510D01*
X346367Y129453D01*
X346506Y128395D01*
X346914Y127410D01*
X347563Y126563D01*
X348410Y125914D01*
X349395Y125506D01*
X350453Y125367D01*
X351510Y125506D01*
X352496Y125914D01*
X353342Y126563D01*
X353991Y127410D01*
X354400Y128395D01*
X354539Y129453D01*
X354400Y130510D01*
X353991Y131496D01*
X353342Y132342D01*
X352496Y132992D01*
X351510Y133400D01*
X350453Y133539D01*
D02*
G37*
G36*
X340453D02*
X339395Y133400D01*
X338410Y132992D01*
X337563Y132342D01*
X336914Y131496D01*
X336506Y130510D01*
X336367Y129453D01*
X336506Y128395D01*
X336914Y127410D01*
X337563Y126563D01*
X338410Y125914D01*
X339395Y125506D01*
X340453Y125367D01*
X341510Y125506D01*
X342496Y125914D01*
X343342Y126563D01*
X343991Y127410D01*
X344400Y128395D01*
X344539Y129453D01*
X344400Y130510D01*
X343991Y131496D01*
X343342Y132342D01*
X342496Y132992D01*
X341510Y133400D01*
X340453Y133539D01*
D02*
G37*
G36*
X330453D02*
X329395Y133400D01*
X328410Y132992D01*
X327563Y132342D01*
X326914Y131496D01*
X326506Y130510D01*
X326367Y129453D01*
X326506Y128395D01*
X326914Y127410D01*
X327563Y126563D01*
X328410Y125914D01*
X329395Y125506D01*
X330453Y125367D01*
X331510Y125506D01*
X332496Y125914D01*
X333342Y126563D01*
X333991Y127410D01*
X334400Y128395D01*
X334539Y129453D01*
X334400Y130510D01*
X333991Y131496D01*
X333342Y132342D01*
X332496Y132992D01*
X331510Y133400D01*
X330453Y133539D01*
D02*
G37*
G36*
X320453D02*
X319395Y133400D01*
X318410Y132992D01*
X317563Y132342D01*
X316914Y131496D01*
X316506Y130510D01*
X316367Y129453D01*
X316506Y128395D01*
X316914Y127410D01*
X317563Y126563D01*
X318410Y125914D01*
X319395Y125506D01*
X320453Y125367D01*
X321510Y125506D01*
X322496Y125914D01*
X323342Y126563D01*
X323991Y127410D01*
X324400Y128395D01*
X324539Y129453D01*
X324400Y130510D01*
X323991Y131496D01*
X323342Y132342D01*
X322496Y132992D01*
X321510Y133400D01*
X320453Y133539D01*
D02*
G37*
G36*
X257455Y130910D02*
X257349Y130900D01*
X256046Y130505D01*
X254845Y129863D01*
X253793Y128999D01*
X252929Y127946D01*
X252287Y126745D01*
X251891Y125442D01*
X251881Y125337D01*
X257455D01*
Y130910D01*
D02*
G37*
G36*
Y122837D02*
X251881D01*
X251891Y122731D01*
X252287Y121428D01*
X252929Y120227D01*
X253793Y119175D01*
X254845Y118310D01*
X256046Y117669D01*
X257349Y117273D01*
X257455Y117263D01*
Y122837D01*
D02*
G37*
G36*
X259955Y130910D02*
Y124087D01*
Y117263D01*
X260060Y117273D01*
X261363Y117669D01*
X262564Y118310D01*
X263617Y119175D01*
X264481Y120227D01*
X265123Y121428D01*
X265518Y122731D01*
X265519Y122744D01*
X270604D01*
Y130837D01*
X264480D01*
Y128689D01*
X264009Y128520D01*
X263617Y128999D01*
X262564Y129863D01*
X261363Y130505D01*
X260060Y130900D01*
X259955Y130910D01*
D02*
G37*
G36*
X350453Y123539D02*
X349395Y123400D01*
X348410Y122992D01*
X347563Y122342D01*
X346914Y121496D01*
X346506Y120510D01*
X346367Y119453D01*
X346506Y118395D01*
X346914Y117410D01*
X347563Y116563D01*
X348410Y115914D01*
X349395Y115506D01*
X350453Y115367D01*
X351510Y115506D01*
X352496Y115914D01*
X353342Y116563D01*
X353991Y117410D01*
X354400Y118395D01*
X354539Y119453D01*
X354400Y120510D01*
X353991Y121496D01*
X353342Y122342D01*
X352496Y122992D01*
X351510Y123400D01*
X350453Y123539D01*
D02*
G37*
G36*
X340453D02*
X339395Y123400D01*
X338410Y122992D01*
X337563Y122342D01*
X336914Y121496D01*
X336506Y120510D01*
X336367Y119453D01*
X336506Y118395D01*
X336914Y117410D01*
X337563Y116563D01*
X338410Y115914D01*
X339395Y115506D01*
X340453Y115367D01*
X341510Y115506D01*
X342496Y115914D01*
X343342Y116563D01*
X343991Y117410D01*
X344400Y118395D01*
X344539Y119453D01*
X344400Y120510D01*
X343991Y121496D01*
X343342Y122342D01*
X342496Y122992D01*
X341510Y123400D01*
X340453Y123539D01*
D02*
G37*
G36*
X330453D02*
X329395Y123400D01*
X328410Y122992D01*
X327563Y122342D01*
X326914Y121496D01*
X326506Y120510D01*
X326367Y119453D01*
X326506Y118395D01*
X326914Y117410D01*
X327563Y116563D01*
X328410Y115914D01*
X329395Y115506D01*
X330453Y115367D01*
X331510Y115506D01*
X332496Y115914D01*
X333342Y116563D01*
X333991Y117410D01*
X334400Y118395D01*
X334539Y119453D01*
X334400Y120510D01*
X333991Y121496D01*
X333342Y122342D01*
X332496Y122992D01*
X331510Y123400D01*
X330453Y123539D01*
D02*
G37*
G36*
X320453D02*
X319395Y123400D01*
X318410Y122992D01*
X317563Y122342D01*
X316914Y121496D01*
X316506Y120510D01*
X316367Y119453D01*
X316506Y118395D01*
X316914Y117410D01*
X317563Y116563D01*
X318410Y115914D01*
X319395Y115506D01*
X320453Y115367D01*
X321510Y115506D01*
X322496Y115914D01*
X323342Y116563D01*
X323991Y117410D01*
X324400Y118395D01*
X324539Y119453D01*
X324400Y120510D01*
X323991Y121496D01*
X323342Y122342D01*
X322496Y122992D01*
X321510Y123400D01*
X320453Y123539D01*
D02*
G37*
G36*
X350453Y113539D02*
X349395Y113400D01*
X348410Y112991D01*
X347563Y112342D01*
X346914Y111496D01*
X346506Y110510D01*
X346367Y109453D01*
X346506Y108395D01*
X346914Y107410D01*
X347563Y106563D01*
X348410Y105914D01*
X349395Y105506D01*
X350453Y105367D01*
X351510Y105506D01*
X352496Y105914D01*
X353342Y106563D01*
X353991Y107410D01*
X354400Y108395D01*
X354539Y109453D01*
X354400Y110510D01*
X353991Y111496D01*
X353342Y112342D01*
X352496Y112991D01*
X351510Y113400D01*
X350453Y113539D01*
D02*
G37*
G36*
X340453D02*
X339395Y113400D01*
X338410Y112991D01*
X337563Y112342D01*
X336914Y111496D01*
X336506Y110510D01*
X336367Y109453D01*
X336506Y108395D01*
X336914Y107410D01*
X337563Y106563D01*
X338410Y105914D01*
X339395Y105506D01*
X340453Y105367D01*
X341510Y105506D01*
X342496Y105914D01*
X343342Y106563D01*
X343991Y107410D01*
X344400Y108395D01*
X344539Y109453D01*
X344400Y110510D01*
X343991Y111496D01*
X343342Y112342D01*
X342496Y112991D01*
X341510Y113400D01*
X340453Y113539D01*
D02*
G37*
G36*
X330453D02*
X329395Y113400D01*
X328410Y112991D01*
X327563Y112342D01*
X326914Y111496D01*
X326506Y110510D01*
X326367Y109453D01*
X326506Y108395D01*
X326914Y107410D01*
X327563Y106563D01*
X328410Y105914D01*
X329395Y105506D01*
X330453Y105367D01*
X331510Y105506D01*
X332496Y105914D01*
X333342Y106563D01*
X333991Y107410D01*
X334400Y108395D01*
X334539Y109453D01*
X334400Y110510D01*
X333991Y111496D01*
X333342Y112342D01*
X332496Y112991D01*
X331510Y113400D01*
X330453Y113539D01*
D02*
G37*
G36*
X320453D02*
X319395Y113400D01*
X318410Y112991D01*
X317563Y112342D01*
X316914Y111496D01*
X316506Y110510D01*
X316367Y109453D01*
X316506Y108395D01*
X316914Y107410D01*
X317563Y106563D01*
X318410Y105914D01*
X319395Y105506D01*
X320453Y105367D01*
X321510Y105506D01*
X322496Y105914D01*
X323342Y106563D01*
X323991Y107410D01*
X324400Y108395D01*
X324539Y109453D01*
X324400Y110510D01*
X323991Y111496D01*
X323342Y112342D01*
X322496Y112991D01*
X321510Y113400D01*
X320453Y113539D01*
D02*
G37*
G36*
X214386Y256591D02*
X205299D01*
Y250063D01*
X207294D01*
Y100764D01*
X205299D01*
Y94236D01*
X214386D01*
Y96734D01*
X239490D01*
X239789Y96505D01*
X240563Y96184D01*
X241394Y96075D01*
X242224Y96184D01*
X242998Y96505D01*
X243663Y97015D01*
X244172Y97679D01*
X244493Y98453D01*
X244602Y99283D01*
X244493Y100114D01*
X244172Y100888D01*
X243663Y101552D01*
X242998Y102062D01*
X242224Y102383D01*
X241394Y102492D01*
X240563Y102383D01*
X239789Y102062D01*
X239490Y101832D01*
X212391D01*
Y250063D01*
X214386D01*
Y256591D01*
D02*
G37*
G36*
X350453Y103539D02*
X349395Y103400D01*
X348410Y102991D01*
X347563Y102342D01*
X346914Y101496D01*
X346506Y100510D01*
X346367Y99453D01*
X346506Y98395D01*
X346914Y97410D01*
X347563Y96563D01*
X348410Y95914D01*
X349395Y95506D01*
X350453Y95367D01*
X351510Y95506D01*
X352496Y95914D01*
X353342Y96563D01*
X353991Y97410D01*
X354400Y98395D01*
X354539Y99453D01*
X354400Y100510D01*
X353991Y101496D01*
X353342Y102342D01*
X352496Y102991D01*
X351510Y103400D01*
X350453Y103539D01*
D02*
G37*
G36*
X340453D02*
X339395Y103400D01*
X338410Y102991D01*
X337563Y102342D01*
X336914Y101496D01*
X336506Y100510D01*
X336367Y99453D01*
X336506Y98395D01*
X336914Y97410D01*
X337563Y96563D01*
X338410Y95914D01*
X339395Y95506D01*
X340453Y95367D01*
X341510Y95506D01*
X342496Y95914D01*
X343342Y96563D01*
X343991Y97410D01*
X344400Y98395D01*
X344539Y99453D01*
X344400Y100510D01*
X343991Y101496D01*
X343342Y102342D01*
X342496Y102991D01*
X341510Y103400D01*
X340453Y103539D01*
D02*
G37*
G36*
X330453D02*
X329395Y103400D01*
X328410Y102991D01*
X327563Y102342D01*
X326914Y101496D01*
X326506Y100510D01*
X326367Y99453D01*
X326506Y98395D01*
X326914Y97410D01*
X327563Y96563D01*
X328410Y95914D01*
X329395Y95506D01*
X330453Y95367D01*
X331510Y95506D01*
X332496Y95914D01*
X333342Y96563D01*
X333991Y97410D01*
X334400Y98395D01*
X334539Y99453D01*
X334400Y100510D01*
X333991Y101496D01*
X333342Y102342D01*
X332496Y102991D01*
X331510Y103400D01*
X330453Y103539D01*
D02*
G37*
G36*
X320453D02*
X319395Y103400D01*
X318410Y102991D01*
X317563Y102342D01*
X316914Y101496D01*
X316506Y100510D01*
X316367Y99453D01*
X316506Y98395D01*
X316914Y97410D01*
X317563Y96563D01*
X318410Y95914D01*
X319395Y95506D01*
X320453Y95367D01*
X321510Y95506D01*
X322496Y95914D01*
X323342Y96563D01*
X323991Y97410D01*
X324400Y98395D01*
X324539Y99453D01*
X324400Y100510D01*
X323991Y101496D01*
X323342Y102342D01*
X322496Y102991D01*
X321510Y103400D01*
X320453Y103539D01*
D02*
G37*
G36*
X235585Y95681D02*
X234527Y95541D01*
X233542Y95133D01*
X232695Y94484D01*
X232046Y93638D01*
X231638Y92652D01*
X231499Y91594D01*
X231638Y90537D01*
X232046Y89551D01*
X232695Y88705D01*
X233542Y88056D01*
X234527Y87648D01*
X235585Y87508D01*
X236642Y87648D01*
X237628Y88056D01*
X238474Y88705D01*
X239123Y89551D01*
X239532Y90537D01*
X239671Y91594D01*
X239532Y92652D01*
X239123Y93638D01*
X238474Y94484D01*
X237628Y95133D01*
X236642Y95541D01*
X235585Y95681D01*
D02*
G37*
G36*
X350453Y93539D02*
X349395Y93400D01*
X348410Y92991D01*
X347563Y92342D01*
X346914Y91496D01*
X346506Y90510D01*
X346367Y89453D01*
X346506Y88395D01*
X346914Y87410D01*
X347563Y86563D01*
X348410Y85914D01*
X349395Y85506D01*
X350453Y85367D01*
X351510Y85506D01*
X352496Y85914D01*
X353342Y86563D01*
X353991Y87410D01*
X354400Y88395D01*
X354539Y89453D01*
X354400Y90510D01*
X353991Y91496D01*
X353342Y92342D01*
X352496Y92991D01*
X351510Y93400D01*
X350453Y93539D01*
D02*
G37*
G36*
X340453D02*
X339395Y93400D01*
X338410Y92991D01*
X337563Y92342D01*
X336914Y91496D01*
X336506Y90510D01*
X336367Y89453D01*
X336506Y88395D01*
X336914Y87410D01*
X337563Y86563D01*
X338410Y85914D01*
X339395Y85506D01*
X340453Y85367D01*
X341510Y85506D01*
X342496Y85914D01*
X343342Y86563D01*
X343991Y87410D01*
X344400Y88395D01*
X344539Y89453D01*
X344400Y90510D01*
X343991Y91496D01*
X343342Y92342D01*
X342496Y92991D01*
X341510Y93400D01*
X340453Y93539D01*
D02*
G37*
G36*
X330453D02*
X329395Y93400D01*
X328410Y92991D01*
X327563Y92342D01*
X326914Y91496D01*
X326506Y90510D01*
X326367Y89453D01*
X326506Y88395D01*
X326914Y87410D01*
X327563Y86563D01*
X328410Y85914D01*
X329395Y85506D01*
X330453Y85367D01*
X331510Y85506D01*
X332496Y85914D01*
X333342Y86563D01*
X333991Y87410D01*
X334400Y88395D01*
X334539Y89453D01*
X334400Y90510D01*
X333991Y91496D01*
X333342Y92342D01*
X332496Y92991D01*
X331510Y93400D01*
X330453Y93539D01*
D02*
G37*
G36*
X320453D02*
X319395Y93400D01*
X318410Y92991D01*
X317563Y92342D01*
X316914Y91496D01*
X316506Y90510D01*
X316367Y89453D01*
X316506Y88395D01*
X316914Y87410D01*
X317563Y86563D01*
X318410Y85914D01*
X319395Y85506D01*
X320453Y85367D01*
X321510Y85506D01*
X322496Y85914D01*
X323342Y86563D01*
X323991Y87410D01*
X324400Y88395D01*
X324539Y89453D01*
X324400Y90510D01*
X323991Y91496D01*
X323342Y92342D01*
X322496Y92991D01*
X321510Y93400D01*
X320453Y93539D01*
D02*
G37*
G36*
X214386Y88953D02*
X205299D01*
Y82425D01*
X211340D01*
X211591Y82174D01*
X212418Y81621D01*
X213394Y81427D01*
X235116D01*
X235415Y81198D01*
X236189Y80877D01*
X237020Y80768D01*
X237850Y80877D01*
X238624Y81198D01*
X239288Y81708D01*
X239798Y82372D01*
X240119Y83146D01*
X240228Y83976D01*
X240119Y84807D01*
X239798Y85581D01*
X239288Y86245D01*
X238624Y86755D01*
X237850Y87076D01*
X237020Y87185D01*
X236189Y87076D01*
X235415Y86755D01*
X235116Y86525D01*
X214450D01*
X214386Y86589D01*
Y88953D01*
D02*
G37*
G36*
X259703Y104457D02*
X257693Y104299D01*
X255732Y103828D01*
X253869Y103056D01*
X252150Y102003D01*
X250616Y100693D01*
X249307Y99160D01*
X248253Y97440D01*
X247481Y95577D01*
X247011Y93617D01*
X246852Y91606D01*
X247011Y89596D01*
X247481Y87635D01*
X248253Y85772D01*
X249307Y84053D01*
X250616Y82520D01*
X252150Y81210D01*
X253869Y80156D01*
X255732Y79385D01*
X257693Y78914D01*
X259703Y78756D01*
X261713Y78914D01*
X263674Y79385D01*
X265537Y80156D01*
X267256Y81210D01*
X268790Y82520D01*
X270099Y84053D01*
X271153Y85772D01*
X271925Y87635D01*
X272396Y89596D01*
X272554Y91606D01*
X272396Y93617D01*
X271925Y95577D01*
X271153Y97440D01*
X270099Y99160D01*
X268790Y100693D01*
X267256Y102003D01*
X265537Y103056D01*
X263674Y103828D01*
X261713Y104299D01*
X259703Y104457D01*
D02*
G37*
G36*
X350453Y83539D02*
X349395Y83400D01*
X348410Y82991D01*
X347563Y82342D01*
X346914Y81496D01*
X346506Y80510D01*
X346367Y79453D01*
X346506Y78395D01*
X346914Y77410D01*
X347563Y76563D01*
X348410Y75914D01*
X349395Y75506D01*
X350453Y75367D01*
X351510Y75506D01*
X352496Y75914D01*
X353342Y76563D01*
X353991Y77410D01*
X354400Y78395D01*
X354539Y79453D01*
X354400Y80510D01*
X353991Y81496D01*
X353342Y82342D01*
X352496Y82991D01*
X351510Y83400D01*
X350453Y83539D01*
D02*
G37*
G36*
X340453D02*
X339395Y83400D01*
X338410Y82991D01*
X337563Y82342D01*
X336914Y81496D01*
X336506Y80510D01*
X336367Y79453D01*
X336506Y78395D01*
X336914Y77410D01*
X337563Y76563D01*
X338410Y75914D01*
X339395Y75506D01*
X340453Y75367D01*
X341510Y75506D01*
X342496Y75914D01*
X343342Y76563D01*
X343991Y77410D01*
X344400Y78395D01*
X344539Y79453D01*
X344400Y80510D01*
X343991Y81496D01*
X343342Y82342D01*
X342496Y82991D01*
X341510Y83400D01*
X340453Y83539D01*
D02*
G37*
G36*
X330453D02*
X329395Y83400D01*
X328410Y82991D01*
X327563Y82342D01*
X326914Y81496D01*
X326506Y80510D01*
X326367Y79453D01*
X326506Y78395D01*
X326914Y77410D01*
X327563Y76563D01*
X328410Y75914D01*
X329395Y75506D01*
X330453Y75367D01*
X331510Y75506D01*
X332496Y75914D01*
X333342Y76563D01*
X333991Y77410D01*
X334400Y78395D01*
X334539Y79453D01*
X334400Y80510D01*
X333991Y81496D01*
X333342Y82342D01*
X332496Y82991D01*
X331510Y83400D01*
X330453Y83539D01*
D02*
G37*
G36*
X320453D02*
X319395Y83400D01*
X318410Y82991D01*
X317563Y82342D01*
X316914Y81496D01*
X316506Y80510D01*
X316367Y79453D01*
X316506Y78395D01*
X316914Y77410D01*
X317563Y76563D01*
X318410Y75914D01*
X319395Y75506D01*
X320453Y75367D01*
X321510Y75506D01*
X322496Y75914D01*
X323342Y76563D01*
X323991Y77410D01*
X324400Y78395D01*
X324539Y79453D01*
X324400Y80510D01*
X323991Y81496D01*
X323342Y82342D01*
X322496Y82991D01*
X321510Y83400D01*
X320453Y83539D01*
D02*
G37*
G36*
X350453Y73539D02*
X349395Y73400D01*
X348410Y72991D01*
X347563Y72342D01*
X346914Y71496D01*
X346506Y70510D01*
X346367Y69453D01*
X346506Y68395D01*
X346914Y67410D01*
X347563Y66563D01*
X348410Y65914D01*
X349395Y65506D01*
X350453Y65367D01*
X351510Y65506D01*
X352496Y65914D01*
X353342Y66563D01*
X353991Y67410D01*
X354400Y68395D01*
X354539Y69453D01*
X354400Y70510D01*
X353991Y71496D01*
X353342Y72342D01*
X352496Y72991D01*
X351510Y73400D01*
X350453Y73539D01*
D02*
G37*
G36*
X340453D02*
X339395Y73400D01*
X338410Y72991D01*
X337563Y72342D01*
X336914Y71496D01*
X336506Y70510D01*
X336367Y69453D01*
X336506Y68395D01*
X336914Y67410D01*
X337563Y66563D01*
X338410Y65914D01*
X339395Y65506D01*
X340453Y65367D01*
X341510Y65506D01*
X342496Y65914D01*
X343342Y66563D01*
X343991Y67410D01*
X344400Y68395D01*
X344539Y69453D01*
X344400Y70510D01*
X343991Y71496D01*
X343342Y72342D01*
X342496Y72991D01*
X341510Y73400D01*
X340453Y73539D01*
D02*
G37*
G36*
X330453D02*
X329395Y73400D01*
X328410Y72991D01*
X327563Y72342D01*
X326914Y71496D01*
X326506Y70510D01*
X326367Y69453D01*
X326506Y68395D01*
X326914Y67410D01*
X327563Y66563D01*
X328410Y65914D01*
X329395Y65506D01*
X330453Y65367D01*
X331510Y65506D01*
X332496Y65914D01*
X333342Y66563D01*
X333991Y67410D01*
X334400Y68395D01*
X334539Y69453D01*
X334400Y70510D01*
X333991Y71496D01*
X333342Y72342D01*
X332496Y72991D01*
X331510Y73400D01*
X330453Y73539D01*
D02*
G37*
G36*
X320453D02*
X319395Y73400D01*
X318410Y72991D01*
X317563Y72342D01*
X316914Y71496D01*
X316506Y70510D01*
X316367Y69453D01*
X316506Y68395D01*
X316914Y67410D01*
X317563Y66563D01*
X318410Y65914D01*
X319395Y65506D01*
X320453Y65367D01*
X321510Y65506D01*
X322496Y65914D01*
X323342Y66563D01*
X323991Y67410D01*
X324400Y68395D01*
X324539Y69453D01*
X324400Y70510D01*
X323991Y71496D01*
X323342Y72342D01*
X322496Y72991D01*
X321510Y73400D01*
X320453Y73539D01*
D02*
G37*
G36*
X257455Y65950D02*
X257349Y65939D01*
X256046Y65544D01*
X254845Y64902D01*
X253793Y64038D01*
X252929Y62985D01*
X252287Y61784D01*
X251891Y60481D01*
X251881Y60376D01*
X257455D01*
Y65950D01*
D02*
G37*
G36*
X350453Y63539D02*
X349395Y63400D01*
X348410Y62991D01*
X347563Y62342D01*
X346914Y61496D01*
X346506Y60510D01*
X346367Y59453D01*
X346506Y58395D01*
X346914Y57410D01*
X347563Y56563D01*
X348410Y55914D01*
X349395Y55506D01*
X350453Y55367D01*
X351510Y55506D01*
X352496Y55914D01*
X353342Y56563D01*
X353991Y57410D01*
X354400Y58395D01*
X354539Y59453D01*
X354400Y60510D01*
X353991Y61496D01*
X353342Y62342D01*
X352496Y62991D01*
X351510Y63400D01*
X350453Y63539D01*
D02*
G37*
G36*
X340453D02*
X339395Y63400D01*
X338410Y62991D01*
X337563Y62342D01*
X336914Y61496D01*
X336506Y60510D01*
X336367Y59453D01*
X336506Y58395D01*
X336914Y57410D01*
X337563Y56563D01*
X338410Y55914D01*
X339395Y55506D01*
X340453Y55367D01*
X341510Y55506D01*
X342496Y55914D01*
X343342Y56563D01*
X343991Y57410D01*
X344400Y58395D01*
X344539Y59453D01*
X344400Y60510D01*
X343991Y61496D01*
X343342Y62342D01*
X342496Y62991D01*
X341510Y63400D01*
X340453Y63539D01*
D02*
G37*
G36*
X330453D02*
X329395Y63400D01*
X328410Y62991D01*
X327563Y62342D01*
X326914Y61496D01*
X326506Y60510D01*
X326367Y59453D01*
X326506Y58395D01*
X326914Y57410D01*
X327563Y56563D01*
X328410Y55914D01*
X329395Y55506D01*
X330453Y55367D01*
X331510Y55506D01*
X332496Y55914D01*
X333342Y56563D01*
X333991Y57410D01*
X334400Y58395D01*
X334539Y59453D01*
X334400Y60510D01*
X333991Y61496D01*
X333342Y62342D01*
X332496Y62991D01*
X331510Y63400D01*
X330453Y63539D01*
D02*
G37*
G36*
X320453D02*
X319395Y63400D01*
X318410Y62991D01*
X317563Y62342D01*
X316914Y61496D01*
X316506Y60510D01*
X316367Y59453D01*
X316506Y58395D01*
X316914Y57410D01*
X317563Y56563D01*
X318410Y55914D01*
X319395Y55506D01*
X320453Y55367D01*
X321510Y55506D01*
X322496Y55914D01*
X323342Y56563D01*
X323991Y57410D01*
X324400Y58395D01*
X324539Y59453D01*
X324400Y60510D01*
X323991Y61496D01*
X323342Y62342D01*
X322496Y62991D01*
X321510Y63400D01*
X320453Y63539D01*
D02*
G37*
G36*
X259955Y65950D02*
Y59126D01*
Y52302D01*
X260060Y52313D01*
X261363Y52708D01*
X262564Y53350D01*
X263617Y54214D01*
X264009Y54692D01*
X264480Y54524D01*
Y52927D01*
X270604D01*
Y61020D01*
X265355D01*
X265123Y61784D01*
X264481Y62985D01*
X263617Y64038D01*
X262564Y64902D01*
X261363Y65544D01*
X260060Y65939D01*
X259955Y65950D01*
D02*
G37*
G36*
X257455Y57876D02*
X251881D01*
X251891Y57771D01*
X252287Y56467D01*
X252929Y55266D01*
X253793Y54214D01*
X254845Y53350D01*
X256046Y52708D01*
X257349Y52313D01*
X257455Y52302D01*
Y57876D01*
D02*
G37*
G36*
X289955Y55950D02*
Y50376D01*
X295528D01*
X295518Y50481D01*
X295123Y51784D01*
X294481Y52985D01*
X293617Y54038D01*
X292564Y54902D01*
X291363Y55544D01*
X290060Y55939D01*
X289955Y55950D01*
D02*
G37*
G36*
X350453Y53539D02*
X349395Y53400D01*
X348410Y52991D01*
X347563Y52342D01*
X346914Y51496D01*
X346506Y50510D01*
X346367Y49453D01*
X346506Y48395D01*
X346914Y47410D01*
X347563Y46563D01*
X348410Y45914D01*
X349395Y45506D01*
X350453Y45367D01*
X351510Y45506D01*
X352496Y45914D01*
X353342Y46563D01*
X353991Y47410D01*
X354400Y48395D01*
X354539Y49453D01*
X354400Y50510D01*
X353991Y51496D01*
X353342Y52342D01*
X352496Y52991D01*
X351510Y53400D01*
X350453Y53539D01*
D02*
G37*
G36*
X340453D02*
X339395Y53400D01*
X338410Y52991D01*
X337563Y52342D01*
X336914Y51496D01*
X336506Y50510D01*
X336367Y49453D01*
X336506Y48395D01*
X336914Y47410D01*
X337563Y46563D01*
X338410Y45914D01*
X339395Y45506D01*
X340453Y45367D01*
X341510Y45506D01*
X342496Y45914D01*
X343342Y46563D01*
X343991Y47410D01*
X344400Y48395D01*
X344539Y49453D01*
X344400Y50510D01*
X343991Y51496D01*
X343342Y52342D01*
X342496Y52991D01*
X341510Y53400D01*
X340453Y53539D01*
D02*
G37*
G36*
X330453D02*
X329395Y53400D01*
X328410Y52991D01*
X327563Y52342D01*
X326914Y51496D01*
X326506Y50510D01*
X326367Y49453D01*
X326506Y48395D01*
X326914Y47410D01*
X327563Y46563D01*
X328410Y45914D01*
X329395Y45506D01*
X330453Y45367D01*
X331510Y45506D01*
X332496Y45914D01*
X333342Y46563D01*
X333991Y47410D01*
X334400Y48395D01*
X334539Y49453D01*
X334400Y50510D01*
X333991Y51496D01*
X333342Y52342D01*
X332496Y52991D01*
X331510Y53400D01*
X330453Y53539D01*
D02*
G37*
G36*
X320453D02*
X319395Y53400D01*
X318410Y52991D01*
X317563Y52342D01*
X316914Y51496D01*
X316506Y50510D01*
X316367Y49453D01*
X316506Y48395D01*
X316914Y47410D01*
X317563Y46563D01*
X318410Y45914D01*
X319395Y45506D01*
X320453Y45367D01*
X321510Y45506D01*
X322496Y45914D01*
X323342Y46563D01*
X323991Y47410D01*
X324400Y48395D01*
X324539Y49453D01*
X324400Y50510D01*
X323991Y51496D01*
X323342Y52342D01*
X322496Y52991D01*
X321510Y53400D01*
X320453Y53539D01*
D02*
G37*
G36*
X270604Y46427D02*
X264480D01*
Y43728D01*
X264009Y43560D01*
X263617Y44038D01*
X262564Y44902D01*
X261363Y45544D01*
X260060Y45939D01*
X259955Y45950D01*
Y39126D01*
Y32302D01*
X260060Y32313D01*
X261363Y32708D01*
X262564Y33350D01*
X263617Y34214D01*
X264481Y35267D01*
X265123Y36467D01*
X265518Y37771D01*
X265574Y38335D01*
X270604D01*
Y46427D01*
D02*
G37*
G36*
X283228Y61020D02*
X277104D01*
Y49677D01*
Y38335D01*
X283228D01*
Y44159D01*
X283699Y44328D01*
X283793Y44214D01*
X284845Y43350D01*
X286046Y42708D01*
X287350Y42313D01*
X287455Y42302D01*
Y49126D01*
X288705D01*
D01*
X287455D01*
Y55950D01*
X287350Y55939D01*
X286046Y55544D01*
X284845Y54902D01*
X283793Y54038D01*
X283699Y53924D01*
X283228Y54093D01*
Y61020D01*
D02*
G37*
G36*
X295528Y47876D02*
X289955D01*
Y42302D01*
X290060Y42313D01*
X291363Y42708D01*
X292564Y43350D01*
X293617Y44214D01*
X294481Y45267D01*
X295123Y46468D01*
X295518Y47771D01*
X295528Y47876D01*
D02*
G37*
G36*
X257455Y45950D02*
X257349Y45939D01*
X256046Y45544D01*
X254845Y44902D01*
X253793Y44038D01*
X252929Y42985D01*
X252287Y41784D01*
X251891Y40481D01*
X251881Y40376D01*
X257455D01*
Y45950D01*
D02*
G37*
G36*
Y37876D02*
X251881D01*
X251891Y37771D01*
X252287Y36467D01*
X252929Y35267D01*
X253793Y34214D01*
X254845Y33350D01*
X256046Y32708D01*
X257349Y32313D01*
X257455Y32302D01*
Y37876D01*
D02*
G37*
G36*
X686564Y-143244D02*
X686555D01*
X686546Y-143253D01*
X686518Y-143262D01*
X686482Y-143272D01*
X686436Y-143290D01*
X686381Y-143308D01*
X686318Y-143326D01*
X686245Y-143344D01*
X686163Y-143372D01*
X686063Y-143390D01*
X685962Y-143417D01*
X685844Y-143445D01*
X685716Y-143472D01*
X685589Y-143499D01*
X685443Y-143517D01*
X685288Y-143545D01*
X685270D01*
X685216Y-143554D01*
X685124Y-143572D01*
X685024Y-143590D01*
X684915Y-143609D01*
X684805Y-143636D01*
X684705Y-143663D01*
X684614Y-143700D01*
X684605D01*
X684578Y-143718D01*
X684541Y-143736D01*
X684505Y-143763D01*
X684396Y-143836D01*
X684305Y-143946D01*
Y-143955D01*
X684286Y-143973D01*
X684277Y-144009D01*
X684259Y-144055D01*
X684241Y-144110D01*
X684223Y-144164D01*
X684213Y-144237D01*
X684204Y-144310D01*
Y-144319D01*
Y-144365D01*
X684213Y-144419D01*
X684232Y-144492D01*
X684259Y-144574D01*
X684305Y-144656D01*
X684359Y-144747D01*
X684432Y-144829D01*
X684441Y-144838D01*
X684478Y-144857D01*
X684532Y-144893D01*
X684605Y-144930D01*
X684705Y-144966D01*
X684824Y-145002D01*
X684960Y-145021D01*
X685124Y-145030D01*
X685197D01*
X685288Y-145021D01*
X685389Y-145002D01*
X685516Y-144984D01*
X685644Y-144948D01*
X685780Y-144902D01*
X685917Y-144838D01*
X685935Y-144829D01*
X685972Y-144802D01*
X686035Y-144756D01*
X686108Y-144693D01*
X686190Y-144620D01*
X686281Y-144529D01*
X686354Y-144419D01*
X686427Y-144301D01*
X686436Y-144292D01*
X686445Y-144255D01*
X686463Y-144192D01*
X686491Y-144110D01*
X686518Y-144000D01*
X686536Y-143873D01*
X686546Y-143718D01*
X686555Y-143536D01*
X686564Y-143244D01*
D02*
G37*
G36*
X650761Y-139983D02*
X649267D01*
Y-141878D01*
X650816D01*
X650935Y-141869D01*
X651062Y-141859D01*
X651190Y-141850D01*
X651317Y-141832D01*
X651417Y-141814D01*
X651436Y-141805D01*
X651472Y-141796D01*
X651527Y-141768D01*
X651600Y-141732D01*
X651672Y-141695D01*
X651754Y-141641D01*
X651836Y-141568D01*
X651900Y-141495D01*
X651909Y-141486D01*
X651928Y-141459D01*
X651955Y-141404D01*
X651982Y-141340D01*
X652009Y-141267D01*
X652037Y-141176D01*
X652055Y-141067D01*
X652064Y-140948D01*
Y-140930D01*
Y-140894D01*
X652055Y-140839D01*
X652046Y-140766D01*
X652028Y-140675D01*
X652000Y-140584D01*
X651964Y-140493D01*
X651909Y-140402D01*
X651900Y-140393D01*
X651882Y-140365D01*
X651846Y-140320D01*
X651800Y-140274D01*
X651736Y-140220D01*
X651663Y-140165D01*
X651572Y-140110D01*
X651472Y-140074D01*
X651463D01*
X651417Y-140056D01*
X651354Y-140047D01*
X651253Y-140028D01*
X651117Y-140010D01*
X650962Y-140001D01*
X650761Y-139983D01*
D02*
G37*
G36*
X650925Y-142625D02*
X649267D01*
Y-144793D01*
X651062D01*
X651253Y-144784D01*
X651335Y-144775D01*
X651408Y-144766D01*
X651417D01*
X651454Y-144756D01*
X651509Y-144747D01*
X651572Y-144729D01*
X651727Y-144675D01*
X651882Y-144602D01*
X651891Y-144592D01*
X651918Y-144574D01*
X651955Y-144547D01*
X652000Y-144510D01*
X652046Y-144456D01*
X652110Y-144401D01*
X652155Y-144328D01*
X652210Y-144246D01*
X652219Y-144237D01*
X652228Y-144210D01*
X652246Y-144155D01*
X652274Y-144091D01*
X652301Y-144019D01*
X652319Y-143927D01*
X652328Y-143818D01*
X652338Y-143709D01*
Y-143691D01*
Y-143654D01*
X652328Y-143581D01*
X652310Y-143499D01*
X652292Y-143408D01*
X652255Y-143308D01*
X652210Y-143208D01*
X652146Y-143107D01*
X652137Y-143098D01*
X652110Y-143062D01*
X652073Y-143017D01*
X652019Y-142962D01*
X651946Y-142898D01*
X651855Y-142834D01*
X651754Y-142780D01*
X651636Y-142734D01*
X651618Y-142725D01*
X651581Y-142716D01*
X651499Y-142698D01*
X651399Y-142679D01*
X651272Y-142661D01*
X651117Y-142643D01*
X650925Y-142625D01*
D02*
G37*
G36*
X694827Y-141504D02*
X694772D01*
X694735Y-141513D01*
X694635Y-141522D01*
X694517Y-141550D01*
X694371Y-141595D01*
X694216Y-141659D01*
X694070Y-141750D01*
X693925Y-141869D01*
X693906Y-141887D01*
X693870Y-141932D01*
X693806Y-142014D01*
X693742Y-142124D01*
X693670Y-142251D01*
X693606Y-142415D01*
X693551Y-142606D01*
X693524Y-142816D01*
X696084D01*
Y-142807D01*
Y-142789D01*
X696075Y-142761D01*
Y-142725D01*
X696056Y-142616D01*
X696029Y-142497D01*
X695984Y-142351D01*
X695938Y-142215D01*
X695865Y-142078D01*
X695783Y-141960D01*
Y-141951D01*
X695765Y-141941D01*
X695719Y-141887D01*
X695637Y-141814D01*
X695528Y-141732D01*
X695391Y-141650D01*
X695227Y-141577D01*
X695036Y-141522D01*
X694936Y-141513D01*
X694827Y-141504D01*
D02*
G37*
G36*
X665893D02*
X665838D01*
X665793Y-141513D01*
X665693Y-141522D01*
X665556Y-141559D01*
X665401Y-141613D01*
X665237Y-141686D01*
X665082Y-141796D01*
X665000Y-141869D01*
X664927Y-141941D01*
Y-141951D01*
X664909Y-141960D01*
X664891Y-141987D01*
X664864Y-142024D01*
X664836Y-142069D01*
X664809Y-142124D01*
X664773Y-142197D01*
X664736Y-142269D01*
X664700Y-142360D01*
X664663Y-142452D01*
X664636Y-142561D01*
X664609Y-142679D01*
X664581Y-142807D01*
X664563Y-142944D01*
X664554Y-143098D01*
X664545Y-143253D01*
Y-143262D01*
Y-143290D01*
Y-143335D01*
X664554Y-143399D01*
Y-143472D01*
X664563Y-143554D01*
X664590Y-143745D01*
X664636Y-143964D01*
X664709Y-144183D01*
X664800Y-144392D01*
X664864Y-144483D01*
X664927Y-144574D01*
X664937D01*
X664946Y-144592D01*
X665000Y-144638D01*
X665082Y-144711D01*
X665192Y-144784D01*
X665328Y-144866D01*
X665492Y-144939D01*
X665684Y-144984D01*
X665784Y-144993D01*
X665893Y-145002D01*
X665948D01*
X665993Y-144993D01*
X666094Y-144975D01*
X666230Y-144948D01*
X666376Y-144893D01*
X666540Y-144820D01*
X666695Y-144711D01*
X666777Y-144638D01*
X666850Y-144565D01*
X666859Y-144556D01*
X666868Y-144547D01*
X666886Y-144520D01*
X666914Y-144483D01*
X666941Y-144438D01*
X666977Y-144383D01*
X667014Y-144310D01*
X667050Y-144237D01*
X667087Y-144146D01*
X667114Y-144046D01*
X667150Y-143937D01*
X667178Y-143818D01*
X667205Y-143682D01*
X667223Y-143545D01*
X667241Y-143390D01*
Y-143226D01*
Y-143217D01*
Y-143190D01*
Y-143144D01*
X667232Y-143089D01*
Y-143017D01*
X667223Y-142935D01*
X667196Y-142743D01*
X667150Y-142543D01*
X667077Y-142324D01*
X666977Y-142124D01*
X666923Y-142024D01*
X666850Y-141941D01*
Y-141932D01*
X666831Y-141923D01*
X666777Y-141869D01*
X666695Y-141805D01*
X666585Y-141723D01*
X666449Y-141641D01*
X666285Y-141568D01*
X666103Y-141522D01*
X666003Y-141513D01*
X665893Y-141504D01*
D02*
G37*
G36*
X656091D02*
X656036D01*
X655991Y-141513D01*
X655890Y-141522D01*
X655754Y-141559D01*
X655599Y-141613D01*
X655435Y-141686D01*
X655280Y-141796D01*
X655198Y-141869D01*
X655125Y-141941D01*
Y-141951D01*
X655107Y-141960D01*
X655089Y-141987D01*
X655061Y-142024D01*
X655034Y-142069D01*
X655007Y-142124D01*
X654970Y-142197D01*
X654934Y-142269D01*
X654897Y-142360D01*
X654861Y-142452D01*
X654834Y-142561D01*
X654806Y-142679D01*
X654779Y-142807D01*
X654761Y-142944D01*
X654752Y-143098D01*
X654742Y-143253D01*
Y-143262D01*
Y-143290D01*
Y-143335D01*
X654752Y-143399D01*
Y-143472D01*
X654761Y-143554D01*
X654788Y-143745D01*
X654834Y-143964D01*
X654907Y-144183D01*
X654998Y-144392D01*
X655061Y-144483D01*
X655125Y-144574D01*
X655134D01*
X655143Y-144592D01*
X655198Y-144638D01*
X655280Y-144711D01*
X655389Y-144784D01*
X655526Y-144866D01*
X655690Y-144939D01*
X655881Y-144984D01*
X655981Y-144993D01*
X656091Y-145002D01*
X656145D01*
X656191Y-144993D01*
X656291Y-144975D01*
X656428Y-144948D01*
X656574Y-144893D01*
X656738Y-144820D01*
X656892Y-144711D01*
X656975Y-144638D01*
X657047Y-144565D01*
X657057Y-144556D01*
X657066Y-144547D01*
X657084Y-144520D01*
X657111Y-144483D01*
X657138Y-144438D01*
X657175Y-144383D01*
X657211Y-144310D01*
X657248Y-144237D01*
X657284Y-144146D01*
X657311Y-144046D01*
X657348Y-143937D01*
X657375Y-143818D01*
X657403Y-143682D01*
X657421Y-143545D01*
X657439Y-143390D01*
Y-143226D01*
Y-143217D01*
Y-143190D01*
Y-143144D01*
X657430Y-143089D01*
Y-143017D01*
X657421Y-142935D01*
X657394Y-142743D01*
X657348Y-142543D01*
X657275Y-142324D01*
X657175Y-142124D01*
X657120Y-142024D01*
X657047Y-141941D01*
Y-141932D01*
X657029Y-141923D01*
X656975Y-141869D01*
X656892Y-141805D01*
X656783Y-141723D01*
X656646Y-141641D01*
X656483Y-141568D01*
X656300Y-141522D01*
X656200Y-141513D01*
X656091Y-141504D01*
D02*
G37*
%LPD*%
D11*
X209842Y99283D02*
X241394D01*
X34563Y252949D02*
X60311D01*
X51894Y97685D02*
X60311D01*
X209842Y264693D02*
X244394D01*
X209842Y85701D02*
X210146Y85398D01*
X58240Y87528D02*
X60311Y85457D01*
X31449Y264606D02*
X60311D01*
X51772Y87528D02*
X58240D01*
X209842Y99283D02*
Y252882D01*
X213394Y83976D02*
X237020D01*
X210146Y85398D02*
X211059Y86311D01*
X213394Y83976D01*
X969Y18503D02*
G03*
X12247Y7419I11796J722D01*
G01*
X30208Y2724D02*
G03*
X22454Y7419I-10086J-7908D01*
G01*
X30208Y2724D02*
G03*
X35418Y400I4950J4095D01*
G01*
X312896Y400D02*
G03*
X328213Y8621I575J17307D01*
G01*
X349172Y14828D02*
G03*
X362560Y28425I-102J13490D01*
G01*
X340364Y14828D02*
G03*
X328213Y8621I-253J-14503D01*
G01*
X362560Y320083D02*
G03*
X350339Y332378I-12330J-35D01*
G01*
X327504Y341810D02*
G03*
X339828Y332400I13326J4677D01*
G01*
X327504Y341692D02*
G03*
X315654Y350354I-12571J-4763D01*
G01*
X15378D02*
G03*
X974Y335477I609J-15002D01*
G01*
X12247Y7419D02*
X22454D01*
X35418Y400D02*
X312896Y400D01*
X340111Y14828D02*
X349172D01*
X362560Y28425D02*
X362560Y320083D01*
X339828Y332400D02*
X350230D01*
X17504Y350354D02*
X315654D01*
X15378D02*
X17504D01*
X969Y18503D02*
Y335352D01*
D13*
X10421Y314606D02*
X11110Y313917D01*
X10421Y314606D02*
Y315886D01*
X11012Y316476D01*
X11799D01*
X11799D02*
X14358Y313917D01*
Y316476D01*
X9240Y318248D02*
X15539D01*
X9240Y312343D02*
Y318248D01*
Y312343D02*
X15539D01*
Y318248D01*
D26*
X51646Y134087D02*
D03*
X81646Y144087D02*
D03*
Y124087D02*
D03*
Y206661D02*
D03*
Y226661D02*
D03*
X51646Y216661D02*
D03*
X81646Y291622D02*
D03*
Y311622D02*
D03*
X51646Y301622D02*
D03*
Y49126D02*
D03*
X81646Y59126D02*
D03*
Y39126D02*
D03*
X258705Y59126D02*
D03*
Y39126D02*
D03*
X288705Y49126D02*
D03*
Y134087D02*
D03*
X258705Y124087D02*
D03*
Y144087D02*
D03*
Y226661D02*
D03*
Y206661D02*
D03*
X288705Y216661D02*
D03*
X258705Y311622D02*
D03*
Y291622D02*
D03*
X288705Y301622D02*
D03*
D27*
X258705Y311622D02*
Y323579D01*
X252658Y329626D02*
X258705Y323579D01*
X288705Y301622D02*
Y329642D01*
X314492D01*
X6787Y289528D02*
X61740Y344480D01*
X6787Y289528D02*
X6787Y151693D01*
X61740Y344480D02*
X210882D01*
X225736Y329626D01*
X252658D01*
X6787Y151693D02*
X20232Y138248D01*
X26327Y173150D02*
X51646D01*
Y216661D01*
X314492Y329642D02*
X319650Y324484D01*
D28*
X10232Y138248D02*
D03*
X20232D02*
D03*
X10232Y128248D02*
D03*
X20232D02*
D03*
X10232Y118248D02*
D03*
X20232D02*
D03*
X10232Y108248D02*
D03*
X20232D02*
D03*
X10232Y98248D02*
D03*
X320453Y49453D02*
D03*
X330453D02*
D03*
X320453Y59453D02*
D03*
X330453D02*
D03*
X320453Y69453D02*
D03*
X330453D02*
D03*
X320453Y79453D02*
D03*
X330453D02*
D03*
X320453Y89453D02*
D03*
X330453D02*
D03*
X320453Y99453D02*
D03*
X330453D02*
D03*
X320453Y109453D02*
D03*
X330453D02*
D03*
X320453Y119453D02*
D03*
X330453D02*
D03*
X320453Y129453D02*
D03*
X330453D02*
D03*
X320453Y139453D02*
D03*
X330453D02*
D03*
X320453Y149453D02*
D03*
X330453D02*
D03*
X320453Y159453D02*
D03*
X330453D02*
D03*
X320453Y169453D02*
D03*
X330453D02*
D03*
X320453Y179453D02*
D03*
X330453D02*
D03*
X320453Y189453D02*
D03*
X330453D02*
D03*
X320453Y199453D02*
D03*
X330453D02*
D03*
X320453Y209453D02*
D03*
X330453D02*
D03*
X320453Y219453D02*
D03*
X330453D02*
D03*
X320453Y229453D02*
D03*
X330453D02*
D03*
X320453Y239453D02*
D03*
X330453D02*
D03*
X320453Y249453D02*
D03*
X330453D02*
D03*
X320453Y259453D02*
D03*
X330453D02*
D03*
X320453Y269453D02*
D03*
X330453D02*
D03*
X320453Y279453D02*
D03*
X330453D02*
D03*
X320453Y289453D02*
D03*
X330453D02*
D03*
X320453Y299453D02*
D03*
X330453D02*
D03*
X340453Y49453D02*
D03*
X350453D02*
D03*
X340453Y59453D02*
D03*
X350453D02*
D03*
X340453Y69453D02*
D03*
X350453D02*
D03*
X340453Y79453D02*
D03*
X350453D02*
D03*
X340453Y89453D02*
D03*
X350453D02*
D03*
X340453Y99453D02*
D03*
X350453D02*
D03*
X340453Y109453D02*
D03*
X350453D02*
D03*
X340453Y119453D02*
D03*
X350453D02*
D03*
X340453Y129453D02*
D03*
X350453D02*
D03*
X340453Y139453D02*
D03*
X350453D02*
D03*
X340453Y149453D02*
D03*
X350453D02*
D03*
X340453Y159453D02*
D03*
X350453D02*
D03*
X340453Y169453D02*
D03*
X350453D02*
D03*
X340453Y179453D02*
D03*
X350453D02*
D03*
X340453Y189453D02*
D03*
X350453D02*
D03*
X340453Y199453D02*
D03*
X350453D02*
D03*
X340453Y209453D02*
D03*
X350453D02*
D03*
X340453Y219453D02*
D03*
X350453D02*
D03*
X340453Y229453D02*
D03*
X350453D02*
D03*
X340453Y239453D02*
D03*
X350453D02*
D03*
X340453Y249453D02*
D03*
X350453D02*
D03*
X340453Y259453D02*
D03*
X350453D02*
D03*
X340453Y269453D02*
D03*
X350453D02*
D03*
X340453Y279453D02*
D03*
X350453D02*
D03*
X340453Y289453D02*
D03*
X350453D02*
D03*
X340453Y299453D02*
D03*
X350453D02*
D03*
X104876Y259213D02*
D03*
X235585D02*
D03*
X104876Y91594D02*
D03*
X235585D02*
D03*
X319650Y324484D02*
D03*
X24280Y204205D02*
D03*
X20232Y54583D02*
D03*
D29*
Y98248D02*
D03*
D30*
X175354Y178394D02*
D03*
X80925Y91594D02*
D03*
Y178394D02*
D03*
Y259213D02*
D03*
X259703Y91606D02*
D03*
Y178394D02*
D03*
Y258787D02*
D03*
X13165Y19622D02*
D03*
Y334681D02*
D03*
X350433Y319539D02*
D03*
X350468Y29465D02*
D03*
D31*
X51772Y87528D02*
D03*
X244394Y264583D02*
D03*
X241394Y99283D02*
D03*
X237020Y83976D02*
D03*
X51894Y97685D02*
D03*
X34563Y252949D02*
D03*
X31449Y264606D02*
D03*
D32*
X209842Y253327D02*
D03*
Y265138D02*
D03*
Y97500D02*
D03*
Y85689D02*
D03*
X60311Y253323D02*
D03*
Y265134D02*
D03*
Y97516D02*
D03*
Y85705D02*
D03*
D33*
X273854Y134087D02*
D03*
X66610D02*
D03*
X273854Y216661D02*
D03*
X66610D02*
D03*
X66610Y301638D02*
D03*
X273854D02*
D03*
X66610Y49677D02*
D03*
X273854D02*
D03*
M02*
