G04*
G04 #@! TF.GenerationSoftware,Altium Limited,Altium Designer,18.1.7 (191)*
G04*
G04 Layer_Color=16711935*
%FSLAX25Y25*%
%MOIN*%
G70*
G01*
G75*
%ADD11C,0.01000*%
D11*
X40Y18031D02*
G03*
X11317Y6947I11796J722D01*
G01*
X29279Y2252D02*
G03*
X21524Y6947I-10086J-7908D01*
G01*
X29279Y2252D02*
G03*
X34488Y-72I4950J4095D01*
G01*
X311967Y-72D02*
G03*
X327284Y8149I575J17307D01*
G01*
X348242Y14356D02*
G03*
X361631Y27952I-102J13490D01*
G01*
X339435Y14356D02*
G03*
X327284Y8149I-253J-14503D01*
G01*
X361631Y319610D02*
G03*
X349410Y331905I-12330J-35D01*
G01*
X326575Y341338D02*
G03*
X338899Y331927I13326J4677D01*
G01*
X326575Y341220D02*
G03*
X314725Y349881I-12571J-4763D01*
G01*
X14449D02*
G03*
X45Y335005I609J-15002D01*
G01*
X11317Y6947D02*
X21524D01*
X34488Y-72D02*
X311967Y-72D01*
X339182Y14356D02*
X348242D01*
X361631Y27952D02*
X361631Y319610D01*
X338899Y331927D02*
X349301D01*
X16575Y349881D02*
X314725D01*
X14449D02*
X16575D01*
X40Y18031D02*
Y334880D01*
Y18031D02*
G03*
X11317Y6947I11796J722D01*
G01*
X29279Y2252D02*
G03*
X21524Y6947I-10086J-7908D01*
G01*
X29279Y2252D02*
G03*
X34488Y-72I4950J4095D01*
G01*
X311967Y-72D02*
G03*
X327284Y8149I575J17307D01*
G01*
X348242Y14356D02*
G03*
X361631Y27952I-102J13490D01*
G01*
X339435Y14356D02*
G03*
X327284Y8149I-253J-14503D01*
G01*
X361631Y319610D02*
G03*
X349410Y331905I-12330J-35D01*
G01*
X326575Y341338D02*
G03*
X338899Y331927I13326J4677D01*
G01*
X326575Y341220D02*
G03*
X314725Y349881I-12571J-4763D01*
G01*
X14449D02*
G03*
X45Y335005I609J-15002D01*
G01*
X11317Y6947D02*
X21524D01*
X34488Y-72D02*
X311967Y-72D01*
X339182Y14356D02*
X348242D01*
X361631Y27952D02*
X361631Y319610D01*
X338899Y331927D02*
X349301D01*
X16575Y349881D02*
X314725D01*
X14449D02*
X16575D01*
X40Y18031D02*
Y334880D01*
M02*
