G04*
G04 #@! TF.GenerationSoftware,Altium Limited,Altium Designer,18.1.7 (191)*
G04*
G04 Layer_Color=8388736*
%FSLAX25Y25*%
%MOIN*%
G70*
G01*
G75*
%ADD11C,0.01000*%
%ADD13C,0.00787*%
G36*
X679522Y-139568D02*
X678748D01*
Y-138685D01*
X679522D01*
Y-139568D01*
D02*
G37*
G36*
X656009D02*
X655235D01*
Y-138685D01*
X656009D01*
Y-139568D01*
D02*
G37*
G36*
X687894Y-140324D02*
X687995Y-140333D01*
X688113Y-140352D01*
X688241Y-140379D01*
X688377Y-140416D01*
X688505Y-140470D01*
X688523Y-140479D01*
X688559Y-140498D01*
X688623Y-140525D01*
X688696Y-140570D01*
X688787Y-140625D01*
X688869Y-140698D01*
X688951Y-140771D01*
X689024Y-140862D01*
X689033Y-140871D01*
X689051Y-140908D01*
X689079Y-140953D01*
X689124Y-141017D01*
X689161Y-141108D01*
X689197Y-141199D01*
X689243Y-141308D01*
X689270Y-141427D01*
Y-141436D01*
X689279Y-141472D01*
X689288Y-141527D01*
X689297Y-141600D01*
Y-141709D01*
X689306Y-141837D01*
X689316Y-141992D01*
Y-142183D01*
Y-144989D01*
X688541D01*
Y-142219D01*
Y-142210D01*
Y-142201D01*
Y-142137D01*
Y-142055D01*
X688532Y-141955D01*
X688523Y-141837D01*
X688505Y-141718D01*
X688478Y-141609D01*
X688450Y-141509D01*
Y-141500D01*
X688432Y-141472D01*
X688405Y-141427D01*
X688377Y-141372D01*
X688332Y-141317D01*
X688277Y-141254D01*
X688204Y-141190D01*
X688122Y-141135D01*
X688113Y-141126D01*
X688086Y-141108D01*
X688031Y-141090D01*
X687967Y-141062D01*
X687894Y-141035D01*
X687803Y-141008D01*
X687694Y-140999D01*
X687585Y-140989D01*
X687539D01*
X687503Y-140999D01*
X687412Y-141008D01*
X687293Y-141026D01*
X687166Y-141071D01*
X687020Y-141126D01*
X686874Y-141199D01*
X686737Y-141308D01*
X686719Y-141326D01*
X686683Y-141372D01*
X686656Y-141409D01*
X686628Y-141454D01*
X686592Y-141509D01*
X686564Y-141572D01*
X686528Y-141645D01*
X686491Y-141736D01*
X686464Y-141837D01*
X686437Y-141946D01*
X686419Y-142064D01*
X686400Y-142192D01*
X686382Y-142347D01*
Y-142502D01*
Y-144989D01*
X685608D01*
Y-140416D01*
X686300D01*
Y-141071D01*
X686309Y-141062D01*
X686328Y-141035D01*
X686355Y-140999D01*
X686391Y-140953D01*
X686446Y-140898D01*
X686510Y-140835D01*
X686583Y-140762D01*
X686674Y-140689D01*
X686765Y-140625D01*
X686874Y-140552D01*
X686993Y-140488D01*
X687120Y-140434D01*
X687266Y-140388D01*
X687412Y-140352D01*
X687576Y-140324D01*
X687749Y-140315D01*
X687822D01*
X687894Y-140324D01*
D02*
G37*
G36*
X671724D02*
X671824Y-140333D01*
X671943Y-140352D01*
X672070Y-140379D01*
X672207Y-140416D01*
X672335Y-140470D01*
X672353Y-140479D01*
X672389Y-140498D01*
X672453Y-140525D01*
X672526Y-140570D01*
X672617Y-140625D01*
X672699Y-140698D01*
X672781Y-140771D01*
X672854Y-140862D01*
X672863Y-140871D01*
X672881Y-140908D01*
X672908Y-140953D01*
X672954Y-141017D01*
X672991Y-141108D01*
X673027Y-141199D01*
X673072Y-141308D01*
X673100Y-141427D01*
Y-141436D01*
X673109Y-141472D01*
X673118Y-141527D01*
X673127Y-141600D01*
Y-141709D01*
X673136Y-141837D01*
X673145Y-141992D01*
Y-142183D01*
Y-144989D01*
X672371D01*
Y-142219D01*
Y-142210D01*
Y-142201D01*
Y-142137D01*
Y-142055D01*
X672362Y-141955D01*
X672353Y-141837D01*
X672335Y-141718D01*
X672307Y-141609D01*
X672280Y-141509D01*
Y-141500D01*
X672262Y-141472D01*
X672234Y-141427D01*
X672207Y-141372D01*
X672161Y-141317D01*
X672107Y-141254D01*
X672034Y-141190D01*
X671952Y-141135D01*
X671943Y-141126D01*
X671915Y-141108D01*
X671861Y-141090D01*
X671797Y-141062D01*
X671724Y-141035D01*
X671633Y-141008D01*
X671524Y-140999D01*
X671415Y-140989D01*
X671369D01*
X671333Y-140999D01*
X671241Y-141008D01*
X671123Y-141026D01*
X670995Y-141071D01*
X670850Y-141126D01*
X670704Y-141199D01*
X670567Y-141308D01*
X670549Y-141326D01*
X670513Y-141372D01*
X670485Y-141409D01*
X670458Y-141454D01*
X670422Y-141509D01*
X670394Y-141572D01*
X670358Y-141645D01*
X670321Y-141736D01*
X670294Y-141837D01*
X670267Y-141946D01*
X670248Y-142064D01*
X670230Y-142192D01*
X670212Y-142347D01*
Y-142502D01*
Y-144989D01*
X669438D01*
Y-140416D01*
X670130D01*
Y-141071D01*
X670139Y-141062D01*
X670157Y-141035D01*
X670185Y-140999D01*
X670221Y-140953D01*
X670276Y-140898D01*
X670339Y-140835D01*
X670412Y-140762D01*
X670504Y-140689D01*
X670595Y-140625D01*
X670704Y-140552D01*
X670822Y-140488D01*
X670950Y-140434D01*
X671096Y-140388D01*
X671241Y-140352D01*
X671405Y-140324D01*
X671578Y-140315D01*
X671651D01*
X671724Y-140324D01*
D02*
G37*
G36*
X662086D02*
X662150D01*
X662213Y-140333D01*
X662368Y-140361D01*
X662532Y-140406D01*
X662705Y-140479D01*
X662878Y-140570D01*
X663024Y-140698D01*
X663042Y-140716D01*
X663079Y-140771D01*
X663143Y-140853D01*
X663170Y-140917D01*
X663206Y-140980D01*
X663243Y-141062D01*
X663270Y-141144D01*
X663307Y-141235D01*
X663334Y-141345D01*
X663352Y-141454D01*
X663370Y-141582D01*
X663389Y-141709D01*
Y-141855D01*
Y-144989D01*
X662614D01*
Y-142119D01*
Y-142110D01*
Y-142101D01*
Y-142046D01*
Y-141964D01*
X662605Y-141864D01*
X662596Y-141755D01*
X662587Y-141645D01*
X662569Y-141536D01*
X662541Y-141454D01*
Y-141445D01*
X662523Y-141418D01*
X662505Y-141381D01*
X662477Y-141336D01*
X662441Y-141281D01*
X662396Y-141226D01*
X662341Y-141172D01*
X662268Y-141117D01*
X662259Y-141108D01*
X662232Y-141099D01*
X662195Y-141080D01*
X662131Y-141053D01*
X662068Y-141026D01*
X661986Y-141008D01*
X661904Y-140999D01*
X661803Y-140989D01*
X661758D01*
X661721Y-140999D01*
X661630Y-141008D01*
X661521Y-141026D01*
X661393Y-141071D01*
X661257Y-141126D01*
X661120Y-141208D01*
X660993Y-141317D01*
X660984Y-141336D01*
X660947Y-141381D01*
X660892Y-141454D01*
X660838Y-141563D01*
X660774Y-141709D01*
X660728Y-141882D01*
X660692Y-142092D01*
X660674Y-142338D01*
Y-144989D01*
X659899D01*
Y-142028D01*
Y-142019D01*
Y-142001D01*
Y-141982D01*
Y-141946D01*
X659890Y-141846D01*
X659872Y-141736D01*
X659854Y-141609D01*
X659817Y-141481D01*
X659772Y-141363D01*
X659708Y-141254D01*
X659699Y-141244D01*
X659672Y-141208D01*
X659626Y-141172D01*
X659562Y-141117D01*
X659480Y-141071D01*
X659371Y-141026D01*
X659243Y-140999D01*
X659089Y-140989D01*
X659034D01*
X658970Y-140999D01*
X658897Y-141008D01*
X658806Y-141035D01*
X658697Y-141062D01*
X658597Y-141108D01*
X658487Y-141163D01*
X658478Y-141172D01*
X658442Y-141199D01*
X658396Y-141235D01*
X658332Y-141290D01*
X658269Y-141363D01*
X658205Y-141454D01*
X658141Y-141554D01*
X658086Y-141673D01*
X658077Y-141691D01*
X658068Y-141736D01*
X658050Y-141809D01*
X658023Y-141910D01*
X657995Y-142046D01*
X657977Y-142210D01*
X657968Y-142402D01*
X657959Y-142620D01*
Y-144989D01*
X657185D01*
Y-140416D01*
X657877D01*
Y-141071D01*
X657886Y-141053D01*
X657913Y-141017D01*
X657968Y-140953D01*
X658032Y-140880D01*
X658114Y-140789D01*
X658214Y-140698D01*
X658323Y-140607D01*
X658451Y-140525D01*
X658469Y-140516D01*
X658515Y-140488D01*
X658588Y-140461D01*
X658688Y-140416D01*
X658806Y-140379D01*
X658943Y-140352D01*
X659098Y-140324D01*
X659262Y-140315D01*
X659344D01*
X659444Y-140324D01*
X659553Y-140343D01*
X659690Y-140370D01*
X659827Y-140406D01*
X659963Y-140461D01*
X660091Y-140534D01*
X660109Y-140543D01*
X660145Y-140570D01*
X660200Y-140616D01*
X660273Y-140689D01*
X660346Y-140771D01*
X660428Y-140871D01*
X660501Y-140989D01*
X660555Y-141126D01*
X660565Y-141117D01*
X660583Y-141090D01*
X660610Y-141053D01*
X660656Y-140999D01*
X660710Y-140935D01*
X660774Y-140871D01*
X660847Y-140798D01*
X660938Y-140716D01*
X661038Y-140643D01*
X661138Y-140570D01*
X661257Y-140507D01*
X661384Y-140443D01*
X661521Y-140388D01*
X661667Y-140352D01*
X661812Y-140324D01*
X661976Y-140315D01*
X662040D01*
X662086Y-140324D01*
D02*
G37*
G36*
X676024D02*
X676161Y-140333D01*
X676306Y-140352D01*
X676461Y-140388D01*
X676625Y-140425D01*
X676780Y-140479D01*
X676789D01*
X676798Y-140488D01*
X676844Y-140507D01*
X676917Y-140543D01*
X677008Y-140589D01*
X677108Y-140652D01*
X677208Y-140725D01*
X677299Y-140807D01*
X677382Y-140898D01*
X677391Y-140908D01*
X677409Y-140944D01*
X677445Y-141008D01*
X677491Y-141080D01*
X677536Y-141190D01*
X677582Y-141308D01*
X677618Y-141445D01*
X677655Y-141600D01*
X676899Y-141700D01*
Y-141682D01*
X676890Y-141645D01*
X676871Y-141582D01*
X676844Y-141500D01*
X676798Y-141418D01*
X676744Y-141326D01*
X676680Y-141235D01*
X676589Y-141153D01*
X676580Y-141144D01*
X676543Y-141126D01*
X676489Y-141090D01*
X676407Y-141053D01*
X676316Y-141017D01*
X676197Y-140980D01*
X676052Y-140962D01*
X675897Y-140953D01*
X675806D01*
X675714Y-140962D01*
X675596Y-140971D01*
X675478Y-140999D01*
X675350Y-141026D01*
X675232Y-141071D01*
X675131Y-141135D01*
X675122Y-141144D01*
X675095Y-141163D01*
X675059Y-141199D01*
X675022Y-141254D01*
X674976Y-141308D01*
X674940Y-141381D01*
X674913Y-141463D01*
X674904Y-141545D01*
Y-141554D01*
Y-141572D01*
X674913Y-141600D01*
Y-141636D01*
X674940Y-141727D01*
X674995Y-141818D01*
X675004Y-141828D01*
X675013Y-141837D01*
X675031Y-141864D01*
X675068Y-141891D01*
X675104Y-141919D01*
X675159Y-141955D01*
X675222Y-141982D01*
X675295Y-142019D01*
X675304D01*
X675323Y-142028D01*
X675359Y-142037D01*
X675423Y-142064D01*
X675514Y-142092D01*
X675632Y-142119D01*
X675705Y-142146D01*
X675787Y-142165D01*
X675878Y-142192D01*
X675979Y-142219D01*
X675988D01*
X676015Y-142228D01*
X676061Y-142237D01*
X676115Y-142256D01*
X676179Y-142274D01*
X676261Y-142292D01*
X676434Y-142347D01*
X676625Y-142402D01*
X676817Y-142465D01*
X676990Y-142529D01*
X677063Y-142556D01*
X677126Y-142584D01*
X677145Y-142593D01*
X677181Y-142611D01*
X677236Y-142638D01*
X677318Y-142684D01*
X677400Y-142739D01*
X677482Y-142811D01*
X677564Y-142893D01*
X677637Y-142984D01*
X677646Y-142994D01*
X677664Y-143030D01*
X677700Y-143085D01*
X677737Y-143167D01*
X677764Y-143267D01*
X677801Y-143376D01*
X677819Y-143504D01*
X677828Y-143650D01*
Y-143668D01*
Y-143713D01*
X677819Y-143786D01*
X677801Y-143886D01*
X677773Y-143996D01*
X677728Y-144114D01*
X677673Y-144251D01*
X677600Y-144378D01*
X677591Y-144397D01*
X677555Y-144433D01*
X677509Y-144497D01*
X677436Y-144570D01*
X677336Y-144652D01*
X677227Y-144743D01*
X677099Y-144825D01*
X676944Y-144907D01*
X676935D01*
X676926Y-144916D01*
X676871Y-144934D01*
X676780Y-144961D01*
X676662Y-144998D01*
X676516Y-145034D01*
X676352Y-145062D01*
X676179Y-145080D01*
X675979Y-145089D01*
X675897D01*
X675833Y-145080D01*
X675760D01*
X675669Y-145071D01*
X675578Y-145062D01*
X675478Y-145043D01*
X675259Y-144998D01*
X675031Y-144934D01*
X674813Y-144843D01*
X674712Y-144788D01*
X674621Y-144725D01*
X674612Y-144715D01*
X674603Y-144706D01*
X674548Y-144652D01*
X674466Y-144570D01*
X674375Y-144442D01*
X674275Y-144287D01*
X674175Y-144105D01*
X674093Y-143877D01*
X674029Y-143622D01*
X674794Y-143504D01*
Y-143513D01*
Y-143522D01*
X674813Y-143577D01*
X674831Y-143668D01*
X674867Y-143768D01*
X674913Y-143877D01*
X674967Y-143996D01*
X675049Y-144114D01*
X675150Y-144214D01*
X675168Y-144223D01*
X675204Y-144251D01*
X675277Y-144287D01*
X675368Y-144333D01*
X675487Y-144378D01*
X675623Y-144415D01*
X675787Y-144442D01*
X675979Y-144451D01*
X676070D01*
X676161Y-144442D01*
X676279Y-144424D01*
X676407Y-144397D01*
X676543Y-144360D01*
X676662Y-144315D01*
X676771Y-144242D01*
X676780Y-144233D01*
X676817Y-144205D01*
X676853Y-144160D01*
X676908Y-144096D01*
X676953Y-144023D01*
X676999Y-143932D01*
X677026Y-143841D01*
X677035Y-143732D01*
Y-143722D01*
Y-143686D01*
X677026Y-143640D01*
X677008Y-143577D01*
X676981Y-143513D01*
X676935Y-143449D01*
X676881Y-143376D01*
X676798Y-143322D01*
X676789Y-143313D01*
X676762Y-143303D01*
X676717Y-143276D01*
X676644Y-143249D01*
X676534Y-143212D01*
X676471Y-143185D01*
X676398Y-143167D01*
X676316Y-143139D01*
X676225Y-143112D01*
X676124Y-143085D01*
X676006Y-143057D01*
X675997D01*
X675970Y-143048D01*
X675924Y-143039D01*
X675869Y-143021D01*
X675796Y-143003D01*
X675714Y-142975D01*
X675541Y-142930D01*
X675341Y-142866D01*
X675150Y-142811D01*
X674967Y-142748D01*
X674885Y-142711D01*
X674822Y-142684D01*
X674803Y-142675D01*
X674767Y-142657D01*
X674712Y-142620D01*
X674639Y-142575D01*
X674557Y-142511D01*
X674475Y-142438D01*
X674393Y-142356D01*
X674321Y-142256D01*
X674311Y-142247D01*
X674293Y-142210D01*
X674266Y-142146D01*
X674239Y-142074D01*
X674211Y-141982D01*
X674184Y-141873D01*
X674166Y-141764D01*
X674157Y-141636D01*
Y-141618D01*
Y-141582D01*
X674166Y-141527D01*
X674175Y-141445D01*
X674193Y-141363D01*
X674211Y-141263D01*
X674248Y-141172D01*
X674293Y-141071D01*
X674302Y-141062D01*
X674321Y-141026D01*
X674348Y-140980D01*
X674393Y-140917D01*
X674448Y-140853D01*
X674512Y-140771D01*
X674585Y-140698D01*
X674676Y-140634D01*
X674685Y-140625D01*
X674712Y-140616D01*
X674749Y-140589D01*
X674803Y-140561D01*
X674876Y-140525D01*
X674958Y-140488D01*
X675059Y-140452D01*
X675168Y-140416D01*
X675186Y-140406D01*
X675222Y-140397D01*
X675286Y-140379D01*
X675368Y-140361D01*
X675468Y-140343D01*
X675578Y-140333D01*
X675705Y-140315D01*
X675924D01*
X676024Y-140324D01*
D02*
G37*
G36*
X679522Y-144989D02*
X678748D01*
Y-140416D01*
X679522D01*
Y-144989D01*
D02*
G37*
G36*
X656009D02*
X655235D01*
Y-140416D01*
X656009D01*
Y-144989D01*
D02*
G37*
G36*
X651564Y-138694D02*
X651746Y-138703D01*
X651928Y-138721D01*
X652110Y-138748D01*
X652265Y-138776D01*
X652274D01*
X652293Y-138785D01*
X652320D01*
X652356Y-138803D01*
X652457Y-138830D01*
X652584Y-138876D01*
X652730Y-138940D01*
X652885Y-139022D01*
X653040Y-139113D01*
X653185Y-139231D01*
X653195Y-139240D01*
X653204Y-139249D01*
X653231Y-139277D01*
X653267Y-139304D01*
X653358Y-139395D01*
X653468Y-139523D01*
X653586Y-139678D01*
X653714Y-139860D01*
X653832Y-140069D01*
X653932Y-140306D01*
Y-140315D01*
X653941Y-140333D01*
X653960Y-140370D01*
X653969Y-140425D01*
X653996Y-140488D01*
X654014Y-140561D01*
X654033Y-140643D01*
X654060Y-140744D01*
X654087Y-140844D01*
X654106Y-140962D01*
X654151Y-141217D01*
X654178Y-141500D01*
X654187Y-141809D01*
Y-141818D01*
Y-141837D01*
Y-141882D01*
Y-141928D01*
X654178Y-141992D01*
Y-142064D01*
X654169Y-142237D01*
X654142Y-142438D01*
X654115Y-142648D01*
X654069Y-142866D01*
X654014Y-143085D01*
Y-143094D01*
X654005Y-143112D01*
X653996Y-143139D01*
X653987Y-143176D01*
X653951Y-143276D01*
X653896Y-143404D01*
X653841Y-143549D01*
X653768Y-143695D01*
X653677Y-143850D01*
X653586Y-143996D01*
X653577Y-144014D01*
X653541Y-144060D01*
X653486Y-144123D01*
X653413Y-144205D01*
X653331Y-144296D01*
X653231Y-144387D01*
X653131Y-144488D01*
X653012Y-144570D01*
X652994Y-144579D01*
X652958Y-144606D01*
X652894Y-144643D01*
X652803Y-144688D01*
X652693Y-144743D01*
X652566Y-144788D01*
X652420Y-144843D01*
X652256Y-144888D01*
X652238D01*
X652211Y-144898D01*
X652183Y-144907D01*
X652092Y-144916D01*
X651965Y-144934D01*
X651819Y-144952D01*
X651646Y-144971D01*
X651454Y-144980D01*
X651245Y-144989D01*
X648977D01*
Y-138685D01*
X651400D01*
X651564Y-138694D01*
D02*
G37*
G36*
X682711Y-140324D02*
X682793Y-140333D01*
X682884Y-140352D01*
X682984Y-140370D01*
X683103Y-140388D01*
X683349Y-140470D01*
X683476Y-140516D01*
X683604Y-140579D01*
X683731Y-140643D01*
X683859Y-140734D01*
X683977Y-140825D01*
X684096Y-140935D01*
X684105Y-140944D01*
X684123Y-140962D01*
X684150Y-140999D01*
X684187Y-141044D01*
X684232Y-141108D01*
X684287Y-141190D01*
X684342Y-141281D01*
X684396Y-141381D01*
X684451Y-141490D01*
X684506Y-141627D01*
X684560Y-141764D01*
X684606Y-141919D01*
X684642Y-142083D01*
X684669Y-142256D01*
X684688Y-142438D01*
X684697Y-142638D01*
Y-142648D01*
Y-142675D01*
Y-142720D01*
Y-142784D01*
X684688Y-142857D01*
X684679Y-142948D01*
Y-143039D01*
X684660Y-143139D01*
X684633Y-143367D01*
X684578Y-143595D01*
X684515Y-143823D01*
X684423Y-144032D01*
Y-144041D01*
X684414Y-144050D01*
X684396Y-144078D01*
X684378Y-144114D01*
X684314Y-144205D01*
X684232Y-144315D01*
X684123Y-144442D01*
X683986Y-144570D01*
X683831Y-144697D01*
X683649Y-144816D01*
X683640D01*
X683631Y-144825D01*
X683604Y-144843D01*
X683558Y-144861D01*
X683512Y-144879D01*
X683458Y-144898D01*
X683321Y-144952D01*
X683166Y-144998D01*
X682975Y-145043D01*
X682775Y-145080D01*
X682556Y-145089D01*
X682465D01*
X682392Y-145080D01*
X682310Y-145071D01*
X682219Y-145053D01*
X682110Y-145034D01*
X682000Y-145016D01*
X681754Y-144943D01*
X681618Y-144888D01*
X681490Y-144834D01*
X681363Y-144761D01*
X681235Y-144679D01*
X681117Y-144588D01*
X680998Y-144479D01*
X680989Y-144469D01*
X680971Y-144451D01*
X680943Y-144415D01*
X680907Y-144360D01*
X680862Y-144296D01*
X680816Y-144223D01*
X680761Y-144132D01*
X680707Y-144023D01*
X680652Y-143905D01*
X680597Y-143768D01*
X680552Y-143622D01*
X680506Y-143467D01*
X680470Y-143294D01*
X680442Y-143112D01*
X680424Y-142912D01*
X680415Y-142702D01*
Y-142684D01*
Y-142648D01*
X680424Y-142584D01*
Y-142493D01*
X680433Y-142392D01*
X680452Y-142265D01*
X680470Y-142137D01*
X680506Y-141992D01*
X680543Y-141846D01*
X680588Y-141691D01*
X680643Y-141527D01*
X680716Y-141372D01*
X680789Y-141226D01*
X680889Y-141080D01*
X680989Y-140944D01*
X681117Y-140825D01*
X681126Y-140816D01*
X681144Y-140807D01*
X681180Y-140780D01*
X681226Y-140744D01*
X681281Y-140707D01*
X681354Y-140662D01*
X681426Y-140616D01*
X681518Y-140570D01*
X681618Y-140525D01*
X681727Y-140479D01*
X681973Y-140397D01*
X682255Y-140333D01*
X682401Y-140324D01*
X682556Y-140315D01*
X682647D01*
X682711Y-140324D01*
D02*
G37*
G36*
X666559D02*
X666632Y-140333D01*
X666723Y-140352D01*
X666823Y-140370D01*
X666941Y-140397D01*
X667051Y-140425D01*
X667178Y-140470D01*
X667297Y-140516D01*
X667424Y-140579D01*
X667552Y-140652D01*
X667679Y-140734D01*
X667798Y-140835D01*
X667907Y-140944D01*
X667916Y-140953D01*
X667934Y-140971D01*
X667962Y-141008D01*
X667998Y-141062D01*
X668044Y-141126D01*
X668089Y-141199D01*
X668144Y-141290D01*
X668199Y-141399D01*
X668253Y-141518D01*
X668308Y-141645D01*
X668354Y-141791D01*
X668399Y-141946D01*
X668435Y-142119D01*
X668463Y-142301D01*
X668481Y-142493D01*
X668490Y-142702D01*
Y-142711D01*
Y-142748D01*
Y-142811D01*
X668481Y-142903D01*
X665065D01*
Y-142912D01*
Y-142939D01*
X665074Y-142975D01*
Y-143030D01*
X665083Y-143094D01*
X665101Y-143167D01*
X665129Y-143331D01*
X665183Y-143513D01*
X665256Y-143713D01*
X665356Y-143895D01*
X665484Y-144060D01*
X665493D01*
X665502Y-144078D01*
X665557Y-144123D01*
X665639Y-144187D01*
X665748Y-144251D01*
X665894Y-144324D01*
X666058Y-144387D01*
X666240Y-144433D01*
X666340Y-144442D01*
X666449Y-144451D01*
X666522D01*
X666604Y-144442D01*
X666705Y-144424D01*
X666814Y-144397D01*
X666941Y-144360D01*
X667060Y-144306D01*
X667178Y-144233D01*
X667187Y-144223D01*
X667233Y-144187D01*
X667288Y-144132D01*
X667351Y-144060D01*
X667424Y-143959D01*
X667506Y-143832D01*
X667588Y-143686D01*
X667661Y-143513D01*
X668463Y-143613D01*
Y-143622D01*
X668454Y-143640D01*
X668445Y-143677D01*
X668426Y-143732D01*
X668399Y-143786D01*
X668372Y-143859D01*
X668299Y-144014D01*
X668208Y-144187D01*
X668080Y-144369D01*
X667934Y-144542D01*
X667752Y-144706D01*
X667743D01*
X667725Y-144725D01*
X667698Y-144743D01*
X667661Y-144770D01*
X667606Y-144797D01*
X667552Y-144825D01*
X667479Y-144861D01*
X667397Y-144898D01*
X667306Y-144934D01*
X667215Y-144971D01*
X666987Y-145025D01*
X666732Y-145071D01*
X666449Y-145089D01*
X666349D01*
X666286Y-145080D01*
X666203Y-145071D01*
X666103Y-145053D01*
X665994Y-145034D01*
X665876Y-145016D01*
X665621Y-144943D01*
X665484Y-144888D01*
X665356Y-144834D01*
X665220Y-144761D01*
X665092Y-144679D01*
X664974Y-144588D01*
X664855Y-144479D01*
X664846Y-144469D01*
X664828Y-144451D01*
X664801Y-144415D01*
X664764Y-144360D01*
X664719Y-144296D01*
X664673Y-144223D01*
X664618Y-144132D01*
X664564Y-144032D01*
X664509Y-143914D01*
X664454Y-143786D01*
X664409Y-143640D01*
X664363Y-143486D01*
X664327Y-143322D01*
X664299Y-143139D01*
X664281Y-142948D01*
X664272Y-142748D01*
Y-142739D01*
Y-142693D01*
Y-142638D01*
X664281Y-142556D01*
X664290Y-142456D01*
X664299Y-142347D01*
X664318Y-142219D01*
X664345Y-142092D01*
X664418Y-141800D01*
X664464Y-141655D01*
X664518Y-141500D01*
X664591Y-141354D01*
X664673Y-141217D01*
X664764Y-141080D01*
X664864Y-140953D01*
X664874Y-140944D01*
X664892Y-140926D01*
X664928Y-140898D01*
X664974Y-140853D01*
X665028Y-140807D01*
X665101Y-140753D01*
X665183Y-140689D01*
X665283Y-140634D01*
X665384Y-140570D01*
X665502Y-140516D01*
X665630Y-140461D01*
X665766Y-140416D01*
X665912Y-140370D01*
X666067Y-140343D01*
X666231Y-140324D01*
X666404Y-140315D01*
X666495D01*
X666559Y-140324D01*
D02*
G37*
%LPC*%
G36*
X651272Y-139432D02*
X649815D01*
Y-144242D01*
X651309D01*
X651372Y-144233D01*
X651509Y-144223D01*
X651664Y-144214D01*
X651828Y-144196D01*
X651992Y-144169D01*
X652129Y-144132D01*
X652147Y-144123D01*
X652192Y-144114D01*
X652256Y-144087D01*
X652338Y-144050D01*
X652429Y-143996D01*
X652520Y-143941D01*
X652611Y-143877D01*
X652703Y-143804D01*
X652712Y-143786D01*
X652748Y-143750D01*
X652803Y-143686D01*
X652867Y-143595D01*
X652939Y-143476D01*
X653021Y-143340D01*
X653094Y-143185D01*
X653158Y-143012D01*
Y-143003D01*
X653167Y-142984D01*
X653176Y-142957D01*
X653185Y-142921D01*
X653195Y-142875D01*
X653213Y-142811D01*
X653231Y-142748D01*
X653249Y-142675D01*
X653276Y-142493D01*
X653304Y-142283D01*
X653322Y-142046D01*
X653331Y-141791D01*
Y-141782D01*
Y-141746D01*
Y-141700D01*
X653322Y-141627D01*
Y-141545D01*
X653313Y-141454D01*
X653304Y-141345D01*
X653295Y-141235D01*
X653249Y-140989D01*
X653195Y-140734D01*
X653113Y-140498D01*
X653058Y-140379D01*
X653003Y-140279D01*
Y-140270D01*
X652985Y-140252D01*
X652967Y-140224D01*
X652949Y-140188D01*
X652876Y-140097D01*
X652784Y-139987D01*
X652666Y-139869D01*
X652529Y-139751D01*
X652375Y-139650D01*
X652211Y-139568D01*
X652192Y-139559D01*
X652147Y-139550D01*
X652065Y-139523D01*
X651946Y-139495D01*
X651801Y-139477D01*
X651618Y-139450D01*
X651509Y-139441D01*
X651391D01*
X651272Y-139432D01*
D02*
G37*
G36*
X682556Y-140953D02*
X682501D01*
X682456Y-140962D01*
X682356Y-140971D01*
X682219Y-141008D01*
X682064Y-141062D01*
X681900Y-141135D01*
X681745Y-141244D01*
X681663Y-141317D01*
X681590Y-141390D01*
Y-141399D01*
X681572Y-141409D01*
X681554Y-141436D01*
X681527Y-141472D01*
X681499Y-141518D01*
X681472Y-141572D01*
X681435Y-141645D01*
X681399Y-141718D01*
X681363Y-141809D01*
X681326Y-141901D01*
X681299Y-142010D01*
X681272Y-142128D01*
X681244Y-142256D01*
X681226Y-142392D01*
X681217Y-142547D01*
X681208Y-142702D01*
Y-142711D01*
Y-142739D01*
Y-142784D01*
X681217Y-142848D01*
Y-142921D01*
X681226Y-143003D01*
X681253Y-143194D01*
X681299Y-143413D01*
X681372Y-143631D01*
X681463Y-143841D01*
X681527Y-143932D01*
X681590Y-144023D01*
X681599D01*
X681609Y-144041D01*
X681663Y-144087D01*
X681745Y-144160D01*
X681854Y-144233D01*
X681991Y-144315D01*
X682155Y-144387D01*
X682346Y-144433D01*
X682447Y-144442D01*
X682556Y-144451D01*
X682611D01*
X682656Y-144442D01*
X682756Y-144424D01*
X682893Y-144397D01*
X683039Y-144342D01*
X683203Y-144269D01*
X683358Y-144160D01*
X683440Y-144087D01*
X683512Y-144014D01*
X683522Y-144005D01*
X683531Y-143996D01*
X683549Y-143968D01*
X683576Y-143932D01*
X683604Y-143886D01*
X683640Y-143832D01*
X683676Y-143759D01*
X683713Y-143686D01*
X683749Y-143595D01*
X683777Y-143495D01*
X683813Y-143385D01*
X683841Y-143267D01*
X683868Y-143130D01*
X683886Y-142994D01*
X683904Y-142839D01*
Y-142675D01*
Y-142666D01*
Y-142638D01*
Y-142593D01*
X683895Y-142538D01*
Y-142465D01*
X683886Y-142383D01*
X683859Y-142192D01*
X683813Y-141992D01*
X683740Y-141773D01*
X683640Y-141572D01*
X683585Y-141472D01*
X683512Y-141390D01*
Y-141381D01*
X683494Y-141372D01*
X683440Y-141317D01*
X683358Y-141254D01*
X683248Y-141172D01*
X683112Y-141090D01*
X682948Y-141017D01*
X682765Y-140971D01*
X682665Y-140962D01*
X682556Y-140953D01*
D02*
G37*
G36*
X666413D02*
X666358D01*
X666322Y-140962D01*
X666222Y-140971D01*
X666103Y-140999D01*
X665958Y-141044D01*
X665803Y-141108D01*
X665657Y-141199D01*
X665511Y-141317D01*
X665493Y-141336D01*
X665456Y-141381D01*
X665393Y-141463D01*
X665329Y-141572D01*
X665256Y-141700D01*
X665192Y-141864D01*
X665138Y-142055D01*
X665110Y-142265D01*
X667670D01*
Y-142256D01*
Y-142237D01*
X667661Y-142210D01*
Y-142174D01*
X667643Y-142064D01*
X667616Y-141946D01*
X667570Y-141800D01*
X667524Y-141664D01*
X667452Y-141527D01*
X667370Y-141409D01*
Y-141399D01*
X667351Y-141390D01*
X667306Y-141336D01*
X667224Y-141263D01*
X667114Y-141181D01*
X666978Y-141099D01*
X666814Y-141026D01*
X666623Y-140971D01*
X666522Y-140962D01*
X666413Y-140953D01*
D02*
G37*
%LPD*%
D11*
X40Y18031D02*
G03*
X11317Y6947I11796J722D01*
G01*
X29279Y2252D02*
G03*
X21524Y6947I-10086J-7908D01*
G01*
X29279Y2252D02*
G03*
X34488Y-72I4950J4095D01*
G01*
X311967Y-72D02*
G03*
X327284Y8149I575J17307D01*
G01*
X348242Y14356D02*
G03*
X361631Y27952I-102J13490D01*
G01*
X339435Y14356D02*
G03*
X327284Y8149I-253J-14503D01*
G01*
X361631Y319610D02*
G03*
X349410Y331905I-12330J-35D01*
G01*
X326575Y341338D02*
G03*
X338899Y331927I13326J4677D01*
G01*
X326575Y341220D02*
G03*
X314725Y349881I-12571J-4763D01*
G01*
X14449D02*
G03*
X45Y335005I609J-15002D01*
G01*
X11317Y6947D02*
X21524D01*
X34488Y-72D02*
X311967Y-72D01*
X339182Y14356D02*
X348242D01*
X361631Y27952D02*
X361631Y319610D01*
X338899Y331927D02*
X349301D01*
X16575Y349881D02*
X314725D01*
X14449D02*
X16575D01*
X40Y18031D02*
Y334880D01*
D13*
X360227Y338313D02*
X362196Y332407D01*
X364164Y338313D01*
X362196Y350457D02*
X364164Y344551D01*
X360227D02*
X362196Y350457D01*
Y332407D02*
Y341432D01*
Y350457D01*
X338369Y332407D02*
X362983D01*
X361408Y350457D02*
X362681D01*
X-23441Y5378D02*
X-21473Y-528D01*
X-19504Y5378D01*
X-21473Y350457D02*
X-19504Y344551D01*
X-23441D02*
X-21473Y350457D01*
Y-528D02*
Y152203D01*
Y194151D02*
Y350457D01*
X-22260Y-528D02*
X299689D01*
X-22260Y350457D02*
X288764D01*
X378528Y356362D02*
X380496Y350457D01*
X382465Y356362D01*
X380496Y319125D02*
X382465Y313220D01*
X378528D02*
X380496Y319125D01*
Y350457D02*
Y360299D01*
Y309283D02*
Y319125D01*
X362868D02*
X381283D01*
X288764Y350457D02*
X381283D01*
X-508Y-18146D02*
X5398Y-16177D01*
X-508Y-18146D02*
X5398Y-20114D01*
X27937D02*
X33843Y-18146D01*
X27937Y-16177D02*
X33843Y-18146D01*
X-508D02*
X16667D01*
X33843D01*
X-508Y-18933D02*
Y18272D01*
X33843Y-18933D02*
Y-626D01*
Y-18146D02*
X39748Y-16177D01*
X33843Y-18146D02*
X39748Y-20114D01*
X286093D02*
X291998Y-18146D01*
X286093Y-16177D02*
X291998Y-18146D01*
X33843D02*
X139667D01*
X182599D02*
X291998D01*
X33843Y-18933D02*
Y-626D01*
X291998Y-18933D02*
Y-1137D01*
X-508Y370142D02*
X5398Y372110D01*
X-508Y370142D02*
X5398Y368173D01*
X356290D02*
X362196Y370142D01*
X356290Y372110D02*
X362196Y370142D01*
X-508D02*
X158082D01*
X200031D02*
X362196D01*
X-508Y18272D02*
Y370929D01*
X362196Y21618D02*
Y370929D01*
X291998Y-18146D02*
X297904Y-16177D01*
X291998Y-18146D02*
X297904Y-20114D01*
X356290D02*
X362196Y-18146D01*
X356290Y-16177D02*
X362196Y-18146D01*
X291998D02*
X304335D01*
X346284D02*
X362196D01*
X291998Y-18933D02*
Y-350D01*
X362196Y-18933D02*
Y29408D01*
X378626Y20271D02*
X380594Y14366D01*
X382563Y20271D01*
X380594Y-502D02*
X382563Y-6408D01*
X378626D02*
X380594Y-502D01*
Y14366D02*
Y24208D01*
Y-10345D02*
Y-502D01*
X291638D02*
X381382D01*
X349220Y14366D02*
X381382D01*
X380496Y-626D02*
X382465Y-6532D01*
X378528D02*
X380496Y-626D01*
X378528Y20184D02*
X380496Y14278D01*
X382465Y20184D01*
X380496Y-10469D02*
Y-626D01*
Y14278D02*
Y24121D01*
X348937Y14278D02*
X381283D01*
X33843Y-626D02*
X381283D01*
X378528Y20236D02*
X380496Y14330D01*
X382465Y20236D01*
X380496Y319125D02*
X382465Y313220D01*
X378528D02*
X380496Y319125D01*
Y14330D02*
Y143474D01*
Y186406D02*
Y319125D01*
X358504Y14330D02*
X381283D01*
X362868Y319125D02*
X381283D01*
X323709Y338677D02*
Y344581D01*
X320757Y341629D01*
X324693D01*
X327645Y337693D02*
X328629Y338677D01*
Y339661D01*
X327645D01*
Y338677D01*
X328629D01*
X327645Y337693D01*
X326661Y336709D01*
X336500Y344581D02*
X332565D01*
Y341629D01*
X334532Y342613D01*
X335516D01*
X336500Y341629D01*
Y339661D01*
X335516Y338677D01*
X333548D01*
X332565Y339661D01*
X338468D02*
X339452Y338677D01*
X341420D01*
X342404Y339661D01*
Y343597D01*
X341420Y344581D01*
X339452D01*
X338468Y343597D01*
Y342613D01*
X339452Y341629D01*
X342404D01*
X344372Y338677D02*
Y342613D01*
X345356D01*
X346340Y341629D01*
Y338677D01*
Y341629D01*
X347324Y342613D01*
X348307Y341629D01*
Y338677D01*
X350275D02*
Y342613D01*
X351259D01*
X352243Y341629D01*
Y338677D01*
Y341629D01*
X353227Y342613D01*
X354211Y341629D01*
Y338677D01*
X-21669Y153990D02*
X-22653Y154974D01*
Y156942D01*
X-21669Y157926D01*
X-20685D01*
X-19701Y156942D01*
X-18717Y157926D01*
X-17733D01*
X-16749Y156942D01*
Y154974D01*
X-17733Y153990D01*
X-18717D01*
X-19701Y154974D01*
X-20685Y153990D01*
X-21669D01*
X-19701Y154974D02*
Y156942D01*
X-17733Y159894D02*
X-16749Y160878D01*
Y162846D01*
X-17733Y163830D01*
X-21669D01*
X-22653Y162846D01*
Y160878D01*
X-21669Y159894D01*
X-20685D01*
X-19701Y160878D01*
Y163830D01*
X-15765Y166782D02*
X-16749Y167765D01*
X-17733D01*
Y166782D01*
X-16749D01*
Y167765D01*
X-15765Y166782D01*
X-14782Y165798D01*
X-16749Y171701D02*
Y173669D01*
Y172685D01*
X-22653D01*
X-21669Y171701D01*
X-22653Y180557D02*
Y176621D01*
X-19701D01*
X-20685Y178589D01*
Y179573D01*
X-19701Y180557D01*
X-17733D01*
X-16749Y179573D01*
Y177605D01*
X-17733Y176621D01*
X-16749Y182525D02*
X-20685D01*
Y183509D01*
X-19701Y184492D01*
X-16749D01*
X-19701D01*
X-20685Y185476D01*
X-19701Y186460D01*
X-16749D01*
Y188428D02*
X-20685D01*
Y189412D01*
X-19701Y190396D01*
X-16749D01*
X-19701D01*
X-20685Y191380D01*
X-19701Y192364D01*
X-16749D01*
X393485Y316277D02*
Y320212D01*
X394469D01*
X398405Y316277D01*
X399389D01*
X400373Y323164D02*
X399389Y324148D01*
X398405D01*
Y323164D01*
X399389D01*
Y324148D01*
X400373Y323164D01*
X401357Y322180D01*
X398405Y328084D02*
X399389Y329068D01*
Y331036D01*
X398405Y332020D01*
X394469D01*
X393485Y331036D01*
Y329068D01*
X394469Y328084D01*
X395453D01*
X396437Y329068D01*
Y332020D01*
X393485Y337923D02*
X394469Y335955D01*
X396437Y333987D01*
X398405D01*
X399389Y334971D01*
Y336939D01*
X398405Y337923D01*
X397421D01*
X396437Y336939D01*
Y333987D01*
X399389Y339891D02*
X395453D01*
Y340875D01*
X396437Y341859D01*
X399389D01*
X396437D01*
X395453Y342843D01*
X396437Y343827D01*
X399389D01*
Y345795D02*
X395453D01*
Y346779D01*
X396437Y347762D01*
X399389D01*
X396437D01*
X395453Y348746D01*
X396437Y349730D01*
X399389D01*
X4709Y-24053D02*
X5693Y-23069D01*
X7660D01*
X8644Y-24053D01*
Y-25037D01*
X7660Y-26021D01*
X8644Y-27005D01*
Y-27988D01*
X7660Y-28972D01*
X5693D01*
X4709Y-27988D01*
Y-27005D01*
X5693Y-26021D01*
X4709Y-25037D01*
Y-24053D01*
X5693Y-26021D02*
X7660D01*
X11596Y-29956D02*
X12580Y-28972D01*
Y-27988D01*
X11596D01*
Y-28972D01*
X12580D01*
X11596Y-29956D01*
X10612Y-30940D01*
X16516Y-23069D02*
X20452D01*
Y-24053D01*
X16516Y-27988D01*
Y-28972D01*
X22419Y-24053D02*
X23403Y-23069D01*
X25371D01*
X26355Y-24053D01*
Y-25037D01*
X25371Y-26021D01*
X24387D01*
X25371D01*
X26355Y-27005D01*
Y-27988D01*
X25371Y-28972D01*
X23403D01*
X22419Y-27988D01*
X28323Y-28972D02*
Y-25037D01*
X29307D01*
X30291Y-26021D01*
Y-28972D01*
Y-26021D01*
X31275Y-25037D01*
X32259Y-26021D01*
Y-28972D01*
X34227D02*
Y-25037D01*
X35211D01*
X36195Y-26021D01*
Y-28972D01*
Y-26021D01*
X37178Y-25037D01*
X38162Y-26021D01*
Y-28972D01*
X145390Y-16965D02*
X143422Y-17949D01*
X141454Y-19917D01*
Y-21885D01*
X142438Y-22869D01*
X144406D01*
X145390Y-21885D01*
Y-20901D01*
X144406Y-19917D01*
X141454D01*
X151294Y-16965D02*
X147358D01*
Y-19917D01*
X149326Y-18933D01*
X150310D01*
X151294Y-19917D01*
Y-21885D01*
X150310Y-22869D01*
X148342D01*
X147358Y-21885D01*
X154245Y-23853D02*
X155229Y-22869D01*
Y-21885D01*
X154245D01*
Y-22869D01*
X155229D01*
X154245Y-23853D01*
X153261Y-24837D01*
X163101Y-16965D02*
X159165D01*
Y-19917D01*
X161133Y-18933D01*
X162117D01*
X163101Y-19917D01*
Y-21885D01*
X162117Y-22869D01*
X160149D01*
X159165Y-21885D01*
X165069Y-16965D02*
X169004D01*
Y-17949D01*
X165069Y-21885D01*
Y-22869D01*
X170972D02*
Y-18933D01*
X171956D01*
X172940Y-19917D01*
Y-22869D01*
Y-19917D01*
X173924Y-18933D01*
X174908Y-19917D01*
Y-22869D01*
X176876D02*
Y-18933D01*
X177860D01*
X178844Y-19917D01*
Y-22869D01*
Y-19917D01*
X179828Y-18933D01*
X180812Y-19917D01*
Y-22869D01*
X159870Y366403D02*
X160854Y365419D01*
X162822D01*
X163805Y366403D01*
Y370338D01*
X162822Y371322D01*
X160854D01*
X159870Y370338D01*
Y369354D01*
X160854Y368370D01*
X163805D01*
X169709Y365419D02*
X165773D01*
X169709Y369354D01*
Y370338D01*
X168725Y371322D01*
X166757D01*
X165773Y370338D01*
X172661Y364435D02*
X173645Y365419D01*
Y366403D01*
X172661D01*
Y365419D01*
X173645D01*
X172661Y364435D01*
X171677Y363451D01*
X177581Y365419D02*
X179548D01*
X178565D01*
Y371322D01*
X177581Y370338D01*
X182500D02*
X183484Y371322D01*
X185452D01*
X186436Y370338D01*
Y369354D01*
X185452Y368370D01*
X184468D01*
X185452D01*
X186436Y367387D01*
Y366403D01*
X185452Y365419D01*
X183484D01*
X182500Y366403D01*
X188404Y365419D02*
Y369354D01*
X189388D01*
X190372Y368370D01*
Y365419D01*
Y368370D01*
X191356Y369354D01*
X192340Y368370D01*
Y365419D01*
X194307D02*
Y369354D01*
X195291D01*
X196275Y368370D01*
Y365419D01*
Y368370D01*
X197259Y369354D01*
X198243Y368370D01*
Y365419D01*
X306123Y-22869D02*
X308091D01*
X307107D01*
Y-16965D01*
X306123Y-17949D01*
X311042Y-16965D02*
X314978D01*
Y-17949D01*
X311042Y-21885D01*
Y-22869D01*
X317930Y-23853D02*
X318914Y-22869D01*
Y-21885D01*
X317930D01*
Y-22869D01*
X318914D01*
X317930Y-23853D01*
X316946Y-24837D01*
X322850Y-17949D02*
X323834Y-16965D01*
X325801D01*
X326785Y-17949D01*
Y-18933D01*
X325801Y-19917D01*
X326785Y-20901D01*
Y-21885D01*
X325801Y-22869D01*
X323834D01*
X322850Y-21885D01*
Y-20901D01*
X323834Y-19917D01*
X322850Y-18933D01*
Y-17949D01*
X323834Y-19917D02*
X325801D01*
X328753Y-17949D02*
X329737Y-16965D01*
X331705D01*
X332689Y-17949D01*
Y-18933D01*
X331705Y-19917D01*
X330721D01*
X331705D01*
X332689Y-20901D01*
Y-21885D01*
X331705Y-22869D01*
X329737D01*
X328753Y-21885D01*
X334657Y-22869D02*
Y-18933D01*
X335641D01*
X336625Y-19917D01*
Y-22869D01*
Y-19917D01*
X337609Y-18933D01*
X338593Y-19917D01*
Y-22869D01*
X340560D02*
Y-18933D01*
X341544D01*
X342528Y-19917D01*
Y-22869D01*
Y-19917D01*
X343512Y-18933D01*
X344496Y-19917D01*
Y-22869D01*
X394567Y-11583D02*
X393583Y-10599D01*
Y-8631D01*
X394567Y-7647D01*
X395551D01*
X396535Y-8631D01*
Y-9615D01*
Y-8631D01*
X397519Y-7647D01*
X398503D01*
X399487Y-8631D01*
Y-10599D01*
X398503Y-11583D01*
X400471Y-4695D02*
X399487Y-3711D01*
X398503D01*
Y-4695D01*
X399487D01*
Y-3711D01*
X400471Y-4695D01*
X401455Y-5679D01*
X393583Y225D02*
Y4160D01*
X394567D01*
X398503Y225D01*
X399487D01*
X394567Y6128D02*
X393583Y7112D01*
Y9080D01*
X394567Y10064D01*
X395551D01*
X396535Y9080D01*
X397519Y10064D01*
X398503D01*
X399487Y9080D01*
Y7112D01*
X398503Y6128D01*
X397519D01*
X396535Y7112D01*
X395551Y6128D01*
X394567D01*
X396535Y7112D02*
Y9080D01*
X399487Y12032D02*
X395551D01*
Y13016D01*
X396535Y14000D01*
X399487D01*
X396535D01*
X395551Y14984D01*
X396535Y15968D01*
X399487D01*
Y17935D02*
X395551D01*
Y18919D01*
X396535Y19903D01*
X399487D01*
X396535D01*
X395551Y20887D01*
X396535Y21871D01*
X399487D01*
X394469Y-11688D02*
X393485Y-10704D01*
Y-8736D01*
X394469Y-7752D01*
X395453D01*
X396437Y-8736D01*
Y-9720D01*
Y-8736D01*
X397421Y-7752D01*
X398405D01*
X399389Y-8736D01*
Y-10704D01*
X398405Y-11688D01*
X400373Y-4801D02*
X399389Y-3817D01*
X398405D01*
Y-4801D01*
X399389D01*
Y-3817D01*
X400373Y-4801D01*
X401357Y-5785D01*
X393485Y119D02*
Y4055D01*
X394469D01*
X398405Y119D01*
X399389D01*
X398405Y6023D02*
X399389Y7006D01*
Y8974D01*
X398405Y9958D01*
X394469D01*
X393485Y8974D01*
Y7006D01*
X394469Y6023D01*
X395453D01*
X396437Y7006D01*
Y9958D01*
X399389Y11926D02*
X395453D01*
Y12910D01*
X396437Y13894D01*
X399389D01*
X396437D01*
X395453Y14878D01*
X396437Y15862D01*
X399389D01*
Y17830D02*
X395453D01*
Y18814D01*
X396437Y19798D01*
X399389D01*
X396437D01*
X395453Y20782D01*
X396437Y21766D01*
X399389D01*
X379316Y145262D02*
Y149197D01*
X380299D01*
X384235Y145262D01*
X385219D01*
X379316Y151165D02*
Y155101D01*
X380299D01*
X384235Y151165D01*
X385219D01*
X386203Y158053D02*
X385219Y159037D01*
X384235D01*
Y158053D01*
X385219D01*
Y159037D01*
X386203Y158053D01*
X387187Y157069D01*
X385219Y165924D02*
X379316D01*
X382267Y162972D01*
Y166908D01*
X385219Y172812D02*
Y168876D01*
X381283Y172812D01*
X380299D01*
X379316Y171828D01*
Y169860D01*
X380299Y168876D01*
X385219Y174780D02*
X381283D01*
Y175763D01*
X382267Y176748D01*
X385219D01*
X382267D01*
X381283Y177731D01*
X382267Y178715D01*
X385219D01*
Y180683D02*
X381283D01*
Y181667D01*
X382267Y182651D01*
X385219D01*
X382267D01*
X381283Y183635D01*
X382267Y184619D01*
X385219D01*
M02*
