G04*
G04 #@! TF.GenerationSoftware,Altium Limited,Altium Designer,18.1.7 (191)*
G04*
G04 Layer_Color=2752767*
%FSLAX25Y25*%
%MOIN*%
G70*
G01*
G75*
%ADD11C,0.01000*%
%ADD37C,0.01500*%
%ADD39C,0.00200*%
%ADD40C,0.01600*%
G36*
X687822Y-139568D02*
X687047D01*
Y-138685D01*
X687822D01*
Y-139568D01*
D02*
G37*
G36*
X658943D02*
X658169D01*
Y-138685D01*
X658943D01*
Y-139568D01*
D02*
G37*
G36*
X691292Y-140324D02*
X691393Y-140333D01*
X691511Y-140352D01*
X691639Y-140379D01*
X691775Y-140416D01*
X691903Y-140470D01*
X691921Y-140479D01*
X691958Y-140498D01*
X692021Y-140525D01*
X692094Y-140570D01*
X692185Y-140625D01*
X692267Y-140698D01*
X692349Y-140771D01*
X692422Y-140862D01*
X692431Y-140871D01*
X692449Y-140908D01*
X692477Y-140953D01*
X692522Y-141017D01*
X692559Y-141108D01*
X692595Y-141199D01*
X692641Y-141308D01*
X692668Y-141427D01*
Y-141436D01*
X692677Y-141472D01*
X692686Y-141527D01*
X692695Y-141600D01*
Y-141709D01*
X692704Y-141837D01*
X692714Y-141992D01*
Y-142183D01*
Y-144989D01*
X691939D01*
Y-142219D01*
Y-142210D01*
Y-142201D01*
Y-142137D01*
Y-142055D01*
X691930Y-141955D01*
X691921Y-141837D01*
X691903Y-141718D01*
X691876Y-141609D01*
X691848Y-141509D01*
Y-141500D01*
X691830Y-141472D01*
X691803Y-141427D01*
X691775Y-141372D01*
X691730Y-141317D01*
X691675Y-141254D01*
X691602Y-141190D01*
X691520Y-141135D01*
X691511Y-141126D01*
X691484Y-141108D01*
X691429Y-141090D01*
X691365Y-141062D01*
X691292Y-141035D01*
X691201Y-141008D01*
X691092Y-140999D01*
X690983Y-140989D01*
X690937D01*
X690901Y-140999D01*
X690810Y-141008D01*
X690691Y-141026D01*
X690564Y-141071D01*
X690418Y-141126D01*
X690272Y-141199D01*
X690135Y-141308D01*
X690117Y-141326D01*
X690081Y-141372D01*
X690054Y-141409D01*
X690026Y-141454D01*
X689990Y-141509D01*
X689962Y-141572D01*
X689926Y-141645D01*
X689889Y-141736D01*
X689862Y-141837D01*
X689835Y-141946D01*
X689817Y-142064D01*
X689798Y-142192D01*
X689780Y-142347D01*
Y-142502D01*
Y-144989D01*
X689006D01*
Y-140416D01*
X689698D01*
Y-141071D01*
X689707Y-141062D01*
X689726Y-141035D01*
X689753Y-140999D01*
X689789Y-140953D01*
X689844Y-140898D01*
X689908Y-140835D01*
X689981Y-140762D01*
X690072Y-140689D01*
X690163Y-140625D01*
X690272Y-140552D01*
X690391Y-140488D01*
X690518Y-140434D01*
X690664Y-140388D01*
X690810Y-140352D01*
X690974Y-140324D01*
X691147Y-140315D01*
X691220D01*
X691292Y-140324D01*
D02*
G37*
G36*
X674676D02*
X674776Y-140343D01*
X674895Y-140379D01*
X675022Y-140425D01*
X675168Y-140488D01*
X675323Y-140570D01*
X675040Y-141281D01*
X675031Y-141272D01*
X674995Y-141254D01*
X674940Y-141226D01*
X674867Y-141199D01*
X674785Y-141172D01*
X674685Y-141144D01*
X674585Y-141126D01*
X674484Y-141117D01*
X674439D01*
X674393Y-141126D01*
X674330Y-141135D01*
X674266Y-141153D01*
X674184Y-141181D01*
X674102Y-141217D01*
X674029Y-141272D01*
X674020Y-141281D01*
X673993Y-141299D01*
X673965Y-141336D01*
X673920Y-141381D01*
X673874Y-141445D01*
X673829Y-141518D01*
X673783Y-141600D01*
X673747Y-141700D01*
X673737Y-141718D01*
X673728Y-141773D01*
X673710Y-141855D01*
X673683Y-141964D01*
X673656Y-142101D01*
X673637Y-142256D01*
X673628Y-142420D01*
X673619Y-142602D01*
Y-144989D01*
X672845D01*
Y-140416D01*
X673546D01*
Y-141108D01*
X673555Y-141099D01*
X673592Y-141035D01*
X673637Y-140953D01*
X673710Y-140853D01*
X673783Y-140753D01*
X673865Y-140643D01*
X673947Y-140552D01*
X674029Y-140479D01*
X674038Y-140470D01*
X674065Y-140452D01*
X674120Y-140425D01*
X674175Y-140397D01*
X674248Y-140370D01*
X674339Y-140343D01*
X674430Y-140324D01*
X674530Y-140315D01*
X674594D01*
X674676Y-140324D01*
D02*
G37*
G36*
X657057D02*
X657157Y-140343D01*
X657276Y-140379D01*
X657403Y-140425D01*
X657549Y-140488D01*
X657704Y-140570D01*
X657421Y-141281D01*
X657412Y-141272D01*
X657376Y-141254D01*
X657321Y-141226D01*
X657248Y-141199D01*
X657166Y-141172D01*
X657066Y-141144D01*
X656966Y-141126D01*
X656866Y-141117D01*
X656820D01*
X656775Y-141126D01*
X656711Y-141135D01*
X656647Y-141153D01*
X656565Y-141181D01*
X656483Y-141217D01*
X656410Y-141272D01*
X656401Y-141281D01*
X656374Y-141299D01*
X656347Y-141336D01*
X656301Y-141381D01*
X656255Y-141445D01*
X656210Y-141518D01*
X656164Y-141600D01*
X656128Y-141700D01*
X656119Y-141718D01*
X656110Y-141773D01*
X656091Y-141855D01*
X656064Y-141964D01*
X656037Y-142101D01*
X656019Y-142256D01*
X656009Y-142420D01*
X656000Y-142602D01*
Y-144989D01*
X655226D01*
Y-140416D01*
X655928D01*
Y-141108D01*
X655937Y-141099D01*
X655973Y-141035D01*
X656019Y-140953D01*
X656091Y-140853D01*
X656164Y-140753D01*
X656246Y-140643D01*
X656328Y-140552D01*
X656410Y-140479D01*
X656419Y-140470D01*
X656447Y-140452D01*
X656501Y-140425D01*
X656556Y-140397D01*
X656629Y-140370D01*
X656720Y-140343D01*
X656811Y-140324D01*
X656911Y-140315D01*
X656975D01*
X657057Y-140324D01*
D02*
G37*
G36*
X684952Y-144989D02*
X684159D01*
X683431Y-142256D01*
X683248Y-141472D01*
X682328Y-144989D01*
X681508D01*
X680124Y-140416D01*
X680934D01*
X681663Y-143057D01*
X681918Y-144041D01*
Y-144032D01*
X681927Y-144014D01*
X681937Y-143968D01*
X681946Y-143941D01*
X681955Y-143895D01*
X681964Y-143841D01*
X681982Y-143777D01*
X682000Y-143704D01*
X682028Y-143613D01*
X682055Y-143513D01*
X682082Y-143394D01*
X682119Y-143258D01*
X682155Y-143103D01*
X682884Y-140416D01*
X683676D01*
X684360Y-143076D01*
X684587Y-143950D01*
X684852Y-143067D01*
X685635Y-140416D01*
X686391D01*
X684952Y-144989D01*
D02*
G37*
G36*
X687822D02*
X687047D01*
Y-140416D01*
X687822D01*
Y-144989D01*
D02*
G37*
G36*
X677919Y-140324D02*
X678056Y-140333D01*
X678210Y-140352D01*
X678365Y-140379D01*
X678520Y-140416D01*
X678666Y-140461D01*
X678684Y-140470D01*
X678730Y-140488D01*
X678794Y-140516D01*
X678876Y-140552D01*
X678967Y-140607D01*
X679058Y-140662D01*
X679140Y-140734D01*
X679213Y-140807D01*
X679222Y-140816D01*
X679240Y-140844D01*
X679267Y-140889D01*
X679304Y-140944D01*
X679349Y-141026D01*
X679386Y-141108D01*
X679422Y-141208D01*
X679450Y-141326D01*
Y-141336D01*
X679459Y-141363D01*
X679468Y-141418D01*
X679477Y-141490D01*
Y-141591D01*
X679486Y-141709D01*
X679495Y-141864D01*
Y-142037D01*
Y-143076D01*
Y-143085D01*
Y-143121D01*
Y-143176D01*
Y-143249D01*
Y-143331D01*
Y-143431D01*
X679504Y-143650D01*
Y-143877D01*
X679513Y-144105D01*
X679522Y-144205D01*
Y-144296D01*
X679531Y-144378D01*
X679541Y-144442D01*
Y-144451D01*
X679550Y-144488D01*
X679559Y-144542D01*
X679586Y-144615D01*
X679604Y-144697D01*
X679641Y-144788D01*
X679686Y-144888D01*
X679732Y-144989D01*
X678921D01*
X678912Y-144980D01*
X678903Y-144943D01*
X678885Y-144898D01*
X678857Y-144825D01*
X678830Y-144743D01*
X678812Y-144643D01*
X678794Y-144533D01*
X678775Y-144415D01*
X678766D01*
X678757Y-144433D01*
X678702Y-144479D01*
X678620Y-144542D01*
X678511Y-144624D01*
X678374Y-144706D01*
X678238Y-144797D01*
X678092Y-144879D01*
X677937Y-144943D01*
X677919Y-144952D01*
X677864Y-144961D01*
X677782Y-144989D01*
X677682Y-145016D01*
X677555Y-145043D01*
X677409Y-145062D01*
X677245Y-145080D01*
X677081Y-145089D01*
X677008D01*
X676953Y-145080D01*
X676890D01*
X676817Y-145071D01*
X676653Y-145043D01*
X676471Y-144998D01*
X676270Y-144934D01*
X676088Y-144843D01*
X675924Y-144725D01*
X675906Y-144706D01*
X675860Y-144661D01*
X675796Y-144579D01*
X675724Y-144469D01*
X675651Y-144333D01*
X675587Y-144178D01*
X675541Y-143987D01*
X675532Y-143895D01*
X675523Y-143786D01*
Y-143768D01*
Y-143732D01*
X675532Y-143668D01*
X675541Y-143586D01*
X675560Y-143486D01*
X675587Y-143385D01*
X675623Y-143276D01*
X675669Y-143176D01*
X675678Y-143167D01*
X675696Y-143130D01*
X675733Y-143076D01*
X675778Y-143012D01*
X675833Y-142939D01*
X675906Y-142866D01*
X675979Y-142793D01*
X676070Y-142729D01*
X676079Y-142720D01*
X676115Y-142702D01*
X676161Y-142666D01*
X676234Y-142629D01*
X676316Y-142593D01*
X676416Y-142547D01*
X676516Y-142511D01*
X676635Y-142474D01*
X676644D01*
X676680Y-142465D01*
X676735Y-142447D01*
X676808Y-142438D01*
X676899Y-142420D01*
X677017Y-142402D01*
X677154Y-142374D01*
X677318Y-142356D01*
X677327D01*
X677363Y-142347D01*
X677409D01*
X677473Y-142338D01*
X677545Y-142329D01*
X677637Y-142310D01*
X677737Y-142301D01*
X677846Y-142283D01*
X678065Y-142237D01*
X678302Y-142192D01*
X678511Y-142137D01*
X678611Y-142110D01*
X678702Y-142083D01*
Y-142074D01*
Y-142055D01*
X678712Y-142001D01*
Y-141937D01*
Y-141901D01*
Y-141882D01*
Y-141873D01*
Y-141864D01*
Y-141809D01*
X678702Y-141718D01*
X678684Y-141618D01*
X678657Y-141509D01*
X678611Y-141399D01*
X678557Y-141299D01*
X678484Y-141217D01*
X678475Y-141208D01*
X678429Y-141172D01*
X678356Y-141135D01*
X678265Y-141080D01*
X678138Y-141035D01*
X677992Y-140989D01*
X677810Y-140962D01*
X677600Y-140953D01*
X677509D01*
X677418Y-140962D01*
X677290Y-140980D01*
X677163Y-140999D01*
X677026Y-141035D01*
X676899Y-141080D01*
X676789Y-141144D01*
X676780Y-141153D01*
X676744Y-141181D01*
X676698Y-141226D01*
X676644Y-141299D01*
X676589Y-141390D01*
X676525Y-141509D01*
X676471Y-141655D01*
X676416Y-141818D01*
X675660Y-141718D01*
Y-141709D01*
X675669Y-141700D01*
Y-141673D01*
X675678Y-141636D01*
X675705Y-141554D01*
X675742Y-141436D01*
X675787Y-141317D01*
X675842Y-141190D01*
X675915Y-141062D01*
X675997Y-140944D01*
X676006Y-140935D01*
X676042Y-140898D01*
X676097Y-140844D01*
X676170Y-140771D01*
X676270Y-140698D01*
X676389Y-140625D01*
X676525Y-140543D01*
X676680Y-140479D01*
X676689D01*
X676698Y-140470D01*
X676726Y-140461D01*
X676762Y-140452D01*
X676853Y-140425D01*
X676981Y-140397D01*
X677126Y-140370D01*
X677309Y-140343D01*
X677500Y-140324D01*
X677719Y-140315D01*
X677819D01*
X677919Y-140324D01*
D02*
G37*
G36*
X669182Y-138694D02*
X669365Y-138703D01*
X669547Y-138721D01*
X669729Y-138748D01*
X669884Y-138776D01*
X669893D01*
X669911Y-138785D01*
X669939D01*
X669975Y-138803D01*
X670075Y-138830D01*
X670203Y-138876D01*
X670349Y-138940D01*
X670504Y-139022D01*
X670658Y-139113D01*
X670804Y-139231D01*
X670813Y-139240D01*
X670822Y-139249D01*
X670850Y-139277D01*
X670886Y-139304D01*
X670977Y-139395D01*
X671087Y-139523D01*
X671205Y-139678D01*
X671333Y-139860D01*
X671451Y-140069D01*
X671551Y-140306D01*
Y-140315D01*
X671560Y-140333D01*
X671578Y-140370D01*
X671588Y-140425D01*
X671615Y-140488D01*
X671633Y-140561D01*
X671651Y-140643D01*
X671679Y-140744D01*
X671706Y-140844D01*
X671724Y-140962D01*
X671770Y-141217D01*
X671797Y-141500D01*
X671806Y-141809D01*
Y-141818D01*
Y-141837D01*
Y-141882D01*
Y-141928D01*
X671797Y-141992D01*
Y-142064D01*
X671788Y-142237D01*
X671761Y-142438D01*
X671733Y-142648D01*
X671688Y-142866D01*
X671633Y-143085D01*
Y-143094D01*
X671624Y-143112D01*
X671615Y-143139D01*
X671606Y-143176D01*
X671569Y-143276D01*
X671515Y-143404D01*
X671460Y-143549D01*
X671387Y-143695D01*
X671296Y-143850D01*
X671205Y-143996D01*
X671196Y-144014D01*
X671159Y-144060D01*
X671105Y-144123D01*
X671032Y-144205D01*
X670950Y-144296D01*
X670850Y-144387D01*
X670749Y-144488D01*
X670631Y-144570D01*
X670613Y-144579D01*
X670576Y-144606D01*
X670513Y-144643D01*
X670422Y-144688D01*
X670312Y-144743D01*
X670185Y-144788D01*
X670039Y-144843D01*
X669875Y-144888D01*
X669857D01*
X669829Y-144898D01*
X669802Y-144907D01*
X669711Y-144916D01*
X669583Y-144934D01*
X669438Y-144952D01*
X669265Y-144971D01*
X669073Y-144980D01*
X668864Y-144989D01*
X666595D01*
Y-138685D01*
X669019D01*
X669182Y-138694D01*
D02*
G37*
G36*
X662842Y-144989D02*
X662068D01*
Y-138685D01*
X662842D01*
Y-144989D01*
D02*
G37*
G36*
X660883D02*
X660109D01*
Y-138685D01*
X660883D01*
Y-144989D01*
D02*
G37*
G36*
X658943D02*
X658169D01*
Y-140416D01*
X658943D01*
Y-144989D01*
D02*
G37*
G36*
X651564Y-138694D02*
X651746Y-138703D01*
X651928Y-138721D01*
X652110Y-138748D01*
X652265Y-138776D01*
X652274D01*
X652293Y-138785D01*
X652320D01*
X652356Y-138803D01*
X652457Y-138830D01*
X652584Y-138876D01*
X652730Y-138940D01*
X652885Y-139022D01*
X653040Y-139113D01*
X653185Y-139231D01*
X653195Y-139240D01*
X653204Y-139249D01*
X653231Y-139277D01*
X653267Y-139304D01*
X653358Y-139395D01*
X653468Y-139523D01*
X653586Y-139678D01*
X653714Y-139860D01*
X653832Y-140069D01*
X653932Y-140306D01*
Y-140315D01*
X653941Y-140333D01*
X653960Y-140370D01*
X653969Y-140425D01*
X653996Y-140488D01*
X654014Y-140561D01*
X654033Y-140643D01*
X654060Y-140744D01*
X654087Y-140844D01*
X654106Y-140962D01*
X654151Y-141217D01*
X654178Y-141500D01*
X654187Y-141809D01*
Y-141818D01*
Y-141837D01*
Y-141882D01*
Y-141928D01*
X654178Y-141992D01*
Y-142064D01*
X654169Y-142237D01*
X654142Y-142438D01*
X654115Y-142648D01*
X654069Y-142866D01*
X654014Y-143085D01*
Y-143094D01*
X654005Y-143112D01*
X653996Y-143139D01*
X653987Y-143176D01*
X653951Y-143276D01*
X653896Y-143404D01*
X653841Y-143549D01*
X653768Y-143695D01*
X653677Y-143850D01*
X653586Y-143996D01*
X653577Y-144014D01*
X653541Y-144060D01*
X653486Y-144123D01*
X653413Y-144205D01*
X653331Y-144296D01*
X653231Y-144387D01*
X653131Y-144488D01*
X653012Y-144570D01*
X652994Y-144579D01*
X652958Y-144606D01*
X652894Y-144643D01*
X652803Y-144688D01*
X652693Y-144743D01*
X652566Y-144788D01*
X652420Y-144843D01*
X652256Y-144888D01*
X652238D01*
X652211Y-144898D01*
X652183Y-144907D01*
X652092Y-144916D01*
X651965Y-144934D01*
X651819Y-144952D01*
X651646Y-144971D01*
X651454Y-144980D01*
X651245Y-144989D01*
X648977D01*
Y-138685D01*
X651400D01*
X651564Y-138694D01*
D02*
G37*
G36*
X695720Y-140324D02*
X695784Y-140333D01*
X695866Y-140352D01*
X695957Y-140370D01*
X696057Y-140397D01*
X696157Y-140434D01*
X696267Y-140479D01*
X696376Y-140534D01*
X696494Y-140598D01*
X696604Y-140671D01*
X696713Y-140762D01*
X696822Y-140862D01*
X696922Y-140980D01*
Y-140416D01*
X697633D01*
Y-144369D01*
Y-144378D01*
Y-144415D01*
Y-144469D01*
Y-144542D01*
X697624Y-144624D01*
Y-144725D01*
X697615Y-144834D01*
X697606Y-144952D01*
X697578Y-145198D01*
X697542Y-145453D01*
X697515Y-145572D01*
X697487Y-145681D01*
X697451Y-145781D01*
X697414Y-145872D01*
Y-145881D01*
X697405Y-145891D01*
X697369Y-145945D01*
X697323Y-146027D01*
X697250Y-146127D01*
X697150Y-146237D01*
X697032Y-146355D01*
X696886Y-146474D01*
X696722Y-146574D01*
X696713D01*
X696704Y-146583D01*
X696676Y-146601D01*
X696640Y-146610D01*
X696594Y-146638D01*
X696540Y-146656D01*
X696403Y-146701D01*
X696239Y-146756D01*
X696039Y-146792D01*
X695811Y-146829D01*
X695565Y-146838D01*
X695483D01*
X695428Y-146829D01*
X695356D01*
X695283Y-146820D01*
X695192Y-146811D01*
X695091Y-146792D01*
X694882Y-146747D01*
X694663Y-146683D01*
X694445Y-146592D01*
X694244Y-146465D01*
X694235Y-146455D01*
X694226Y-146446D01*
X694162Y-146392D01*
X694089Y-146310D01*
X693998Y-146191D01*
X693907Y-146036D01*
X693825Y-145845D01*
X693798Y-145736D01*
X693780Y-145617D01*
X693761Y-145499D01*
Y-145362D01*
X694517Y-145463D01*
Y-145481D01*
X694526Y-145517D01*
X694545Y-145581D01*
X694563Y-145663D01*
X694599Y-145745D01*
X694645Y-145827D01*
X694700Y-145909D01*
X694772Y-145973D01*
X694791Y-145982D01*
X694827Y-146009D01*
X694891Y-146045D01*
X694982Y-146082D01*
X695091Y-146127D01*
X695228Y-146164D01*
X695392Y-146191D01*
X695565Y-146200D01*
X695656D01*
X695747Y-146191D01*
X695875Y-146173D01*
X696002Y-146146D01*
X696139Y-146109D01*
X696276Y-146055D01*
X696394Y-145982D01*
X696403Y-145973D01*
X696440Y-145945D01*
X696494Y-145891D01*
X696558Y-145827D01*
X696622Y-145736D01*
X696686Y-145635D01*
X696749Y-145517D01*
X696795Y-145380D01*
Y-145371D01*
X696804Y-145335D01*
X696813Y-145262D01*
X696822Y-145171D01*
X696831Y-145107D01*
Y-145034D01*
X696840Y-144952D01*
Y-144861D01*
Y-144761D01*
X696850Y-144643D01*
Y-144524D01*
Y-144387D01*
X696840Y-144397D01*
X696822Y-144415D01*
X696795Y-144442D01*
X696759Y-144479D01*
X696713Y-144524D01*
X696649Y-144579D01*
X696576Y-144633D01*
X696503Y-144688D01*
X696312Y-144797D01*
X696103Y-144898D01*
X695984Y-144934D01*
X695857Y-144961D01*
X695720Y-144980D01*
X695583Y-144989D01*
X695538D01*
X695492Y-144980D01*
X695428D01*
X695346Y-144971D01*
X695255Y-144952D01*
X695155Y-144934D01*
X695046Y-144907D01*
X694927Y-144870D01*
X694809Y-144825D01*
X694691Y-144770D01*
X694563Y-144706D01*
X694445Y-144624D01*
X694326Y-144533D01*
X694217Y-144433D01*
X694117Y-144315D01*
X694107Y-144306D01*
X694098Y-144287D01*
X694071Y-144242D01*
X694035Y-144196D01*
X693998Y-144123D01*
X693953Y-144050D01*
X693907Y-143959D01*
X693861Y-143850D01*
X693816Y-143741D01*
X693770Y-143613D01*
X693725Y-143486D01*
X693688Y-143340D01*
X693625Y-143030D01*
X693615Y-142857D01*
X693606Y-142684D01*
Y-142675D01*
Y-142657D01*
Y-142620D01*
Y-142575D01*
X693615Y-142511D01*
Y-142447D01*
X693634Y-142283D01*
X693661Y-142101D01*
X693707Y-141901D01*
X693761Y-141691D01*
X693843Y-141481D01*
Y-141472D01*
X693852Y-141454D01*
X693871Y-141427D01*
X693889Y-141390D01*
X693944Y-141290D01*
X694016Y-141163D01*
X694117Y-141026D01*
X694235Y-140889D01*
X694372Y-140744D01*
X694526Y-140625D01*
X694536D01*
X694545Y-140616D01*
X694572Y-140598D01*
X694608Y-140579D01*
X694700Y-140525D01*
X694827Y-140470D01*
X694982Y-140416D01*
X695164Y-140361D01*
X695365Y-140324D01*
X695583Y-140315D01*
X695665D01*
X695720Y-140324D01*
D02*
G37*
%LPC*%
G36*
X678712Y-142693D02*
X678702D01*
X678693Y-142702D01*
X678666Y-142711D01*
X678630Y-142720D01*
X678584Y-142739D01*
X678529Y-142757D01*
X678466Y-142775D01*
X678393Y-142793D01*
X678311Y-142821D01*
X678210Y-142839D01*
X678110Y-142866D01*
X677992Y-142893D01*
X677864Y-142921D01*
X677737Y-142948D01*
X677591Y-142966D01*
X677436Y-142994D01*
X677418D01*
X677363Y-143003D01*
X677272Y-143021D01*
X677172Y-143039D01*
X677063Y-143057D01*
X676953Y-143085D01*
X676853Y-143112D01*
X676762Y-143149D01*
X676753D01*
X676726Y-143167D01*
X676689Y-143185D01*
X676653Y-143212D01*
X676543Y-143285D01*
X676452Y-143394D01*
Y-143404D01*
X676434Y-143422D01*
X676425Y-143458D01*
X676407Y-143504D01*
X676389Y-143559D01*
X676370Y-143613D01*
X676361Y-143686D01*
X676352Y-143759D01*
Y-143768D01*
Y-143814D01*
X676361Y-143868D01*
X676379Y-143941D01*
X676407Y-144023D01*
X676452Y-144105D01*
X676507Y-144196D01*
X676580Y-144278D01*
X676589Y-144287D01*
X676625Y-144306D01*
X676680Y-144342D01*
X676753Y-144378D01*
X676853Y-144415D01*
X676972Y-144451D01*
X677108Y-144469D01*
X677272Y-144479D01*
X677345D01*
X677436Y-144469D01*
X677536Y-144451D01*
X677664Y-144433D01*
X677792Y-144397D01*
X677928Y-144351D01*
X678065Y-144287D01*
X678083Y-144278D01*
X678119Y-144251D01*
X678183Y-144205D01*
X678256Y-144141D01*
X678338Y-144069D01*
X678429Y-143977D01*
X678502Y-143868D01*
X678575Y-143750D01*
X678584Y-143741D01*
X678593Y-143704D01*
X678611Y-143640D01*
X678639Y-143559D01*
X678666Y-143449D01*
X678684Y-143322D01*
X678693Y-143167D01*
X678702Y-142984D01*
X678712Y-142693D01*
D02*
G37*
G36*
X668891Y-139432D02*
X667433D01*
Y-144242D01*
X668927D01*
X668991Y-144233D01*
X669128Y-144223D01*
X669283Y-144214D01*
X669447Y-144196D01*
X669611Y-144169D01*
X669747Y-144132D01*
X669766Y-144123D01*
X669811Y-144114D01*
X669875Y-144087D01*
X669957Y-144050D01*
X670048Y-143996D01*
X670139Y-143941D01*
X670230Y-143877D01*
X670321Y-143804D01*
X670330Y-143786D01*
X670367Y-143750D01*
X670422Y-143686D01*
X670485Y-143595D01*
X670558Y-143476D01*
X670640Y-143340D01*
X670713Y-143185D01*
X670777Y-143012D01*
Y-143003D01*
X670786Y-142984D01*
X670795Y-142957D01*
X670804Y-142921D01*
X670813Y-142875D01*
X670831Y-142811D01*
X670850Y-142748D01*
X670868Y-142675D01*
X670895Y-142493D01*
X670923Y-142283D01*
X670941Y-142046D01*
X670950Y-141791D01*
Y-141782D01*
Y-141746D01*
Y-141700D01*
X670941Y-141627D01*
Y-141545D01*
X670932Y-141454D01*
X670923Y-141345D01*
X670913Y-141235D01*
X670868Y-140989D01*
X670813Y-140734D01*
X670731Y-140498D01*
X670677Y-140379D01*
X670622Y-140279D01*
Y-140270D01*
X670604Y-140252D01*
X670585Y-140224D01*
X670567Y-140188D01*
X670494Y-140097D01*
X670403Y-139987D01*
X670285Y-139869D01*
X670148Y-139751D01*
X669993Y-139650D01*
X669829Y-139568D01*
X669811Y-139559D01*
X669766Y-139550D01*
X669684Y-139523D01*
X669565Y-139495D01*
X669419Y-139477D01*
X669237Y-139450D01*
X669128Y-139441D01*
X669009D01*
X668891Y-139432D01*
D02*
G37*
G36*
X651272D02*
X649815D01*
Y-144242D01*
X651309D01*
X651372Y-144233D01*
X651509Y-144223D01*
X651664Y-144214D01*
X651828Y-144196D01*
X651992Y-144169D01*
X652129Y-144132D01*
X652147Y-144123D01*
X652192Y-144114D01*
X652256Y-144087D01*
X652338Y-144050D01*
X652429Y-143996D01*
X652520Y-143941D01*
X652611Y-143877D01*
X652703Y-143804D01*
X652712Y-143786D01*
X652748Y-143750D01*
X652803Y-143686D01*
X652867Y-143595D01*
X652939Y-143476D01*
X653021Y-143340D01*
X653094Y-143185D01*
X653158Y-143012D01*
Y-143003D01*
X653167Y-142984D01*
X653176Y-142957D01*
X653185Y-142921D01*
X653195Y-142875D01*
X653213Y-142811D01*
X653231Y-142748D01*
X653249Y-142675D01*
X653276Y-142493D01*
X653304Y-142283D01*
X653322Y-142046D01*
X653331Y-141791D01*
Y-141782D01*
Y-141746D01*
Y-141700D01*
X653322Y-141627D01*
Y-141545D01*
X653313Y-141454D01*
X653304Y-141345D01*
X653295Y-141235D01*
X653249Y-140989D01*
X653195Y-140734D01*
X653113Y-140498D01*
X653058Y-140379D01*
X653003Y-140279D01*
Y-140270D01*
X652985Y-140252D01*
X652967Y-140224D01*
X652949Y-140188D01*
X652876Y-140097D01*
X652784Y-139987D01*
X652666Y-139869D01*
X652529Y-139751D01*
X652375Y-139650D01*
X652211Y-139568D01*
X652192Y-139559D01*
X652147Y-139550D01*
X652065Y-139523D01*
X651946Y-139495D01*
X651801Y-139477D01*
X651618Y-139450D01*
X651509Y-139441D01*
X651391D01*
X651272Y-139432D01*
D02*
G37*
G36*
X695738Y-140953D02*
X695592D01*
X695556Y-140962D01*
X695456Y-140971D01*
X695337Y-141008D01*
X695192Y-141053D01*
X695046Y-141135D01*
X694900Y-141235D01*
X694827Y-141308D01*
X694754Y-141381D01*
Y-141390D01*
X694736Y-141399D01*
X694718Y-141427D01*
X694700Y-141463D01*
X694672Y-141500D01*
X694645Y-141554D01*
X694608Y-141618D01*
X694581Y-141691D01*
X694545Y-141773D01*
X694508Y-141873D01*
X694481Y-141973D01*
X694454Y-142083D01*
X694435Y-142210D01*
X694417Y-142338D01*
X694399Y-142474D01*
Y-142629D01*
Y-142638D01*
Y-142666D01*
Y-142711D01*
X694408Y-142775D01*
Y-142848D01*
X694417Y-142939D01*
X694445Y-143130D01*
X694490Y-143349D01*
X694545Y-143559D01*
X694636Y-143768D01*
X694691Y-143859D01*
X694754Y-143941D01*
X694772Y-143959D01*
X694818Y-144005D01*
X694891Y-144069D01*
X695000Y-144141D01*
X695128Y-144223D01*
X695283Y-144287D01*
X695456Y-144333D01*
X695547Y-144342D01*
X695647Y-144351D01*
X695702D01*
X695738Y-144342D01*
X695838Y-144333D01*
X695966Y-144296D01*
X696103Y-144251D01*
X696257Y-144178D01*
X696403Y-144078D01*
X696476Y-144014D01*
X696549Y-143941D01*
Y-143932D01*
X696567Y-143923D01*
X696585Y-143895D01*
X696604Y-143859D01*
X696631Y-143823D01*
X696667Y-143768D01*
X696695Y-143704D01*
X696731Y-143622D01*
X696768Y-143540D01*
X696795Y-143449D01*
X696831Y-143340D01*
X696859Y-143221D01*
X696877Y-143103D01*
X696895Y-142966D01*
X696913Y-142811D01*
Y-142657D01*
Y-142648D01*
Y-142620D01*
Y-142575D01*
X696904Y-142520D01*
Y-142447D01*
X696895Y-142365D01*
X696868Y-142183D01*
X696822Y-141973D01*
X696759Y-141764D01*
X696667Y-141554D01*
X696604Y-141463D01*
X696540Y-141381D01*
Y-141372D01*
X696522Y-141363D01*
X696476Y-141317D01*
X696394Y-141244D01*
X696285Y-141163D01*
X696157Y-141090D01*
X696002Y-141017D01*
X695829Y-140971D01*
X695738Y-140953D01*
D02*
G37*
%LPD*%
D11*
X40Y18031D02*
G03*
X11317Y6947I11796J722D01*
G01*
X29279Y2252D02*
G03*
X21524Y6947I-10086J-7908D01*
G01*
X29279Y2252D02*
G03*
X34488Y-72I4950J4095D01*
G01*
X311967Y-72D02*
G03*
X327284Y8149I575J17307D01*
G01*
X348242Y14356D02*
G03*
X361631Y27952I-102J13490D01*
G01*
X339435Y14356D02*
G03*
X327284Y8149I-253J-14503D01*
G01*
X361631Y319610D02*
G03*
X349410Y331905I-12330J-35D01*
G01*
X326575Y341338D02*
G03*
X338899Y331927I13326J4677D01*
G01*
X326575Y341220D02*
G03*
X314725Y349881I-12571J-4763D01*
G01*
X14449D02*
G03*
X45Y335005I609J-15002D01*
G01*
X11317Y6947D02*
X21524D01*
X34488Y-72D02*
X311967Y-72D01*
X339182Y14356D02*
X348242D01*
X361631Y27952D02*
X361631Y319610D01*
X338899Y331927D02*
X349301D01*
X16575Y349881D02*
X314725D01*
X14449D02*
X16575D01*
X40Y18031D02*
Y334880D01*
X471346Y189204D02*
G03*
X471346Y189204I-2659J0D01*
G01*
X466028Y210475D02*
X471346D01*
Y215793D01*
X466028D02*
X471346D01*
X466028Y210475D02*
Y215793D01*
Y201169D02*
X468687Y198510D01*
X471346Y201169D01*
X468687Y203828D02*
X471346Y201169D01*
X466028D02*
X468687Y203828D01*
X466028Y174580D02*
X468687Y175909D01*
X471346Y174580D01*
X470017Y177239D02*
X471346Y174580D01*
X470017Y177239D02*
X471346Y179897D01*
X468687Y178568D02*
X471346Y179897D01*
X466028D02*
X468687Y178568D01*
X466028Y179897D02*
X467358Y177239D01*
X466028Y174580D02*
X467358Y177239D01*
X870741Y215260D02*
Y212070D01*
X872336Y210475D01*
X873931Y212070D01*
Y215260D01*
X875526Y210475D02*
X877121D01*
X876323D01*
Y213665D01*
X875526D01*
X880311D02*
X881905D01*
X882703Y212868D01*
Y210475D01*
X880311D01*
X879513Y211273D01*
X880311Y212070D01*
X882703D01*
X870741Y198510D02*
Y203295D01*
X873134D01*
X873931Y202497D01*
Y200903D01*
X873134Y200105D01*
X870741D01*
X876323Y201700D02*
X877918D01*
X878716Y200903D01*
Y198510D01*
X876323D01*
X875526Y199308D01*
X876323Y200105D01*
X878716D01*
X883500Y203295D02*
Y198510D01*
X881108D01*
X880311Y199308D01*
Y200903D01*
X881108Y201700D01*
X883500D01*
X870741Y186545D02*
Y191330D01*
X873134D01*
X873931Y190532D01*
Y188937D01*
X873134Y188140D01*
X870741D01*
X876323Y189735D02*
X877918D01*
X878716Y188937D01*
Y186545D01*
X876323D01*
X875526Y187342D01*
X876323Y188140D01*
X878716D01*
X883500Y191330D02*
Y186545D01*
X881108D01*
X880311Y187342D01*
Y188937D01*
X881108Y189735D01*
X883500D01*
X870741Y174580D02*
Y179364D01*
X873134D01*
X873931Y178567D01*
Y176972D01*
X873134Y176174D01*
X870741D01*
X876323Y177769D02*
X877918D01*
X878716Y176972D01*
Y174580D01*
X876323D01*
X875526Y175377D01*
X876323Y176174D01*
X878716D01*
X883500Y179364D02*
Y174580D01*
X881108D01*
X880311Y175377D01*
Y176972D01*
X881108Y177769D01*
X883500D01*
X750720Y215260D02*
X753909D01*
X752315D01*
Y210475D01*
X756302D02*
X757897D01*
X758694Y211273D01*
Y212868D01*
X757897Y213665D01*
X756302D01*
X755504Y212868D01*
Y211273D01*
X756302Y210475D01*
X760289Y208881D02*
Y213665D01*
X762681D01*
X763479Y212868D01*
Y211273D01*
X762681Y210475D01*
X760289D01*
X769858Y215260D02*
Y210475D01*
X773048D01*
X775440Y213665D02*
X777035D01*
X777832Y212868D01*
Y210475D01*
X775440D01*
X774643Y211273D01*
X775440Y212070D01*
X777832D01*
X779427Y213665D02*
Y211273D01*
X780224Y210475D01*
X782617D01*
Y209678D01*
X781819Y208881D01*
X781022D01*
X782617Y210475D02*
Y213665D01*
X786604Y210475D02*
X785009D01*
X784212Y211273D01*
Y212868D01*
X785009Y213665D01*
X786604D01*
X787401Y212868D01*
Y212070D01*
X784212D01*
X788996Y213665D02*
Y210475D01*
Y212070D01*
X789794Y212868D01*
X790591Y213665D01*
X791389D01*
X798565Y212868D02*
X801755D01*
X808134Y215260D02*
Y210475D01*
X810527D01*
X811324Y211273D01*
Y212070D01*
X810527Y212868D01*
X808134D01*
X810527D01*
X811324Y213665D01*
Y214463D01*
X810527Y215260D01*
X808134D01*
X813716Y210475D02*
X815311D01*
X816109Y211273D01*
Y212868D01*
X815311Y213665D01*
X813716D01*
X812919Y212868D01*
Y211273D01*
X813716Y210475D01*
X818501Y214463D02*
Y213665D01*
X817704D01*
X819298D01*
X818501D01*
Y211273D01*
X819298Y210475D01*
X822488Y214463D02*
Y213665D01*
X821691D01*
X823286D01*
X822488D01*
Y211273D01*
X823286Y210475D01*
X826475D02*
X828070D01*
X828868Y211273D01*
Y212868D01*
X828070Y213665D01*
X826475D01*
X825678Y212868D01*
Y211273D01*
X826475Y210475D01*
X830462D02*
Y213665D01*
X831260D01*
X832057Y212868D01*
Y210475D01*
Y212868D01*
X832855Y213665D01*
X833652Y212868D01*
Y210475D01*
X840032Y215260D02*
Y210475D01*
X843221D01*
X845614Y213665D02*
X847208D01*
X848006Y212868D01*
Y210475D01*
X845614D01*
X844816Y211273D01*
X845614Y212070D01*
X848006D01*
X849601Y213665D02*
Y211273D01*
X850398Y210475D01*
X852790D01*
Y209678D01*
X851993Y208881D01*
X851196D01*
X852790Y210475D02*
Y213665D01*
X856778Y210475D02*
X855183D01*
X854385Y211273D01*
Y212868D01*
X855183Y213665D01*
X856778D01*
X857575Y212868D01*
Y212070D01*
X854385D01*
X859170Y213665D02*
Y210475D01*
Y212070D01*
X859967Y212868D01*
X860765Y213665D01*
X861562D01*
X750720Y203295D02*
X753909D01*
X752315D01*
Y198510D01*
X756302D02*
X757897D01*
X758694Y199308D01*
Y200903D01*
X757897Y201700D01*
X756302D01*
X755504Y200903D01*
Y199308D01*
X756302Y198510D01*
X760289Y196915D02*
Y201700D01*
X762681D01*
X763479Y200903D01*
Y199308D01*
X762681Y198510D01*
X760289D01*
X769858Y203295D02*
Y198510D01*
X773048D01*
X775440Y201700D02*
X777035D01*
X777832Y200903D01*
Y198510D01*
X775440D01*
X774643Y199308D01*
X775440Y200105D01*
X777832D01*
X779427Y201700D02*
Y199308D01*
X780224Y198510D01*
X782617D01*
Y197713D01*
X781819Y196915D01*
X781022D01*
X782617Y198510D02*
Y201700D01*
X786604Y198510D02*
X785009D01*
X784212Y199308D01*
Y200903D01*
X785009Y201700D01*
X786604D01*
X787401Y200903D01*
Y200105D01*
X784212D01*
X788996Y201700D02*
Y198510D01*
Y200105D01*
X789794Y200903D01*
X790591Y201700D01*
X791389D01*
X798565Y200903D02*
X801755D01*
X808134Y203295D02*
Y198510D01*
X810527D01*
X811324Y199308D01*
Y200105D01*
X810527Y200903D01*
X808134D01*
X810527D01*
X811324Y201700D01*
Y202497D01*
X810527Y203295D01*
X808134D01*
X813716Y198510D02*
X815311D01*
X816109Y199308D01*
Y200903D01*
X815311Y201700D01*
X813716D01*
X812919Y200903D01*
Y199308D01*
X813716Y198510D01*
X818501Y202497D02*
Y201700D01*
X817704D01*
X819298D01*
X818501D01*
Y199308D01*
X819298Y198510D01*
X822488Y202497D02*
Y201700D01*
X821691D01*
X823286D01*
X822488D01*
Y199308D01*
X823286Y198510D01*
X826475D02*
X828070D01*
X828868Y199308D01*
Y200903D01*
X828070Y201700D01*
X826475D01*
X825678Y200903D01*
Y199308D01*
X826475Y198510D01*
X830462D02*
Y201700D01*
X831260D01*
X832057Y200903D01*
Y198510D01*
Y200903D01*
X832855Y201700D01*
X833652Y200903D01*
Y198510D01*
X840032Y203295D02*
Y198510D01*
X843221D01*
X845614Y201700D02*
X847208D01*
X848006Y200903D01*
Y198510D01*
X845614D01*
X844816Y199308D01*
X845614Y200105D01*
X848006D01*
X849601Y201700D02*
Y199308D01*
X850398Y198510D01*
X852790D01*
Y197713D01*
X851993Y196915D01*
X851196D01*
X852790Y198510D02*
Y201700D01*
X856778Y198510D02*
X855183D01*
X854385Y199308D01*
Y200903D01*
X855183Y201700D01*
X856778D01*
X857575Y200903D01*
Y200105D01*
X854385D01*
X859170Y201700D02*
Y198510D01*
Y200105D01*
X859967Y200903D01*
X860765Y201700D01*
X861562D01*
X750720Y191330D02*
X753909D01*
X752315D01*
Y186545D01*
X756302D02*
X757897D01*
X758694Y187342D01*
Y188937D01*
X757897Y189735D01*
X756302D01*
X755504Y188937D01*
Y187342D01*
X756302Y186545D01*
X760289Y184950D02*
Y189735D01*
X762681D01*
X763479Y188937D01*
Y187342D01*
X762681Y186545D01*
X760289D01*
X769858Y191330D02*
Y186545D01*
X773048D01*
X775440Y189735D02*
X777035D01*
X777832Y188937D01*
Y186545D01*
X775440D01*
X774643Y187342D01*
X775440Y188140D01*
X777832D01*
X779427Y189735D02*
Y187342D01*
X780224Y186545D01*
X782617D01*
Y185748D01*
X781819Y184950D01*
X781022D01*
X782617Y186545D02*
Y189735D01*
X786604Y186545D02*
X785009D01*
X784212Y187342D01*
Y188937D01*
X785009Y189735D01*
X786604D01*
X787401Y188937D01*
Y188140D01*
X784212D01*
X788996Y189735D02*
Y186545D01*
Y188140D01*
X789794Y188937D01*
X790591Y189735D01*
X791389D01*
X798565Y188937D02*
X801755D01*
X808134Y191330D02*
Y186545D01*
X810527D01*
X811324Y187342D01*
Y188140D01*
X810527Y188937D01*
X808134D01*
X810527D01*
X811324Y189735D01*
Y190532D01*
X810527Y191330D01*
X808134D01*
X813716Y186545D02*
X815311D01*
X816109Y187342D01*
Y188937D01*
X815311Y189735D01*
X813716D01*
X812919Y188937D01*
Y187342D01*
X813716Y186545D01*
X818501Y190532D02*
Y189735D01*
X817704D01*
X819298D01*
X818501D01*
Y187342D01*
X819298Y186545D01*
X822488Y190532D02*
Y189735D01*
X821691D01*
X823286D01*
X822488D01*
Y187342D01*
X823286Y186545D01*
X826475D02*
X828070D01*
X828868Y187342D01*
Y188937D01*
X828070Y189735D01*
X826475D01*
X825678Y188937D01*
Y187342D01*
X826475Y186545D01*
X830462D02*
Y189735D01*
X831260D01*
X832057Y188937D01*
Y186545D01*
Y188937D01*
X832855Y189735D01*
X833652Y188937D01*
Y186545D01*
X840032Y191330D02*
Y186545D01*
X843221D01*
X845614Y189735D02*
X847208D01*
X848006Y188937D01*
Y186545D01*
X845614D01*
X844816Y187342D01*
X845614Y188140D01*
X848006D01*
X849601Y189735D02*
Y187342D01*
X850398Y186545D01*
X852790D01*
Y185748D01*
X851993Y184950D01*
X851196D01*
X852790Y186545D02*
Y189735D01*
X856778Y186545D02*
X855183D01*
X854385Y187342D01*
Y188937D01*
X855183Y189735D01*
X856778D01*
X857575Y188937D01*
Y188140D01*
X854385D01*
X859170Y189735D02*
Y186545D01*
Y188140D01*
X859967Y188937D01*
X860765Y189735D01*
X861562D01*
X750720Y179364D02*
X753909D01*
X752315D01*
Y174580D01*
X756302D02*
X757897D01*
X758694Y175377D01*
Y176972D01*
X757897Y177769D01*
X756302D01*
X755504Y176972D01*
Y175377D01*
X756302Y174580D01*
X760289Y172985D02*
Y177769D01*
X762681D01*
X763479Y176972D01*
Y175377D01*
X762681Y174580D01*
X760289D01*
X769858Y179364D02*
Y174580D01*
X773048D01*
X775440Y177769D02*
X777035D01*
X777832Y176972D01*
Y174580D01*
X775440D01*
X774643Y175377D01*
X775440Y176174D01*
X777832D01*
X779427Y177769D02*
Y175377D01*
X780224Y174580D01*
X782617D01*
Y173782D01*
X781819Y172985D01*
X781022D01*
X782617Y174580D02*
Y177769D01*
X786604Y174580D02*
X785009D01*
X784212Y175377D01*
Y176972D01*
X785009Y177769D01*
X786604D01*
X787401Y176972D01*
Y176174D01*
X784212D01*
X788996Y177769D02*
Y174580D01*
Y176174D01*
X789794Y176972D01*
X790591Y177769D01*
X791389D01*
X798565Y176972D02*
X801755D01*
X808134Y179364D02*
Y174580D01*
X810527D01*
X811324Y175377D01*
Y176174D01*
X810527Y176972D01*
X808134D01*
X810527D01*
X811324Y177769D01*
Y178567D01*
X810527Y179364D01*
X808134D01*
X813716Y174580D02*
X815311D01*
X816109Y175377D01*
Y176972D01*
X815311Y177769D01*
X813716D01*
X812919Y176972D01*
Y175377D01*
X813716Y174580D01*
X818501Y178567D02*
Y177769D01*
X817704D01*
X819298D01*
X818501D01*
Y175377D01*
X819298Y174580D01*
X822488Y178567D02*
Y177769D01*
X821691D01*
X823286D01*
X822488D01*
Y175377D01*
X823286Y174580D01*
X826475D02*
X828070D01*
X828868Y175377D01*
Y176972D01*
X828070Y177769D01*
X826475D01*
X825678Y176972D01*
Y175377D01*
X826475Y174580D01*
X830462D02*
Y177769D01*
X831260D01*
X832057Y176972D01*
Y174580D01*
Y176972D01*
X832855Y177769D01*
X833652Y176972D01*
Y174580D01*
X840032Y179364D02*
Y174580D01*
X843221D01*
X845614Y177769D02*
X847208D01*
X848006Y176972D01*
Y174580D01*
X845614D01*
X844816Y175377D01*
X845614Y176174D01*
X848006D01*
X849601Y177769D02*
Y175377D01*
X850398Y174580D01*
X852790D01*
Y173782D01*
X851993Y172985D01*
X851196D01*
X852790Y174580D02*
Y177769D01*
X856778Y174580D02*
X855183D01*
X854385Y175377D01*
Y176972D01*
X855183Y177769D01*
X856778D01*
X857575Y176972D01*
Y176174D01*
X854385D01*
X859170Y177769D02*
Y174580D01*
Y176174D01*
X859967Y176972D01*
X860765Y177769D01*
X861562D01*
X691538Y210475D02*
Y215260D01*
X693930D01*
X694728Y214463D01*
Y212868D01*
X693930Y212070D01*
X691538D01*
X693133D02*
X694728Y210475D01*
X697120D02*
X698715D01*
X699512Y211273D01*
Y212868D01*
X698715Y213665D01*
X697120D01*
X696322Y212868D01*
Y211273D01*
X697120Y210475D01*
X701107Y213665D02*
Y211273D01*
X701904Y210475D01*
X704297D01*
Y213665D01*
X705892Y210475D02*
Y213665D01*
X708284D01*
X709081Y212868D01*
Y210475D01*
X713866Y215260D02*
Y210475D01*
X711474D01*
X710676Y211273D01*
Y212868D01*
X711474Y213665D01*
X713866D01*
X691538Y198510D02*
Y203295D01*
X693930D01*
X694728Y202497D01*
Y200903D01*
X693930Y200105D01*
X691538D01*
X693133D02*
X694728Y198510D01*
X697120D02*
X698715D01*
X699512Y199308D01*
Y200903D01*
X698715Y201700D01*
X697120D01*
X696322Y200903D01*
Y199308D01*
X697120Y198510D01*
X701107Y201700D02*
Y199308D01*
X701904Y198510D01*
X704297D01*
Y201700D01*
X705892Y198510D02*
Y201700D01*
X708284D01*
X709081Y200903D01*
Y198510D01*
X713866Y203295D02*
Y198510D01*
X711474D01*
X710676Y199308D01*
Y200903D01*
X711474Y201700D01*
X713866D01*
X691538Y186545D02*
Y191330D01*
X693930D01*
X694728Y190532D01*
Y188937D01*
X693930Y188140D01*
X691538D01*
X693133D02*
X694728Y186545D01*
X697120D02*
X698715D01*
X699512Y187342D01*
Y188937D01*
X698715Y189735D01*
X697120D01*
X696322Y188937D01*
Y187342D01*
X697120Y186545D01*
X701107Y189735D02*
Y187342D01*
X701904Y186545D01*
X704297D01*
Y189735D01*
X705892Y186545D02*
Y189735D01*
X708284D01*
X709081Y188937D01*
Y186545D01*
X713866Y191330D02*
Y186545D01*
X711474D01*
X710676Y187342D01*
Y188937D01*
X711474Y189735D01*
X713866D01*
X691538Y174580D02*
Y179364D01*
X693930D01*
X694728Y178567D01*
Y176972D01*
X693930Y176174D01*
X691538D01*
X693133D02*
X694728Y174580D01*
X697120D02*
X698715D01*
X699512Y175377D01*
Y176972D01*
X698715Y177769D01*
X697120D01*
X696322Y176972D01*
Y175377D01*
X697120Y174580D01*
X701107Y177769D02*
Y175377D01*
X701904Y174580D01*
X704297D01*
Y177769D01*
X705892Y174580D02*
Y177769D01*
X708284D01*
X709081Y176972D01*
Y174580D01*
X713866Y179364D02*
Y174580D01*
X711474D01*
X710676Y175377D01*
Y176972D01*
X711474Y177769D01*
X713866D01*
X650537Y210475D02*
Y215260D01*
X652930D01*
X653727Y214463D01*
Y212868D01*
X652930Y212070D01*
X650537D01*
X655322Y215260D02*
X658512D01*
X656917D01*
Y210475D01*
X660107Y215260D02*
Y210475D01*
Y212868D01*
X663296D01*
Y215260D01*
Y210475D01*
X650537Y198510D02*
Y203295D01*
X652930D01*
X653727Y202497D01*
Y200903D01*
X652930Y200105D01*
X650537D01*
X655322Y203295D02*
X658512D01*
X656917D01*
Y198510D01*
X660107Y203295D02*
Y198510D01*
Y200903D01*
X663296D01*
Y203295D01*
Y198510D01*
X650537Y186545D02*
Y191330D01*
X652930D01*
X653727Y190532D01*
Y188937D01*
X652930Y188140D01*
X650537D01*
X655322Y191330D02*
X658512D01*
X656917D01*
Y186545D01*
X660107Y191330D02*
Y186545D01*
Y188937D01*
X663296D01*
Y191330D01*
Y186545D01*
X650537Y174580D02*
Y179364D01*
X652930D01*
X653727Y178567D01*
Y176972D01*
X652930Y176174D01*
X650537D01*
X655322Y179364D02*
X658512D01*
X656917D01*
Y174580D01*
X660107Y179364D02*
Y174580D01*
Y176972D01*
X663296D01*
Y179364D01*
Y174580D01*
X556831Y210475D02*
X558426D01*
X557628D01*
Y215260D01*
X556831Y214463D01*
X560818Y210475D02*
X562413D01*
X561615D01*
Y215260D01*
X560818Y214463D01*
X565602Y209678D02*
X566400Y210475D01*
Y211273D01*
X565602D01*
Y210475D01*
X566400D01*
X565602Y209678D01*
X564805Y208881D01*
X569590Y214463D02*
X570387Y215260D01*
X571982D01*
X572779Y214463D01*
Y213665D01*
X571982Y212868D01*
X572779Y212070D01*
Y211273D01*
X571982Y210475D01*
X570387D01*
X569590Y211273D01*
Y212070D01*
X570387Y212868D01*
X569590Y213665D01*
Y214463D01*
X570387Y212868D02*
X571982D01*
X574374Y210475D02*
X575969D01*
X575172D01*
Y215260D01*
X574374Y214463D01*
X578361Y210475D02*
Y213665D01*
X579159D01*
X579956Y212868D01*
Y210475D01*
Y212868D01*
X580754Y213665D01*
X581551Y212868D01*
Y210475D01*
X583146D02*
X584741D01*
X583943D01*
Y213665D01*
X583146D01*
X587133Y210475D02*
X588728D01*
X587930D01*
Y215260D01*
X587133D01*
X597500Y210475D02*
X595905Y212070D01*
Y213665D01*
X597500Y215260D01*
X599892Y214463D02*
X600689Y215260D01*
X602284D01*
X603082Y214463D01*
Y211273D01*
X602284Y210475D01*
X600689D01*
X599892Y211273D01*
Y214463D01*
X605474Y209678D02*
X606271Y210475D01*
Y211273D01*
X605474D01*
Y210475D01*
X606271D01*
X605474Y209678D01*
X604676Y208881D01*
X609461Y214463D02*
X610258Y215260D01*
X611853D01*
X612651Y214463D01*
Y213665D01*
X611853Y212868D01*
X611056D01*
X611853D01*
X612651Y212070D01*
Y211273D01*
X611853Y210475D01*
X610258D01*
X609461Y211273D01*
X614246Y214463D02*
X615043Y215260D01*
X616638D01*
X617435Y214463D01*
Y211273D01*
X616638Y210475D01*
X615043D01*
X614246Y211273D01*
Y214463D01*
X619030D02*
X619828Y215260D01*
X621422D01*
X622220Y214463D01*
Y211273D01*
X621422Y210475D01*
X619828D01*
X619030Y211273D01*
Y214463D01*
X623815Y210475D02*
Y213665D01*
X624612D01*
X625410Y212868D01*
Y210475D01*
Y212868D01*
X626207Y213665D01*
X627004Y212868D01*
Y210475D01*
X628599D02*
Y213665D01*
X629397D01*
X630194Y212868D01*
Y210475D01*
Y212868D01*
X630992Y213665D01*
X631789Y212868D01*
Y210475D01*
X633384D02*
X634979Y212070D01*
Y213665D01*
X633384Y215260D01*
X556831Y198510D02*
X558426D01*
X557628D01*
Y203295D01*
X556831Y202497D01*
X564008Y198510D02*
X560818D01*
X564008Y201700D01*
Y202497D01*
X563210Y203295D01*
X561615D01*
X560818Y202497D01*
X568792Y203295D02*
X565602D01*
Y200903D01*
X567197Y201700D01*
X567995D01*
X568792Y200903D01*
Y199308D01*
X567995Y198510D01*
X566400D01*
X565602Y199308D01*
X571184Y197713D02*
X571982Y198510D01*
Y199308D01*
X571184D01*
Y198510D01*
X571982D01*
X571184Y197713D01*
X570387Y196915D01*
X575172Y199308D02*
X575969Y198510D01*
X577564D01*
X578361Y199308D01*
Y202497D01*
X577564Y203295D01*
X575969D01*
X575172Y202497D01*
Y201700D01*
X575969Y200903D01*
X578361D01*
X579956Y202497D02*
X580754Y203295D01*
X582348D01*
X583146Y202497D01*
Y201700D01*
X582348Y200903D01*
X583146Y200105D01*
Y199308D01*
X582348Y198510D01*
X580754D01*
X579956Y199308D01*
Y200105D01*
X580754Y200903D01*
X579956Y201700D01*
Y202497D01*
X580754Y200903D02*
X582348D01*
X584741Y198510D02*
Y201700D01*
X585538D01*
X586336Y200903D01*
Y198510D01*
Y200903D01*
X587133Y201700D01*
X587930Y200903D01*
Y198510D01*
X589525D02*
X591120D01*
X590323D01*
Y201700D01*
X589525D01*
X593512Y198510D02*
X595107D01*
X594310D01*
Y203295D01*
X593512D01*
X603879Y198510D02*
X602284Y200105D01*
Y201700D01*
X603879Y203295D01*
X606271Y202497D02*
X607069Y203295D01*
X608664D01*
X609461Y202497D01*
Y201700D01*
X608664Y200903D01*
X607866D01*
X608664D01*
X609461Y200105D01*
Y199308D01*
X608664Y198510D01*
X607069D01*
X606271Y199308D01*
X611853Y197713D02*
X612651Y198510D01*
Y199308D01*
X611853D01*
Y198510D01*
X612651D01*
X611853Y197713D01*
X611056Y196915D01*
X619030Y198510D02*
X615840D01*
X619030Y201700D01*
Y202497D01*
X618233Y203295D01*
X616638D01*
X615840Y202497D01*
X620625D02*
X621422Y203295D01*
X623017D01*
X623815Y202497D01*
Y199308D01*
X623017Y198510D01*
X621422D01*
X620625Y199308D01*
Y202497D01*
X625410D02*
X626207Y203295D01*
X627802D01*
X628599Y202497D01*
Y199308D01*
X627802Y198510D01*
X626207D01*
X625410Y199308D01*
Y202497D01*
X630194Y198510D02*
Y201700D01*
X630992D01*
X631789Y200903D01*
Y198510D01*
Y200903D01*
X632586Y201700D01*
X633384Y200903D01*
Y198510D01*
X634979D02*
Y201700D01*
X635776D01*
X636574Y200903D01*
Y198510D01*
Y200903D01*
X637371Y201700D01*
X638168Y200903D01*
Y198510D01*
X639763D02*
X641358Y200105D01*
Y201700D01*
X639763Y203295D01*
X556831Y191330D02*
X560021D01*
Y190532D01*
X556831Y187342D01*
Y186545D01*
X564805D02*
X561615D01*
X564805Y189735D01*
Y190532D01*
X564008Y191330D01*
X562413D01*
X561615Y190532D01*
X567197Y185748D02*
X567995Y186545D01*
Y187342D01*
X567197D01*
Y186545D01*
X567995D01*
X567197Y185748D01*
X566400Y184950D01*
X571184Y190532D02*
X571982Y191330D01*
X573577D01*
X574374Y190532D01*
Y187342D01*
X573577Y186545D01*
X571982D01*
X571184Y187342D01*
Y190532D01*
X579159Y191330D02*
X575969D01*
Y188937D01*
X577564Y189735D01*
X578361D01*
X579159Y188937D01*
Y187342D01*
X578361Y186545D01*
X576766D01*
X575969Y187342D01*
X580754Y186545D02*
Y189735D01*
X581551D01*
X582348Y188937D01*
Y186545D01*
Y188937D01*
X583146Y189735D01*
X583943Y188937D01*
Y186545D01*
X585538D02*
X587133D01*
X586336D01*
Y189735D01*
X585538D01*
X589525Y186545D02*
X591120D01*
X590323D01*
Y191330D01*
X589525D01*
X599892Y186545D02*
X598297Y188140D01*
Y189735D01*
X599892Y191330D01*
X602284Y186545D02*
X603879D01*
X603082D01*
Y191330D01*
X602284Y190532D01*
X607069Y185748D02*
X607866Y186545D01*
Y187342D01*
X607069D01*
Y186545D01*
X607866D01*
X607069Y185748D01*
X606271Y184950D01*
X611056Y190532D02*
X611853Y191330D01*
X613448D01*
X614246Y190532D01*
Y189735D01*
X613448Y188937D01*
X614246Y188140D01*
Y187342D01*
X613448Y186545D01*
X611853D01*
X611056Y187342D01*
Y188140D01*
X611853Y188937D01*
X611056Y189735D01*
Y190532D01*
X611853Y188937D02*
X613448D01*
X615840Y190532D02*
X616638Y191330D01*
X618233D01*
X619030Y190532D01*
Y189735D01*
X618233Y188937D01*
X617435D01*
X618233D01*
X619030Y188140D01*
Y187342D01*
X618233Y186545D01*
X616638D01*
X615840Y187342D01*
X620625Y190532D02*
X621422Y191330D01*
X623017D01*
X623815Y190532D01*
Y187342D01*
X623017Y186545D01*
X621422D01*
X620625Y187342D01*
Y190532D01*
X625410Y186545D02*
Y189735D01*
X626207D01*
X627004Y188937D01*
Y186545D01*
Y188937D01*
X627802Y189735D01*
X628599Y188937D01*
Y186545D01*
X630194D02*
Y189735D01*
X630992D01*
X631789Y188937D01*
Y186545D01*
Y188937D01*
X632586Y189735D01*
X633384Y188937D01*
Y186545D01*
X634979D02*
X636574Y188140D01*
Y189735D01*
X634979Y191330D01*
X556831Y178567D02*
X557628Y179364D01*
X559223D01*
X560021Y178567D01*
Y177769D01*
X559223Y176972D01*
X558426D01*
X559223D01*
X560021Y176174D01*
Y175377D01*
X559223Y174580D01*
X557628D01*
X556831Y175377D01*
X561615D02*
X562413Y174580D01*
X564008D01*
X564805Y175377D01*
Y178567D01*
X564008Y179364D01*
X562413D01*
X561615Y178567D01*
Y177769D01*
X562413Y176972D01*
X564805D01*
X567197Y173782D02*
X567995Y174580D01*
Y175377D01*
X567197D01*
Y174580D01*
X567995D01*
X567197Y173782D01*
X566400Y172985D01*
X571184Y178567D02*
X571982Y179364D01*
X573577D01*
X574374Y178567D01*
Y177769D01*
X573577Y176972D01*
X572779D01*
X573577D01*
X574374Y176174D01*
Y175377D01*
X573577Y174580D01*
X571982D01*
X571184Y175377D01*
X575969Y179364D02*
X579159D01*
Y178567D01*
X575969Y175377D01*
Y174580D01*
X580754D02*
Y177769D01*
X581551D01*
X582348Y176972D01*
Y174580D01*
Y176972D01*
X583146Y177769D01*
X583943Y176972D01*
Y174580D01*
X585538D02*
X587133D01*
X586336D01*
Y177769D01*
X585538D01*
X589525Y174580D02*
X591120D01*
X590323D01*
Y179364D01*
X589525D01*
X599892Y174580D02*
X598297Y176174D01*
Y177769D01*
X599892Y179364D01*
X602284Y174580D02*
X603879D01*
X603082D01*
Y179364D01*
X602284Y178567D01*
X607069Y173782D02*
X607866Y174580D01*
Y175377D01*
X607069D01*
Y174580D01*
X607866D01*
X607069Y173782D01*
X606271Y172985D01*
X611056Y178567D02*
X611853Y179364D01*
X613448D01*
X614246Y178567D01*
Y175377D01*
X613448Y174580D01*
X611853D01*
X611056Y175377D01*
Y178567D01*
X615840D02*
X616638Y179364D01*
X618233D01*
X619030Y178567D01*
Y175377D01*
X618233Y174580D01*
X616638D01*
X615840Y175377D01*
Y178567D01*
X620625D02*
X621422Y179364D01*
X623017D01*
X623815Y178567D01*
Y175377D01*
X623017Y174580D01*
X621422D01*
X620625Y175377D01*
Y178567D01*
X625410Y174580D02*
Y177769D01*
X626207D01*
X627004Y176972D01*
Y174580D01*
Y176972D01*
X627802Y177769D01*
X628599Y176972D01*
Y174580D01*
X630194D02*
Y177769D01*
X630992D01*
X631789Y176972D01*
Y174580D01*
Y176972D01*
X632586Y177769D01*
X633384Y176972D01*
Y174580D01*
X634979D02*
X636574Y176174D01*
Y177769D01*
X634979Y179364D01*
X509375Y162614D02*
X510970D01*
X510173D01*
Y167399D01*
X509375Y166602D01*
X516552Y167399D02*
X514957Y166602D01*
X513362Y165007D01*
Y163412D01*
X514160Y162614D01*
X515755D01*
X516552Y163412D01*
Y164209D01*
X515755Y165007D01*
X513362D01*
X518147Y166602D02*
X518944Y167399D01*
X520539D01*
X521337Y166602D01*
Y165804D01*
X520539Y165007D01*
X519742D01*
X520539D01*
X521337Y164209D01*
Y163412D01*
X520539Y162614D01*
X518944D01*
X518147Y163412D01*
X527716Y167399D02*
X530906D01*
X529311D01*
Y162614D01*
X533298D02*
X534893D01*
X535690Y163412D01*
Y165007D01*
X534893Y165804D01*
X533298D01*
X532501Y165007D01*
Y163412D01*
X533298Y162614D01*
X538083Y166602D02*
Y165804D01*
X537285D01*
X538880D01*
X538083D01*
Y163412D01*
X538880Y162614D01*
X542070Y165804D02*
X543665D01*
X544462Y165007D01*
Y162614D01*
X542070D01*
X541272Y163412D01*
X542070Y164209D01*
X544462D01*
X546057Y162614D02*
X547652D01*
X546854D01*
Y167399D01*
X546057D01*
X509375Y215260D02*
X512565D01*
Y214463D01*
X509375Y211273D01*
Y210475D01*
Y198510D02*
X510970D01*
X510173D01*
Y203295D01*
X509375Y202497D01*
X513362Y198510D02*
X514957D01*
X514160D01*
Y203295D01*
X513362Y202497D01*
X512565Y186545D02*
X509375D01*
X512565Y189735D01*
Y190532D01*
X511767Y191330D01*
X510173D01*
X509375Y190532D01*
X516552Y186545D02*
Y191330D01*
X514160Y188937D01*
X517349D01*
X509375Y174580D02*
X510970D01*
X510173D01*
Y179364D01*
X509375Y178567D01*
X516552Y174580D02*
X513362D01*
X516552Y177769D01*
Y178567D01*
X515755Y179364D01*
X514160D01*
X513362Y178567D01*
X518147Y174580D02*
X519742D01*
X518944D01*
Y179364D01*
X518147Y178567D01*
D37*
X461196Y218851D02*
X918440D01*
X461196Y170990D02*
X918440D01*
X461196Y159025D02*
X918440D01*
Y230817D01*
X461196D02*
X918440D01*
X461196Y159025D02*
Y230817D01*
X867152Y159025D02*
Y230817D01*
X747130Y159025D02*
Y230817D01*
X687948Y159025D02*
Y230817D01*
X646948Y159025D02*
Y230817D01*
X553241Y159025D02*
Y230817D01*
X505786Y159025D02*
Y230817D01*
D39*
X288843Y301209D02*
G03*
X288843Y301209I-1000J0D01*
G01*
X258842Y291209D02*
G03*
X258842Y291209I-1000J0D01*
G01*
Y311209D02*
G03*
X258842Y311209I-1000J0D01*
G01*
X288843Y216248D02*
G03*
X288843Y216248I-1000J0D01*
G01*
X258842Y206248D02*
G03*
X258842Y206248I-1000J0D01*
G01*
Y226248D02*
G03*
X258842Y226248I-1000J0D01*
G01*
Y143673D02*
G03*
X258842Y143673I-1000J0D01*
G01*
Y123673D02*
G03*
X258842Y123673I-1000J0D01*
G01*
X288843Y133673D02*
G03*
X288843Y133673I-1000J0D01*
G01*
Y48713D02*
G03*
X288843Y48713I-1000J0D01*
G01*
X258842Y38713D02*
G03*
X258842Y38713I-1000J0D01*
G01*
Y58713D02*
G03*
X258842Y58713I-1000J0D01*
G01*
X81783Y38713D02*
G03*
X81783Y38713I-1000J0D01*
G01*
Y58713D02*
G03*
X81783Y58713I-1000J0D01*
G01*
X51784Y48713D02*
G03*
X51784Y48713I-1000J0D01*
G01*
Y301209D02*
G03*
X51784Y301209I-1000J0D01*
G01*
X81783Y311209D02*
G03*
X81783Y311209I-1000J0D01*
G01*
Y291209D02*
G03*
X81783Y291209I-1000J0D01*
G01*
X51784Y216248D02*
G03*
X51784Y216248I-1000J0D01*
G01*
X81783Y226248D02*
G03*
X81783Y226248I-1000J0D01*
G01*
Y206248D02*
G03*
X81783Y206248I-1000J0D01*
G01*
Y123673D02*
G03*
X81783Y123673I-1000J0D01*
G01*
Y143673D02*
G03*
X81783Y143673I-1000J0D01*
G01*
X51784Y133673D02*
G03*
X51784Y133673I-1000J0D01*
G01*
X29587Y263193D02*
X31587D01*
Y265193D01*
X29587D02*
X31587D01*
X29587Y263193D02*
Y265193D01*
X32701Y251535D02*
X34701D01*
Y253535D01*
X32701D02*
X34701D01*
X32701Y251535D02*
Y253535D01*
X50032Y96272D02*
X52031D01*
Y98272D01*
X50032D02*
X52031D01*
X50032Y96272D02*
Y98272D01*
X235157Y82563D02*
X237158D01*
Y84563D01*
X235157D02*
X237158D01*
X235157Y82563D02*
Y84563D01*
X239531Y97870D02*
X241531D01*
Y99870D01*
X239531D02*
X241531D01*
X239531Y97870D02*
Y99870D01*
X242531Y263169D02*
X244531D01*
Y265169D01*
X242531D02*
X244531D01*
X242531Y263169D02*
Y265169D01*
X49909Y86114D02*
X51910D01*
Y88114D01*
X49909D02*
X51910D01*
X49909Y86114D02*
Y88114D01*
X18370Y53169D02*
X19370Y53669D01*
X20370Y53169D01*
X19870Y54169D02*
X20370Y53169D01*
X19870Y54169D02*
X20370Y55169D01*
X19370Y54669D02*
X20370Y55169D01*
X18370D02*
X19370Y54669D01*
X18370Y55169D02*
X18870Y54169D01*
X18370Y53169D02*
X18870Y54169D01*
X22417Y202791D02*
X23417Y203291D01*
X24417Y202791D01*
X23917Y203791D02*
X24417Y202791D01*
X23917Y203791D02*
X24417Y204791D01*
X23417Y204291D02*
X24417Y204791D01*
X22417D02*
X23417Y204291D01*
X22417Y204791D02*
X22917Y203791D01*
X22417Y202791D02*
X22917Y203791D01*
X317787Y323071D02*
X318787Y323571D01*
X319787Y323071D01*
X319287Y324071D02*
X319787Y323071D01*
X319287Y324071D02*
X319787Y325071D01*
X318787Y324571D02*
X319787Y325071D01*
X317787D02*
X318787Y324571D01*
X317787Y325071D02*
X318287Y324071D01*
X317787Y323071D02*
X318287Y324071D01*
X233722Y90181D02*
X234722Y90681D01*
X235722Y90181D01*
X235222Y91181D02*
X235722Y90181D01*
X235222Y91181D02*
X235722Y92181D01*
X234722Y91681D02*
X235722Y92181D01*
X233722D02*
X234722Y91681D01*
X233722Y92181D02*
X234222Y91181D01*
X233722Y90181D02*
X234222Y91181D01*
X103014Y90181D02*
X104014Y90681D01*
X105014Y90181D01*
X104514Y91181D02*
X105014Y90181D01*
X104514Y91181D02*
X105014Y92181D01*
X104014Y91681D02*
X105014Y92181D01*
X103014D02*
X104014Y91681D01*
X103014Y92181D02*
X103514Y91181D01*
X103014Y90181D02*
X103514Y91181D01*
X233722Y257799D02*
X234722Y258299D01*
X235722Y257799D01*
X235222Y258799D02*
X235722Y257799D01*
X235222Y258799D02*
X235722Y259799D01*
X234722Y259299D02*
X235722Y259799D01*
X233722D02*
X234722Y259299D01*
X233722Y259799D02*
X234222Y258799D01*
X233722Y257799D02*
X234222Y258799D01*
X103014Y257799D02*
X104014Y258299D01*
X105014Y257799D01*
X104514Y258799D02*
X105014Y257799D01*
X104514Y258799D02*
X105014Y259799D01*
X104014Y259299D02*
X105014Y259799D01*
X103014D02*
X104014Y259299D01*
X103014Y259799D02*
X103514Y258799D01*
X103014Y257799D02*
X103514Y258799D01*
X348590Y298039D02*
X349590Y298539D01*
X350590Y298039D01*
X350091Y299039D02*
X350590Y298039D01*
X350091Y299039D02*
X350590Y300039D01*
X349590Y299539D02*
X350590Y300039D01*
X348590D02*
X349590Y299539D01*
X348590Y300039D02*
X349091Y299039D01*
X348590Y298039D02*
X349091Y299039D01*
X338591Y298039D02*
X339591Y298539D01*
X340591Y298039D01*
X340090Y299039D02*
X340591Y298039D01*
X340090Y299039D02*
X340591Y300039D01*
X339591Y299539D02*
X340591Y300039D01*
X338591D02*
X339591Y299539D01*
X338591Y300039D02*
X339090Y299039D01*
X338591Y298039D02*
X339090Y299039D01*
X348590Y288039D02*
X349590Y288539D01*
X350590Y288039D01*
X350091Y289039D02*
X350590Y288039D01*
X350091Y289039D02*
X350590Y290039D01*
X349590Y289539D02*
X350590Y290039D01*
X348590D02*
X349590Y289539D01*
X348590Y290039D02*
X349091Y289039D01*
X348590Y288039D02*
X349091Y289039D01*
X338591Y288039D02*
X339591Y288539D01*
X340591Y288039D01*
X340090Y289039D02*
X340591Y288039D01*
X340090Y289039D02*
X340591Y290039D01*
X339591Y289539D02*
X340591Y290039D01*
X338591D02*
X339591Y289539D01*
X338591Y290039D02*
X339090Y289039D01*
X338591Y288039D02*
X339090Y289039D01*
X348590Y278039D02*
X349590Y278539D01*
X350590Y278039D01*
X350091Y279039D02*
X350590Y278039D01*
X350091Y279039D02*
X350590Y280039D01*
X349590Y279539D02*
X350590Y280039D01*
X348590D02*
X349590Y279539D01*
X348590Y280039D02*
X349091Y279039D01*
X348590Y278039D02*
X349091Y279039D01*
X338591Y278039D02*
X339591Y278539D01*
X340591Y278039D01*
X340090Y279039D02*
X340591Y278039D01*
X340090Y279039D02*
X340591Y280039D01*
X339591Y279539D02*
X340591Y280039D01*
X338591D02*
X339591Y279539D01*
X338591Y280039D02*
X339090Y279039D01*
X338591Y278039D02*
X339090Y279039D01*
X348590Y268039D02*
X349590Y268539D01*
X350590Y268039D01*
X350091Y269039D02*
X350590Y268039D01*
X350091Y269039D02*
X350590Y270039D01*
X349590Y269539D02*
X350590Y270039D01*
X348590D02*
X349590Y269539D01*
X348590Y270039D02*
X349091Y269039D01*
X348590Y268039D02*
X349091Y269039D01*
X338591Y268039D02*
X339591Y268539D01*
X340591Y268039D01*
X340090Y269039D02*
X340591Y268039D01*
X340090Y269039D02*
X340591Y270039D01*
X339591Y269539D02*
X340591Y270039D01*
X338591D02*
X339591Y269539D01*
X338591Y270039D02*
X339090Y269039D01*
X338591Y268039D02*
X339090Y269039D01*
X348590Y258039D02*
X349590Y258539D01*
X350590Y258039D01*
X350091Y259039D02*
X350590Y258039D01*
X350091Y259039D02*
X350590Y260039D01*
X349590Y259539D02*
X350590Y260039D01*
X348590D02*
X349590Y259539D01*
X348590Y260039D02*
X349091Y259039D01*
X348590Y258039D02*
X349091Y259039D01*
X338591Y258039D02*
X339591Y258539D01*
X340591Y258039D01*
X340090Y259039D02*
X340591Y258039D01*
X340090Y259039D02*
X340591Y260039D01*
X339591Y259539D02*
X340591Y260039D01*
X338591D02*
X339591Y259539D01*
X338591Y260039D02*
X339090Y259039D01*
X338591Y258039D02*
X339090Y259039D01*
X348590Y248039D02*
X349590Y248539D01*
X350590Y248039D01*
X350091Y249039D02*
X350590Y248039D01*
X350091Y249039D02*
X350590Y250039D01*
X349590Y249539D02*
X350590Y250039D01*
X348590D02*
X349590Y249539D01*
X348590Y250039D02*
X349091Y249039D01*
X348590Y248039D02*
X349091Y249039D01*
X338591Y248039D02*
X339591Y248539D01*
X340591Y248039D01*
X340090Y249039D02*
X340591Y248039D01*
X340090Y249039D02*
X340591Y250039D01*
X339591Y249539D02*
X340591Y250039D01*
X338591D02*
X339591Y249539D01*
X338591Y250039D02*
X339090Y249039D01*
X338591Y248039D02*
X339090Y249039D01*
X348590Y238039D02*
X349590Y238539D01*
X350590Y238039D01*
X350091Y239039D02*
X350590Y238039D01*
X350091Y239039D02*
X350590Y240039D01*
X349590Y239539D02*
X350590Y240039D01*
X348590D02*
X349590Y239539D01*
X348590Y240039D02*
X349091Y239039D01*
X348590Y238039D02*
X349091Y239039D01*
X338591Y238039D02*
X339591Y238539D01*
X340591Y238039D01*
X340090Y239039D02*
X340591Y238039D01*
X340090Y239039D02*
X340591Y240039D01*
X339591Y239539D02*
X340591Y240039D01*
X338591D02*
X339591Y239539D01*
X338591Y240039D02*
X339090Y239039D01*
X338591Y238039D02*
X339090Y239039D01*
X348590Y228039D02*
X349590Y228539D01*
X350590Y228039D01*
X350091Y229039D02*
X350590Y228039D01*
X350091Y229039D02*
X350590Y230039D01*
X349590Y229539D02*
X350590Y230039D01*
X348590D02*
X349590Y229539D01*
X348590Y230039D02*
X349091Y229039D01*
X348590Y228039D02*
X349091Y229039D01*
X338591Y228039D02*
X339591Y228539D01*
X340591Y228039D01*
X340090Y229039D02*
X340591Y228039D01*
X340090Y229039D02*
X340591Y230039D01*
X339591Y229539D02*
X340591Y230039D01*
X338591D02*
X339591Y229539D01*
X338591Y230039D02*
X339090Y229039D01*
X338591Y228039D02*
X339090Y229039D01*
X348590Y218039D02*
X349590Y218539D01*
X350590Y218039D01*
X350091Y219039D02*
X350590Y218039D01*
X350091Y219039D02*
X350590Y220039D01*
X349590Y219539D02*
X350590Y220039D01*
X348590D02*
X349590Y219539D01*
X348590Y220039D02*
X349091Y219039D01*
X348590Y218039D02*
X349091Y219039D01*
X338591Y218039D02*
X339591Y218539D01*
X340591Y218039D01*
X340090Y219039D02*
X340591Y218039D01*
X340090Y219039D02*
X340591Y220039D01*
X339591Y219539D02*
X340591Y220039D01*
X338591D02*
X339591Y219539D01*
X338591Y220039D02*
X339090Y219039D01*
X338591Y218039D02*
X339090Y219039D01*
X348590Y208039D02*
X349590Y208539D01*
X350590Y208039D01*
X350091Y209039D02*
X350590Y208039D01*
X350091Y209039D02*
X350590Y210039D01*
X349590Y209539D02*
X350590Y210039D01*
X348590D02*
X349590Y209539D01*
X348590Y210039D02*
X349091Y209039D01*
X348590Y208039D02*
X349091Y209039D01*
X338591Y208039D02*
X339591Y208539D01*
X340591Y208039D01*
X340090Y209039D02*
X340591Y208039D01*
X340090Y209039D02*
X340591Y210039D01*
X339591Y209539D02*
X340591Y210039D01*
X338591D02*
X339591Y209539D01*
X338591Y210039D02*
X339090Y209039D01*
X338591Y208039D02*
X339090Y209039D01*
X348590Y198039D02*
X349590Y198539D01*
X350590Y198039D01*
X350091Y199039D02*
X350590Y198039D01*
X350091Y199039D02*
X350590Y200039D01*
X349590Y199539D02*
X350590Y200039D01*
X348590D02*
X349590Y199539D01*
X348590Y200039D02*
X349091Y199039D01*
X348590Y198039D02*
X349091Y199039D01*
X338591Y198039D02*
X339591Y198539D01*
X340591Y198039D01*
X340090Y199039D02*
X340591Y198039D01*
X340090Y199039D02*
X340591Y200039D01*
X339591Y199539D02*
X340591Y200039D01*
X338591D02*
X339591Y199539D01*
X338591Y200039D02*
X339090Y199039D01*
X338591Y198039D02*
X339090Y199039D01*
X348590Y188039D02*
X349590Y188539D01*
X350590Y188039D01*
X350091Y189039D02*
X350590Y188039D01*
X350091Y189039D02*
X350590Y190039D01*
X349590Y189539D02*
X350590Y190039D01*
X348590D02*
X349590Y189539D01*
X348590Y190039D02*
X349091Y189039D01*
X348590Y188039D02*
X349091Y189039D01*
X338591Y188039D02*
X339591Y188539D01*
X340591Y188039D01*
X340090Y189039D02*
X340591Y188039D01*
X340090Y189039D02*
X340591Y190039D01*
X339591Y189539D02*
X340591Y190039D01*
X338591D02*
X339591Y189539D01*
X338591Y190039D02*
X339090Y189039D01*
X338591Y188039D02*
X339090Y189039D01*
X348590Y178039D02*
X349590Y178539D01*
X350590Y178039D01*
X350091Y179039D02*
X350590Y178039D01*
X350091Y179039D02*
X350590Y180039D01*
X349590Y179539D02*
X350590Y180039D01*
X348590D02*
X349590Y179539D01*
X348590Y180039D02*
X349091Y179039D01*
X348590Y178039D02*
X349091Y179039D01*
X338591Y178039D02*
X339591Y178539D01*
X340591Y178039D01*
X340090Y179039D02*
X340591Y178039D01*
X340090Y179039D02*
X340591Y180039D01*
X339591Y179539D02*
X340591Y180039D01*
X338591D02*
X339591Y179539D01*
X338591Y180039D02*
X339090Y179039D01*
X338591Y178039D02*
X339090Y179039D01*
X348590Y168039D02*
X349590Y168539D01*
X350590Y168039D01*
X350091Y169039D02*
X350590Y168039D01*
X350091Y169039D02*
X350590Y170039D01*
X349590Y169539D02*
X350590Y170039D01*
X348590D02*
X349590Y169539D01*
X348590Y170039D02*
X349091Y169039D01*
X348590Y168039D02*
X349091Y169039D01*
X338591Y168039D02*
X339591Y168539D01*
X340591Y168039D01*
X340090Y169039D02*
X340591Y168039D01*
X340090Y169039D02*
X340591Y170039D01*
X339591Y169539D02*
X340591Y170039D01*
X338591D02*
X339591Y169539D01*
X338591Y170039D02*
X339090Y169039D01*
X338591Y168039D02*
X339090Y169039D01*
X348590Y158039D02*
X349590Y158539D01*
X350590Y158039D01*
X350091Y159039D02*
X350590Y158039D01*
X350091Y159039D02*
X350590Y160039D01*
X349590Y159539D02*
X350590Y160039D01*
X348590D02*
X349590Y159539D01*
X348590Y160039D02*
X349091Y159039D01*
X348590Y158039D02*
X349091Y159039D01*
X338591Y158039D02*
X339591Y158539D01*
X340591Y158039D01*
X340090Y159039D02*
X340591Y158039D01*
X340090Y159039D02*
X340591Y160039D01*
X339591Y159539D02*
X340591Y160039D01*
X338591D02*
X339591Y159539D01*
X338591Y160039D02*
X339090Y159039D01*
X338591Y158039D02*
X339090Y159039D01*
X348590Y148039D02*
X349590Y148539D01*
X350590Y148039D01*
X350091Y149039D02*
X350590Y148039D01*
X350091Y149039D02*
X350590Y150039D01*
X349590Y149539D02*
X350590Y150039D01*
X348590D02*
X349590Y149539D01*
X348590Y150039D02*
X349091Y149039D01*
X348590Y148039D02*
X349091Y149039D01*
X338591Y148039D02*
X339591Y148539D01*
X340591Y148039D01*
X340090Y149039D02*
X340591Y148039D01*
X340090Y149039D02*
X340591Y150039D01*
X339591Y149539D02*
X340591Y150039D01*
X338591D02*
X339591Y149539D01*
X338591Y150039D02*
X339090Y149039D01*
X338591Y148039D02*
X339090Y149039D01*
X348590Y138039D02*
X349590Y138539D01*
X350590Y138039D01*
X350091Y139039D02*
X350590Y138039D01*
X350091Y139039D02*
X350590Y140039D01*
X349590Y139539D02*
X350590Y140039D01*
X348590D02*
X349590Y139539D01*
X348590Y140039D02*
X349091Y139039D01*
X348590Y138039D02*
X349091Y139039D01*
X338591Y138039D02*
X339591Y138539D01*
X340591Y138039D01*
X340090Y139039D02*
X340591Y138039D01*
X340090Y139039D02*
X340591Y140039D01*
X339591Y139539D02*
X340591Y140039D01*
X338591D02*
X339591Y139539D01*
X338591Y140039D02*
X339090Y139039D01*
X338591Y138039D02*
X339090Y139039D01*
X348590Y128039D02*
X349590Y128539D01*
X350590Y128039D01*
X350091Y129039D02*
X350590Y128039D01*
X350091Y129039D02*
X350590Y130039D01*
X349590Y129539D02*
X350590Y130039D01*
X348590D02*
X349590Y129539D01*
X348590Y130039D02*
X349091Y129039D01*
X348590Y128039D02*
X349091Y129039D01*
X338591Y128039D02*
X339591Y128539D01*
X340591Y128039D01*
X340090Y129039D02*
X340591Y128039D01*
X340090Y129039D02*
X340591Y130039D01*
X339591Y129539D02*
X340591Y130039D01*
X338591D02*
X339591Y129539D01*
X338591Y130039D02*
X339090Y129039D01*
X338591Y128039D02*
X339090Y129039D01*
X348590Y118039D02*
X349590Y118539D01*
X350590Y118039D01*
X350091Y119039D02*
X350590Y118039D01*
X350091Y119039D02*
X350590Y120039D01*
X349590Y119539D02*
X350590Y120039D01*
X348590D02*
X349590Y119539D01*
X348590Y120039D02*
X349091Y119039D01*
X348590Y118039D02*
X349091Y119039D01*
X338591Y118039D02*
X339591Y118539D01*
X340591Y118039D01*
X340090Y119039D02*
X340591Y118039D01*
X340090Y119039D02*
X340591Y120039D01*
X339591Y119539D02*
X340591Y120039D01*
X338591D02*
X339591Y119539D01*
X338591Y120039D02*
X339090Y119039D01*
X338591Y118039D02*
X339090Y119039D01*
X348590Y108039D02*
X349590Y108539D01*
X350590Y108039D01*
X350091Y109039D02*
X350590Y108039D01*
X350091Y109039D02*
X350590Y110039D01*
X349590Y109539D02*
X350590Y110039D01*
X348590D02*
X349590Y109539D01*
X348590Y110039D02*
X349091Y109039D01*
X348590Y108039D02*
X349091Y109039D01*
X338591Y108039D02*
X339591Y108539D01*
X340591Y108039D01*
X340090Y109039D02*
X340591Y108039D01*
X340090Y109039D02*
X340591Y110039D01*
X339591Y109539D02*
X340591Y110039D01*
X338591D02*
X339591Y109539D01*
X338591Y110039D02*
X339090Y109039D01*
X338591Y108039D02*
X339090Y109039D01*
X348590Y98039D02*
X349590Y98539D01*
X350590Y98039D01*
X350091Y99039D02*
X350590Y98039D01*
X350091Y99039D02*
X350590Y100039D01*
X349590Y99539D02*
X350590Y100039D01*
X348590D02*
X349590Y99539D01*
X348590Y100039D02*
X349091Y99039D01*
X348590Y98039D02*
X349091Y99039D01*
X338591Y98039D02*
X339591Y98539D01*
X340591Y98039D01*
X340090Y99039D02*
X340591Y98039D01*
X340090Y99039D02*
X340591Y100039D01*
X339591Y99539D02*
X340591Y100039D01*
X338591D02*
X339591Y99539D01*
X338591Y100039D02*
X339090Y99039D01*
X338591Y98039D02*
X339090Y99039D01*
X348590Y88039D02*
X349590Y88539D01*
X350590Y88039D01*
X350091Y89039D02*
X350590Y88039D01*
X350091Y89039D02*
X350590Y90039D01*
X349590Y89539D02*
X350590Y90039D01*
X348590D02*
X349590Y89539D01*
X348590Y90039D02*
X349091Y89039D01*
X348590Y88039D02*
X349091Y89039D01*
X338591Y88039D02*
X339591Y88539D01*
X340591Y88039D01*
X340090Y89039D02*
X340591Y88039D01*
X340090Y89039D02*
X340591Y90039D01*
X339591Y89539D02*
X340591Y90039D01*
X338591D02*
X339591Y89539D01*
X338591Y90039D02*
X339090Y89039D01*
X338591Y88039D02*
X339090Y89039D01*
X348590Y78039D02*
X349590Y78539D01*
X350590Y78039D01*
X350091Y79039D02*
X350590Y78039D01*
X350091Y79039D02*
X350590Y80039D01*
X349590Y79539D02*
X350590Y80039D01*
X348590D02*
X349590Y79539D01*
X348590Y80039D02*
X349091Y79039D01*
X348590Y78039D02*
X349091Y79039D01*
X338591Y78039D02*
X339591Y78539D01*
X340591Y78039D01*
X340090Y79039D02*
X340591Y78039D01*
X340090Y79039D02*
X340591Y80039D01*
X339591Y79539D02*
X340591Y80039D01*
X338591D02*
X339591Y79539D01*
X338591Y80039D02*
X339090Y79039D01*
X338591Y78039D02*
X339090Y79039D01*
X348590Y68039D02*
X349590Y68539D01*
X350590Y68039D01*
X350091Y69039D02*
X350590Y68039D01*
X350091Y69039D02*
X350590Y70039D01*
X349590Y69539D02*
X350590Y70039D01*
X348590D02*
X349590Y69539D01*
X348590Y70039D02*
X349091Y69039D01*
X348590Y68039D02*
X349091Y69039D01*
X338591Y68039D02*
X339591Y68539D01*
X340591Y68039D01*
X340090Y69039D02*
X340591Y68039D01*
X340090Y69039D02*
X340591Y70039D01*
X339591Y69539D02*
X340591Y70039D01*
X338591D02*
X339591Y69539D01*
X338591Y70039D02*
X339090Y69039D01*
X338591Y68039D02*
X339090Y69039D01*
X348590Y58039D02*
X349590Y58539D01*
X350590Y58039D01*
X350091Y59039D02*
X350590Y58039D01*
X350091Y59039D02*
X350590Y60039D01*
X349590Y59539D02*
X350590Y60039D01*
X348590D02*
X349590Y59539D01*
X348590Y60039D02*
X349091Y59039D01*
X348590Y58039D02*
X349091Y59039D01*
X338591Y58039D02*
X339591Y58539D01*
X340591Y58039D01*
X340090Y59039D02*
X340591Y58039D01*
X340090Y59039D02*
X340591Y60039D01*
X339591Y59539D02*
X340591Y60039D01*
X338591D02*
X339591Y59539D01*
X338591Y60039D02*
X339090Y59039D01*
X338591Y58039D02*
X339090Y59039D01*
X348590Y48039D02*
X349590Y48539D01*
X350590Y48039D01*
X350091Y49039D02*
X350590Y48039D01*
X350091Y49039D02*
X350590Y50039D01*
X349590Y49539D02*
X350590Y50039D01*
X348590D02*
X349590Y49539D01*
X348590Y50039D02*
X349091Y49039D01*
X348590Y48039D02*
X349091Y49039D01*
X338591Y48039D02*
X339591Y48539D01*
X340591Y48039D01*
X340090Y49039D02*
X340591Y48039D01*
X340090Y49039D02*
X340591Y50039D01*
X339591Y49539D02*
X340591Y50039D01*
X338591D02*
X339591Y49539D01*
X338591Y50039D02*
X339090Y49039D01*
X338591Y48039D02*
X339090Y49039D01*
X328590Y298039D02*
X329591Y298539D01*
X330591Y298039D01*
X330090Y299039D02*
X330591Y298039D01*
X330090Y299039D02*
X330591Y300039D01*
X329591Y299539D02*
X330591Y300039D01*
X328590D02*
X329591Y299539D01*
X328590Y300039D02*
X329090Y299039D01*
X328590Y298039D02*
X329090Y299039D01*
X318590Y298039D02*
X319590Y298539D01*
X320590Y298039D01*
X320091Y299039D02*
X320590Y298039D01*
X320091Y299039D02*
X320590Y300039D01*
X319590Y299539D02*
X320590Y300039D01*
X318590D02*
X319590Y299539D01*
X318590Y300039D02*
X319091Y299039D01*
X318590Y298039D02*
X319091Y299039D01*
X328590Y288039D02*
X329591Y288539D01*
X330591Y288039D01*
X330090Y289039D02*
X330591Y288039D01*
X330090Y289039D02*
X330591Y290039D01*
X329591Y289539D02*
X330591Y290039D01*
X328590D02*
X329591Y289539D01*
X328590Y290039D02*
X329090Y289039D01*
X328590Y288039D02*
X329090Y289039D01*
X318590Y288039D02*
X319590Y288539D01*
X320590Y288039D01*
X320091Y289039D02*
X320590Y288039D01*
X320091Y289039D02*
X320590Y290039D01*
X319590Y289539D02*
X320590Y290039D01*
X318590D02*
X319590Y289539D01*
X318590Y290039D02*
X319091Y289039D01*
X318590Y288039D02*
X319091Y289039D01*
X328590Y278039D02*
X329591Y278539D01*
X330591Y278039D01*
X330090Y279039D02*
X330591Y278039D01*
X330090Y279039D02*
X330591Y280039D01*
X329591Y279539D02*
X330591Y280039D01*
X328590D02*
X329591Y279539D01*
X328590Y280039D02*
X329090Y279039D01*
X328590Y278039D02*
X329090Y279039D01*
X318590Y278039D02*
X319590Y278539D01*
X320590Y278039D01*
X320091Y279039D02*
X320590Y278039D01*
X320091Y279039D02*
X320590Y280039D01*
X319590Y279539D02*
X320590Y280039D01*
X318590D02*
X319590Y279539D01*
X318590Y280039D02*
X319091Y279039D01*
X318590Y278039D02*
X319091Y279039D01*
X328590Y268039D02*
X329591Y268539D01*
X330591Y268039D01*
X330090Y269039D02*
X330591Y268039D01*
X330090Y269039D02*
X330591Y270039D01*
X329591Y269539D02*
X330591Y270039D01*
X328590D02*
X329591Y269539D01*
X328590Y270039D02*
X329090Y269039D01*
X328590Y268039D02*
X329090Y269039D01*
X318590Y268039D02*
X319590Y268539D01*
X320590Y268039D01*
X320091Y269039D02*
X320590Y268039D01*
X320091Y269039D02*
X320590Y270039D01*
X319590Y269539D02*
X320590Y270039D01*
X318590D02*
X319590Y269539D01*
X318590Y270039D02*
X319091Y269039D01*
X318590Y268039D02*
X319091Y269039D01*
X328590Y258039D02*
X329591Y258539D01*
X330591Y258039D01*
X330090Y259039D02*
X330591Y258039D01*
X330090Y259039D02*
X330591Y260039D01*
X329591Y259539D02*
X330591Y260039D01*
X328590D02*
X329591Y259539D01*
X328590Y260039D02*
X329090Y259039D01*
X328590Y258039D02*
X329090Y259039D01*
X318590Y258039D02*
X319590Y258539D01*
X320590Y258039D01*
X320091Y259039D02*
X320590Y258039D01*
X320091Y259039D02*
X320590Y260039D01*
X319590Y259539D02*
X320590Y260039D01*
X318590D02*
X319590Y259539D01*
X318590Y260039D02*
X319091Y259039D01*
X318590Y258039D02*
X319091Y259039D01*
X328590Y248039D02*
X329591Y248539D01*
X330591Y248039D01*
X330090Y249039D02*
X330591Y248039D01*
X330090Y249039D02*
X330591Y250039D01*
X329591Y249539D02*
X330591Y250039D01*
X328590D02*
X329591Y249539D01*
X328590Y250039D02*
X329090Y249039D01*
X328590Y248039D02*
X329090Y249039D01*
X318590Y248039D02*
X319590Y248539D01*
X320590Y248039D01*
X320091Y249039D02*
X320590Y248039D01*
X320091Y249039D02*
X320590Y250039D01*
X319590Y249539D02*
X320590Y250039D01*
X318590D02*
X319590Y249539D01*
X318590Y250039D02*
X319091Y249039D01*
X318590Y248039D02*
X319091Y249039D01*
X328590Y238039D02*
X329591Y238539D01*
X330591Y238039D01*
X330090Y239039D02*
X330591Y238039D01*
X330090Y239039D02*
X330591Y240039D01*
X329591Y239539D02*
X330591Y240039D01*
X328590D02*
X329591Y239539D01*
X328590Y240039D02*
X329090Y239039D01*
X328590Y238039D02*
X329090Y239039D01*
X318590Y238039D02*
X319590Y238539D01*
X320590Y238039D01*
X320091Y239039D02*
X320590Y238039D01*
X320091Y239039D02*
X320590Y240039D01*
X319590Y239539D02*
X320590Y240039D01*
X318590D02*
X319590Y239539D01*
X318590Y240039D02*
X319091Y239039D01*
X318590Y238039D02*
X319091Y239039D01*
X328590Y228039D02*
X329591Y228539D01*
X330591Y228039D01*
X330090Y229039D02*
X330591Y228039D01*
X330090Y229039D02*
X330591Y230039D01*
X329591Y229539D02*
X330591Y230039D01*
X328590D02*
X329591Y229539D01*
X328590Y230039D02*
X329090Y229039D01*
X328590Y228039D02*
X329090Y229039D01*
X318590Y228039D02*
X319590Y228539D01*
X320590Y228039D01*
X320091Y229039D02*
X320590Y228039D01*
X320091Y229039D02*
X320590Y230039D01*
X319590Y229539D02*
X320590Y230039D01*
X318590D02*
X319590Y229539D01*
X318590Y230039D02*
X319091Y229039D01*
X318590Y228039D02*
X319091Y229039D01*
X328590Y218039D02*
X329591Y218539D01*
X330591Y218039D01*
X330090Y219039D02*
X330591Y218039D01*
X330090Y219039D02*
X330591Y220039D01*
X329591Y219539D02*
X330591Y220039D01*
X328590D02*
X329591Y219539D01*
X328590Y220039D02*
X329090Y219039D01*
X328590Y218039D02*
X329090Y219039D01*
X318590Y218039D02*
X319590Y218539D01*
X320590Y218039D01*
X320091Y219039D02*
X320590Y218039D01*
X320091Y219039D02*
X320590Y220039D01*
X319590Y219539D02*
X320590Y220039D01*
X318590D02*
X319590Y219539D01*
X318590Y220039D02*
X319091Y219039D01*
X318590Y218039D02*
X319091Y219039D01*
X328590Y208039D02*
X329591Y208539D01*
X330591Y208039D01*
X330090Y209039D02*
X330591Y208039D01*
X330090Y209039D02*
X330591Y210039D01*
X329591Y209539D02*
X330591Y210039D01*
X328590D02*
X329591Y209539D01*
X328590Y210039D02*
X329090Y209039D01*
X328590Y208039D02*
X329090Y209039D01*
X318590Y208039D02*
X319590Y208539D01*
X320590Y208039D01*
X320091Y209039D02*
X320590Y208039D01*
X320091Y209039D02*
X320590Y210039D01*
X319590Y209539D02*
X320590Y210039D01*
X318590D02*
X319590Y209539D01*
X318590Y210039D02*
X319091Y209039D01*
X318590Y208039D02*
X319091Y209039D01*
X328590Y198039D02*
X329591Y198539D01*
X330591Y198039D01*
X330090Y199039D02*
X330591Y198039D01*
X330090Y199039D02*
X330591Y200039D01*
X329591Y199539D02*
X330591Y200039D01*
X328590D02*
X329591Y199539D01*
X328590Y200039D02*
X329090Y199039D01*
X328590Y198039D02*
X329090Y199039D01*
X318590Y198039D02*
X319590Y198539D01*
X320590Y198039D01*
X320091Y199039D02*
X320590Y198039D01*
X320091Y199039D02*
X320590Y200039D01*
X319590Y199539D02*
X320590Y200039D01*
X318590D02*
X319590Y199539D01*
X318590Y200039D02*
X319091Y199039D01*
X318590Y198039D02*
X319091Y199039D01*
X328590Y188039D02*
X329591Y188539D01*
X330591Y188039D01*
X330090Y189039D02*
X330591Y188039D01*
X330090Y189039D02*
X330591Y190039D01*
X329591Y189539D02*
X330591Y190039D01*
X328590D02*
X329591Y189539D01*
X328590Y190039D02*
X329090Y189039D01*
X328590Y188039D02*
X329090Y189039D01*
X318590Y188039D02*
X319590Y188539D01*
X320590Y188039D01*
X320091Y189039D02*
X320590Y188039D01*
X320091Y189039D02*
X320590Y190039D01*
X319590Y189539D02*
X320590Y190039D01*
X318590D02*
X319590Y189539D01*
X318590Y190039D02*
X319091Y189039D01*
X318590Y188039D02*
X319091Y189039D01*
X328590Y178039D02*
X329591Y178539D01*
X330591Y178039D01*
X330090Y179039D02*
X330591Y178039D01*
X330090Y179039D02*
X330591Y180039D01*
X329591Y179539D02*
X330591Y180039D01*
X328590D02*
X329591Y179539D01*
X328590Y180039D02*
X329090Y179039D01*
X328590Y178039D02*
X329090Y179039D01*
X318590Y178039D02*
X319590Y178539D01*
X320590Y178039D01*
X320091Y179039D02*
X320590Y178039D01*
X320091Y179039D02*
X320590Y180039D01*
X319590Y179539D02*
X320590Y180039D01*
X318590D02*
X319590Y179539D01*
X318590Y180039D02*
X319091Y179039D01*
X318590Y178039D02*
X319091Y179039D01*
X328590Y168039D02*
X329591Y168539D01*
X330591Y168039D01*
X330090Y169039D02*
X330591Y168039D01*
X330090Y169039D02*
X330591Y170039D01*
X329591Y169539D02*
X330591Y170039D01*
X328590D02*
X329591Y169539D01*
X328590Y170039D02*
X329090Y169039D01*
X328590Y168039D02*
X329090Y169039D01*
X318590Y168039D02*
X319590Y168539D01*
X320590Y168039D01*
X320091Y169039D02*
X320590Y168039D01*
X320091Y169039D02*
X320590Y170039D01*
X319590Y169539D02*
X320590Y170039D01*
X318590D02*
X319590Y169539D01*
X318590Y170039D02*
X319091Y169039D01*
X318590Y168039D02*
X319091Y169039D01*
X328590Y158039D02*
X329591Y158539D01*
X330591Y158039D01*
X330090Y159039D02*
X330591Y158039D01*
X330090Y159039D02*
X330591Y160039D01*
X329591Y159539D02*
X330591Y160039D01*
X328590D02*
X329591Y159539D01*
X328590Y160039D02*
X329090Y159039D01*
X328590Y158039D02*
X329090Y159039D01*
X318590Y158039D02*
X319590Y158539D01*
X320590Y158039D01*
X320091Y159039D02*
X320590Y158039D01*
X320091Y159039D02*
X320590Y160039D01*
X319590Y159539D02*
X320590Y160039D01*
X318590D02*
X319590Y159539D01*
X318590Y160039D02*
X319091Y159039D01*
X318590Y158039D02*
X319091Y159039D01*
X328590Y148039D02*
X329591Y148539D01*
X330591Y148039D01*
X330090Y149039D02*
X330591Y148039D01*
X330090Y149039D02*
X330591Y150039D01*
X329591Y149539D02*
X330591Y150039D01*
X328590D02*
X329591Y149539D01*
X328590Y150039D02*
X329090Y149039D01*
X328590Y148039D02*
X329090Y149039D01*
X318590Y148039D02*
X319590Y148539D01*
X320590Y148039D01*
X320091Y149039D02*
X320590Y148039D01*
X320091Y149039D02*
X320590Y150039D01*
X319590Y149539D02*
X320590Y150039D01*
X318590D02*
X319590Y149539D01*
X318590Y150039D02*
X319091Y149039D01*
X318590Y148039D02*
X319091Y149039D01*
X328590Y138039D02*
X329591Y138539D01*
X330591Y138039D01*
X330090Y139039D02*
X330591Y138039D01*
X330090Y139039D02*
X330591Y140039D01*
X329591Y139539D02*
X330591Y140039D01*
X328590D02*
X329591Y139539D01*
X328590Y140039D02*
X329090Y139039D01*
X328590Y138039D02*
X329090Y139039D01*
X318590Y138039D02*
X319590Y138539D01*
X320590Y138039D01*
X320091Y139039D02*
X320590Y138039D01*
X320091Y139039D02*
X320590Y140039D01*
X319590Y139539D02*
X320590Y140039D01*
X318590D02*
X319590Y139539D01*
X318590Y140039D02*
X319091Y139039D01*
X318590Y138039D02*
X319091Y139039D01*
X328590Y128039D02*
X329591Y128539D01*
X330591Y128039D01*
X330090Y129039D02*
X330591Y128039D01*
X330090Y129039D02*
X330591Y130039D01*
X329591Y129539D02*
X330591Y130039D01*
X328590D02*
X329591Y129539D01*
X328590Y130039D02*
X329090Y129039D01*
X328590Y128039D02*
X329090Y129039D01*
X318590Y128039D02*
X319590Y128539D01*
X320590Y128039D01*
X320091Y129039D02*
X320590Y128039D01*
X320091Y129039D02*
X320590Y130039D01*
X319590Y129539D02*
X320590Y130039D01*
X318590D02*
X319590Y129539D01*
X318590Y130039D02*
X319091Y129039D01*
X318590Y128039D02*
X319091Y129039D01*
X328590Y118039D02*
X329591Y118539D01*
X330591Y118039D01*
X330090Y119039D02*
X330591Y118039D01*
X330090Y119039D02*
X330591Y120039D01*
X329591Y119539D02*
X330591Y120039D01*
X328590D02*
X329591Y119539D01*
X328590Y120039D02*
X329090Y119039D01*
X328590Y118039D02*
X329090Y119039D01*
X318590Y118039D02*
X319590Y118539D01*
X320590Y118039D01*
X320091Y119039D02*
X320590Y118039D01*
X320091Y119039D02*
X320590Y120039D01*
X319590Y119539D02*
X320590Y120039D01*
X318590D02*
X319590Y119539D01*
X318590Y120039D02*
X319091Y119039D01*
X318590Y118039D02*
X319091Y119039D01*
X328590Y108039D02*
X329591Y108539D01*
X330591Y108039D01*
X330090Y109039D02*
X330591Y108039D01*
X330090Y109039D02*
X330591Y110039D01*
X329591Y109539D02*
X330591Y110039D01*
X328590D02*
X329591Y109539D01*
X328590Y110039D02*
X329090Y109039D01*
X328590Y108039D02*
X329090Y109039D01*
X318590Y108039D02*
X319590Y108539D01*
X320590Y108039D01*
X320091Y109039D02*
X320590Y108039D01*
X320091Y109039D02*
X320590Y110039D01*
X319590Y109539D02*
X320590Y110039D01*
X318590D02*
X319590Y109539D01*
X318590Y110039D02*
X319091Y109039D01*
X318590Y108039D02*
X319091Y109039D01*
X328590Y98039D02*
X329591Y98539D01*
X330591Y98039D01*
X330090Y99039D02*
X330591Y98039D01*
X330090Y99039D02*
X330591Y100039D01*
X329591Y99539D02*
X330591Y100039D01*
X328590D02*
X329591Y99539D01*
X328590Y100039D02*
X329090Y99039D01*
X328590Y98039D02*
X329090Y99039D01*
X318590Y98039D02*
X319590Y98539D01*
X320590Y98039D01*
X320091Y99039D02*
X320590Y98039D01*
X320091Y99039D02*
X320590Y100039D01*
X319590Y99539D02*
X320590Y100039D01*
X318590D02*
X319590Y99539D01*
X318590Y100039D02*
X319091Y99039D01*
X318590Y98039D02*
X319091Y99039D01*
X328590Y88039D02*
X329591Y88539D01*
X330591Y88039D01*
X330090Y89039D02*
X330591Y88039D01*
X330090Y89039D02*
X330591Y90039D01*
X329591Y89539D02*
X330591Y90039D01*
X328590D02*
X329591Y89539D01*
X328590Y90039D02*
X329090Y89039D01*
X328590Y88039D02*
X329090Y89039D01*
X318590Y88039D02*
X319590Y88539D01*
X320590Y88039D01*
X320091Y89039D02*
X320590Y88039D01*
X320091Y89039D02*
X320590Y90039D01*
X319590Y89539D02*
X320590Y90039D01*
X318590D02*
X319590Y89539D01*
X318590Y90039D02*
X319091Y89039D01*
X318590Y88039D02*
X319091Y89039D01*
X328590Y78039D02*
X329591Y78539D01*
X330591Y78039D01*
X330090Y79039D02*
X330591Y78039D01*
X330090Y79039D02*
X330591Y80039D01*
X329591Y79539D02*
X330591Y80039D01*
X328590D02*
X329591Y79539D01*
X328590Y80039D02*
X329090Y79039D01*
X328590Y78039D02*
X329090Y79039D01*
X318590Y78039D02*
X319590Y78539D01*
X320590Y78039D01*
X320091Y79039D02*
X320590Y78039D01*
X320091Y79039D02*
X320590Y80039D01*
X319590Y79539D02*
X320590Y80039D01*
X318590D02*
X319590Y79539D01*
X318590Y80039D02*
X319091Y79039D01*
X318590Y78039D02*
X319091Y79039D01*
X328590Y68039D02*
X329591Y68539D01*
X330591Y68039D01*
X330090Y69039D02*
X330591Y68039D01*
X330090Y69039D02*
X330591Y70039D01*
X329591Y69539D02*
X330591Y70039D01*
X328590D02*
X329591Y69539D01*
X328590Y70039D02*
X329090Y69039D01*
X328590Y68039D02*
X329090Y69039D01*
X318590Y68039D02*
X319590Y68539D01*
X320590Y68039D01*
X320091Y69039D02*
X320590Y68039D01*
X320091Y69039D02*
X320590Y70039D01*
X319590Y69539D02*
X320590Y70039D01*
X318590D02*
X319590Y69539D01*
X318590Y70039D02*
X319091Y69039D01*
X318590Y68039D02*
X319091Y69039D01*
X328590Y58039D02*
X329591Y58539D01*
X330591Y58039D01*
X330090Y59039D02*
X330591Y58039D01*
X330090Y59039D02*
X330591Y60039D01*
X329591Y59539D02*
X330591Y60039D01*
X328590D02*
X329591Y59539D01*
X328590Y60039D02*
X329090Y59039D01*
X328590Y58039D02*
X329090Y59039D01*
X318590Y58039D02*
X319590Y58539D01*
X320590Y58039D01*
X320091Y59039D02*
X320590Y58039D01*
X320091Y59039D02*
X320590Y60039D01*
X319590Y59539D02*
X320590Y60039D01*
X318590D02*
X319590Y59539D01*
X318590Y60039D02*
X319091Y59039D01*
X318590Y58039D02*
X319091Y59039D01*
X328590Y48039D02*
X329591Y48539D01*
X330591Y48039D01*
X330090Y49039D02*
X330591Y48039D01*
X330090Y49039D02*
X330591Y50039D01*
X329591Y49539D02*
X330591Y50039D01*
X328590D02*
X329591Y49539D01*
X328590Y50039D02*
X329090Y49039D01*
X328590Y48039D02*
X329090Y49039D01*
X318590Y48039D02*
X319590Y48539D01*
X320590Y48039D01*
X320091Y49039D02*
X320590Y48039D01*
X320091Y49039D02*
X320590Y50039D01*
X319590Y49539D02*
X320590Y50039D01*
X318590D02*
X319590Y49539D01*
X318590Y50039D02*
X319091Y49039D01*
X318590Y48039D02*
X319091Y49039D01*
X348606Y29051D02*
X349606Y28051D01*
X350606Y29051D01*
X349606Y30051D02*
X350606Y29051D01*
X348606D02*
X349606Y30051D01*
X348571Y319126D02*
X349571Y318126D01*
X350571Y319126D01*
X349571Y320126D02*
X350571Y319126D01*
X348571D02*
X349571Y320126D01*
X11303Y334268D02*
X12303Y333268D01*
X13303Y334268D01*
X12303Y335268D02*
X13303Y334268D01*
X11303D02*
X12303Y335268D01*
X11303Y19209D02*
X12303Y18209D01*
X13303Y19209D01*
X12303Y20209D02*
X13303Y19209D01*
X11303D02*
X12303Y20209D01*
X257841Y258374D02*
X258841Y257374D01*
X259841Y258374D01*
X258841Y259374D02*
X259841Y258374D01*
X257841D02*
X258841Y259374D01*
X257841Y177980D02*
X258841Y176980D01*
X259841Y177980D01*
X258841Y178980D02*
X259841Y177980D01*
X257841D02*
X258841Y178980D01*
X257841Y91193D02*
X258841Y90193D01*
X259841Y91193D01*
X258841Y92193D02*
X259841Y91193D01*
X257841D02*
X258841Y92193D01*
X79063Y258799D02*
X80063Y257799D01*
X81063Y258799D01*
X80063Y259799D02*
X81063Y258799D01*
X79063D02*
X80063Y259799D01*
X79063Y177980D02*
X80063Y176980D01*
X81063Y177980D01*
X80063Y178980D02*
X81063Y177980D01*
X79063D02*
X80063Y178980D01*
X79063Y91181D02*
X80063Y90181D01*
X81063Y91181D01*
X80063Y92181D02*
X81063Y91181D01*
X79063D02*
X80063Y92181D01*
X173492Y177980D02*
X174492Y176980D01*
X175492Y177980D01*
X174492Y178980D02*
X175492Y177980D01*
X173492D02*
X174492Y178980D01*
X18370Y96835D02*
X19370Y97335D01*
X20370Y96835D01*
X19870Y97835D02*
X20370Y96835D01*
X19870Y97835D02*
X20370Y98835D01*
X19370Y98335D02*
X20370Y98835D01*
X18370D02*
X19370Y98335D01*
X18370Y98835D02*
X18870Y97835D01*
X18370Y96835D02*
X18870Y97835D01*
X8370Y96835D02*
X9370Y97335D01*
X10370Y96835D01*
X9870Y97835D02*
X10370Y96835D01*
X9870Y97835D02*
X10370Y98835D01*
X9370Y98335D02*
X10370Y98835D01*
X8370D02*
X9370Y98335D01*
X8370Y98835D02*
X8870Y97835D01*
X8370Y96835D02*
X8870Y97835D01*
X18370Y106835D02*
X19370Y107335D01*
X20370Y106835D01*
X19870Y107835D02*
X20370Y106835D01*
X19870Y107835D02*
X20370Y108835D01*
X19370Y108335D02*
X20370Y108835D01*
X18370D02*
X19370Y108335D01*
X18370Y108835D02*
X18870Y107835D01*
X18370Y106835D02*
X18870Y107835D01*
X8370Y106835D02*
X9370Y107335D01*
X10370Y106835D01*
X9870Y107835D02*
X10370Y106835D01*
X9870Y107835D02*
X10370Y108835D01*
X9370Y108335D02*
X10370Y108835D01*
X8370D02*
X9370Y108335D01*
X8370Y108835D02*
X8870Y107835D01*
X8370Y106835D02*
X8870Y107835D01*
X18370Y116835D02*
X19370Y117335D01*
X20370Y116835D01*
X19870Y117835D02*
X20370Y116835D01*
X19870Y117835D02*
X20370Y118835D01*
X19370Y118335D02*
X20370Y118835D01*
X18370D02*
X19370Y118335D01*
X18370Y118835D02*
X18870Y117835D01*
X18370Y116835D02*
X18870Y117835D01*
X8370Y116835D02*
X9370Y117335D01*
X10370Y116835D01*
X9870Y117835D02*
X10370Y116835D01*
X9870Y117835D02*
X10370Y118835D01*
X9370Y118335D02*
X10370Y118835D01*
X8370D02*
X9370Y118335D01*
X8370Y118835D02*
X8870Y117835D01*
X8370Y116835D02*
X8870Y117835D01*
X18370Y126835D02*
X19370Y127335D01*
X20370Y126835D01*
X19870Y127835D02*
X20370Y126835D01*
X19870Y127835D02*
X20370Y128835D01*
X19370Y128335D02*
X20370Y128835D01*
X18370D02*
X19370Y128335D01*
X18370Y128835D02*
X18870Y127835D01*
X18370Y126835D02*
X18870Y127835D01*
X8370Y126835D02*
X9370Y127335D01*
X10370Y126835D01*
X9870Y127835D02*
X10370Y126835D01*
X9870Y127835D02*
X10370Y128835D01*
X9370Y128335D02*
X10370Y128835D01*
X8370D02*
X9370Y128335D01*
X8370Y128835D02*
X8870Y127835D01*
X8370Y126835D02*
X8870Y127835D01*
X18370Y136835D02*
X19370Y137335D01*
X20370Y136835D01*
X19870Y137835D02*
X20370Y136835D01*
X19870Y137835D02*
X20370Y138835D01*
X19370Y138335D02*
X20370Y138835D01*
X18370D02*
X19370Y138335D01*
X18370Y138835D02*
X18870Y137835D01*
X18370Y136835D02*
X18870Y137835D01*
X8370Y136835D02*
X9370Y137335D01*
X10370Y136835D01*
X9870Y137835D02*
X10370Y136835D01*
X9870Y137835D02*
X10370Y138835D01*
X9370Y138335D02*
X10370Y138835D01*
X8370D02*
X9370Y138335D01*
X8370Y138835D02*
X8870Y137835D01*
X8370Y136835D02*
X8870Y137835D01*
D40*
X870741Y228182D02*
Y224355D01*
X872655Y222441D01*
X874569Y224355D01*
Y228182D01*
X876483Y222441D02*
X878397D01*
X877440D01*
Y226269D01*
X876483D01*
X882224D02*
X884138D01*
X885095Y225312D01*
Y222441D01*
X882224D01*
X881267Y223398D01*
X882224Y224355D01*
X885095D01*
X887009Y222441D02*
X890837Y226269D01*
X892750Y222441D02*
Y228182D01*
X895621D01*
X896578Y227225D01*
Y225312D01*
X895621Y224355D01*
X892750D01*
X899449Y226269D02*
X901363D01*
X902320Y225312D01*
Y222441D01*
X899449D01*
X898492Y223398D01*
X899449Y224355D01*
X902320D01*
X908061Y228182D02*
Y222441D01*
X905190D01*
X904233Y223398D01*
Y225312D01*
X905190Y226269D01*
X908061D01*
X750720Y228182D02*
Y222441D01*
X753590D01*
X754547Y223398D01*
Y227225D01*
X753590Y228182D01*
X750720D01*
X756461Y226269D02*
Y222441D01*
Y224355D01*
X757418Y225312D01*
X758375Y226269D01*
X759332D01*
X762203Y222441D02*
X764116D01*
X763160D01*
Y226269D01*
X762203D01*
X766987Y222441D02*
X768901D01*
X767944D01*
Y228182D01*
X766987D01*
X771772Y222441D02*
X773686D01*
X772729D01*
Y228182D01*
X771772D01*
X782298D02*
Y222441D01*
X786125D01*
X788996Y226269D02*
X790910D01*
X791867Y225312D01*
Y222441D01*
X788996D01*
X788039Y223398D01*
X788996Y224355D01*
X791867D01*
X793781Y226269D02*
Y223398D01*
X794738Y222441D01*
X797608D01*
Y221484D01*
X796652Y220527D01*
X795694D01*
X797608Y222441D02*
Y226269D01*
X802393Y222441D02*
X800479D01*
X799522Y223398D01*
Y225312D01*
X800479Y226269D01*
X802393D01*
X803350Y225312D01*
Y224355D01*
X799522D01*
X805264Y226269D02*
Y222441D01*
Y224355D01*
X806221Y225312D01*
X807178Y226269D01*
X808134D01*
X816747Y222441D02*
Y228182D01*
X819617D01*
X820574Y227225D01*
Y225312D01*
X819617Y224355D01*
X816747D01*
X823445Y226269D02*
X825359D01*
X826316Y225312D01*
Y222441D01*
X823445D01*
X822488Y223398D01*
X823445Y224355D01*
X826316D01*
X828230Y222441D02*
X830143D01*
X829187D01*
Y226269D01*
X828230D01*
X833014D02*
Y222441D01*
Y224355D01*
X833971Y225312D01*
X834928Y226269D01*
X835885D01*
X691538Y228182D02*
Y222441D01*
Y225312D01*
X695365D01*
Y228182D01*
Y222441D01*
X698236D02*
X700150D01*
X701107Y223398D01*
Y225312D01*
X700150Y226269D01*
X698236D01*
X697279Y225312D01*
Y223398D01*
X698236Y222441D01*
X703021D02*
X704935D01*
X703978D01*
Y228182D01*
X703021D01*
X710676Y222441D02*
X708762D01*
X707805Y223398D01*
Y225312D01*
X708762Y226269D01*
X710676D01*
X711633Y225312D01*
Y224355D01*
X707805D01*
X719288Y228182D02*
X723116D01*
X721202D01*
Y222441D01*
X725030Y226269D02*
Y223398D01*
X725987Y222441D01*
X728858D01*
Y221484D01*
X727901Y220527D01*
X726944D01*
X728858Y222441D02*
Y226269D01*
X730771Y220527D02*
Y226269D01*
X733642D01*
X734599Y225312D01*
Y223398D01*
X733642Y222441D01*
X730771D01*
X739384D02*
X737470D01*
X736513Y223398D01*
Y225312D01*
X737470Y226269D01*
X739384D01*
X740340Y225312D01*
Y224355D01*
X736513D01*
X650537Y222441D02*
Y228182D01*
X653408D01*
X654365Y227225D01*
Y225312D01*
X653408Y224355D01*
X650537D01*
X656279Y222441D02*
X658193D01*
X657236D01*
Y228182D01*
X656279D01*
X662020Y226269D02*
X663934D01*
X664891Y225312D01*
Y222441D01*
X662020D01*
X661063Y223398D01*
X662020Y224355D01*
X664891D01*
X667762Y227225D02*
Y226269D01*
X666805D01*
X668719D01*
X667762D01*
Y223398D01*
X668719Y222441D01*
X674460D02*
X672546D01*
X671590Y223398D01*
Y225312D01*
X672546Y226269D01*
X674460D01*
X675417Y225312D01*
Y224355D01*
X671590D01*
X681159Y228182D02*
Y222441D01*
X678288D01*
X677331Y223398D01*
Y225312D01*
X678288Y226269D01*
X681159D01*
X556831Y228182D02*
Y222441D01*
Y225312D01*
X560659D01*
Y228182D01*
Y222441D01*
X563529D02*
X565443D01*
X566400Y223398D01*
Y225312D01*
X565443Y226269D01*
X563529D01*
X562572Y225312D01*
Y223398D01*
X563529Y222441D01*
X568314D02*
X570228D01*
X569271D01*
Y228182D01*
X568314D01*
X575969Y222441D02*
X574055D01*
X573098Y223398D01*
Y225312D01*
X574055Y226269D01*
X575969D01*
X576926Y225312D01*
Y224355D01*
X573098D01*
X588409Y227225D02*
X587452Y228182D01*
X585538D01*
X584581Y227225D01*
Y226269D01*
X585538Y225312D01*
X587452D01*
X588409Y224355D01*
Y223398D01*
X587452Y222441D01*
X585538D01*
X584581Y223398D01*
X590323Y222441D02*
X592237D01*
X591280D01*
Y226269D01*
X590323D01*
X595107D02*
X598935D01*
X595107Y222441D01*
X598935D01*
X603720D02*
X601806D01*
X600849Y223398D01*
Y225312D01*
X601806Y226269D01*
X603720D01*
X604676Y225312D01*
Y224355D01*
X600849D01*
X513203Y227225D02*
X512246Y228182D01*
X510332D01*
X509375Y227225D01*
Y223398D01*
X510332Y222441D01*
X512246D01*
X513203Y223398D01*
X516074Y222441D02*
X517987D01*
X518944Y223398D01*
Y225312D01*
X517987Y226269D01*
X516074D01*
X515117Y225312D01*
Y223398D01*
X516074Y222441D01*
X520858Y226269D02*
Y223398D01*
X521815Y222441D01*
X524686D01*
Y226269D01*
X526600Y222441D02*
Y226269D01*
X529470D01*
X530427Y225312D01*
Y222441D01*
X533298Y227225D02*
Y226269D01*
X532341D01*
X534255D01*
X533298D01*
Y223398D01*
X534255Y222441D01*
X472202Y227225D02*
X471245Y228182D01*
X469332D01*
X468375Y227225D01*
Y226269D01*
X469332Y225312D01*
X471245D01*
X472202Y224355D01*
Y223398D01*
X471245Y222441D01*
X469332D01*
X468375Y223398D01*
X474116Y226269D02*
Y223398D01*
X475073Y222441D01*
X477944D01*
Y221484D01*
X476987Y220527D01*
X476030D01*
X477944Y222441D02*
Y226269D01*
X479858Y222441D02*
Y226269D01*
X480815D01*
X481772Y225312D01*
Y222441D01*
Y225312D01*
X482728Y226269D01*
X483685Y225312D01*
Y222441D01*
X485599Y228182D02*
Y222441D01*
X488470D01*
X489427Y223398D01*
Y224355D01*
Y225312D01*
X488470Y226269D01*
X485599D01*
X492298Y222441D02*
X494211D01*
X495168Y223398D01*
Y225312D01*
X494211Y226269D01*
X492298D01*
X491341Y225312D01*
Y223398D01*
X492298Y222441D01*
X497082D02*
X498996D01*
X498039D01*
Y228182D01*
X497082D01*
M02*
