G04*
G04 #@! TF.GenerationSoftware,Altium Limited,Altium Designer,18.1.7 (191)*
G04*
G04 Layer_Physical_Order=1*
G04 Layer_Color=255*
%FSLAX25Y25*%
%MOIN*%
G70*
G01*
G75*
%ADD11C,0.01000*%
%ADD13C,0.00787*%
%ADD17R,0.08268X0.11811*%
%ADD18R,0.03150X0.05118*%
%ADD26C,0.10827*%
%ADD27C,0.03000*%
%ADD28C,0.06102*%
%ADD29R,0.06102X0.06102*%
%ADD30C,0.23622*%
%ADD31C,0.02362*%
G36*
X15564Y347517D02*
X33945D01*
Y335402D01*
X44213D01*
Y347517D01*
X86358D01*
Y335748D01*
X86394Y335713D01*
X86283Y335118D01*
X86142Y335039D01*
X72249D01*
X72213Y335315D01*
X71860Y336167D01*
X71299Y336898D01*
X69067Y339130D01*
X68336Y339691D01*
X67484Y340044D01*
X66571Y340164D01*
X56209D01*
X56209Y340164D01*
X55295Y340044D01*
X54444Y339691D01*
X53712Y339130D01*
X51543Y336961D01*
X50982Y336230D01*
X50629Y335378D01*
X50585Y335039D01*
X46543D01*
Y327921D01*
X50509D01*
Y326555D01*
X50629Y325641D01*
X50982Y324790D01*
X51543Y324059D01*
X56378Y319224D01*
X57109Y318663D01*
X57960Y318311D01*
X58874Y318190D01*
X78260D01*
X78335Y317690D01*
X78125Y317627D01*
X76924Y316985D01*
X75871Y316121D01*
X75007Y315068D01*
X74365Y313867D01*
X73970Y312564D01*
X73960Y312459D01*
X87607D01*
X87597Y312564D01*
X87201Y313867D01*
X86559Y315068D01*
X85696Y316121D01*
X84643Y316985D01*
X83442Y317627D01*
X83232Y317690D01*
X83306Y318190D01*
X94085D01*
X100484Y311792D01*
Y260853D01*
X100475Y260842D01*
X100067Y259857D01*
X99928Y258799D01*
X100067Y257742D01*
X100475Y256756D01*
X100484Y256745D01*
Y249555D01*
X92984Y249555D01*
X92906Y259864D01*
X92823Y259947D01*
X92755Y260809D01*
X92284Y262770D01*
X91513Y264633D01*
X90459Y266353D01*
X89149Y267886D01*
X87616Y269196D01*
X85897Y270249D01*
X84034Y271021D01*
X82073Y271492D01*
X81168Y271563D01*
X81034Y271697D01*
X2541Y271697D01*
X2541Y325249D01*
X3010Y325422D01*
X3216Y325181D01*
X4750Y323871D01*
X6469Y322818D01*
X8332Y322046D01*
X10293Y321575D01*
X12303Y321417D01*
X14313Y321575D01*
X16274Y322046D01*
X18137Y322818D01*
X19857Y323871D01*
X21390Y325181D01*
X22700Y326714D01*
X23753Y328434D01*
X24525Y330297D01*
X24996Y332257D01*
X25154Y334268D01*
X24996Y336278D01*
X24525Y338239D01*
X23753Y340102D01*
X22700Y341821D01*
X21390Y343355D01*
X19857Y344664D01*
X18137Y345718D01*
X16274Y346489D01*
X14313Y346960D01*
X14103Y346977D01*
Y347478D01*
X15288Y347572D01*
X15564Y347517D01*
D02*
G37*
G36*
X244296Y263259D02*
X244241Y263186D01*
X244192Y263107D01*
X244149Y263022D01*
X244113Y262932D01*
X244084Y262835D01*
X244061Y262733D01*
X244045Y262625D01*
X244035Y262511D01*
X244032Y262391D01*
X243032D01*
X243028Y262511D01*
X243018Y262625D01*
X243002Y262733D01*
X242979Y262835D01*
X242950Y262932D01*
X242914Y263022D01*
X242871Y263107D01*
X242822Y263186D01*
X242767Y263259D01*
X242705Y263326D01*
X244358D01*
X244296Y263259D01*
D02*
G37*
G36*
X236229Y262961D02*
X236280Y262371D01*
X236324Y262108D01*
X236381Y261867D01*
X236451Y261647D01*
X236534Y261448D01*
X236629Y261270D01*
X236737Y261114D01*
X236858Y260978D01*
X232587D01*
X232707Y261114D01*
X232816Y261270D01*
X232911Y261448D01*
X232994Y261647D01*
X233064Y261867D01*
X233121Y262108D01*
X233165Y262371D01*
X233197Y262655D01*
X233222Y263287D01*
X236222D01*
X236229Y262961D01*
D02*
G37*
G36*
X315504Y347420D02*
X317141Y347027D01*
X318695Y346384D01*
X320130Y345504D01*
X321410Y344411D01*
X322503Y343132D01*
X323382Y341697D01*
X323778Y340741D01*
X323924Y340369D01*
X323931Y340335D01*
X323947Y340311D01*
X323947Y340311D01*
X324018Y340206D01*
X324924Y338366D01*
X326244Y336391D01*
X327811Y334605D01*
X329597Y333039D01*
X331572Y331719D01*
X333703Y330668D01*
X335952Y329905D01*
X338282Y329441D01*
X340274Y329310D01*
X340653Y329286D01*
X340760Y329279D01*
X340869Y329199D01*
X340913Y328579D01*
X340484Y328213D01*
X339175Y326679D01*
X338121Y324960D01*
X337349Y323097D01*
X336878Y321136D01*
X336720Y319126D01*
X336878Y317116D01*
X337349Y315155D01*
X338121Y313292D01*
X339175Y311573D01*
X340484Y310039D01*
X342018Y308730D01*
X343737Y307676D01*
X345600Y306904D01*
X347561Y306434D01*
X349571Y306275D01*
X351581Y306434D01*
X353542Y306904D01*
X355405Y307676D01*
X357124Y308730D01*
X358658Y310039D01*
X358689Y310076D01*
X359158Y309903D01*
X359158Y38309D01*
X358855Y38198D01*
X358658Y38168D01*
X357160Y39448D01*
X355440Y40501D01*
X353577Y41273D01*
X351617Y41744D01*
X349606Y41902D01*
X347596Y41744D01*
X345635Y41273D01*
X343772Y40501D01*
X342053Y39448D01*
X340519Y38138D01*
X339210Y36605D01*
X338156Y34885D01*
X337385Y33022D01*
X336914Y31062D01*
X336756Y29051D01*
X336914Y27041D01*
X337385Y25080D01*
X338156Y23217D01*
X339210Y21498D01*
X340519Y19964D01*
X342053Y18655D01*
X343772Y17601D01*
X344302Y17382D01*
X344204Y16892D01*
X338846D01*
X338771Y16876D01*
X336519Y16699D01*
X334142Y16129D01*
X331884Y15193D01*
X329800Y13916D01*
X327941Y12329D01*
X326461Y10595D01*
X326452Y10590D01*
X326440Y10570D01*
X326354Y10470D01*
X326336Y10441D01*
X321450Y5026D01*
X320339Y4115D01*
X319838Y3847D01*
X319409Y4104D01*
Y16256D01*
X309142D01*
Y2445D01*
X308644Y2440D01*
X267268D01*
X267268Y16141D01*
X267268Y16458D01*
X267701Y16618D01*
X273041D01*
X276016Y13643D01*
X276843Y13090D01*
X277819Y12896D01*
X300933D01*
X301908Y13090D01*
X302735Y13643D01*
X305711Y16618D01*
X306811D01*
Y23736D01*
X300983D01*
X290680Y34039D01*
X289853Y34591D01*
X288878Y34785D01*
X264278D01*
X264134Y34757D01*
X263805Y35201D01*
X264261Y36054D01*
X264656Y37357D01*
X264666Y37463D01*
X257842D01*
X251019D01*
X251029Y37357D01*
X251425Y36054D01*
X252066Y34853D01*
X252930Y33801D01*
X253568Y33277D01*
X253389Y32777D01*
X251731D01*
X247362Y37367D01*
Y84449D01*
X247862Y84590D01*
X248445Y83640D01*
X249754Y82106D01*
X251288Y80796D01*
X253007Y79743D01*
X254870Y78971D01*
X256831Y78500D01*
X258841Y78342D01*
X260851Y78500D01*
X262812Y78971D01*
X264675Y79743D01*
X266394Y80796D01*
X267928Y82106D01*
X269237Y83640D01*
X270291Y85359D01*
X271063Y87222D01*
X271533Y89183D01*
X271692Y91193D01*
X271533Y93203D01*
X271063Y95164D01*
X270291Y97027D01*
X269237Y98746D01*
X267928Y100280D01*
X266394Y101589D01*
X264675Y102643D01*
X262812Y103415D01*
X260851Y103885D01*
X258841Y104043D01*
X256831Y103885D01*
X254870Y103415D01*
X253007Y102643D01*
X251288Y101589D01*
X249754Y100280D01*
X248445Y98746D01*
X247862Y97796D01*
X247362Y97937D01*
Y171236D01*
X247862Y171377D01*
X248445Y170427D01*
X249754Y168894D01*
X251288Y167584D01*
X253007Y166530D01*
X254870Y165759D01*
X256831Y165288D01*
X258841Y165130D01*
X260851Y165288D01*
X262812Y165759D01*
X264675Y166530D01*
X266394Y167584D01*
X267928Y168894D01*
X269237Y170427D01*
X270291Y172146D01*
X271063Y174009D01*
X271533Y175970D01*
X271692Y177980D01*
X271533Y179991D01*
X271063Y181951D01*
X270291Y183814D01*
X269237Y185534D01*
X267928Y187067D01*
X266394Y188377D01*
X264675Y189430D01*
X262812Y190202D01*
X260851Y190673D01*
X258841Y190831D01*
X256831Y190673D01*
X254870Y190202D01*
X253007Y189430D01*
X251288Y188377D01*
X249754Y187067D01*
X248445Y185534D01*
X247862Y184583D01*
X247362Y184724D01*
X247362Y251630D01*
X247862Y251771D01*
X248445Y250821D01*
X249754Y249287D01*
X251288Y247978D01*
X253007Y246924D01*
X254870Y246152D01*
X256831Y245682D01*
X258841Y245523D01*
X260851Y245682D01*
X262812Y246152D01*
X264675Y246924D01*
X266394Y247978D01*
X267928Y249287D01*
X269237Y250821D01*
X270291Y252540D01*
X271063Y254403D01*
X271533Y256364D01*
X271692Y258374D01*
X271533Y260384D01*
X271063Y262345D01*
X270291Y264208D01*
X269237Y265927D01*
X267928Y267461D01*
X266394Y268770D01*
X264675Y269824D01*
X262812Y270596D01*
X260851Y271066D01*
X258841Y271225D01*
X256831Y271066D01*
X254870Y270596D01*
X253007Y269824D01*
X251288Y268770D01*
X249754Y267461D01*
X248445Y265927D01*
X247862Y264977D01*
X247362Y265118D01*
Y265165D01*
X238834Y273694D01*
X238844Y326259D01*
X229394Y335709D01*
X102083D01*
X102083Y347517D01*
X313520D01*
X313615Y347536D01*
X313827Y347552D01*
X315504Y347420D01*
D02*
G37*
G36*
X27776Y268106D02*
Y265719D01*
X27487Y265023D01*
X27378Y264193D01*
X27487Y263363D01*
X27776Y262667D01*
X27776Y205162D01*
X27276Y205063D01*
X26956Y205834D01*
X26307Y206681D01*
X25460Y207330D01*
X24475Y207738D01*
X23417Y207877D01*
X22360Y207738D01*
X21374Y207330D01*
X20528Y206681D01*
X19879Y205834D01*
X19470Y204849D01*
X19331Y203791D01*
X19470Y202734D01*
X19879Y201748D01*
X20528Y200902D01*
X21374Y200253D01*
X22360Y199844D01*
X23417Y199705D01*
X24475Y199844D01*
X25460Y200253D01*
X26307Y200902D01*
X26956Y201748D01*
X27276Y202520D01*
X27776Y202420D01*
X27776Y134197D01*
X22861D01*
X22699Y134697D01*
X23346Y135539D01*
X23778Y136585D01*
X19370D01*
X14962D01*
X15395Y135539D01*
X16041Y134697D01*
X15879Y134197D01*
X12861Y134197D01*
X12699Y134697D01*
X13345Y135539D01*
X13779Y136585D01*
X9370D01*
X4962D01*
X5395Y135539D01*
X6041Y134697D01*
X5879Y134197D01*
X2541D01*
X2541Y268106D01*
X27776Y268106D01*
D02*
G37*
G36*
X70737Y267606D02*
X69666Y266353D01*
X68613Y264633D01*
X67841Y262770D01*
X67370Y260809D01*
X67212Y258799D01*
X67370Y256789D01*
X67841Y254828D01*
X68613Y252965D01*
X69666Y251246D01*
X70976Y249712D01*
X72509Y248403D01*
X74229Y247349D01*
X76091Y246578D01*
X78052Y246107D01*
X80063Y245949D01*
X100484Y245949D01*
Y115717D01*
X35140Y115717D01*
Y249688D01*
X35305Y249757D01*
X35970Y250267D01*
X36479Y250931D01*
X36800Y251705D01*
X36909Y252535D01*
X36800Y253366D01*
X36479Y254140D01*
X35970Y254804D01*
X35305Y255314D01*
X34531Y255635D01*
X34354Y255658D01*
Y268106D01*
X70507Y268106D01*
X70737Y267606D01*
D02*
G37*
G36*
X28038Y82069D02*
X28042Y82047D01*
Y76616D01*
X28038Y76593D01*
Y35370D01*
X28042Y35347D01*
Y31500D01*
X28236Y30525D01*
X28789Y29698D01*
X40112Y18375D01*
X40939Y17822D01*
X41914Y17628D01*
X251773D01*
X252232Y17169D01*
X252232Y2440D01*
X35409D01*
X34997Y2440D01*
X34916Y2424D01*
X34422Y2437D01*
X33430Y2568D01*
X32197Y3079D01*
X31151Y3881D01*
X31029Y4065D01*
X29035Y6058D01*
X28779Y6314D01*
X28754Y6352D01*
X28675Y6405D01*
X28669Y6398D01*
X28574Y6461D01*
X27628Y7270D01*
X26118Y8195D01*
X24483Y8872D01*
X22761Y9285D01*
X21314Y9399D01*
X21151Y9817D01*
X21154Y9920D01*
X21390Y10122D01*
X22700Y11655D01*
X23753Y13375D01*
X24525Y15238D01*
X24996Y17198D01*
X25154Y19209D01*
X24996Y21219D01*
X24525Y23180D01*
X23753Y25043D01*
X22700Y26762D01*
X21390Y28295D01*
X19857Y29605D01*
X18137Y30659D01*
X16274Y31430D01*
X14313Y31901D01*
X12303Y32059D01*
X10293Y31901D01*
X8332Y31430D01*
X6469Y30659D01*
X4750Y29605D01*
X3216Y28295D01*
X3010Y28054D01*
X2541Y28227D01*
X2541Y111610D01*
X6036Y111610D01*
X6197Y111137D01*
X6124Y111081D01*
X5395Y110130D01*
X4962Y109085D01*
X9370D01*
X13779D01*
X13345Y110130D01*
X12616Y111081D01*
X12543Y111137D01*
X12704Y111610D01*
X16037Y111610D01*
X16197Y111137D01*
X16124Y111081D01*
X15395Y110130D01*
X14962Y109085D01*
X19370D01*
X23778D01*
X23346Y110130D01*
X22616Y111081D01*
X22577Y111110D01*
X22747Y111610D01*
X28038D01*
Y82069D01*
D02*
G37*
G36*
X236229Y95342D02*
X236280Y94753D01*
X236324Y94490D01*
X236381Y94249D01*
X236451Y94029D01*
X236534Y93830D01*
X236629Y93652D01*
X236737Y93495D01*
X236858Y93360D01*
X232587D01*
X232707Y93495D01*
X232816Y93652D01*
X232911Y93830D01*
X232994Y94029D01*
X233064Y94249D01*
X233121Y94490D01*
X233165Y94753D01*
X233197Y95037D01*
X233222Y95669D01*
X236222D01*
X236229Y95342D01*
D02*
G37*
G36*
X224832Y320975D02*
Y255033D01*
X224952Y254120D01*
X225305Y253268D01*
X225866Y252537D01*
X230165Y248238D01*
X230165Y83823D01*
X235941Y77854D01*
X235941Y33461D01*
X242214Y27188D01*
X242022Y26726D01*
X44627D01*
X37140Y34213D01*
Y76947D01*
X44758Y84565D01*
X49006D01*
X49305Y84336D01*
X50079Y84015D01*
X50909Y83906D01*
X51740Y84015D01*
X52514Y84336D01*
X53178Y84845D01*
X53688Y85510D01*
X54009Y86284D01*
X54118Y87114D01*
X54009Y87945D01*
X53688Y88718D01*
X53178Y89383D01*
X52514Y89893D01*
X51740Y90213D01*
X50909Y90323D01*
X50079Y90213D01*
X49305Y89893D01*
X49006Y89663D01*
X47681D01*
X47490Y90125D01*
X51488Y94123D01*
X51862Y94172D01*
X52636Y94493D01*
X53300Y95003D01*
X53810Y95667D01*
X54131Y96441D01*
X54240Y97272D01*
X54131Y98102D01*
X53810Y98876D01*
X53300Y99540D01*
X52636Y100050D01*
X51862Y100371D01*
X51032Y100480D01*
X50201Y100371D01*
X49427Y100050D01*
X48763Y99540D01*
X48253Y98876D01*
X47932Y98102D01*
X47883Y97728D01*
X35602Y85447D01*
X35140Y85638D01*
Y111610D01*
X100484Y111610D01*
Y93235D01*
X100475Y93224D01*
X100067Y92239D01*
X99928Y91181D01*
X100067Y90123D01*
X100475Y89138D01*
X101124Y88292D01*
X101971Y87642D01*
X102956Y87234D01*
X104014Y87095D01*
X105071Y87234D01*
X106057Y87642D01*
X106903Y88292D01*
X107553Y89138D01*
X107961Y90123D01*
X108100Y91181D01*
X107961Y92239D01*
X107553Y93224D01*
X107544Y93235D01*
Y256745D01*
X107553Y256756D01*
X107961Y257742D01*
X108100Y258799D01*
X107961Y259857D01*
X107553Y260842D01*
X107544Y260853D01*
Y313254D01*
X107424Y314168D01*
X107071Y315019D01*
X106510Y315750D01*
X100303Y321957D01*
X100495Y322419D01*
X223388D01*
X224832Y320975D01*
D02*
G37*
G36*
X237342Y83460D02*
X237354Y83369D01*
X237375Y83279D01*
X237405Y83189D01*
X237444Y83099D01*
X237491Y83010D01*
X237547Y82922D01*
X237612Y82834D01*
X237686Y82746D01*
X237769Y82659D01*
X237062Y81952D01*
X236975Y82034D01*
X236887Y82108D01*
X236799Y82173D01*
X236710Y82229D01*
X236621Y82277D01*
X236532Y82315D01*
X236442Y82345D01*
X236351Y82366D01*
X236261Y82379D01*
X236169Y82382D01*
X237338Y83551D01*
X237342Y83460D01*
D02*
G37*
G36*
X285456Y17632D02*
X285371Y17602D01*
X285296Y17551D01*
X285231Y17480D01*
X285176Y17389D01*
X285131Y17278D01*
X285096Y17146D01*
X285071Y16994D01*
X285056Y16822D01*
X285051Y16630D01*
X284051D01*
X284046Y16822D01*
X284031Y16994D01*
X284006Y17146D01*
X283971Y17278D01*
X283926Y17389D01*
X283871Y17480D01*
X283806Y17551D01*
X283731Y17602D01*
X283646Y17632D01*
X283551Y17642D01*
X285551D01*
X285456Y17632D01*
D02*
G37*
G36*
X661803Y-140324D02*
X661867Y-140333D01*
X662004Y-140352D01*
X662168Y-140388D01*
X662341Y-140443D01*
X662514Y-140525D01*
X662687Y-140625D01*
X662696D01*
X662705Y-140643D01*
X662760Y-140680D01*
X662842Y-140753D01*
X662942Y-140844D01*
X663052Y-140962D01*
X663161Y-141108D01*
X663270Y-141281D01*
X663361Y-141472D01*
Y-141481D01*
X663370Y-141500D01*
X663379Y-141527D01*
X663398Y-141563D01*
X663416Y-141618D01*
X663434Y-141682D01*
X663480Y-141828D01*
X663525Y-142010D01*
X663562Y-142210D01*
X663589Y-142438D01*
X663598Y-142675D01*
Y-142684D01*
Y-142702D01*
Y-142739D01*
Y-142793D01*
X663589Y-142857D01*
Y-142930D01*
X663571Y-143094D01*
X663534Y-143294D01*
X663489Y-143504D01*
X663425Y-143722D01*
X663343Y-143941D01*
Y-143950D01*
X663334Y-143968D01*
X663316Y-143996D01*
X663298Y-144032D01*
X663234Y-144132D01*
X663152Y-144260D01*
X663052Y-144397D01*
X662924Y-144533D01*
X662778Y-144670D01*
X662605Y-144797D01*
X662596D01*
X662587Y-144807D01*
X662560Y-144825D01*
X662523Y-144843D01*
X662432Y-144888D01*
X662304Y-144943D01*
X662150Y-144998D01*
X661986Y-145043D01*
X661794Y-145080D01*
X661603Y-145089D01*
X661539D01*
X661466Y-145080D01*
X661375Y-145071D01*
X661266Y-145053D01*
X661147Y-145025D01*
X661029Y-144989D01*
X660911Y-144934D01*
X660901Y-144925D01*
X660856Y-144907D01*
X660801Y-144870D01*
X660728Y-144816D01*
X660656Y-144761D01*
X660565Y-144688D01*
X660483Y-144606D01*
X660410Y-144515D01*
Y-146738D01*
X659635D01*
Y-140416D01*
X660337D01*
Y-141017D01*
X660346Y-140999D01*
X660382Y-140962D01*
X660428Y-140898D01*
X660501Y-140825D01*
X660583Y-140734D01*
X660674Y-140652D01*
X660783Y-140570D01*
X660892Y-140498D01*
X660911Y-140488D01*
X660947Y-140470D01*
X661020Y-140443D01*
X661111Y-140406D01*
X661220Y-140370D01*
X661348Y-140343D01*
X661494Y-140324D01*
X661658Y-140315D01*
X661758D01*
X661803Y-140324D01*
D02*
G37*
G36*
X687922D02*
X688022Y-140343D01*
X688140Y-140379D01*
X688268Y-140425D01*
X688414Y-140488D01*
X688569Y-140570D01*
X688286Y-141281D01*
X688277Y-141272D01*
X688241Y-141254D01*
X688186Y-141226D01*
X688113Y-141199D01*
X688031Y-141172D01*
X687931Y-141144D01*
X687831Y-141126D01*
X687731Y-141117D01*
X687685D01*
X687639Y-141126D01*
X687576Y-141135D01*
X687512Y-141153D01*
X687430Y-141181D01*
X687348Y-141217D01*
X687275Y-141272D01*
X687266Y-141281D01*
X687239Y-141299D01*
X687211Y-141336D01*
X687166Y-141381D01*
X687120Y-141445D01*
X687075Y-141518D01*
X687029Y-141600D01*
X686993Y-141700D01*
X686983Y-141718D01*
X686974Y-141773D01*
X686956Y-141855D01*
X686929Y-141964D01*
X686902Y-142101D01*
X686883Y-142256D01*
X686874Y-142420D01*
X686865Y-142602D01*
Y-144989D01*
X686091D01*
Y-140416D01*
X686792D01*
Y-141108D01*
X686801Y-141099D01*
X686838Y-141035D01*
X686883Y-140953D01*
X686956Y-140853D01*
X687029Y-140753D01*
X687111Y-140643D01*
X687193Y-140552D01*
X687275Y-140479D01*
X687284Y-140470D01*
X687311Y-140452D01*
X687366Y-140425D01*
X687421Y-140397D01*
X687494Y-140370D01*
X687585Y-140343D01*
X687676Y-140324D01*
X687776Y-140315D01*
X687840D01*
X687922Y-140324D01*
D02*
G37*
G36*
X678794Y-145062D02*
Y-145071D01*
X678785Y-145098D01*
X678766Y-145134D01*
X678748Y-145180D01*
X678721Y-145244D01*
X678693Y-145317D01*
X678630Y-145472D01*
X678566Y-145645D01*
X678493Y-145818D01*
X678420Y-145973D01*
X678384Y-146036D01*
X678356Y-146100D01*
X678347Y-146118D01*
X678320Y-146164D01*
X678274Y-146228D01*
X678220Y-146310D01*
X678147Y-146401D01*
X678065Y-146492D01*
X677983Y-146583D01*
X677883Y-146656D01*
X677873Y-146665D01*
X677837Y-146683D01*
X677782Y-146711D01*
X677700Y-146747D01*
X677609Y-146783D01*
X677500Y-146811D01*
X677382Y-146829D01*
X677245Y-146838D01*
X677208D01*
X677163Y-146829D01*
X677099D01*
X677026Y-146811D01*
X676944Y-146792D01*
X676853Y-146774D01*
X676753Y-146738D01*
X676671Y-146018D01*
X676680D01*
X676717Y-146027D01*
X676762Y-146036D01*
X676817Y-146055D01*
X676962Y-146082D01*
X677108Y-146091D01*
X677154D01*
X677199Y-146082D01*
X677254D01*
X677391Y-146055D01*
X677454Y-146027D01*
X677518Y-146000D01*
X677527D01*
X677545Y-145982D01*
X677573Y-145964D01*
X677609Y-145936D01*
X677691Y-145863D01*
X677764Y-145763D01*
Y-145754D01*
X677782Y-145736D01*
X677801Y-145699D01*
X677819Y-145645D01*
X677855Y-145572D01*
X677892Y-145463D01*
X677946Y-145335D01*
X678001Y-145180D01*
Y-145171D01*
X678019Y-145134D01*
X678037Y-145071D01*
X678074Y-144989D01*
X676343Y-140416D01*
X677163D01*
X678119Y-143067D01*
Y-143076D01*
X678128Y-143085D01*
X678138Y-143112D01*
X678147Y-143158D01*
X678165Y-143203D01*
X678183Y-143258D01*
X678229Y-143385D01*
X678283Y-143540D01*
X678338Y-143722D01*
X678393Y-143914D01*
X678447Y-144123D01*
Y-144114D01*
X678456Y-144096D01*
X678466Y-144069D01*
X678475Y-144032D01*
X678484Y-143987D01*
X678502Y-143932D01*
X678539Y-143795D01*
X678584Y-143640D01*
X678648Y-143458D01*
X678702Y-143276D01*
X678775Y-143085D01*
X679759Y-140416D01*
X680534D01*
X678794Y-145062D01*
D02*
G37*
G36*
X674020Y-140324D02*
X674157Y-140333D01*
X674311Y-140352D01*
X674466Y-140379D01*
X674621Y-140416D01*
X674767Y-140461D01*
X674785Y-140470D01*
X674831Y-140488D01*
X674895Y-140516D01*
X674976Y-140552D01*
X675068Y-140607D01*
X675159Y-140662D01*
X675241Y-140734D01*
X675314Y-140807D01*
X675323Y-140816D01*
X675341Y-140844D01*
X675368Y-140889D01*
X675405Y-140944D01*
X675450Y-141026D01*
X675487Y-141108D01*
X675523Y-141208D01*
X675550Y-141326D01*
Y-141336D01*
X675560Y-141363D01*
X675569Y-141418D01*
X675578Y-141490D01*
Y-141591D01*
X675587Y-141709D01*
X675596Y-141864D01*
Y-142037D01*
Y-143076D01*
Y-143085D01*
Y-143121D01*
Y-143176D01*
Y-143249D01*
Y-143331D01*
Y-143431D01*
X675605Y-143650D01*
Y-143877D01*
X675614Y-144105D01*
X675623Y-144205D01*
Y-144296D01*
X675632Y-144378D01*
X675641Y-144442D01*
Y-144451D01*
X675651Y-144488D01*
X675660Y-144542D01*
X675687Y-144615D01*
X675705Y-144697D01*
X675742Y-144788D01*
X675787Y-144888D01*
X675833Y-144989D01*
X675022D01*
X675013Y-144980D01*
X675004Y-144943D01*
X674986Y-144898D01*
X674958Y-144825D01*
X674931Y-144743D01*
X674913Y-144643D01*
X674895Y-144533D01*
X674876Y-144415D01*
X674867D01*
X674858Y-144433D01*
X674803Y-144479D01*
X674721Y-144542D01*
X674612Y-144624D01*
X674475Y-144706D01*
X674339Y-144797D01*
X674193Y-144879D01*
X674038Y-144943D01*
X674020Y-144952D01*
X673965Y-144961D01*
X673883Y-144989D01*
X673783Y-145016D01*
X673656Y-145043D01*
X673510Y-145062D01*
X673346Y-145080D01*
X673182Y-145089D01*
X673109D01*
X673054Y-145080D01*
X672991D01*
X672918Y-145071D01*
X672754Y-145043D01*
X672571Y-144998D01*
X672371Y-144934D01*
X672189Y-144843D01*
X672025Y-144725D01*
X672007Y-144706D01*
X671961Y-144661D01*
X671897Y-144579D01*
X671824Y-144469D01*
X671751Y-144333D01*
X671688Y-144178D01*
X671642Y-143987D01*
X671633Y-143895D01*
X671624Y-143786D01*
Y-143768D01*
Y-143732D01*
X671633Y-143668D01*
X671642Y-143586D01*
X671660Y-143486D01*
X671688Y-143385D01*
X671724Y-143276D01*
X671770Y-143176D01*
X671779Y-143167D01*
X671797Y-143130D01*
X671834Y-143076D01*
X671879Y-143012D01*
X671934Y-142939D01*
X672007Y-142866D01*
X672080Y-142793D01*
X672171Y-142729D01*
X672180Y-142720D01*
X672216Y-142702D01*
X672262Y-142666D01*
X672335Y-142629D01*
X672417Y-142593D01*
X672517Y-142547D01*
X672617Y-142511D01*
X672735Y-142474D01*
X672745D01*
X672781Y-142465D01*
X672836Y-142447D01*
X672908Y-142438D01*
X673000Y-142420D01*
X673118Y-142402D01*
X673255Y-142374D01*
X673419Y-142356D01*
X673428D01*
X673464Y-142347D01*
X673510D01*
X673573Y-142338D01*
X673646Y-142329D01*
X673737Y-142310D01*
X673838Y-142301D01*
X673947Y-142283D01*
X674166Y-142237D01*
X674403Y-142192D01*
X674612Y-142137D01*
X674712Y-142110D01*
X674803Y-142083D01*
Y-142074D01*
Y-142055D01*
X674813Y-142001D01*
Y-141937D01*
Y-141901D01*
Y-141882D01*
Y-141873D01*
Y-141864D01*
Y-141809D01*
X674803Y-141718D01*
X674785Y-141618D01*
X674758Y-141509D01*
X674712Y-141399D01*
X674658Y-141299D01*
X674585Y-141217D01*
X674576Y-141208D01*
X674530Y-141172D01*
X674457Y-141135D01*
X674366Y-141080D01*
X674239Y-141035D01*
X674093Y-140989D01*
X673911Y-140962D01*
X673701Y-140953D01*
X673610D01*
X673519Y-140962D01*
X673391Y-140980D01*
X673264Y-140999D01*
X673127Y-141035D01*
X673000Y-141080D01*
X672890Y-141144D01*
X672881Y-141153D01*
X672845Y-141181D01*
X672799Y-141226D01*
X672745Y-141299D01*
X672690Y-141390D01*
X672626Y-141509D01*
X672571Y-141655D01*
X672517Y-141818D01*
X671761Y-141718D01*
Y-141709D01*
X671770Y-141700D01*
Y-141673D01*
X671779Y-141636D01*
X671806Y-141554D01*
X671843Y-141436D01*
X671888Y-141317D01*
X671943Y-141190D01*
X672016Y-141062D01*
X672098Y-140944D01*
X672107Y-140935D01*
X672143Y-140898D01*
X672198Y-140844D01*
X672271Y-140771D01*
X672371Y-140698D01*
X672489Y-140625D01*
X672626Y-140543D01*
X672781Y-140479D01*
X672790D01*
X672799Y-140470D01*
X672826Y-140461D01*
X672863Y-140452D01*
X672954Y-140425D01*
X673082Y-140397D01*
X673227Y-140370D01*
X673410Y-140343D01*
X673601Y-140324D01*
X673819Y-140315D01*
X673920D01*
X674020Y-140324D01*
D02*
G37*
G36*
X667889Y-144242D02*
X670995D01*
Y-144989D01*
X667051D01*
Y-138685D01*
X667889D01*
Y-144242D01*
D02*
G37*
G36*
X653969Y-139432D02*
X651892D01*
Y-144989D01*
X651054D01*
Y-139432D01*
X648977D01*
Y-138685D01*
X653969D01*
Y-139432D01*
D02*
G37*
G36*
X683221Y-140324D02*
X683294Y-140333D01*
X683385Y-140352D01*
X683485Y-140370D01*
X683604Y-140397D01*
X683713Y-140425D01*
X683841Y-140470D01*
X683959Y-140516D01*
X684087Y-140579D01*
X684214Y-140652D01*
X684342Y-140734D01*
X684460Y-140835D01*
X684569Y-140944D01*
X684578Y-140953D01*
X684597Y-140971D01*
X684624Y-141008D01*
X684660Y-141062D01*
X684706Y-141126D01*
X684752Y-141199D01*
X684806Y-141290D01*
X684861Y-141399D01*
X684915Y-141518D01*
X684970Y-141645D01*
X685016Y-141791D01*
X685061Y-141946D01*
X685098Y-142119D01*
X685125Y-142301D01*
X685143Y-142493D01*
X685152Y-142702D01*
Y-142711D01*
Y-142748D01*
Y-142811D01*
X685143Y-142903D01*
X681727D01*
Y-142912D01*
Y-142939D01*
X681736Y-142975D01*
Y-143030D01*
X681745Y-143094D01*
X681763Y-143167D01*
X681791Y-143331D01*
X681845Y-143513D01*
X681918Y-143713D01*
X682019Y-143895D01*
X682146Y-144060D01*
X682155D01*
X682164Y-144078D01*
X682219Y-144123D01*
X682301Y-144187D01*
X682410Y-144251D01*
X682556Y-144324D01*
X682720Y-144387D01*
X682902Y-144433D01*
X683002Y-144442D01*
X683112Y-144451D01*
X683185D01*
X683267Y-144442D01*
X683367Y-144424D01*
X683476Y-144397D01*
X683604Y-144360D01*
X683722Y-144306D01*
X683841Y-144233D01*
X683850Y-144223D01*
X683895Y-144187D01*
X683950Y-144132D01*
X684014Y-144060D01*
X684087Y-143959D01*
X684168Y-143832D01*
X684250Y-143686D01*
X684323Y-143513D01*
X685125Y-143613D01*
Y-143622D01*
X685116Y-143640D01*
X685107Y-143677D01*
X685089Y-143732D01*
X685061Y-143786D01*
X685034Y-143859D01*
X684961Y-144014D01*
X684870Y-144187D01*
X684742Y-144369D01*
X684597Y-144542D01*
X684414Y-144706D01*
X684405D01*
X684387Y-144725D01*
X684360Y-144743D01*
X684323Y-144770D01*
X684269Y-144797D01*
X684214Y-144825D01*
X684141Y-144861D01*
X684059Y-144898D01*
X683968Y-144934D01*
X683877Y-144971D01*
X683649Y-145025D01*
X683394Y-145071D01*
X683112Y-145089D01*
X683011D01*
X682948Y-145080D01*
X682866Y-145071D01*
X682765Y-145053D01*
X682656Y-145034D01*
X682538Y-145016D01*
X682283Y-144943D01*
X682146Y-144888D01*
X682019Y-144834D01*
X681882Y-144761D01*
X681754Y-144679D01*
X681636Y-144588D01*
X681518Y-144479D01*
X681508Y-144469D01*
X681490Y-144451D01*
X681463Y-144415D01*
X681426Y-144360D01*
X681381Y-144296D01*
X681335Y-144223D01*
X681281Y-144132D01*
X681226Y-144032D01*
X681171Y-143914D01*
X681117Y-143786D01*
X681071Y-143640D01*
X681026Y-143486D01*
X680989Y-143322D01*
X680962Y-143139D01*
X680943Y-142948D01*
X680934Y-142748D01*
Y-142739D01*
Y-142693D01*
Y-142638D01*
X680943Y-142556D01*
X680953Y-142456D01*
X680962Y-142347D01*
X680980Y-142219D01*
X681007Y-142092D01*
X681080Y-141800D01*
X681126Y-141655D01*
X681180Y-141500D01*
X681253Y-141354D01*
X681335Y-141217D01*
X681426Y-141080D01*
X681527Y-140953D01*
X681536Y-140944D01*
X681554Y-140926D01*
X681590Y-140898D01*
X681636Y-140853D01*
X681691Y-140807D01*
X681763Y-140753D01*
X681845Y-140689D01*
X681946Y-140634D01*
X682046Y-140570D01*
X682164Y-140516D01*
X682292Y-140461D01*
X682428Y-140416D01*
X682574Y-140370D01*
X682729Y-140343D01*
X682893Y-140324D01*
X683066Y-140315D01*
X683157D01*
X683221Y-140324D01*
D02*
G37*
G36*
X656738D02*
X656820Y-140333D01*
X656911Y-140352D01*
X657012Y-140370D01*
X657130Y-140388D01*
X657376Y-140470D01*
X657504Y-140516D01*
X657631Y-140579D01*
X657759Y-140643D01*
X657886Y-140734D01*
X658005Y-140825D01*
X658123Y-140935D01*
X658132Y-140944D01*
X658150Y-140962D01*
X658178Y-140999D01*
X658214Y-141044D01*
X658260Y-141108D01*
X658314Y-141190D01*
X658369Y-141281D01*
X658424Y-141381D01*
X658478Y-141490D01*
X658533Y-141627D01*
X658588Y-141764D01*
X658633Y-141919D01*
X658670Y-142083D01*
X658697Y-142256D01*
X658715Y-142438D01*
X658724Y-142638D01*
Y-142648D01*
Y-142675D01*
Y-142720D01*
Y-142784D01*
X658715Y-142857D01*
X658706Y-142948D01*
Y-143039D01*
X658688Y-143139D01*
X658661Y-143367D01*
X658606Y-143595D01*
X658542Y-143823D01*
X658451Y-144032D01*
Y-144041D01*
X658442Y-144050D01*
X658424Y-144078D01*
X658405Y-144114D01*
X658342Y-144205D01*
X658260Y-144315D01*
X658150Y-144442D01*
X658014Y-144570D01*
X657859Y-144697D01*
X657677Y-144816D01*
X657667D01*
X657658Y-144825D01*
X657631Y-144843D01*
X657585Y-144861D01*
X657540Y-144879D01*
X657485Y-144898D01*
X657349Y-144952D01*
X657194Y-144998D01*
X657002Y-145043D01*
X656802Y-145080D01*
X656583Y-145089D01*
X656492D01*
X656419Y-145080D01*
X656337Y-145071D01*
X656246Y-145053D01*
X656137Y-145034D01*
X656028Y-145016D01*
X655782Y-144943D01*
X655645Y-144888D01*
X655517Y-144834D01*
X655390Y-144761D01*
X655262Y-144679D01*
X655144Y-144588D01*
X655026Y-144479D01*
X655017Y-144469D01*
X654998Y-144451D01*
X654971Y-144415D01*
X654935Y-144360D01*
X654889Y-144296D01*
X654843Y-144223D01*
X654789Y-144132D01*
X654734Y-144023D01*
X654679Y-143905D01*
X654625Y-143768D01*
X654579Y-143622D01*
X654534Y-143467D01*
X654497Y-143294D01*
X654470Y-143112D01*
X654452Y-142912D01*
X654443Y-142702D01*
Y-142684D01*
Y-142648D01*
X654452Y-142584D01*
Y-142493D01*
X654461Y-142392D01*
X654479Y-142265D01*
X654497Y-142137D01*
X654534Y-141992D01*
X654570Y-141846D01*
X654616Y-141691D01*
X654670Y-141527D01*
X654743Y-141372D01*
X654816Y-141226D01*
X654916Y-141080D01*
X655017Y-140944D01*
X655144Y-140825D01*
X655153Y-140816D01*
X655171Y-140807D01*
X655208Y-140780D01*
X655253Y-140744D01*
X655308Y-140707D01*
X655381Y-140662D01*
X655454Y-140616D01*
X655545Y-140570D01*
X655645Y-140525D01*
X655754Y-140479D01*
X656000Y-140397D01*
X656283Y-140333D01*
X656428Y-140324D01*
X656583Y-140315D01*
X656674D01*
X656738Y-140324D01*
D02*
G37*
%LPC*%
G36*
X87607Y309959D02*
X82033D01*
Y304385D01*
X82139Y304395D01*
X83442Y304791D01*
X84643Y305433D01*
X85696Y306296D01*
X86559Y307349D01*
X87201Y308550D01*
X87597Y309853D01*
X87607Y309959D01*
D02*
G37*
G36*
X79533D02*
X73960D01*
X73970Y309853D01*
X74365Y308550D01*
X75007Y307349D01*
X75871Y306296D01*
X76924Y305433D01*
X78125Y304791D01*
X79428Y304395D01*
X79533Y304385D01*
Y309959D01*
D02*
G37*
G36*
X52034Y308032D02*
Y302459D01*
X57607D01*
X57597Y302564D01*
X57201Y303867D01*
X56559Y305068D01*
X55696Y306121D01*
X54643Y306985D01*
X53442Y307627D01*
X52139Y308022D01*
X52034Y308032D01*
D02*
G37*
G36*
X49533D02*
X49428Y308022D01*
X48125Y307627D01*
X46924Y306985D01*
X45871Y306121D01*
X45007Y305068D01*
X44365Y303867D01*
X43970Y302564D01*
X43960Y302459D01*
X49533D01*
Y308032D01*
D02*
G37*
G36*
X14677Y319882D02*
X8378D01*
X7444Y319696D01*
X6652Y319167D01*
X6123Y318375D01*
X5937Y317441D01*
Y310354D01*
Y304449D01*
X6123Y303515D01*
X6652Y302723D01*
X7444Y302194D01*
X8378Y302008D01*
X14677D01*
X15611Y302194D01*
X16403Y302723D01*
X16932Y303515D01*
X17118Y304449D01*
Y317441D01*
X16932Y318375D01*
X16403Y319167D01*
X15611Y319696D01*
X14677Y319882D01*
D02*
G37*
G36*
X57607Y299959D02*
X52034D01*
Y294385D01*
X52139Y294395D01*
X53442Y294791D01*
X54643Y295433D01*
X55696Y296297D01*
X56559Y297349D01*
X57201Y298550D01*
X57597Y299853D01*
X57607Y299959D01*
D02*
G37*
G36*
X49533D02*
X43960D01*
X43970Y299853D01*
X44365Y298550D01*
X45007Y297349D01*
X45871Y296297D01*
X46924Y295433D01*
X48125Y294791D01*
X49428Y294395D01*
X49533Y294385D01*
Y299959D01*
D02*
G37*
G36*
X82033Y298032D02*
Y292459D01*
X87607D01*
X87597Y292564D01*
X87201Y293867D01*
X86559Y295068D01*
X85696Y296121D01*
X84643Y296985D01*
X83442Y297627D01*
X82139Y298022D01*
X82033Y298032D01*
D02*
G37*
G36*
X79533D02*
X79428Y298022D01*
X78125Y297627D01*
X76924Y296985D01*
X75871Y296121D01*
X75007Y295068D01*
X74365Y293867D01*
X73970Y292564D01*
X73960Y292459D01*
X79533D01*
Y298032D01*
D02*
G37*
G36*
X87607Y289959D02*
X82033D01*
Y284385D01*
X82139Y284395D01*
X83442Y284791D01*
X84643Y285433D01*
X85696Y286297D01*
X86559Y287349D01*
X87201Y288550D01*
X87597Y289853D01*
X87607Y289959D01*
D02*
G37*
G36*
X79533D02*
X73960D01*
X73970Y289853D01*
X74365Y288550D01*
X75007Y287349D01*
X75871Y286297D01*
X76924Y285433D01*
X78125Y284791D01*
X79428Y284395D01*
X79533Y284385D01*
Y289959D01*
D02*
G37*
G36*
X320037Y328479D02*
Y325321D01*
X323196D01*
X322763Y326366D01*
X322033Y327317D01*
X321083Y328046D01*
X320037Y328479D01*
D02*
G37*
G36*
X317537D02*
X316492Y328046D01*
X315542Y327317D01*
X314812Y326366D01*
X314379Y325321D01*
X317537D01*
Y328479D01*
D02*
G37*
G36*
Y322821D02*
X314379D01*
X314812Y321776D01*
X315542Y320825D01*
X316492Y320095D01*
X317537Y319662D01*
Y322821D01*
D02*
G37*
G36*
X323196D02*
X320037D01*
Y319662D01*
X321083Y320095D01*
X322033Y320825D01*
X322763Y321776D01*
X323196Y322821D01*
D02*
G37*
G36*
X259092Y318032D02*
Y312459D01*
X264666D01*
X264656Y312564D01*
X264261Y313867D01*
X263619Y315068D01*
X262755Y316121D01*
X261702Y316985D01*
X260501Y317627D01*
X259198Y318022D01*
X259092Y318032D01*
D02*
G37*
G36*
X256592D02*
X256487Y318022D01*
X255184Y317627D01*
X253983Y316985D01*
X252930Y316121D01*
X252066Y315068D01*
X251425Y313867D01*
X251029Y312564D01*
X251019Y312459D01*
X256592D01*
Y318032D01*
D02*
G37*
G36*
Y309959D02*
X251019D01*
X251029Y309853D01*
X251425Y308550D01*
X252066Y307349D01*
X252930Y306296D01*
X253983Y305433D01*
X255184Y304791D01*
X256487Y304395D01*
X256592Y304385D01*
Y309959D01*
D02*
G37*
G36*
X264666D02*
X259092D01*
Y304385D01*
X259198Y304395D01*
X260501Y304791D01*
X261702Y305433D01*
X262755Y306296D01*
X263619Y307349D01*
X264261Y308550D01*
X264656Y309853D01*
X264666Y309959D01*
D02*
G37*
G36*
X289092Y308032D02*
Y302459D01*
X294666D01*
X294656Y302564D01*
X294261Y303867D01*
X293619Y305068D01*
X292755Y306121D01*
X291702Y306985D01*
X290501Y307627D01*
X289198Y308022D01*
X289092Y308032D01*
D02*
G37*
G36*
X286593D02*
X286487Y308022D01*
X285184Y307627D01*
X283983Y306985D01*
X282930Y306121D01*
X282066Y305068D01*
X281424Y303867D01*
X281029Y302564D01*
X281019Y302459D01*
X286593D01*
Y308032D01*
D02*
G37*
G36*
X349590Y303126D02*
X348533Y302986D01*
X347548Y302578D01*
X346701Y301929D01*
X346052Y301082D01*
X345644Y300097D01*
X345504Y299039D01*
X345644Y297982D01*
X346052Y296996D01*
X346701Y296150D01*
X347548Y295501D01*
X348533Y295093D01*
X349590Y294953D01*
X350648Y295093D01*
X351634Y295501D01*
X352480Y296150D01*
X353129Y296996D01*
X353538Y297982D01*
X353677Y299039D01*
X353538Y300097D01*
X353129Y301082D01*
X352480Y301929D01*
X351634Y302578D01*
X350648Y302986D01*
X349590Y303126D01*
D02*
G37*
G36*
X339591D02*
X338533Y302986D01*
X337547Y302578D01*
X336701Y301929D01*
X336052Y301082D01*
X335644Y300097D01*
X335504Y299039D01*
X335644Y297982D01*
X336052Y296996D01*
X336701Y296150D01*
X337547Y295501D01*
X338533Y295093D01*
X339591Y294953D01*
X340648Y295093D01*
X341634Y295501D01*
X342480Y296150D01*
X343129Y296996D01*
X343537Y297982D01*
X343677Y299039D01*
X343537Y300097D01*
X343129Y301082D01*
X342480Y301929D01*
X341634Y302578D01*
X340648Y302986D01*
X339591Y303126D01*
D02*
G37*
G36*
X329591D02*
X328533Y302986D01*
X327548Y302578D01*
X326701Y301929D01*
X326052Y301082D01*
X325644Y300097D01*
X325504Y299039D01*
X325644Y297982D01*
X326052Y296996D01*
X326701Y296150D01*
X327548Y295501D01*
X328533Y295093D01*
X329591Y294953D01*
X330648Y295093D01*
X331634Y295501D01*
X332480Y296150D01*
X333129Y296996D01*
X333538Y297982D01*
X333677Y299039D01*
X333538Y300097D01*
X333129Y301082D01*
X332480Y301929D01*
X331634Y302578D01*
X330648Y302986D01*
X329591Y303126D01*
D02*
G37*
G36*
X319590D02*
X318533Y302986D01*
X317547Y302578D01*
X316701Y301929D01*
X316052Y301082D01*
X315644Y300097D01*
X315504Y299039D01*
X315644Y297982D01*
X316052Y296996D01*
X316701Y296150D01*
X317547Y295501D01*
X318533Y295093D01*
X319590Y294953D01*
X320648Y295093D01*
X321634Y295501D01*
X322480Y296150D01*
X323129Y296996D01*
X323537Y297982D01*
X323677Y299039D01*
X323537Y300097D01*
X323129Y301082D01*
X322480Y301929D01*
X321634Y302578D01*
X320648Y302986D01*
X319590Y303126D01*
D02*
G37*
G36*
X286593Y299959D02*
X281019D01*
X281029Y299853D01*
X281424Y298550D01*
X282066Y297349D01*
X282930Y296297D01*
X283983Y295433D01*
X285184Y294791D01*
X286487Y294395D01*
X286593Y294385D01*
Y299959D01*
D02*
G37*
G36*
X294666D02*
X289092D01*
Y294385D01*
X289198Y294395D01*
X290501Y294791D01*
X291702Y295433D01*
X292755Y296297D01*
X293619Y297349D01*
X294261Y298550D01*
X294656Y299853D01*
X294666Y299959D01*
D02*
G37*
G36*
X259092Y298032D02*
Y292459D01*
X264666D01*
X264656Y292564D01*
X264261Y293867D01*
X263619Y295068D01*
X262755Y296121D01*
X261702Y296985D01*
X260501Y297627D01*
X259198Y298022D01*
X259092Y298032D01*
D02*
G37*
G36*
X256592D02*
X256487Y298022D01*
X255184Y297627D01*
X253983Y296985D01*
X252930Y296121D01*
X252066Y295068D01*
X251425Y293867D01*
X251029Y292564D01*
X251019Y292459D01*
X256592D01*
Y298032D01*
D02*
G37*
G36*
X349590Y293126D02*
X348533Y292986D01*
X347548Y292578D01*
X346701Y291929D01*
X346052Y291082D01*
X345644Y290097D01*
X345504Y289039D01*
X345644Y287982D01*
X346052Y286996D01*
X346701Y286150D01*
X347548Y285501D01*
X348533Y285092D01*
X349590Y284953D01*
X350648Y285092D01*
X351634Y285501D01*
X352480Y286150D01*
X353129Y286996D01*
X353538Y287982D01*
X353677Y289039D01*
X353538Y290097D01*
X353129Y291082D01*
X352480Y291929D01*
X351634Y292578D01*
X350648Y292986D01*
X349590Y293126D01*
D02*
G37*
G36*
X339591D02*
X338533Y292986D01*
X337547Y292578D01*
X336701Y291929D01*
X336052Y291082D01*
X335644Y290097D01*
X335504Y289039D01*
X335644Y287982D01*
X336052Y286996D01*
X336701Y286150D01*
X337547Y285501D01*
X338533Y285092D01*
X339591Y284953D01*
X340648Y285092D01*
X341634Y285501D01*
X342480Y286150D01*
X343129Y286996D01*
X343537Y287982D01*
X343677Y289039D01*
X343537Y290097D01*
X343129Y291082D01*
X342480Y291929D01*
X341634Y292578D01*
X340648Y292986D01*
X339591Y293126D01*
D02*
G37*
G36*
X329591D02*
X328533Y292986D01*
X327548Y292578D01*
X326701Y291929D01*
X326052Y291082D01*
X325644Y290097D01*
X325504Y289039D01*
X325644Y287982D01*
X326052Y286996D01*
X326701Y286150D01*
X327548Y285501D01*
X328533Y285092D01*
X329591Y284953D01*
X330648Y285092D01*
X331634Y285501D01*
X332480Y286150D01*
X333129Y286996D01*
X333538Y287982D01*
X333677Y289039D01*
X333538Y290097D01*
X333129Y291082D01*
X332480Y291929D01*
X331634Y292578D01*
X330648Y292986D01*
X329591Y293126D01*
D02*
G37*
G36*
X319590D02*
X318533Y292986D01*
X317547Y292578D01*
X316701Y291929D01*
X316052Y291082D01*
X315644Y290097D01*
X315504Y289039D01*
X315644Y287982D01*
X316052Y286996D01*
X316701Y286150D01*
X317547Y285501D01*
X318533Y285092D01*
X319590Y284953D01*
X320648Y285092D01*
X321634Y285501D01*
X322480Y286150D01*
X323129Y286996D01*
X323537Y287982D01*
X323677Y289039D01*
X323537Y290097D01*
X323129Y291082D01*
X322480Y291929D01*
X321634Y292578D01*
X320648Y292986D01*
X319590Y293126D01*
D02*
G37*
G36*
X256592Y289959D02*
X251019D01*
X251029Y289853D01*
X251425Y288550D01*
X252066Y287349D01*
X252930Y286297D01*
X253983Y285433D01*
X255184Y284791D01*
X256487Y284395D01*
X256592Y284385D01*
Y289959D01*
D02*
G37*
G36*
X264666D02*
X259092D01*
Y284385D01*
X259198Y284395D01*
X260501Y284791D01*
X261702Y285433D01*
X262755Y286297D01*
X263619Y287349D01*
X264261Y288550D01*
X264656Y289853D01*
X264666Y289959D01*
D02*
G37*
G36*
X349590Y283125D02*
X348533Y282986D01*
X347548Y282578D01*
X346701Y281929D01*
X346052Y281082D01*
X345644Y280097D01*
X345504Y279039D01*
X345644Y277982D01*
X346052Y276996D01*
X346701Y276150D01*
X347548Y275501D01*
X348533Y275093D01*
X349590Y274953D01*
X350648Y275093D01*
X351634Y275501D01*
X352480Y276150D01*
X353129Y276996D01*
X353538Y277982D01*
X353677Y279039D01*
X353538Y280097D01*
X353129Y281082D01*
X352480Y281929D01*
X351634Y282578D01*
X350648Y282986D01*
X349590Y283125D01*
D02*
G37*
G36*
X339591D02*
X338533Y282986D01*
X337547Y282578D01*
X336701Y281929D01*
X336052Y281082D01*
X335644Y280097D01*
X335504Y279039D01*
X335644Y277982D01*
X336052Y276996D01*
X336701Y276150D01*
X337547Y275501D01*
X338533Y275093D01*
X339591Y274953D01*
X340648Y275093D01*
X341634Y275501D01*
X342480Y276150D01*
X343129Y276996D01*
X343537Y277982D01*
X343677Y279039D01*
X343537Y280097D01*
X343129Y281082D01*
X342480Y281929D01*
X341634Y282578D01*
X340648Y282986D01*
X339591Y283125D01*
D02*
G37*
G36*
X329591D02*
X328533Y282986D01*
X327548Y282578D01*
X326701Y281929D01*
X326052Y281082D01*
X325644Y280097D01*
X325504Y279039D01*
X325644Y277982D01*
X326052Y276996D01*
X326701Y276150D01*
X327548Y275501D01*
X328533Y275093D01*
X329591Y274953D01*
X330648Y275093D01*
X331634Y275501D01*
X332480Y276150D01*
X333129Y276996D01*
X333538Y277982D01*
X333677Y279039D01*
X333538Y280097D01*
X333129Y281082D01*
X332480Y281929D01*
X331634Y282578D01*
X330648Y282986D01*
X329591Y283125D01*
D02*
G37*
G36*
X319590D02*
X318533Y282986D01*
X317547Y282578D01*
X316701Y281929D01*
X316052Y281082D01*
X315644Y280097D01*
X315504Y279039D01*
X315644Y277982D01*
X316052Y276996D01*
X316701Y276150D01*
X317547Y275501D01*
X318533Y275093D01*
X319590Y274953D01*
X320648Y275093D01*
X321634Y275501D01*
X322480Y276150D01*
X323129Y276996D01*
X323537Y277982D01*
X323677Y279039D01*
X323537Y280097D01*
X323129Y281082D01*
X322480Y281929D01*
X321634Y282578D01*
X320648Y282986D01*
X319590Y283125D01*
D02*
G37*
G36*
X349590Y273126D02*
X348533Y272986D01*
X347548Y272578D01*
X346701Y271929D01*
X346052Y271082D01*
X345644Y270097D01*
X345504Y269039D01*
X345644Y267982D01*
X346052Y266996D01*
X346701Y266150D01*
X347548Y265501D01*
X348533Y265092D01*
X349590Y264953D01*
X350648Y265092D01*
X351634Y265501D01*
X352480Y266150D01*
X353129Y266996D01*
X353538Y267982D01*
X353677Y269039D01*
X353538Y270097D01*
X353129Y271082D01*
X352480Y271929D01*
X351634Y272578D01*
X350648Y272986D01*
X349590Y273126D01*
D02*
G37*
G36*
X339591D02*
X338533Y272986D01*
X337547Y272578D01*
X336701Y271929D01*
X336052Y271082D01*
X335644Y270097D01*
X335504Y269039D01*
X335644Y267982D01*
X336052Y266996D01*
X336701Y266150D01*
X337547Y265501D01*
X338533Y265092D01*
X339591Y264953D01*
X340648Y265092D01*
X341634Y265501D01*
X342480Y266150D01*
X343129Y266996D01*
X343537Y267982D01*
X343677Y269039D01*
X343537Y270097D01*
X343129Y271082D01*
X342480Y271929D01*
X341634Y272578D01*
X340648Y272986D01*
X339591Y273126D01*
D02*
G37*
G36*
X329591D02*
X328533Y272986D01*
X327548Y272578D01*
X326701Y271929D01*
X326052Y271082D01*
X325644Y270097D01*
X325504Y269039D01*
X325644Y267982D01*
X326052Y266996D01*
X326701Y266150D01*
X327548Y265501D01*
X328533Y265092D01*
X329591Y264953D01*
X330648Y265092D01*
X331634Y265501D01*
X332480Y266150D01*
X333129Y266996D01*
X333538Y267982D01*
X333677Y269039D01*
X333538Y270097D01*
X333129Y271082D01*
X332480Y271929D01*
X331634Y272578D01*
X330648Y272986D01*
X329591Y273126D01*
D02*
G37*
G36*
X319590D02*
X318533Y272986D01*
X317547Y272578D01*
X316701Y271929D01*
X316052Y271082D01*
X315644Y270097D01*
X315504Y269039D01*
X315644Y267982D01*
X316052Y266996D01*
X316701Y266150D01*
X317547Y265501D01*
X318533Y265092D01*
X319590Y264953D01*
X320648Y265092D01*
X321634Y265501D01*
X322480Y266150D01*
X323129Y266996D01*
X323537Y267982D01*
X323677Y269039D01*
X323537Y270097D01*
X323129Y271082D01*
X322480Y271929D01*
X321634Y272578D01*
X320648Y272986D01*
X319590Y273126D01*
D02*
G37*
G36*
X349590Y263125D02*
X348533Y262986D01*
X347548Y262578D01*
X346701Y261929D01*
X346052Y261082D01*
X345644Y260097D01*
X345504Y259039D01*
X345644Y257982D01*
X346052Y256996D01*
X346701Y256150D01*
X347548Y255501D01*
X348533Y255093D01*
X349590Y254953D01*
X350648Y255093D01*
X351634Y255501D01*
X352480Y256150D01*
X353129Y256996D01*
X353538Y257982D01*
X353677Y259039D01*
X353538Y260097D01*
X353129Y261082D01*
X352480Y261929D01*
X351634Y262578D01*
X350648Y262986D01*
X349590Y263125D01*
D02*
G37*
G36*
X339591D02*
X338533Y262986D01*
X337547Y262578D01*
X336701Y261929D01*
X336052Y261082D01*
X335644Y260097D01*
X335504Y259039D01*
X335644Y257982D01*
X336052Y256996D01*
X336701Y256150D01*
X337547Y255501D01*
X338533Y255093D01*
X339591Y254953D01*
X340648Y255093D01*
X341634Y255501D01*
X342480Y256150D01*
X343129Y256996D01*
X343537Y257982D01*
X343677Y259039D01*
X343537Y260097D01*
X343129Y261082D01*
X342480Y261929D01*
X341634Y262578D01*
X340648Y262986D01*
X339591Y263125D01*
D02*
G37*
G36*
X329591D02*
X328533Y262986D01*
X327548Y262578D01*
X326701Y261929D01*
X326052Y261082D01*
X325644Y260097D01*
X325504Y259039D01*
X325644Y257982D01*
X326052Y256996D01*
X326701Y256150D01*
X327548Y255501D01*
X328533Y255093D01*
X329591Y254953D01*
X330648Y255093D01*
X331634Y255501D01*
X332480Y256150D01*
X333129Y256996D01*
X333538Y257982D01*
X333677Y259039D01*
X333538Y260097D01*
X333129Y261082D01*
X332480Y261929D01*
X331634Y262578D01*
X330648Y262986D01*
X329591Y263125D01*
D02*
G37*
G36*
X319590D02*
X318533Y262986D01*
X317547Y262578D01*
X316701Y261929D01*
X316052Y261082D01*
X315644Y260097D01*
X315504Y259039D01*
X315644Y257982D01*
X316052Y256996D01*
X316701Y256150D01*
X317547Y255501D01*
X318533Y255093D01*
X319590Y254953D01*
X320648Y255093D01*
X321634Y255501D01*
X322480Y256150D01*
X323129Y256996D01*
X323537Y257982D01*
X323677Y259039D01*
X323537Y260097D01*
X323129Y261082D01*
X322480Y261929D01*
X321634Y262578D01*
X320648Y262986D01*
X319590Y263125D01*
D02*
G37*
G36*
X349590Y253126D02*
X348533Y252986D01*
X347548Y252578D01*
X346701Y251929D01*
X346052Y251082D01*
X345644Y250097D01*
X345504Y249039D01*
X345644Y247982D01*
X346052Y246996D01*
X346701Y246150D01*
X347548Y245501D01*
X348533Y245093D01*
X349590Y244953D01*
X350648Y245093D01*
X351634Y245501D01*
X352480Y246150D01*
X353129Y246996D01*
X353538Y247982D01*
X353677Y249039D01*
X353538Y250097D01*
X353129Y251082D01*
X352480Y251929D01*
X351634Y252578D01*
X350648Y252986D01*
X349590Y253126D01*
D02*
G37*
G36*
X339591D02*
X338533Y252986D01*
X337547Y252578D01*
X336701Y251929D01*
X336052Y251082D01*
X335644Y250097D01*
X335504Y249039D01*
X335644Y247982D01*
X336052Y246996D01*
X336701Y246150D01*
X337547Y245501D01*
X338533Y245093D01*
X339591Y244953D01*
X340648Y245093D01*
X341634Y245501D01*
X342480Y246150D01*
X343129Y246996D01*
X343537Y247982D01*
X343677Y249039D01*
X343537Y250097D01*
X343129Y251082D01*
X342480Y251929D01*
X341634Y252578D01*
X340648Y252986D01*
X339591Y253126D01*
D02*
G37*
G36*
X329591D02*
X328533Y252986D01*
X327548Y252578D01*
X326701Y251929D01*
X326052Y251082D01*
X325644Y250097D01*
X325504Y249039D01*
X325644Y247982D01*
X326052Y246996D01*
X326701Y246150D01*
X327548Y245501D01*
X328533Y245093D01*
X329591Y244953D01*
X330648Y245093D01*
X331634Y245501D01*
X332480Y246150D01*
X333129Y246996D01*
X333538Y247982D01*
X333677Y249039D01*
X333538Y250097D01*
X333129Y251082D01*
X332480Y251929D01*
X331634Y252578D01*
X330648Y252986D01*
X329591Y253126D01*
D02*
G37*
G36*
X319590D02*
X318533Y252986D01*
X317547Y252578D01*
X316701Y251929D01*
X316052Y251082D01*
X315644Y250097D01*
X315504Y249039D01*
X315644Y247982D01*
X316052Y246996D01*
X316701Y246150D01*
X317547Y245501D01*
X318533Y245093D01*
X319590Y244953D01*
X320648Y245093D01*
X321634Y245501D01*
X322480Y246150D01*
X323129Y246996D01*
X323537Y247982D01*
X323677Y249039D01*
X323537Y250097D01*
X323129Y251082D01*
X322480Y251929D01*
X321634Y252578D01*
X320648Y252986D01*
X319590Y253126D01*
D02*
G37*
G36*
X349590Y243126D02*
X348533Y242986D01*
X347548Y242578D01*
X346701Y241929D01*
X346052Y241082D01*
X345644Y240097D01*
X345504Y239039D01*
X345644Y237982D01*
X346052Y236996D01*
X346701Y236150D01*
X347548Y235501D01*
X348533Y235092D01*
X349590Y234953D01*
X350648Y235092D01*
X351634Y235501D01*
X352480Y236150D01*
X353129Y236996D01*
X353538Y237982D01*
X353677Y239039D01*
X353538Y240097D01*
X353129Y241082D01*
X352480Y241929D01*
X351634Y242578D01*
X350648Y242986D01*
X349590Y243126D01*
D02*
G37*
G36*
X339591D02*
X338533Y242986D01*
X337547Y242578D01*
X336701Y241929D01*
X336052Y241082D01*
X335644Y240097D01*
X335504Y239039D01*
X335644Y237982D01*
X336052Y236996D01*
X336701Y236150D01*
X337547Y235501D01*
X338533Y235092D01*
X339591Y234953D01*
X340648Y235092D01*
X341634Y235501D01*
X342480Y236150D01*
X343129Y236996D01*
X343537Y237982D01*
X343677Y239039D01*
X343537Y240097D01*
X343129Y241082D01*
X342480Y241929D01*
X341634Y242578D01*
X340648Y242986D01*
X339591Y243126D01*
D02*
G37*
G36*
X329591D02*
X328533Y242986D01*
X327548Y242578D01*
X326701Y241929D01*
X326052Y241082D01*
X325644Y240097D01*
X325504Y239039D01*
X325644Y237982D01*
X326052Y236996D01*
X326701Y236150D01*
X327548Y235501D01*
X328533Y235092D01*
X329591Y234953D01*
X330648Y235092D01*
X331634Y235501D01*
X332480Y236150D01*
X333129Y236996D01*
X333538Y237982D01*
X333677Y239039D01*
X333538Y240097D01*
X333129Y241082D01*
X332480Y241929D01*
X331634Y242578D01*
X330648Y242986D01*
X329591Y243126D01*
D02*
G37*
G36*
X319590D02*
X318533Y242986D01*
X317547Y242578D01*
X316701Y241929D01*
X316052Y241082D01*
X315644Y240097D01*
X315504Y239039D01*
X315644Y237982D01*
X316052Y236996D01*
X316701Y236150D01*
X317547Y235501D01*
X318533Y235092D01*
X319590Y234953D01*
X320648Y235092D01*
X321634Y235501D01*
X322480Y236150D01*
X323129Y236996D01*
X323537Y237982D01*
X323677Y239039D01*
X323537Y240097D01*
X323129Y241082D01*
X322480Y241929D01*
X321634Y242578D01*
X320648Y242986D01*
X319590Y243126D01*
D02*
G37*
G36*
X259092Y233072D02*
Y227498D01*
X264666D01*
X264656Y227603D01*
X264261Y228906D01*
X263619Y230107D01*
X262755Y231160D01*
X261702Y232024D01*
X260501Y232666D01*
X259198Y233061D01*
X259092Y233072D01*
D02*
G37*
G36*
X256592D02*
X256487Y233061D01*
X255184Y232666D01*
X253983Y232024D01*
X252930Y231160D01*
X252066Y230107D01*
X251425Y228906D01*
X251029Y227603D01*
X251019Y227498D01*
X256592D01*
Y233072D01*
D02*
G37*
G36*
X349590Y233125D02*
X348533Y232986D01*
X347548Y232578D01*
X346701Y231929D01*
X346052Y231082D01*
X345644Y230097D01*
X345504Y229039D01*
X345644Y227982D01*
X346052Y226996D01*
X346701Y226150D01*
X347548Y225501D01*
X348533Y225093D01*
X349590Y224953D01*
X350648Y225093D01*
X351634Y225501D01*
X352480Y226150D01*
X353129Y226996D01*
X353538Y227982D01*
X353677Y229039D01*
X353538Y230097D01*
X353129Y231082D01*
X352480Y231929D01*
X351634Y232578D01*
X350648Y232986D01*
X349590Y233125D01*
D02*
G37*
G36*
X339591D02*
X338533Y232986D01*
X337547Y232578D01*
X336701Y231929D01*
X336052Y231082D01*
X335644Y230097D01*
X335504Y229039D01*
X335644Y227982D01*
X336052Y226996D01*
X336701Y226150D01*
X337547Y225501D01*
X338533Y225093D01*
X339591Y224953D01*
X340648Y225093D01*
X341634Y225501D01*
X342480Y226150D01*
X343129Y226996D01*
X343537Y227982D01*
X343677Y229039D01*
X343537Y230097D01*
X343129Y231082D01*
X342480Y231929D01*
X341634Y232578D01*
X340648Y232986D01*
X339591Y233125D01*
D02*
G37*
G36*
X329591D02*
X328533Y232986D01*
X327548Y232578D01*
X326701Y231929D01*
X326052Y231082D01*
X325644Y230097D01*
X325504Y229039D01*
X325644Y227982D01*
X326052Y226996D01*
X326701Y226150D01*
X327548Y225501D01*
X328533Y225093D01*
X329591Y224953D01*
X330648Y225093D01*
X331634Y225501D01*
X332480Y226150D01*
X333129Y226996D01*
X333538Y227982D01*
X333677Y229039D01*
X333538Y230097D01*
X333129Y231082D01*
X332480Y231929D01*
X331634Y232578D01*
X330648Y232986D01*
X329591Y233125D01*
D02*
G37*
G36*
X319590D02*
X318533Y232986D01*
X317547Y232578D01*
X316701Y231929D01*
X316052Y231082D01*
X315644Y230097D01*
X315504Y229039D01*
X315644Y227982D01*
X316052Y226996D01*
X316701Y226150D01*
X317547Y225501D01*
X318533Y225093D01*
X319590Y224953D01*
X320648Y225093D01*
X321634Y225501D01*
X322480Y226150D01*
X323129Y226996D01*
X323537Y227982D01*
X323677Y229039D01*
X323537Y230097D01*
X323129Y231082D01*
X322480Y231929D01*
X321634Y232578D01*
X320648Y232986D01*
X319590Y233125D01*
D02*
G37*
G36*
X256592Y224998D02*
X251019D01*
X251029Y224893D01*
X251425Y223590D01*
X252066Y222389D01*
X252930Y221336D01*
X253983Y220472D01*
X255184Y219830D01*
X256487Y219435D01*
X256592Y219424D01*
Y224998D01*
D02*
G37*
G36*
X264666D02*
X259092D01*
Y219424D01*
X259198Y219435D01*
X260501Y219830D01*
X261702Y220472D01*
X262755Y221336D01*
X263619Y222389D01*
X264261Y223590D01*
X264656Y224893D01*
X264666Y224998D01*
D02*
G37*
G36*
X289092Y223072D02*
Y217498D01*
X294666D01*
X294656Y217603D01*
X294261Y218906D01*
X293619Y220108D01*
X292755Y221160D01*
X291702Y222024D01*
X290501Y222666D01*
X289198Y223061D01*
X289092Y223072D01*
D02*
G37*
G36*
X286593D02*
X286487Y223061D01*
X285184Y222666D01*
X283983Y222024D01*
X282930Y221160D01*
X282066Y220108D01*
X281424Y218906D01*
X281029Y217603D01*
X281019Y217498D01*
X286593D01*
Y223072D01*
D02*
G37*
G36*
X349590Y223126D02*
X348533Y222986D01*
X347548Y222578D01*
X346701Y221929D01*
X346052Y221082D01*
X345644Y220097D01*
X345504Y219039D01*
X345644Y217982D01*
X346052Y216996D01*
X346701Y216150D01*
X347548Y215501D01*
X348533Y215092D01*
X349590Y214953D01*
X350648Y215092D01*
X351634Y215501D01*
X352480Y216150D01*
X353129Y216996D01*
X353538Y217982D01*
X353677Y219039D01*
X353538Y220097D01*
X353129Y221082D01*
X352480Y221929D01*
X351634Y222578D01*
X350648Y222986D01*
X349590Y223126D01*
D02*
G37*
G36*
X339591D02*
X338533Y222986D01*
X337547Y222578D01*
X336701Y221929D01*
X336052Y221082D01*
X335644Y220097D01*
X335504Y219039D01*
X335644Y217982D01*
X336052Y216996D01*
X336701Y216150D01*
X337547Y215501D01*
X338533Y215092D01*
X339591Y214953D01*
X340648Y215092D01*
X341634Y215501D01*
X342480Y216150D01*
X343129Y216996D01*
X343537Y217982D01*
X343677Y219039D01*
X343537Y220097D01*
X343129Y221082D01*
X342480Y221929D01*
X341634Y222578D01*
X340648Y222986D01*
X339591Y223126D01*
D02*
G37*
G36*
X329591D02*
X328533Y222986D01*
X327548Y222578D01*
X326701Y221929D01*
X326052Y221082D01*
X325644Y220097D01*
X325504Y219039D01*
X325644Y217982D01*
X326052Y216996D01*
X326701Y216150D01*
X327548Y215501D01*
X328533Y215092D01*
X329591Y214953D01*
X330648Y215092D01*
X331634Y215501D01*
X332480Y216150D01*
X333129Y216996D01*
X333538Y217982D01*
X333677Y219039D01*
X333538Y220097D01*
X333129Y221082D01*
X332480Y221929D01*
X331634Y222578D01*
X330648Y222986D01*
X329591Y223126D01*
D02*
G37*
G36*
X319590D02*
X318533Y222986D01*
X317547Y222578D01*
X316701Y221929D01*
X316052Y221082D01*
X315644Y220097D01*
X315504Y219039D01*
X315644Y217982D01*
X316052Y216996D01*
X316701Y216150D01*
X317547Y215501D01*
X318533Y215092D01*
X319590Y214953D01*
X320648Y215092D01*
X321634Y215501D01*
X322480Y216150D01*
X323129Y216996D01*
X323537Y217982D01*
X323677Y219039D01*
X323537Y220097D01*
X323129Y221082D01*
X322480Y221929D01*
X321634Y222578D01*
X320648Y222986D01*
X319590Y223126D01*
D02*
G37*
G36*
X286593Y214998D02*
X281019D01*
X281029Y214893D01*
X281424Y213590D01*
X282066Y212389D01*
X282930Y211336D01*
X283983Y210472D01*
X285184Y209830D01*
X286487Y209435D01*
X286593Y209424D01*
Y214998D01*
D02*
G37*
G36*
X294666D02*
X289092D01*
Y209424D01*
X289198Y209435D01*
X290501Y209830D01*
X291702Y210472D01*
X292755Y211336D01*
X293619Y212389D01*
X294261Y213590D01*
X294656Y214893D01*
X294666Y214998D01*
D02*
G37*
G36*
X259092Y213072D02*
Y207498D01*
X264666D01*
X264656Y207603D01*
X264261Y208907D01*
X263619Y210107D01*
X262755Y211160D01*
X261702Y212024D01*
X260501Y212666D01*
X259198Y213061D01*
X259092Y213072D01*
D02*
G37*
G36*
X256592D02*
X256487Y213061D01*
X255184Y212666D01*
X253983Y212024D01*
X252930Y211160D01*
X252066Y210107D01*
X251425Y208907D01*
X251029Y207603D01*
X251019Y207498D01*
X256592D01*
Y213072D01*
D02*
G37*
G36*
X349590Y213125D02*
X348533Y212986D01*
X347548Y212578D01*
X346701Y211929D01*
X346052Y211082D01*
X345644Y210097D01*
X345504Y209039D01*
X345644Y207982D01*
X346052Y206996D01*
X346701Y206150D01*
X347548Y205501D01*
X348533Y205093D01*
X349590Y204953D01*
X350648Y205093D01*
X351634Y205501D01*
X352480Y206150D01*
X353129Y206996D01*
X353538Y207982D01*
X353677Y209039D01*
X353538Y210097D01*
X353129Y211082D01*
X352480Y211929D01*
X351634Y212578D01*
X350648Y212986D01*
X349590Y213125D01*
D02*
G37*
G36*
X339591D02*
X338533Y212986D01*
X337547Y212578D01*
X336701Y211929D01*
X336052Y211082D01*
X335644Y210097D01*
X335504Y209039D01*
X335644Y207982D01*
X336052Y206996D01*
X336701Y206150D01*
X337547Y205501D01*
X338533Y205093D01*
X339591Y204953D01*
X340648Y205093D01*
X341634Y205501D01*
X342480Y206150D01*
X343129Y206996D01*
X343537Y207982D01*
X343677Y209039D01*
X343537Y210097D01*
X343129Y211082D01*
X342480Y211929D01*
X341634Y212578D01*
X340648Y212986D01*
X339591Y213125D01*
D02*
G37*
G36*
X329591D02*
X328533Y212986D01*
X327548Y212578D01*
X326701Y211929D01*
X326052Y211082D01*
X325644Y210097D01*
X325504Y209039D01*
X325644Y207982D01*
X326052Y206996D01*
X326701Y206150D01*
X327548Y205501D01*
X328533Y205093D01*
X329591Y204953D01*
X330648Y205093D01*
X331634Y205501D01*
X332480Y206150D01*
X333129Y206996D01*
X333538Y207982D01*
X333677Y209039D01*
X333538Y210097D01*
X333129Y211082D01*
X332480Y211929D01*
X331634Y212578D01*
X330648Y212986D01*
X329591Y213125D01*
D02*
G37*
G36*
X319590D02*
X318533Y212986D01*
X317547Y212578D01*
X316701Y211929D01*
X316052Y211082D01*
X315644Y210097D01*
X315504Y209039D01*
X315644Y207982D01*
X316052Y206996D01*
X316701Y206150D01*
X317547Y205501D01*
X318533Y205093D01*
X319590Y204953D01*
X320648Y205093D01*
X321634Y205501D01*
X322480Y206150D01*
X323129Y206996D01*
X323537Y207982D01*
X323677Y209039D01*
X323537Y210097D01*
X323129Y211082D01*
X322480Y211929D01*
X321634Y212578D01*
X320648Y212986D01*
X319590Y213125D01*
D02*
G37*
G36*
X256592Y204998D02*
X251019D01*
X251029Y204893D01*
X251425Y203590D01*
X252066Y202389D01*
X252930Y201336D01*
X253983Y200472D01*
X255184Y199830D01*
X256487Y199435D01*
X256592Y199424D01*
Y204998D01*
D02*
G37*
G36*
X264666D02*
X259092D01*
Y199424D01*
X259198Y199435D01*
X260501Y199830D01*
X261702Y200472D01*
X262755Y201336D01*
X263619Y202389D01*
X264261Y203590D01*
X264656Y204893D01*
X264666Y204998D01*
D02*
G37*
G36*
X349590Y203126D02*
X348533Y202986D01*
X347548Y202578D01*
X346701Y201929D01*
X346052Y201082D01*
X345644Y200097D01*
X345504Y199039D01*
X345644Y197982D01*
X346052Y196996D01*
X346701Y196150D01*
X347548Y195501D01*
X348533Y195092D01*
X349590Y194953D01*
X350648Y195092D01*
X351634Y195501D01*
X352480Y196150D01*
X353129Y196996D01*
X353538Y197982D01*
X353677Y199039D01*
X353538Y200097D01*
X353129Y201082D01*
X352480Y201929D01*
X351634Y202578D01*
X350648Y202986D01*
X349590Y203126D01*
D02*
G37*
G36*
X339591D02*
X338533Y202986D01*
X337547Y202578D01*
X336701Y201929D01*
X336052Y201082D01*
X335644Y200097D01*
X335504Y199039D01*
X335644Y197982D01*
X336052Y196996D01*
X336701Y196150D01*
X337547Y195501D01*
X338533Y195092D01*
X339591Y194953D01*
X340648Y195092D01*
X341634Y195501D01*
X342480Y196150D01*
X343129Y196996D01*
X343537Y197982D01*
X343677Y199039D01*
X343537Y200097D01*
X343129Y201082D01*
X342480Y201929D01*
X341634Y202578D01*
X340648Y202986D01*
X339591Y203126D01*
D02*
G37*
G36*
X329591D02*
X328533Y202986D01*
X327548Y202578D01*
X326701Y201929D01*
X326052Y201082D01*
X325644Y200097D01*
X325504Y199039D01*
X325644Y197982D01*
X326052Y196996D01*
X326701Y196150D01*
X327548Y195501D01*
X328533Y195092D01*
X329591Y194953D01*
X330648Y195092D01*
X331634Y195501D01*
X332480Y196150D01*
X333129Y196996D01*
X333538Y197982D01*
X333677Y199039D01*
X333538Y200097D01*
X333129Y201082D01*
X332480Y201929D01*
X331634Y202578D01*
X330648Y202986D01*
X329591Y203126D01*
D02*
G37*
G36*
X319590D02*
X318533Y202986D01*
X317547Y202578D01*
X316701Y201929D01*
X316052Y201082D01*
X315644Y200097D01*
X315504Y199039D01*
X315644Y197982D01*
X316052Y196996D01*
X316701Y196150D01*
X317547Y195501D01*
X318533Y195092D01*
X319590Y194953D01*
X320648Y195092D01*
X321634Y195501D01*
X322480Y196150D01*
X323129Y196996D01*
X323537Y197982D01*
X323677Y199039D01*
X323537Y200097D01*
X323129Y201082D01*
X322480Y201929D01*
X321634Y202578D01*
X320648Y202986D01*
X319590Y203126D01*
D02*
G37*
G36*
X349590Y193125D02*
X348533Y192986D01*
X347548Y192578D01*
X346701Y191929D01*
X346052Y191082D01*
X345644Y190097D01*
X345504Y189039D01*
X345644Y187982D01*
X346052Y186996D01*
X346701Y186150D01*
X347548Y185501D01*
X348533Y185092D01*
X349590Y184953D01*
X350648Y185092D01*
X351634Y185501D01*
X352480Y186150D01*
X353129Y186996D01*
X353538Y187982D01*
X353677Y189039D01*
X353538Y190097D01*
X353129Y191082D01*
X352480Y191929D01*
X351634Y192578D01*
X350648Y192986D01*
X349590Y193125D01*
D02*
G37*
G36*
X339591D02*
X338533Y192986D01*
X337547Y192578D01*
X336701Y191929D01*
X336052Y191082D01*
X335644Y190097D01*
X335504Y189039D01*
X335644Y187982D01*
X336052Y186996D01*
X336701Y186150D01*
X337547Y185501D01*
X338533Y185092D01*
X339591Y184953D01*
X340648Y185092D01*
X341634Y185501D01*
X342480Y186150D01*
X343129Y186996D01*
X343537Y187982D01*
X343677Y189039D01*
X343537Y190097D01*
X343129Y191082D01*
X342480Y191929D01*
X341634Y192578D01*
X340648Y192986D01*
X339591Y193125D01*
D02*
G37*
G36*
X329591D02*
X328533Y192986D01*
X327548Y192578D01*
X326701Y191929D01*
X326052Y191082D01*
X325644Y190097D01*
X325504Y189039D01*
X325644Y187982D01*
X326052Y186996D01*
X326701Y186150D01*
X327548Y185501D01*
X328533Y185092D01*
X329591Y184953D01*
X330648Y185092D01*
X331634Y185501D01*
X332480Y186150D01*
X333129Y186996D01*
X333538Y187982D01*
X333677Y189039D01*
X333538Y190097D01*
X333129Y191082D01*
X332480Y191929D01*
X331634Y192578D01*
X330648Y192986D01*
X329591Y193125D01*
D02*
G37*
G36*
X319590D02*
X318533Y192986D01*
X317547Y192578D01*
X316701Y191929D01*
X316052Y191082D01*
X315644Y190097D01*
X315504Y189039D01*
X315644Y187982D01*
X316052Y186996D01*
X316701Y186150D01*
X317547Y185501D01*
X318533Y185092D01*
X319590Y184953D01*
X320648Y185092D01*
X321634Y185501D01*
X322480Y186150D01*
X323129Y186996D01*
X323537Y187982D01*
X323677Y189039D01*
X323537Y190097D01*
X323129Y191082D01*
X322480Y191929D01*
X321634Y192578D01*
X320648Y192986D01*
X319590Y193125D01*
D02*
G37*
G36*
X349590Y183125D02*
X348533Y182986D01*
X347548Y182578D01*
X346701Y181929D01*
X346052Y181082D01*
X345644Y180097D01*
X345504Y179039D01*
X345644Y177982D01*
X346052Y176996D01*
X346701Y176150D01*
X347548Y175501D01*
X348533Y175092D01*
X349590Y174953D01*
X350648Y175092D01*
X351634Y175501D01*
X352480Y176150D01*
X353129Y176996D01*
X353538Y177982D01*
X353677Y179039D01*
X353538Y180097D01*
X353129Y181082D01*
X352480Y181929D01*
X351634Y182578D01*
X350648Y182986D01*
X349590Y183125D01*
D02*
G37*
G36*
X339591D02*
X338533Y182986D01*
X337547Y182578D01*
X336701Y181929D01*
X336052Y181082D01*
X335644Y180097D01*
X335504Y179039D01*
X335644Y177982D01*
X336052Y176996D01*
X336701Y176150D01*
X337547Y175501D01*
X338533Y175092D01*
X339591Y174953D01*
X340648Y175092D01*
X341634Y175501D01*
X342480Y176150D01*
X343129Y176996D01*
X343537Y177982D01*
X343677Y179039D01*
X343537Y180097D01*
X343129Y181082D01*
X342480Y181929D01*
X341634Y182578D01*
X340648Y182986D01*
X339591Y183125D01*
D02*
G37*
G36*
X329591D02*
X328533Y182986D01*
X327548Y182578D01*
X326701Y181929D01*
X326052Y181082D01*
X325644Y180097D01*
X325504Y179039D01*
X325644Y177982D01*
X326052Y176996D01*
X326701Y176150D01*
X327548Y175501D01*
X328533Y175092D01*
X329591Y174953D01*
X330648Y175092D01*
X331634Y175501D01*
X332480Y176150D01*
X333129Y176996D01*
X333538Y177982D01*
X333677Y179039D01*
X333538Y180097D01*
X333129Y181082D01*
X332480Y181929D01*
X331634Y182578D01*
X330648Y182986D01*
X329591Y183125D01*
D02*
G37*
G36*
X319590D02*
X318533Y182986D01*
X317547Y182578D01*
X316701Y181929D01*
X316052Y181082D01*
X315644Y180097D01*
X315504Y179039D01*
X315644Y177982D01*
X316052Y176996D01*
X316701Y176150D01*
X317547Y175501D01*
X318533Y175092D01*
X319590Y174953D01*
X320648Y175092D01*
X321634Y175501D01*
X322480Y176150D01*
X323129Y176996D01*
X323537Y177982D01*
X323677Y179039D01*
X323537Y180097D01*
X323129Y181082D01*
X322480Y181929D01*
X321634Y182578D01*
X320648Y182986D01*
X319590Y183125D01*
D02*
G37*
G36*
X349590Y173126D02*
X348533Y172986D01*
X347548Y172578D01*
X346701Y171929D01*
X346052Y171082D01*
X345644Y170097D01*
X345504Y169039D01*
X345644Y167982D01*
X346052Y166996D01*
X346701Y166150D01*
X347548Y165501D01*
X348533Y165093D01*
X349590Y164953D01*
X350648Y165093D01*
X351634Y165501D01*
X352480Y166150D01*
X353129Y166996D01*
X353538Y167982D01*
X353677Y169039D01*
X353538Y170097D01*
X353129Y171082D01*
X352480Y171929D01*
X351634Y172578D01*
X350648Y172986D01*
X349590Y173126D01*
D02*
G37*
G36*
X339591D02*
X338533Y172986D01*
X337547Y172578D01*
X336701Y171929D01*
X336052Y171082D01*
X335644Y170097D01*
X335504Y169039D01*
X335644Y167982D01*
X336052Y166996D01*
X336701Y166150D01*
X337547Y165501D01*
X338533Y165093D01*
X339591Y164953D01*
X340648Y165093D01*
X341634Y165501D01*
X342480Y166150D01*
X343129Y166996D01*
X343537Y167982D01*
X343677Y169039D01*
X343537Y170097D01*
X343129Y171082D01*
X342480Y171929D01*
X341634Y172578D01*
X340648Y172986D01*
X339591Y173126D01*
D02*
G37*
G36*
X329591D02*
X328533Y172986D01*
X327548Y172578D01*
X326701Y171929D01*
X326052Y171082D01*
X325644Y170097D01*
X325504Y169039D01*
X325644Y167982D01*
X326052Y166996D01*
X326701Y166150D01*
X327548Y165501D01*
X328533Y165093D01*
X329591Y164953D01*
X330648Y165093D01*
X331634Y165501D01*
X332480Y166150D01*
X333129Y166996D01*
X333538Y167982D01*
X333677Y169039D01*
X333538Y170097D01*
X333129Y171082D01*
X332480Y171929D01*
X331634Y172578D01*
X330648Y172986D01*
X329591Y173126D01*
D02*
G37*
G36*
X319590D02*
X318533Y172986D01*
X317547Y172578D01*
X316701Y171929D01*
X316052Y171082D01*
X315644Y170097D01*
X315504Y169039D01*
X315644Y167982D01*
X316052Y166996D01*
X316701Y166150D01*
X317547Y165501D01*
X318533Y165093D01*
X319590Y164953D01*
X320648Y165093D01*
X321634Y165501D01*
X322480Y166150D01*
X323129Y166996D01*
X323537Y167982D01*
X323677Y169039D01*
X323537Y170097D01*
X323129Y171082D01*
X322480Y171929D01*
X321634Y172578D01*
X320648Y172986D01*
X319590Y173126D01*
D02*
G37*
G36*
X349590Y163126D02*
X348533Y162986D01*
X347548Y162578D01*
X346701Y161929D01*
X346052Y161082D01*
X345644Y160097D01*
X345504Y159039D01*
X345644Y157982D01*
X346052Y156996D01*
X346701Y156150D01*
X347548Y155501D01*
X348533Y155093D01*
X349590Y154953D01*
X350648Y155093D01*
X351634Y155501D01*
X352480Y156150D01*
X353129Y156996D01*
X353538Y157982D01*
X353677Y159039D01*
X353538Y160097D01*
X353129Y161082D01*
X352480Y161929D01*
X351634Y162578D01*
X350648Y162986D01*
X349590Y163126D01*
D02*
G37*
G36*
X339591D02*
X338533Y162986D01*
X337547Y162578D01*
X336701Y161929D01*
X336052Y161082D01*
X335644Y160097D01*
X335504Y159039D01*
X335644Y157982D01*
X336052Y156996D01*
X336701Y156150D01*
X337547Y155501D01*
X338533Y155093D01*
X339591Y154953D01*
X340648Y155093D01*
X341634Y155501D01*
X342480Y156150D01*
X343129Y156996D01*
X343537Y157982D01*
X343677Y159039D01*
X343537Y160097D01*
X343129Y161082D01*
X342480Y161929D01*
X341634Y162578D01*
X340648Y162986D01*
X339591Y163126D01*
D02*
G37*
G36*
X329591D02*
X328533Y162986D01*
X327548Y162578D01*
X326701Y161929D01*
X326052Y161082D01*
X325644Y160097D01*
X325504Y159039D01*
X325644Y157982D01*
X326052Y156996D01*
X326701Y156150D01*
X327548Y155501D01*
X328533Y155093D01*
X329591Y154953D01*
X330648Y155093D01*
X331634Y155501D01*
X332480Y156150D01*
X333129Y156996D01*
X333538Y157982D01*
X333677Y159039D01*
X333538Y160097D01*
X333129Y161082D01*
X332480Y161929D01*
X331634Y162578D01*
X330648Y162986D01*
X329591Y163126D01*
D02*
G37*
G36*
X319590D02*
X318533Y162986D01*
X317547Y162578D01*
X316701Y161929D01*
X316052Y161082D01*
X315644Y160097D01*
X315504Y159039D01*
X315644Y157982D01*
X316052Y156996D01*
X316701Y156150D01*
X317547Y155501D01*
X318533Y155093D01*
X319590Y154953D01*
X320648Y155093D01*
X321634Y155501D01*
X322480Y156150D01*
X323129Y156996D01*
X323537Y157982D01*
X323677Y159039D01*
X323537Y160097D01*
X323129Y161082D01*
X322480Y161929D01*
X321634Y162578D01*
X320648Y162986D01*
X319590Y163126D01*
D02*
G37*
G36*
X349590Y153126D02*
X348533Y152986D01*
X347548Y152578D01*
X346701Y151929D01*
X346052Y151082D01*
X345644Y150097D01*
X345504Y149039D01*
X345644Y147982D01*
X346052Y146996D01*
X346701Y146150D01*
X347548Y145501D01*
X348533Y145092D01*
X349590Y144953D01*
X350648Y145092D01*
X351634Y145501D01*
X352480Y146150D01*
X353129Y146996D01*
X353538Y147982D01*
X353677Y149039D01*
X353538Y150097D01*
X353129Y151082D01*
X352480Y151929D01*
X351634Y152578D01*
X350648Y152986D01*
X349590Y153126D01*
D02*
G37*
G36*
X339591D02*
X338533Y152986D01*
X337547Y152578D01*
X336701Y151929D01*
X336052Y151082D01*
X335644Y150097D01*
X335504Y149039D01*
X335644Y147982D01*
X336052Y146996D01*
X336701Y146150D01*
X337547Y145501D01*
X338533Y145092D01*
X339591Y144953D01*
X340648Y145092D01*
X341634Y145501D01*
X342480Y146150D01*
X343129Y146996D01*
X343537Y147982D01*
X343677Y149039D01*
X343537Y150097D01*
X343129Y151082D01*
X342480Y151929D01*
X341634Y152578D01*
X340648Y152986D01*
X339591Y153126D01*
D02*
G37*
G36*
X329591D02*
X328533Y152986D01*
X327548Y152578D01*
X326701Y151929D01*
X326052Y151082D01*
X325644Y150097D01*
X325504Y149039D01*
X325644Y147982D01*
X326052Y146996D01*
X326701Y146150D01*
X327548Y145501D01*
X328533Y145092D01*
X329591Y144953D01*
X330648Y145092D01*
X331634Y145501D01*
X332480Y146150D01*
X333129Y146996D01*
X333538Y147982D01*
X333677Y149039D01*
X333538Y150097D01*
X333129Y151082D01*
X332480Y151929D01*
X331634Y152578D01*
X330648Y152986D01*
X329591Y153126D01*
D02*
G37*
G36*
X319590D02*
X318533Y152986D01*
X317547Y152578D01*
X316701Y151929D01*
X316052Y151082D01*
X315644Y150097D01*
X315504Y149039D01*
X315644Y147982D01*
X316052Y146996D01*
X316701Y146150D01*
X317547Y145501D01*
X318533Y145092D01*
X319590Y144953D01*
X320648Y145092D01*
X321634Y145501D01*
X322480Y146150D01*
X323129Y146996D01*
X323537Y147982D01*
X323677Y149039D01*
X323537Y150097D01*
X323129Y151082D01*
X322480Y151929D01*
X321634Y152578D01*
X320648Y152986D01*
X319590Y153126D01*
D02*
G37*
G36*
X259092Y150497D02*
Y144923D01*
X264666D01*
X264656Y145028D01*
X264261Y146332D01*
X263619Y147533D01*
X262755Y148585D01*
X261702Y149449D01*
X260501Y150091D01*
X259198Y150487D01*
X259092Y150497D01*
D02*
G37*
G36*
X256592D02*
X256487Y150487D01*
X255184Y150091D01*
X253983Y149449D01*
X252930Y148585D01*
X252066Y147533D01*
X251425Y146332D01*
X251029Y145028D01*
X251019Y144923D01*
X256592D01*
Y150497D01*
D02*
G37*
G36*
Y142423D02*
X251019D01*
X251029Y142318D01*
X251425Y141015D01*
X252066Y139814D01*
X252930Y138761D01*
X253983Y137897D01*
X255184Y137255D01*
X256487Y136860D01*
X256592Y136849D01*
Y142423D01*
D02*
G37*
G36*
X264666D02*
X259092D01*
Y136849D01*
X259198Y136860D01*
X260501Y137255D01*
X261702Y137897D01*
X262755Y138761D01*
X263619Y139814D01*
X264261Y141015D01*
X264656Y142318D01*
X264666Y142423D01*
D02*
G37*
G36*
X349590Y143125D02*
X348533Y142986D01*
X347548Y142578D01*
X346701Y141929D01*
X346052Y141082D01*
X345644Y140097D01*
X345504Y139039D01*
X345644Y137982D01*
X346052Y136996D01*
X346701Y136150D01*
X347548Y135501D01*
X348533Y135092D01*
X349590Y134953D01*
X350648Y135092D01*
X351634Y135501D01*
X352480Y136150D01*
X353129Y136996D01*
X353538Y137982D01*
X353677Y139039D01*
X353538Y140097D01*
X353129Y141082D01*
X352480Y141929D01*
X351634Y142578D01*
X350648Y142986D01*
X349590Y143125D01*
D02*
G37*
G36*
X339591D02*
X338533Y142986D01*
X337547Y142578D01*
X336701Y141929D01*
X336052Y141082D01*
X335644Y140097D01*
X335504Y139039D01*
X335644Y137982D01*
X336052Y136996D01*
X336701Y136150D01*
X337547Y135501D01*
X338533Y135092D01*
X339591Y134953D01*
X340648Y135092D01*
X341634Y135501D01*
X342480Y136150D01*
X343129Y136996D01*
X343537Y137982D01*
X343677Y139039D01*
X343537Y140097D01*
X343129Y141082D01*
X342480Y141929D01*
X341634Y142578D01*
X340648Y142986D01*
X339591Y143125D01*
D02*
G37*
G36*
X329591D02*
X328533Y142986D01*
X327548Y142578D01*
X326701Y141929D01*
X326052Y141082D01*
X325644Y140097D01*
X325504Y139039D01*
X325644Y137982D01*
X326052Y136996D01*
X326701Y136150D01*
X327548Y135501D01*
X328533Y135092D01*
X329591Y134953D01*
X330648Y135092D01*
X331634Y135501D01*
X332480Y136150D01*
X333129Y136996D01*
X333538Y137982D01*
X333677Y139039D01*
X333538Y140097D01*
X333129Y141082D01*
X332480Y141929D01*
X331634Y142578D01*
X330648Y142986D01*
X329591Y143125D01*
D02*
G37*
G36*
X319590D02*
X318533Y142986D01*
X317547Y142578D01*
X316701Y141929D01*
X316052Y141082D01*
X315644Y140097D01*
X315504Y139039D01*
X315644Y137982D01*
X316052Y136996D01*
X316701Y136150D01*
X317547Y135501D01*
X318533Y135092D01*
X319590Y134953D01*
X320648Y135092D01*
X321634Y135501D01*
X322480Y136150D01*
X323129Y136996D01*
X323537Y137982D01*
X323677Y139039D01*
X323537Y140097D01*
X323129Y141082D01*
X322480Y141929D01*
X321634Y142578D01*
X320648Y142986D01*
X319590Y143125D01*
D02*
G37*
G36*
X289092Y140497D02*
Y134923D01*
X294666D01*
X294656Y135029D01*
X294261Y136332D01*
X293619Y137533D01*
X292755Y138585D01*
X291702Y139449D01*
X290501Y140091D01*
X289198Y140487D01*
X289092Y140497D01*
D02*
G37*
G36*
X286593D02*
X286487Y140487D01*
X285184Y140091D01*
X283983Y139449D01*
X282930Y138585D01*
X282066Y137533D01*
X281424Y136332D01*
X281029Y135029D01*
X281019Y134923D01*
X286593D01*
Y140497D01*
D02*
G37*
G36*
Y132423D02*
X281019D01*
X281029Y132318D01*
X281424Y131015D01*
X282066Y129814D01*
X282930Y128761D01*
X283983Y127897D01*
X285184Y127255D01*
X286487Y126860D01*
X286593Y126849D01*
Y132423D01*
D02*
G37*
G36*
X294666D02*
X289092D01*
Y126849D01*
X289198Y126860D01*
X290501Y127255D01*
X291702Y127897D01*
X292755Y128761D01*
X293619Y129814D01*
X294261Y131015D01*
X294656Y132318D01*
X294666Y132423D01*
D02*
G37*
G36*
X349590Y133125D02*
X348533Y132986D01*
X347548Y132578D01*
X346701Y131929D01*
X346052Y131082D01*
X345644Y130097D01*
X345504Y129039D01*
X345644Y127982D01*
X346052Y126996D01*
X346701Y126150D01*
X347548Y125501D01*
X348533Y125092D01*
X349590Y124953D01*
X350648Y125092D01*
X351634Y125501D01*
X352480Y126150D01*
X353129Y126996D01*
X353538Y127982D01*
X353677Y129039D01*
X353538Y130097D01*
X353129Y131082D01*
X352480Y131929D01*
X351634Y132578D01*
X350648Y132986D01*
X349590Y133125D01*
D02*
G37*
G36*
X339591D02*
X338533Y132986D01*
X337547Y132578D01*
X336701Y131929D01*
X336052Y131082D01*
X335644Y130097D01*
X335504Y129039D01*
X335644Y127982D01*
X336052Y126996D01*
X336701Y126150D01*
X337547Y125501D01*
X338533Y125092D01*
X339591Y124953D01*
X340648Y125092D01*
X341634Y125501D01*
X342480Y126150D01*
X343129Y126996D01*
X343537Y127982D01*
X343677Y129039D01*
X343537Y130097D01*
X343129Y131082D01*
X342480Y131929D01*
X341634Y132578D01*
X340648Y132986D01*
X339591Y133125D01*
D02*
G37*
G36*
X329591D02*
X328533Y132986D01*
X327548Y132578D01*
X326701Y131929D01*
X326052Y131082D01*
X325644Y130097D01*
X325504Y129039D01*
X325644Y127982D01*
X326052Y126996D01*
X326701Y126150D01*
X327548Y125501D01*
X328533Y125092D01*
X329591Y124953D01*
X330648Y125092D01*
X331634Y125501D01*
X332480Y126150D01*
X333129Y126996D01*
X333538Y127982D01*
X333677Y129039D01*
X333538Y130097D01*
X333129Y131082D01*
X332480Y131929D01*
X331634Y132578D01*
X330648Y132986D01*
X329591Y133125D01*
D02*
G37*
G36*
X319590D02*
X318533Y132986D01*
X317547Y132578D01*
X316701Y131929D01*
X316052Y131082D01*
X315644Y130097D01*
X315504Y129039D01*
X315644Y127982D01*
X316052Y126996D01*
X316701Y126150D01*
X317547Y125501D01*
X318533Y125092D01*
X319590Y124953D01*
X320648Y125092D01*
X321634Y125501D01*
X322480Y126150D01*
X323129Y126996D01*
X323537Y127982D01*
X323677Y129039D01*
X323537Y130097D01*
X323129Y131082D01*
X322480Y131929D01*
X321634Y132578D01*
X320648Y132986D01*
X319590Y133125D01*
D02*
G37*
G36*
X259092Y130497D02*
Y124923D01*
X264666D01*
X264656Y125029D01*
X264261Y126332D01*
X263619Y127533D01*
X262755Y128585D01*
X261702Y129449D01*
X260501Y130091D01*
X259198Y130487D01*
X259092Y130497D01*
D02*
G37*
G36*
X256592D02*
X256487Y130487D01*
X255184Y130091D01*
X253983Y129449D01*
X252930Y128585D01*
X252066Y127533D01*
X251425Y126332D01*
X251029Y125029D01*
X251019Y124923D01*
X256592D01*
Y130497D01*
D02*
G37*
G36*
Y122423D02*
X251019D01*
X251029Y122318D01*
X251425Y121015D01*
X252066Y119814D01*
X252930Y118761D01*
X253983Y117897D01*
X255184Y117255D01*
X256487Y116860D01*
X256592Y116850D01*
Y122423D01*
D02*
G37*
G36*
X264666D02*
X259092D01*
Y116850D01*
X259198Y116860D01*
X260501Y117255D01*
X261702Y117897D01*
X262755Y118761D01*
X263619Y119814D01*
X264261Y121015D01*
X264656Y122318D01*
X264666Y122423D01*
D02*
G37*
G36*
X349590Y123126D02*
X348533Y122986D01*
X347548Y122578D01*
X346701Y121929D01*
X346052Y121082D01*
X345644Y120097D01*
X345504Y119039D01*
X345644Y117982D01*
X346052Y116996D01*
X346701Y116150D01*
X347548Y115501D01*
X348533Y115093D01*
X349590Y114953D01*
X350648Y115093D01*
X351634Y115501D01*
X352480Y116150D01*
X353129Y116996D01*
X353538Y117982D01*
X353677Y119039D01*
X353538Y120097D01*
X353129Y121082D01*
X352480Y121929D01*
X351634Y122578D01*
X350648Y122986D01*
X349590Y123126D01*
D02*
G37*
G36*
X339591D02*
X338533Y122986D01*
X337547Y122578D01*
X336701Y121929D01*
X336052Y121082D01*
X335644Y120097D01*
X335504Y119039D01*
X335644Y117982D01*
X336052Y116996D01*
X336701Y116150D01*
X337547Y115501D01*
X338533Y115093D01*
X339591Y114953D01*
X340648Y115093D01*
X341634Y115501D01*
X342480Y116150D01*
X343129Y116996D01*
X343537Y117982D01*
X343677Y119039D01*
X343537Y120097D01*
X343129Y121082D01*
X342480Y121929D01*
X341634Y122578D01*
X340648Y122986D01*
X339591Y123126D01*
D02*
G37*
G36*
X329591D02*
X328533Y122986D01*
X327548Y122578D01*
X326701Y121929D01*
X326052Y121082D01*
X325644Y120097D01*
X325504Y119039D01*
X325644Y117982D01*
X326052Y116996D01*
X326701Y116150D01*
X327548Y115501D01*
X328533Y115093D01*
X329591Y114953D01*
X330648Y115093D01*
X331634Y115501D01*
X332480Y116150D01*
X333129Y116996D01*
X333538Y117982D01*
X333677Y119039D01*
X333538Y120097D01*
X333129Y121082D01*
X332480Y121929D01*
X331634Y122578D01*
X330648Y122986D01*
X329591Y123126D01*
D02*
G37*
G36*
X319590D02*
X318533Y122986D01*
X317547Y122578D01*
X316701Y121929D01*
X316052Y121082D01*
X315644Y120097D01*
X315504Y119039D01*
X315644Y117982D01*
X316052Y116996D01*
X316701Y116150D01*
X317547Y115501D01*
X318533Y115093D01*
X319590Y114953D01*
X320648Y115093D01*
X321634Y115501D01*
X322480Y116150D01*
X323129Y116996D01*
X323537Y117982D01*
X323677Y119039D01*
X323537Y120097D01*
X323129Y121082D01*
X322480Y121929D01*
X321634Y122578D01*
X320648Y122986D01*
X319590Y123126D01*
D02*
G37*
G36*
X349590Y113126D02*
X348533Y112986D01*
X347548Y112578D01*
X346701Y111929D01*
X346052Y111082D01*
X345644Y110097D01*
X345504Y109039D01*
X345644Y107982D01*
X346052Y106996D01*
X346701Y106150D01*
X347548Y105501D01*
X348533Y105093D01*
X349590Y104953D01*
X350648Y105093D01*
X351634Y105501D01*
X352480Y106150D01*
X353129Y106996D01*
X353538Y107982D01*
X353677Y109039D01*
X353538Y110097D01*
X353129Y111082D01*
X352480Y111929D01*
X351634Y112578D01*
X350648Y112986D01*
X349590Y113126D01*
D02*
G37*
G36*
X339591D02*
X338533Y112986D01*
X337547Y112578D01*
X336701Y111929D01*
X336052Y111082D01*
X335644Y110097D01*
X335504Y109039D01*
X335644Y107982D01*
X336052Y106996D01*
X336701Y106150D01*
X337547Y105501D01*
X338533Y105093D01*
X339591Y104953D01*
X340648Y105093D01*
X341634Y105501D01*
X342480Y106150D01*
X343129Y106996D01*
X343537Y107982D01*
X343677Y109039D01*
X343537Y110097D01*
X343129Y111082D01*
X342480Y111929D01*
X341634Y112578D01*
X340648Y112986D01*
X339591Y113126D01*
D02*
G37*
G36*
X329591D02*
X328533Y112986D01*
X327548Y112578D01*
X326701Y111929D01*
X326052Y111082D01*
X325644Y110097D01*
X325504Y109039D01*
X325644Y107982D01*
X326052Y106996D01*
X326701Y106150D01*
X327548Y105501D01*
X328533Y105093D01*
X329591Y104953D01*
X330648Y105093D01*
X331634Y105501D01*
X332480Y106150D01*
X333129Y106996D01*
X333538Y107982D01*
X333677Y109039D01*
X333538Y110097D01*
X333129Y111082D01*
X332480Y111929D01*
X331634Y112578D01*
X330648Y112986D01*
X329591Y113126D01*
D02*
G37*
G36*
X319590D02*
X318533Y112986D01*
X317547Y112578D01*
X316701Y111929D01*
X316052Y111082D01*
X315644Y110097D01*
X315504Y109039D01*
X315644Y107982D01*
X316052Y106996D01*
X316701Y106150D01*
X317547Y105501D01*
X318533Y105093D01*
X319590Y104953D01*
X320648Y105093D01*
X321634Y105501D01*
X322480Y106150D01*
X323129Y106996D01*
X323537Y107982D01*
X323677Y109039D01*
X323537Y110097D01*
X323129Y111082D01*
X322480Y111929D01*
X321634Y112578D01*
X320648Y112986D01*
X319590Y113126D01*
D02*
G37*
G36*
X349590Y103126D02*
X348533Y102986D01*
X347548Y102578D01*
X346701Y101929D01*
X346052Y101082D01*
X345644Y100097D01*
X345504Y99039D01*
X345644Y97982D01*
X346052Y96996D01*
X346701Y96150D01*
X347548Y95501D01*
X348533Y95092D01*
X349590Y94953D01*
X350648Y95092D01*
X351634Y95501D01*
X352480Y96150D01*
X353129Y96996D01*
X353538Y97982D01*
X353677Y99039D01*
X353538Y100097D01*
X353129Y101082D01*
X352480Y101929D01*
X351634Y102578D01*
X350648Y102986D01*
X349590Y103126D01*
D02*
G37*
G36*
X339591D02*
X338533Y102986D01*
X337547Y102578D01*
X336701Y101929D01*
X336052Y101082D01*
X335644Y100097D01*
X335504Y99039D01*
X335644Y97982D01*
X336052Y96996D01*
X336701Y96150D01*
X337547Y95501D01*
X338533Y95092D01*
X339591Y94953D01*
X340648Y95092D01*
X341634Y95501D01*
X342480Y96150D01*
X343129Y96996D01*
X343537Y97982D01*
X343677Y99039D01*
X343537Y100097D01*
X343129Y101082D01*
X342480Y101929D01*
X341634Y102578D01*
X340648Y102986D01*
X339591Y103126D01*
D02*
G37*
G36*
X329591D02*
X328533Y102986D01*
X327548Y102578D01*
X326701Y101929D01*
X326052Y101082D01*
X325644Y100097D01*
X325504Y99039D01*
X325644Y97982D01*
X326052Y96996D01*
X326701Y96150D01*
X327548Y95501D01*
X328533Y95092D01*
X329591Y94953D01*
X330648Y95092D01*
X331634Y95501D01*
X332480Y96150D01*
X333129Y96996D01*
X333538Y97982D01*
X333677Y99039D01*
X333538Y100097D01*
X333129Y101082D01*
X332480Y101929D01*
X331634Y102578D01*
X330648Y102986D01*
X329591Y103126D01*
D02*
G37*
G36*
X319590D02*
X318533Y102986D01*
X317547Y102578D01*
X316701Y101929D01*
X316052Y101082D01*
X315644Y100097D01*
X315504Y99039D01*
X315644Y97982D01*
X316052Y96996D01*
X316701Y96150D01*
X317547Y95501D01*
X318533Y95092D01*
X319590Y94953D01*
X320648Y95092D01*
X321634Y95501D01*
X322480Y96150D01*
X323129Y96996D01*
X323537Y97982D01*
X323677Y99039D01*
X323537Y100097D01*
X323129Y101082D01*
X322480Y101929D01*
X321634Y102578D01*
X320648Y102986D01*
X319590Y103126D01*
D02*
G37*
G36*
X349590Y93125D02*
X348533Y92986D01*
X347548Y92578D01*
X346701Y91929D01*
X346052Y91082D01*
X345644Y90097D01*
X345504Y89039D01*
X345644Y87982D01*
X346052Y86996D01*
X346701Y86150D01*
X347548Y85501D01*
X348533Y85093D01*
X349590Y84953D01*
X350648Y85093D01*
X351634Y85501D01*
X352480Y86150D01*
X353129Y86996D01*
X353538Y87982D01*
X353677Y89039D01*
X353538Y90097D01*
X353129Y91082D01*
X352480Y91929D01*
X351634Y92578D01*
X350648Y92986D01*
X349590Y93125D01*
D02*
G37*
G36*
X339591D02*
X338533Y92986D01*
X337547Y92578D01*
X336701Y91929D01*
X336052Y91082D01*
X335644Y90097D01*
X335504Y89039D01*
X335644Y87982D01*
X336052Y86996D01*
X336701Y86150D01*
X337547Y85501D01*
X338533Y85093D01*
X339591Y84953D01*
X340648Y85093D01*
X341634Y85501D01*
X342480Y86150D01*
X343129Y86996D01*
X343537Y87982D01*
X343677Y89039D01*
X343537Y90097D01*
X343129Y91082D01*
X342480Y91929D01*
X341634Y92578D01*
X340648Y92986D01*
X339591Y93125D01*
D02*
G37*
G36*
X329591D02*
X328533Y92986D01*
X327548Y92578D01*
X326701Y91929D01*
X326052Y91082D01*
X325644Y90097D01*
X325504Y89039D01*
X325644Y87982D01*
X326052Y86996D01*
X326701Y86150D01*
X327548Y85501D01*
X328533Y85093D01*
X329591Y84953D01*
X330648Y85093D01*
X331634Y85501D01*
X332480Y86150D01*
X333129Y86996D01*
X333538Y87982D01*
X333677Y89039D01*
X333538Y90097D01*
X333129Y91082D01*
X332480Y91929D01*
X331634Y92578D01*
X330648Y92986D01*
X329591Y93125D01*
D02*
G37*
G36*
X319590D02*
X318533Y92986D01*
X317547Y92578D01*
X316701Y91929D01*
X316052Y91082D01*
X315644Y90097D01*
X315504Y89039D01*
X315644Y87982D01*
X316052Y86996D01*
X316701Y86150D01*
X317547Y85501D01*
X318533Y85093D01*
X319590Y84953D01*
X320648Y85093D01*
X321634Y85501D01*
X322480Y86150D01*
X323129Y86996D01*
X323537Y87982D01*
X323677Y89039D01*
X323537Y90097D01*
X323129Y91082D01*
X322480Y91929D01*
X321634Y92578D01*
X320648Y92986D01*
X319590Y93125D01*
D02*
G37*
G36*
X349590Y83126D02*
X348533Y82986D01*
X347548Y82578D01*
X346701Y81929D01*
X346052Y81082D01*
X345644Y80097D01*
X345504Y79039D01*
X345644Y77982D01*
X346052Y76996D01*
X346701Y76150D01*
X347548Y75501D01*
X348533Y75093D01*
X349590Y74953D01*
X350648Y75093D01*
X351634Y75501D01*
X352480Y76150D01*
X353129Y76996D01*
X353538Y77982D01*
X353677Y79039D01*
X353538Y80097D01*
X353129Y81082D01*
X352480Y81929D01*
X351634Y82578D01*
X350648Y82986D01*
X349590Y83126D01*
D02*
G37*
G36*
X339591D02*
X338533Y82986D01*
X337547Y82578D01*
X336701Y81929D01*
X336052Y81082D01*
X335644Y80097D01*
X335504Y79039D01*
X335644Y77982D01*
X336052Y76996D01*
X336701Y76150D01*
X337547Y75501D01*
X338533Y75093D01*
X339591Y74953D01*
X340648Y75093D01*
X341634Y75501D01*
X342480Y76150D01*
X343129Y76996D01*
X343537Y77982D01*
X343677Y79039D01*
X343537Y80097D01*
X343129Y81082D01*
X342480Y81929D01*
X341634Y82578D01*
X340648Y82986D01*
X339591Y83126D01*
D02*
G37*
G36*
X329591D02*
X328533Y82986D01*
X327548Y82578D01*
X326701Y81929D01*
X326052Y81082D01*
X325644Y80097D01*
X325504Y79039D01*
X325644Y77982D01*
X326052Y76996D01*
X326701Y76150D01*
X327548Y75501D01*
X328533Y75093D01*
X329591Y74953D01*
X330648Y75093D01*
X331634Y75501D01*
X332480Y76150D01*
X333129Y76996D01*
X333538Y77982D01*
X333677Y79039D01*
X333538Y80097D01*
X333129Y81082D01*
X332480Y81929D01*
X331634Y82578D01*
X330648Y82986D01*
X329591Y83126D01*
D02*
G37*
G36*
X319590D02*
X318533Y82986D01*
X317547Y82578D01*
X316701Y81929D01*
X316052Y81082D01*
X315644Y80097D01*
X315504Y79039D01*
X315644Y77982D01*
X316052Y76996D01*
X316701Y76150D01*
X317547Y75501D01*
X318533Y75093D01*
X319590Y74953D01*
X320648Y75093D01*
X321634Y75501D01*
X322480Y76150D01*
X323129Y76996D01*
X323537Y77982D01*
X323677Y79039D01*
X323537Y80097D01*
X323129Y81082D01*
X322480Y81929D01*
X321634Y82578D01*
X320648Y82986D01*
X319590Y83126D01*
D02*
G37*
G36*
X349590Y73125D02*
X348533Y72986D01*
X347548Y72578D01*
X346701Y71929D01*
X346052Y71082D01*
X345644Y70097D01*
X345504Y69039D01*
X345644Y67982D01*
X346052Y66996D01*
X346701Y66150D01*
X347548Y65501D01*
X348533Y65092D01*
X349590Y64953D01*
X350648Y65092D01*
X351634Y65501D01*
X352480Y66150D01*
X353129Y66996D01*
X353538Y67982D01*
X353677Y69039D01*
X353538Y70097D01*
X353129Y71082D01*
X352480Y71929D01*
X351634Y72578D01*
X350648Y72986D01*
X349590Y73125D01*
D02*
G37*
G36*
X339591D02*
X338533Y72986D01*
X337547Y72578D01*
X336701Y71929D01*
X336052Y71082D01*
X335644Y70097D01*
X335504Y69039D01*
X335644Y67982D01*
X336052Y66996D01*
X336701Y66150D01*
X337547Y65501D01*
X338533Y65092D01*
X339591Y64953D01*
X340648Y65092D01*
X341634Y65501D01*
X342480Y66150D01*
X343129Y66996D01*
X343537Y67982D01*
X343677Y69039D01*
X343537Y70097D01*
X343129Y71082D01*
X342480Y71929D01*
X341634Y72578D01*
X340648Y72986D01*
X339591Y73125D01*
D02*
G37*
G36*
X329591D02*
X328533Y72986D01*
X327548Y72578D01*
X326701Y71929D01*
X326052Y71082D01*
X325644Y70097D01*
X325504Y69039D01*
X325644Y67982D01*
X326052Y66996D01*
X326701Y66150D01*
X327548Y65501D01*
X328533Y65092D01*
X329591Y64953D01*
X330648Y65092D01*
X331634Y65501D01*
X332480Y66150D01*
X333129Y66996D01*
X333538Y67982D01*
X333677Y69039D01*
X333538Y70097D01*
X333129Y71082D01*
X332480Y71929D01*
X331634Y72578D01*
X330648Y72986D01*
X329591Y73125D01*
D02*
G37*
G36*
X319590D02*
X318533Y72986D01*
X317547Y72578D01*
X316701Y71929D01*
X316052Y71082D01*
X315644Y70097D01*
X315504Y69039D01*
X315644Y67982D01*
X316052Y66996D01*
X316701Y66150D01*
X317547Y65501D01*
X318533Y65092D01*
X319590Y64953D01*
X320648Y65092D01*
X321634Y65501D01*
X322480Y66150D01*
X323129Y66996D01*
X323537Y67982D01*
X323677Y69039D01*
X323537Y70097D01*
X323129Y71082D01*
X322480Y71929D01*
X321634Y72578D01*
X320648Y72986D01*
X319590Y73125D01*
D02*
G37*
G36*
X259092Y65536D02*
Y59963D01*
X264666D01*
X264656Y60068D01*
X264261Y61371D01*
X263619Y62572D01*
X262755Y63625D01*
X261702Y64489D01*
X260501Y65131D01*
X259198Y65526D01*
X259092Y65536D01*
D02*
G37*
G36*
X256592D02*
X256487Y65526D01*
X255184Y65131D01*
X253983Y64489D01*
X252930Y63625D01*
X252066Y62572D01*
X251425Y61371D01*
X251029Y60068D01*
X251019Y59963D01*
X256592D01*
Y65536D01*
D02*
G37*
G36*
X349590Y63125D02*
X348533Y62986D01*
X347548Y62578D01*
X346701Y61929D01*
X346052Y61082D01*
X345644Y60097D01*
X345504Y59039D01*
X345644Y57982D01*
X346052Y56996D01*
X346701Y56150D01*
X347548Y55501D01*
X348533Y55093D01*
X349590Y54953D01*
X350648Y55093D01*
X351634Y55501D01*
X352480Y56150D01*
X353129Y56996D01*
X353538Y57982D01*
X353677Y59039D01*
X353538Y60097D01*
X353129Y61082D01*
X352480Y61929D01*
X351634Y62578D01*
X350648Y62986D01*
X349590Y63125D01*
D02*
G37*
G36*
X339591D02*
X338533Y62986D01*
X337547Y62578D01*
X336701Y61929D01*
X336052Y61082D01*
X335644Y60097D01*
X335504Y59039D01*
X335644Y57982D01*
X336052Y56996D01*
X336701Y56150D01*
X337547Y55501D01*
X338533Y55093D01*
X339591Y54953D01*
X340648Y55093D01*
X341634Y55501D01*
X342480Y56150D01*
X343129Y56996D01*
X343537Y57982D01*
X343677Y59039D01*
X343537Y60097D01*
X343129Y61082D01*
X342480Y61929D01*
X341634Y62578D01*
X340648Y62986D01*
X339591Y63125D01*
D02*
G37*
G36*
X329591D02*
X328533Y62986D01*
X327548Y62578D01*
X326701Y61929D01*
X326052Y61082D01*
X325644Y60097D01*
X325504Y59039D01*
X325644Y57982D01*
X326052Y56996D01*
X326701Y56150D01*
X327548Y55501D01*
X328533Y55093D01*
X329591Y54953D01*
X330648Y55093D01*
X331634Y55501D01*
X332480Y56150D01*
X333129Y56996D01*
X333538Y57982D01*
X333677Y59039D01*
X333538Y60097D01*
X333129Y61082D01*
X332480Y61929D01*
X331634Y62578D01*
X330648Y62986D01*
X329591Y63125D01*
D02*
G37*
G36*
X319590D02*
X318533Y62986D01*
X317547Y62578D01*
X316701Y61929D01*
X316052Y61082D01*
X315644Y60097D01*
X315504Y59039D01*
X315644Y57982D01*
X316052Y56996D01*
X316701Y56150D01*
X317547Y55501D01*
X318533Y55093D01*
X319590Y54953D01*
X320648Y55093D01*
X321634Y55501D01*
X322480Y56150D01*
X323129Y56996D01*
X323537Y57982D01*
X323677Y59039D01*
X323537Y60097D01*
X323129Y61082D01*
X322480Y61929D01*
X321634Y62578D01*
X320648Y62986D01*
X319590Y63125D01*
D02*
G37*
G36*
X256592Y57463D02*
X251019D01*
X251029Y57357D01*
X251425Y56054D01*
X252066Y54853D01*
X252930Y53800D01*
X253983Y52937D01*
X255184Y52295D01*
X256487Y51899D01*
X256592Y51889D01*
Y57463D01*
D02*
G37*
G36*
X264666D02*
X259092D01*
Y51889D01*
X259198Y51899D01*
X260501Y52295D01*
X261702Y52937D01*
X262755Y53800D01*
X263619Y54853D01*
X264261Y56054D01*
X264656Y57357D01*
X264666Y57463D01*
D02*
G37*
G36*
X289092Y55536D02*
Y49963D01*
X294666D01*
X294656Y50068D01*
X294261Y51371D01*
X293619Y52572D01*
X292755Y53625D01*
X291702Y54489D01*
X290501Y55131D01*
X289198Y55526D01*
X289092Y55536D01*
D02*
G37*
G36*
X286593D02*
X286487Y55526D01*
X285184Y55131D01*
X283983Y54489D01*
X282930Y53625D01*
X282066Y52572D01*
X281424Y51371D01*
X281029Y50068D01*
X281019Y49963D01*
X286593D01*
Y55536D01*
D02*
G37*
G36*
X349590Y53126D02*
X348533Y52986D01*
X347548Y52578D01*
X346701Y51929D01*
X346052Y51082D01*
X345644Y50097D01*
X345504Y49039D01*
X345644Y47982D01*
X346052Y46996D01*
X346701Y46150D01*
X347548Y45501D01*
X348533Y45092D01*
X349590Y44953D01*
X350648Y45092D01*
X351634Y45501D01*
X352480Y46150D01*
X353129Y46996D01*
X353538Y47982D01*
X353677Y49039D01*
X353538Y50097D01*
X353129Y51082D01*
X352480Y51929D01*
X351634Y52578D01*
X350648Y52986D01*
X349590Y53126D01*
D02*
G37*
G36*
X339591D02*
X338533Y52986D01*
X337547Y52578D01*
X336701Y51929D01*
X336052Y51082D01*
X335644Y50097D01*
X335504Y49039D01*
X335644Y47982D01*
X336052Y46996D01*
X336701Y46150D01*
X337547Y45501D01*
X338533Y45092D01*
X339591Y44953D01*
X340648Y45092D01*
X341634Y45501D01*
X342480Y46150D01*
X343129Y46996D01*
X343537Y47982D01*
X343677Y49039D01*
X343537Y50097D01*
X343129Y51082D01*
X342480Y51929D01*
X341634Y52578D01*
X340648Y52986D01*
X339591Y53126D01*
D02*
G37*
G36*
X329591D02*
X328533Y52986D01*
X327548Y52578D01*
X326701Y51929D01*
X326052Y51082D01*
X325644Y50097D01*
X325504Y49039D01*
X325644Y47982D01*
X326052Y46996D01*
X326701Y46150D01*
X327548Y45501D01*
X328533Y45092D01*
X329591Y44953D01*
X330648Y45092D01*
X331634Y45501D01*
X332480Y46150D01*
X333129Y46996D01*
X333538Y47982D01*
X333677Y49039D01*
X333538Y50097D01*
X333129Y51082D01*
X332480Y51929D01*
X331634Y52578D01*
X330648Y52986D01*
X329591Y53126D01*
D02*
G37*
G36*
X319590D02*
X318533Y52986D01*
X317547Y52578D01*
X316701Y51929D01*
X316052Y51082D01*
X315644Y50097D01*
X315504Y49039D01*
X315644Y47982D01*
X316052Y46996D01*
X316701Y46150D01*
X317547Y45501D01*
X318533Y45092D01*
X319590Y44953D01*
X320648Y45092D01*
X321634Y45501D01*
X322480Y46150D01*
X323129Y46996D01*
X323537Y47982D01*
X323677Y49039D01*
X323537Y50097D01*
X323129Y51082D01*
X322480Y51929D01*
X321634Y52578D01*
X320648Y52986D01*
X319590Y53126D01*
D02*
G37*
G36*
X286593Y47463D02*
X281019D01*
X281029Y47357D01*
X281424Y46054D01*
X282066Y44853D01*
X282930Y43801D01*
X283983Y42937D01*
X285184Y42295D01*
X286487Y41899D01*
X286593Y41889D01*
Y47463D01*
D02*
G37*
G36*
X294666D02*
X289092D01*
Y41889D01*
X289198Y41899D01*
X290501Y42295D01*
X291702Y42937D01*
X292755Y43801D01*
X293619Y44853D01*
X294261Y46054D01*
X294656Y47357D01*
X294666Y47463D01*
D02*
G37*
G36*
X259092Y45536D02*
Y39963D01*
X264666D01*
X264656Y40068D01*
X264261Y41371D01*
X263619Y42572D01*
X262755Y43625D01*
X261702Y44489D01*
X260501Y45131D01*
X259198Y45526D01*
X259092Y45536D01*
D02*
G37*
G36*
X256592D02*
X256487Y45526D01*
X255184Y45131D01*
X253983Y44489D01*
X252930Y43625D01*
X252066Y42572D01*
X251425Y41371D01*
X251029Y40068D01*
X251019Y39963D01*
X256592D01*
Y45536D01*
D02*
G37*
G36*
X20620Y142243D02*
Y139085D01*
X23778D01*
X23346Y140130D01*
X22616Y141081D01*
X21665Y141810D01*
X20620Y142243D01*
D02*
G37*
G36*
X10620D02*
Y139085D01*
X13779D01*
X13345Y140130D01*
X12616Y141081D01*
X11665Y141810D01*
X10620Y142243D01*
D02*
G37*
G36*
X18120D02*
X17075Y141810D01*
X16124Y141081D01*
X15395Y140130D01*
X14962Y139085D01*
X18120D01*
Y142243D01*
D02*
G37*
G36*
X8120D02*
X7075Y141810D01*
X6124Y141081D01*
X5395Y140130D01*
X4962Y139085D01*
X8120D01*
Y142243D01*
D02*
G37*
G36*
X82033Y233072D02*
Y227498D01*
X87607D01*
X87597Y227603D01*
X87201Y228906D01*
X86559Y230107D01*
X85696Y231160D01*
X84643Y232024D01*
X83442Y232666D01*
X82139Y233061D01*
X82033Y233072D01*
D02*
G37*
G36*
X79533D02*
X79428Y233061D01*
X78125Y232666D01*
X76924Y232024D01*
X75871Y231160D01*
X75007Y230107D01*
X74365Y228906D01*
X73970Y227603D01*
X73960Y227498D01*
X79533D01*
Y233072D01*
D02*
G37*
G36*
X87607Y224998D02*
X82033D01*
Y219424D01*
X82139Y219435D01*
X83442Y219830D01*
X84643Y220472D01*
X85696Y221336D01*
X86559Y222389D01*
X87201Y223590D01*
X87597Y224893D01*
X87607Y224998D01*
D02*
G37*
G36*
X79533D02*
X73960D01*
X73970Y224893D01*
X74365Y223590D01*
X75007Y222389D01*
X75871Y221336D01*
X76924Y220472D01*
X78125Y219830D01*
X79428Y219435D01*
X79533Y219424D01*
Y224998D01*
D02*
G37*
G36*
X52034Y223072D02*
Y217498D01*
X57607D01*
X57597Y217603D01*
X57201Y218906D01*
X56559Y220108D01*
X55696Y221160D01*
X54643Y222024D01*
X53442Y222666D01*
X52139Y223061D01*
X52034Y223072D01*
D02*
G37*
G36*
X49533D02*
X49428Y223061D01*
X48125Y222666D01*
X46924Y222024D01*
X45871Y221160D01*
X45007Y220108D01*
X44365Y218906D01*
X43970Y217603D01*
X43960Y217498D01*
X49533D01*
Y223072D01*
D02*
G37*
G36*
X57607Y214998D02*
X52034D01*
Y209424D01*
X52139Y209435D01*
X53442Y209830D01*
X54643Y210472D01*
X55696Y211336D01*
X56559Y212389D01*
X57201Y213590D01*
X57597Y214893D01*
X57607Y214998D01*
D02*
G37*
G36*
X49533D02*
X43960D01*
X43970Y214893D01*
X44365Y213590D01*
X45007Y212389D01*
X45871Y211336D01*
X46924Y210472D01*
X48125Y209830D01*
X49428Y209435D01*
X49533Y209424D01*
Y214998D01*
D02*
G37*
G36*
X82033Y213072D02*
Y207498D01*
X87607D01*
X87597Y207603D01*
X87201Y208907D01*
X86559Y210107D01*
X85696Y211160D01*
X84643Y212024D01*
X83442Y212666D01*
X82139Y213061D01*
X82033Y213072D01*
D02*
G37*
G36*
X79533D02*
X79428Y213061D01*
X78125Y212666D01*
X76924Y212024D01*
X75871Y211160D01*
X75007Y210107D01*
X74365Y208907D01*
X73970Y207603D01*
X73960Y207498D01*
X79533D01*
Y213072D01*
D02*
G37*
G36*
X87607Y204998D02*
X82033D01*
Y199424D01*
X82139Y199435D01*
X83442Y199830D01*
X84643Y200472D01*
X85696Y201336D01*
X86559Y202389D01*
X87201Y203590D01*
X87597Y204893D01*
X87607Y204998D01*
D02*
G37*
G36*
X79533D02*
X73960D01*
X73970Y204893D01*
X74365Y203590D01*
X75007Y202389D01*
X75871Y201336D01*
X76924Y200472D01*
X78125Y199830D01*
X79428Y199435D01*
X79533Y199424D01*
Y204998D01*
D02*
G37*
G36*
X80063Y190831D02*
X78052Y190673D01*
X76091Y190202D01*
X74229Y189430D01*
X72509Y188377D01*
X70976Y187067D01*
X69666Y185534D01*
X68613Y183814D01*
X67841Y181951D01*
X67370Y179991D01*
X67212Y177980D01*
X67370Y175970D01*
X67841Y174009D01*
X68613Y172146D01*
X69666Y170427D01*
X70976Y168894D01*
X72509Y167584D01*
X74229Y166530D01*
X76091Y165759D01*
X78052Y165288D01*
X80063Y165130D01*
X82073Y165288D01*
X84034Y165759D01*
X85897Y166530D01*
X87616Y167584D01*
X89149Y168894D01*
X90459Y170427D01*
X91513Y172146D01*
X92284Y174009D01*
X92755Y175970D01*
X92913Y177980D01*
X92755Y179991D01*
X92284Y181951D01*
X91513Y183814D01*
X90459Y185534D01*
X89149Y187067D01*
X87616Y188377D01*
X85897Y189430D01*
X84034Y190202D01*
X82073Y190673D01*
X80063Y190831D01*
D02*
G37*
G36*
X82033Y150497D02*
Y144923D01*
X87607D01*
X87597Y145028D01*
X87201Y146332D01*
X86559Y147533D01*
X85696Y148585D01*
X84643Y149449D01*
X83442Y150091D01*
X82139Y150487D01*
X82033Y150497D01*
D02*
G37*
G36*
X79533D02*
X79428Y150487D01*
X78125Y150091D01*
X76924Y149449D01*
X75871Y148585D01*
X75007Y147533D01*
X74365Y146332D01*
X73970Y145028D01*
X73960Y144923D01*
X79533D01*
Y150497D01*
D02*
G37*
G36*
X87607Y142423D02*
X82033D01*
Y136849D01*
X82139Y136860D01*
X83442Y137255D01*
X84643Y137897D01*
X85696Y138761D01*
X86559Y139814D01*
X87201Y141015D01*
X87597Y142318D01*
X87607Y142423D01*
D02*
G37*
G36*
X79533D02*
X73960D01*
X73970Y142318D01*
X74365Y141015D01*
X75007Y139814D01*
X75871Y138761D01*
X76924Y137897D01*
X78125Y137255D01*
X79428Y136860D01*
X79533Y136849D01*
Y142423D01*
D02*
G37*
G36*
X52034Y140497D02*
Y134923D01*
X57607D01*
X57597Y135029D01*
X57201Y136332D01*
X56559Y137533D01*
X55696Y138585D01*
X54643Y139449D01*
X53442Y140091D01*
X52139Y140487D01*
X52034Y140497D01*
D02*
G37*
G36*
X49533D02*
X49428Y140487D01*
X48125Y140091D01*
X46924Y139449D01*
X45871Y138585D01*
X45007Y137533D01*
X44365Y136332D01*
X43970Y135029D01*
X43960Y134923D01*
X49533D01*
Y140497D01*
D02*
G37*
G36*
X57607Y132423D02*
X52034D01*
Y126849D01*
X52139Y126860D01*
X53442Y127255D01*
X54643Y127897D01*
X55696Y128761D01*
X56559Y129814D01*
X57201Y131015D01*
X57597Y132318D01*
X57607Y132423D01*
D02*
G37*
G36*
X49533D02*
X43960D01*
X43970Y132318D01*
X44365Y131015D01*
X45007Y129814D01*
X45871Y128761D01*
X46924Y127897D01*
X48125Y127255D01*
X49428Y126860D01*
X49533Y126849D01*
Y132423D01*
D02*
G37*
G36*
X82033Y130497D02*
Y124923D01*
X87607D01*
X87597Y125029D01*
X87201Y126332D01*
X86559Y127533D01*
X85696Y128585D01*
X84643Y129449D01*
X83442Y130091D01*
X82139Y130487D01*
X82033Y130497D01*
D02*
G37*
G36*
X79533D02*
X79428Y130487D01*
X78125Y130091D01*
X76924Y129449D01*
X75871Y128585D01*
X75007Y127533D01*
X74365Y126332D01*
X73970Y125029D01*
X73960Y124923D01*
X79533D01*
Y130497D01*
D02*
G37*
G36*
X87607Y122423D02*
X82033D01*
Y116850D01*
X82139Y116860D01*
X83442Y117255D01*
X84643Y117897D01*
X85696Y118761D01*
X86559Y119814D01*
X87201Y121015D01*
X87597Y122318D01*
X87607Y122423D01*
D02*
G37*
G36*
X79533D02*
X73960D01*
X73970Y122318D01*
X74365Y121015D01*
X75007Y119814D01*
X75871Y118761D01*
X76924Y117897D01*
X78125Y117255D01*
X79428Y116860D01*
X79533Y116850D01*
Y122423D01*
D02*
G37*
G36*
X23778Y106585D02*
X20620D01*
Y103426D01*
X21665Y103859D01*
X22616Y104589D01*
X23346Y105539D01*
X23778Y106585D01*
D02*
G37*
G36*
X13779D02*
X10620D01*
Y103426D01*
X11665Y103859D01*
X12616Y104589D01*
X13345Y105539D01*
X13779Y106585D01*
D02*
G37*
G36*
X8120D02*
X4962D01*
X5395Y105539D01*
X6124Y104589D01*
X7075Y103859D01*
X8120Y103426D01*
Y106585D01*
D02*
G37*
G36*
X18120D02*
X14962D01*
X15395Y105539D01*
X16124Y104589D01*
X17075Y103859D01*
X18120Y103426D01*
Y106585D01*
D02*
G37*
G36*
X23921Y102386D02*
X20620D01*
Y99085D01*
X23921D01*
Y102386D01*
D02*
G37*
G36*
X10620Y102243D02*
Y99085D01*
X13779D01*
X13345Y100130D01*
X12616Y101081D01*
X11665Y101810D01*
X10620Y102243D01*
D02*
G37*
G36*
X8120D02*
X7075Y101810D01*
X6124Y101081D01*
X5395Y100130D01*
X4962Y99085D01*
X8120D01*
Y102243D01*
D02*
G37*
G36*
X18120Y102386D02*
X14819D01*
Y99085D01*
X18120D01*
Y102386D01*
D02*
G37*
G36*
X13779Y96585D02*
X10620D01*
Y93426D01*
X11665Y93859D01*
X12616Y94589D01*
X13345Y95539D01*
X13779Y96585D01*
D02*
G37*
G36*
X8120D02*
X4962D01*
X5395Y95539D01*
X6124Y94589D01*
X7075Y93859D01*
X8120Y93426D01*
Y96585D01*
D02*
G37*
G36*
X23921D02*
X20620D01*
Y93283D01*
X23921D01*
Y96585D01*
D02*
G37*
G36*
X18120D02*
X14819D01*
Y93283D01*
X18120D01*
Y96585D01*
D02*
G37*
G36*
X20620Y58578D02*
Y55419D01*
X23778D01*
X23346Y56464D01*
X22616Y57415D01*
X21665Y58145D01*
X20620Y58578D01*
D02*
G37*
G36*
X18120D02*
X17075Y58145D01*
X16124Y57415D01*
X15395Y56464D01*
X14962Y55419D01*
X18120D01*
Y58578D01*
D02*
G37*
G36*
X23778Y52919D02*
X20620D01*
Y49761D01*
X21665Y50194D01*
X22616Y50923D01*
X23346Y51874D01*
X23778Y52919D01*
D02*
G37*
G36*
X18120D02*
X14962D01*
X15395Y51874D01*
X16124Y50923D01*
X17075Y50194D01*
X18120Y49761D01*
Y52919D01*
D02*
G37*
G36*
X174492Y190831D02*
X172482Y190673D01*
X170521Y190202D01*
X168658Y189430D01*
X166939Y188377D01*
X165405Y187067D01*
X164096Y185534D01*
X163042Y183814D01*
X162270Y181951D01*
X161800Y179991D01*
X161642Y177980D01*
X161800Y175970D01*
X162270Y174009D01*
X163042Y172146D01*
X164096Y170427D01*
X165405Y168894D01*
X166939Y167584D01*
X168658Y166530D01*
X170521Y165759D01*
X172482Y165288D01*
X174492Y165130D01*
X176502Y165288D01*
X178463Y165759D01*
X180326Y166530D01*
X182045Y167584D01*
X183579Y168894D01*
X184889Y170427D01*
X185942Y172146D01*
X186714Y174009D01*
X187185Y175970D01*
X187343Y177980D01*
X187185Y179991D01*
X186714Y181951D01*
X185942Y183814D01*
X184889Y185534D01*
X183579Y187067D01*
X182045Y188377D01*
X180326Y189430D01*
X178463Y190202D01*
X176502Y190673D01*
X174492Y190831D01*
D02*
G37*
G36*
X80063Y104032D02*
X78052Y103874D01*
X76091Y103403D01*
X74229Y102631D01*
X72509Y101577D01*
X70976Y100268D01*
X69666Y98734D01*
X68613Y97015D01*
X67841Y95152D01*
X67370Y93191D01*
X67212Y91181D01*
X67370Y89171D01*
X67841Y87210D01*
X68613Y85347D01*
X69666Y83628D01*
X70976Y82094D01*
X72509Y80785D01*
X74229Y79731D01*
X76091Y78959D01*
X78052Y78489D01*
X80063Y78330D01*
X82073Y78489D01*
X84034Y78959D01*
X85897Y79731D01*
X87616Y80785D01*
X89149Y82094D01*
X90459Y83628D01*
X91513Y85347D01*
X92284Y87210D01*
X92755Y89171D01*
X92913Y91181D01*
X92755Y93191D01*
X92284Y95152D01*
X91513Y97015D01*
X90459Y98734D01*
X89149Y100268D01*
X87616Y101577D01*
X85897Y102631D01*
X84034Y103403D01*
X82073Y103874D01*
X80063Y104032D01*
D02*
G37*
G36*
X82033Y65536D02*
Y59963D01*
X87607D01*
X87597Y60068D01*
X87201Y61371D01*
X86559Y62572D01*
X85696Y63625D01*
X84643Y64489D01*
X83442Y65131D01*
X82139Y65526D01*
X82033Y65536D01*
D02*
G37*
G36*
X79533D02*
X79428Y65526D01*
X78125Y65131D01*
X76924Y64489D01*
X75871Y63625D01*
X75007Y62572D01*
X74365Y61371D01*
X73970Y60068D01*
X73960Y59963D01*
X79533D01*
Y65536D01*
D02*
G37*
G36*
X87607Y57463D02*
X82033D01*
Y51889D01*
X82139Y51899D01*
X83442Y52295D01*
X84643Y52937D01*
X85696Y53800D01*
X86559Y54853D01*
X87201Y56054D01*
X87597Y57357D01*
X87607Y57463D01*
D02*
G37*
G36*
X79533D02*
X73960D01*
X73970Y57357D01*
X74365Y56054D01*
X75007Y54853D01*
X75871Y53800D01*
X76924Y52937D01*
X78125Y52295D01*
X79428Y51899D01*
X79533Y51889D01*
Y57463D01*
D02*
G37*
G36*
X52034Y55536D02*
Y49963D01*
X57607D01*
X57597Y50068D01*
X57201Y51371D01*
X56559Y52572D01*
X55696Y53625D01*
X54643Y54489D01*
X53442Y55131D01*
X52139Y55526D01*
X52034Y55536D01*
D02*
G37*
G36*
X49533D02*
X49428Y55526D01*
X48125Y55131D01*
X46924Y54489D01*
X45871Y53625D01*
X45007Y52572D01*
X44365Y51371D01*
X43970Y50068D01*
X43960Y49963D01*
X49533D01*
Y55536D01*
D02*
G37*
G36*
X57607Y47463D02*
X52034D01*
Y41889D01*
X52139Y41899D01*
X53442Y42295D01*
X54643Y42937D01*
X55696Y43801D01*
X56559Y44853D01*
X57201Y46054D01*
X57597Y47357D01*
X57607Y47463D01*
D02*
G37*
G36*
X49533D02*
X43960D01*
X43970Y47357D01*
X44365Y46054D01*
X45007Y44853D01*
X45871Y43801D01*
X46924Y42937D01*
X48125Y42295D01*
X49428Y41899D01*
X49533Y41889D01*
Y47463D01*
D02*
G37*
G36*
X82033Y45536D02*
Y39963D01*
X87607D01*
X87597Y40068D01*
X87201Y41371D01*
X86559Y42572D01*
X85696Y43625D01*
X84643Y44489D01*
X83442Y45131D01*
X82139Y45526D01*
X82033Y45536D01*
D02*
G37*
G36*
X79533D02*
X79428Y45526D01*
X78125Y45131D01*
X76924Y44489D01*
X75871Y43625D01*
X75007Y42572D01*
X74365Y41371D01*
X73970Y40068D01*
X73960Y39963D01*
X79533D01*
Y45536D01*
D02*
G37*
G36*
X87607Y37463D02*
X82033D01*
Y31889D01*
X82139Y31899D01*
X83442Y32295D01*
X84643Y32936D01*
X85696Y33801D01*
X86559Y34853D01*
X87201Y36054D01*
X87597Y37357D01*
X87607Y37463D01*
D02*
G37*
G36*
X79533D02*
X73960D01*
X73970Y37357D01*
X74365Y36054D01*
X75007Y34853D01*
X75871Y33801D01*
X76924Y32936D01*
X78125Y32295D01*
X79428Y31899D01*
X79533Y31889D01*
Y37463D01*
D02*
G37*
G36*
X661585Y-140926D02*
X661539D01*
X661503Y-140935D01*
X661412Y-140953D01*
X661293Y-140980D01*
X661157Y-141035D01*
X661011Y-141117D01*
X660929Y-141172D01*
X660856Y-141235D01*
X660783Y-141308D01*
X660710Y-141390D01*
Y-141399D01*
X660692Y-141409D01*
X660674Y-141436D01*
X660656Y-141472D01*
X660628Y-141527D01*
X660592Y-141582D01*
X660555Y-141655D01*
X660528Y-141727D01*
X660492Y-141818D01*
X660455Y-141919D01*
X660428Y-142028D01*
X660391Y-142146D01*
X660373Y-142283D01*
X660355Y-142420D01*
X660337Y-142566D01*
Y-142729D01*
Y-142739D01*
Y-142766D01*
Y-142811D01*
X660346Y-142875D01*
Y-142948D01*
X660355Y-143030D01*
X660382Y-143221D01*
X660428Y-143440D01*
X660483Y-143650D01*
X660574Y-143859D01*
X660628Y-143950D01*
X660692Y-144032D01*
X660710Y-144050D01*
X660756Y-144096D01*
X660829Y-144169D01*
X660929Y-144242D01*
X661056Y-144315D01*
X661202Y-144387D01*
X661366Y-144433D01*
X661457Y-144442D01*
X661548Y-144451D01*
X661603D01*
X661639Y-144442D01*
X661730Y-144424D01*
X661858Y-144397D01*
X661995Y-144342D01*
X662141Y-144269D01*
X662286Y-144160D01*
X662359Y-144096D01*
X662432Y-144023D01*
Y-144014D01*
X662450Y-144005D01*
X662468Y-143977D01*
X662487Y-143941D01*
X662523Y-143895D01*
X662550Y-143832D01*
X662587Y-143768D01*
X662623Y-143686D01*
X662651Y-143604D01*
X662687Y-143495D01*
X662723Y-143385D01*
X662751Y-143267D01*
X662769Y-143130D01*
X662787Y-142984D01*
X662806Y-142830D01*
Y-142666D01*
Y-142657D01*
Y-142629D01*
Y-142584D01*
X662796Y-142520D01*
Y-142447D01*
X662787Y-142365D01*
X662760Y-142174D01*
X662714Y-141964D01*
X662651Y-141755D01*
X662560Y-141545D01*
X662505Y-141445D01*
X662441Y-141363D01*
Y-141354D01*
X662423Y-141345D01*
X662377Y-141290D01*
X662304Y-141226D01*
X662204Y-141144D01*
X662077Y-141062D01*
X661931Y-140989D01*
X661767Y-140944D01*
X661676Y-140935D01*
X661585Y-140926D01*
D02*
G37*
G36*
X674813Y-142693D02*
X674803D01*
X674794Y-142702D01*
X674767Y-142711D01*
X674730Y-142720D01*
X674685Y-142739D01*
X674630Y-142757D01*
X674567Y-142775D01*
X674494Y-142793D01*
X674412Y-142821D01*
X674311Y-142839D01*
X674211Y-142866D01*
X674093Y-142893D01*
X673965Y-142921D01*
X673838Y-142948D01*
X673692Y-142966D01*
X673537Y-142994D01*
X673519D01*
X673464Y-143003D01*
X673373Y-143021D01*
X673273Y-143039D01*
X673164Y-143057D01*
X673054Y-143085D01*
X672954Y-143112D01*
X672863Y-143149D01*
X672854D01*
X672826Y-143167D01*
X672790Y-143185D01*
X672754Y-143212D01*
X672644Y-143285D01*
X672553Y-143394D01*
Y-143404D01*
X672535Y-143422D01*
X672526Y-143458D01*
X672508Y-143504D01*
X672489Y-143559D01*
X672471Y-143613D01*
X672462Y-143686D01*
X672453Y-143759D01*
Y-143768D01*
Y-143814D01*
X672462Y-143868D01*
X672480Y-143941D01*
X672508Y-144023D01*
X672553Y-144105D01*
X672608Y-144196D01*
X672681Y-144278D01*
X672690Y-144287D01*
X672726Y-144306D01*
X672781Y-144342D01*
X672854Y-144378D01*
X672954Y-144415D01*
X673072Y-144451D01*
X673209Y-144469D01*
X673373Y-144479D01*
X673446D01*
X673537Y-144469D01*
X673637Y-144451D01*
X673765Y-144433D01*
X673892Y-144397D01*
X674029Y-144351D01*
X674166Y-144287D01*
X674184Y-144278D01*
X674220Y-144251D01*
X674284Y-144205D01*
X674357Y-144141D01*
X674439Y-144069D01*
X674530Y-143977D01*
X674603Y-143868D01*
X674676Y-143750D01*
X674685Y-143741D01*
X674694Y-143704D01*
X674712Y-143640D01*
X674740Y-143559D01*
X674767Y-143449D01*
X674785Y-143322D01*
X674794Y-143167D01*
X674803Y-142984D01*
X674813Y-142693D01*
D02*
G37*
G36*
X683075Y-140953D02*
X683021D01*
X682984Y-140962D01*
X682884Y-140971D01*
X682765Y-140999D01*
X682620Y-141044D01*
X682465Y-141108D01*
X682319Y-141199D01*
X682173Y-141317D01*
X682155Y-141336D01*
X682119Y-141381D01*
X682055Y-141463D01*
X681991Y-141572D01*
X681918Y-141700D01*
X681854Y-141864D01*
X681800Y-142055D01*
X681773Y-142265D01*
X684332D01*
Y-142256D01*
Y-142237D01*
X684323Y-142210D01*
Y-142174D01*
X684305Y-142064D01*
X684278Y-141946D01*
X684232Y-141800D01*
X684187Y-141664D01*
X684114Y-141527D01*
X684032Y-141409D01*
Y-141399D01*
X684014Y-141390D01*
X683968Y-141336D01*
X683886Y-141263D01*
X683777Y-141181D01*
X683640Y-141099D01*
X683476Y-141026D01*
X683285Y-140971D01*
X683185Y-140962D01*
X683075Y-140953D01*
D02*
G37*
G36*
X656583D02*
X656529D01*
X656483Y-140962D01*
X656383Y-140971D01*
X656246Y-141008D01*
X656091Y-141062D01*
X655928Y-141135D01*
X655773Y-141244D01*
X655691Y-141317D01*
X655618Y-141390D01*
Y-141399D01*
X655599Y-141409D01*
X655581Y-141436D01*
X655554Y-141472D01*
X655527Y-141518D01*
X655499Y-141572D01*
X655463Y-141645D01*
X655426Y-141718D01*
X655390Y-141809D01*
X655353Y-141901D01*
X655326Y-142010D01*
X655299Y-142128D01*
X655271Y-142256D01*
X655253Y-142392D01*
X655244Y-142547D01*
X655235Y-142702D01*
Y-142711D01*
Y-142739D01*
Y-142784D01*
X655244Y-142848D01*
Y-142921D01*
X655253Y-143003D01*
X655281Y-143194D01*
X655326Y-143413D01*
X655399Y-143631D01*
X655490Y-143841D01*
X655554Y-143932D01*
X655618Y-144023D01*
X655627D01*
X655636Y-144041D01*
X655691Y-144087D01*
X655773Y-144160D01*
X655882Y-144233D01*
X656019Y-144315D01*
X656182Y-144387D01*
X656374Y-144433D01*
X656474Y-144442D01*
X656583Y-144451D01*
X656638D01*
X656684Y-144442D01*
X656784Y-144424D01*
X656920Y-144397D01*
X657066Y-144342D01*
X657230Y-144269D01*
X657385Y-144160D01*
X657467Y-144087D01*
X657540Y-144014D01*
X657549Y-144005D01*
X657558Y-143996D01*
X657576Y-143968D01*
X657604Y-143932D01*
X657631Y-143886D01*
X657667Y-143832D01*
X657704Y-143759D01*
X657740Y-143686D01*
X657777Y-143595D01*
X657804Y-143495D01*
X657841Y-143385D01*
X657868Y-143267D01*
X657895Y-143130D01*
X657913Y-142994D01*
X657932Y-142839D01*
Y-142675D01*
Y-142666D01*
Y-142638D01*
Y-142593D01*
X657923Y-142538D01*
Y-142465D01*
X657913Y-142383D01*
X657886Y-142192D01*
X657841Y-141992D01*
X657768Y-141773D01*
X657667Y-141572D01*
X657613Y-141472D01*
X657540Y-141390D01*
Y-141381D01*
X657522Y-141372D01*
X657467Y-141317D01*
X657385Y-141254D01*
X657276Y-141172D01*
X657139Y-141090D01*
X656975Y-141017D01*
X656793Y-140971D01*
X656693Y-140962D01*
X656583Y-140953D01*
D02*
G37*
%LPD*%
D11*
X304236Y18748D02*
Y20177D01*
X300933Y15445D02*
X304236Y18748D01*
X277819Y15445D02*
X284551D01*
X274709Y18555D02*
X277819Y15445D01*
X274709Y18555D02*
Y20177D01*
X294394Y15445D02*
X300933D01*
X299315Y20177D02*
Y21799D01*
X288878Y32236D02*
X299315Y21799D01*
X264278Y32236D02*
X288878D01*
X294394Y20177D02*
Y21831D01*
X285988Y30236D02*
X294394Y21831D01*
X265106Y30236D02*
X285988D01*
X289472Y20177D02*
Y21791D01*
X283028Y28236D02*
X289472Y21791D01*
X265934Y28236D02*
X283028D01*
X279630Y20177D02*
Y21787D01*
X275181Y26236D02*
X279630Y21787D01*
X266763Y26236D02*
X275181D01*
X274709Y20177D02*
Y21748D01*
X272220Y24236D02*
X274709Y21748D01*
X267591Y24236D02*
X272220D01*
X41914Y20177D02*
X269787D01*
X30591Y31500D02*
X41914Y20177D01*
X43702Y87114D02*
X50909D01*
X34591Y78003D02*
X43702Y87114D01*
X34591Y33157D02*
Y78003D01*
X30591Y76598D02*
Y82065D01*
X30587Y82069D02*
X30591Y82065D01*
X30587Y76593D02*
X30591Y76598D01*
X32591Y78831D02*
X51032Y97272D01*
X32591Y78831D02*
Y251426D01*
X30587Y252250D02*
Y264193D01*
X30587Y82069D02*
Y252250D01*
Y35370D02*
Y76593D01*
X30587Y252250D02*
X30587Y252250D01*
Y35370D02*
X30591Y35366D01*
X34591Y33157D02*
X43571Y24177D01*
X30591Y31500D02*
Y35366D01*
X42742Y22177D02*
X265532D01*
X32591Y32328D02*
X42742Y22177D01*
X32591Y32328D02*
Y78831D01*
X43571Y24177D02*
X264704D01*
X236157Y83563D02*
X239531Y80189D01*
Y34111D02*
Y80189D01*
X247414Y26228D02*
X263927D01*
X239531Y34111D02*
X247414Y26228D01*
X248242Y28228D02*
X263098D01*
X241531Y34939D02*
X248242Y28228D01*
X241531Y34939D02*
Y97870D01*
X249071Y30228D02*
X262270D01*
X243531Y35768D02*
X249071Y30228D01*
X243531Y35768D02*
Y264169D01*
X240531Y98870D02*
X241531Y97870D01*
X32591Y251426D02*
X33701Y252535D01*
X263927Y26228D02*
X265934Y28236D01*
X264704Y24177D02*
X266763Y26236D01*
X265532Y22177D02*
X267591Y24236D01*
X284551Y15445D02*
X294394D01*
Y20177D01*
X284551Y15445D02*
Y20177D01*
X262270Y30228D02*
X264278Y32236D01*
X263098Y28228D02*
X265106Y30236D01*
X40Y18031D02*
G03*
X11317Y6947I11796J722D01*
G01*
X29279Y2252D02*
G03*
X21524Y6947I-10086J-7908D01*
G01*
X29279Y2252D02*
G03*
X34488Y-72I4950J4095D01*
G01*
X311967Y-72D02*
G03*
X327284Y8149I575J17307D01*
G01*
X348242Y14356D02*
G03*
X361631Y27952I-102J13490D01*
G01*
X339435Y14356D02*
G03*
X327284Y8149I-253J-14503D01*
G01*
X361631Y319610D02*
G03*
X349410Y331905I-12330J-35D01*
G01*
X326575Y341338D02*
G03*
X338899Y331927I13326J4677D01*
G01*
X326575Y341220D02*
G03*
X314725Y349881I-12571J-4763D01*
G01*
X14449D02*
G03*
X45Y335005I609J-15002D01*
G01*
X11317Y6947D02*
X21524D01*
X34488Y-72D02*
X311967Y-72D01*
X339182Y14356D02*
X348242D01*
X361631Y27952D02*
X361631Y319610D01*
X338899Y331927D02*
X349301D01*
X16575Y349881D02*
X314725D01*
X14449D02*
X16575D01*
X40Y18031D02*
Y334880D01*
D13*
X8378Y310354D02*
X14677D01*
X8378Y304449D02*
Y310354D01*
Y304449D02*
X14677D01*
Y310354D01*
X9559Y307500D02*
X10248Y306811D01*
X9559Y307500D02*
X13496D01*
Y306811D02*
Y307500D01*
Y308189D01*
D17*
X314276Y9350D02*
D03*
X259748D02*
D03*
X39079Y342307D02*
D03*
X93606D02*
D03*
D18*
X304236Y20177D02*
D03*
X299315D02*
D03*
X294394D02*
D03*
X289472D02*
D03*
X284551D02*
D03*
X279630D02*
D03*
X274709D02*
D03*
X269787D02*
D03*
X49118Y331480D02*
D03*
X54039D02*
D03*
X58961D02*
D03*
X63882D02*
D03*
X68803D02*
D03*
X73724D02*
D03*
X78646D02*
D03*
X83567D02*
D03*
D26*
X50783Y133673D02*
D03*
X80783Y143673D02*
D03*
Y123673D02*
D03*
Y206248D02*
D03*
Y226248D02*
D03*
X50783Y216248D02*
D03*
X80783Y291209D02*
D03*
Y311209D02*
D03*
X50783Y301209D02*
D03*
Y48713D02*
D03*
X80783Y58713D02*
D03*
Y38713D02*
D03*
X257842Y58713D02*
D03*
Y38713D02*
D03*
X287842Y48713D02*
D03*
Y133673D02*
D03*
X257842Y123673D02*
D03*
Y143673D02*
D03*
Y226248D02*
D03*
Y206248D02*
D03*
X287842Y216248D02*
D03*
X257842Y311209D02*
D03*
Y291209D02*
D03*
X287842Y301209D02*
D03*
D27*
X68803Y331480D02*
Y334402D01*
X66571Y336634D02*
X68803Y334402D01*
X56209Y336634D02*
X66571D01*
X54039Y334465D02*
X56209Y336634D01*
X54039Y331480D02*
Y334465D01*
X104014Y258799D02*
Y313254D01*
X234722Y91193D02*
Y248673D01*
X68803Y331480D02*
X73724D01*
X58874Y321721D02*
X95547D01*
X54039Y326555D02*
X58874Y321721D01*
X54039Y326555D02*
Y331480D01*
X95547Y321721D02*
X104014Y313254D01*
Y91193D02*
Y258799D01*
X50591Y331480D02*
X54039D01*
X224850Y325949D02*
X228362Y322437D01*
Y255033D02*
Y322437D01*
Y255033D02*
X234722Y248673D01*
X65933Y325949D02*
X224850D01*
X63882Y328000D02*
X65933Y325949D01*
X63882Y328000D02*
Y331480D01*
X58961D02*
X63882D01*
X234722Y258374D02*
Y323309D01*
X226551Y331480D02*
X234722Y323309D01*
X83567Y331480D02*
X226551D01*
X78646D02*
X83567D01*
D28*
X9370Y137835D02*
D03*
X19370D02*
D03*
X9370Y127835D02*
D03*
X19370D02*
D03*
X9370Y117835D02*
D03*
X19370D02*
D03*
X9370Y107835D02*
D03*
X19370D02*
D03*
X9370Y97835D02*
D03*
X319590Y49039D02*
D03*
X329591D02*
D03*
X319590Y59039D02*
D03*
X329591D02*
D03*
X319590Y69039D02*
D03*
X329591D02*
D03*
X319590Y79039D02*
D03*
X329591D02*
D03*
X319590Y89039D02*
D03*
X329591D02*
D03*
X319590Y99039D02*
D03*
X329591D02*
D03*
X319590Y109039D02*
D03*
X329591D02*
D03*
X319590Y119039D02*
D03*
X329591D02*
D03*
X319590Y129039D02*
D03*
X329591D02*
D03*
X319590Y139039D02*
D03*
X329591D02*
D03*
X319590Y149039D02*
D03*
X329591D02*
D03*
X319590Y159039D02*
D03*
X329591D02*
D03*
X319590Y169039D02*
D03*
X329591D02*
D03*
X319590Y179039D02*
D03*
X329591D02*
D03*
X319590Y189039D02*
D03*
X329591D02*
D03*
X319590Y199039D02*
D03*
X329591D02*
D03*
X319590Y209039D02*
D03*
X329591D02*
D03*
X319590Y219039D02*
D03*
X329591D02*
D03*
X319590Y229039D02*
D03*
X329591D02*
D03*
X319590Y239039D02*
D03*
X329591D02*
D03*
X319590Y249039D02*
D03*
X329591D02*
D03*
X319590Y259039D02*
D03*
X329591D02*
D03*
X319590Y269039D02*
D03*
X329591D02*
D03*
X319590Y279039D02*
D03*
X329591D02*
D03*
X319590Y289039D02*
D03*
X329591D02*
D03*
X319590Y299039D02*
D03*
X329591D02*
D03*
X339591Y49039D02*
D03*
X349590D02*
D03*
X339591Y59039D02*
D03*
X349590D02*
D03*
X339591Y69039D02*
D03*
X349590D02*
D03*
X339591Y79039D02*
D03*
X349590D02*
D03*
X339591Y89039D02*
D03*
X349590D02*
D03*
X339591Y99039D02*
D03*
X349590D02*
D03*
X339591Y109039D02*
D03*
X349590D02*
D03*
X339591Y119039D02*
D03*
X349590D02*
D03*
X339591Y129039D02*
D03*
X349590D02*
D03*
X339591Y139039D02*
D03*
X349590D02*
D03*
X339591Y149039D02*
D03*
X349590D02*
D03*
X339591Y159039D02*
D03*
X349590D02*
D03*
X339591Y169039D02*
D03*
X349590D02*
D03*
X339591Y179039D02*
D03*
X349590D02*
D03*
X339591Y189039D02*
D03*
X349590D02*
D03*
X339591Y199039D02*
D03*
X349590D02*
D03*
X339591Y209039D02*
D03*
X349590D02*
D03*
X339591Y219039D02*
D03*
X349590D02*
D03*
X339591Y229039D02*
D03*
X349590D02*
D03*
X339591Y239039D02*
D03*
X349590D02*
D03*
X339591Y249039D02*
D03*
X349590D02*
D03*
X339591Y259039D02*
D03*
X349590D02*
D03*
X339591Y269039D02*
D03*
X349590D02*
D03*
X339591Y279039D02*
D03*
X349590D02*
D03*
X339591Y289039D02*
D03*
X349590D02*
D03*
X339591Y299039D02*
D03*
X349590D02*
D03*
X104014Y258799D02*
D03*
X234722D02*
D03*
X104014Y91181D02*
D03*
X234722D02*
D03*
X318787Y324071D02*
D03*
X23417Y203791D02*
D03*
X19370Y54169D02*
D03*
D29*
Y97835D02*
D03*
D30*
X174492Y177980D02*
D03*
X80063Y91181D02*
D03*
Y177980D02*
D03*
Y258799D02*
D03*
X258841Y91193D02*
D03*
Y177980D02*
D03*
Y258374D02*
D03*
X12303Y19209D02*
D03*
Y334268D02*
D03*
X349571Y319126D02*
D03*
X349606Y29051D02*
D03*
D31*
X50909Y87114D02*
D03*
X243531Y264169D02*
D03*
X240531Y98870D02*
D03*
X236157Y83563D02*
D03*
X51032Y97272D02*
D03*
X33701Y252535D02*
D03*
X30587Y264193D02*
D03*
M02*
