G04*
G04 #@! TF.GenerationSoftware,Altium Limited,Altium Designer,18.1.7 (191)*
G04*
G04 Layer_Color=32896*
%FSLAX25Y25*%
%MOIN*%
G70*
G01*
G75*
%ADD11C,0.01000*%
%ADD13C,0.00787*%
%ADD14C,0.00799*%
%ADD36C,0.00709*%
G36*
X697269Y-140324D02*
X697369Y-140343D01*
X697487Y-140379D01*
X697615Y-140425D01*
X697761Y-140488D01*
X697915Y-140570D01*
X697633Y-141281D01*
X697624Y-141272D01*
X697587Y-141254D01*
X697533Y-141226D01*
X697460Y-141199D01*
X697378Y-141172D01*
X697278Y-141144D01*
X697178Y-141126D01*
X697077Y-141117D01*
X697032D01*
X696986Y-141126D01*
X696922Y-141135D01*
X696859Y-141153D01*
X696777Y-141181D01*
X696695Y-141217D01*
X696622Y-141272D01*
X696613Y-141281D01*
X696585Y-141299D01*
X696558Y-141336D01*
X696513Y-141381D01*
X696467Y-141445D01*
X696421Y-141518D01*
X696376Y-141600D01*
X696339Y-141700D01*
X696330Y-141718D01*
X696321Y-141773D01*
X696303Y-141855D01*
X696276Y-141964D01*
X696248Y-142101D01*
X696230Y-142256D01*
X696221Y-142420D01*
X696212Y-142602D01*
Y-144989D01*
X695437D01*
Y-140416D01*
X696139D01*
Y-141108D01*
X696148Y-141099D01*
X696185Y-141035D01*
X696230Y-140953D01*
X696303Y-140853D01*
X696376Y-140753D01*
X696458Y-140643D01*
X696540Y-140552D01*
X696622Y-140479D01*
X696631Y-140470D01*
X696658Y-140452D01*
X696713Y-140425D01*
X696768Y-140397D01*
X696840Y-140370D01*
X696932Y-140343D01*
X697023Y-140324D01*
X697123Y-140315D01*
X697187D01*
X697269Y-140324D01*
D02*
G37*
G36*
X674384D02*
X674448D01*
X674512Y-140333D01*
X674667Y-140361D01*
X674831Y-140406D01*
X675004Y-140479D01*
X675177Y-140570D01*
X675323Y-140698D01*
X675341Y-140716D01*
X675377Y-140771D01*
X675441Y-140853D01*
X675468Y-140917D01*
X675505Y-140980D01*
X675541Y-141062D01*
X675569Y-141144D01*
X675605Y-141235D01*
X675632Y-141345D01*
X675651Y-141454D01*
X675669Y-141582D01*
X675687Y-141709D01*
Y-141855D01*
Y-144989D01*
X674913D01*
Y-142119D01*
Y-142110D01*
Y-142101D01*
Y-142046D01*
Y-141964D01*
X674904Y-141864D01*
X674895Y-141755D01*
X674885Y-141645D01*
X674867Y-141536D01*
X674840Y-141454D01*
Y-141445D01*
X674822Y-141418D01*
X674803Y-141381D01*
X674776Y-141336D01*
X674740Y-141281D01*
X674694Y-141226D01*
X674639Y-141172D01*
X674567Y-141117D01*
X674557Y-141108D01*
X674530Y-141099D01*
X674494Y-141080D01*
X674430Y-141053D01*
X674366Y-141026D01*
X674284Y-141008D01*
X674202Y-140999D01*
X674102Y-140989D01*
X674056D01*
X674020Y-140999D01*
X673929Y-141008D01*
X673819Y-141026D01*
X673692Y-141071D01*
X673555Y-141126D01*
X673419Y-141208D01*
X673291Y-141317D01*
X673282Y-141336D01*
X673246Y-141381D01*
X673191Y-141454D01*
X673136Y-141563D01*
X673072Y-141709D01*
X673027Y-141882D01*
X672991Y-142092D01*
X672972Y-142338D01*
Y-144989D01*
X672198D01*
Y-142028D01*
Y-142019D01*
Y-142001D01*
Y-141982D01*
Y-141946D01*
X672189Y-141846D01*
X672171Y-141736D01*
X672152Y-141609D01*
X672116Y-141481D01*
X672070Y-141363D01*
X672007Y-141254D01*
X671997Y-141244D01*
X671970Y-141208D01*
X671925Y-141172D01*
X671861Y-141117D01*
X671779Y-141071D01*
X671669Y-141026D01*
X671542Y-140999D01*
X671387Y-140989D01*
X671333D01*
X671269Y-140999D01*
X671196Y-141008D01*
X671105Y-141035D01*
X670995Y-141062D01*
X670895Y-141108D01*
X670786Y-141163D01*
X670777Y-141172D01*
X670740Y-141199D01*
X670695Y-141235D01*
X670631Y-141290D01*
X670567Y-141363D01*
X670504Y-141454D01*
X670440Y-141554D01*
X670385Y-141673D01*
X670376Y-141691D01*
X670367Y-141736D01*
X670349Y-141809D01*
X670321Y-141910D01*
X670294Y-142046D01*
X670276Y-142210D01*
X670267Y-142402D01*
X670258Y-142620D01*
Y-144989D01*
X669483D01*
Y-140416D01*
X670176D01*
Y-141071D01*
X670185Y-141053D01*
X670212Y-141017D01*
X670267Y-140953D01*
X670330Y-140880D01*
X670412Y-140789D01*
X670513Y-140698D01*
X670622Y-140607D01*
X670749Y-140525D01*
X670768Y-140516D01*
X670813Y-140488D01*
X670886Y-140461D01*
X670986Y-140416D01*
X671105Y-140379D01*
X671241Y-140352D01*
X671396Y-140324D01*
X671560Y-140315D01*
X671642D01*
X671742Y-140324D01*
X671852Y-140343D01*
X671988Y-140370D01*
X672125Y-140406D01*
X672262Y-140461D01*
X672389Y-140534D01*
X672407Y-140543D01*
X672444Y-140570D01*
X672499Y-140616D01*
X672571Y-140689D01*
X672644Y-140771D01*
X672726Y-140871D01*
X672799Y-140989D01*
X672854Y-141126D01*
X672863Y-141117D01*
X672881Y-141090D01*
X672908Y-141053D01*
X672954Y-140999D01*
X673009Y-140935D01*
X673072Y-140871D01*
X673145Y-140798D01*
X673237Y-140716D01*
X673337Y-140643D01*
X673437Y-140570D01*
X673555Y-140507D01*
X673683Y-140443D01*
X673819Y-140388D01*
X673965Y-140352D01*
X674111Y-140324D01*
X674275Y-140315D01*
X674339D01*
X674384Y-140324D01*
D02*
G37*
G36*
X688113Y-144989D02*
X687375D01*
X685653Y-140416D01*
X686473D01*
X687457Y-143158D01*
Y-143167D01*
X687466Y-143176D01*
X687475Y-143203D01*
X687485Y-143230D01*
X687512Y-143322D01*
X687548Y-143440D01*
X687594Y-143577D01*
X687648Y-143732D01*
X687694Y-143905D01*
X687749Y-144078D01*
X687758Y-144060D01*
X687767Y-144014D01*
X687794Y-143941D01*
X687822Y-143832D01*
X687867Y-143713D01*
X687913Y-143559D01*
X687976Y-143394D01*
X688040Y-143212D01*
X689051Y-140416D01*
X689853D01*
X688113Y-144989D01*
D02*
G37*
G36*
X707244Y-145062D02*
Y-145071D01*
X707235Y-145098D01*
X707217Y-145134D01*
X707198Y-145180D01*
X707171Y-145244D01*
X707144Y-145317D01*
X707080Y-145472D01*
X707016Y-145645D01*
X706944Y-145818D01*
X706871Y-145973D01*
X706834Y-146036D01*
X706807Y-146100D01*
X706798Y-146118D01*
X706770Y-146164D01*
X706725Y-146228D01*
X706670Y-146310D01*
X706597Y-146401D01*
X706515Y-146492D01*
X706433Y-146583D01*
X706333Y-146656D01*
X706324Y-146665D01*
X706287Y-146683D01*
X706233Y-146711D01*
X706151Y-146747D01*
X706060Y-146783D01*
X705950Y-146811D01*
X705832Y-146829D01*
X705695Y-146838D01*
X705659D01*
X705613Y-146829D01*
X705550D01*
X705477Y-146811D01*
X705395Y-146792D01*
X705304Y-146774D01*
X705203Y-146738D01*
X705122Y-146018D01*
X705131D01*
X705167Y-146027D01*
X705213Y-146036D01*
X705267Y-146055D01*
X705413Y-146082D01*
X705559Y-146091D01*
X705604D01*
X705650Y-146082D01*
X705704D01*
X705841Y-146055D01*
X705905Y-146027D01*
X705969Y-146000D01*
X705978D01*
X705996Y-145982D01*
X706023Y-145964D01*
X706060Y-145936D01*
X706142Y-145863D01*
X706215Y-145763D01*
Y-145754D01*
X706233Y-145736D01*
X706251Y-145699D01*
X706269Y-145645D01*
X706306Y-145572D01*
X706342Y-145463D01*
X706397Y-145335D01*
X706452Y-145180D01*
Y-145171D01*
X706470Y-145134D01*
X706488Y-145071D01*
X706524Y-144989D01*
X704794Y-140416D01*
X705613D01*
X706570Y-143067D01*
Y-143076D01*
X706579Y-143085D01*
X706588Y-143112D01*
X706597Y-143158D01*
X706615Y-143203D01*
X706634Y-143258D01*
X706679Y-143385D01*
X706734Y-143540D01*
X706789Y-143722D01*
X706843Y-143914D01*
X706898Y-144123D01*
Y-144114D01*
X706907Y-144096D01*
X706916Y-144069D01*
X706925Y-144032D01*
X706934Y-143987D01*
X706953Y-143932D01*
X706989Y-143795D01*
X707035Y-143640D01*
X707098Y-143458D01*
X707153Y-143276D01*
X707226Y-143085D01*
X708210Y-140416D01*
X708984D01*
X707244Y-145062D01*
D02*
G37*
G36*
X702470Y-140324D02*
X702607Y-140333D01*
X702762Y-140352D01*
X702917Y-140379D01*
X703072Y-140416D01*
X703218Y-140461D01*
X703236Y-140470D01*
X703281Y-140488D01*
X703345Y-140516D01*
X703427Y-140552D01*
X703518Y-140607D01*
X703609Y-140662D01*
X703691Y-140734D01*
X703764Y-140807D01*
X703773Y-140816D01*
X703791Y-140844D01*
X703819Y-140889D01*
X703855Y-140944D01*
X703901Y-141026D01*
X703937Y-141108D01*
X703974Y-141208D01*
X704001Y-141326D01*
Y-141336D01*
X704010Y-141363D01*
X704019Y-141418D01*
X704028Y-141490D01*
Y-141591D01*
X704037Y-141709D01*
X704046Y-141864D01*
Y-142037D01*
Y-143076D01*
Y-143085D01*
Y-143121D01*
Y-143176D01*
Y-143249D01*
Y-143331D01*
Y-143431D01*
X704056Y-143650D01*
Y-143877D01*
X704065Y-144105D01*
X704074Y-144205D01*
Y-144296D01*
X704083Y-144378D01*
X704092Y-144442D01*
Y-144451D01*
X704101Y-144488D01*
X704110Y-144542D01*
X704138Y-144615D01*
X704156Y-144697D01*
X704192Y-144788D01*
X704238Y-144888D01*
X704283Y-144989D01*
X703473D01*
X703463Y-144980D01*
X703454Y-144943D01*
X703436Y-144898D01*
X703409Y-144825D01*
X703381Y-144743D01*
X703363Y-144643D01*
X703345Y-144533D01*
X703327Y-144415D01*
X703318D01*
X703309Y-144433D01*
X703254Y-144479D01*
X703172Y-144542D01*
X703063Y-144624D01*
X702926Y-144706D01*
X702789Y-144797D01*
X702643Y-144879D01*
X702489Y-144943D01*
X702470Y-144952D01*
X702416Y-144961D01*
X702334Y-144989D01*
X702234Y-145016D01*
X702106Y-145043D01*
X701960Y-145062D01*
X701796Y-145080D01*
X701632Y-145089D01*
X701559D01*
X701505Y-145080D01*
X701441D01*
X701368Y-145071D01*
X701204Y-145043D01*
X701022Y-144998D01*
X700821Y-144934D01*
X700639Y-144843D01*
X700475Y-144725D01*
X700457Y-144706D01*
X700412Y-144661D01*
X700348Y-144579D01*
X700275Y-144469D01*
X700202Y-144333D01*
X700138Y-144178D01*
X700093Y-143987D01*
X700084Y-143895D01*
X700074Y-143786D01*
Y-143768D01*
Y-143732D01*
X700084Y-143668D01*
X700093Y-143586D01*
X700111Y-143486D01*
X700138Y-143385D01*
X700175Y-143276D01*
X700220Y-143176D01*
X700229Y-143167D01*
X700248Y-143130D01*
X700284Y-143076D01*
X700330Y-143012D01*
X700384Y-142939D01*
X700457Y-142866D01*
X700530Y-142793D01*
X700621Y-142729D01*
X700630Y-142720D01*
X700667Y-142702D01*
X700712Y-142666D01*
X700785Y-142629D01*
X700867Y-142593D01*
X700967Y-142547D01*
X701067Y-142511D01*
X701186Y-142474D01*
X701195D01*
X701231Y-142465D01*
X701286Y-142447D01*
X701359Y-142438D01*
X701450Y-142420D01*
X701569Y-142402D01*
X701705Y-142374D01*
X701869Y-142356D01*
X701878D01*
X701915Y-142347D01*
X701960D01*
X702024Y-142338D01*
X702097Y-142329D01*
X702188Y-142310D01*
X702288Y-142301D01*
X702398Y-142283D01*
X702616Y-142237D01*
X702853Y-142192D01*
X703063Y-142137D01*
X703163Y-142110D01*
X703254Y-142083D01*
Y-142074D01*
Y-142055D01*
X703263Y-142001D01*
Y-141937D01*
Y-141901D01*
Y-141882D01*
Y-141873D01*
Y-141864D01*
Y-141809D01*
X703254Y-141718D01*
X703236Y-141618D01*
X703208Y-141509D01*
X703163Y-141399D01*
X703108Y-141299D01*
X703035Y-141217D01*
X703026Y-141208D01*
X702981Y-141172D01*
X702908Y-141135D01*
X702817Y-141080D01*
X702689Y-141035D01*
X702543Y-140989D01*
X702361Y-140962D01*
X702152Y-140953D01*
X702061D01*
X701969Y-140962D01*
X701842Y-140980D01*
X701714Y-140999D01*
X701578Y-141035D01*
X701450Y-141080D01*
X701341Y-141144D01*
X701332Y-141153D01*
X701295Y-141181D01*
X701250Y-141226D01*
X701195Y-141299D01*
X701140Y-141390D01*
X701077Y-141509D01*
X701022Y-141655D01*
X700967Y-141818D01*
X700211Y-141718D01*
Y-141709D01*
X700220Y-141700D01*
Y-141673D01*
X700229Y-141636D01*
X700257Y-141554D01*
X700293Y-141436D01*
X700339Y-141317D01*
X700393Y-141190D01*
X700466Y-141062D01*
X700548Y-140944D01*
X700557Y-140935D01*
X700594Y-140898D01*
X700648Y-140844D01*
X700721Y-140771D01*
X700821Y-140698D01*
X700940Y-140625D01*
X701077Y-140543D01*
X701231Y-140479D01*
X701241D01*
X701250Y-140470D01*
X701277Y-140461D01*
X701313Y-140452D01*
X701405Y-140425D01*
X701532Y-140397D01*
X701678Y-140370D01*
X701860Y-140343D01*
X702051Y-140324D01*
X702270Y-140315D01*
X702370D01*
X702470Y-140324D01*
D02*
G37*
G36*
X699136Y-144989D02*
X698362D01*
Y-138685D01*
X699136D01*
Y-144989D01*
D02*
G37*
G36*
X651518Y-138694D02*
X651591D01*
X651755Y-138712D01*
X651937Y-138730D01*
X652129Y-138767D01*
X652320Y-138812D01*
X652493Y-138876D01*
X652502D01*
X652511Y-138885D01*
X652566Y-138912D01*
X652648Y-138958D01*
X652739Y-139022D01*
X652848Y-139104D01*
X652967Y-139204D01*
X653076Y-139331D01*
X653176Y-139468D01*
X653185Y-139486D01*
X653213Y-139541D01*
X653258Y-139614D01*
X653304Y-139723D01*
X653349Y-139851D01*
X653395Y-139987D01*
X653422Y-140142D01*
X653431Y-140297D01*
Y-140315D01*
Y-140361D01*
X653422Y-140443D01*
X653404Y-140543D01*
X653377Y-140662D01*
X653331Y-140789D01*
X653276Y-140917D01*
X653204Y-141053D01*
X653195Y-141071D01*
X653167Y-141108D01*
X653113Y-141181D01*
X653040Y-141254D01*
X652949Y-141345D01*
X652839Y-141445D01*
X652703Y-141536D01*
X652548Y-141627D01*
X652557D01*
X652575Y-141636D01*
X652602Y-141645D01*
X652639Y-141664D01*
X652748Y-141700D01*
X652876Y-141764D01*
X653012Y-141846D01*
X653167Y-141946D01*
X653304Y-142064D01*
X653431Y-142210D01*
X653440Y-142228D01*
X653477Y-142283D01*
X653532Y-142365D01*
X653586Y-142474D01*
X653641Y-142620D01*
X653695Y-142775D01*
X653732Y-142957D01*
X653741Y-143158D01*
Y-143167D01*
Y-143176D01*
Y-143230D01*
X653732Y-143322D01*
X653714Y-143431D01*
X653695Y-143559D01*
X653659Y-143695D01*
X653614Y-143841D01*
X653550Y-143987D01*
X653541Y-144005D01*
X653513Y-144050D01*
X653477Y-144114D01*
X653422Y-144205D01*
X653349Y-144296D01*
X653276Y-144397D01*
X653185Y-144497D01*
X653085Y-144579D01*
X653076Y-144588D01*
X653040Y-144615D01*
X652976Y-144652D01*
X652894Y-144688D01*
X652794Y-144743D01*
X652675Y-144797D01*
X652548Y-144843D01*
X652393Y-144888D01*
X652375D01*
X652320Y-144907D01*
X652229Y-144916D01*
X652110Y-144934D01*
X651965Y-144952D01*
X651791Y-144971D01*
X651600Y-144980D01*
X651382Y-144989D01*
X648977D01*
Y-138685D01*
X651454D01*
X651518Y-138694D01*
D02*
G37*
G36*
X663042Y-140416D02*
X663826D01*
Y-141017D01*
X663042D01*
Y-143704D01*
Y-143722D01*
Y-143759D01*
Y-143814D01*
X663052Y-143877D01*
X663061Y-144023D01*
X663070Y-144087D01*
X663079Y-144132D01*
X663088Y-144151D01*
X663115Y-144187D01*
X663152Y-144233D01*
X663215Y-144278D01*
X663234Y-144287D01*
X663279Y-144306D01*
X663361Y-144324D01*
X663480Y-144333D01*
X663571D01*
X663616Y-144324D01*
X663680D01*
X663753Y-144315D01*
X663826Y-144306D01*
X663926Y-144989D01*
X663908D01*
X663871Y-144998D01*
X663808Y-145007D01*
X663726Y-145016D01*
X663634Y-145034D01*
X663534Y-145043D01*
X663334Y-145053D01*
X663261D01*
X663188Y-145043D01*
X663097Y-145034D01*
X662988Y-145025D01*
X662878Y-144998D01*
X662778Y-144971D01*
X662678Y-144925D01*
X662669Y-144916D01*
X662641Y-144898D01*
X662605Y-144870D01*
X662550Y-144825D01*
X662505Y-144779D01*
X662450Y-144715D01*
X662396Y-144652D01*
X662359Y-144570D01*
Y-144561D01*
X662341Y-144524D01*
X662332Y-144460D01*
X662314Y-144369D01*
X662295Y-144251D01*
X662286Y-144178D01*
Y-144096D01*
X662277Y-143996D01*
X662268Y-143895D01*
Y-143786D01*
Y-143659D01*
Y-141017D01*
X661694D01*
Y-140416D01*
X662268D01*
Y-139286D01*
X663042Y-138821D01*
Y-140416D01*
D02*
G37*
G36*
X660592D02*
X661375D01*
Y-141017D01*
X660592D01*
Y-143704D01*
Y-143722D01*
Y-143759D01*
Y-143814D01*
X660601Y-143877D01*
X660610Y-144023D01*
X660619Y-144087D01*
X660628Y-144132D01*
X660637Y-144151D01*
X660665Y-144187D01*
X660701Y-144233D01*
X660765Y-144278D01*
X660783Y-144287D01*
X660829Y-144306D01*
X660911Y-144324D01*
X661029Y-144333D01*
X661120D01*
X661166Y-144324D01*
X661230D01*
X661302Y-144315D01*
X661375Y-144306D01*
X661476Y-144989D01*
X661457D01*
X661421Y-144998D01*
X661357Y-145007D01*
X661275Y-145016D01*
X661184Y-145034D01*
X661084Y-145043D01*
X660883Y-145053D01*
X660810D01*
X660738Y-145043D01*
X660646Y-145034D01*
X660537Y-145025D01*
X660428Y-144998D01*
X660328Y-144971D01*
X660227Y-144925D01*
X660218Y-144916D01*
X660191Y-144898D01*
X660154Y-144870D01*
X660100Y-144825D01*
X660054Y-144779D01*
X660000Y-144715D01*
X659945Y-144652D01*
X659908Y-144570D01*
Y-144561D01*
X659890Y-144524D01*
X659881Y-144460D01*
X659863Y-144369D01*
X659845Y-144251D01*
X659836Y-144178D01*
Y-144096D01*
X659827Y-143996D01*
X659817Y-143895D01*
Y-143786D01*
Y-143659D01*
Y-141017D01*
X659243D01*
Y-140416D01*
X659817D01*
Y-139286D01*
X660592Y-138821D01*
Y-140416D01*
D02*
G37*
G36*
X692568Y-140324D02*
X692641Y-140333D01*
X692732Y-140352D01*
X692832Y-140370D01*
X692950Y-140397D01*
X693060Y-140425D01*
X693187Y-140470D01*
X693306Y-140516D01*
X693433Y-140579D01*
X693561Y-140652D01*
X693688Y-140734D01*
X693807Y-140835D01*
X693916Y-140944D01*
X693925Y-140953D01*
X693944Y-140971D01*
X693971Y-141008D01*
X694007Y-141062D01*
X694053Y-141126D01*
X694098Y-141199D01*
X694153Y-141290D01*
X694208Y-141399D01*
X694262Y-141518D01*
X694317Y-141645D01*
X694363Y-141791D01*
X694408Y-141946D01*
X694445Y-142119D01*
X694472Y-142301D01*
X694490Y-142493D01*
X694499Y-142702D01*
Y-142711D01*
Y-142748D01*
Y-142811D01*
X694490Y-142903D01*
X691074D01*
Y-142912D01*
Y-142939D01*
X691083Y-142975D01*
Y-143030D01*
X691092Y-143094D01*
X691110Y-143167D01*
X691138Y-143331D01*
X691192Y-143513D01*
X691265Y-143713D01*
X691365Y-143895D01*
X691493Y-144060D01*
X691502D01*
X691511Y-144078D01*
X691566Y-144123D01*
X691648Y-144187D01*
X691757Y-144251D01*
X691903Y-144324D01*
X692067Y-144387D01*
X692249Y-144433D01*
X692349Y-144442D01*
X692459Y-144451D01*
X692531D01*
X692613Y-144442D01*
X692714Y-144424D01*
X692823Y-144397D01*
X692950Y-144360D01*
X693069Y-144306D01*
X693187Y-144233D01*
X693196Y-144223D01*
X693242Y-144187D01*
X693297Y-144132D01*
X693361Y-144060D01*
X693433Y-143959D01*
X693515Y-143832D01*
X693597Y-143686D01*
X693670Y-143513D01*
X694472Y-143613D01*
Y-143622D01*
X694463Y-143640D01*
X694454Y-143677D01*
X694435Y-143732D01*
X694408Y-143786D01*
X694381Y-143859D01*
X694308Y-144014D01*
X694217Y-144187D01*
X694089Y-144369D01*
X693944Y-144542D01*
X693761Y-144706D01*
X693752D01*
X693734Y-144725D01*
X693707Y-144743D01*
X693670Y-144770D01*
X693615Y-144797D01*
X693561Y-144825D01*
X693488Y-144861D01*
X693406Y-144898D01*
X693315Y-144934D01*
X693224Y-144971D01*
X692996Y-145025D01*
X692741Y-145071D01*
X692459Y-145089D01*
X692358D01*
X692295Y-145080D01*
X692213Y-145071D01*
X692112Y-145053D01*
X692003Y-145034D01*
X691885Y-145016D01*
X691630Y-144943D01*
X691493Y-144888D01*
X691365Y-144834D01*
X691229Y-144761D01*
X691101Y-144679D01*
X690983Y-144588D01*
X690864Y-144479D01*
X690855Y-144469D01*
X690837Y-144451D01*
X690810Y-144415D01*
X690773Y-144360D01*
X690728Y-144296D01*
X690682Y-144223D01*
X690627Y-144132D01*
X690573Y-144032D01*
X690518Y-143914D01*
X690463Y-143786D01*
X690418Y-143640D01*
X690372Y-143486D01*
X690336Y-143322D01*
X690309Y-143139D01*
X690290Y-142948D01*
X690281Y-142748D01*
Y-142739D01*
Y-142693D01*
Y-142638D01*
X690290Y-142556D01*
X690300Y-142456D01*
X690309Y-142347D01*
X690327Y-142219D01*
X690354Y-142092D01*
X690427Y-141800D01*
X690473Y-141655D01*
X690527Y-141500D01*
X690600Y-141354D01*
X690682Y-141217D01*
X690773Y-141080D01*
X690873Y-140953D01*
X690882Y-140944D01*
X690901Y-140926D01*
X690937Y-140898D01*
X690983Y-140853D01*
X691037Y-140807D01*
X691110Y-140753D01*
X691192Y-140689D01*
X691292Y-140634D01*
X691393Y-140570D01*
X691511Y-140516D01*
X691639Y-140461D01*
X691775Y-140416D01*
X691921Y-140370D01*
X692076Y-140343D01*
X692240Y-140324D01*
X692413Y-140315D01*
X692504D01*
X692568Y-140324D01*
D02*
G37*
G36*
X666595D02*
X666677Y-140333D01*
X666768Y-140352D01*
X666869Y-140370D01*
X666987Y-140388D01*
X667233Y-140470D01*
X667360Y-140516D01*
X667488Y-140579D01*
X667616Y-140643D01*
X667743Y-140734D01*
X667862Y-140825D01*
X667980Y-140935D01*
X667989Y-140944D01*
X668007Y-140962D01*
X668035Y-140999D01*
X668071Y-141044D01*
X668117Y-141108D01*
X668171Y-141190D01*
X668226Y-141281D01*
X668281Y-141381D01*
X668335Y-141490D01*
X668390Y-141627D01*
X668445Y-141764D01*
X668490Y-141919D01*
X668527Y-142083D01*
X668554Y-142256D01*
X668572Y-142438D01*
X668581Y-142638D01*
Y-142648D01*
Y-142675D01*
Y-142720D01*
Y-142784D01*
X668572Y-142857D01*
X668563Y-142948D01*
Y-143039D01*
X668545Y-143139D01*
X668517Y-143367D01*
X668463Y-143595D01*
X668399Y-143823D01*
X668308Y-144032D01*
Y-144041D01*
X668299Y-144050D01*
X668281Y-144078D01*
X668262Y-144114D01*
X668199Y-144205D01*
X668117Y-144315D01*
X668007Y-144442D01*
X667871Y-144570D01*
X667716Y-144697D01*
X667534Y-144816D01*
X667524D01*
X667515Y-144825D01*
X667488Y-144843D01*
X667443Y-144861D01*
X667397Y-144879D01*
X667342Y-144898D01*
X667206Y-144952D01*
X667051Y-144998D01*
X666859Y-145043D01*
X666659Y-145080D01*
X666440Y-145089D01*
X666349D01*
X666276Y-145080D01*
X666194Y-145071D01*
X666103Y-145053D01*
X665994Y-145034D01*
X665885Y-145016D01*
X665639Y-144943D01*
X665502Y-144888D01*
X665375Y-144834D01*
X665247Y-144761D01*
X665119Y-144679D01*
X665001Y-144588D01*
X664883Y-144479D01*
X664874Y-144469D01*
X664855Y-144451D01*
X664828Y-144415D01*
X664791Y-144360D01*
X664746Y-144296D01*
X664700Y-144223D01*
X664646Y-144132D01*
X664591Y-144023D01*
X664536Y-143905D01*
X664482Y-143768D01*
X664436Y-143622D01*
X664391Y-143467D01*
X664354Y-143294D01*
X664327Y-143112D01*
X664309Y-142912D01*
X664299Y-142702D01*
Y-142684D01*
Y-142648D01*
X664309Y-142584D01*
Y-142493D01*
X664318Y-142392D01*
X664336Y-142265D01*
X664354Y-142137D01*
X664391Y-141992D01*
X664427Y-141846D01*
X664473Y-141691D01*
X664527Y-141527D01*
X664600Y-141372D01*
X664673Y-141226D01*
X664773Y-141080D01*
X664874Y-140944D01*
X665001Y-140825D01*
X665010Y-140816D01*
X665028Y-140807D01*
X665065Y-140780D01*
X665110Y-140744D01*
X665165Y-140707D01*
X665238Y-140662D01*
X665311Y-140616D01*
X665402Y-140570D01*
X665502Y-140525D01*
X665611Y-140479D01*
X665857Y-140397D01*
X666140Y-140333D01*
X666286Y-140324D01*
X666440Y-140315D01*
X666532D01*
X666595Y-140324D01*
D02*
G37*
G36*
X656793D02*
X656875Y-140333D01*
X656966Y-140352D01*
X657066Y-140370D01*
X657185Y-140388D01*
X657431Y-140470D01*
X657558Y-140516D01*
X657686Y-140579D01*
X657813Y-140643D01*
X657941Y-140734D01*
X658059Y-140825D01*
X658178Y-140935D01*
X658187Y-140944D01*
X658205Y-140962D01*
X658232Y-140999D01*
X658269Y-141044D01*
X658314Y-141108D01*
X658369Y-141190D01*
X658424Y-141281D01*
X658478Y-141381D01*
X658533Y-141490D01*
X658588Y-141627D01*
X658642Y-141764D01*
X658688Y-141919D01*
X658724Y-142083D01*
X658752Y-142256D01*
X658770Y-142438D01*
X658779Y-142638D01*
Y-142648D01*
Y-142675D01*
Y-142720D01*
Y-142784D01*
X658770Y-142857D01*
X658761Y-142948D01*
Y-143039D01*
X658743Y-143139D01*
X658715Y-143367D01*
X658661Y-143595D01*
X658597Y-143823D01*
X658506Y-144032D01*
Y-144041D01*
X658497Y-144050D01*
X658478Y-144078D01*
X658460Y-144114D01*
X658396Y-144205D01*
X658314Y-144315D01*
X658205Y-144442D01*
X658068Y-144570D01*
X657913Y-144697D01*
X657731Y-144816D01*
X657722D01*
X657713Y-144825D01*
X657686Y-144843D01*
X657640Y-144861D01*
X657595Y-144879D01*
X657540Y-144898D01*
X657403Y-144952D01*
X657248Y-144998D01*
X657057Y-145043D01*
X656857Y-145080D01*
X656638Y-145089D01*
X656547D01*
X656474Y-145080D01*
X656392Y-145071D01*
X656301Y-145053D01*
X656192Y-145034D01*
X656082Y-145016D01*
X655836Y-144943D01*
X655700Y-144888D01*
X655572Y-144834D01*
X655445Y-144761D01*
X655317Y-144679D01*
X655199Y-144588D01*
X655080Y-144479D01*
X655071Y-144469D01*
X655053Y-144451D01*
X655026Y-144415D01*
X654989Y-144360D01*
X654944Y-144296D01*
X654898Y-144223D01*
X654843Y-144132D01*
X654789Y-144023D01*
X654734Y-143905D01*
X654679Y-143768D01*
X654634Y-143622D01*
X654588Y-143467D01*
X654552Y-143294D01*
X654525Y-143112D01*
X654506Y-142912D01*
X654497Y-142702D01*
Y-142684D01*
Y-142648D01*
X654506Y-142584D01*
Y-142493D01*
X654515Y-142392D01*
X654534Y-142265D01*
X654552Y-142137D01*
X654588Y-141992D01*
X654625Y-141846D01*
X654670Y-141691D01*
X654725Y-141527D01*
X654798Y-141372D01*
X654871Y-141226D01*
X654971Y-141080D01*
X655071Y-140944D01*
X655199Y-140825D01*
X655208Y-140816D01*
X655226Y-140807D01*
X655262Y-140780D01*
X655308Y-140744D01*
X655363Y-140707D01*
X655436Y-140662D01*
X655508Y-140616D01*
X655599Y-140570D01*
X655700Y-140525D01*
X655809Y-140479D01*
X656055Y-140397D01*
X656337Y-140333D01*
X656483Y-140324D01*
X656638Y-140315D01*
X656729D01*
X656793Y-140324D01*
D02*
G37*
G36*
X682292Y-138584D02*
X682374D01*
X682456Y-138593D01*
X682565Y-138612D01*
X682674Y-138630D01*
X682911Y-138675D01*
X683185Y-138748D01*
X683449Y-138858D01*
X683585Y-138921D01*
X683722Y-138994D01*
X683731Y-139004D01*
X683749Y-139013D01*
X683786Y-139040D01*
X683841Y-139067D01*
X683895Y-139113D01*
X683968Y-139167D01*
X684123Y-139295D01*
X684287Y-139459D01*
X684469Y-139659D01*
X684642Y-139896D01*
X684788Y-140160D01*
Y-140170D01*
X684806Y-140197D01*
X684824Y-140233D01*
X684843Y-140288D01*
X684879Y-140361D01*
X684906Y-140443D01*
X684943Y-140543D01*
X684979Y-140652D01*
X685007Y-140771D01*
X685043Y-140898D01*
X685079Y-141044D01*
X685107Y-141190D01*
X685143Y-141509D01*
X685161Y-141855D01*
Y-141864D01*
Y-141901D01*
Y-141946D01*
X685152Y-142019D01*
Y-142101D01*
X685143Y-142201D01*
X685125Y-142310D01*
X685116Y-142429D01*
X685070Y-142693D01*
X684998Y-142984D01*
X684897Y-143276D01*
X684843Y-143422D01*
X684770Y-143568D01*
Y-143577D01*
X684752Y-143604D01*
X684733Y-143640D01*
X684697Y-143695D01*
X684660Y-143759D01*
X684615Y-143823D01*
X684487Y-143996D01*
X684332Y-144178D01*
X684150Y-144369D01*
X683932Y-144552D01*
X683676Y-144715D01*
X683667D01*
X683649Y-144734D01*
X683604Y-144752D01*
X683549Y-144779D01*
X683485Y-144807D01*
X683412Y-144834D01*
X683321Y-144870D01*
X683221Y-144907D01*
X683112Y-144943D01*
X682993Y-144980D01*
X682729Y-145034D01*
X682447Y-145080D01*
X682146Y-145098D01*
X682055D01*
X682000Y-145089D01*
X681918D01*
X681827Y-145071D01*
X681727Y-145062D01*
X681609Y-145043D01*
X681363Y-144989D01*
X681098Y-144916D01*
X680825Y-144807D01*
X680688Y-144743D01*
X680552Y-144670D01*
X680543Y-144661D01*
X680524Y-144652D01*
X680488Y-144624D01*
X680433Y-144588D01*
X680379Y-144552D01*
X680315Y-144497D01*
X680160Y-144360D01*
X679987Y-144196D01*
X679805Y-143996D01*
X679641Y-143768D01*
X679486Y-143504D01*
Y-143495D01*
X679468Y-143467D01*
X679450Y-143431D01*
X679431Y-143376D01*
X679404Y-143303D01*
X679377Y-143221D01*
X679340Y-143130D01*
X679313Y-143030D01*
X679276Y-142912D01*
X679240Y-142793D01*
X679185Y-142520D01*
X679149Y-142237D01*
X679131Y-141928D01*
Y-141919D01*
Y-141910D01*
Y-141855D01*
X679140Y-141773D01*
Y-141664D01*
X679158Y-141536D01*
X679176Y-141381D01*
X679204Y-141208D01*
X679240Y-141026D01*
X679276Y-140835D01*
X679331Y-140634D01*
X679404Y-140434D01*
X679486Y-140224D01*
X679577Y-140024D01*
X679695Y-139823D01*
X679823Y-139641D01*
X679969Y-139468D01*
X679978Y-139459D01*
X680005Y-139432D01*
X680060Y-139386D01*
X680124Y-139331D01*
X680206Y-139259D01*
X680306Y-139186D01*
X680424Y-139104D01*
X680561Y-139022D01*
X680707Y-138940D01*
X680871Y-138858D01*
X681053Y-138785D01*
X681244Y-138712D01*
X681454Y-138657D01*
X681672Y-138612D01*
X681900Y-138584D01*
X682146Y-138575D01*
X682228D01*
X682292Y-138584D01*
D02*
G37*
%LPC*%
G36*
X703263Y-142693D02*
X703254D01*
X703245Y-142702D01*
X703218Y-142711D01*
X703181Y-142720D01*
X703135Y-142739D01*
X703081Y-142757D01*
X703017Y-142775D01*
X702944Y-142793D01*
X702862Y-142821D01*
X702762Y-142839D01*
X702662Y-142866D01*
X702543Y-142893D01*
X702416Y-142921D01*
X702288Y-142948D01*
X702142Y-142966D01*
X701988Y-142994D01*
X701969D01*
X701915Y-143003D01*
X701824Y-143021D01*
X701723Y-143039D01*
X701614Y-143057D01*
X701505Y-143085D01*
X701405Y-143112D01*
X701313Y-143149D01*
X701304D01*
X701277Y-143167D01*
X701241Y-143185D01*
X701204Y-143212D01*
X701095Y-143285D01*
X701004Y-143394D01*
Y-143404D01*
X700985Y-143422D01*
X700976Y-143458D01*
X700958Y-143504D01*
X700940Y-143559D01*
X700922Y-143613D01*
X700913Y-143686D01*
X700904Y-143759D01*
Y-143768D01*
Y-143814D01*
X700913Y-143868D01*
X700931Y-143941D01*
X700958Y-144023D01*
X701004Y-144105D01*
X701058Y-144196D01*
X701131Y-144278D01*
X701140Y-144287D01*
X701177Y-144306D01*
X701231Y-144342D01*
X701304Y-144378D01*
X701405Y-144415D01*
X701523Y-144451D01*
X701660Y-144469D01*
X701824Y-144479D01*
X701896D01*
X701988Y-144469D01*
X702088Y-144451D01*
X702215Y-144433D01*
X702343Y-144397D01*
X702480Y-144351D01*
X702616Y-144287D01*
X702634Y-144278D01*
X702671Y-144251D01*
X702735Y-144205D01*
X702808Y-144141D01*
X702889Y-144069D01*
X702981Y-143977D01*
X703054Y-143868D01*
X703126Y-143750D01*
X703135Y-143741D01*
X703145Y-143704D01*
X703163Y-143640D01*
X703190Y-143559D01*
X703218Y-143449D01*
X703236Y-143322D01*
X703245Y-143167D01*
X703254Y-142984D01*
X703263Y-142693D01*
D02*
G37*
G36*
X651309Y-139432D02*
X649815D01*
Y-141326D01*
X651363D01*
X651482Y-141317D01*
X651609Y-141308D01*
X651737Y-141299D01*
X651864Y-141281D01*
X651965Y-141263D01*
X651983Y-141254D01*
X652019Y-141244D01*
X652074Y-141217D01*
X652147Y-141181D01*
X652220Y-141144D01*
X652302Y-141090D01*
X652384Y-141017D01*
X652447Y-140944D01*
X652457Y-140935D01*
X652475Y-140908D01*
X652502Y-140853D01*
X652529Y-140789D01*
X652557Y-140716D01*
X652584Y-140625D01*
X652602Y-140516D01*
X652611Y-140397D01*
Y-140379D01*
Y-140343D01*
X652602Y-140288D01*
X652593Y-140215D01*
X652575Y-140124D01*
X652548Y-140033D01*
X652511Y-139942D01*
X652457Y-139851D01*
X652447Y-139842D01*
X652429Y-139814D01*
X652393Y-139769D01*
X652347Y-139723D01*
X652283Y-139669D01*
X652211Y-139614D01*
X652119Y-139559D01*
X652019Y-139523D01*
X652010D01*
X651965Y-139505D01*
X651901Y-139495D01*
X651801Y-139477D01*
X651664Y-139459D01*
X651509Y-139450D01*
X651309Y-139432D01*
D02*
G37*
G36*
X651473Y-142074D02*
X649815D01*
Y-144242D01*
X651609D01*
X651801Y-144233D01*
X651883Y-144223D01*
X651956Y-144214D01*
X651965D01*
X652001Y-144205D01*
X652056Y-144196D01*
X652119Y-144178D01*
X652274Y-144123D01*
X652429Y-144050D01*
X652438Y-144041D01*
X652466Y-144023D01*
X652502Y-143996D01*
X652548Y-143959D01*
X652593Y-143905D01*
X652657Y-143850D01*
X652703Y-143777D01*
X652757Y-143695D01*
X652766Y-143686D01*
X652775Y-143659D01*
X652794Y-143604D01*
X652821Y-143540D01*
X652848Y-143467D01*
X652867Y-143376D01*
X652876Y-143267D01*
X652885Y-143158D01*
Y-143139D01*
Y-143103D01*
X652876Y-143030D01*
X652857Y-142948D01*
X652839Y-142857D01*
X652803Y-142757D01*
X652757Y-142657D01*
X652693Y-142556D01*
X652684Y-142547D01*
X652657Y-142511D01*
X652621Y-142465D01*
X652566Y-142411D01*
X652493Y-142347D01*
X652402Y-142283D01*
X652302Y-142228D01*
X652183Y-142183D01*
X652165Y-142174D01*
X652129Y-142165D01*
X652047Y-142146D01*
X651946Y-142128D01*
X651819Y-142110D01*
X651664Y-142092D01*
X651473Y-142074D01*
D02*
G37*
G36*
X692422Y-140953D02*
X692368D01*
X692331Y-140962D01*
X692231Y-140971D01*
X692112Y-140999D01*
X691967Y-141044D01*
X691812Y-141108D01*
X691666Y-141199D01*
X691520Y-141317D01*
X691502Y-141336D01*
X691466Y-141381D01*
X691402Y-141463D01*
X691338Y-141572D01*
X691265Y-141700D01*
X691201Y-141864D01*
X691147Y-142055D01*
X691119Y-142265D01*
X693679D01*
Y-142256D01*
Y-142237D01*
X693670Y-142210D01*
Y-142174D01*
X693652Y-142064D01*
X693625Y-141946D01*
X693579Y-141800D01*
X693534Y-141664D01*
X693461Y-141527D01*
X693379Y-141409D01*
Y-141399D01*
X693361Y-141390D01*
X693315Y-141336D01*
X693233Y-141263D01*
X693124Y-141181D01*
X692987Y-141099D01*
X692823Y-141026D01*
X692632Y-140971D01*
X692531Y-140962D01*
X692422Y-140953D01*
D02*
G37*
G36*
X666440D02*
X666386D01*
X666340Y-140962D01*
X666240Y-140971D01*
X666103Y-141008D01*
X665948Y-141062D01*
X665785Y-141135D01*
X665630Y-141244D01*
X665548Y-141317D01*
X665475Y-141390D01*
Y-141399D01*
X665456Y-141409D01*
X665438Y-141436D01*
X665411Y-141472D01*
X665384Y-141518D01*
X665356Y-141572D01*
X665320Y-141645D01*
X665283Y-141718D01*
X665247Y-141809D01*
X665210Y-141901D01*
X665183Y-142010D01*
X665156Y-142128D01*
X665129Y-142256D01*
X665110Y-142392D01*
X665101Y-142547D01*
X665092Y-142702D01*
Y-142711D01*
Y-142739D01*
Y-142784D01*
X665101Y-142848D01*
Y-142921D01*
X665110Y-143003D01*
X665138Y-143194D01*
X665183Y-143413D01*
X665256Y-143631D01*
X665347Y-143841D01*
X665411Y-143932D01*
X665475Y-144023D01*
X665484D01*
X665493Y-144041D01*
X665548Y-144087D01*
X665630Y-144160D01*
X665739Y-144233D01*
X665876Y-144315D01*
X666040Y-144387D01*
X666231Y-144433D01*
X666331Y-144442D01*
X666440Y-144451D01*
X666495D01*
X666541Y-144442D01*
X666641Y-144424D01*
X666778Y-144397D01*
X666923Y-144342D01*
X667087Y-144269D01*
X667242Y-144160D01*
X667324Y-144087D01*
X667397Y-144014D01*
X667406Y-144005D01*
X667415Y-143996D01*
X667433Y-143968D01*
X667461Y-143932D01*
X667488Y-143886D01*
X667524Y-143832D01*
X667561Y-143759D01*
X667597Y-143686D01*
X667634Y-143595D01*
X667661Y-143495D01*
X667698Y-143385D01*
X667725Y-143267D01*
X667752Y-143130D01*
X667770Y-142994D01*
X667789Y-142839D01*
Y-142675D01*
Y-142666D01*
Y-142638D01*
Y-142593D01*
X667780Y-142538D01*
Y-142465D01*
X667770Y-142383D01*
X667743Y-142192D01*
X667698Y-141992D01*
X667625Y-141773D01*
X667524Y-141572D01*
X667470Y-141472D01*
X667397Y-141390D01*
Y-141381D01*
X667379Y-141372D01*
X667324Y-141317D01*
X667242Y-141254D01*
X667133Y-141172D01*
X666996Y-141090D01*
X666832Y-141017D01*
X666650Y-140971D01*
X666550Y-140962D01*
X666440Y-140953D01*
D02*
G37*
G36*
X656638D02*
X656583D01*
X656538Y-140962D01*
X656438Y-140971D01*
X656301Y-141008D01*
X656146Y-141062D01*
X655982Y-141135D01*
X655827Y-141244D01*
X655745Y-141317D01*
X655672Y-141390D01*
Y-141399D01*
X655654Y-141409D01*
X655636Y-141436D01*
X655609Y-141472D01*
X655581Y-141518D01*
X655554Y-141572D01*
X655517Y-141645D01*
X655481Y-141718D01*
X655445Y-141809D01*
X655408Y-141901D01*
X655381Y-142010D01*
X655353Y-142128D01*
X655326Y-142256D01*
X655308Y-142392D01*
X655299Y-142547D01*
X655290Y-142702D01*
Y-142711D01*
Y-142739D01*
Y-142784D01*
X655299Y-142848D01*
Y-142921D01*
X655308Y-143003D01*
X655335Y-143194D01*
X655381Y-143413D01*
X655454Y-143631D01*
X655545Y-143841D01*
X655609Y-143932D01*
X655672Y-144023D01*
X655682D01*
X655691Y-144041D01*
X655745Y-144087D01*
X655827Y-144160D01*
X655937Y-144233D01*
X656073Y-144315D01*
X656237Y-144387D01*
X656428Y-144433D01*
X656529Y-144442D01*
X656638Y-144451D01*
X656693D01*
X656738Y-144442D01*
X656839Y-144424D01*
X656975Y-144397D01*
X657121Y-144342D01*
X657285Y-144269D01*
X657440Y-144160D01*
X657522Y-144087D01*
X657595Y-144014D01*
X657604Y-144005D01*
X657613Y-143996D01*
X657631Y-143968D01*
X657658Y-143932D01*
X657686Y-143886D01*
X657722Y-143832D01*
X657759Y-143759D01*
X657795Y-143686D01*
X657831Y-143595D01*
X657859Y-143495D01*
X657895Y-143385D01*
X657923Y-143267D01*
X657950Y-143130D01*
X657968Y-142994D01*
X657986Y-142839D01*
Y-142675D01*
Y-142666D01*
Y-142638D01*
Y-142593D01*
X657977Y-142538D01*
Y-142465D01*
X657968Y-142383D01*
X657941Y-142192D01*
X657895Y-141992D01*
X657822Y-141773D01*
X657722Y-141572D01*
X657667Y-141472D01*
X657595Y-141390D01*
Y-141381D01*
X657576Y-141372D01*
X657522Y-141317D01*
X657440Y-141254D01*
X657330Y-141172D01*
X657194Y-141090D01*
X657030Y-141017D01*
X656848Y-140971D01*
X656747Y-140962D01*
X656638Y-140953D01*
D02*
G37*
G36*
X682146Y-139295D02*
X682064D01*
X682000Y-139304D01*
X681918Y-139313D01*
X681836Y-139331D01*
X681736Y-139350D01*
X681627Y-139368D01*
X681390Y-139441D01*
X681262Y-139495D01*
X681135Y-139550D01*
X680998Y-139623D01*
X680871Y-139705D01*
X680743Y-139796D01*
X680625Y-139905D01*
X680616Y-139915D01*
X680597Y-139933D01*
X680570Y-139969D01*
X680524Y-140024D01*
X680479Y-140088D01*
X680424Y-140170D01*
X680370Y-140270D01*
X680306Y-140388D01*
X680251Y-140516D01*
X680187Y-140671D01*
X680133Y-140835D01*
X680087Y-141017D01*
X680042Y-141217D01*
X680014Y-141445D01*
X679996Y-141682D01*
X679987Y-141937D01*
Y-141946D01*
Y-141982D01*
Y-142046D01*
X679996Y-142128D01*
X680005Y-142219D01*
X680023Y-142329D01*
X680042Y-142456D01*
X680060Y-142584D01*
X680133Y-142875D01*
X680187Y-143021D01*
X680242Y-143176D01*
X680315Y-143322D01*
X680397Y-143467D01*
X680488Y-143604D01*
X680597Y-143732D01*
X680607Y-143741D01*
X680625Y-143759D01*
X680661Y-143795D01*
X680707Y-143832D01*
X680770Y-143886D01*
X680843Y-143941D01*
X680925Y-143996D01*
X681016Y-144060D01*
X681126Y-144123D01*
X681244Y-144178D01*
X681372Y-144233D01*
X681508Y-144287D01*
X681654Y-144324D01*
X681800Y-144360D01*
X681964Y-144378D01*
X682137Y-144387D01*
X682183D01*
X682228Y-144378D01*
X682292D01*
X682374Y-144369D01*
X682465Y-144351D01*
X682574Y-144333D01*
X682684Y-144306D01*
X682811Y-144269D01*
X682930Y-144223D01*
X683066Y-144178D01*
X683194Y-144114D01*
X683321Y-144032D01*
X683449Y-143950D01*
X683576Y-143850D01*
X683695Y-143732D01*
X683704Y-143722D01*
X683722Y-143704D01*
X683749Y-143659D01*
X683795Y-143604D01*
X683841Y-143540D01*
X683886Y-143458D01*
X683941Y-143358D01*
X684004Y-143249D01*
X684059Y-143121D01*
X684114Y-142975D01*
X684159Y-142821D01*
X684214Y-142657D01*
X684250Y-142474D01*
X684278Y-142274D01*
X684296Y-142064D01*
X684305Y-141846D01*
Y-141837D01*
Y-141809D01*
Y-141773D01*
Y-141718D01*
X684296Y-141655D01*
Y-141572D01*
X684287Y-141490D01*
X684269Y-141390D01*
X684241Y-141181D01*
X684196Y-140962D01*
X684132Y-140725D01*
X684041Y-140507D01*
Y-140498D01*
X684032Y-140479D01*
X684014Y-140452D01*
X683995Y-140416D01*
X683932Y-140306D01*
X683850Y-140179D01*
X683740Y-140033D01*
X683604Y-139887D01*
X683449Y-139741D01*
X683276Y-139614D01*
X683267D01*
X683257Y-139596D01*
X683230Y-139586D01*
X683185Y-139559D01*
X683139Y-139541D01*
X683084Y-139514D01*
X682948Y-139450D01*
X682784Y-139395D01*
X682592Y-139340D01*
X682374Y-139304D01*
X682146Y-139295D01*
D02*
G37*
%LPD*%
D11*
X40Y18031D02*
G03*
X11317Y6947I11796J722D01*
G01*
X29279Y2252D02*
G03*
X21524Y6947I-10086J-7908D01*
G01*
X29279Y2252D02*
G03*
X34488Y-72I4950J4095D01*
G01*
X311967Y-72D02*
G03*
X327284Y8149I575J17307D01*
G01*
X348242Y14356D02*
G03*
X361631Y27952I-102J13490D01*
G01*
X339435Y14356D02*
G03*
X327284Y8149I-253J-14503D01*
G01*
X361631Y319610D02*
G03*
X349410Y331905I-12330J-35D01*
G01*
X326575Y341338D02*
G03*
X338899Y331927I13326J4677D01*
G01*
X326575Y341220D02*
G03*
X314725Y349881I-12571J-4763D01*
G01*
X14449D02*
G03*
X45Y335005I609J-15002D01*
G01*
X11317Y6947D02*
X21524D01*
X34488Y-72D02*
X311967Y-72D01*
X339182Y14356D02*
X348242D01*
X361631Y27952D02*
X361631Y319610D01*
X338899Y331927D02*
X349301D01*
X16575Y349881D02*
X314725D01*
X14449D02*
X16575D01*
X40Y18031D02*
Y334880D01*
D13*
X250835Y189165D02*
Y244992D01*
X269602Y186721D02*
X302016D01*
X87791Y189299D02*
Y245035D01*
X36610Y186721D02*
X69736D01*
X36610Y104882D02*
X87791D01*
Y163201D01*
X36610D02*
X87791D01*
X36610Y104882D02*
Y163201D01*
X206224Y258819D02*
X211736D01*
X206224Y91181D02*
X211736D01*
X36610Y186721D02*
Y245035D01*
X87791D01*
X36610Y272358D02*
Y330736D01*
X87791D01*
Y272358D02*
Y330736D01*
X36610Y272358D02*
X87791D01*
X36610Y19185D02*
X87791D01*
Y77378D01*
X36610D02*
X87791D01*
X36610Y19185D02*
Y77378D01*
X108494Y258799D02*
X141376D01*
X197360D02*
X230242D01*
X197360Y249449D02*
Y268150D01*
X141376Y249449D02*
X197360D01*
X141376D02*
Y268150D01*
X197360D01*
X108494Y91181D02*
X141376D01*
X197360D02*
X230242D01*
X197360Y81831D02*
Y100531D01*
X141376Y81831D02*
X197360D01*
X141376D02*
Y100531D01*
X197360D01*
X56693Y258815D02*
X62205D01*
X302016Y19185D02*
Y77299D01*
X250835Y19185D02*
X302016D01*
X250835D02*
Y77299D01*
X302016D01*
X250835Y163201D02*
X302016D01*
X250835Y105102D02*
Y163201D01*
Y105102D02*
X302016D01*
Y163201D01*
Y186721D02*
Y244992D01*
X250835D02*
X302016D01*
Y272445D02*
Y330736D01*
X250835Y272445D02*
X302016D01*
X250835D02*
Y330736D01*
X302016D01*
X56693Y91197D02*
X62205D01*
D14*
X4606Y92831D02*
X24138D01*
X4606Y142850D02*
X24138D01*
Y92831D02*
Y142850D01*
X4606Y92831D02*
Y142850D01*
X243188Y254800D02*
X239988D01*
X241588D01*
Y256933D01*
X243188D01*
X239988D01*
Y257999D02*
Y259066D01*
Y258533D01*
X243188D01*
X242655Y257999D01*
X241588Y260666D02*
Y262799D01*
X95623Y95447D02*
X98823D01*
X97223D01*
Y93314D01*
X95623D01*
X98823D01*
Y90114D02*
Y92248D01*
X96690Y90114D01*
X96156D01*
X95623Y90648D01*
Y91714D01*
X96156Y92248D01*
X97223Y89048D02*
Y86915D01*
X96156Y87981D02*
X98290D01*
X95623Y262799D02*
X98823D01*
X97223D01*
Y260666D01*
X95623D01*
X98823D01*
Y259599D02*
Y258533D01*
Y259066D01*
X95623D01*
X96156Y259599D01*
X97223Y256933D02*
Y254800D01*
X96156Y255866D02*
X98290D01*
X243188Y86927D02*
X239988D01*
X241588D01*
Y89060D01*
X243188D01*
X239988D01*
Y92260D02*
Y90126D01*
X242121Y92260D01*
X242655D01*
X243188Y91726D01*
Y90660D01*
X242655Y90126D01*
X241588Y93326D02*
Y95459D01*
X6768Y90223D02*
X7835D01*
X7302D01*
Y87557D01*
X7835Y87024D01*
X8368D01*
X8902Y87557D01*
X5702Y87024D02*
X4635D01*
X5169D01*
Y90223D01*
X5702Y89690D01*
X328290Y317409D02*
X326157D01*
X325091Y318476D01*
X326157Y319543D01*
X328290D01*
X324557Y320609D02*
Y322742D01*
X327757Y325942D02*
X328290Y325409D01*
Y324342D01*
X327757Y323809D01*
X325624D01*
X325091Y324342D01*
Y325409D01*
X325624Y325942D01*
X325091Y327009D02*
X328290D01*
X327224Y328075D01*
X328290Y329142D01*
X325091D01*
X21800Y197398D02*
X23933D01*
X25000Y196331D01*
X23933Y195264D01*
X21800D01*
Y194198D02*
X25000D01*
Y192598D01*
X24467Y192065D01*
X23933D01*
X23400Y192598D01*
Y194198D01*
Y192598D01*
X22867Y192065D01*
X22333D01*
X21800Y192598D01*
Y194198D01*
X25000Y190998D02*
X22867D01*
X21800Y189931D01*
X22867Y188865D01*
X25000D01*
X23400D01*
Y190998D01*
X21800Y187798D02*
Y185665D01*
Y186732D01*
X25000D01*
X23400Y184599D02*
Y182465D01*
X9686Y60890D02*
X11819D01*
X12886Y59823D01*
X11819Y58757D01*
X9686D01*
Y57690D02*
X12886D01*
Y56090D01*
X12353Y55557D01*
X11819D01*
X11286Y56090D01*
Y57690D01*
Y56090D01*
X10753Y55557D01*
X10219D01*
X9686Y56090D01*
Y57690D01*
X12886Y54490D02*
X10753D01*
X9686Y53424D01*
X10753Y52357D01*
X12886D01*
X11286D01*
Y54490D01*
X9686Y51291D02*
Y49157D01*
Y50224D01*
X12886D01*
X11286Y48091D02*
Y45957D01*
X10219Y47024D02*
X12353D01*
X309488Y118788D02*
X306288D01*
Y120388D01*
X306821Y120921D01*
X307355D01*
X307888Y120388D01*
Y118788D01*
Y120388D01*
X308421Y120921D01*
X308955D01*
X309488Y120388D01*
Y118788D01*
X308421Y122521D02*
Y123588D01*
X307888Y124121D01*
X306288D01*
Y122521D01*
X306821Y121988D01*
X307355Y122521D01*
Y124121D01*
X308955Y125721D02*
X308421D01*
Y125188D01*
Y126254D01*
Y125721D01*
X306821D01*
X306288Y126254D01*
X308955Y128387D02*
X308421D01*
Y127854D01*
Y128921D01*
Y128387D01*
X306821D01*
X306288Y128921D01*
Y132121D02*
Y131054D01*
X306821Y130521D01*
X307888D01*
X308421Y131054D01*
Y132121D01*
X307888Y132654D01*
X307355D01*
Y130521D01*
X308421Y133720D02*
X306288D01*
X307355D01*
X307888Y134254D01*
X308421Y134787D01*
Y135320D01*
Y136920D02*
X306821D01*
X306288Y137453D01*
Y139053D01*
X305755D01*
X305222Y138520D01*
Y137987D01*
X306288Y139053D02*
X308421D01*
X305755Y140120D02*
Y142253D01*
X308955Y143320D02*
X309488Y143853D01*
Y144920D01*
X308955Y145453D01*
X308421D01*
X307888Y144920D01*
Y144386D01*
Y144920D01*
X307355Y145453D01*
X306821D01*
X306288Y144920D01*
Y143853D01*
X306821Y143320D01*
X307888Y146519D02*
Y148653D01*
X308955Y147586D02*
X306821D01*
X29188Y63688D02*
X32388D01*
Y62088D01*
X31855Y61555D01*
X31322D01*
X30788Y62088D01*
Y63688D01*
Y62088D01*
X30255Y61555D01*
X29722D01*
X29188Y62088D01*
Y63688D01*
X30255Y59955D02*
Y58889D01*
X30788Y58355D01*
X32388D01*
Y59955D01*
X31855Y60488D01*
X31322Y59955D01*
Y58355D01*
X29722Y56755D02*
X30255D01*
Y57289D01*
Y56222D01*
Y56755D01*
X31855D01*
X32388Y56222D01*
X29722Y54089D02*
X30255D01*
Y54622D01*
Y53556D01*
Y54089D01*
X31855D01*
X32388Y53556D01*
Y50356D02*
Y51423D01*
X31855Y51956D01*
X30788D01*
X30255Y51423D01*
Y50356D01*
X30788Y49823D01*
X31322D01*
Y51956D01*
X30255Y48756D02*
X32388D01*
X31322D01*
X30788Y48223D01*
X30255Y47689D01*
Y47156D01*
Y45556D02*
X31855D01*
X32388Y45023D01*
Y43423D01*
X32921D01*
X33455Y43956D01*
Y44490D01*
X32388Y43423D02*
X30255D01*
X32921Y42357D02*
Y40223D01*
X32388Y37557D02*
X29188D01*
X30788Y39157D01*
Y37023D01*
Y35957D02*
Y33824D01*
X29722Y34890D02*
X31855D01*
X214870Y76394D02*
Y79593D01*
X213270D01*
X212737Y79060D01*
Y77994D01*
X213270Y77460D01*
X214870D01*
X213804D02*
X212737Y76394D01*
X211670Y79593D02*
X209537D01*
X210604D01*
Y76394D01*
X208471Y79593D02*
Y76394D01*
X206871D01*
X206337Y76927D01*
Y79060D01*
X206871Y79593D01*
X208471D01*
X205271Y79060D02*
X204737Y79593D01*
X203671D01*
X203138Y79060D01*
Y78527D01*
X203671Y77994D01*
X204204D01*
X203671D01*
X203138Y77460D01*
Y76927D01*
X203671Y76394D01*
X204737D01*
X205271Y76927D01*
X29188Y315888D02*
X32388D01*
Y314288D01*
X31855Y313755D01*
X31322D01*
X30788Y314288D01*
Y315888D01*
Y314288D01*
X30255Y313755D01*
X29722D01*
X29188Y314288D01*
Y315888D01*
X30255Y312155D02*
Y311088D01*
X30788Y310555D01*
X32388D01*
Y312155D01*
X31855Y312688D01*
X31322Y312155D01*
Y310555D01*
X29722Y308955D02*
X30255D01*
Y309489D01*
Y308422D01*
Y308955D01*
X31855D01*
X32388Y308422D01*
X29722Y306289D02*
X30255D01*
Y306822D01*
Y305756D01*
Y306289D01*
X31855D01*
X32388Y305756D01*
Y302556D02*
Y303623D01*
X31855Y304156D01*
X30788D01*
X30255Y303623D01*
Y302556D01*
X30788Y302023D01*
X31322D01*
Y304156D01*
X30255Y300956D02*
X32388D01*
X31322D01*
X30788Y300423D01*
X30255Y299889D01*
Y299356D01*
Y297756D02*
X31855D01*
X32388Y297223D01*
Y295623D01*
X32921D01*
X33455Y296156D01*
Y296690D01*
X32388Y295623D02*
X30255D01*
X32921Y294556D02*
Y292423D01*
X32388Y291357D02*
Y290290D01*
Y290823D01*
X29188D01*
X29722Y291357D01*
X30788Y288690D02*
Y286557D01*
X29722Y287624D02*
X31855D01*
X214713Y244094D02*
Y247294D01*
X213113D01*
X212579Y246761D01*
Y245694D01*
X213113Y245161D01*
X214713D01*
X213646D02*
X212579Y244094D01*
X211513Y247294D02*
X209380D01*
X210446D01*
Y244094D01*
X208313Y247294D02*
Y244094D01*
X206713D01*
X206180Y244628D01*
Y246761D01*
X206713Y247294D01*
X208313D01*
X203513Y244094D02*
Y247294D01*
X205113Y245694D01*
X202980D01*
X52044Y97104D02*
X48844D01*
Y95504D01*
X49378Y94971D01*
X50444D01*
X50977Y95504D01*
Y97104D01*
Y96037D02*
X52044Y94971D01*
X48844Y93904D02*
Y91771D01*
Y92838D01*
X52044D01*
X48844Y90704D02*
X52044D01*
Y89104D01*
X51511Y88571D01*
X49378D01*
X48844Y89104D01*
Y90704D01*
X52044Y85372D02*
Y87505D01*
X49911Y85372D01*
X49378D01*
X48844Y85905D01*
Y86971D01*
X49378Y87505D01*
X52044Y264104D02*
X48844D01*
Y262504D01*
X49378Y261971D01*
X50444D01*
X50977Y262504D01*
Y264104D01*
Y263037D02*
X52044Y261971D01*
X48844Y260904D02*
Y258771D01*
Y259838D01*
X52044D01*
X48844Y257704D02*
X52044D01*
Y256104D01*
X51511Y255571D01*
X49378D01*
X48844Y256104D01*
Y257704D01*
X52044Y254505D02*
Y253438D01*
Y253971D01*
X48844D01*
X49378Y254505D01*
X179788Y108088D02*
Y104888D01*
Y106488D01*
X177655D01*
Y108088D01*
Y104888D01*
X174989D02*
X176055D01*
X176588Y105421D01*
Y106488D01*
X176055Y107021D01*
X174989D01*
X174455Y106488D01*
Y105955D01*
X176588D01*
X172855Y107021D02*
X171789D01*
X171256Y106488D01*
Y104888D01*
X172855D01*
X173389Y105421D01*
X172855Y105955D01*
X171256D01*
X169656Y107555D02*
Y107021D01*
X170189D01*
X169122D01*
X169656D01*
Y105421D01*
X169122Y104888D01*
X165923D02*
X166989D01*
X167523Y105421D01*
Y106488D01*
X166989Y107021D01*
X165923D01*
X165389Y106488D01*
Y105955D01*
X167523D01*
X164323Y107021D02*
Y104888D01*
Y105955D01*
X163789Y106488D01*
X163256Y107021D01*
X162723D01*
X158990Y104888D02*
X161123D01*
X158990Y107021D01*
Y107555D01*
X159523Y108088D01*
X160590D01*
X161123Y107555D01*
X179188Y275688D02*
Y272488D01*
Y274088D01*
X177055D01*
Y275688D01*
Y272488D01*
X174389D02*
X175455D01*
X175988Y273022D01*
Y274088D01*
X175455Y274621D01*
X174389D01*
X173855Y274088D01*
Y273555D01*
X175988D01*
X172255Y274621D02*
X171189D01*
X170656Y274088D01*
Y272488D01*
X172255D01*
X172789Y273022D01*
X172255Y273555D01*
X170656D01*
X169056Y275155D02*
Y274621D01*
X169589D01*
X168522D01*
X169056D01*
Y273022D01*
X168522Y272488D01*
X165323D02*
X166389D01*
X166922Y273022D01*
Y274088D01*
X166389Y274621D01*
X165323D01*
X164789Y274088D01*
Y273555D01*
X166922D01*
X163723Y274621D02*
Y272488D01*
Y273555D01*
X163189Y274088D01*
X162656Y274621D01*
X162123D01*
X160523Y272488D02*
X159456D01*
X159990D01*
Y275688D01*
X160523Y275155D01*
X309488Y33788D02*
X306288D01*
Y35388D01*
X306821Y35921D01*
X307355D01*
X307888Y35388D01*
Y33788D01*
Y35388D01*
X308421Y35921D01*
X308955D01*
X309488Y35388D01*
Y33788D01*
X308421Y37521D02*
Y38588D01*
X307888Y39121D01*
X306288D01*
Y37521D01*
X306821Y36988D01*
X307355Y37521D01*
Y39121D01*
X308955Y40721D02*
X308421D01*
Y40188D01*
Y41254D01*
Y40721D01*
X306821D01*
X306288Y41254D01*
X308955Y43387D02*
X308421D01*
Y42854D01*
Y43921D01*
Y43387D01*
X306821D01*
X306288Y43921D01*
Y47120D02*
Y46054D01*
X306821Y45521D01*
X307888D01*
X308421Y46054D01*
Y47120D01*
X307888Y47654D01*
X307355D01*
Y45521D01*
X308421Y48720D02*
X306288D01*
X307355D01*
X307888Y49254D01*
X308421Y49787D01*
Y50320D01*
Y51920D02*
X306821D01*
X306288Y52453D01*
Y54053D01*
X305755D01*
X305222Y53520D01*
Y52987D01*
X306288Y54053D02*
X308421D01*
X305755Y55120D02*
Y57253D01*
X306288Y59920D02*
X309488D01*
X307888Y58320D01*
Y60453D01*
Y61519D02*
Y63653D01*
X30403Y162854D02*
X33602D01*
Y161254D01*
X33069Y160721D01*
X32536D01*
X32002Y161254D01*
Y162854D01*
Y161254D01*
X31469Y160721D01*
X30936D01*
X30403Y161254D01*
Y162854D01*
X31469Y159121D02*
Y158055D01*
X32002Y157521D01*
X33602D01*
Y159121D01*
X33069Y159655D01*
X32536Y159121D01*
Y157521D01*
X30936Y155921D02*
X31469D01*
Y156455D01*
Y155388D01*
Y155921D01*
X33069D01*
X33602Y155388D01*
X30936Y153255D02*
X31469D01*
Y153788D01*
Y152722D01*
Y153255D01*
X33069D01*
X33602Y152722D01*
Y149522D02*
Y150589D01*
X33069Y151122D01*
X32002D01*
X31469Y150589D01*
Y149522D01*
X32002Y148989D01*
X32536D01*
Y151122D01*
X31469Y147922D02*
X33602D01*
X32536D01*
X32002Y147389D01*
X31469Y146855D01*
Y146322D01*
Y144722D02*
X33069D01*
X33602Y144189D01*
Y142589D01*
X34136D01*
X34669Y143122D01*
Y143656D01*
X33602Y142589D02*
X31469D01*
X34136Y141523D02*
Y139389D01*
X30936Y138323D02*
X30403Y137790D01*
Y136723D01*
X30936Y136190D01*
X31469D01*
X32002Y136723D01*
Y137256D01*
Y136723D01*
X32536Y136190D01*
X33069D01*
X33602Y136723D01*
Y137790D01*
X33069Y138323D01*
X32002Y135123D02*
Y132990D01*
X29188Y231188D02*
X32388D01*
Y229588D01*
X31855Y229055D01*
X31322D01*
X30788Y229588D01*
Y231188D01*
Y229588D01*
X30255Y229055D01*
X29722D01*
X29188Y229588D01*
Y231188D01*
X30255Y227455D02*
Y226389D01*
X30788Y225855D01*
X32388D01*
Y227455D01*
X31855Y227988D01*
X31322Y227455D01*
Y225855D01*
X29722Y224255D02*
X30255D01*
Y224789D01*
Y223722D01*
Y224255D01*
X31855D01*
X32388Y223722D01*
X29722Y221589D02*
X30255D01*
Y222122D01*
Y221056D01*
Y221589D01*
X31855D01*
X32388Y221056D01*
Y217856D02*
Y218922D01*
X31855Y219456D01*
X30788D01*
X30255Y218922D01*
Y217856D01*
X30788Y217323D01*
X31322D01*
Y219456D01*
X30255Y216256D02*
X32388D01*
X31322D01*
X30788Y215723D01*
X30255Y215189D01*
Y214656D01*
Y213056D02*
X31855D01*
X32388Y212523D01*
Y210923D01*
X32921D01*
X33455Y211456D01*
Y211990D01*
X32388Y210923D02*
X30255D01*
X32921Y209857D02*
Y207723D01*
X32388Y204523D02*
Y206657D01*
X30255Y204523D01*
X29722D01*
X29188Y205057D01*
Y206123D01*
X29722Y206657D01*
X30788Y203457D02*
Y201324D01*
X309488Y201288D02*
X306288D01*
Y202888D01*
X306821Y203421D01*
X307355D01*
X307888Y202888D01*
Y201288D01*
Y202888D01*
X308421Y203421D01*
X308955D01*
X309488Y202888D01*
Y201288D01*
X308421Y205021D02*
Y206088D01*
X307888Y206621D01*
X306288D01*
Y205021D01*
X306821Y204488D01*
X307355Y205021D01*
Y206621D01*
X308955Y208221D02*
X308421D01*
Y207688D01*
Y208754D01*
Y208221D01*
X306821D01*
X306288Y208754D01*
X308955Y210888D02*
X308421D01*
Y210354D01*
Y211421D01*
Y210888D01*
X306821D01*
X306288Y211421D01*
Y214620D02*
Y213554D01*
X306821Y213021D01*
X307888D01*
X308421Y213554D01*
Y214620D01*
X307888Y215154D01*
X307355D01*
Y213021D01*
X308421Y216220D02*
X306288D01*
X307355D01*
X307888Y216754D01*
X308421Y217287D01*
Y217820D01*
Y219420D02*
X306821D01*
X306288Y219953D01*
Y221553D01*
X305755D01*
X305222Y221020D01*
Y220487D01*
X306288Y221553D02*
X308421D01*
X305755Y222620D02*
Y224753D01*
X306288Y227953D02*
Y225820D01*
X308421Y227953D01*
X308955D01*
X309488Y227419D01*
Y226353D01*
X308955Y225820D01*
X307888Y229019D02*
Y231153D01*
X308955Y230086D02*
X306821D01*
X309488Y286588D02*
X306288D01*
Y288188D01*
X306821Y288721D01*
X307355D01*
X307888Y288188D01*
Y286588D01*
Y288188D01*
X308421Y288721D01*
X308955D01*
X309488Y288188D01*
Y286588D01*
X308421Y290321D02*
Y291388D01*
X307888Y291921D01*
X306288D01*
Y290321D01*
X306821Y289788D01*
X307355Y290321D01*
Y291921D01*
X308955Y293521D02*
X308421D01*
Y292988D01*
Y294054D01*
Y293521D01*
X306821D01*
X306288Y294054D01*
X308955Y296187D02*
X308421D01*
Y295654D01*
Y296721D01*
Y296187D01*
X306821D01*
X306288Y296721D01*
Y299921D02*
Y298854D01*
X306821Y298321D01*
X307888D01*
X308421Y298854D01*
Y299921D01*
X307888Y300454D01*
X307355D01*
Y298321D01*
X308421Y301520D02*
X306288D01*
X307355D01*
X307888Y302054D01*
X308421Y302587D01*
Y303120D01*
Y304720D02*
X306821D01*
X306288Y305253D01*
Y306853D01*
X305755D01*
X305222Y306320D01*
Y305787D01*
X306288Y306853D02*
X308421D01*
X305755Y307920D02*
Y310053D01*
X306288Y311120D02*
Y312186D01*
Y311653D01*
X309488D01*
X308955Y311120D01*
X307888Y313786D02*
Y315919D01*
D36*
X14941Y147838D02*
Y146001D01*
X14023Y145083D01*
X13104Y146001D01*
Y147838D01*
X12186Y144623D02*
X10349D01*
X7594Y147379D02*
X8053Y147838D01*
X8972D01*
X9431Y147379D01*
Y145542D01*
X8972Y145083D01*
X8053D01*
X7594Y145542D01*
X6676Y145083D02*
Y147838D01*
X5757Y146919D01*
X4839Y147838D01*
Y145083D01*
X26607Y108465D02*
X28444D01*
X29362Y107546D01*
X28444Y106628D01*
X26607D01*
Y105710D02*
X29362D01*
Y104332D01*
X28903Y103873D01*
X28444D01*
X27985Y104332D01*
Y105710D01*
Y104332D01*
X27525Y103873D01*
X27066D01*
X26607Y104332D01*
Y105710D01*
X29362Y102954D02*
X27525D01*
X26607Y102036D01*
X27525Y101118D01*
X29362D01*
X27985D01*
Y102954D01*
X26607Y100199D02*
Y98363D01*
Y99281D01*
X29362D01*
X27985Y97444D02*
Y95608D01*
X27066Y96526D02*
X28903D01*
X26532Y128776D02*
X28369D01*
X29287Y127857D01*
X28369Y126939D01*
X26532D01*
Y126021D02*
X29287D01*
Y124643D01*
X28828Y124184D01*
X28369D01*
X27910Y124643D01*
Y126021D01*
Y124643D01*
X27451Y124184D01*
X26992D01*
X26532Y124643D01*
Y126021D01*
X29287Y123266D02*
X27451D01*
X26532Y122347D01*
X27451Y121429D01*
X29287D01*
X27910D01*
Y123266D01*
X26532Y120510D02*
Y118674D01*
Y119592D01*
X29287D01*
X27910Y117755D02*
Y115919D01*
M02*
